<svg viewBox="0 0 600 460" xmlns="http://www.w3.org/2000/svg" font-family="JetBrains Mono, monospace" font-size="9.5">
<rect width="100%" height="100%" fill="#14171b"/>
<text x="22" y="26" fill="#F32740" font-weight="700" letter-spacing="2">LWPF3W120 · 120W · 4000K · CLASSIC FORWARD-THROW</text>
<text x="22" y="42" fill="rgba(255,255,255,0.55)" font-size="8" letter-spacing="1.4">LUMINOUS INTENSITY DISTRIBUTION (cd/klm)</text>
<path d="M 232.0 64.0 A 68.0 68.0 0 0 0 368.0 64.0" fill="none" stroke="rgba(120,200,200,0.18)" stroke-width="0.7"/>
<path d="M 164.0 64.0 A 136.0 136.0 0 0 0 436.0 64.0" fill="none" stroke="rgba(120,200,200,0.18)" stroke-width="0.7"/>
<path d="M 96.0 64.0 A 204.0 204.0 0 0 0 504.0 64.0" fill="none" stroke="rgba(120,200,200,0.18)" stroke-width="0.7"/>
<path d="M 28.0 64.0 A 272.0 272.0 0 0 0 572.0 64.0" fill="none" stroke="rgba(120,200,200,0.18)" stroke-width="0.7"/>
<path d="M -40.0 64.0 A 340.0 340.0 0 0 0 640.0 64.0" fill="none" stroke="rgba(120,200,200,0.18)" stroke-width="0.7"/>
<line x1="300.0" y1="64" x2="388.0" y2="392.4" stroke="rgba(120,200,200,0.10)" stroke-width="0.5"/>
<line x1="300.0" y1="64" x2="212.0" y2="392.4" stroke="rgba(120,200,200,0.10)" stroke-width="0.5"/>
<line x1="300.0" y1="64" x2="470.0" y2="358.4" stroke="rgba(120,200,200,0.10)" stroke-width="0.5"/>
<line x1="300.0" y1="64" x2="130.0" y2="358.4" stroke="rgba(120,200,200,0.10)" stroke-width="0.5"/>
<line x1="300.0" y1="64" x2="540.4" y2="304.4" stroke="rgba(120,200,200,0.10)" stroke-width="0.5"/>
<line x1="300.0" y1="64" x2="59.6" y2="304.4" stroke="rgba(120,200,200,0.10)" stroke-width="0.5"/>
<line x1="300.0" y1="64" x2="594.4" y2="234.0" stroke="rgba(120,200,200,0.10)" stroke-width="0.5"/>
<line x1="300.0" y1="64" x2="5.6" y2="234.0" stroke="rgba(120,200,200,0.10)" stroke-width="0.5"/>
<line x1="300.0" y1="64" x2="628.4" y2="152.0" stroke="rgba(120,200,200,0.10)" stroke-width="0.5"/>
<line x1="300.0" y1="64" x2="-28.4" y2="152.0" stroke="rgba(120,200,200,0.10)" stroke-width="0.5"/>
<line x1="300.0" y1="64" x2="640.0" y2="64.0" stroke="rgba(120,200,200,0.10)" stroke-width="0.5"/>
<line x1="300.0" y1="64" x2="-40.0" y2="64.0" stroke="rgba(120,200,200,0.10)" stroke-width="0.5"/>
<line x1="300.0" y1="64" x2="300.0" y2="408" stroke="rgba(120,200,200,0.14)" stroke-width="0.5"/>
<line x1="-40.0" y1="64" x2="640.0" y2="64" stroke="rgba(120,200,200,0.14)" stroke-width="0.5"/>
<text x="391.6" y="408.9" text-anchor="middle" fill="rgba(255,255,255,0.4)" font-size="9">15°</text>
<text x="208.4" y="408.9" text-anchor="middle" fill="rgba(255,255,255,0.4)" font-size="9">15°</text>
<text x="477.0" y="373.6" text-anchor="middle" fill="rgba(255,255,255,0.6)" font-size="9">30°</text>
<text x="123.0" y="373.6" text-anchor="middle" fill="rgba(255,255,255,0.6)" font-size="9">30°</text>
<text x="550.3" y="317.3" text-anchor="middle" fill="rgba(255,255,255,0.4)" font-size="9">45°</text>
<text x="49.7" y="317.3" text-anchor="middle" fill="rgba(255,255,255,0.4)" font-size="9">45°</text>
<text x="606.6" y="244.0" text-anchor="middle" fill="rgba(255,255,255,0.6)" font-size="9">60°</text>
<text x="-6.6" y="244.0" text-anchor="middle" fill="rgba(255,255,255,0.6)" font-size="9">60°</text>
<text x="641.9" y="158.6" text-anchor="middle" fill="rgba(255,255,255,0.4)" font-size="9">75°</text>
<text x="-41.9" y="158.6" text-anchor="middle" fill="rgba(255,255,255,0.4)" font-size="9">75°</text>
<text x="654.0" y="67.0" text-anchor="middle" fill="rgba(255,255,255,0.6)" font-size="9">90°</text>
<text x="-54.0" y="67.0" text-anchor="middle" fill="rgba(255,255,255,0.6)" font-size="9">90°</text>
<text x="300" y="426" text-anchor="middle" fill="rgba(255,255,255,0.6)" font-size="9">0°</text>
<path d="M 300.0 193.5 L 302.3 194.1 L 304.5 194.0 L 306.8 193.5 L 309.1 193.4 L 311.3 193.3 L 313.5 192.5 L 315.7 192.1 L 317.9 191.5 L 320.1 190.8 L 322.2 189.9 L 324.3 189.2 L 326.3 187.5 L 328.3 186.6 L 330.5 186.1 L 332.3 184.5 L 334.3 183.7 L 336.3 182.9 L 338.2 181.7 L 339.8 179.4 L 341.7 178.6 L 343.3 176.8 L 344.7 174.6 L 346.2 172.9 L 347.5 170.7 L 348.6 168.2 L 349.5 165.5 L 350.3 162.8 L 350.9 159.7 L 351.2 156.3 L 351.4 153.0 L 351.7 150.0 L 351.8 146.8 L 352.2 144.4 L 352.9 142.4 L 353.3 140.1 L 353.8 138.1 L 354.7 136.6 L 355.2 134.7 L 354.8 131.6 L 354.3 128.7 L 353.6 125.6 L 353.7 123.6 L 353.9 121.8 L 354.3 120.2 L 354.7 118.7 L 354.3 116.5 L 353.5 113.9 L 352.5 111.3 L 352.3 109.5 L 352.0 107.6 L 351.0 105.3 L 349.8 102.9 L 349.4 101.2 L 349.0 99.6 L 348.3 97.8 L 347.4 96.0 L 346.5 94.2 L 345.7 92.5 L 344.7 90.9 L 344.1 89.5 L 343.2 87.9 L 342.2 86.4 L 341.2 85.0 L 340.1 83.6 L 338.9 82.1 L 338.1 81.0 L 337.3 79.8 L 336.4 78.7 L 335.3 77.6 L 334.2 76.4 L 333.2 75.4 L 331.9 74.4 L 330.4 73.3 L 329.2 72.4 L 327.6 71.4 L 325.8 70.4 L 324.3 69.6 L 322.5 68.8 L 320.8 68.0 L 318.8 67.3 L 317.0 66.7 L 315.5 66.2 L 314.0 65.7 L 312.8 65.3 L 311.7 65.0 L 310.8 64.8 L 310.0 64.5 L 309.4 64.3 L 308.8 64.2 L 308.1 64.0 L 292.7 64.0 L 292.7 64.1 L 292.7 64.3 L 292.1 64.4 L 291.5 64.6 L 291.0 64.8 L 290.1 65.0 L 289.2 65.3 L 288.3 65.6 L 287.2 66.0 L 286.0 66.5 L 284.7 67.0 L 283.3 67.6 L 281.4 68.3 L 279.5 69.1 L 277.8 69.9 L 276.0 70.9 L 274.0 71.9 L 272.6 72.9 L 271.0 74.0 L 269.7 75.0 L 268.3 76.2 L 267.3 77.2 L 266.2 78.3 L 265.3 79.5 L 264.3 80.7 L 263.2 81.9 L 262.3 83.2 L 261.6 84.4 L 260.5 85.9 L 259.7 87.3 L 258.7 88.8 L 258.1 90.2 L 257.2 91.8 L 256.3 93.5 L 255.8 95.0 L 254.9 96.8 L 254.3 98.5 L 253.6 100.3 L 252.7 102.3 L 252.0 104.2 L 251.6 106.1 L 251.2 107.9 L 250.3 110.3 L 250.0 112.3 L 249.4 114.6 L 249.3 116.5 L 249.4 118.2 L 249.4 120.2 L 249.2 122.4 L 248.7 125.1 L 248.1 128.0 L 248.1 130.5 L 248.4 132.4 L 248.8 134.5 L 249.7 135.9 L 250.1 138.0 L 250.7 139.9 L 251.2 142.2 L 251.6 144.5 L 252.2 146.8 L 252.5 149.7 L 253.4 151.6 L 254.1 154.1 L 254.6 157.0 L 255.4 159.7 L 256.4 161.9 L 257.2 164.8 L 258.3 167.3 L 259.4 169.7 L 260.6 172.4 L 261.9 174.7 L 263.3 176.8 L 264.9 178.7 L 266.7 180.2 L 268.6 181.4 L 270.4 182.5 L 272.4 183.6 L 274.4 184.5 L 276.4 185.4 L 278.5 186.1 L 280.3 188.1 L 282.4 189.3 L 284.5 190.5 L 286.7 190.5 L 288.9 191.4 L 291.0 192.3 L 293.2 193.0 L 295.5 193.5 L 297.7 193.3 L 300.0 193.5 Z" fill="none" stroke="#3FA9F5" stroke-width="1.7" stroke-linejoin="round" stroke-linecap="round"/>
<path d="M 300.0 193.5 L 302.3 196.0 L 305.0 208.1 L 308.4 225.1 L 311.1 223.1 L 314.1 225.4 L 317.4 229.8 L 321.4 238.0 L 324.5 238.2 L 326.8 233.2 L 330.6 237.4 L 336.9 253.6 L 341.8 260.8 L 344.4 256.5 L 349.7 263.2 L 352.3 259.3 L 354.2 253.1 L 355.8 246.5 L 366.3 267.9 L 376.5 286.1 L 378.3 279.3 L 370.0 246.3 L 371.0 239.7 L 385.8 266.1 L 399.9 288.4 L 402.9 284.6 L 399.5 268.0 L 399.9 260.0 L 406.7 264.6 L 410.1 262.7 L 413.2 260.0 L 420.4 264.3 L 428.7 269.9 L 437.8 276.2 L 447.4 282.5 L 444.7 270.7 L 439.4 255.9 L 445.1 256.6 L 458.3 266.6 L 458.6 259.8 L 452.3 245.5 L 452.9 239.9 L 461.9 243.8 L 465.6 241.6 L 457.9 227.5 L 453.8 217.8 L 454.9 213.6 L 459.7 213.0 L 458.8 207.0 L 454.8 198.6 L 453.6 192.9 L 462.8 195.8 L 467.3 194.7 L 467.5 190.2 L 463.3 182.7 L 477.3 188.2 L 491.1 192.9 L 493.0 189.3 L 479.4 176.1 L 487.2 176.5 L 499.2 179.0 L 490.3 169.5 L 476.9 158.0 L 498.1 164.9 L 520.0 171.3 L 490.7 152.9 L 472.3 140.7 L 504.6 150.8 L 523.8 154.4 L 490.5 137.1 L 465.3 124.2 L 515.4 138.2 L 519.8 135.4 L 488.1 121.5 L 465.1 111.3 L 508.2 119.8 L 512.6 117.0 L 477.4 105.0 L 491.2 104.6 L 491.2 101.2 L 490.4 97.6 L 495.8 95.0 L 483.4 89.8 L 489.9 87.3 L 486.5 83.6 L 495.5 81.1 L 479.9 76.6 L 481.3 73.5 L 471.7 70.0 L 467.6 66.9 L 456.9 64.0 L 297.6 64.0 L 297.6 64.0 L 297.6 64.1 L 297.6 64.1 L 297.7 64.2 L 297.7 64.2 L 297.7 64.2 L 297.7 64.3 L 297.8 64.3 L 297.8 64.4 L 297.8 64.4 L 297.7 64.4 L 297.5 64.5 L 297.3 64.6 L 297.1 64.7 L 296.9 64.8 L 296.5 65.0 L 295.6 65.3 L 294.8 65.7 L 293.9 66.1 L 292.8 66.6 L 291.4 67.3 L 290.0 68.0 L 288.6 68.8 L 287.3 69.6 L 286.1 70.5 L 284.6 71.5 L 283.0 72.7 L 281.5 73.8 L 280.3 74.9 L 279.2 76.0 L 277.9 77.3 L 276.8 78.5 L 275.1 80.2 L 273.6 81.8 L 272.6 83.2 L 271.9 84.4 L 271.2 85.7 L 271.0 86.7 L 270.5 87.9 L 270.0 89.2 L 269.2 90.8 L 268.3 92.5 L 268.0 93.8 L 267.4 95.5 L 266.7 97.3 L 266.2 99.0 L 265.9 100.6 L 265.5 102.3 L 264.7 104.6 L 264.7 106.1 L 264.7 107.6 L 264.6 109.3 L 264.5 111.1 L 264.5 112.8 L 264.6 114.5 L 265.5 115.1 L 265.9 116.5 L 265.6 119.0 L 266.3 120.2 L 267.1 121.0 L 267.6 122.5 L 268.5 123.3 L 269.7 123.4 L 270.8 123.8 L 272.2 123.5 L 273.9 122.7 L 275.3 122.1 L 276.2 123.0 L 276.7 124.6 L 277.4 126.0 L 279.1 124.8 L 279.5 127.2 L 278.8 133.4 L 278.8 138.1 L 280.5 136.8 L 283.5 130.0 L 285.2 128.2 L 285.1 134.0 L 283.1 151.1 L 281.7 167.5 L 284.8 159.9 L 288.4 146.7 L 290.1 144.8 L 290.5 154.0 L 290.4 173.5 L 291.5 185.6 L 293.7 184.5 L 296.1 177.0 L 297.9 185.6 L 300.0 193.5 Z" fill="none" stroke="#F32740" stroke-width="2.0" stroke-linejoin="round" stroke-linecap="round"/>
<text x="338" y="132" fill="#F32740" font-size="9.5" font-weight="700">100</text>
<text x="335" y="200" fill="#F32740" font-size="9.5" font-weight="700">200</text>
<text x="335" y="268" fill="#F32740" font-size="9.5" font-weight="700">300</text>
<text x="335" y="336" fill="#F32740" font-size="9.5" font-weight="700">400</text>
<rect x="274.0" y="58" width="52" height="11" rx="1.5" fill="#fafbfc" stroke="rgba(255,255,255,0.4)" stroke-width="0.5"/>
<line x1="272.0" y1="69.8" x2="328.0" y2="69.8" stroke="#F32740" stroke-width="0.7" stroke-dasharray="1.5 2"/>
<text x="300" y="66" text-anchor="middle" fill="#F32740" font-size="8" font-weight="700" letter-spacing="0.5">cd/klm SCALE</text>
<g transform="translate(22, 434)">
<text x="0" y="-8" fill="rgba(255,255,255,0.55)" font-size="8" letter-spacing="1.4">cd/klm</text>
<line x1="0" y1="6" x2="22" y2="6" stroke="#F32740" stroke-width="2.2"/>
<text x="28" y="9" fill="rgba(255,255,255,0.7)" font-size="9.5">C0 – C180</text>
<line x1="120" y1="6" x2="142" y2="6" stroke="#3FA9F5" stroke-width="1.7"/>
<text x="148" y="9" fill="rgba(255,255,255,0.7)" font-size="9.5">C90 – C270</text>
</g>
<text x="578" y="402" fill="rgba(255,255,255,0.45)" font-size="9" text-anchor="end">η = 152 lm/W</text>
<text x="578" y="418" fill="rgba(255,255,255,0.45)" font-size="9" text-anchor="end">17,248 lm · 113.5W</text>
<text x="578" y="434" fill="rgba(255,255,255,0.55)" font-size="8" letter-spacing="1.4" text-anchor="end">PEAK INTENSITY</text>
<text x="578" y="451" fill="#fff" font-weight="700" font-size="14" text-anchor="end">6,686 cd</text>
</svg>