<svg viewBox="0 0 600 460" xmlns="http://www.w3.org/2000/svg" font-family="JetBrains Mono, monospace" font-size="9.5">
<rect width="100%" height="100%" fill="#14171b"/>
<text x="22" y="26" fill="#F32740" font-weight="700" letter-spacing="2">LWPF3W80 · 80W · 4000K · CLASSIC FORWARD-THROW</text>
<text x="22" y="42" fill="rgba(255,255,255,0.55)" font-size="8" letter-spacing="1.4">LUMINOUS INTENSITY DISTRIBUTION (cd/klm)</text>
<path d="M 232.0 64.0 A 68.0 68.0 0 0 0 368.0 64.0" fill="none" stroke="rgba(120,200,200,0.18)" stroke-width="0.7"/>
<path d="M 164.0 64.0 A 136.0 136.0 0 0 0 436.0 64.0" fill="none" stroke="rgba(120,200,200,0.18)" stroke-width="0.7"/>
<path d="M 96.0 64.0 A 204.0 204.0 0 0 0 504.0 64.0" fill="none" stroke="rgba(120,200,200,0.18)" stroke-width="0.7"/>
<path d="M 28.0 64.0 A 272.0 272.0 0 0 0 572.0 64.0" fill="none" stroke="rgba(120,200,200,0.18)" stroke-width="0.7"/>
<path d="M -40.0 64.0 A 340.0 340.0 0 0 0 640.0 64.0" fill="none" stroke="rgba(120,200,200,0.18)" stroke-width="0.7"/>
<line x1="300.0" y1="64" x2="388.0" y2="392.4" stroke="rgba(120,200,200,0.10)" stroke-width="0.5"/>
<line x1="300.0" y1="64" x2="212.0" y2="392.4" stroke="rgba(120,200,200,0.10)" stroke-width="0.5"/>
<line x1="300.0" y1="64" x2="470.0" y2="358.4" stroke="rgba(120,200,200,0.10)" stroke-width="0.5"/>
<line x1="300.0" y1="64" x2="130.0" y2="358.4" stroke="rgba(120,200,200,0.10)" stroke-width="0.5"/>
<line x1="300.0" y1="64" x2="540.4" y2="304.4" stroke="rgba(120,200,200,0.10)" stroke-width="0.5"/>
<line x1="300.0" y1="64" x2="59.6" y2="304.4" stroke="rgba(120,200,200,0.10)" stroke-width="0.5"/>
<line x1="300.0" y1="64" x2="594.4" y2="234.0" stroke="rgba(120,200,200,0.10)" stroke-width="0.5"/>
<line x1="300.0" y1="64" x2="5.6" y2="234.0" stroke="rgba(120,200,200,0.10)" stroke-width="0.5"/>
<line x1="300.0" y1="64" x2="628.4" y2="152.0" stroke="rgba(120,200,200,0.10)" stroke-width="0.5"/>
<line x1="300.0" y1="64" x2="-28.4" y2="152.0" stroke="rgba(120,200,200,0.10)" stroke-width="0.5"/>
<line x1="300.0" y1="64" x2="640.0" y2="64.0" stroke="rgba(120,200,200,0.10)" stroke-width="0.5"/>
<line x1="300.0" y1="64" x2="-40.0" y2="64.0" stroke="rgba(120,200,200,0.10)" stroke-width="0.5"/>
<line x1="300.0" y1="64" x2="300.0" y2="408" stroke="rgba(120,200,200,0.14)" stroke-width="0.5"/>
<line x1="-40.0" y1="64" x2="640.0" y2="64" stroke="rgba(120,200,200,0.14)" stroke-width="0.5"/>
<text x="391.6" y="408.9" text-anchor="middle" fill="rgba(255,255,255,0.4)" font-size="9">15°</text>
<text x="208.4" y="408.9" text-anchor="middle" fill="rgba(255,255,255,0.4)" font-size="9">15°</text>
<text x="477.0" y="373.6" text-anchor="middle" fill="rgba(255,255,255,0.6)" font-size="9">30°</text>
<text x="123.0" y="373.6" text-anchor="middle" fill="rgba(255,255,255,0.6)" font-size="9">30°</text>
<text x="550.3" y="317.3" text-anchor="middle" fill="rgba(255,255,255,0.4)" font-size="9">45°</text>
<text x="49.7" y="317.3" text-anchor="middle" fill="rgba(255,255,255,0.4)" font-size="9">45°</text>
<text x="606.6" y="244.0" text-anchor="middle" fill="rgba(255,255,255,0.6)" font-size="9">60°</text>
<text x="-6.6" y="244.0" text-anchor="middle" fill="rgba(255,255,255,0.6)" font-size="9">60°</text>
<text x="641.9" y="158.6" text-anchor="middle" fill="rgba(255,255,255,0.4)" font-size="9">75°</text>
<text x="-41.9" y="158.6" text-anchor="middle" fill="rgba(255,255,255,0.4)" font-size="9">75°</text>
<text x="654.0" y="67.0" text-anchor="middle" fill="rgba(255,255,255,0.6)" font-size="9">90°</text>
<text x="-54.0" y="67.0" text-anchor="middle" fill="rgba(255,255,255,0.6)" font-size="9">90°</text>
<text x="300" y="426" text-anchor="middle" fill="rgba(255,255,255,0.6)" font-size="9">0°</text>
<path d="M 300.0 194.0 L 302.3 194.6 L 304.6 194.9 L 306.8 193.6 L 309.0 192.7 L 311.1 191.2 L 313.4 191.8 L 315.8 192.4 L 317.9 191.2 L 319.7 188.6 L 321.6 186.4 L 323.8 186.4 L 326.3 187.6 L 328.5 187.2 L 330.3 185.4 L 331.8 182.6 L 334.1 182.8 L 336.6 183.7 L 339.1 184.3 L 340.7 182.2 L 342.1 179.6 L 344.4 179.8 L 346.6 179.4 L 347.2 175.1 L 347.4 170.5 L 348.1 167.2 L 349.9 166.3 L 350.2 162.6 L 350.5 158.9 L 351.1 156.3 L 352.3 154.6 L 353.3 152.6 L 354.4 151.1 L 356.0 150.3 L 356.6 147.9 L 356.4 144.5 L 356.4 141.6 L 355.7 137.9 L 355.7 135.3 L 355.9 133.0 L 356.9 131.8 L 357.9 130.7 L 357.9 128.3 L 356.3 124.4 L 355.6 121.6 L 355.9 119.9 L 355.6 117.7 L 355.2 115.5 L 354.6 113.2 L 353.7 110.7 L 353.7 109.1 L 353.0 107.0 L 352.4 104.9 L 351.9 103.1 L 351.8 101.6 L 351.0 99.7 L 350.0 97.7 L 349.6 96.2 L 348.4 94.2 L 347.3 92.4 L 346.6 90.9 L 345.1 89.0 L 345.0 87.9 L 344.1 86.5 L 343.4 85.2 L 342.6 83.8 L 342.3 82.8 L 341.4 81.6 L 340.5 80.3 L 339.8 79.3 L 339.5 78.4 L 338.2 77.2 L 337.0 76.0 L 336.0 75.0 L 334.2 73.8 L 332.5 72.7 L 330.7 71.6 L 329.0 70.7 L 327.6 69.9 L 325.2 68.9 L 323.5 68.1 L 321.8 67.5 L 319.2 66.7 L 317.6 66.2 L 315.8 65.7 L 314.1 65.2 L 313.1 64.9 L 312.2 64.6 L 311.4 64.4 L 310.7 64.2 L 310.1 64.0 L 293.2 64.0 L 293.3 64.1 L 293.1 64.2 L 292.6 64.4 L 292.0 64.6 L 291.4 64.8 L 290.7 65.0 L 289.9 65.2 L 289.0 65.5 L 288.0 65.9 L 287.1 66.3 L 286.0 66.7 L 284.8 67.2 L 283.7 67.8 L 282.1 68.5 L 280.4 69.3 L 278.7 70.1 L 277.0 71.0 L 275.4 72.0 L 274.0 72.9 L 272.4 74.0 L 271.2 75.1 L 269.9 76.2 L 268.9 77.2 L 267.9 78.3 L 266.6 79.6 L 265.3 80.9 L 264.4 82.2 L 263.6 83.3 L 262.9 84.6 L 262.0 85.9 L 261.4 87.2 L 260.2 88.9 L 259.5 90.3 L 259.0 91.7 L 258.8 92.9 L 257.1 95.1 L 256.7 96.6 L 256.4 98.0 L 255.9 99.7 L 255.0 101.7 L 254.4 103.6 L 254.0 105.4 L 254.1 106.8 L 253.8 108.6 L 252.8 111.2 L 252.1 113.6 L 251.2 116.3 L 251.4 118.0 L 251.9 119.3 L 252.0 121.3 L 252.4 122.8 L 252.7 124.5 L 252.3 127.3 L 252.0 130.1 L 252.4 132.0 L 252.4 134.6 L 252.1 137.8 L 252.8 139.5 L 253.6 141.2 L 254.4 142.9 L 255.0 145.2 L 255.5 147.7 L 256.6 149.3 L 257.4 151.4 L 258.9 152.1 L 260.0 153.9 L 260.5 157.2 L 261.7 158.9 L 262.8 160.8 L 264.7 160.9 L 265.7 163.7 L 266.0 168.5 L 267.7 169.8 L 269.2 171.4 L 270.6 173.7 L 271.8 177.2 L 273.1 180.6 L 274.9 182.3 L 277.1 182.0 L 278.8 184.3 L 280.8 185.0 L 282.7 187.2 L 284.6 189.4 L 286.8 190.0 L 288.8 191.5 L 291.1 191.9 L 293.3 192.5 L 295.5 193.3 L 297.7 194.4 L 300.0 194.0 Z" fill="none" stroke="#3FA9F5" stroke-width="1.7" stroke-linejoin="round" stroke-linecap="round"/>
<path d="M 300.0 194.0 L 302.3 195.5 L 304.9 203.5 L 308.2 220.0 L 311.2 224.7 L 314.3 227.2 L 317.4 229.9 L 320.8 233.3 L 323.5 231.4 L 326.3 230.2 L 330.5 237.0 L 336.6 252.2 L 340.4 254.2 L 343.2 251.0 L 347.4 254.0 L 351.9 257.7 L 354.4 253.8 L 354.1 241.0 L 362.0 254.9 L 374.7 281.1 L 378.1 278.6 L 372.2 252.1 L 369.7 236.6 L 382.7 258.7 L 397.2 282.4 L 401.6 281.8 L 399.5 268.0 L 398.5 257.4 L 405.3 262.0 L 409.3 261.2 L 410.1 254.7 L 416.6 258.1 L 426.4 266.3 L 438.9 278.0 L 447.6 282.8 L 447.9 275.2 L 440.8 257.8 L 445.1 256.6 L 456.6 264.4 L 459.1 260.5 L 451.9 245.0 L 453.5 240.6 L 463.0 245.1 L 469.6 245.9 L 462.5 232.3 L 454.6 218.6 L 454.4 213.1 L 459.2 212.4 L 460.0 208.0 L 456.9 200.4 L 456.8 195.6 L 463.8 196.6 L 467.9 195.2 L 465.1 188.4 L 461.6 181.4 L 471.5 184.1 L 484.9 188.7 L 485.5 184.4 L 474.8 173.2 L 479.2 171.7 L 492.4 175.1 L 490.6 169.7 L 473.9 156.5 L 486.3 158.9 L 503.9 163.5 L 493.1 154.0 L 472.0 140.6 L 500.6 149.1 L 521.6 153.5 L 491.9 137.7 L 466.7 124.7 L 512.1 137.0 L 520.5 135.6 L 491.1 122.4 L 463.0 110.7 L 502.9 118.4 L 514.0 117.4 L 479.6 105.5 L 484.2 103.2 L 494.9 101.9 L 491.5 97.8 L 490.1 94.1 L 483.0 89.7 L 488.7 87.2 L 484.6 83.4 L 491.3 80.7 L 481.1 76.7 L 483.4 73.6 L 473.8 70.1 L 468.5 66.9 L 463.1 64.0 L 297.5 64.0 L 297.6 64.0 L 297.6 64.1 L 297.6 64.1 L 297.6 64.2 L 297.7 64.2 L 297.7 64.2 L 297.7 64.3 L 297.7 64.3 L 297.7 64.4 L 297.8 64.4 L 297.7 64.4 L 297.5 64.5 L 297.3 64.6 L 297.1 64.7 L 296.9 64.8 L 296.5 65.0 L 296.0 65.2 L 295.2 65.6 L 294.0 66.1 L 292.9 66.6 L 291.8 67.2 L 290.7 67.8 L 289.6 68.4 L 288.3 69.2 L 286.8 70.2 L 285.5 71.1 L 284.3 72.0 L 283.0 73.0 L 281.5 74.3 L 280.4 75.3 L 279.5 76.3 L 277.9 77.8 L 276.7 79.1 L 275.7 80.4 L 274.6 81.8 L 273.8 83.1 L 273.0 84.4 L 272.4 85.5 L 271.7 86.9 L 271.0 88.3 L 270.4 89.7 L 269.3 91.6 L 268.3 93.5 L 267.9 95.0 L 267.4 96.6 L 266.9 98.2 L 266.3 100.2 L 265.9 101.9 L 265.0 104.2 L 265.0 105.7 L 265.0 107.2 L 264.4 109.6 L 264.1 111.6 L 264.1 113.5 L 264.0 115.4 L 264.7 116.3 L 264.9 118.0 L 264.7 120.6 L 265.6 121.3 L 266.5 122.1 L 266.9 123.8 L 267.9 124.4 L 269.2 124.4 L 270.4 124.7 L 272.0 124.1 L 273.2 124.2 L 274.6 124.0 L 275.4 124.9 L 275.9 126.7 L 277.0 127.3 L 278.7 125.9 L 279.1 128.3 L 278.3 135.1 L 278.4 139.3 L 280.3 137.5 L 283.3 130.9 L 283.1 137.2 L 283.1 143.5 L 283.3 149.9 L 281.8 167.1 L 284.5 162.0 L 288.1 148.5 L 290.0 145.7 L 290.5 154.7 L 290.5 172.4 L 291.6 184.0 L 293.8 182.1 L 296.1 177.0 L 297.9 185.9 L 300.0 194.0 Z" fill="none" stroke="#F32740" stroke-width="2.0" stroke-linejoin="round" stroke-linecap="round"/>
<text x="338" y="132" fill="#F32740" font-size="9.5" font-weight="700">100</text>
<text x="335" y="200" fill="#F32740" font-size="9.5" font-weight="700">200</text>
<text x="335" y="268" fill="#F32740" font-size="9.5" font-weight="700">300</text>
<text x="335" y="336" fill="#F32740" font-size="9.5" font-weight="700">400</text>
<rect x="274.0" y="58" width="52" height="11" rx="1.5" fill="#fafbfc" stroke="rgba(255,255,255,0.4)" stroke-width="0.5"/>
<line x1="272.0" y1="69.8" x2="328.0" y2="69.8" stroke="#F32740" stroke-width="0.7" stroke-dasharray="1.5 2"/>
<text x="300" y="66" text-anchor="middle" fill="#F32740" font-size="8" font-weight="700" letter-spacing="0.5">cd/klm SCALE</text>
<g transform="translate(22, 434)">
<text x="0" y="-8" fill="rgba(255,255,255,0.55)" font-size="8" letter-spacing="1.4">cd/klm</text>
<line x1="0" y1="6" x2="22" y2="6" stroke="#F32740" stroke-width="2.2"/>
<text x="28" y="9" fill="rgba(255,255,255,0.7)" font-size="9.5">C0 – C180</text>
<line x1="120" y1="6" x2="142" y2="6" stroke="#3FA9F5" stroke-width="1.7"/>
<text x="148" y="9" fill="rgba(255,255,255,0.7)" font-size="9.5">C90 – C270</text>
</g>
<text x="578" y="402" fill="rgba(255,255,255,0.45)" font-size="9" text-anchor="end">η = 155 lm/W</text>
<text x="578" y="418" fill="rgba(255,255,255,0.45)" font-size="9" text-anchor="end">11,814 lm · 76.3W</text>
<text x="578" y="434" fill="rgba(255,255,255,0.55)" font-size="8" letter-spacing="1.4" text-anchor="end">PEAK INTENSITY</text>
<text x="578" y="451" fill="#fff" font-weight="700" font-size="14" text-anchor="end">4,586 cd</text>
</svg>