<svg viewBox="0 0 600 460" xmlns="http://www.w3.org/2000/svg" font-family="JetBrains Mono, monospace" font-size="9.5">
<rect width="100%" height="100%" fill="#14171b"/>
<text x="22" y="26" fill="#F32740" font-weight="700" letter-spacing="2">LWPF3W40 · 40W · 3500K · CLASSIC FORWARD-THROW</text>
<text x="22" y="42" fill="rgba(255,255,255,0.55)" font-size="8" letter-spacing="1.4">LUMINOUS INTENSITY DISTRIBUTION (cd/klm)</text>
<path d="M 232.0 64.0 A 68.0 68.0 0 0 0 368.0 64.0" fill="none" stroke="rgba(120,200,200,0.18)" stroke-width="0.7"/>
<path d="M 164.0 64.0 A 136.0 136.0 0 0 0 436.0 64.0" fill="none" stroke="rgba(120,200,200,0.18)" stroke-width="0.7"/>
<path d="M 96.0 64.0 A 204.0 204.0 0 0 0 504.0 64.0" fill="none" stroke="rgba(120,200,200,0.18)" stroke-width="0.7"/>
<path d="M 28.0 64.0 A 272.0 272.0 0 0 0 572.0 64.0" fill="none" stroke="rgba(120,200,200,0.18)" stroke-width="0.7"/>
<path d="M -40.0 64.0 A 340.0 340.0 0 0 0 640.0 64.0" fill="none" stroke="rgba(120,200,200,0.18)" stroke-width="0.7"/>
<line x1="300.0" y1="64" x2="388.0" y2="392.4" stroke="rgba(120,200,200,0.10)" stroke-width="0.5"/>
<line x1="300.0" y1="64" x2="212.0" y2="392.4" stroke="rgba(120,200,200,0.10)" stroke-width="0.5"/>
<line x1="300.0" y1="64" x2="470.0" y2="358.4" stroke="rgba(120,200,200,0.10)" stroke-width="0.5"/>
<line x1="300.0" y1="64" x2="130.0" y2="358.4" stroke="rgba(120,200,200,0.10)" stroke-width="0.5"/>
<line x1="300.0" y1="64" x2="540.4" y2="304.4" stroke="rgba(120,200,200,0.10)" stroke-width="0.5"/>
<line x1="300.0" y1="64" x2="59.6" y2="304.4" stroke="rgba(120,200,200,0.10)" stroke-width="0.5"/>
<line x1="300.0" y1="64" x2="594.4" y2="234.0" stroke="rgba(120,200,200,0.10)" stroke-width="0.5"/>
<line x1="300.0" y1="64" x2="5.6" y2="234.0" stroke="rgba(120,200,200,0.10)" stroke-width="0.5"/>
<line x1="300.0" y1="64" x2="628.4" y2="152.0" stroke="rgba(120,200,200,0.10)" stroke-width="0.5"/>
<line x1="300.0" y1="64" x2="-28.4" y2="152.0" stroke="rgba(120,200,200,0.10)" stroke-width="0.5"/>
<line x1="300.0" y1="64" x2="640.0" y2="64.0" stroke="rgba(120,200,200,0.10)" stroke-width="0.5"/>
<line x1="300.0" y1="64" x2="-40.0" y2="64.0" stroke="rgba(120,200,200,0.10)" stroke-width="0.5"/>
<line x1="300.0" y1="64" x2="300.0" y2="408" stroke="rgba(120,200,200,0.14)" stroke-width="0.5"/>
<line x1="-40.0" y1="64" x2="640.0" y2="64" stroke="rgba(120,200,200,0.14)" stroke-width="0.5"/>
<text x="391.6" y="408.9" text-anchor="middle" fill="rgba(255,255,255,0.4)" font-size="9">15°</text>
<text x="208.4" y="408.9" text-anchor="middle" fill="rgba(255,255,255,0.4)" font-size="9">15°</text>
<text x="477.0" y="373.6" text-anchor="middle" fill="rgba(255,255,255,0.6)" font-size="9">30°</text>
<text x="123.0" y="373.6" text-anchor="middle" fill="rgba(255,255,255,0.6)" font-size="9">30°</text>
<text x="550.3" y="317.3" text-anchor="middle" fill="rgba(255,255,255,0.4)" font-size="9">45°</text>
<text x="49.7" y="317.3" text-anchor="middle" fill="rgba(255,255,255,0.4)" font-size="9">45°</text>
<text x="606.6" y="244.0" text-anchor="middle" fill="rgba(255,255,255,0.6)" font-size="9">60°</text>
<text x="-6.6" y="244.0" text-anchor="middle" fill="rgba(255,255,255,0.6)" font-size="9">60°</text>
<text x="641.9" y="158.6" text-anchor="middle" fill="rgba(255,255,255,0.4)" font-size="9">75°</text>
<text x="-41.9" y="158.6" text-anchor="middle" fill="rgba(255,255,255,0.4)" font-size="9">75°</text>
<text x="654.0" y="67.0" text-anchor="middle" fill="rgba(255,255,255,0.6)" font-size="9">90°</text>
<text x="-54.0" y="67.0" text-anchor="middle" fill="rgba(255,255,255,0.6)" font-size="9">90°</text>
<text x="300" y="426" text-anchor="middle" fill="rgba(255,255,255,0.6)" font-size="9">0°</text>
<path d="M 300.0 156.3 L 301.6 156.7 L 303.2 156.7 L 304.8 155.5 L 306.3 153.5 L 307.8 153.5 L 309.6 155.1 L 311.0 154.0 L 312.4 152.2 L 313.8 151.4 L 315.2 150.0 L 316.6 149.5 L 317.8 147.8 L 319.1 146.6 L 320.5 146.2 L 321.6 144.4 L 322.7 143.1 L 323.9 142.2 L 324.8 140.4 L 326.2 140.0 L 326.8 137.7 L 327.6 136.0 L 328.2 133.7 L 328.9 132.0 L 329.7 130.6 L 330.2 128.8 L 330.8 127.2 L 332.0 126.7 L 332.8 125.7 L 334.2 125.6 L 334.5 123.8 L 334.6 121.6 L 334.8 119.7 L 335.0 117.9 L 335.6 116.8 L 337.1 117.0 L 337.9 116.2 L 338.2 114.8 L 339.2 114.2 L 339.1 112.3 L 337.3 108.4 L 336.8 106.4 L 338.4 106.7 L 339.2 106.0 L 338.8 104.2 L 338.1 102.1 L 337.7 100.4 L 337.8 99.3 L 337.4 97.7 L 337.0 96.1 L 336.3 94.5 L 336.9 93.9 L 336.9 92.8 L 335.8 91.0 L 334.6 89.2 L 333.6 87.5 L 333.1 86.3 L 332.4 85.0 L 331.6 83.7 L 329.9 82.0 L 329.3 80.9 L 328.5 79.8 L 327.4 78.6 L 327.3 77.9 L 326.5 76.9 L 325.5 75.9 L 325.4 75.3 L 324.8 74.5 L 324.3 73.8 L 323.9 73.2 L 323.1 72.4 L 322.7 71.8 L 321.7 71.0 L 321.1 70.5 L 320.8 70.0 L 319.8 69.3 L 318.4 68.6 L 317.0 67.9 L 315.7 67.3 L 314.1 66.7 L 312.8 66.3 L 311.5 65.8 L 310.4 65.5 L 309.6 65.2 L 308.8 64.9 L 308.1 64.7 L 307.5 64.5 L 307.0 64.4 L 306.5 64.2 L 306.0 64.1 L 305.8 64.0 L 294.2 64.0 L 294.2 64.1 L 293.8 64.2 L 293.3 64.4 L 292.7 64.5 L 292.1 64.7 L 291.4 64.9 L 290.6 65.2 L 289.7 65.4 L 288.8 65.8 L 287.7 66.2 L 286.1 66.7 L 284.5 67.3 L 282.8 68.0 L 280.7 68.8 L 279.6 69.5 L 278.4 70.2 L 278.1 70.7 L 277.4 71.4 L 276.7 72.0 L 276.1 72.7 L 275.5 73.4 L 274.4 74.3 L 273.9 75.1 L 273.8 75.7 L 272.7 76.7 L 272.6 77.4 L 272.2 78.2 L 271.1 79.4 L 270.5 80.4 L 268.9 81.9 L 268.4 83.0 L 268.5 83.7 L 267.0 85.4 L 266.6 86.5 L 264.7 88.7 L 264.0 90.1 L 265.1 90.3 L 264.6 91.7 L 262.4 94.5 L 261.4 96.4 L 262.4 96.7 L 262.0 98.2 L 261.8 99.6 L 262.3 100.4 L 262.1 101.9 L 260.8 104.6 L 260.4 106.5 L 260.5 107.9 L 262.2 107.5 L 262.3 109.0 L 262.0 111.0 L 261.5 113.3 L 260.8 116.0 L 260.2 118.8 L 261.0 119.6 L 262.5 119.6 L 263.7 119.9 L 263.4 122.5 L 264.0 123.9 L 264.9 124.7 L 265.4 126.5 L 266.3 127.4 L 267.5 127.7 L 268.3 129.0 L 269.5 129.4 L 270.8 129.5 L 271.4 131.4 L 271.5 134.4 L 272.4 135.8 L 273.3 137.3 L 274.5 138.0 L 275.1 140.7 L 276.1 142.3 L 277.2 143.6 L 278.0 146.2 L 279.4 146.5 L 280.8 147.3 L 282.0 148.6 L 283.5 148.9 L 284.8 150.3 L 286.1 151.8 L 287.6 152.3 L 289.1 152.4 L 290.6 153.0 L 292.1 154.4 L 293.6 156.1 L 295.2 156.2 L 296.9 154.2 L 298.4 155.2 L 300.0 156.3 Z" fill="none" stroke="#3FA9F5" stroke-width="1.7" stroke-linejoin="round" stroke-linecap="round"/>
<path d="M 300.0 156.3 L 301.9 172.8 L 304.3 188.4 L 306.6 189.7 L 308.1 179.6 L 310.9 188.6 L 313.4 191.4 L 316.0 194.7 L 318.8 197.7 L 322.5 206.0 L 324.1 200.8 L 326.9 202.3 L 332.2 215.4 L 338.5 231.0 L 343.4 238.0 L 340.6 215.7 L 340.6 205.8 L 352.6 236.1 L 367.9 272.9 L 370.7 269.4 L 365.4 243.7 L 359.4 218.7 L 359.4 211.0 L 374.3 239.1 L 382.8 249.9 L 379.5 234.5 L 372.7 213.0 L 375.3 211.7 L 377.0 208.9 L 384.0 215.6 L 394.5 227.6 L 399.5 229.7 L 416.7 250.7 L 421.2 250.6 L 419.1 240.5 L 412.4 224.5 L 418.3 226.8 L 420.5 223.9 L 439.1 242.0 L 449.6 248.7 L 441.5 232.6 L 439.2 224.1 L 442.7 222.5 L 428.5 201.8 L 417.7 185.8 L 422.8 186.8 L 429.8 189.3 L 424.1 179.7 L 410.0 163.1 L 406.6 156.7 L 420.4 165.0 L 449.2 184.8 L 453.7 184.1 L 463.3 187.0 L 454.8 176.5 L 454.9 172.5 L 454.3 168.1 L 439.4 154.5 L 431.2 146.0 L 435.8 145.6 L 445.3 147.9 L 432.6 137.5 L 445.0 141.1 L 503.1 167.5 L 535.2 178.7 L 481.2 148.5 L 444.5 128.3 L 455.5 130.0 L 471.3 133.2 L 449.3 121.3 L 415.2 105.9 L 461.8 119.7 L 493.2 126.8 L 499.9 125.1 L 468.7 112.4 L 483.2 113.1 L 461.4 104.2 L 442.8 97.0 L 444.6 94.7 L 447.4 92.7 L 466.4 93.3 L 482.4 92.9 L 459.4 86.4 L 451.5 82.6 L 452.0 80.0 L 446.9 76.9 L 451.5 74.6 L 466.4 72.7 L 456.9 69.5 L 443.5 66.5 L 432.2 64.0 L 298.0 64.0 L 298.0 64.0 L 298.0 64.1 L 298.0 64.1 L 298.0 64.1 L 298.1 64.2 L 298.1 64.2 L 298.1 64.2 L 298.1 64.3 L 298.1 64.3 L 298.1 64.3 L 298.2 64.4 L 298.1 64.4 L 298.0 64.5 L 297.9 64.5 L 297.8 64.6 L 297.6 64.7 L 297.4 64.8 L 296.9 65.0 L 296.2 65.3 L 295.1 65.8 L 294.3 66.2 L 293.1 66.8 L 292.4 67.2 L 291.9 67.6 L 290.2 68.6 L 289.0 69.4 L 288.0 70.1 L 287.0 70.9 L 286.0 71.7 L 284.7 72.8 L 283.9 73.7 L 282.2 75.1 L 280.8 76.5 L 280.2 77.3 L 279.2 78.6 L 277.7 80.2 L 277.0 81.3 L 278.9 80.5 L 279.6 80.5 L 278.1 82.4 L 276.5 84.4 L 276.2 85.4 L 275.8 86.6 L 274.4 88.7 L 274.0 90.0 L 273.6 91.3 L 272.0 94.1 L 270.7 96.5 L 270.5 97.9 L 268.9 101.0 L 267.6 104.1 L 267.4 105.8 L 267.8 106.7 L 268.1 107.9 L 269.4 107.8 L 270.0 108.4 L 269.9 110.4 L 270.5 111.2 L 271.5 111.5 L 271.9 112.7 L 271.9 114.7 L 271.9 116.8 L 273.7 115.6 L 275.4 114.3 L 276.1 115.2 L 278.2 113.0 L 280.5 109.9 L 281.3 110.4 L 281.7 111.6 L 284.0 108.0 L 285.2 107.0 L 284.7 111.2 L 283.6 117.5 L 284.3 118.6 L 285.6 117.9 L 287.0 116.1 L 287.8 116.8 L 287.5 122.9 L 286.0 136.0 L 286.1 142.6 L 289.5 130.3 L 292.0 121.1 L 292.3 126.8 L 292.2 137.9 L 292.5 150.0 L 293.4 158.1 L 295.2 156.4 L 297.1 146.3 L 298.6 144.2 L 300.0 156.3 Z" fill="none" stroke="#F32740" stroke-width="2.0" stroke-linejoin="round" stroke-linecap="round"/>
<text x="338" y="132" fill="#F32740" font-size="9.5" font-weight="700">125</text>
<text x="335" y="200" fill="#F32740" font-size="9.5" font-weight="700">250</text>
<text x="335" y="268" fill="#F32740" font-size="9.5" font-weight="700">375</text>
<text x="335" y="336" fill="#F32740" font-size="9.5" font-weight="700">500</text>
<rect x="274.0" y="58" width="52" height="11" rx="1.5" fill="#fafbfc" stroke="rgba(255,255,255,0.4)" stroke-width="0.5"/>
<line x1="272.0" y1="69.8" x2="328.0" y2="69.8" stroke="#F32740" stroke-width="0.7" stroke-dasharray="1.5 2"/>
<text x="300" y="66" text-anchor="middle" fill="#F32740" font-size="8" font-weight="700" letter-spacing="0.5">cd/klm SCALE</text>
<g transform="translate(22, 434)">
<text x="0" y="-8" fill="rgba(255,255,255,0.55)" font-size="8" letter-spacing="1.4">cd/klm</text>
<line x1="0" y1="6" x2="22" y2="6" stroke="#F32740" stroke-width="2.2"/>
<text x="28" y="9" fill="rgba(255,255,255,0.7)" font-size="9.5">C0 – C180</text>
<line x1="120" y1="6" x2="142" y2="6" stroke="#3FA9F5" stroke-width="1.7"/>
<text x="148" y="9" fill="rgba(255,255,255,0.7)" font-size="9.5">C90 – C270</text>
</g>
<text x="578" y="402" fill="rgba(255,255,255,0.45)" font-size="9" text-anchor="end">η = 136 lm/W</text>
<text x="578" y="418" fill="rgba(255,255,255,0.45)" font-size="9" text-anchor="end">5,392 lm · 39.7W</text>
<text x="578" y="434" fill="rgba(255,255,255,0.55)" font-size="8" letter-spacing="1.4" text-anchor="end">PEAK INTENSITY</text>
<text x="578" y="451" fill="#fff" font-weight="700" font-size="14" text-anchor="end">2,593 cd</text>
</svg>