<svg viewBox="0 0 600 460" xmlns="http://www.w3.org/2000/svg" font-family="JetBrains Mono, monospace" font-size="9.5">
<rect width="100%" height="100%" fill="#14171b"/>
<text x="22" y="26" fill="#F32740" font-weight="700" letter-spacing="2">LWPF3W40 · 40W · 5000K · CLASSIC FORWARD-THROW</text>
<text x="22" y="42" fill="rgba(255,255,255,0.55)" font-size="8" letter-spacing="1.4">LUMINOUS INTENSITY DISTRIBUTION (cd/klm)</text>
<path d="M 232.0 64.0 A 68.0 68.0 0 0 0 368.0 64.0" fill="none" stroke="rgba(120,200,200,0.18)" stroke-width="0.7"/>
<path d="M 164.0 64.0 A 136.0 136.0 0 0 0 436.0 64.0" fill="none" stroke="rgba(120,200,200,0.18)" stroke-width="0.7"/>
<path d="M 96.0 64.0 A 204.0 204.0 0 0 0 504.0 64.0" fill="none" stroke="rgba(120,200,200,0.18)" stroke-width="0.7"/>
<path d="M 28.0 64.0 A 272.0 272.0 0 0 0 572.0 64.0" fill="none" stroke="rgba(120,200,200,0.18)" stroke-width="0.7"/>
<path d="M -40.0 64.0 A 340.0 340.0 0 0 0 640.0 64.0" fill="none" stroke="rgba(120,200,200,0.18)" stroke-width="0.7"/>
<line x1="300.0" y1="64" x2="388.0" y2="392.4" stroke="rgba(120,200,200,0.10)" stroke-width="0.5"/>
<line x1="300.0" y1="64" x2="212.0" y2="392.4" stroke="rgba(120,200,200,0.10)" stroke-width="0.5"/>
<line x1="300.0" y1="64" x2="470.0" y2="358.4" stroke="rgba(120,200,200,0.10)" stroke-width="0.5"/>
<line x1="300.0" y1="64" x2="130.0" y2="358.4" stroke="rgba(120,200,200,0.10)" stroke-width="0.5"/>
<line x1="300.0" y1="64" x2="540.4" y2="304.4" stroke="rgba(120,200,200,0.10)" stroke-width="0.5"/>
<line x1="300.0" y1="64" x2="59.6" y2="304.4" stroke="rgba(120,200,200,0.10)" stroke-width="0.5"/>
<line x1="300.0" y1="64" x2="594.4" y2="234.0" stroke="rgba(120,200,200,0.10)" stroke-width="0.5"/>
<line x1="300.0" y1="64" x2="5.6" y2="234.0" stroke="rgba(120,200,200,0.10)" stroke-width="0.5"/>
<line x1="300.0" y1="64" x2="628.4" y2="152.0" stroke="rgba(120,200,200,0.10)" stroke-width="0.5"/>
<line x1="300.0" y1="64" x2="-28.4" y2="152.0" stroke="rgba(120,200,200,0.10)" stroke-width="0.5"/>
<line x1="300.0" y1="64" x2="640.0" y2="64.0" stroke="rgba(120,200,200,0.10)" stroke-width="0.5"/>
<line x1="300.0" y1="64" x2="-40.0" y2="64.0" stroke="rgba(120,200,200,0.10)" stroke-width="0.5"/>
<line x1="300.0" y1="64" x2="300.0" y2="408" stroke="rgba(120,200,200,0.14)" stroke-width="0.5"/>
<line x1="-40.0" y1="64" x2="640.0" y2="64" stroke="rgba(120,200,200,0.14)" stroke-width="0.5"/>
<text x="391.6" y="408.9" text-anchor="middle" fill="rgba(255,255,255,0.4)" font-size="9">15°</text>
<text x="208.4" y="408.9" text-anchor="middle" fill="rgba(255,255,255,0.4)" font-size="9">15°</text>
<text x="477.0" y="373.6" text-anchor="middle" fill="rgba(255,255,255,0.6)" font-size="9">30°</text>
<text x="123.0" y="373.6" text-anchor="middle" fill="rgba(255,255,255,0.6)" font-size="9">30°</text>
<text x="550.3" y="317.3" text-anchor="middle" fill="rgba(255,255,255,0.4)" font-size="9">45°</text>
<text x="49.7" y="317.3" text-anchor="middle" fill="rgba(255,255,255,0.4)" font-size="9">45°</text>
<text x="606.6" y="244.0" text-anchor="middle" fill="rgba(255,255,255,0.6)" font-size="9">60°</text>
<text x="-6.6" y="244.0" text-anchor="middle" fill="rgba(255,255,255,0.6)" font-size="9">60°</text>
<text x="641.9" y="158.6" text-anchor="middle" fill="rgba(255,255,255,0.4)" font-size="9">75°</text>
<text x="-41.9" y="158.6" text-anchor="middle" fill="rgba(255,255,255,0.4)" font-size="9">75°</text>
<text x="654.0" y="67.0" text-anchor="middle" fill="rgba(255,255,255,0.6)" font-size="9">90°</text>
<text x="-54.0" y="67.0" text-anchor="middle" fill="rgba(255,255,255,0.6)" font-size="9">90°</text>
<text x="300" y="426" text-anchor="middle" fill="rgba(255,255,255,0.6)" font-size="9">0°</text>
<path d="M 300.0 165.1 L 301.8 165.8 L 303.5 163.9 L 305.2 162.4 L 306.8 161.6 L 308.6 162.4 L 310.3 162.1 L 311.8 160.5 L 313.4 159.2 L 314.7 156.9 L 316.2 155.7 L 317.4 153.5 L 318.7 151.7 L 319.9 150.0 L 321.1 148.5 L 322.1 146.4 L 323.2 144.9 L 324.6 144.4 L 325.5 142.5 L 326.5 141.1 L 327.8 140.5 L 329.2 140.0 L 330.1 138.5 L 331.5 138.3 L 332.9 137.8 L 334.4 137.7 L 336.0 137.9 L 337.7 138.0 L 338.5 136.4 L 339.3 134.9 L 340.4 134.0 L 340.9 132.0 L 340.9 129.4 L 341.4 127.7 L 341.0 124.8 L 340.6 121.9 L 340.8 120.2 L 340.6 117.9 L 340.4 115.7 L 339.7 113.0 L 339.6 111.2 L 340.3 110.4 L 340.1 108.5 L 340.1 107.0 L 339.4 104.8 L 338.8 102.8 L 338.0 100.7 L 338.7 100.1 L 339.6 99.6 L 338.0 97.1 L 337.4 95.4 L 337.7 94.5 L 337.3 93.1 L 336.1 91.2 L 335.5 89.8 L 334.9 88.4 L 334.3 87.1 L 333.0 85.4 L 332.5 84.3 L 332.4 83.5 L 331.5 82.2 L 331.4 81.4 L 329.6 79.7 L 329.6 79.1 L 329.0 78.1 L 327.7 76.9 L 327.6 76.3 L 326.8 75.4 L 326.2 74.6 L 325.6 73.8 L 325.0 73.1 L 324.1 72.3 L 323.0 71.5 L 322.1 70.8 L 320.9 70.0 L 319.9 69.3 L 318.2 68.5 L 316.7 67.9 L 315.2 67.2 L 314.0 66.7 L 312.7 66.2 L 311.4 65.8 L 310.5 65.5 L 309.6 65.2 L 308.9 64.9 L 308.3 64.7 L 307.7 64.5 L 307.2 64.4 L 306.8 64.2 L 306.3 64.1 L 306.2 64.0 L 293.8 64.0 L 293.7 64.1 L 293.2 64.2 L 292.7 64.4 L 292.2 64.5 L 291.6 64.7 L 290.8 65.0 L 289.9 65.2 L 289.0 65.5 L 288.0 65.9 L 286.9 66.3 L 285.5 66.8 L 283.7 67.5 L 282.4 68.1 L 280.3 68.9 L 278.5 69.7 L 277.4 70.5 L 276.3 71.3 L 275.2 72.1 L 274.1 72.9 L 273.2 73.8 L 272.7 74.5 L 272.1 75.3 L 271.1 76.3 L 271.5 76.7 L 270.0 78.0 L 269.6 78.8 L 269.4 79.6 L 268.5 80.7 L 268.5 81.5 L 267.3 82.9 L 266.7 84.0 L 266.1 85.2 L 265.9 86.2 L 265.4 87.3 L 264.2 89.1 L 264.0 90.2 L 263.9 91.2 L 262.3 93.5 L 262.0 94.8 L 262.1 95.8 L 260.9 98.0 L 260.0 100.1 L 261.1 100.3 L 261.2 101.4 L 260.5 103.5 L 259.1 106.3 L 259.4 107.5 L 259.7 108.7 L 259.6 110.5 L 259.3 112.5 L 258.2 115.6 L 258.3 117.3 L 258.8 118.7 L 258.4 121.3 L 257.8 124.3 L 258.0 126.2 L 258.6 127.8 L 259.4 129.0 L 259.5 131.5 L 259.1 134.8 L 259.4 137.3 L 260.5 138.3 L 261.8 138.9 L 263.2 139.4 L 264.9 139.2 L 266.3 139.7 L 268.0 139.5 L 269.4 139.7 L 270.5 140.8 L 271.7 141.7 L 272.9 142.6 L 274.1 143.8 L 275.3 144.8 L 276.4 146.4 L 277.6 147.8 L 278.7 149.5 L 280.0 150.7 L 281.4 151.5 L 282.6 153.5 L 284.0 154.9 L 285.2 157.2 L 286.7 158.5 L 288.3 159.1 L 289.9 160.3 L 291.4 162.0 L 293.1 163.2 L 294.9 161.9 L 296.6 162.7 L 298.2 164.3 L 300.0 165.1 Z" fill="none" stroke="#3FA9F5" stroke-width="1.7" stroke-linejoin="round" stroke-linecap="round"/>
<path d="M 300.0 165.1 L 302.1 185.2 L 304.4 191.2 L 305.8 174.5 L 307.9 177.5 L 311.6 197.0 L 315.1 207.7 L 316.6 199.4 L 320.3 208.2 L 323.9 215.1 L 326.4 213.5 L 325.7 196.0 L 330.1 205.6 L 343.2 251.1 L 348.6 258.9 L 345.0 231.9 L 340.6 205.7 L 346.9 217.3 L 353.5 228.6 L 346.9 200.2 L 346.2 190.9 L 363.4 229.1 L 373.7 246.4 L 367.9 224.0 L 362.3 204.0 L 376.8 228.7 L 395.6 260.1 L 401.5 263.2 L 404.0 259.6 L 404.8 253.0 L 401.0 238.9 L 405.9 240.3 L 404.6 231.4 L 407.3 229.3 L 412.7 231.1 L 421.4 237.4 L 436.7 252.1 L 430.8 237.6 L 417.7 214.7 L 418.8 210.6 L 417.5 204.1 L 416.8 198.4 L 417.5 194.5 L 423.3 196.3 L 430.2 198.8 L 452.8 216.8 L 461.6 220.0 L 456.1 209.6 L 447.0 196.3 L 440.2 185.9 L 432.3 175.0 L 427.0 166.9 L 419.3 157.2 L 420.5 154.8 L 422.8 153.2 L 428.7 154.1 L 438.5 157.4 L 477.1 179.0 L 491.3 183.5 L 492.2 179.5 L 467.0 160.4 L 457.8 151.5 L 454.6 146.2 L 442.9 136.8 L 429.2 127.0 L 442.3 130.3 L 463.5 136.8 L 447.5 126.6 L 458.4 128.0 L 529.7 152.2 L 519.9 144.1 L 473.5 123.8 L 426.3 105.0 L 467.4 115.2 L 476.1 114.5 L 439.2 101.3 L 450.8 101.6 L 489.8 107.8 L 488.7 104.1 L 470.7 97.2 L 466.8 93.4 L 447.8 87.4 L 454.6 85.7 L 469.2 84.8 L 492.7 84.2 L 462.6 78.2 L 454.0 74.8 L 455.8 72.2 L 456.9 69.5 L 442.2 66.5 L 433.7 64.0 L 298.0 64.0 L 298.0 64.0 L 298.0 64.1 L 298.0 64.1 L 298.0 64.1 L 298.0 64.2 L 298.1 64.2 L 298.1 64.2 L 298.1 64.3 L 298.1 64.3 L 298.1 64.3 L 298.2 64.4 L 298.1 64.4 L 298.0 64.5 L 297.9 64.5 L 297.8 64.6 L 297.6 64.7 L 297.3 64.8 L 296.6 65.1 L 295.9 65.4 L 295.3 65.7 L 294.4 66.1 L 293.4 66.7 L 291.9 67.4 L 290.4 68.3 L 289.8 68.8 L 288.4 69.7 L 287.0 70.6 L 286.1 71.4 L 285.2 72.2 L 284.6 72.9 L 283.9 73.7 L 282.8 74.8 L 281.3 76.1 L 279.7 77.7 L 278.0 79.4 L 275.9 81.5 L 274.9 82.9 L 275.9 82.8 L 276.2 83.3 L 275.0 84.9 L 274.3 86.3 L 274.4 87.1 L 273.6 88.6 L 272.5 90.6 L 273.1 90.9 L 273.4 91.6 L 272.8 93.2 L 271.5 95.6 L 270.6 97.8 L 270.3 99.4 L 270.7 100.2 L 270.8 101.4 L 271.8 101.5 L 272.6 101.6 L 272.6 103.1 L 272.8 104.4 L 273.1 105.4 L 273.6 106.3 L 273.8 107.6 L 273.9 109.2 L 275.2 108.8 L 277.1 107.0 L 277.8 107.6 L 278.3 108.4 L 279.5 108.1 L 279.7 109.6 L 279.0 113.4 L 280.2 112.9 L 282.7 109.0 L 283.8 108.5 L 283.3 112.4 L 283.0 116.2 L 284.1 115.9 L 286.0 112.8 L 286.6 114.2 L 286.3 118.9 L 286.3 123.4 L 287.4 123.2 L 289.9 115.8 L 290.2 119.6 L 289.6 129.9 L 289.5 138.8 L 289.4 150.1 L 291.5 144.9 L 294.2 130.6 L 295.6 127.3 L 295.1 157.5 L 296.0 177.9 L 298.2 167.6 L 300.0 165.1 Z" fill="none" stroke="#F32740" stroke-width="2.0" stroke-linejoin="round" stroke-linecap="round"/>
<text x="338" y="132" fill="#F32740" font-size="9.5" font-weight="700">125</text>
<text x="335" y="200" fill="#F32740" font-size="9.5" font-weight="700">250</text>
<text x="335" y="268" fill="#F32740" font-size="9.5" font-weight="700">375</text>
<text x="335" y="336" fill="#F32740" font-size="9.5" font-weight="700">500</text>
<rect x="274.0" y="58" width="52" height="11" rx="1.5" fill="#fafbfc" stroke="rgba(255,255,255,0.4)" stroke-width="0.5"/>
<line x1="272.0" y1="69.8" x2="328.0" y2="69.8" stroke="#F32740" stroke-width="0.7" stroke-dasharray="1.5 2"/>
<text x="300" y="66" text-anchor="middle" fill="#F32740" font-size="8" font-weight="700" letter-spacing="0.5">cd/klm SCALE</text>
<g transform="translate(22, 434)">
<text x="0" y="-8" fill="rgba(255,255,255,0.55)" font-size="8" letter-spacing="1.4">cd/klm</text>
<line x1="0" y1="6" x2="22" y2="6" stroke="#F32740" stroke-width="2.2"/>
<text x="28" y="9" fill="rgba(255,255,255,0.7)" font-size="9.5">C0 – C180</text>
<line x1="120" y1="6" x2="142" y2="6" stroke="#3FA9F5" stroke-width="1.7"/>
<text x="148" y="9" fill="rgba(255,255,255,0.7)" font-size="9.5">C90 – C270</text>
</g>
<text x="578" y="402" fill="rgba(255,255,255,0.45)" font-size="9" text-anchor="end">η = 143 lm/W</text>
<text x="578" y="418" fill="rgba(255,255,255,0.45)" font-size="9" text-anchor="end">5,694 lm · 39.8W</text>
<text x="578" y="434" fill="rgba(255,255,255,0.55)" font-size="8" letter-spacing="1.4" text-anchor="end">PEAK INTENSITY</text>
<text x="578" y="451" fill="#fff" font-weight="700" font-size="14" text-anchor="end">2,575 cd</text>
</svg>