<svg viewBox="0 0 600 460" xmlns="http://www.w3.org/2000/svg" font-family="JetBrains Mono, monospace" font-size="9.5">
<rect width="100%" height="100%" fill="#14171b"/>
<text x="22" y="26" fill="#F32740" font-weight="700" letter-spacing="2">LWPF3W40 · 40W · 4000K · CLASSIC FORWARD-THROW</text>
<text x="22" y="42" fill="rgba(255,255,255,0.55)" font-size="8" letter-spacing="1.4">LUMINOUS INTENSITY DISTRIBUTION (cd/klm)</text>
<path d="M 232.0 64.0 A 68.0 68.0 0 0 0 368.0 64.0" fill="none" stroke="rgba(120,200,200,0.18)" stroke-width="0.7"/>
<path d="M 164.0 64.0 A 136.0 136.0 0 0 0 436.0 64.0" fill="none" stroke="rgba(120,200,200,0.18)" stroke-width="0.7"/>
<path d="M 96.0 64.0 A 204.0 204.0 0 0 0 504.0 64.0" fill="none" stroke="rgba(120,200,200,0.18)" stroke-width="0.7"/>
<path d="M 28.0 64.0 A 272.0 272.0 0 0 0 572.0 64.0" fill="none" stroke="rgba(120,200,200,0.18)" stroke-width="0.7"/>
<path d="M -40.0 64.0 A 340.0 340.0 0 0 0 640.0 64.0" fill="none" stroke="rgba(120,200,200,0.18)" stroke-width="0.7"/>
<line x1="300.0" y1="64" x2="388.0" y2="392.4" stroke="rgba(120,200,200,0.10)" stroke-width="0.5"/>
<line x1="300.0" y1="64" x2="212.0" y2="392.4" stroke="rgba(120,200,200,0.10)" stroke-width="0.5"/>
<line x1="300.0" y1="64" x2="470.0" y2="358.4" stroke="rgba(120,200,200,0.10)" stroke-width="0.5"/>
<line x1="300.0" y1="64" x2="130.0" y2="358.4" stroke="rgba(120,200,200,0.10)" stroke-width="0.5"/>
<line x1="300.0" y1="64" x2="540.4" y2="304.4" stroke="rgba(120,200,200,0.10)" stroke-width="0.5"/>
<line x1="300.0" y1="64" x2="59.6" y2="304.4" stroke="rgba(120,200,200,0.10)" stroke-width="0.5"/>
<line x1="300.0" y1="64" x2="594.4" y2="234.0" stroke="rgba(120,200,200,0.10)" stroke-width="0.5"/>
<line x1="300.0" y1="64" x2="5.6" y2="234.0" stroke="rgba(120,200,200,0.10)" stroke-width="0.5"/>
<line x1="300.0" y1="64" x2="628.4" y2="152.0" stroke="rgba(120,200,200,0.10)" stroke-width="0.5"/>
<line x1="300.0" y1="64" x2="-28.4" y2="152.0" stroke="rgba(120,200,200,0.10)" stroke-width="0.5"/>
<line x1="300.0" y1="64" x2="640.0" y2="64.0" stroke="rgba(120,200,200,0.10)" stroke-width="0.5"/>
<line x1="300.0" y1="64" x2="-40.0" y2="64.0" stroke="rgba(120,200,200,0.10)" stroke-width="0.5"/>
<line x1="300.0" y1="64" x2="300.0" y2="408" stroke="rgba(120,200,200,0.14)" stroke-width="0.5"/>
<line x1="-40.0" y1="64" x2="640.0" y2="64" stroke="rgba(120,200,200,0.14)" stroke-width="0.5"/>
<text x="391.6" y="408.9" text-anchor="middle" fill="rgba(255,255,255,0.4)" font-size="9">15°</text>
<text x="208.4" y="408.9" text-anchor="middle" fill="rgba(255,255,255,0.4)" font-size="9">15°</text>
<text x="477.0" y="373.6" text-anchor="middle" fill="rgba(255,255,255,0.6)" font-size="9">30°</text>
<text x="123.0" y="373.6" text-anchor="middle" fill="rgba(255,255,255,0.6)" font-size="9">30°</text>
<text x="550.3" y="317.3" text-anchor="middle" fill="rgba(255,255,255,0.4)" font-size="9">45°</text>
<text x="49.7" y="317.3" text-anchor="middle" fill="rgba(255,255,255,0.4)" font-size="9">45°</text>
<text x="606.6" y="244.0" text-anchor="middle" fill="rgba(255,255,255,0.6)" font-size="9">60°</text>
<text x="-6.6" y="244.0" text-anchor="middle" fill="rgba(255,255,255,0.6)" font-size="9">60°</text>
<text x="641.9" y="158.6" text-anchor="middle" fill="rgba(255,255,255,0.4)" font-size="9">75°</text>
<text x="-41.9" y="158.6" text-anchor="middle" fill="rgba(255,255,255,0.4)" font-size="9">75°</text>
<text x="654.0" y="67.0" text-anchor="middle" fill="rgba(255,255,255,0.6)" font-size="9">90°</text>
<text x="-54.0" y="67.0" text-anchor="middle" fill="rgba(255,255,255,0.6)" font-size="9">90°</text>
<text x="300" y="426" text-anchor="middle" fill="rgba(255,255,255,0.6)" font-size="9">0°</text>
<path d="M 300.0 161.1 L 301.7 161.7 L 303.4 161.0 L 305.0 159.4 L 306.6 158.0 L 308.3 158.7 L 310.0 159.5 L 311.5 157.5 L 313.0 156.5 L 314.4 154.9 L 315.7 153.3 L 317.1 151.9 L 318.3 149.9 L 319.5 148.4 L 320.8 147.3 L 321.8 145.3 L 322.9 143.7 L 324.1 142.9 L 325.1 141.1 L 326.1 139.7 L 326.9 138.0 L 327.9 136.7 L 328.6 134.8 L 329.5 133.5 L 330.5 132.5 L 331.4 131.3 L 332.5 130.6 L 334.0 130.7 L 335.0 129.7 L 336.1 129.1 L 337.0 128.1 L 337.5 126.5 L 337.6 124.2 L 338.0 122.4 L 338.0 120.4 L 338.4 118.8 L 338.9 117.6 L 339.3 116.1 L 339.8 114.9 L 339.4 112.7 L 338.5 109.9 L 338.5 108.2 L 339.0 107.4 L 339.3 106.2 L 338.7 104.1 L 337.9 101.9 L 337.4 100.1 L 337.8 99.2 L 338.1 98.3 L 337.3 96.4 L 336.6 94.7 L 336.9 93.9 L 336.7 92.7 L 335.6 90.8 L 334.7 89.2 L 334.0 87.8 L 333.5 86.6 L 332.4 85.1 L 331.6 83.8 L 330.7 82.4 L 330.2 81.4 L 329.6 80.4 L 328.5 79.2 L 328.1 78.3 L 327.7 77.5 L 326.4 76.3 L 326.2 75.7 L 325.5 74.8 L 325.2 74.2 L 324.6 73.4 L 323.8 72.7 L 323.1 72.0 L 322.0 71.2 L 321.5 70.6 L 320.8 70.0 L 319.8 69.3 L 318.3 68.6 L 316.8 67.9 L 315.4 67.3 L 314.0 66.7 L 312.6 66.2 L 311.5 65.8 L 310.4 65.5 L 309.5 65.2 L 308.8 64.9 L 308.1 64.7 L 307.5 64.5 L 307.0 64.4 L 306.6 64.2 L 306.1 64.1 L 305.9 64.0 L 294.1 64.0 L 294.0 64.1 L 293.6 64.2 L 293.1 64.4 L 292.6 64.5 L 292.0 64.7 L 291.3 64.9 L 290.5 65.2 L 289.6 65.5 L 288.6 65.8 L 287.6 66.2 L 286.1 66.7 L 284.4 67.3 L 282.9 67.9 L 280.9 68.8 L 279.5 69.5 L 278.2 70.2 L 277.3 70.9 L 276.5 71.6 L 275.6 72.4 L 275.0 73.1 L 274.3 73.9 L 273.5 74.7 L 272.9 75.5 L 273.1 76.0 L 271.8 77.2 L 271.4 77.9 L 271.1 78.7 L 270.2 79.8 L 269.9 80.7 L 268.4 82.2 L 268.0 83.2 L 267.9 84.1 L 266.8 85.6 L 266.6 86.6 L 265.0 88.5 L 264.5 89.8 L 264.9 90.5 L 264.1 92.0 L 262.6 94.3 L 262.3 95.6 L 262.3 96.8 L 261.4 98.7 L 261.8 99.6 L 262.4 100.3 L 262.0 102.0 L 260.7 104.7 L 260.5 106.4 L 260.6 107.8 L 261.3 108.5 L 261.0 110.4 L 260.3 113.0 L 259.9 115.3 L 259.9 117.1 L 259.7 119.5 L 260.1 120.9 L 260.9 122.0 L 261.4 123.4 L 261.6 125.4 L 262.1 127.0 L 262.6 128.9 L 262.9 130.8 L 264.0 131.6 L 265.4 132.0 L 266.6 132.5 L 268.0 132.6 L 269.3 132.9 L 270.3 133.9 L 271.1 135.4 L 272.1 136.7 L 273.0 138.2 L 274.1 139.3 L 274.9 141.2 L 275.9 142.7 L 277.0 144.1 L 278.0 146.2 L 279.2 147.3 L 280.5 148.7 L 281.8 149.8 L 283.1 151.2 L 284.3 152.8 L 285.6 154.7 L 287.1 156.1 L 288.7 156.2 L 290.2 157.0 L 291.7 158.7 L 293.3 160.2 L 295.0 159.8 L 296.7 158.7 L 298.3 159.9 L 300.0 161.1 Z" fill="none" stroke="#3FA9F5" stroke-width="1.7" stroke-linejoin="round" stroke-linecap="round"/>
<path d="M 300.0 161.1 L 302.0 179.7 L 304.4 189.4 L 306.2 182.2 L 308.1 180.2 L 311.3 192.9 L 314.3 199.9 L 316.4 198.0 L 319.6 203.7 L 323.3 211.4 L 325.4 208.0 L 326.0 197.8 L 331.3 211.4 L 341.1 242.1 L 346.2 249.4 L 342.9 224.3 L 340.6 205.8 L 349.1 224.7 L 360.1 249.0 L 358.5 234.0 L 356.6 219.5 L 362.9 228.0 L 366.6 228.9 L 370.2 229.3 L 372.5 226.8 L 379.6 234.7 L 385.5 239.2 L 389.0 238.8 L 391.7 236.4 L 394.4 234.3 L 398.1 233.9 L 402.8 235.1 L 410.1 240.1 L 414.8 240.9 L 417.0 237.5 L 418.1 232.7 L 428.7 241.2 L 425.0 229.9 L 427.7 227.5 L 434.7 230.3 L 429.8 218.7 L 427.7 210.9 L 431.5 210.0 L 427.4 200.6 L 425.5 193.9 L 439.2 203.2 L 446.7 205.7 L 441.9 196.3 L 429.9 181.0 L 424.2 172.0 L 425.8 169.6 L 436.3 174.4 L 437.1 171.1 L 440.7 170.0 L 439.5 165.4 L 442.0 163.4 L 448.5 164.2 L 461.8 169.1 L 463.1 165.9 L 464.0 162.5 L 456.8 154.6 L 446.3 145.1 L 448.0 142.7 L 469.5 150.3 L 480.1 151.8 L 466.4 141.6 L 456.4 133.6 L 449.9 127.6 L 467.8 131.8 L 496.3 139.3 L 469.1 125.5 L 463.4 120.3 L 457.5 115.2 L 486.6 121.0 L 472.8 113.6 L 459.3 106.7 L 461.2 104.2 L 469.4 103.1 L 467.2 99.5 L 460.0 95.1 L 465.3 93.1 L 467.6 90.5 L 459.4 86.4 L 462.3 83.9 L 474.0 82.3 L 456.1 77.7 L 454.0 74.8 L 461.4 72.5 L 457.8 69.5 L 443.7 66.5 L 433.7 64.0 L 297.9 64.0 L 298.0 64.0 L 298.0 64.1 L 298.0 64.1 L 298.0 64.1 L 298.0 64.2 L 298.1 64.2 L 298.1 64.2 L 298.1 64.3 L 298.1 64.3 L 298.1 64.3 L 298.1 64.4 L 298.1 64.4 L 298.0 64.5 L 297.9 64.5 L 297.8 64.6 L 297.6 64.7 L 297.3 64.8 L 296.8 65.1 L 296.1 65.4 L 295.2 65.8 L 294.4 66.2 L 293.3 66.7 L 292.1 67.4 L 291.1 68.0 L 290.0 68.7 L 288.8 69.5 L 287.6 70.3 L 286.7 71.1 L 285.6 72.0 L 284.6 72.9 L 283.8 73.7 L 282.4 75.0 L 281.0 76.4 L 279.9 77.6 L 278.5 79.1 L 276.7 80.9 L 275.8 82.3 L 277.1 81.9 L 277.7 82.0 L 276.5 83.7 L 275.3 85.5 L 275.1 86.4 L 274.5 87.7 L 273.4 89.7 L 273.4 90.6 L 273.4 91.5 L 272.3 93.7 L 271.0 96.2 L 270.4 98.0 L 269.6 100.2 L 269.1 102.1 L 269.0 103.7 L 269.7 104.2 L 270.3 104.9 L 270.8 105.6 L 271.3 106.5 L 271.4 108.0 L 272.0 108.9 L 272.5 109.7 L 272.9 111.0 L 273.5 111.8 L 274.5 111.9 L 275.7 111.8 L 276.8 111.5 L 277.8 111.7 L 278.7 111.8 L 279.6 112.1 L 280.7 111.7 L 282.2 110.5 L 283.7 108.7 L 284.1 110.1 L 283.8 113.8 L 283.9 116.5 L 285.1 115.9 L 286.0 116.4 L 286.5 118.1 L 287.0 120.4 L 287.5 122.7 L 288.2 124.9 L 288.1 131.6 L 289.3 131.6 L 290.6 131.0 L 290.8 138.9 L 291.9 140.8 L 293.4 139.1 L 294.5 142.8 L 295.0 158.8 L 296.5 163.5 L 298.4 155.9 L 300.0 161.1 Z" fill="none" stroke="#F32740" stroke-width="2.0" stroke-linejoin="round" stroke-linecap="round"/>
<text x="338" y="132" fill="#F32740" font-size="9.5" font-weight="700">125</text>
<text x="335" y="200" fill="#F32740" font-size="9.5" font-weight="700">250</text>
<text x="335" y="268" fill="#F32740" font-size="9.5" font-weight="700">375</text>
<text x="335" y="336" fill="#F32740" font-size="9.5" font-weight="700">500</text>
<rect x="274.0" y="58" width="52" height="11" rx="1.5" fill="#fafbfc" stroke="rgba(255,255,255,0.4)" stroke-width="0.5"/>
<line x1="272.0" y1="69.8" x2="328.0" y2="69.8" stroke="#F32740" stroke-width="0.7" stroke-dasharray="1.5 2"/>
<text x="300" y="66" text-anchor="middle" fill="#F32740" font-size="8" font-weight="700" letter-spacing="0.5">cd/klm SCALE</text>
<g transform="translate(22, 434)">
<text x="0" y="-8" fill="rgba(255,255,255,0.55)" font-size="8" letter-spacing="1.4">cd/klm</text>
<line x1="0" y1="6" x2="22" y2="6" stroke="#F32740" stroke-width="2.2"/>
<text x="28" y="9" fill="rgba(255,255,255,0.7)" font-size="9.5">C0 – C180</text>
<line x1="120" y1="6" x2="142" y2="6" stroke="#3FA9F5" stroke-width="1.7"/>
<text x="148" y="9" fill="rgba(255,255,255,0.7)" font-size="9.5">C90 – C270</text>
</g>
<text x="578" y="402" fill="rgba(255,255,255,0.45)" font-size="9" text-anchor="end">η = 150 lm/W</text>
<text x="578" y="418" fill="rgba(255,255,255,0.45)" font-size="9" text-anchor="end">5,790 lm · 38.5W</text>
<text x="578" y="434" fill="rgba(255,255,255,0.55)" font-size="8" letter-spacing="1.4" text-anchor="end">PEAK INTENSITY</text>
<text x="578" y="451" fill="#fff" font-weight="700" font-size="14" text-anchor="end">2,331 cd</text>
</svg>