<svg viewBox="0 0 600 460" xmlns="http://www.w3.org/2000/svg" font-family="JetBrains Mono, monospace" font-size="9.5">
<rect width="100%" height="100%" fill="#14171b"/>
<text x="22" y="26" fill="#F32740" font-weight="700" letter-spacing="2">LWPF3W120 · 120W · 3500K · CLASSIC FORWARD-THROW</text>
<text x="22" y="42" fill="rgba(255,255,255,0.55)" font-size="8" letter-spacing="1.4">LUMINOUS INTENSITY DISTRIBUTION (cd/klm)</text>
<path d="M 232.0 64.0 A 68.0 68.0 0 0 0 368.0 64.0" fill="none" stroke="rgba(120,200,200,0.18)" stroke-width="0.7"/>
<path d="M 164.0 64.0 A 136.0 136.0 0 0 0 436.0 64.0" fill="none" stroke="rgba(120,200,200,0.18)" stroke-width="0.7"/>
<path d="M 96.0 64.0 A 204.0 204.0 0 0 0 504.0 64.0" fill="none" stroke="rgba(120,200,200,0.18)" stroke-width="0.7"/>
<path d="M 28.0 64.0 A 272.0 272.0 0 0 0 572.0 64.0" fill="none" stroke="rgba(120,200,200,0.18)" stroke-width="0.7"/>
<path d="M -40.0 64.0 A 340.0 340.0 0 0 0 640.0 64.0" fill="none" stroke="rgba(120,200,200,0.18)" stroke-width="0.7"/>
<line x1="300.0" y1="64" x2="388.0" y2="392.4" stroke="rgba(120,200,200,0.10)" stroke-width="0.5"/>
<line x1="300.0" y1="64" x2="212.0" y2="392.4" stroke="rgba(120,200,200,0.10)" stroke-width="0.5"/>
<line x1="300.0" y1="64" x2="470.0" y2="358.4" stroke="rgba(120,200,200,0.10)" stroke-width="0.5"/>
<line x1="300.0" y1="64" x2="130.0" y2="358.4" stroke="rgba(120,200,200,0.10)" stroke-width="0.5"/>
<line x1="300.0" y1="64" x2="540.4" y2="304.4" stroke="rgba(120,200,200,0.10)" stroke-width="0.5"/>
<line x1="300.0" y1="64" x2="59.6" y2="304.4" stroke="rgba(120,200,200,0.10)" stroke-width="0.5"/>
<line x1="300.0" y1="64" x2="594.4" y2="234.0" stroke="rgba(120,200,200,0.10)" stroke-width="0.5"/>
<line x1="300.0" y1="64" x2="5.6" y2="234.0" stroke="rgba(120,200,200,0.10)" stroke-width="0.5"/>
<line x1="300.0" y1="64" x2="628.4" y2="152.0" stroke="rgba(120,200,200,0.10)" stroke-width="0.5"/>
<line x1="300.0" y1="64" x2="-28.4" y2="152.0" stroke="rgba(120,200,200,0.10)" stroke-width="0.5"/>
<line x1="300.0" y1="64" x2="640.0" y2="64.0" stroke="rgba(120,200,200,0.10)" stroke-width="0.5"/>
<line x1="300.0" y1="64" x2="-40.0" y2="64.0" stroke="rgba(120,200,200,0.10)" stroke-width="0.5"/>
<line x1="300.0" y1="64" x2="300.0" y2="408" stroke="rgba(120,200,200,0.14)" stroke-width="0.5"/>
<line x1="-40.0" y1="64" x2="640.0" y2="64" stroke="rgba(120,200,200,0.14)" stroke-width="0.5"/>
<text x="391.6" y="408.9" text-anchor="middle" fill="rgba(255,255,255,0.4)" font-size="9">15°</text>
<text x="208.4" y="408.9" text-anchor="middle" fill="rgba(255,255,255,0.4)" font-size="9">15°</text>
<text x="477.0" y="373.6" text-anchor="middle" fill="rgba(255,255,255,0.6)" font-size="9">30°</text>
<text x="123.0" y="373.6" text-anchor="middle" fill="rgba(255,255,255,0.6)" font-size="9">30°</text>
<text x="550.3" y="317.3" text-anchor="middle" fill="rgba(255,255,255,0.4)" font-size="9">45°</text>
<text x="49.7" y="317.3" text-anchor="middle" fill="rgba(255,255,255,0.4)" font-size="9">45°</text>
<text x="606.6" y="244.0" text-anchor="middle" fill="rgba(255,255,255,0.6)" font-size="9">60°</text>
<text x="-6.6" y="244.0" text-anchor="middle" fill="rgba(255,255,255,0.6)" font-size="9">60°</text>
<text x="641.9" y="158.6" text-anchor="middle" fill="rgba(255,255,255,0.4)" font-size="9">75°</text>
<text x="-41.9" y="158.6" text-anchor="middle" fill="rgba(255,255,255,0.4)" font-size="9">75°</text>
<text x="654.0" y="67.0" text-anchor="middle" fill="rgba(255,255,255,0.6)" font-size="9">90°</text>
<text x="-54.0" y="67.0" text-anchor="middle" fill="rgba(255,255,255,0.6)" font-size="9">90°</text>
<text x="300" y="426" text-anchor="middle" fill="rgba(255,255,255,0.6)" font-size="9">0°</text>
<path d="M 300.0 169.2 L 301.8 169.6 L 303.7 169.7 L 305.5 169.7 L 307.4 169.8 L 309.2 169.7 L 311.0 169.1 L 312.9 168.7 L 314.7 168.6 L 316.5 167.9 L 318.2 167.3 L 320.0 166.9 L 321.6 165.5 L 323.3 165.1 L 325.2 165.2 L 326.6 163.3 L 328.1 162.0 L 330.0 162.0 L 331.4 160.5 L 332.6 158.5 L 334.2 157.8 L 335.3 156.1 L 336.2 153.7 L 337.6 152.6 L 338.6 150.6 L 339.6 148.9 L 340.4 146.8 L 341.1 144.6 L 341.9 142.7 L 342.1 139.9 L 342.2 137.0 L 342.4 134.5 L 342.3 131.8 L 342.8 129.9 L 343.2 128.0 L 343.7 126.4 L 344.0 124.6 L 344.8 123.5 L 345.4 122.1 L 344.9 119.5 L 345.0 117.6 L 344.8 115.6 L 344.9 113.9 L 344.6 111.8 L 344.8 110.4 L 344.8 108.8 L 344.0 106.4 L 342.9 104.0 L 342.1 101.9 L 341.8 100.4 L 341.2 98.6 L 340.7 96.9 L 339.8 95.1 L 339.5 93.7 L 340.0 93.1 L 339.5 91.6 L 338.6 90.1 L 338.1 88.7 L 337.7 87.6 L 336.9 86.2 L 336.1 84.8 L 335.2 83.5 L 334.6 82.4 L 333.7 81.2 L 333.0 80.1 L 331.7 78.8 L 331.2 77.9 L 330.5 76.9 L 329.9 76.1 L 328.6 75.0 L 327.8 74.1 L 327.1 73.3 L 325.9 72.4 L 324.8 71.6 L 323.7 70.8 L 322.8 70.1 L 321.1 69.3 L 319.5 68.5 L 318.3 67.9 L 316.7 67.3 L 315.0 66.7 L 313.6 66.2 L 312.5 65.8 L 311.2 65.4 L 310.3 65.1 L 309.5 64.8 L 308.7 64.6 L 308.1 64.4 L 307.5 64.3 L 307.0 64.1 L 306.5 64.0 L 294.2 64.0 L 294.2 64.1 L 294.1 64.2 L 293.7 64.3 L 293.3 64.5 L 292.8 64.6 L 292.3 64.8 L 291.4 65.1 L 290.6 65.3 L 289.8 65.6 L 288.9 66.0 L 288.0 66.3 L 286.8 66.8 L 285.2 67.4 L 283.6 68.1 L 282.3 68.8 L 280.6 69.6 L 279.3 70.3 L 278.1 71.1 L 276.9 72.0 L 275.8 72.8 L 274.6 73.8 L 273.8 74.6 L 273.1 75.4 L 272.0 76.5 L 271.2 77.4 L 270.2 78.5 L 269.5 79.6 L 268.8 80.6 L 268.1 81.7 L 267.2 82.9 L 266.3 84.2 L 265.7 85.4 L 265.1 86.7 L 264.6 87.9 L 264.3 89.0 L 263.8 90.3 L 263.3 91.7 L 262.9 93.0 L 261.8 94.9 L 261.1 96.6 L 260.4 98.4 L 260.2 99.8 L 259.3 101.9 L 259.1 103.5 L 258.5 105.5 L 258.5 106.9 L 258.5 108.5 L 258.7 109.9 L 258.9 111.3 L 258.8 113.1 L 258.3 115.4 L 258.0 117.7 L 258.2 119.5 L 258.3 121.4 L 258.9 122.7 L 259.0 124.8 L 259.3 126.7 L 259.2 129.4 L 259.3 131.7 L 259.8 133.6 L 260.4 135.5 L 261.6 136.2 L 262.4 137.7 L 263.1 139.7 L 263.8 141.7 L 264.4 143.9 L 265.1 146.2 L 265.8 148.5 L 266.9 150.3 L 267.8 152.5 L 269.0 154.0 L 270.2 155.6 L 271.5 157.1 L 272.9 158.6 L 274.6 158.9 L 276.1 160.0 L 277.8 160.3 L 279.5 160.6 L 281.1 161.3 L 282.8 161.7 L 284.3 163.1 L 285.9 164.2 L 287.6 165.0 L 289.3 165.4 L 291.0 166.3 L 292.8 167.5 L 294.5 168.2 L 296.4 168.3 L 298.2 168.7 L 300.0 169.2 Z" fill="none" stroke="#3FA9F5" stroke-width="1.7" stroke-linejoin="round" stroke-linecap="round"/>
<path d="M 300.0 169.2 L 301.9 171.0 L 304.0 178.2 L 306.8 194.2 L 309.1 194.4 L 311.6 196.9 L 314.0 197.6 L 317.9 210.1 L 320.5 210.2 L 321.8 201.7 L 324.9 205.3 L 331.2 224.4 L 334.6 226.8 L 335.3 217.1 L 337.9 216.1 L 340.8 216.2 L 341.5 208.6 L 342.7 203.6 L 354.2 230.9 L 363.4 248.2 L 362.5 235.8 L 357.8 214.5 L 361.0 214.9 L 366.4 220.5 L 375.3 233.1 L 385.2 246.7 L 382.4 232.9 L 377.8 216.7 L 386.2 226.2 L 390.6 227.5 L 394.4 227.6 L 403.2 235.8 L 407.6 236.2 L 413.6 238.9 L 419.7 241.4 L 413.5 226.1 L 405.4 209.0 L 406.2 204.9 L 416.6 213.3 L 428.8 223.0 L 428.2 216.7 L 428.7 212.1 L 439.0 218.4 L 433.7 207.3 L 418.9 187.1 L 412.6 176.6 L 415.6 175.7 L 431.4 186.5 L 438.5 188.7 L 434.9 181.3 L 429.0 172.2 L 426.1 166.1 L 423.4 160.4 L 418.4 153.2 L 417.4 149.3 L 443.4 164.4 L 470.1 178.7 L 482.4 182.4 L 460.0 164.0 L 446.1 151.8 L 443.4 146.8 L 437.7 140.4 L 439.5 138.2 L 474.0 152.7 L 500.0 161.6 L 462.9 139.9 L 436.5 124.8 L 447.2 126.5 L 465.9 131.0 L 453.0 122.7 L 447.1 117.5 L 493.8 130.7 L 480.0 122.5 L 440.4 106.9 L 415.9 97.2 L 465.9 108.5 L 486.4 110.5 L 453.0 99.3 L 452.0 96.3 L 447.3 92.6 L 458.7 92.0 L 471.5 91.2 L 450.2 85.1 L 442.8 81.5 L 447.6 79.5 L 466.3 78.5 L 445.8 74.2 L 437.9 71.2 L 432.0 68.6 L 435.6 66.4 L 427.0 64.0 L 298.1 64.0 L 298.1 64.0 L 298.1 64.1 L 298.1 64.1 L 298.1 64.1 L 298.1 64.2 L 298.2 64.2 L 298.2 64.2 L 298.2 64.3 L 298.2 64.3 L 298.2 64.3 L 298.1 64.4 L 298.0 64.4 L 297.8 64.5 L 297.7 64.6 L 297.5 64.7 L 297.1 64.8 L 296.5 65.1 L 295.8 65.4 L 295.0 65.7 L 294.2 66.1 L 293.1 66.6 L 292.0 67.2 L 290.6 68.0 L 289.7 68.6 L 288.7 69.3 L 287.4 70.1 L 286.7 70.8 L 285.5 71.7 L 284.0 72.8 L 283.2 73.7 L 282.4 74.6 L 281.2 75.7 L 279.8 77.1 L 278.3 78.6 L 277.5 79.8 L 276.7 80.9 L 276.2 82.0 L 275.8 82.9 L 275.8 83.6 L 275.2 84.8 L 274.2 86.5 L 274.2 87.2 L 275.4 87.0 L 274.6 88.6 L 272.6 91.4 L 272.2 92.7 L 271.4 94.7 L 271.0 96.2 L 270.6 97.8 L 271.3 98.2 L 271.6 99.1 L 271.7 100.2 L 272.6 100.4 L 273.7 100.2 L 274.2 100.9 L 274.6 101.7 L 274.2 103.7 L 273.1 107.1 L 273.9 107.4 L 275.0 107.3 L 275.5 108.2 L 276.1 109.0 L 276.9 109.3 L 277.3 110.5 L 277.8 111.7 L 279.4 110.2 L 280.7 109.5 L 281.3 110.2 L 281.6 112.0 L 281.9 113.8 L 283.6 111.7 L 284.3 112.3 L 283.7 117.4 L 283.5 121.7 L 284.6 121.4 L 286.9 116.6 L 288.3 114.8 L 288.2 119.4 L 286.0 135.9 L 284.4 152.2 L 287.6 142.3 L 290.8 129.8 L 291.7 131.3 L 292.5 135.5 L 292.6 148.7 L 293.3 160.1 L 294.9 162.0 L 296.9 152.1 L 298.3 161.9 L 300.0 169.2 Z" fill="none" stroke="#F32740" stroke-width="2.0" stroke-linejoin="round" stroke-linecap="round"/>
<text x="338" y="132" fill="#F32740" font-size="9.5" font-weight="700">125</text>
<text x="335" y="200" fill="#F32740" font-size="9.5" font-weight="700">250</text>
<text x="335" y="268" fill="#F32740" font-size="9.5" font-weight="700">375</text>
<text x="335" y="336" fill="#F32740" font-size="9.5" font-weight="700">500</text>
<rect x="274.0" y="58" width="52" height="11" rx="1.5" fill="#fafbfc" stroke="rgba(255,255,255,0.4)" stroke-width="0.5"/>
<line x1="272.0" y1="69.8" x2="328.0" y2="69.8" stroke="#F32740" stroke-width="0.7" stroke-dasharray="1.5 2"/>
<text x="300" y="66" text-anchor="middle" fill="#F32740" font-size="8" font-weight="700" letter-spacing="0.5">cd/klm SCALE</text>
<g transform="translate(22, 434)">
<text x="0" y="-8" fill="rgba(255,255,255,0.55)" font-size="8" letter-spacing="1.4">cd/klm</text>
<line x1="0" y1="6" x2="22" y2="6" stroke="#F32740" stroke-width="2.2"/>
<text x="28" y="9" fill="rgba(255,255,255,0.7)" font-size="9.5">C0 – C180</text>
<line x1="120" y1="6" x2="142" y2="6" stroke="#3FA9F5" stroke-width="1.7"/>
<text x="148" y="9" fill="rgba(255,255,255,0.7)" font-size="9.5">C90 – C270</text>
</g>
<text x="578" y="402" fill="rgba(255,255,255,0.45)" font-size="9" text-anchor="end">η = 135 lm/W</text>
<text x="578" y="418" fill="rgba(255,255,255,0.45)" font-size="9" text-anchor="end">15,823 lm · 116.8W</text>
<text x="578" y="434" fill="rgba(255,255,255,0.55)" font-size="8" letter-spacing="1.4" text-anchor="end">PEAK INTENSITY</text>
<text x="578" y="451" fill="#fff" font-weight="700" font-size="14" text-anchor="end">6,473 cd</text>
</svg>