<svg viewBox="0 0 600 460" xmlns="http://www.w3.org/2000/svg" font-family="JetBrains Mono, monospace" font-size="9.5">
<rect width="100%" height="100%" fill="#14171b"/>
<text x="22" y="26" fill="#F32740" font-weight="700" letter-spacing="2">LWPF3W80 · 80W · 3500K · CLASSIC FORWARD-THROW</text>
<text x="22" y="42" fill="rgba(255,255,255,0.55)" font-size="8" letter-spacing="1.4">LUMINOUS INTENSITY DISTRIBUTION (cd/klm)</text>
<path d="M 232.0 64.0 A 68.0 68.0 0 0 0 368.0 64.0" fill="none" stroke="rgba(120,200,200,0.18)" stroke-width="0.7"/>
<path d="M 164.0 64.0 A 136.0 136.0 0 0 0 436.0 64.0" fill="none" stroke="rgba(120,200,200,0.18)" stroke-width="0.7"/>
<path d="M 96.0 64.0 A 204.0 204.0 0 0 0 504.0 64.0" fill="none" stroke="rgba(120,200,200,0.18)" stroke-width="0.7"/>
<path d="M 28.0 64.0 A 272.0 272.0 0 0 0 572.0 64.0" fill="none" stroke="rgba(120,200,200,0.18)" stroke-width="0.7"/>
<path d="M -40.0 64.0 A 340.0 340.0 0 0 0 640.0 64.0" fill="none" stroke="rgba(120,200,200,0.18)" stroke-width="0.7"/>
<line x1="300.0" y1="64" x2="388.0" y2="392.4" stroke="rgba(120,200,200,0.10)" stroke-width="0.5"/>
<line x1="300.0" y1="64" x2="212.0" y2="392.4" stroke="rgba(120,200,200,0.10)" stroke-width="0.5"/>
<line x1="300.0" y1="64" x2="470.0" y2="358.4" stroke="rgba(120,200,200,0.10)" stroke-width="0.5"/>
<line x1="300.0" y1="64" x2="130.0" y2="358.4" stroke="rgba(120,200,200,0.10)" stroke-width="0.5"/>
<line x1="300.0" y1="64" x2="540.4" y2="304.4" stroke="rgba(120,200,200,0.10)" stroke-width="0.5"/>
<line x1="300.0" y1="64" x2="59.6" y2="304.4" stroke="rgba(120,200,200,0.10)" stroke-width="0.5"/>
<line x1="300.0" y1="64" x2="594.4" y2="234.0" stroke="rgba(120,200,200,0.10)" stroke-width="0.5"/>
<line x1="300.0" y1="64" x2="5.6" y2="234.0" stroke="rgba(120,200,200,0.10)" stroke-width="0.5"/>
<line x1="300.0" y1="64" x2="628.4" y2="152.0" stroke="rgba(120,200,200,0.10)" stroke-width="0.5"/>
<line x1="300.0" y1="64" x2="-28.4" y2="152.0" stroke="rgba(120,200,200,0.10)" stroke-width="0.5"/>
<line x1="300.0" y1="64" x2="640.0" y2="64.0" stroke="rgba(120,200,200,0.10)" stroke-width="0.5"/>
<line x1="300.0" y1="64" x2="-40.0" y2="64.0" stroke="rgba(120,200,200,0.10)" stroke-width="0.5"/>
<line x1="300.0" y1="64" x2="300.0" y2="408" stroke="rgba(120,200,200,0.14)" stroke-width="0.5"/>
<line x1="-40.0" y1="64" x2="640.0" y2="64" stroke="rgba(120,200,200,0.14)" stroke-width="0.5"/>
<text x="391.6" y="408.9" text-anchor="middle" fill="rgba(255,255,255,0.4)" font-size="9">15°</text>
<text x="208.4" y="408.9" text-anchor="middle" fill="rgba(255,255,255,0.4)" font-size="9">15°</text>
<text x="477.0" y="373.6" text-anchor="middle" fill="rgba(255,255,255,0.6)" font-size="9">30°</text>
<text x="123.0" y="373.6" text-anchor="middle" fill="rgba(255,255,255,0.6)" font-size="9">30°</text>
<text x="550.3" y="317.3" text-anchor="middle" fill="rgba(255,255,255,0.4)" font-size="9">45°</text>
<text x="49.7" y="317.3" text-anchor="middle" fill="rgba(255,255,255,0.4)" font-size="9">45°</text>
<text x="606.6" y="244.0" text-anchor="middle" fill="rgba(255,255,255,0.6)" font-size="9">60°</text>
<text x="-6.6" y="244.0" text-anchor="middle" fill="rgba(255,255,255,0.6)" font-size="9">60°</text>
<text x="641.9" y="158.6" text-anchor="middle" fill="rgba(255,255,255,0.4)" font-size="9">75°</text>
<text x="-41.9" y="158.6" text-anchor="middle" fill="rgba(255,255,255,0.4)" font-size="9">75°</text>
<text x="654.0" y="67.0" text-anchor="middle" fill="rgba(255,255,255,0.6)" font-size="9">90°</text>
<text x="-54.0" y="67.0" text-anchor="middle" fill="rgba(255,255,255,0.6)" font-size="9">90°</text>
<text x="300" y="426" text-anchor="middle" fill="rgba(255,255,255,0.6)" font-size="9">0°</text>
<path d="M 300.0 165.2 L 301.8 164.9 L 303.5 163.9 L 305.1 162.0 L 306.9 162.1 L 308.7 163.4 L 310.4 163.2 L 312.1 162.9 L 313.9 162.6 L 315.4 160.9 L 317.0 160.5 L 318.9 161.3 L 320.8 161.7 L 322.9 163.2 L 324.6 162.7 L 325.8 160.3 L 327.3 159.0 L 329.3 159.8 L 331.6 161.2 L 333.0 159.9 L 333.5 156.1 L 334.5 153.8 L 336.2 153.7 L 336.8 150.6 L 336.9 146.8 L 337.0 143.3 L 338.8 143.6 L 339.0 140.6 L 339.5 138.3 L 340.3 136.8 L 341.3 135.6 L 342.1 134.0 L 343.0 132.8 L 343.9 131.5 L 344.5 130.0 L 344.7 127.8 L 344.7 125.5 L 344.1 122.5 L 344.8 121.4 L 345.3 119.9 L 345.6 118.3 L 346.7 117.7 L 346.6 115.7 L 345.7 113.0 L 345.4 111.0 L 345.6 109.6 L 345.0 107.5 L 344.7 105.7 L 343.8 103.4 L 342.9 101.3 L 342.9 100.0 L 342.1 98.1 L 341.8 96.7 L 341.0 94.9 L 341.6 94.2 L 341.3 92.9 L 340.2 91.1 L 340.4 90.2 L 339.1 88.4 L 338.1 86.9 L 338.2 86.0 L 336.6 84.3 L 336.4 83.4 L 335.6 82.1 L 335.1 81.1 L 334.5 80.1 L 334.1 79.2 L 333.6 78.3 L 332.5 77.1 L 332.3 76.4 L 331.6 75.5 L 331.1 74.7 L 330.3 73.8 L 329.4 73.0 L 327.8 72.0 L 326.6 71.1 L 325.3 70.3 L 323.8 69.5 L 322.9 68.9 L 321.0 68.1 L 319.4 67.4 L 318.3 66.9 L 316.0 66.2 L 314.6 65.8 L 313.1 65.4 L 311.6 65.0 L 310.7 64.7 L 309.9 64.5 L 309.3 64.3 L 308.7 64.2 L 308.2 64.0 L 294.6 64.0 L 294.7 64.1 L 294.6 64.2 L 294.2 64.3 L 293.7 64.4 L 293.2 64.6 L 292.7 64.8 L 292.0 65.0 L 291.3 65.2 L 290.5 65.5 L 289.8 65.8 L 289.0 66.1 L 288.2 66.5 L 286.9 67.0 L 285.7 67.6 L 284.3 68.2 L 283.0 68.9 L 281.7 69.6 L 280.5 70.3 L 279.4 71.1 L 278.4 71.9 L 277.5 72.6 L 276.5 73.5 L 275.7 74.3 L 274.9 75.2 L 273.9 76.2 L 272.9 77.2 L 272.1 78.2 L 271.4 79.2 L 271.0 80.1 L 270.3 81.2 L 269.5 82.3 L 268.4 83.8 L 267.9 84.9 L 267.6 85.8 L 267.4 86.8 L 266.1 88.6 L 266.1 89.5 L 265.3 91.1 L 265.0 92.3 L 264.5 93.8 L 263.8 95.4 L 263.1 97.2 L 263.7 97.9 L 263.9 98.9 L 263.2 100.8 L 262.7 102.7 L 262.7 104.0 L 263.0 105.1 L 262.9 106.7 L 262.5 108.7 L 262.9 109.8 L 263.2 111.1 L 262.5 113.8 L 261.9 116.5 L 262.6 117.4 L 262.4 119.7 L 262.0 122.5 L 262.5 124.0 L 263.2 125.2 L 264.2 126.0 L 264.8 127.5 L 265.3 129.3 L 266.4 129.9 L 266.6 132.4 L 267.9 132.9 L 268.7 134.2 L 268.5 138.1 L 269.7 139.1 L 270.8 140.2 L 272.4 139.8 L 272.9 142.6 L 273.0 147.1 L 274.6 147.0 L 275.9 148.0 L 277.0 149.9 L 277.7 153.3 L 279.0 155.2 L 280.3 156.6 L 281.9 157.0 L 283.2 159.1 L 284.7 160.5 L 286.5 159.9 L 288.0 161.5 L 289.7 161.6 L 291.3 163.1 L 293.0 164.0 L 294.8 162.4 L 296.6 161.6 L 298.2 164.4 L 300.0 165.2 Z" fill="none" stroke="#3FA9F5" stroke-width="1.7" stroke-linejoin="round" stroke-linecap="round"/>
<path d="M 300.0 165.2 L 301.8 168.9 L 304.0 179.4 L 306.7 192.2 L 308.7 188.7 L 310.9 188.6 L 313.6 193.8 L 315.8 193.0 L 318.1 192.6 L 320.9 195.7 L 323.8 199.2 L 327.1 203.3 L 331.1 210.4 L 334.7 214.4 L 340.0 224.5 L 342.0 220.8 L 344.3 218.6 L 344.6 210.0 L 349.7 216.9 L 357.3 230.5 L 360.8 231.1 L 353.0 202.2 L 351.4 191.3 L 368.9 226.4 L 381.9 248.1 L 377.4 230.0 L 376.3 220.4 L 380.7 222.4 L 380.2 214.8 L 382.4 212.7 L 383.4 208.4 L 385.9 206.9 L 398.6 221.9 L 409.4 232.5 L 416.6 236.9 L 418.7 233.5 L 417.8 226.1 L 425.3 230.3 L 435.3 237.2 L 425.1 218.5 L 415.5 201.6 L 416.8 198.4 L 420.2 197.5 L 433.2 206.9 L 435.5 204.3 L 433.6 197.6 L 431.5 191.0 L 423.4 179.1 L 416.0 168.5 L 413.4 162.6 L 419.5 164.3 L 435.8 174.0 L 444.0 176.5 L 448.3 175.8 L 443.5 168.2 L 441.3 162.9 L 439.7 158.3 L 429.3 147.9 L 427.8 143.9 L 446.6 152.1 L 468.2 161.1 L 466.6 156.3 L 443.1 140.1 L 442.2 136.5 L 446.4 135.4 L 438.8 128.7 L 439.0 125.9 L 478.3 139.7 L 489.9 140.7 L 450.0 121.6 L 419.0 107.3 L 453.4 116.8 L 468.9 118.9 L 453.3 110.9 L 442.5 104.9 L 464.9 108.2 L 450.8 101.6 L 430.9 94.2 L 447.9 95.4 L 459.8 95.1 L 445.5 89.6 L 438.1 85.9 L 441.2 83.8 L 460.0 83.6 L 449.1 79.7 L 443.6 76.6 L 438.5 73.7 L 436.2 71.1 L 434.0 68.7 L 431.6 66.3 L 423.8 64.0 L 298.0 64.0 L 298.1 64.0 L 298.1 64.1 L 298.1 64.1 L 298.1 64.1 L 298.1 64.2 L 298.2 64.2 L 298.2 64.2 L 298.2 64.3 L 298.2 64.3 L 298.2 64.3 L 298.2 64.4 L 298.0 64.4 L 297.9 64.5 L 297.7 64.6 L 297.5 64.7 L 297.2 64.8 L 296.8 65.0 L 296.1 65.3 L 295.3 65.6 L 294.3 66.1 L 293.4 66.5 L 292.6 67.0 L 291.7 67.5 L 290.9 68.0 L 289.6 68.8 L 288.6 69.6 L 287.1 70.6 L 286.1 71.4 L 285.6 72.0 L 285.1 72.6 L 284.0 73.6 L 282.0 75.3 L 281.1 76.3 L 280.7 77.0 L 280.4 77.7 L 279.7 78.7 L 278.8 79.9 L 278.5 80.8 L 277.8 82.0 L 277.2 83.1 L 276.7 84.2 L 274.9 86.6 L 273.7 88.5 L 274.6 88.5 L 275.4 88.6 L 274.9 90.0 L 274.4 91.5 L 274.4 92.5 L 272.5 95.6 L 271.8 97.5 L 271.6 99.0 L 271.2 100.9 L 270.3 103.4 L 269.2 106.4 L 269.1 108.1 L 269.8 108.8 L 270.9 108.8 L 271.2 110.1 L 271.7 111.1 L 271.7 113.0 L 272.1 114.4 L 273.1 114.7 L 274.2 114.6 L 275.7 113.9 L 277.2 113.0 L 278.0 113.3 L 279.3 112.7 L 279.9 113.8 L 280.6 114.6 L 281.5 114.8 L 282.4 115.1 L 282.2 118.8 L 281.4 124.8 L 281.8 127.4 L 284.0 123.7 L 286.7 117.4 L 287.9 116.3 L 287.7 121.9 L 286.6 132.9 L 285.8 144.8 L 287.6 142.4 L 289.2 141.1 L 290.7 139.7 L 292.2 138.5 L 292.0 156.0 L 293.0 164.1 L 295.0 160.3 L 296.8 156.8 L 298.3 160.3 L 300.0 165.2 Z" fill="none" stroke="#F32740" stroke-width="2.0" stroke-linejoin="round" stroke-linecap="round"/>
<text x="338" y="132" fill="#F32740" font-size="9.5" font-weight="700">125</text>
<text x="335" y="200" fill="#F32740" font-size="9.5" font-weight="700">250</text>
<text x="335" y="268" fill="#F32740" font-size="9.5" font-weight="700">375</text>
<text x="335" y="336" fill="#F32740" font-size="9.5" font-weight="700">500</text>
<rect x="274.0" y="58" width="52" height="11" rx="1.5" fill="#fafbfc" stroke="rgba(255,255,255,0.4)" stroke-width="0.5"/>
<line x1="272.0" y1="69.8" x2="328.0" y2="69.8" stroke="#F32740" stroke-width="0.7" stroke-dasharray="1.5 2"/>
<text x="300" y="66" text-anchor="middle" fill="#F32740" font-size="8" font-weight="700" letter-spacing="0.5">cd/klm SCALE</text>
<g transform="translate(22, 434)">
<text x="0" y="-8" fill="rgba(255,255,255,0.55)" font-size="8" letter-spacing="1.4">cd/klm</text>
<line x1="0" y1="6" x2="22" y2="6" stroke="#F32740" stroke-width="2.2"/>
<text x="28" y="9" fill="rgba(255,255,255,0.7)" font-size="9.5">C0 – C180</text>
<line x1="120" y1="6" x2="142" y2="6" stroke="#3FA9F5" stroke-width="1.7"/>
<text x="148" y="9" fill="rgba(255,255,255,0.7)" font-size="9.5">C90 – C270</text>
</g>
<text x="578" y="402" fill="rgba(255,255,255,0.45)" font-size="9" text-anchor="end">η = 138 lm/W</text>
<text x="578" y="418" fill="rgba(255,255,255,0.45)" font-size="9" text-anchor="end">10,763 lm · 78.1W</text>
<text x="578" y="434" fill="rgba(255,255,255,0.55)" font-size="8" letter-spacing="1.4" text-anchor="end">PEAK INTENSITY</text>
<text x="578" y="451" fill="#fff" font-weight="700" font-size="14" text-anchor="end">4,349 cd</text>
</svg>