<svg viewBox="0 0 600 460" xmlns="http://www.w3.org/2000/svg" font-family="JetBrains Mono, monospace" font-size="9.5">
<rect width="100%" height="100%" fill="#14171b"/>
<text x="22" y="26" fill="#F32740" font-weight="700" letter-spacing="2">LWPF3W80 · 80W · 5000K · CLASSIC FORWARD-THROW</text>
<text x="22" y="42" fill="rgba(255,255,255,0.55)" font-size="8" letter-spacing="1.4">LUMINOUS INTENSITY DISTRIBUTION (cd/klm)</text>
<path d="M 232.0 64.0 A 68.0 68.0 0 0 0 368.0 64.0" fill="none" stroke="rgba(120,200,200,0.18)" stroke-width="0.7"/>
<path d="M 164.0 64.0 A 136.0 136.0 0 0 0 436.0 64.0" fill="none" stroke="rgba(120,200,200,0.18)" stroke-width="0.7"/>
<path d="M 96.0 64.0 A 204.0 204.0 0 0 0 504.0 64.0" fill="none" stroke="rgba(120,200,200,0.18)" stroke-width="0.7"/>
<path d="M 28.0 64.0 A 272.0 272.0 0 0 0 572.0 64.0" fill="none" stroke="rgba(120,200,200,0.18)" stroke-width="0.7"/>
<path d="M -40.0 64.0 A 340.0 340.0 0 0 0 640.0 64.0" fill="none" stroke="rgba(120,200,200,0.18)" stroke-width="0.7"/>
<line x1="300.0" y1="64" x2="388.0" y2="392.4" stroke="rgba(120,200,200,0.10)" stroke-width="0.5"/>
<line x1="300.0" y1="64" x2="212.0" y2="392.4" stroke="rgba(120,200,200,0.10)" stroke-width="0.5"/>
<line x1="300.0" y1="64" x2="470.0" y2="358.4" stroke="rgba(120,200,200,0.10)" stroke-width="0.5"/>
<line x1="300.0" y1="64" x2="130.0" y2="358.4" stroke="rgba(120,200,200,0.10)" stroke-width="0.5"/>
<line x1="300.0" y1="64" x2="540.4" y2="304.4" stroke="rgba(120,200,200,0.10)" stroke-width="0.5"/>
<line x1="300.0" y1="64" x2="59.6" y2="304.4" stroke="rgba(120,200,200,0.10)" stroke-width="0.5"/>
<line x1="300.0" y1="64" x2="594.4" y2="234.0" stroke="rgba(120,200,200,0.10)" stroke-width="0.5"/>
<line x1="300.0" y1="64" x2="5.6" y2="234.0" stroke="rgba(120,200,200,0.10)" stroke-width="0.5"/>
<line x1="300.0" y1="64" x2="628.4" y2="152.0" stroke="rgba(120,200,200,0.10)" stroke-width="0.5"/>
<line x1="300.0" y1="64" x2="-28.4" y2="152.0" stroke="rgba(120,200,200,0.10)" stroke-width="0.5"/>
<line x1="300.0" y1="64" x2="640.0" y2="64.0" stroke="rgba(120,200,200,0.10)" stroke-width="0.5"/>
<line x1="300.0" y1="64" x2="-40.0" y2="64.0" stroke="rgba(120,200,200,0.10)" stroke-width="0.5"/>
<line x1="300.0" y1="64" x2="300.0" y2="408" stroke="rgba(120,200,200,0.14)" stroke-width="0.5"/>
<line x1="-40.0" y1="64" x2="640.0" y2="64" stroke="rgba(120,200,200,0.14)" stroke-width="0.5"/>
<text x="391.6" y="408.9" text-anchor="middle" fill="rgba(255,255,255,0.4)" font-size="9">15°</text>
<text x="208.4" y="408.9" text-anchor="middle" fill="rgba(255,255,255,0.4)" font-size="9">15°</text>
<text x="477.0" y="373.6" text-anchor="middle" fill="rgba(255,255,255,0.6)" font-size="9">30°</text>
<text x="123.0" y="373.6" text-anchor="middle" fill="rgba(255,255,255,0.6)" font-size="9">30°</text>
<text x="550.3" y="317.3" text-anchor="middle" fill="rgba(255,255,255,0.4)" font-size="9">45°</text>
<text x="49.7" y="317.3" text-anchor="middle" fill="rgba(255,255,255,0.4)" font-size="9">45°</text>
<text x="606.6" y="244.0" text-anchor="middle" fill="rgba(255,255,255,0.6)" font-size="9">60°</text>
<text x="-6.6" y="244.0" text-anchor="middle" fill="rgba(255,255,255,0.6)" font-size="9">60°</text>
<text x="641.9" y="158.6" text-anchor="middle" fill="rgba(255,255,255,0.4)" font-size="9">75°</text>
<text x="-41.9" y="158.6" text-anchor="middle" fill="rgba(255,255,255,0.4)" font-size="9">75°</text>
<text x="654.0" y="67.0" text-anchor="middle" fill="rgba(255,255,255,0.6)" font-size="9">90°</text>
<text x="-54.0" y="67.0" text-anchor="middle" fill="rgba(255,255,255,0.6)" font-size="9">90°</text>
<text x="300" y="426" text-anchor="middle" fill="rgba(255,255,255,0.6)" font-size="9">0°</text>
<path d="M 300.0 196.5 L 302.4 199.9 L 304.8 201.9 L 307.2 200.8 L 309.4 198.4 L 311.8 198.7 L 314.2 199.2 L 316.7 200.2 L 319.0 199.3 L 320.7 194.7 L 322.9 193.8 L 325.2 193.6 L 327.6 194.0 L 329.6 192.1 L 330.9 188.0 L 332.6 185.8 L 335.1 186.3 L 337.7 187.4 L 339.0 183.9 L 340.2 180.6 L 342.7 181.2 L 346.0 183.7 L 347.9 182.5 L 348.4 178.1 L 349.6 175.3 L 351.2 173.8 L 351.5 169.5 L 351.1 164.3 L 351.5 160.8 L 352.0 157.8 L 352.5 154.9 L 353.1 152.4 L 354.0 150.4 L 355.3 149.2 L 356.4 147.7 L 357.4 145.9 L 356.7 142.0 L 356.3 138.7 L 355.6 135.2 L 355.8 132.8 L 355.9 130.6 L 356.3 128.7 L 357.3 127.6 L 356.6 124.6 L 355.5 121.5 L 355.1 119.1 L 354.8 116.9 L 354.5 114.8 L 354.0 112.6 L 353.2 110.3 L 352.5 108.0 L 352.4 106.5 L 351.7 104.4 L 350.9 102.4 L 349.9 100.2 L 348.6 98.0 L 348.9 97.0 L 348.2 95.3 L 347.4 93.6 L 346.4 91.9 L 346.3 90.8 L 345.4 89.1 L 344.7 87.8 L 344.2 86.5 L 343.4 85.1 L 342.3 83.7 L 341.4 82.4 L 341.0 81.4 L 340.4 80.3 L 340.0 79.4 L 338.5 78.0 L 337.5 76.9 L 336.3 75.8 L 334.7 74.6 L 333.1 73.5 L 330.9 72.3 L 329.2 71.3 L 327.5 70.4 L 325.4 69.4 L 322.5 68.4 L 321.1 67.7 L 318.6 66.9 L 316.7 66.3 L 315.2 65.9 L 313.7 65.4 L 312.6 65.1 L 311.8 64.8 L 311.0 64.6 L 310.2 64.4 L 309.5 64.2 L 309.2 64.0 L 293.1 64.0 L 292.9 64.1 L 292.4 64.3 L 291.9 64.4 L 291.4 64.6 L 290.7 64.8 L 290.0 65.1 L 289.1 65.3 L 288.3 65.6 L 287.5 66.0 L 286.3 66.4 L 285.3 66.9 L 284.0 67.4 L 282.5 68.0 L 281.0 68.7 L 279.6 69.5 L 278.1 70.3 L 276.5 71.2 L 275.0 72.1 L 273.4 73.2 L 272.0 74.2 L 270.5 75.3 L 269.6 76.3 L 268.4 77.4 L 267.2 78.6 L 266.0 79.8 L 264.7 81.2 L 263.5 82.6 L 262.6 83.9 L 261.9 85.1 L 260.8 86.6 L 259.7 88.2 L 259.0 89.6 L 258.5 90.9 L 257.5 92.6 L 257.1 94.0 L 256.1 95.9 L 254.4 98.3 L 254.8 99.3 L 254.7 100.7 L 253.7 102.9 L 252.5 105.3 L 251.0 108.1 L 251.3 109.4 L 251.1 111.2 L 250.1 113.9 L 249.0 116.8 L 248.9 118.9 L 248.4 121.3 L 249.0 122.7 L 250.3 123.3 L 251.3 124.1 L 251.4 126.2 L 251.5 128.4 L 251.0 131.5 L 250.1 135.2 L 249.6 138.8 L 249.6 141.5 L 249.9 144.2 L 250.6 146.2 L 251.3 148.4 L 251.5 151.4 L 253.4 151.7 L 255.2 152.0 L 256.2 153.8 L 257.5 155.1 L 259.0 156.0 L 259.8 158.8 L 260.4 162.0 L 261.7 163.7 L 263.3 164.7 L 264.1 168.2 L 264.8 172.5 L 265.5 176.9 L 267.7 176.7 L 269.7 177.1 L 270.8 181.3 L 272.5 183.1 L 273.9 186.9 L 276.5 184.8 L 278.7 184.8 L 280.3 188.5 L 282.1 191.4 L 284.2 193.0 L 286.6 191.8 L 288.9 190.5 L 290.8 195.5 L 293.0 198.1 L 295.3 198.4 L 297.7 198.0 L 300.0 196.5 Z" fill="none" stroke="#3FA9F5" stroke-width="1.7" stroke-linejoin="round" stroke-linecap="round"/>
<path d="M 300.0 196.5 L 302.3 197.4 L 304.7 197.3 L 308.0 215.9 L 311.2 224.7 L 314.7 232.2 L 317.5 230.3 L 321.4 238.5 L 324.3 236.9 L 326.4 230.4 L 331.1 240.6 L 338.5 262.2 L 342.7 264.7 L 344.3 256.1 L 345.9 248.1 L 351.1 254.5 L 352.5 247.1 L 351.3 231.7 L 362.8 257.3 L 378.0 290.5 L 379.1 281.2 L 374.2 257.2 L 374.8 249.1 L 381.4 255.8 L 390.3 266.8 L 401.6 281.9 L 401.8 272.6 L 394.9 250.2 L 407.3 265.9 L 415.3 272.0 L 415.3 263.6 L 427.4 276.0 L 432.2 275.6 L 441.2 281.4 L 450.5 287.1 L 449.2 277.0 L 435.7 250.7 L 433.3 240.9 L 441.8 245.5 L 458.3 259.4 L 460.4 255.2 L 460.8 248.9 L 476.9 260.5 L 474.7 251.3 L 456.0 225.5 L 442.3 206.3 L 441.3 200.5 L 458.7 212.0 L 471.5 218.4 L 470.2 211.9 L 466.0 203.3 L 457.0 191.2 L 453.2 183.7 L 444.9 173.2 L 442.1 167.3 L 464.9 179.4 L 491.9 193.4 L 505.9 197.7 L 492.0 184.0 L 478.9 171.5 L 477.4 166.4 L 468.1 157.2 L 463.4 150.9 L 491.5 161.6 L 524.7 173.6 L 515.2 164.4 L 473.9 141.4 L 483.4 141.8 L 497.8 143.9 L 490.9 137.3 L 483.7 130.9 L 538.0 146.0 L 534.3 140.1 L 494.1 123.3 L 445.8 105.8 L 496.9 116.7 L 539.3 123.7 L 498.3 109.8 L 486.8 103.7 L 488.9 100.7 L 498.4 99.0 L 506.9 96.8 L 492.5 91.0 L 482.9 86.5 L 481.8 83.1 L 502.0 81.7 L 490.3 77.3 L 478.3 73.3 L 470.3 69.9 L 465.7 66.9 L 461.0 64.0 L 297.5 64.0 L 297.6 64.0 L 297.6 64.1 L 297.6 64.1 L 297.6 64.2 L 297.6 64.2 L 297.7 64.2 L 297.7 64.3 L 297.7 64.3 L 297.7 64.4 L 297.8 64.4 L 297.7 64.4 L 297.5 64.5 L 297.3 64.6 L 297.1 64.7 L 296.9 64.8 L 296.6 65.0 L 296.1 65.2 L 295.3 65.5 L 294.3 66.0 L 293.1 66.5 L 291.9 67.1 L 290.5 67.8 L 289.6 68.4 L 287.9 69.4 L 286.6 70.2 L 285.4 71.1 L 284.6 71.8 L 283.5 72.8 L 281.3 74.3 L 279.6 75.8 L 278.9 76.7 L 278.2 77.6 L 277.1 78.9 L 275.9 80.3 L 273.8 82.3 L 272.5 84.0 L 272.2 84.9 L 271.4 86.3 L 270.8 87.6 L 270.4 88.9 L 269.5 90.5 L 269.5 91.4 L 269.5 92.5 L 267.6 95.3 L 265.4 98.6 L 264.8 100.5 L 264.4 102.2 L 263.3 104.7 L 263.8 105.6 L 265.1 105.6 L 265.3 106.8 L 264.6 109.3 L 264.8 110.7 L 266.0 110.8 L 266.7 111.5 L 267.2 112.6 L 266.2 116.1 L 265.5 119.3 L 266.6 119.7 L 267.7 119.9 L 268.4 121.0 L 269.1 122.2 L 270.5 121.9 L 271.5 122.5 L 272.6 122.8 L 274.2 121.9 L 275.3 122.2 L 275.7 124.1 L 275.9 126.8 L 276.8 127.6 L 279.1 124.6 L 280.2 125.1 L 280.0 129.4 L 280.0 133.7 L 281.0 134.9 L 283.4 130.4 L 283.2 136.9 L 283.1 143.5 L 283.2 150.2 L 281.4 169.4 L 284.8 160.0 L 288.4 146.9 L 289.5 149.3 L 290.4 155.4 L 290.9 167.8 L 292.0 178.3 L 294.0 178.8 L 296.2 171.9 L 297.8 188.4 L 300.0 196.5 Z" fill="none" stroke="#F32740" stroke-width="2.0" stroke-linejoin="round" stroke-linecap="round"/>
<text x="338" y="132" fill="#F32740" font-size="9.5" font-weight="700">100</text>
<text x="335" y="200" fill="#F32740" font-size="9.5" font-weight="700">200</text>
<text x="335" y="268" fill="#F32740" font-size="9.5" font-weight="700">300</text>
<text x="335" y="336" fill="#F32740" font-size="9.5" font-weight="700">400</text>
<rect x="274.0" y="58" width="52" height="11" rx="1.5" fill="#fafbfc" stroke="rgba(255,255,255,0.4)" stroke-width="0.5"/>
<line x1="272.0" y1="69.8" x2="328.0" y2="69.8" stroke="#F32740" stroke-width="0.7" stroke-dasharray="1.5 2"/>
<text x="300" y="66" text-anchor="middle" fill="#F32740" font-size="8" font-weight="700" letter-spacing="0.5">cd/klm SCALE</text>
<g transform="translate(22, 434)">
<text x="0" y="-8" fill="rgba(255,255,255,0.55)" font-size="8" letter-spacing="1.4">cd/klm</text>
<line x1="0" y1="6" x2="22" y2="6" stroke="#F32740" stroke-width="2.2"/>
<text x="28" y="9" fill="rgba(255,255,255,0.7)" font-size="9.5">C0 – C180</text>
<line x1="120" y1="6" x2="142" y2="6" stroke="#3FA9F5" stroke-width="1.7"/>
<text x="148" y="9" fill="rgba(255,255,255,0.7)" font-size="9.5">C90 – C270</text>
</g>
<text x="578" y="402" fill="rgba(255,255,255,0.45)" font-size="9" text-anchor="end">η = 149 lm/W</text>
<text x="578" y="418" fill="rgba(255,255,255,0.45)" font-size="9" text-anchor="end">11,728 lm · 78.6W</text>
<text x="578" y="434" fill="rgba(255,255,255,0.55)" font-size="8" letter-spacing="1.4" text-anchor="end">PEAK INTENSITY</text>
<text x="578" y="451" fill="#fff" font-weight="700" font-size="14" text-anchor="end">4,641 cd</text>
</svg>