<svg viewBox="0 0 600 460" xmlns="http://www.w3.org/2000/svg" font-family="JetBrains Mono, monospace" font-size="9.5">
<rect width="100%" height="100%" fill="#14171b"/>
<text x="22" y="26" fill="#F32740" font-weight="700" letter-spacing="2">LWPC30-S3N2-UD-BA-PSB_BA15_LV2-24W_3000K · 0W · — · FULL CUTOFF</text>
<text x="22" y="42" fill="rgba(255,255,255,0.55)" font-size="8" letter-spacing="1.4">LUMINOUS INTENSITY DISTRIBUTION (cd/klm)</text>
<path d="M 232.0 64.0 A 68.0 68.0 0 0 0 368.0 64.0" fill="none" stroke="rgba(120,200,200,0.18)" stroke-width="0.7"/>
<path d="M 164.0 64.0 A 136.0 136.0 0 0 0 436.0 64.0" fill="none" stroke="rgba(120,200,200,0.18)" stroke-width="0.7"/>
<path d="M 96.0 64.0 A 204.0 204.0 0 0 0 504.0 64.0" fill="none" stroke="rgba(120,200,200,0.18)" stroke-width="0.7"/>
<path d="M 28.0 64.0 A 272.0 272.0 0 0 0 572.0 64.0" fill="none" stroke="rgba(120,200,200,0.18)" stroke-width="0.7"/>
<path d="M -40.0 64.0 A 340.0 340.0 0 0 0 640.0 64.0" fill="none" stroke="rgba(120,200,200,0.18)" stroke-width="0.7"/>
<line x1="300.0" y1="64" x2="388.0" y2="392.4" stroke="rgba(120,200,200,0.10)" stroke-width="0.5"/>
<line x1="300.0" y1="64" x2="212.0" y2="392.4" stroke="rgba(120,200,200,0.10)" stroke-width="0.5"/>
<line x1="300.0" y1="64" x2="470.0" y2="358.4" stroke="rgba(120,200,200,0.10)" stroke-width="0.5"/>
<line x1="300.0" y1="64" x2="130.0" y2="358.4" stroke="rgba(120,200,200,0.10)" stroke-width="0.5"/>
<line x1="300.0" y1="64" x2="540.4" y2="304.4" stroke="rgba(120,200,200,0.10)" stroke-width="0.5"/>
<line x1="300.0" y1="64" x2="59.6" y2="304.4" stroke="rgba(120,200,200,0.10)" stroke-width="0.5"/>
<line x1="300.0" y1="64" x2="594.4" y2="234.0" stroke="rgba(120,200,200,0.10)" stroke-width="0.5"/>
<line x1="300.0" y1="64" x2="5.6" y2="234.0" stroke="rgba(120,200,200,0.10)" stroke-width="0.5"/>
<line x1="300.0" y1="64" x2="628.4" y2="152.0" stroke="rgba(120,200,200,0.10)" stroke-width="0.5"/>
<line x1="300.0" y1="64" x2="-28.4" y2="152.0" stroke="rgba(120,200,200,0.10)" stroke-width="0.5"/>
<line x1="300.0" y1="64" x2="640.0" y2="64.0" stroke="rgba(120,200,200,0.10)" stroke-width="0.5"/>
<line x1="300.0" y1="64" x2="-40.0" y2="64.0" stroke="rgba(120,200,200,0.10)" stroke-width="0.5"/>
<line x1="300.0" y1="64" x2="300.0" y2="408" stroke="rgba(120,200,200,0.14)" stroke-width="0.5"/>
<line x1="-40.0" y1="64" x2="640.0" y2="64" stroke="rgba(120,200,200,0.14)" stroke-width="0.5"/>
<text x="391.6" y="408.9" text-anchor="middle" fill="rgba(255,255,255,0.4)" font-size="9">15°</text>
<text x="208.4" y="408.9" text-anchor="middle" fill="rgba(255,255,255,0.4)" font-size="9">15°</text>
<text x="477.0" y="373.6" text-anchor="middle" fill="rgba(255,255,255,0.6)" font-size="9">30°</text>
<text x="123.0" y="373.6" text-anchor="middle" fill="rgba(255,255,255,0.6)" font-size="9">30°</text>
<text x="550.3" y="317.3" text-anchor="middle" fill="rgba(255,255,255,0.4)" font-size="9">45°</text>
<text x="49.7" y="317.3" text-anchor="middle" fill="rgba(255,255,255,0.4)" font-size="9">45°</text>
<text x="606.6" y="244.0" text-anchor="middle" fill="rgba(255,255,255,0.6)" font-size="9">60°</text>
<text x="-6.6" y="244.0" text-anchor="middle" fill="rgba(255,255,255,0.6)" font-size="9">60°</text>
<text x="641.9" y="158.6" text-anchor="middle" fill="rgba(255,255,255,0.4)" font-size="9">75°</text>
<text x="-41.9" y="158.6" text-anchor="middle" fill="rgba(255,255,255,0.4)" font-size="9">75°</text>
<text x="654.0" y="67.0" text-anchor="middle" fill="rgba(255,255,255,0.6)" font-size="9">90°</text>
<text x="-54.0" y="67.0" text-anchor="middle" fill="rgba(255,255,255,0.6)" font-size="9">90°</text>
<text x="300" y="426" text-anchor="middle" fill="rgba(255,255,255,0.6)" font-size="9">0°</text>
<path d="M 300.0 221.2 L 302.7 221.0 L 305.5 221.4 L 308.2 221.1 L 311.0 220.9 L 313.7 220.6 L 316.2 218.6 L 319.1 219.7 L 321.7 218.6 L 324.4 217.9 L 327.0 217.2 L 329.6 216.2 L 332.1 215.1 L 334.6 213.9 L 337.1 212.7 L 339.5 211.4 L 341.9 210.1 L 344.1 208.2 L 346.4 206.8 L 348.5 205.0 L 350.6 203.0 L 352.8 201.4 L 354.7 199.4 L 356.6 197.3 L 358.4 195.1 L 360.0 192.7 L 361.7 190.5 L 363.2 188.0 L 364.6 185.4 L 366.1 183.2 L 367.2 180.4 L 368.4 177.8 L 369.4 175.1 L 370.4 172.4 L 371.2 169.6 L 372.0 166.8 L 372.7 164.0 L 373.2 161.1 L 373.5 158.1 L 374.0 155.3 L 374.2 152.4 L 374.3 149.5 L 374.1 146.3 L 373.9 143.3 L 373.7 140.3 L 373.3 137.3 L 373.0 134.5 L 372.5 131.6 L 371.9 128.7 L 371.1 125.8 L 370.0 122.8 L 369.0 119.9 L 368.1 117.2 L 367.0 114.5 L 365.8 111.8 L 364.4 109.1 L 363.0 106.5 L 361.6 104.0 L 360.0 101.5 L 358.4 99.1 L 356.6 96.7 L 355.0 94.5 L 353.2 92.3 L 351.4 90.2 L 349.2 88.0 L 347.4 86.1 L 345.3 84.2 L 343.2 82.4 L 341.2 80.6 L 339.1 79.0 L 337.0 77.5 L 334.9 76.0 L 332.5 74.6 L 330.4 73.3 L 328.2 72.1 L 326.1 71.0 L 323.7 69.9 L 321.6 69.0 L 319.5 68.1 L 317.2 67.3 L 315.1 66.7 L 313.1 66.1 L 311.2 65.6 L 309.1 65.1 L 307.3 64.8 L 305.7 64.5 L 304.2 64.3 L 302.8 64.1 L 301.6 64.1 L 300.8 64.0 L 300.2 64.0 L 300.0 64.0 L 299.8 64.0 L 299.2 64.0 L 298.4 64.1 L 297.4 64.2 L 296.1 64.3 L 294.8 64.5 L 293.3 64.8 L 291.8 65.2 L 289.9 65.6 L 288.2 66.1 L 286.5 66.6 L 284.6 67.3 L 282.6 68.0 L 280.7 68.8 L 278.7 69.7 L 276.8 70.7 L 274.8 71.7 L 272.6 72.9 L 270.6 74.1 L 268.7 75.4 L 266.5 76.8 L 264.6 78.3 L 262.7 79.8 L 260.9 81.4 L 258.8 83.2 L 257.0 85.0 L 255.2 86.8 L 253.4 88.8 L 251.5 90.9 L 249.8 93.0 L 248.2 95.1 L 246.7 97.3 L 245.1 99.7 L 243.6 102.0 L 242.4 104.4 L 241.0 106.9 L 239.5 109.6 L 238.5 112.0 L 237.3 114.8 L 236.4 117.4 L 235.3 120.2 L 234.5 122.9 L 233.8 125.7 L 233.2 128.5 L 232.6 131.4 L 232.2 134.2 L 231.9 137.1 L 231.4 140.2 L 231.2 143.1 L 231.2 146.0 L 231.3 148.8 L 231.5 151.7 L 231.7 154.6 L 232.1 157.4 L 232.7 160.1 L 233.1 163.2 L 233.8 166.0 L 234.6 168.7 L 235.4 171.5 L 236.4 174.2 L 237.4 176.8 L 238.5 179.6 L 239.8 182.1 L 241.3 184.4 L 242.7 186.9 L 244.1 189.5 L 245.8 191.7 L 247.6 193.8 L 249.3 196.1 L 251.1 198.3 L 253.1 200.3 L 255.1 202.1 L 257.2 204.0 L 259.3 205.9 L 261.6 207.5 L 263.8 209.2 L 266.2 210.6 L 268.5 212.0 L 271.0 213.2 L 273.5 214.4 L 276.0 215.6 L 278.5 216.7 L 281.1 217.6 L 283.8 218.3 L 286.4 219.0 L 289.1 219.5 L 291.8 220.3 L 294.5 220.4 L 297.3 220.7 L 300.0 221.2 Z" fill="none" stroke="#3FA9F5" stroke-width="1.7" stroke-linejoin="round" stroke-linecap="round"/>
<path d="M 300.0 221.2 L 302.8 225.0 L 305.8 229.2 L 308.8 232.6 L 312.0 236.1 L 315.3 239.3 L 318.8 242.7 L 322.3 245.9 L 326.0 248.8 L 329.7 251.6 L 333.5 254.2 L 337.5 257.0 L 341.7 260.0 L 345.8 262.4 L 349.9 264.3 L 354.3 266.7 L 358.8 269.0 L 363.2 270.6 L 367.6 272.1 L 372.0 273.1 L 376.3 273.8 L 380.7 274.3 L 385.2 274.8 L 389.6 275.1 L 394.0 275.1 L 398.5 275.2 L 402.6 274.4 L 406.6 273.2 L 410.3 271.5 L 413.4 268.6 L 416.5 265.8 L 419.1 262.3 L 421.4 258.3 L 422.9 253.3 L 424.3 248.2 L 425.3 243.0 L 425.9 237.3 L 426.2 231.4 L 426.2 225.5 L 426.1 219.7 L 425.6 213.7 L 424.5 207.2 L 423.7 201.4 L 422.8 195.7 L 421.7 190.0 L 420.4 184.4 L 419.0 178.9 L 417.4 173.5 L 415.4 167.9 L 413.5 162.6 L 411.2 157.3 L 409.0 152.3 L 406.7 147.3 L 404.1 142.5 L 401.2 137.5 L 398.7 133.1 L 395.9 128.7 L 392.6 124.1 L 389.5 119.9 L 386.3 115.8 L 382.5 111.7 L 379.6 108.1 L 376.5 104.7 L 373.6 101.5 L 370.6 98.4 L 367.7 95.6 L 364.7 92.8 L 361.8 90.2 L 358.8 87.7 L 356.1 85.6 L 353.6 83.5 L 351.1 81.6 L 348.6 79.8 L 346.1 78.1 L 343.8 76.6 L 341.6 75.2 L 339.5 73.8 L 337.2 72.6 L 335.3 71.5 L 333.3 70.5 L 331.2 69.5 L 329.3 68.6 L 327.5 67.9 L 325.7 67.2 L 324.0 66.5 L 322.2 65.9 L 320.6 65.4 L 318.9 65.0 L 317.4 64.6 L 315.6 64.3 L 314.1 64.0 L 300.0 64.0 L 300.0 64.0 L 300.0 64.0 L 300.0 64.0 L 300.0 64.0 L 300.0 64.0 L 300.0 64.0 L 300.0 64.0 L 300.0 64.0 L 300.0 64.0 L 300.0 64.0 L 300.0 64.0 L 300.0 64.0 L 300.0 64.0 L 300.0 64.0 L 299.7 64.1 L 299.2 64.2 L 298.7 64.4 L 298.1 64.6 L 297.3 64.9 L 296.5 65.3 L 295.6 65.7 L 294.6 66.2 L 293.5 66.8 L 292.5 67.3 L 291.5 68.0 L 290.4 68.7 L 289.4 69.4 L 288.4 70.2 L 287.4 71.0 L 286.3 71.9 L 285.2 72.9 L 284.2 73.9 L 283.2 74.9 L 282.3 76.0 L 281.2 77.2 L 280.3 78.3 L 279.3 79.6 L 278.3 81.0 L 277.4 82.3 L 276.6 83.7 L 275.6 85.2 L 274.6 86.9 L 273.7 88.5 L 272.9 90.2 L 272.0 92.0 L 271.2 93.8 L 270.4 95.8 L 269.5 97.8 L 268.7 100.1 L 268.0 102.2 L 267.2 104.5 L 266.6 106.8 L 265.8 109.3 L 265.3 111.7 L 264.7 114.5 L 264.2 117.1 L 263.8 119.8 L 263.5 122.5 L 263.2 125.3 L 263.0 128.0 L 263.1 130.7 L 263.1 133.4 L 263.3 136.1 L 263.5 138.9 L 263.8 141.6 L 264.2 144.3 L 264.7 147.1 L 265.3 149.9 L 266.0 152.5 L 266.7 155.4 L 267.6 158.0 L 268.5 161.0 L 269.6 163.6 L 270.7 166.2 L 271.8 169.1 L 273.1 172.0 L 274.3 175.3 L 275.7 178.3 L 277.2 181.4 L 278.7 184.6 L 280.4 188.0 L 282.1 191.4 L 283.9 195.2 L 285.8 198.8 L 287.9 202.5 L 290.1 206.2 L 292.4 210.0 L 294.8 214.0 L 297.3 218.1 L 300.0 221.2 Z" fill="none" stroke="#F32740" stroke-width="2.0" stroke-linejoin="round" stroke-linecap="round"/>
<text x="338" y="132" fill="#F32740" font-size="9.5" font-weight="700">150</text>
<text x="335" y="200" fill="#F32740" font-size="9.5" font-weight="700">300</text>
<text x="335" y="268" fill="#F32740" font-size="9.5" font-weight="700">450</text>
<text x="335" y="336" fill="#F32740" font-size="9.5" font-weight="700">600</text>
<rect x="274.0" y="58" width="52" height="11" rx="1.5" fill="#fafbfc" stroke="rgba(255,255,255,0.4)" stroke-width="0.5"/>
<line x1="272.0" y1="69.8" x2="328.0" y2="69.8" stroke="#F32740" stroke-width="0.7" stroke-dasharray="1.5 2"/>
<text x="300" y="66" text-anchor="middle" fill="#F32740" font-size="8" font-weight="700" letter-spacing="0.5">cd/klm SCALE</text>
<g transform="translate(22, 434)">
<text x="0" y="-8" fill="rgba(255,255,255,0.55)" font-size="8" letter-spacing="1.4">cd/klm</text>
<line x1="0" y1="6" x2="22" y2="6" stroke="#F32740" stroke-width="2.2"/>
<text x="28" y="9" fill="rgba(255,255,255,0.7)" font-size="9.5">C0 – C180</text>
<line x1="120" y1="6" x2="142" y2="6" stroke="#3FA9F5" stroke-width="1.7"/>
<text x="148" y="9" fill="rgba(255,255,255,0.7)" font-size="9.5">C90 – C270</text>
</g>
<text x="578" y="402" fill="rgba(255,255,255,0.45)" font-size="9" text-anchor="end">η = 137 lm/W</text>
<text x="578" y="418" fill="rgba(255,255,255,0.45)" font-size="9" text-anchor="end">3,396 lm · 24.9W</text>
<text x="578" y="434" fill="rgba(255,255,255,0.55)" font-size="8" letter-spacing="1.4" text-anchor="end">PEAK INTENSITY</text>
<text x="578" y="451" fill="#fff" font-weight="700" font-size="14" text-anchor="end">1,760 cd</text>
</svg>