<svg viewBox="0 0 600 460" xmlns="http://www.w3.org/2000/svg" font-family="JetBrains Mono, monospace" font-size="9.5">
<rect width="100%" height="100%" fill="#14171b"/>
<text x="22" y="26" fill="#F32740" font-weight="700" letter-spacing="2">LWPC30-S3N2-UD-BA-PSB_BA0_LV3-18W_4000K · 0W · — · FULL CUTOFF</text>
<text x="22" y="42" fill="rgba(255,255,255,0.55)" font-size="8" letter-spacing="1.4">LUMINOUS INTENSITY DISTRIBUTION (cd/klm)</text>
<path d="M 232.0 64.0 A 68.0 68.0 0 0 0 368.0 64.0" fill="none" stroke="rgba(120,200,200,0.18)" stroke-width="0.7"/>
<path d="M 164.0 64.0 A 136.0 136.0 0 0 0 436.0 64.0" fill="none" stroke="rgba(120,200,200,0.18)" stroke-width="0.7"/>
<path d="M 96.0 64.0 A 204.0 204.0 0 0 0 504.0 64.0" fill="none" stroke="rgba(120,200,200,0.18)" stroke-width="0.7"/>
<path d="M 28.0 64.0 A 272.0 272.0 0 0 0 572.0 64.0" fill="none" stroke="rgba(120,200,200,0.18)" stroke-width="0.7"/>
<path d="M -40.0 64.0 A 340.0 340.0 0 0 0 640.0 64.0" fill="none" stroke="rgba(120,200,200,0.18)" stroke-width="0.7"/>
<line x1="300.0" y1="64" x2="388.0" y2="392.4" stroke="rgba(120,200,200,0.10)" stroke-width="0.5"/>
<line x1="300.0" y1="64" x2="212.0" y2="392.4" stroke="rgba(120,200,200,0.10)" stroke-width="0.5"/>
<line x1="300.0" y1="64" x2="470.0" y2="358.4" stroke="rgba(120,200,200,0.10)" stroke-width="0.5"/>
<line x1="300.0" y1="64" x2="130.0" y2="358.4" stroke="rgba(120,200,200,0.10)" stroke-width="0.5"/>
<line x1="300.0" y1="64" x2="540.4" y2="304.4" stroke="rgba(120,200,200,0.10)" stroke-width="0.5"/>
<line x1="300.0" y1="64" x2="59.6" y2="304.4" stroke="rgba(120,200,200,0.10)" stroke-width="0.5"/>
<line x1="300.0" y1="64" x2="594.4" y2="234.0" stroke="rgba(120,200,200,0.10)" stroke-width="0.5"/>
<line x1="300.0" y1="64" x2="5.6" y2="234.0" stroke="rgba(120,200,200,0.10)" stroke-width="0.5"/>
<line x1="300.0" y1="64" x2="628.4" y2="152.0" stroke="rgba(120,200,200,0.10)" stroke-width="0.5"/>
<line x1="300.0" y1="64" x2="-28.4" y2="152.0" stroke="rgba(120,200,200,0.10)" stroke-width="0.5"/>
<line x1="300.0" y1="64" x2="640.0" y2="64.0" stroke="rgba(120,200,200,0.10)" stroke-width="0.5"/>
<line x1="300.0" y1="64" x2="-40.0" y2="64.0" stroke="rgba(120,200,200,0.10)" stroke-width="0.5"/>
<line x1="300.0" y1="64" x2="300.0" y2="408" stroke="rgba(120,200,200,0.14)" stroke-width="0.5"/>
<line x1="-40.0" y1="64" x2="640.0" y2="64" stroke="rgba(120,200,200,0.14)" stroke-width="0.5"/>
<text x="391.6" y="408.9" text-anchor="middle" fill="rgba(255,255,255,0.4)" font-size="9">15°</text>
<text x="208.4" y="408.9" text-anchor="middle" fill="rgba(255,255,255,0.4)" font-size="9">15°</text>
<text x="477.0" y="373.6" text-anchor="middle" fill="rgba(255,255,255,0.6)" font-size="9">30°</text>
<text x="123.0" y="373.6" text-anchor="middle" fill="rgba(255,255,255,0.6)" font-size="9">30°</text>
<text x="550.3" y="317.3" text-anchor="middle" fill="rgba(255,255,255,0.4)" font-size="9">45°</text>
<text x="49.7" y="317.3" text-anchor="middle" fill="rgba(255,255,255,0.4)" font-size="9">45°</text>
<text x="606.6" y="244.0" text-anchor="middle" fill="rgba(255,255,255,0.6)" font-size="9">60°</text>
<text x="-6.6" y="244.0" text-anchor="middle" fill="rgba(255,255,255,0.6)" font-size="9">60°</text>
<text x="641.9" y="158.6" text-anchor="middle" fill="rgba(255,255,255,0.4)" font-size="9">75°</text>
<text x="-41.9" y="158.6" text-anchor="middle" fill="rgba(255,255,255,0.4)" font-size="9">75°</text>
<text x="654.0" y="67.0" text-anchor="middle" fill="rgba(255,255,255,0.6)" font-size="9">90°</text>
<text x="-54.0" y="67.0" text-anchor="middle" fill="rgba(255,255,255,0.6)" font-size="9">90°</text>
<text x="300" y="426" text-anchor="middle" fill="rgba(255,255,255,0.6)" font-size="9">0°</text>
<path d="M 300.0 275.7 L 303.7 275.9 L 307.4 275.7 L 311.1 275.0 L 314.7 274.5 L 318.4 274.2 L 322.0 273.2 L 325.6 272.4 L 329.2 271.7 L 332.7 270.6 L 336.2 269.3 L 339.6 267.7 L 342.9 266.0 L 346.2 264.2 L 349.3 261.9 L 352.5 259.9 L 355.5 257.7 L 358.5 255.4 L 361.2 252.3 L 364.1 250.1 L 366.8 247.4 L 369.3 244.7 L 371.8 241.8 L 374.1 238.5 L 376.4 235.5 L 378.5 232.3 L 380.4 228.9 L 382.0 224.9 L 383.8 221.5 L 385.2 217.8 L 386.7 214.1 L 388.0 210.4 L 389.2 206.7 L 390.2 202.9 L 391.1 199.0 L 391.7 195.0 L 392.2 190.9 L 392.6 186.8 L 392.8 182.8 L 392.9 178.8 L 392.9 174.7 L 392.5 170.5 L 392.3 166.5 L 391.7 162.4 L 391.1 158.3 L 390.4 154.4 L 389.5 150.5 L 388.5 146.5 L 387.3 142.6 L 386.0 138.8 L 384.2 134.7 L 382.7 131.0 L 381.1 127.4 L 379.3 123.8 L 377.5 120.3 L 375.7 117.0 L 373.7 113.7 L 371.2 110.3 L 369.2 107.2 L 366.9 104.2 L 364.7 101.4 L 362.4 98.6 L 359.7 95.7 L 357.3 93.2 L 354.8 90.7 L 352.3 88.4 L 349.9 86.2 L 347.4 84.1 L 344.9 82.1 L 342.0 80.1 L 339.4 78.4 L 336.9 76.7 L 334.4 75.2 L 331.7 73.7 L 329.3 72.4 L 326.8 71.2 L 324.4 70.1 L 321.8 69.0 L 319.5 68.1 L 317.2 67.3 L 315.0 66.6 L 312.6 66.0 L 310.5 65.5 L 308.6 65.1 L 306.8 64.7 L 305.0 64.4 L 303.6 64.2 L 302.3 64.1 L 301.3 64.0 L 300.0 64.0 L 300.0 64.0 L 300.0 64.0 L 300.0 64.0 L 298.6 64.0 L 297.6 64.1 L 296.4 64.3 L 295.0 64.4 L 293.4 64.7 L 291.6 65.0 L 289.7 65.4 L 287.8 65.9 L 285.8 66.5 L 283.6 67.2 L 281.5 67.9 L 279.3 68.8 L 277.0 69.7 L 274.5 70.8 L 272.2 72.0 L 269.9 73.2 L 267.6 74.5 L 265.0 76.0 L 262.7 77.6 L 260.3 79.2 L 258.0 81.0 L 255.3 83.0 L 253.1 84.9 L 250.8 87.0 L 248.4 89.2 L 245.9 91.6 L 243.6 94.0 L 241.4 96.5 L 239.2 99.1 L 236.9 101.9 L 234.8 104.7 L 232.9 107.6 L 230.5 110.9 L 228.5 114.0 L 226.8 117.2 L 225.1 120.5 L 223.3 123.9 L 221.7 127.4 L 220.3 130.9 L 218.9 134.5 L 217.7 138.1 L 216.2 142.1 L 215.2 145.9 L 214.3 149.7 L 213.6 153.5 L 212.7 157.6 L 212.2 161.5 L 211.9 165.4 L 211.5 169.4 L 211.5 173.3 L 211.5 177.3 L 211.7 181.2 L 211.7 185.6 L 212.1 189.6 L 212.7 193.5 L 213.5 197.2 L 214.4 201.1 L 215.4 204.8 L 216.5 208.6 L 217.8 212.3 L 219.1 216.1 L 220.7 219.7 L 222.3 223.2 L 224.1 226.7 L 226.0 230.2 L 228.0 233.7 L 230.2 236.8 L 232.6 239.6 L 234.9 242.8 L 237.5 245.6 L 240.2 248.1 L 242.7 251.5 L 245.5 253.9 L 248.5 256.1 L 251.4 258.7 L 254.6 260.6 L 257.7 262.9 L 261.0 264.7 L 264.3 266.4 L 267.7 268.0 L 271.2 269.2 L 274.6 270.5 L 278.2 271.8 L 281.7 272.8 L 285.3 273.6 L 289.0 274.3 L 292.6 274.9 L 296.3 275.3 L 300.0 275.7 Z" fill="none" stroke="#3FA9F5" stroke-width="1.7" stroke-linejoin="round" stroke-linecap="round"/>
<path d="M 300.0 275.7 L 303.8 279.1 L 307.6 281.4 L 311.5 283.6 L 315.5 285.5 L 319.5 287.3 L 323.6 288.5 L 327.8 290.4 L 332.0 291.6 L 336.2 292.6 L 340.5 293.5 L 344.6 293.5 L 348.7 293.0 L 352.6 291.8 L 356.3 289.9 L 359.8 287.1 L 363.0 283.8 L 366.0 279.9 L 368.7 275.5 L 371.0 270.1 L 373.2 265.1 L 375.1 259.6 L 376.8 254.1 L 378.3 248.4 L 379.6 242.7 L 380.3 236.3 L 381.6 231.3 L 381.8 224.6 L 382.5 219.1 L 382.9 213.5 L 383.1 207.9 L 382.9 202.0 L 382.8 196.5 L 382.5 191.0 L 381.6 185.0 L 380.8 179.4 L 380.0 174.1 L 378.9 168.7 L 377.3 163.0 L 376.0 157.9 L 374.5 152.8 L 373.0 147.9 L 371.2 143.0 L 369.1 138.1 L 367.1 133.5 L 365.1 129.1 L 363.2 125.0 L 360.8 120.7 L 358.8 116.9 L 356.9 113.5 L 354.9 110.1 L 352.6 106.6 L 350.5 103.5 L 348.5 100.6 L 346.6 97.8 L 344.6 95.2 L 342.8 92.8 L 341.0 90.6 L 339.0 88.4 L 337.3 86.4 L 335.6 84.5 L 334.0 82.9 L 332.3 81.2 L 330.6 79.6 L 329.0 78.2 L 327.5 76.8 L 326.0 75.6 L 324.3 74.3 L 322.8 73.2 L 321.3 72.2 L 319.7 71.2 L 318.3 70.3 L 316.9 69.5 L 315.5 68.7 L 314.0 68.0 L 312.6 67.4 L 311.3 66.8 L 309.9 66.3 L 308.7 65.8 L 307.3 65.4 L 306.1 65.1 L 305.0 64.8 L 303.9 64.5 L 302.9 64.4 L 302.0 64.2 L 301.3 64.1 L 300.7 64.0 L 300.0 64.0 L 300.0 64.0 L 300.0 64.0 L 300.0 64.0 L 300.0 64.0 L 298.9 64.0 L 298.2 64.1 L 297.5 64.1 L 296.6 64.2 L 295.5 64.4 L 294.5 64.6 L 293.3 64.8 L 292.2 65.1 L 291.0 65.4 L 289.9 65.8 L 288.7 66.2 L 287.5 66.7 L 286.1 67.2 L 284.8 67.8 L 283.5 68.4 L 282.1 69.1 L 280.9 69.8 L 279.7 70.6 L 278.5 71.4 L 277.2 72.3 L 275.9 73.3 L 274.6 74.3 L 273.4 75.3 L 272.1 76.4 L 270.6 77.7 L 269.3 79.0 L 268.0 80.3 L 266.6 81.8 L 265.3 83.3 L 263.9 84.8 L 262.7 86.4 L 261.0 88.3 L 259.7 90.2 L 258.4 92.0 L 257.1 94.0 L 255.8 96.1 L 254.4 98.4 L 253.2 100.6 L 251.9 103.0 L 250.8 105.3 L 249.4 108.0 L 248.4 110.5 L 247.3 113.1 L 246.4 115.7 L 245.5 118.5 L 244.8 121.2 L 244.2 123.9 L 243.7 126.5 L 243.3 129.3 L 243.0 131.9 L 242.7 134.7 L 242.5 137.6 L 242.4 140.4 L 242.2 143.6 L 242.3 146.4 L 242.5 149.2 L 242.7 152.2 L 243.0 155.2 L 243.4 158.2 L 243.8 161.3 L 244.3 164.5 L 244.8 167.9 L 245.3 171.3 L 245.9 174.9 L 246.6 178.4 L 247.4 182.2 L 248.1 186.2 L 248.9 190.6 L 249.9 194.5 L 251.0 198.7 L 252.1 203.1 L 253.4 207.3 L 254.9 211.4 L 256.5 215.6 L 258.3 219.6 L 260.0 224.4 L 262.0 228.6 L 264.2 232.6 L 266.4 236.8 L 268.8 240.9 L 271.4 244.7 L 274.1 248.4 L 276.9 252.2 L 279.8 255.9 L 282.9 259.3 L 286.1 262.6 L 289.4 265.9 L 292.8 269.2 L 296.4 272.5 L 300.0 275.7 Z" fill="none" stroke="#F32740" stroke-width="2.0" stroke-linejoin="round" stroke-linecap="round"/>
<text x="338" y="132" fill="#F32740" font-size="9.5" font-weight="700">150</text>
<text x="335" y="200" fill="#F32740" font-size="9.5" font-weight="700">300</text>
<text x="335" y="268" fill="#F32740" font-size="9.5" font-weight="700">450</text>
<text x="335" y="336" fill="#F32740" font-size="9.5" font-weight="700">600</text>
<rect x="274.0" y="58" width="52" height="11" rx="1.5" fill="#fafbfc" stroke="rgba(255,255,255,0.4)" stroke-width="0.5"/>
<line x1="272.0" y1="69.8" x2="328.0" y2="69.8" stroke="#F32740" stroke-width="0.7" stroke-dasharray="1.5 2"/>
<text x="300" y="66" text-anchor="middle" fill="#F32740" font-size="8" font-weight="700" letter-spacing="0.5">cd/klm SCALE</text>
<g transform="translate(22, 434)">
<text x="0" y="-8" fill="rgba(255,255,255,0.55)" font-size="8" letter-spacing="1.4">cd/klm</text>
<line x1="0" y1="6" x2="22" y2="6" stroke="#F32740" stroke-width="2.2"/>
<text x="28" y="9" fill="rgba(255,255,255,0.7)" font-size="9.5">C0 – C180</text>
<line x1="120" y1="6" x2="142" y2="6" stroke="#3FA9F5" stroke-width="1.7"/>
<text x="148" y="9" fill="rgba(255,255,255,0.7)" font-size="9.5">C90 – C270</text>
</g>
<text x="578" y="402" fill="rgba(255,255,255,0.45)" font-size="9" text-anchor="end">η = 153 lm/W</text>
<text x="578" y="418" fill="rgba(255,255,255,0.45)" font-size="9" text-anchor="end">2,718 lm · 17.7W</text>
<text x="578" y="434" fill="rgba(255,255,255,0.55)" font-size="8" letter-spacing="1.4" text-anchor="end">PEAK INTENSITY</text>
<text x="578" y="451" fill="#fff" font-weight="700" font-size="14" text-anchor="end">1,404 cd</text>
</svg>