<svg viewBox="0 0 600 460" xmlns="http://www.w3.org/2000/svg" font-family="JetBrains Mono, monospace" font-size="9.5">
<rect width="100%" height="100%" fill="#14171b"/>
<text x="22" y="26" fill="#F32740" font-weight="700" letter-spacing="2">LWPC30-S3N2-UD-BA-PSB_BA30_LV2-24W_4000K · 0W · — · FULL CUTOFF</text>
<text x="22" y="42" fill="rgba(255,255,255,0.55)" font-size="8" letter-spacing="1.4">LUMINOUS INTENSITY DISTRIBUTION (cd/klm)</text>
<path d="M 232.0 64.0 A 68.0 68.0 0 0 0 368.0 64.0" fill="none" stroke="rgba(120,200,200,0.18)" stroke-width="0.7"/>
<path d="M 164.0 64.0 A 136.0 136.0 0 0 0 436.0 64.0" fill="none" stroke="rgba(120,200,200,0.18)" stroke-width="0.7"/>
<path d="M 96.0 64.0 A 204.0 204.0 0 0 0 504.0 64.0" fill="none" stroke="rgba(120,200,200,0.18)" stroke-width="0.7"/>
<path d="M 28.0 64.0 A 272.0 272.0 0 0 0 572.0 64.0" fill="none" stroke="rgba(120,200,200,0.18)" stroke-width="0.7"/>
<path d="M -40.0 64.0 A 340.0 340.0 0 0 0 640.0 64.0" fill="none" stroke="rgba(120,200,200,0.18)" stroke-width="0.7"/>
<line x1="300.0" y1="64" x2="388.0" y2="392.4" stroke="rgba(120,200,200,0.10)" stroke-width="0.5"/>
<line x1="300.0" y1="64" x2="212.0" y2="392.4" stroke="rgba(120,200,200,0.10)" stroke-width="0.5"/>
<line x1="300.0" y1="64" x2="470.0" y2="358.4" stroke="rgba(120,200,200,0.10)" stroke-width="0.5"/>
<line x1="300.0" y1="64" x2="130.0" y2="358.4" stroke="rgba(120,200,200,0.10)" stroke-width="0.5"/>
<line x1="300.0" y1="64" x2="540.4" y2="304.4" stroke="rgba(120,200,200,0.10)" stroke-width="0.5"/>
<line x1="300.0" y1="64" x2="59.6" y2="304.4" stroke="rgba(120,200,200,0.10)" stroke-width="0.5"/>
<line x1="300.0" y1="64" x2="594.4" y2="234.0" stroke="rgba(120,200,200,0.10)" stroke-width="0.5"/>
<line x1="300.0" y1="64" x2="5.6" y2="234.0" stroke="rgba(120,200,200,0.10)" stroke-width="0.5"/>
<line x1="300.0" y1="64" x2="628.4" y2="152.0" stroke="rgba(120,200,200,0.10)" stroke-width="0.5"/>
<line x1="300.0" y1="64" x2="-28.4" y2="152.0" stroke="rgba(120,200,200,0.10)" stroke-width="0.5"/>
<line x1="300.0" y1="64" x2="640.0" y2="64.0" stroke="rgba(120,200,200,0.10)" stroke-width="0.5"/>
<line x1="300.0" y1="64" x2="-40.0" y2="64.0" stroke="rgba(120,200,200,0.10)" stroke-width="0.5"/>
<line x1="300.0" y1="64" x2="300.0" y2="408" stroke="rgba(120,200,200,0.14)" stroke-width="0.5"/>
<line x1="-40.0" y1="64" x2="640.0" y2="64" stroke="rgba(120,200,200,0.14)" stroke-width="0.5"/>
<text x="391.6" y="408.9" text-anchor="middle" fill="rgba(255,255,255,0.4)" font-size="9">15°</text>
<text x="208.4" y="408.9" text-anchor="middle" fill="rgba(255,255,255,0.4)" font-size="9">15°</text>
<text x="477.0" y="373.6" text-anchor="middle" fill="rgba(255,255,255,0.6)" font-size="9">30°</text>
<text x="123.0" y="373.6" text-anchor="middle" fill="rgba(255,255,255,0.6)" font-size="9">30°</text>
<text x="550.3" y="317.3" text-anchor="middle" fill="rgba(255,255,255,0.4)" font-size="9">45°</text>
<text x="49.7" y="317.3" text-anchor="middle" fill="rgba(255,255,255,0.4)" font-size="9">45°</text>
<text x="606.6" y="244.0" text-anchor="middle" fill="rgba(255,255,255,0.6)" font-size="9">60°</text>
<text x="-6.6" y="244.0" text-anchor="middle" fill="rgba(255,255,255,0.6)" font-size="9">60°</text>
<text x="641.9" y="158.6" text-anchor="middle" fill="rgba(255,255,255,0.4)" font-size="9">75°</text>
<text x="-41.9" y="158.6" text-anchor="middle" fill="rgba(255,255,255,0.4)" font-size="9">75°</text>
<text x="654.0" y="67.0" text-anchor="middle" fill="rgba(255,255,255,0.6)" font-size="9">90°</text>
<text x="-54.0" y="67.0" text-anchor="middle" fill="rgba(255,255,255,0.6)" font-size="9">90°</text>
<text x="300" y="426" text-anchor="middle" fill="rgba(255,255,255,0.6)" font-size="9">0°</text>
<path d="M 300.0 175.6 L 301.9 175.2 L 303.9 175.0 L 305.8 174.7 L 307.7 174.3 L 309.6 173.8 L 311.5 173.5 L 313.4 173.0 L 315.2 172.3 L 317.0 171.3 L 318.8 170.5 L 320.5 169.7 L 322.3 168.9 L 324.0 167.8 L 325.6 166.8 L 327.3 165.7 L 328.8 164.5 L 330.3 163.2 L 331.8 162.0 L 333.2 160.5 L 334.6 159.2 L 336.0 157.7 L 337.2 156.1 L 338.4 154.5 L 339.6 152.9 L 340.7 151.3 L 341.8 149.7 L 342.8 148.0 L 343.8 146.3 L 344.6 144.5 L 345.5 142.7 L 346.2 140.9 L 346.8 138.9 L 347.4 137.0 L 348.1 135.3 L 348.6 133.5 L 349.1 131.6 L 349.5 129.7 L 349.7 127.6 L 350.0 125.7 L 350.1 123.7 L 350.2 121.8 L 350.3 119.8 L 350.2 117.8 L 349.9 115.7 L 349.7 113.7 L 349.4 111.7 L 349.0 109.7 L 348.6 107.8 L 348.1 105.8 L 347.6 103.9 L 346.7 101.8 L 346.0 100.0 L 345.2 98.1 L 344.4 96.3 L 343.6 94.6 L 342.6 92.7 L 341.7 91.1 L 340.5 89.3 L 339.4 87.7 L 338.3 86.1 L 337.2 84.6 L 335.9 83.1 L 334.5 81.6 L 333.2 80.2 L 331.8 78.8 L 330.4 77.5 L 328.9 76.3 L 327.4 75.1 L 326.0 74.0 L 324.3 72.8 L 322.8 71.8 L 321.2 70.9 L 319.6 70.0 L 318.1 69.2 L 316.4 68.4 L 314.9 67.7 L 313.3 67.1 L 311.8 66.5 L 310.2 66.0 L 308.8 65.5 L 307.4 65.2 L 305.9 64.8 L 304.7 64.6 L 303.6 64.4 L 302.5 64.2 L 301.5 64.1 L 300.8 64.0 L 300.3 64.0 L 300.0 64.0 L 300.0 64.0 L 299.6 64.0 L 298.9 64.0 L 298.0 64.1 L 297.0 64.2 L 295.6 64.3 L 294.3 64.5 L 292.8 64.8 L 291.3 65.1 L 289.6 65.5 L 287.8 65.9 L 286.0 66.5 L 284.3 67.1 L 282.5 67.7 L 280.6 68.5 L 278.8 69.3 L 277.1 70.1 L 275.1 71.1 L 273.4 72.1 L 271.6 73.2 L 270.0 74.3 L 268.3 75.5 L 266.6 76.8 L 265.0 78.1 L 263.5 79.5 L 262.0 80.9 L 260.4 82.5 L 259.1 84.0 L 257.8 85.5 L 256.3 87.2 L 255.1 88.9 L 253.9 90.6 L 252.9 92.3 L 251.7 94.2 L 250.8 95.9 L 249.9 97.8 L 249.1 99.7 L 248.3 101.6 L 247.6 103.5 L 246.8 105.6 L 246.2 107.6 L 245.7 109.6 L 245.2 111.6 L 244.9 113.6 L 244.6 115.6 L 244.4 117.7 L 244.2 119.8 L 244.0 121.9 L 244.0 124.0 L 244.1 126.0 L 244.1 128.3 L 244.5 130.2 L 244.9 132.1 L 245.2 134.2 L 245.7 136.0 L 246.3 137.8 L 247.0 139.7 L 247.8 141.5 L 248.4 143.4 L 249.3 145.2 L 250.2 146.9 L 251.2 148.5 L 252.3 150.1 L 253.4 151.7 L 254.5 153.3 L 255.7 154.8 L 256.9 156.4 L 258.3 157.7 L 259.6 159.2 L 261.0 160.6 L 262.4 162.0 L 263.9 163.1 L 265.5 164.3 L 267.0 165.5 L 268.6 166.8 L 270.2 167.8 L 271.9 168.8 L 273.6 169.7 L 275.4 170.6 L 277.2 171.2 L 279.0 171.9 L 280.9 172.6 L 282.7 173.2 L 284.6 173.9 L 286.5 174.3 L 288.4 174.7 L 290.3 175.0 L 292.2 175.3 L 294.2 175.4 L 296.1 175.5 L 298.1 175.5 L 300.0 175.6 Z" fill="none" stroke="#3FA9F5" stroke-width="1.7" stroke-linejoin="round" stroke-linecap="round"/>
<path d="M 300.0 175.6 L 302.0 178.7 L 304.1 181.4 L 306.3 184.2 L 308.6 187.0 L 311.0 189.6 L 313.5 192.5 L 316.2 195.6 L 319.0 199.1 L 321.9 202.2 L 324.9 205.0 L 328.1 208.5 L 331.4 211.7 L 334.8 214.8 L 338.4 217.9 L 342.0 220.7 L 345.7 223.5 L 349.6 226.1 L 353.6 228.9 L 357.5 231.1 L 361.9 234.1 L 366.1 236.3 L 370.4 238.2 L 374.7 240.0 L 379.1 241.7 L 383.6 243.4 L 388.2 244.8 L 392.9 246.3 L 397.5 247.4 L 402.5 248.9 L 407.1 249.5 L 411.8 250.0 L 416.6 250.5 L 421.1 250.5 L 425.5 250.1 L 430.1 249.8 L 434.5 249.1 L 438.9 248.3 L 443.2 247.3 L 447.3 245.9 L 451.1 244.0 L 454.4 241.6 L 457.9 239.4 L 460.5 236.1 L 462.7 232.5 L 464.0 228.0 L 464.9 223.3 L 465.5 218.3 L 465.3 212.9 L 465.1 207.6 L 464.2 201.8 L 462.9 195.9 L 461.6 190.3 L 459.5 184.2 L 457.7 178.6 L 455.8 173.1 L 453.6 167.6 L 450.8 161.9 L 448.2 156.6 L 445.8 151.6 L 443.0 146.5 L 440.2 141.7 L 437.2 137.0 L 434.1 132.3 L 430.1 127.5 L 426.5 123.0 L 423.1 118.8 L 419.5 114.7 L 415.7 110.8 L 411.9 107.0 L 408.1 103.3 L 403.8 99.7 L 399.6 96.4 L 395.5 93.2 L 391.6 90.3 L 387.7 87.5 L 383.5 84.8 L 379.8 82.4 L 376.3 80.2 L 372.8 78.2 L 369.2 76.2 L 365.8 74.4 L 362.5 72.8 L 359.4 71.3 L 356.1 69.9 L 353.2 68.7 L 350.5 67.5 L 347.6 66.5 L 345.1 65.6 L 342.6 64.7 L 340.2 64.0 L 299.8 64.0 L 299.8 64.0 L 299.8 64.0 L 299.8 64.0 L 299.8 64.0 L 299.8 64.0 L 299.9 64.0 L 299.9 64.0 L 300.0 64.0 L 300.0 64.0 L 300.0 64.0 L 300.0 64.0 L 300.0 64.0 L 300.0 64.0 L 300.0 64.0 L 300.0 64.0 L 300.0 64.0 L 300.0 64.0 L 300.0 64.0 L 300.0 64.0 L 300.0 64.0 L 300.0 64.0 L 300.0 64.0 L 300.0 64.0 L 300.0 64.0 L 300.0 64.0 L 300.0 64.0 L 300.0 64.0 L 300.0 64.0 L 299.6 64.2 L 299.2 64.5 L 298.7 64.8 L 298.1 65.2 L 297.5 65.6 L 296.7 66.2 L 295.9 66.9 L 295.0 67.6 L 294.2 68.4 L 293.3 69.2 L 292.5 70.1 L 291.7 71.0 L 290.8 72.0 L 290.0 73.0 L 289.2 74.1 L 288.4 75.2 L 287.6 76.4 L 286.8 77.7 L 286.2 78.8 L 285.4 80.2 L 284.8 81.5 L 284.1 83.0 L 283.5 84.4 L 282.9 85.9 L 282.4 87.4 L 281.8 89.1 L 281.2 90.8 L 280.8 92.5 L 280.3 94.4 L 279.9 96.2 L 279.4 98.3 L 279.0 100.3 L 278.7 102.4 L 278.5 104.5 L 278.1 106.9 L 278.0 109.2 L 277.8 111.6 L 277.7 114.0 L 277.7 116.5 L 277.7 119.2 L 277.8 121.9 L 278.0 124.6 L 278.2 127.3 L 278.6 129.9 L 278.9 132.9 L 279.5 135.5 L 280.2 138.1 L 280.9 140.6 L 281.7 143.4 L 282.6 146.0 L 283.6 148.6 L 284.6 151.1 L 285.8 153.6 L 287.0 156.2 L 288.3 158.9 L 289.8 161.2 L 291.3 163.5 L 292.9 165.9 L 294.5 168.6 L 296.3 171.0 L 298.1 173.5 L 300.0 175.6 Z" fill="none" stroke="#F32740" stroke-width="2.0" stroke-linejoin="round" stroke-linecap="round"/>
<text x="338" y="132" fill="#F32740" font-size="9.5" font-weight="700">150</text>
<text x="335" y="200" fill="#F32740" font-size="9.5" font-weight="700">300</text>
<text x="335" y="268" fill="#F32740" font-size="9.5" font-weight="700">450</text>
<text x="335" y="336" fill="#F32740" font-size="9.5" font-weight="700">600</text>
<rect x="274.0" y="58" width="52" height="11" rx="1.5" fill="#fafbfc" stroke="rgba(255,255,255,0.4)" stroke-width="0.5"/>
<line x1="272.0" y1="69.8" x2="328.0" y2="69.8" stroke="#F32740" stroke-width="0.7" stroke-dasharray="1.5 2"/>
<text x="300" y="66" text-anchor="middle" fill="#F32740" font-size="8" font-weight="700" letter-spacing="0.5">cd/klm SCALE</text>
<g transform="translate(22, 434)">
<text x="0" y="-8" fill="rgba(255,255,255,0.55)" font-size="8" letter-spacing="1.4">cd/klm</text>
<line x1="0" y1="6" x2="22" y2="6" stroke="#F32740" stroke-width="2.2"/>
<text x="28" y="9" fill="rgba(255,255,255,0.7)" font-size="9.5">C0 – C180</text>
<line x1="120" y1="6" x2="142" y2="6" stroke="#3FA9F5" stroke-width="1.7"/>
<text x="148" y="9" fill="rgba(255,255,255,0.7)" font-size="9.5">C90 – C270</text>
</g>
<text x="578" y="402" fill="rgba(255,255,255,0.45)" font-size="9" text-anchor="end">η = 150 lm/W</text>
<text x="578" y="418" fill="rgba(255,255,255,0.45)" font-size="9" text-anchor="end">3,581 lm · 23.9W</text>
<text x="578" y="434" fill="rgba(255,255,255,0.55)" font-size="8" letter-spacing="1.4" text-anchor="end">PEAK INTENSITY</text>
<text x="578" y="451" fill="#fff" font-weight="700" font-size="14" text-anchor="end">1,864 cd</text>
</svg>