<svg viewBox="0 0 600 460" xmlns="http://www.w3.org/2000/svg" font-family="JetBrains Mono, monospace" font-size="9.5">
<rect width="100%" height="100%" fill="#14171b"/>
<text x="22" y="26" fill="#F32740" font-weight="700" letter-spacing="2">LWPC30-S3N2-UD-BA-PSB_BA0_LV1-30W_5000K · 0W · — · FULL CUTOFF</text>
<text x="22" y="42" fill="rgba(255,255,255,0.55)" font-size="8" letter-spacing="1.4">LUMINOUS INTENSITY DISTRIBUTION (cd/klm)</text>
<path d="M 232.0 64.0 A 68.0 68.0 0 0 0 368.0 64.0" fill="none" stroke="rgba(120,200,200,0.18)" stroke-width="0.7"/>
<path d="M 164.0 64.0 A 136.0 136.0 0 0 0 436.0 64.0" fill="none" stroke="rgba(120,200,200,0.18)" stroke-width="0.7"/>
<path d="M 96.0 64.0 A 204.0 204.0 0 0 0 504.0 64.0" fill="none" stroke="rgba(120,200,200,0.18)" stroke-width="0.7"/>
<path d="M 28.0 64.0 A 272.0 272.0 0 0 0 572.0 64.0" fill="none" stroke="rgba(120,200,200,0.18)" stroke-width="0.7"/>
<path d="M -40.0 64.0 A 340.0 340.0 0 0 0 640.0 64.0" fill="none" stroke="rgba(120,200,200,0.18)" stroke-width="0.7"/>
<line x1="300.0" y1="64" x2="388.0" y2="392.4" stroke="rgba(120,200,200,0.10)" stroke-width="0.5"/>
<line x1="300.0" y1="64" x2="212.0" y2="392.4" stroke="rgba(120,200,200,0.10)" stroke-width="0.5"/>
<line x1="300.0" y1="64" x2="470.0" y2="358.4" stroke="rgba(120,200,200,0.10)" stroke-width="0.5"/>
<line x1="300.0" y1="64" x2="130.0" y2="358.4" stroke="rgba(120,200,200,0.10)" stroke-width="0.5"/>
<line x1="300.0" y1="64" x2="540.4" y2="304.4" stroke="rgba(120,200,200,0.10)" stroke-width="0.5"/>
<line x1="300.0" y1="64" x2="59.6" y2="304.4" stroke="rgba(120,200,200,0.10)" stroke-width="0.5"/>
<line x1="300.0" y1="64" x2="594.4" y2="234.0" stroke="rgba(120,200,200,0.10)" stroke-width="0.5"/>
<line x1="300.0" y1="64" x2="5.6" y2="234.0" stroke="rgba(120,200,200,0.10)" stroke-width="0.5"/>
<line x1="300.0" y1="64" x2="628.4" y2="152.0" stroke="rgba(120,200,200,0.10)" stroke-width="0.5"/>
<line x1="300.0" y1="64" x2="-28.4" y2="152.0" stroke="rgba(120,200,200,0.10)" stroke-width="0.5"/>
<line x1="300.0" y1="64" x2="640.0" y2="64.0" stroke="rgba(120,200,200,0.10)" stroke-width="0.5"/>
<line x1="300.0" y1="64" x2="-40.0" y2="64.0" stroke="rgba(120,200,200,0.10)" stroke-width="0.5"/>
<line x1="300.0" y1="64" x2="300.0" y2="408" stroke="rgba(120,200,200,0.14)" stroke-width="0.5"/>
<line x1="-40.0" y1="64" x2="640.0" y2="64" stroke="rgba(120,200,200,0.14)" stroke-width="0.5"/>
<text x="391.6" y="408.9" text-anchor="middle" fill="rgba(255,255,255,0.4)" font-size="9">15°</text>
<text x="208.4" y="408.9" text-anchor="middle" fill="rgba(255,255,255,0.4)" font-size="9">15°</text>
<text x="477.0" y="373.6" text-anchor="middle" fill="rgba(255,255,255,0.6)" font-size="9">30°</text>
<text x="123.0" y="373.6" text-anchor="middle" fill="rgba(255,255,255,0.6)" font-size="9">30°</text>
<text x="550.3" y="317.3" text-anchor="middle" fill="rgba(255,255,255,0.4)" font-size="9">45°</text>
<text x="49.7" y="317.3" text-anchor="middle" fill="rgba(255,255,255,0.4)" font-size="9">45°</text>
<text x="606.6" y="244.0" text-anchor="middle" fill="rgba(255,255,255,0.6)" font-size="9">60°</text>
<text x="-6.6" y="244.0" text-anchor="middle" fill="rgba(255,255,255,0.6)" font-size="9">60°</text>
<text x="641.9" y="158.6" text-anchor="middle" fill="rgba(255,255,255,0.4)" font-size="9">75°</text>
<text x="-41.9" y="158.6" text-anchor="middle" fill="rgba(255,255,255,0.4)" font-size="9">75°</text>
<text x="654.0" y="67.0" text-anchor="middle" fill="rgba(255,255,255,0.6)" font-size="9">90°</text>
<text x="-54.0" y="67.0" text-anchor="middle" fill="rgba(255,255,255,0.6)" font-size="9">90°</text>
<text x="300" y="426" text-anchor="middle" fill="rgba(255,255,255,0.6)" font-size="9">0°</text>
<path d="M 300.0 274.4 L 303.7 274.6 L 307.4 274.5 L 311.0 274.1 L 314.7 273.7 L 318.3 273.1 L 321.9 272.3 L 325.5 271.5 L 329.0 270.3 L 332.5 269.0 L 335.9 267.8 L 339.3 266.4 L 342.6 264.4 L 345.9 262.6 L 349.0 260.6 L 352.2 258.8 L 355.2 256.6 L 358.1 254.2 L 361.0 251.9 L 363.6 248.8 L 366.3 246.1 L 368.8 243.3 L 371.2 240.3 L 373.6 237.3 L 375.8 234.3 L 377.9 231.1 L 379.8 227.7 L 381.7 224.4 L 383.2 220.4 L 384.9 217.1 L 386.2 213.3 L 387.5 209.7 L 388.6 205.8 L 389.4 201.7 L 390.3 197.9 L 391.0 193.9 L 391.5 190.0 L 391.9 186.0 L 392.3 182.1 L 392.3 177.9 L 392.3 174.0 L 392.1 170.0 L 391.7 165.8 L 391.2 161.8 L 390.4 157.6 L 389.8 153.8 L 388.9 149.9 L 387.7 145.8 L 386.6 142.0 L 385.3 138.1 L 383.7 134.2 L 382.2 130.6 L 380.6 126.9 L 378.9 123.5 L 377.1 120.0 L 374.8 116.4 L 372.8 113.1 L 370.8 110.0 L 368.7 106.9 L 366.2 103.8 L 364.0 101.0 L 361.7 98.2 L 359.3 95.5 L 356.6 92.8 L 354.2 90.4 L 351.7 88.1 L 349.0 85.8 L 346.6 83.8 L 344.1 81.8 L 341.6 80.0 L 339.1 78.2 L 336.3 76.5 L 333.8 75.0 L 331.4 73.6 L 328.9 72.3 L 326.2 71.0 L 323.8 69.9 L 321.4 69.0 L 319.1 68.1 L 316.7 67.2 L 314.5 66.6 L 312.4 66.0 L 310.2 65.4 L 308.3 65.0 L 306.6 64.7 L 305.0 64.4 L 303.5 64.2 L 302.2 64.1 L 301.2 64.0 L 300.0 64.0 L 300.0 64.0 L 300.0 64.0 L 300.0 64.0 L 298.7 64.0 L 297.6 64.1 L 296.4 64.3 L 294.8 64.5 L 293.2 64.7 L 291.5 65.0 L 289.6 65.5 L 287.5 66.0 L 285.4 66.6 L 283.3 67.2 L 281.1 68.0 L 278.8 68.9 L 276.5 69.9 L 274.2 70.9 L 271.9 72.1 L 269.5 73.3 L 266.9 74.7 L 264.5 76.2 L 262.2 77.8 L 259.6 79.5 L 257.3 81.3 L 254.9 83.1 L 252.6 85.1 L 250.1 87.3 L 247.8 89.5 L 245.5 91.8 L 242.8 94.4 L 240.6 96.9 L 238.5 99.5 L 236.4 102.2 L 234.3 105.1 L 232.2 108.0 L 230.3 111.0 L 228.4 114.1 L 226.4 117.5 L 224.5 120.9 L 223.0 124.2 L 221.5 127.5 L 219.7 131.4 L 218.4 135.0 L 217.1 138.6 L 216.1 142.3 L 215.1 146.0 L 214.2 149.8 L 213.4 153.7 L 212.4 157.9 L 212.0 161.8 L 211.6 165.7 L 211.6 169.4 L 211.3 173.5 L 211.4 177.4 L 211.6 181.3 L 212.0 185.1 L 212.4 189.2 L 213.0 193.0 L 213.6 197.0 L 214.6 200.7 L 215.6 204.5 L 216.6 208.5 L 217.9 212.1 L 219.3 215.8 L 220.9 219.2 L 222.6 222.7 L 224.5 226.0 L 226.4 229.3 L 228.5 232.6 L 230.6 235.9 L 232.7 239.3 L 235.2 242.1 L 237.7 245.0 L 240.4 247.6 L 243.0 250.3 L 245.8 252.9 L 248.8 255.2 L 251.7 257.5 L 254.8 259.7 L 258.0 261.5 L 261.2 263.7 L 264.5 265.3 L 267.9 266.8 L 271.3 268.1 L 274.8 269.4 L 278.3 270.6 L 281.8 271.5 L 285.4 272.3 L 289.1 272.9 L 292.7 273.5 L 296.3 273.8 L 300.0 274.4 Z" fill="none" stroke="#3FA9F5" stroke-width="1.7" stroke-linejoin="round" stroke-linecap="round"/>
<path d="M 300.0 274.4 L 303.7 277.8 L 307.6 280.2 L 311.4 282.2 L 315.4 284.2 L 319.4 286.2 L 323.5 288.0 L 327.7 289.6 L 331.9 290.9 L 336.1 291.7 L 340.2 292.2 L 344.4 292.5 L 348.5 292.1 L 352.4 291.0 L 356.2 289.2 L 359.6 286.3 L 362.8 282.9 L 365.9 279.7 L 368.5 274.7 L 371.0 270.1 L 373.1 264.9 L 375.1 259.6 L 376.7 253.7 L 378.2 248.3 L 379.5 242.5 L 380.6 236.8 L 381.4 231.0 L 382.2 225.3 L 382.3 218.9 L 382.7 213.2 L 383.3 208.2 L 382.9 201.9 L 382.7 196.4 L 382.4 190.9 L 381.7 185.2 L 380.7 179.2 L 380.0 174.2 L 378.6 168.3 L 377.4 163.1 L 376.3 158.2 L 374.9 153.2 L 372.8 147.7 L 370.9 142.7 L 369.0 137.9 L 367.0 133.4 L 364.9 128.9 L 363.0 124.8 L 361.0 120.9 L 358.7 116.8 L 356.8 113.4 L 354.8 110.0 L 352.7 106.7 L 350.6 103.5 L 348.4 100.5 L 346.5 97.8 L 344.7 95.3 L 342.9 92.9 L 340.9 90.5 L 339.1 88.5 L 337.5 86.5 L 335.5 84.5 L 334.0 82.8 L 332.3 81.2 L 330.7 79.6 L 329.0 78.1 L 327.4 76.8 L 325.9 75.5 L 324.4 74.4 L 322.8 73.2 L 321.3 72.2 L 319.8 71.2 L 318.3 70.3 L 316.9 69.5 L 315.5 68.7 L 314.1 68.0 L 312.7 67.4 L 311.2 66.8 L 309.9 66.3 L 308.6 65.8 L 307.4 65.4 L 306.1 65.1 L 305.0 64.8 L 303.9 64.5 L 302.9 64.4 L 302.0 64.2 L 301.3 64.1 L 300.7 64.0 L 300.0 64.0 L 300.0 64.0 L 300.0 64.0 L 300.0 64.0 L 300.0 64.0 L 298.8 64.0 L 298.1 64.1 L 297.4 64.1 L 296.5 64.2 L 295.5 64.4 L 294.3 64.6 L 293.2 64.8 L 292.1 65.1 L 291.0 65.4 L 289.7 65.8 L 288.5 66.2 L 287.3 66.7 L 286.1 67.2 L 284.7 67.8 L 283.4 68.5 L 282.1 69.1 L 280.8 69.9 L 279.5 70.6 L 278.3 71.5 L 277.1 72.3 L 275.8 73.3 L 274.4 74.3 L 273.1 75.4 L 271.8 76.5 L 270.5 77.7 L 269.1 79.1 L 267.7 80.4 L 266.4 81.8 L 265.0 83.4 L 263.6 85.0 L 262.2 86.7 L 260.9 88.4 L 259.6 90.2 L 258.0 92.4 L 256.6 94.4 L 255.3 96.5 L 254.0 98.7 L 252.7 101.0 L 251.4 103.4 L 250.2 105.8 L 249.0 108.3 L 247.7 111.1 L 246.7 113.7 L 245.8 116.3 L 245.1 118.9 L 244.3 121.7 L 243.6 124.5 L 243.2 127.1 L 242.7 129.9 L 242.4 132.7 L 242.1 135.6 L 241.9 138.4 L 241.8 141.2 L 241.6 144.4 L 241.7 147.3 L 241.9 150.1 L 242.1 153.1 L 242.5 156.0 L 242.9 159.1 L 243.3 162.3 L 243.7 165.5 L 244.3 168.8 L 244.8 172.4 L 245.5 175.8 L 246.2 179.4 L 246.9 183.2 L 247.6 187.4 L 248.6 191.3 L 249.7 195.0 L 250.6 199.6 L 251.9 203.6 L 253.3 207.8 L 254.7 212.1 L 256.4 216.1 L 258.1 220.5 L 260.0 224.3 L 261.9 229.2 L 264.1 232.9 L 266.4 236.6 L 268.8 240.7 L 271.4 244.5 L 274.1 248.2 L 276.9 251.8 L 279.9 255.3 L 283.0 258.7 L 286.1 262.2 L 289.4 265.5 L 292.9 268.5 L 296.4 271.8 L 300.0 274.4 Z" fill="none" stroke="#F32740" stroke-width="2.0" stroke-linejoin="round" stroke-linecap="round"/>
<text x="338" y="132" fill="#F32740" font-size="9.5" font-weight="700">150</text>
<text x="335" y="200" fill="#F32740" font-size="9.5" font-weight="700">300</text>
<text x="335" y="268" fill="#F32740" font-size="9.5" font-weight="700">450</text>
<text x="335" y="336" fill="#F32740" font-size="9.5" font-weight="700">600</text>
<rect x="274.0" y="58" width="52" height="11" rx="1.5" fill="#fafbfc" stroke="rgba(255,255,255,0.4)" stroke-width="0.5"/>
<line x1="272.0" y1="69.8" x2="328.0" y2="69.8" stroke="#F32740" stroke-width="0.7" stroke-dasharray="1.5 2"/>
<text x="300" y="66" text-anchor="middle" fill="#F32740" font-size="8" font-weight="700" letter-spacing="0.5">cd/klm SCALE</text>
<g transform="translate(22, 434)">
<text x="0" y="-8" fill="rgba(255,255,255,0.55)" font-size="8" letter-spacing="1.4">cd/klm</text>
<line x1="0" y1="6" x2="22" y2="6" stroke="#F32740" stroke-width="2.2"/>
<text x="28" y="9" fill="rgba(255,255,255,0.7)" font-size="9.5">C0 – C180</text>
<line x1="120" y1="6" x2="142" y2="6" stroke="#3FA9F5" stroke-width="1.7"/>
<text x="148" y="9" fill="rgba(255,255,255,0.7)" font-size="9.5">C90 – C270</text>
</g>
<text x="578" y="402" fill="rgba(255,255,255,0.45)" font-size="9" text-anchor="end">η = 136 lm/W</text>
<text x="578" y="418" fill="rgba(255,255,255,0.45)" font-size="9" text-anchor="end">4,269 lm · 31.4W</text>
<text x="578" y="434" fill="rgba(255,255,255,0.55)" font-size="8" letter-spacing="1.4" text-anchor="end">PEAK INTENSITY</text>
<text x="578" y="451" fill="#fff" font-weight="700" font-size="14" text-anchor="end">2,196 cd</text>
</svg>