<svg viewBox="0 0 600 460" xmlns="http://www.w3.org/2000/svg" font-family="JetBrains Mono, monospace" font-size="9.5">
<rect width="100%" height="100%" fill="#14171b"/>
<text x="22" y="26" fill="#F32740" font-weight="700" letter-spacing="2">LWPC30-S3N2-UD-BA-PSB_BA45_LV2-24W_4000K · 0W · — · FULL CUTOFF</text>
<text x="22" y="42" fill="rgba(255,255,255,0.55)" font-size="8" letter-spacing="1.4">LUMINOUS INTENSITY DISTRIBUTION (cd/klm)</text>
<path d="M 232.0 64.0 A 68.0 68.0 0 0 0 368.0 64.0" fill="none" stroke="rgba(120,200,200,0.18)" stroke-width="0.7"/>
<path d="M 164.0 64.0 A 136.0 136.0 0 0 0 436.0 64.0" fill="none" stroke="rgba(120,200,200,0.18)" stroke-width="0.7"/>
<path d="M 96.0 64.0 A 204.0 204.0 0 0 0 504.0 64.0" fill="none" stroke="rgba(120,200,200,0.18)" stroke-width="0.7"/>
<path d="M 28.0 64.0 A 272.0 272.0 0 0 0 572.0 64.0" fill="none" stroke="rgba(120,200,200,0.18)" stroke-width="0.7"/>
<path d="M -40.0 64.0 A 340.0 340.0 0 0 0 640.0 64.0" fill="none" stroke="rgba(120,200,200,0.18)" stroke-width="0.7"/>
<line x1="300.0" y1="64" x2="388.0" y2="392.4" stroke="rgba(120,200,200,0.10)" stroke-width="0.5"/>
<line x1="300.0" y1="64" x2="212.0" y2="392.4" stroke="rgba(120,200,200,0.10)" stroke-width="0.5"/>
<line x1="300.0" y1="64" x2="470.0" y2="358.4" stroke="rgba(120,200,200,0.10)" stroke-width="0.5"/>
<line x1="300.0" y1="64" x2="130.0" y2="358.4" stroke="rgba(120,200,200,0.10)" stroke-width="0.5"/>
<line x1="300.0" y1="64" x2="540.4" y2="304.4" stroke="rgba(120,200,200,0.10)" stroke-width="0.5"/>
<line x1="300.0" y1="64" x2="59.6" y2="304.4" stroke="rgba(120,200,200,0.10)" stroke-width="0.5"/>
<line x1="300.0" y1="64" x2="594.4" y2="234.0" stroke="rgba(120,200,200,0.10)" stroke-width="0.5"/>
<line x1="300.0" y1="64" x2="5.6" y2="234.0" stroke="rgba(120,200,200,0.10)" stroke-width="0.5"/>
<line x1="300.0" y1="64" x2="628.4" y2="152.0" stroke="rgba(120,200,200,0.10)" stroke-width="0.5"/>
<line x1="300.0" y1="64" x2="-28.4" y2="152.0" stroke="rgba(120,200,200,0.10)" stroke-width="0.5"/>
<line x1="300.0" y1="64" x2="640.0" y2="64.0" stroke="rgba(120,200,200,0.10)" stroke-width="0.5"/>
<line x1="300.0" y1="64" x2="-40.0" y2="64.0" stroke="rgba(120,200,200,0.10)" stroke-width="0.5"/>
<line x1="300.0" y1="64" x2="300.0" y2="408" stroke="rgba(120,200,200,0.14)" stroke-width="0.5"/>
<line x1="-40.0" y1="64" x2="640.0" y2="64" stroke="rgba(120,200,200,0.14)" stroke-width="0.5"/>
<text x="391.6" y="408.9" text-anchor="middle" fill="rgba(255,255,255,0.4)" font-size="9">15°</text>
<text x="208.4" y="408.9" text-anchor="middle" fill="rgba(255,255,255,0.4)" font-size="9">15°</text>
<text x="477.0" y="373.6" text-anchor="middle" fill="rgba(255,255,255,0.6)" font-size="9">30°</text>
<text x="123.0" y="373.6" text-anchor="middle" fill="rgba(255,255,255,0.6)" font-size="9">30°</text>
<text x="550.3" y="317.3" text-anchor="middle" fill="rgba(255,255,255,0.4)" font-size="9">45°</text>
<text x="49.7" y="317.3" text-anchor="middle" fill="rgba(255,255,255,0.4)" font-size="9">45°</text>
<text x="606.6" y="244.0" text-anchor="middle" fill="rgba(255,255,255,0.6)" font-size="9">60°</text>
<text x="-6.6" y="244.0" text-anchor="middle" fill="rgba(255,255,255,0.6)" font-size="9">60°</text>
<text x="641.9" y="158.6" text-anchor="middle" fill="rgba(255,255,255,0.4)" font-size="9">75°</text>
<text x="-41.9" y="158.6" text-anchor="middle" fill="rgba(255,255,255,0.4)" font-size="9">75°</text>
<text x="654.0" y="67.0" text-anchor="middle" fill="rgba(255,255,255,0.6)" font-size="9">90°</text>
<text x="-54.0" y="67.0" text-anchor="middle" fill="rgba(255,255,255,0.6)" font-size="9">90°</text>
<text x="300" y="426" text-anchor="middle" fill="rgba(255,255,255,0.6)" font-size="9">0°</text>
<path d="M 300.0 139.4 L 301.3 139.2 L 302.6 139.0 L 303.9 138.8 L 305.2 138.6 L 306.5 138.3 L 307.7 137.6 L 309.0 137.2 L 310.2 136.7 L 311.5 136.3 L 312.6 135.7 L 313.8 135.1 L 315.0 134.4 L 316.1 133.7 L 317.2 132.9 L 318.3 132.1 L 319.3 131.3 L 320.3 130.4 L 321.2 129.4 L 322.2 128.3 L 323.1 127.6 L 324.0 126.4 L 324.8 125.5 L 325.6 124.4 L 326.4 123.2 L 327.0 121.9 L 327.7 120.8 L 328.3 119.6 L 328.9 118.4 L 329.5 117.2 L 330.0 115.9 L 330.4 114.6 L 330.8 113.3 L 331.2 112.1 L 331.6 110.8 L 331.9 109.5 L 332.1 108.2 L 332.3 106.9 L 332.4 105.5 L 332.5 104.2 L 332.6 102.9 L 332.7 101.6 L 332.7 100.4 L 332.8 99.1 L 332.7 97.9 L 332.6 96.6 L 332.5 95.4 L 332.3 94.2 L 332.1 92.9 L 331.9 91.8 L 331.6 90.5 L 331.3 89.3 L 330.9 88.1 L 330.5 86.9 L 329.9 85.7 L 329.4 84.6 L 328.8 83.4 L 328.2 82.3 L 327.3 81.1 L 326.6 80.0 L 325.9 78.9 L 325.1 77.9 L 324.3 76.9 L 323.4 75.9 L 322.5 75.0 L 321.6 74.1 L 320.5 73.1 L 319.5 72.3 L 318.5 71.5 L 317.4 70.7 L 316.4 70.0 L 315.3 69.3 L 314.3 68.6 L 313.1 68.0 L 312.0 67.4 L 310.9 66.9 L 309.8 66.4 L 308.7 66.0 L 307.4 65.6 L 306.4 65.2 L 305.4 65.0 L 304.5 64.7 L 303.4 64.5 L 302.6 64.3 L 301.8 64.2 L 301.2 64.1 L 300.6 64.0 L 300.2 64.0 L 300.0 64.0 L 300.0 64.0 L 300.0 64.0 L 299.3 64.0 L 298.8 64.0 L 298.1 64.1 L 297.3 64.1 L 296.2 64.3 L 295.2 64.4 L 294.1 64.6 L 292.9 64.9 L 291.6 65.2 L 290.4 65.5 L 289.1 65.9 L 287.9 66.4 L 286.5 66.9 L 285.2 67.4 L 284.0 68.0 L 282.7 68.6 L 281.4 69.3 L 280.2 70.1 L 279.0 70.8 L 277.9 71.6 L 276.7 72.5 L 275.6 73.4 L 274.6 74.3 L 273.6 75.2 L 272.5 76.3 L 271.5 77.3 L 270.7 78.3 L 269.9 79.3 L 269.0 80.5 L 268.3 81.6 L 267.6 82.7 L 266.7 84.0 L 266.1 85.2 L 265.5 86.4 L 265.0 87.6 L 264.5 88.9 L 264.0 90.2 L 263.6 91.5 L 263.3 92.7 L 263.0 94.0 L 262.7 95.3 L 262.5 96.6 L 262.4 97.9 L 262.3 99.2 L 262.2 100.5 L 262.2 101.8 L 262.3 103.0 L 262.5 104.3 L 262.6 105.5 L 262.9 106.6 L 263.2 107.9 L 263.5 109.1 L 263.8 110.3 L 264.0 111.7 L 264.5 112.9 L 264.8 114.2 L 265.3 115.5 L 265.7 116.7 L 266.3 118.0 L 266.9 119.1 L 267.5 120.3 L 268.1 121.6 L 268.8 122.6 L 269.6 123.8 L 270.2 125.0 L 271.0 126.1 L 271.9 127.0 L 272.8 128.2 L 273.7 129.1 L 274.6 130.0 L 275.7 130.8 L 276.7 131.7 L 277.8 132.4 L 278.8 133.2 L 280.0 133.9 L 281.0 134.8 L 282.2 135.5 L 283.4 136.0 L 284.6 136.6 L 285.8 137.1 L 287.0 137.5 L 288.3 137.9 L 289.6 138.2 L 290.8 138.6 L 292.1 138.8 L 293.4 139.0 L 294.7 139.1 L 296.1 139.2 L 297.4 139.2 L 298.7 139.4 L 300.0 139.4 Z" fill="none" stroke="#3FA9F5" stroke-width="1.7" stroke-linejoin="round" stroke-linecap="round"/>
<path d="M 300.0 139.4 L 301.4 142.1 L 302.8 144.4 L 304.3 146.8 L 306.0 149.1 L 307.6 151.4 L 309.4 153.7 L 311.3 155.7 L 313.2 157.8 L 315.2 160.0 L 317.2 161.8 L 319.4 163.7 L 321.6 165.8 L 323.9 167.6 L 326.3 169.5 L 328.8 171.5 L 331.4 173.4 L 334.1 175.4 L 336.8 177.3 L 339.8 179.6 L 342.8 181.6 L 346.1 184.0 L 349.4 186.2 L 352.8 188.4 L 356.3 190.6 L 360.0 192.6 L 363.8 194.9 L 367.8 197.1 L 371.8 199.0 L 376.1 201.3 L 380.4 203.3 L 384.7 204.9 L 389.0 206.4 L 393.4 207.8 L 397.9 209.1 L 402.4 210.3 L 407.0 211.3 L 411.7 212.2 L 416.5 213.1 L 421.1 213.6 L 425.7 213.8 L 430.5 214.2 L 435.6 214.6 L 440.4 214.6 L 445.3 214.5 L 449.9 213.9 L 454.3 213.0 L 458.9 212.2 L 463.3 211.0 L 468.2 210.2 L 472.6 208.8 L 476.7 207.1 L 480.8 205.3 L 485.0 203.4 L 488.5 200.9 L 492.1 198.5 L 495.0 195.5 L 497.6 192.3 L 499.7 188.8 L 501.2 184.9 L 502.2 180.7 L 502.4 176.2 L 501.9 171.3 L 501.0 166.4 L 499.4 161.2 L 497.2 156.0 L 494.0 150.4 L 491.5 145.3 L 488.3 140.1 L 485.3 135.1 L 482.1 130.3 L 478.5 125.5 L 474.9 120.8 L 470.5 116.1 L 466.8 111.8 L 462.9 107.6 L 459.0 103.6 L 454.8 99.7 L 450.2 95.9 L 445.6 92.3 L 441.2 88.9 L 436.4 85.6 L 431.8 82.5 L 427.3 79.6 L 422.6 76.9 L 417.9 74.3 L 412.6 71.9 L 407.7 69.6 L 402.8 67.6 L 398.0 65.7 L 393.2 64.0 L 299.4 64.0 L 299.4 64.0 L 299.5 64.0 L 299.5 64.0 L 299.5 64.0 L 299.5 64.0 L 299.5 64.0 L 299.6 64.1 L 299.6 64.1 L 299.6 64.1 L 299.6 64.1 L 299.7 64.1 L 299.7 64.1 L 299.7 64.1 L 299.7 64.1 L 299.7 64.1 L 299.8 64.1 L 299.8 64.1 L 299.8 64.1 L 299.8 64.1 L 299.8 64.1 L 299.9 64.1 L 299.9 64.1 L 299.9 64.1 L 299.9 64.1 L 299.9 64.0 L 300.0 64.0 L 300.0 64.0 L 300.0 64.0 L 300.0 64.0 L 300.0 64.0 L 300.0 64.0 L 300.0 64.0 L 300.0 64.0 L 300.0 64.0 L 300.0 64.0 L 300.0 64.0 L 300.0 64.0 L 300.0 64.0 L 300.0 64.0 L 300.0 64.0 L 300.0 64.0 L 300.0 64.0 L 300.0 64.0 L 299.8 64.2 L 299.5 64.5 L 299.2 64.9 L 298.8 65.3 L 298.3 65.9 L 297.8 66.6 L 297.2 67.4 L 296.5 68.3 L 295.9 69.3 L 295.3 70.2 L 294.8 71.2 L 294.2 72.3 L 293.6 73.4 L 293.1 74.6 L 292.6 75.8 L 292.1 77.1 L 291.7 78.4 L 291.2 79.9 L 290.8 81.2 L 290.5 82.6 L 290.2 84.1 L 289.9 85.6 L 289.7 87.1 L 289.5 88.7 L 289.4 90.3 L 289.2 92.0 L 289.2 93.8 L 289.1 95.6 L 289.1 97.4 L 289.2 99.4 L 289.3 101.4 L 289.4 103.6 L 289.6 105.6 L 289.9 107.7 L 290.2 109.9 L 290.6 112.3 L 291.1 114.6 L 291.6 117.0 L 292.2 119.3 L 292.9 121.8 L 293.7 124.4 L 294.5 126.9 L 295.4 129.8 L 296.4 132.3 L 297.5 134.8 L 298.7 137.3 L 300.0 139.4 Z" fill="none" stroke="#F32740" stroke-width="2.0" stroke-linejoin="round" stroke-linecap="round"/>
<text x="338" y="132" fill="#F32740" font-size="9.5" font-weight="700">150</text>
<text x="335" y="200" fill="#F32740" font-size="9.5" font-weight="700">300</text>
<text x="335" y="268" fill="#F32740" font-size="9.5" font-weight="700">450</text>
<text x="335" y="336" fill="#F32740" font-size="9.5" font-weight="700">600</text>
<rect x="274.0" y="58" width="52" height="11" rx="1.5" fill="#fafbfc" stroke="rgba(255,255,255,0.4)" stroke-width="0.5"/>
<line x1="272.0" y1="69.8" x2="328.0" y2="69.8" stroke="#F32740" stroke-width="0.7" stroke-dasharray="1.5 2"/>
<text x="300" y="66" text-anchor="middle" fill="#F32740" font-size="8" font-weight="700" letter-spacing="0.5">cd/klm SCALE</text>
<g transform="translate(22, 434)">
<text x="0" y="-8" fill="rgba(255,255,255,0.55)" font-size="8" letter-spacing="1.4">cd/klm</text>
<line x1="0" y1="6" x2="22" y2="6" stroke="#F32740" stroke-width="2.2"/>
<text x="28" y="9" fill="rgba(255,255,255,0.7)" font-size="9.5">C0 – C180</text>
<line x1="120" y1="6" x2="142" y2="6" stroke="#3FA9F5" stroke-width="1.7"/>
<text x="148" y="9" fill="rgba(255,255,255,0.7)" font-size="9.5">C90 – C270</text>
</g>
<text x="578" y="402" fill="rgba(255,255,255,0.45)" font-size="9" text-anchor="end">η = 149 lm/W</text>
<text x="578" y="418" fill="rgba(255,255,255,0.45)" font-size="9" text-anchor="end">3,570 lm · 23.9W</text>
<text x="578" y="434" fill="rgba(255,255,255,0.55)" font-size="8" letter-spacing="1.4" text-anchor="end">PEAK INTENSITY</text>
<text x="578" y="451" fill="#fff" font-weight="700" font-size="14" text-anchor="end">1,856 cd</text>
</svg>