<svg viewBox="0 0 600 460" xmlns="http://www.w3.org/2000/svg" font-family="JetBrains Mono, monospace" font-size="9.5">
<rect width="100%" height="100%" fill="#14171b"/>
<text x="22" y="26" fill="#F32740" font-weight="700" letter-spacing="2">LWPC30-S3N2-UD-BA-PSB_BA45_LV2-24W_5000K · 0W · — · FULL CUTOFF</text>
<text x="22" y="42" fill="rgba(255,255,255,0.55)" font-size="8" letter-spacing="1.4">LUMINOUS INTENSITY DISTRIBUTION (cd/klm)</text>
<path d="M 232.0 64.0 A 68.0 68.0 0 0 0 368.0 64.0" fill="none" stroke="rgba(120,200,200,0.18)" stroke-width="0.7"/>
<path d="M 164.0 64.0 A 136.0 136.0 0 0 0 436.0 64.0" fill="none" stroke="rgba(120,200,200,0.18)" stroke-width="0.7"/>
<path d="M 96.0 64.0 A 204.0 204.0 0 0 0 504.0 64.0" fill="none" stroke="rgba(120,200,200,0.18)" stroke-width="0.7"/>
<path d="M 28.0 64.0 A 272.0 272.0 0 0 0 572.0 64.0" fill="none" stroke="rgba(120,200,200,0.18)" stroke-width="0.7"/>
<path d="M -40.0 64.0 A 340.0 340.0 0 0 0 640.0 64.0" fill="none" stroke="rgba(120,200,200,0.18)" stroke-width="0.7"/>
<line x1="300.0" y1="64" x2="388.0" y2="392.4" stroke="rgba(120,200,200,0.10)" stroke-width="0.5"/>
<line x1="300.0" y1="64" x2="212.0" y2="392.4" stroke="rgba(120,200,200,0.10)" stroke-width="0.5"/>
<line x1="300.0" y1="64" x2="470.0" y2="358.4" stroke="rgba(120,200,200,0.10)" stroke-width="0.5"/>
<line x1="300.0" y1="64" x2="130.0" y2="358.4" stroke="rgba(120,200,200,0.10)" stroke-width="0.5"/>
<line x1="300.0" y1="64" x2="540.4" y2="304.4" stroke="rgba(120,200,200,0.10)" stroke-width="0.5"/>
<line x1="300.0" y1="64" x2="59.6" y2="304.4" stroke="rgba(120,200,200,0.10)" stroke-width="0.5"/>
<line x1="300.0" y1="64" x2="594.4" y2="234.0" stroke="rgba(120,200,200,0.10)" stroke-width="0.5"/>
<line x1="300.0" y1="64" x2="5.6" y2="234.0" stroke="rgba(120,200,200,0.10)" stroke-width="0.5"/>
<line x1="300.0" y1="64" x2="628.4" y2="152.0" stroke="rgba(120,200,200,0.10)" stroke-width="0.5"/>
<line x1="300.0" y1="64" x2="-28.4" y2="152.0" stroke="rgba(120,200,200,0.10)" stroke-width="0.5"/>
<line x1="300.0" y1="64" x2="640.0" y2="64.0" stroke="rgba(120,200,200,0.10)" stroke-width="0.5"/>
<line x1="300.0" y1="64" x2="-40.0" y2="64.0" stroke="rgba(120,200,200,0.10)" stroke-width="0.5"/>
<line x1="300.0" y1="64" x2="300.0" y2="408" stroke="rgba(120,200,200,0.14)" stroke-width="0.5"/>
<line x1="-40.0" y1="64" x2="640.0" y2="64" stroke="rgba(120,200,200,0.14)" stroke-width="0.5"/>
<text x="391.6" y="408.9" text-anchor="middle" fill="rgba(255,255,255,0.4)" font-size="9">15°</text>
<text x="208.4" y="408.9" text-anchor="middle" fill="rgba(255,255,255,0.4)" font-size="9">15°</text>
<text x="477.0" y="373.6" text-anchor="middle" fill="rgba(255,255,255,0.6)" font-size="9">30°</text>
<text x="123.0" y="373.6" text-anchor="middle" fill="rgba(255,255,255,0.6)" font-size="9">30°</text>
<text x="550.3" y="317.3" text-anchor="middle" fill="rgba(255,255,255,0.4)" font-size="9">45°</text>
<text x="49.7" y="317.3" text-anchor="middle" fill="rgba(255,255,255,0.4)" font-size="9">45°</text>
<text x="606.6" y="244.0" text-anchor="middle" fill="rgba(255,255,255,0.6)" font-size="9">60°</text>
<text x="-6.6" y="244.0" text-anchor="middle" fill="rgba(255,255,255,0.6)" font-size="9">60°</text>
<text x="641.9" y="158.6" text-anchor="middle" fill="rgba(255,255,255,0.4)" font-size="9">75°</text>
<text x="-41.9" y="158.6" text-anchor="middle" fill="rgba(255,255,255,0.4)" font-size="9">75°</text>
<text x="654.0" y="67.0" text-anchor="middle" fill="rgba(255,255,255,0.6)" font-size="9">90°</text>
<text x="-54.0" y="67.0" text-anchor="middle" fill="rgba(255,255,255,0.6)" font-size="9">90°</text>
<text x="300" y="426" text-anchor="middle" fill="rgba(255,255,255,0.6)" font-size="9">0°</text>
<path d="M 300.0 140.8 L 301.3 140.8 L 302.7 140.8 L 304.0 140.8 L 305.4 140.6 L 306.7 140.5 L 308.0 140.2 L 309.3 139.9 L 310.6 139.6 L 311.9 139.3 L 313.2 138.9 L 314.4 138.3 L 315.7 137.8 L 316.9 137.3 L 318.1 136.8 L 319.3 136.2 L 320.5 135.4 L 321.6 134.5 L 322.7 133.7 L 323.7 132.9 L 324.7 132.0 L 325.8 131.1 L 326.7 130.2 L 327.7 129.2 L 328.6 128.1 L 329.4 127.1 L 330.3 126.1 L 331.0 124.9 L 331.8 123.8 L 332.5 122.6 L 333.1 121.4 L 333.7 120.1 L 334.2 118.8 L 334.8 117.6 L 335.3 116.3 L 335.7 115.0 L 336.2 113.8 L 336.6 112.5 L 336.9 111.3 L 337.2 110.0 L 337.4 108.6 L 337.7 107.3 L 337.9 106.1 L 338.1 104.8 L 338.2 103.5 L 338.3 102.3 L 338.3 101.0 L 338.3 99.7 L 338.2 98.4 L 338.1 97.1 L 337.9 95.8 L 337.6 94.5 L 337.3 93.1 L 336.8 91.7 L 336.4 90.4 L 335.9 89.1 L 335.3 87.8 L 334.8 86.6 L 334.2 85.4 L 333.5 84.2 L 332.7 82.9 L 332.0 81.7 L 331.2 80.6 L 330.4 79.5 L 329.5 78.4 L 328.5 77.3 L 327.6 76.3 L 326.6 75.3 L 325.5 74.3 L 324.4 73.4 L 323.4 72.5 L 322.2 71.6 L 320.9 70.8 L 319.7 70.0 L 318.5 69.3 L 317.2 68.6 L 316.0 68.0 L 314.6 67.4 L 313.4 66.8 L 312.1 66.4 L 310.7 65.9 L 309.5 65.5 L 308.3 65.2 L 307.0 64.9 L 305.9 64.6 L 304.7 64.4 L 303.7 64.3 L 302.8 64.1 L 301.9 64.1 L 301.2 64.0 L 300.6 64.0 L 300.0 64.0 L 300.0 64.0 L 300.0 64.0 L 299.8 64.0 L 299.4 64.0 L 298.8 64.1 L 298.2 64.2 L 297.3 64.3 L 296.4 64.5 L 295.5 64.7 L 294.5 65.0 L 293.3 65.3 L 292.2 65.7 L 291.1 66.1 L 289.9 66.5 L 288.7 67.0 L 287.6 67.6 L 286.5 68.1 L 285.2 68.8 L 284.1 69.5 L 283.1 70.2 L 282.0 70.9 L 281.0 71.7 L 279.9 72.5 L 278.9 73.4 L 277.8 74.3 L 277.0 75.2 L 276.0 76.2 L 275.1 77.2 L 274.2 78.3 L 273.4 79.4 L 272.7 80.4 L 272.0 81.5 L 271.3 82.6 L 270.6 83.9 L 270.0 85.0 L 269.5 86.2 L 268.8 87.5 L 268.4 88.7 L 268.0 89.9 L 267.7 91.1 L 267.4 92.4 L 267.1 93.6 L 266.9 94.8 L 266.8 96.0 L 266.8 97.2 L 266.6 98.6 L 266.5 99.9 L 266.6 101.1 L 266.6 102.4 L 266.7 103.7 L 266.8 105.0 L 266.9 106.3 L 267.1 107.7 L 267.3 109.0 L 267.6 110.3 L 267.9 111.6 L 268.2 113.0 L 268.5 114.4 L 268.9 115.7 L 269.4 117.0 L 269.9 118.3 L 270.5 119.5 L 271.1 120.7 L 271.7 121.9 L 272.5 123.0 L 273.1 124.4 L 273.9 125.5 L 274.7 126.6 L 275.6 127.7 L 276.4 128.8 L 277.4 129.8 L 278.3 130.7 L 279.3 131.7 L 280.3 132.6 L 281.4 133.5 L 282.5 134.2 L 283.6 135.0 L 284.7 135.8 L 285.9 136.4 L 287.1 137.0 L 288.3 137.7 L 289.6 138.3 L 290.8 138.7 L 292.1 139.2 L 293.4 139.6 L 294.7 139.9 L 296.0 140.2 L 297.3 140.4 L 298.7 140.7 L 300.0 140.8 Z" fill="none" stroke="#3FA9F5" stroke-width="1.7" stroke-linejoin="round" stroke-linecap="round"/>
<path d="M 300.0 140.8 L 301.4 143.4 L 302.9 145.7 L 304.4 148.1 L 306.0 150.4 L 307.8 152.7 L 309.5 154.8 L 311.4 157.0 L 313.4 159.3 L 315.4 161.4 L 317.5 163.4 L 319.7 165.3 L 321.9 167.1 L 324.2 168.9 L 326.6 170.7 L 329.1 172.7 L 331.9 175.1 L 334.6 177.1 L 337.4 179.1 L 340.3 181.1 L 343.4 183.2 L 346.6 185.4 L 349.9 187.5 L 353.4 189.8 L 357.0 192.0 L 360.7 194.1 L 364.4 196.1 L 368.4 198.2 L 372.7 200.8 L 376.8 202.5 L 380.9 204.1 L 385.2 205.7 L 389.5 207.2 L 393.9 208.5 L 398.3 209.7 L 403.0 211.1 L 407.5 212.0 L 412.0 212.6 L 416.6 213.3 L 421.2 213.6 L 426.0 214.2 L 430.7 214.4 L 435.4 214.4 L 440.1 214.2 L 444.8 213.9 L 449.4 213.4 L 453.9 212.6 L 458.5 211.8 L 463.2 211.0 L 467.5 209.6 L 471.7 208.1 L 475.9 206.4 L 479.9 204.6 L 484.0 202.7 L 487.7 200.4 L 491.0 197.8 L 494.2 195.0 L 496.6 191.7 L 498.7 188.2 L 500.0 184.2 L 500.6 179.8 L 500.6 175.2 L 500.0 170.3 L 498.3 165.1 L 496.6 159.9 L 494.7 154.8 L 492.3 149.6 L 489.5 144.4 L 486.6 139.4 L 483.3 134.3 L 480.0 129.5 L 475.8 124.5 L 472.4 120.0 L 468.8 115.6 L 465.0 111.3 L 460.9 107.1 L 456.9 103.1 L 452.6 99.2 L 448.3 95.5 L 443.8 92.0 L 438.9 88.5 L 434.4 85.3 L 429.8 82.2 L 424.5 79.3 L 419.9 76.6 L 415.3 74.1 L 410.6 71.7 L 405.5 69.5 L 400.6 67.5 L 395.8 65.7 L 391.3 64.0 L 299.4 64.0 L 299.5 64.0 L 299.5 64.0 L 299.5 64.0 L 299.5 64.0 L 299.6 64.0 L 299.6 64.0 L 299.6 64.1 L 299.6 64.1 L 299.6 64.1 L 299.6 64.1 L 299.7 64.1 L 299.7 64.1 L 299.7 64.1 L 299.7 64.1 L 299.7 64.1 L 299.8 64.1 L 299.8 64.1 L 299.8 64.1 L 299.8 64.1 L 299.8 64.1 L 299.9 64.1 L 299.9 64.1 L 299.9 64.1 L 299.9 64.0 L 299.9 64.0 L 299.9 64.0 L 300.0 64.0 L 300.0 64.0 L 300.0 64.0 L 300.0 64.0 L 300.0 64.0 L 300.0 64.0 L 300.0 64.0 L 300.0 64.0 L 300.0 64.0 L 300.0 64.0 L 300.0 64.0 L 300.0 64.0 L 300.0 64.0 L 300.0 64.0 L 300.0 64.0 L 300.0 64.0 L 300.0 64.0 L 299.8 64.2 L 299.4 64.6 L 299.0 65.0 L 298.6 65.5 L 298.1 66.1 L 297.5 66.8 L 296.9 67.7 L 296.3 68.6 L 295.6 69.6 L 295.1 70.5 L 294.5 71.6 L 293.9 72.7 L 293.4 73.8 L 292.9 75.0 L 292.4 76.2 L 291.9 77.5 L 291.4 79.0 L 290.9 80.4 L 290.6 81.7 L 290.2 83.2 L 290.0 84.6 L 289.7 86.1 L 289.5 87.6 L 289.3 89.3 L 289.1 91.0 L 289.0 92.5 L 288.9 94.5 L 288.9 96.3 L 288.9 98.2 L 288.9 100.2 L 289.0 102.2 L 289.2 104.3 L 289.4 106.4 L 289.7 108.6 L 290.0 110.9 L 290.4 113.2 L 290.9 115.5 L 291.5 118.0 L 292.1 120.5 L 292.7 123.2 L 293.5 125.8 L 294.4 128.4 L 295.3 130.9 L 296.3 133.7 L 297.5 136.2 L 298.7 138.8 L 300.0 140.8 Z" fill="none" stroke="#F32740" stroke-width="2.0" stroke-linejoin="round" stroke-linecap="round"/>
<text x="338" y="132" fill="#F32740" font-size="9.5" font-weight="700">150</text>
<text x="335" y="200" fill="#F32740" font-size="9.5" font-weight="700">300</text>
<text x="335" y="268" fill="#F32740" font-size="9.5" font-weight="700">450</text>
<text x="335" y="336" fill="#F32740" font-size="9.5" font-weight="700">600</text>
<rect x="274.0" y="58" width="52" height="11" rx="1.5" fill="#fafbfc" stroke="rgba(255,255,255,0.4)" stroke-width="0.5"/>
<line x1="272.0" y1="69.8" x2="328.0" y2="69.8" stroke="#F32740" stroke-width="0.7" stroke-dasharray="1.5 2"/>
<text x="300" y="66" text-anchor="middle" fill="#F32740" font-size="8" font-weight="700" letter-spacing="0.5">cd/klm SCALE</text>
<g transform="translate(22, 434)">
<text x="0" y="-8" fill="rgba(255,255,255,0.55)" font-size="8" letter-spacing="1.4">cd/klm</text>
<line x1="0" y1="6" x2="22" y2="6" stroke="#F32740" stroke-width="2.2"/>
<text x="28" y="9" fill="rgba(255,255,255,0.7)" font-size="9.5">C0 – C180</text>
<line x1="120" y1="6" x2="142" y2="6" stroke="#3FA9F5" stroke-width="1.7"/>
<text x="148" y="9" fill="rgba(255,255,255,0.7)" font-size="9.5">C90 – C270</text>
</g>
<text x="578" y="402" fill="rgba(255,255,255,0.45)" font-size="9" text-anchor="end">η = 140 lm/W</text>
<text x="578" y="418" fill="rgba(255,255,255,0.45)" font-size="9" text-anchor="end">3,482 lm · 24.8W</text>
<text x="578" y="434" fill="rgba(255,255,255,0.55)" font-size="8" letter-spacing="1.4" text-anchor="end">PEAK INTENSITY</text>
<text x="578" y="451" fill="#fff" font-weight="700" font-size="14" text-anchor="end">1,801 cd</text>
</svg>