<svg viewBox="0 0 600 460" xmlns="http://www.w3.org/2000/svg" font-family="JetBrains Mono, monospace" font-size="9.5">
<rect width="100%" height="100%" fill="#14171b"/>
<text x="22" y="26" fill="#F32740" font-weight="700" letter-spacing="2">LWPC30-S3N2-UD-BA-PSB_BA45_LV3-18W_3000K · 0W · — · FULL CUTOFF</text>
<text x="22" y="42" fill="rgba(255,255,255,0.55)" font-size="8" letter-spacing="1.4">LUMINOUS INTENSITY DISTRIBUTION (cd/klm)</text>
<path d="M 232.0 64.0 A 68.0 68.0 0 0 0 368.0 64.0" fill="none" stroke="rgba(120,200,200,0.18)" stroke-width="0.7"/>
<path d="M 164.0 64.0 A 136.0 136.0 0 0 0 436.0 64.0" fill="none" stroke="rgba(120,200,200,0.18)" stroke-width="0.7"/>
<path d="M 96.0 64.0 A 204.0 204.0 0 0 0 504.0 64.0" fill="none" stroke="rgba(120,200,200,0.18)" stroke-width="0.7"/>
<path d="M 28.0 64.0 A 272.0 272.0 0 0 0 572.0 64.0" fill="none" stroke="rgba(120,200,200,0.18)" stroke-width="0.7"/>
<path d="M -40.0 64.0 A 340.0 340.0 0 0 0 640.0 64.0" fill="none" stroke="rgba(120,200,200,0.18)" stroke-width="0.7"/>
<line x1="300.0" y1="64" x2="388.0" y2="392.4" stroke="rgba(120,200,200,0.10)" stroke-width="0.5"/>
<line x1="300.0" y1="64" x2="212.0" y2="392.4" stroke="rgba(120,200,200,0.10)" stroke-width="0.5"/>
<line x1="300.0" y1="64" x2="470.0" y2="358.4" stroke="rgba(120,200,200,0.10)" stroke-width="0.5"/>
<line x1="300.0" y1="64" x2="130.0" y2="358.4" stroke="rgba(120,200,200,0.10)" stroke-width="0.5"/>
<line x1="300.0" y1="64" x2="540.4" y2="304.4" stroke="rgba(120,200,200,0.10)" stroke-width="0.5"/>
<line x1="300.0" y1="64" x2="59.6" y2="304.4" stroke="rgba(120,200,200,0.10)" stroke-width="0.5"/>
<line x1="300.0" y1="64" x2="594.4" y2="234.0" stroke="rgba(120,200,200,0.10)" stroke-width="0.5"/>
<line x1="300.0" y1="64" x2="5.6" y2="234.0" stroke="rgba(120,200,200,0.10)" stroke-width="0.5"/>
<line x1="300.0" y1="64" x2="628.4" y2="152.0" stroke="rgba(120,200,200,0.10)" stroke-width="0.5"/>
<line x1="300.0" y1="64" x2="-28.4" y2="152.0" stroke="rgba(120,200,200,0.10)" stroke-width="0.5"/>
<line x1="300.0" y1="64" x2="640.0" y2="64.0" stroke="rgba(120,200,200,0.10)" stroke-width="0.5"/>
<line x1="300.0" y1="64" x2="-40.0" y2="64.0" stroke="rgba(120,200,200,0.10)" stroke-width="0.5"/>
<line x1="300.0" y1="64" x2="300.0" y2="408" stroke="rgba(120,200,200,0.14)" stroke-width="0.5"/>
<line x1="-40.0" y1="64" x2="640.0" y2="64" stroke="rgba(120,200,200,0.14)" stroke-width="0.5"/>
<text x="391.6" y="408.9" text-anchor="middle" fill="rgba(255,255,255,0.4)" font-size="9">15°</text>
<text x="208.4" y="408.9" text-anchor="middle" fill="rgba(255,255,255,0.4)" font-size="9">15°</text>
<text x="477.0" y="373.6" text-anchor="middle" fill="rgba(255,255,255,0.6)" font-size="9">30°</text>
<text x="123.0" y="373.6" text-anchor="middle" fill="rgba(255,255,255,0.6)" font-size="9">30°</text>
<text x="550.3" y="317.3" text-anchor="middle" fill="rgba(255,255,255,0.4)" font-size="9">45°</text>
<text x="49.7" y="317.3" text-anchor="middle" fill="rgba(255,255,255,0.4)" font-size="9">45°</text>
<text x="606.6" y="244.0" text-anchor="middle" fill="rgba(255,255,255,0.6)" font-size="9">60°</text>
<text x="-6.6" y="244.0" text-anchor="middle" fill="rgba(255,255,255,0.6)" font-size="9">60°</text>
<text x="641.9" y="158.6" text-anchor="middle" fill="rgba(255,255,255,0.4)" font-size="9">75°</text>
<text x="-41.9" y="158.6" text-anchor="middle" fill="rgba(255,255,255,0.4)" font-size="9">75°</text>
<text x="654.0" y="67.0" text-anchor="middle" fill="rgba(255,255,255,0.6)" font-size="9">90°</text>
<text x="-54.0" y="67.0" text-anchor="middle" fill="rgba(255,255,255,0.6)" font-size="9">90°</text>
<text x="300" y="426" text-anchor="middle" fill="rgba(255,255,255,0.6)" font-size="9">0°</text>
<path d="M 300.0 138.7 L 301.3 138.7 L 302.6 138.8 L 303.9 138.7 L 305.2 138.6 L 306.5 138.3 L 307.8 138.2 L 309.1 138.0 L 310.4 137.7 L 311.6 137.4 L 312.9 136.9 L 314.1 136.4 L 315.3 136.0 L 316.5 135.5 L 317.7 134.9 L 318.8 134.3 L 320.0 133.8 L 321.1 132.9 L 322.1 131.9 L 323.1 131.1 L 324.1 130.2 L 325.1 129.5 L 326.1 128.6 L 327.0 127.6 L 327.9 126.7 L 328.7 125.6 L 329.5 124.6 L 330.3 123.5 L 331.0 122.3 L 331.7 121.2 L 332.3 120.0 L 333.0 118.9 L 333.5 117.6 L 334.0 116.3 L 334.5 115.1 L 334.9 113.9 L 335.3 112.7 L 335.5 111.2 L 336.1 110.2 L 336.5 109.1 L 336.7 107.7 L 336.8 106.4 L 337.1 105.2 L 337.3 104.0 L 337.5 102.8 L 337.5 101.5 L 337.6 100.3 L 337.6 99.1 L 337.5 97.8 L 337.5 96.6 L 337.3 95.3 L 337.0 94.0 L 336.7 92.7 L 336.2 91.3 L 335.9 90.1 L 335.5 88.8 L 335.0 87.6 L 334.4 86.3 L 333.8 85.1 L 333.2 83.9 L 332.6 82.8 L 331.8 81.6 L 331.1 80.5 L 330.2 79.4 L 329.3 78.3 L 328.5 77.3 L 327.5 76.2 L 326.5 75.3 L 325.6 74.3 L 324.6 73.4 L 323.4 72.5 L 322.3 71.7 L 321.2 70.9 L 319.9 70.1 L 318.7 69.4 L 317.5 68.7 L 316.2 68.0 L 315.0 67.5 L 313.6 66.9 L 312.4 66.4 L 311.1 66.0 L 309.8 65.5 L 308.4 65.2 L 307.2 64.9 L 306.0 64.6 L 304.8 64.4 L 303.7 64.3 L 302.7 64.1 L 301.9 64.1 L 301.1 64.0 L 300.5 64.0 L 300.0 64.0 L 300.0 64.0 L 300.0 64.0 L 300.0 64.0 L 299.4 64.0 L 298.9 64.1 L 298.2 64.2 L 297.5 64.3 L 296.6 64.5 L 295.7 64.7 L 294.7 64.9 L 293.7 65.2 L 292.7 65.6 L 291.6 65.9 L 290.6 66.3 L 289.5 66.8 L 288.3 67.4 L 287.2 67.9 L 286.2 68.5 L 285.1 69.1 L 284.1 69.8 L 282.9 70.6 L 281.9 71.3 L 280.9 72.1 L 279.9 73.0 L 278.9 73.8 L 278.0 74.7 L 277.1 75.7 L 276.1 76.7 L 275.2 77.7 L 274.5 78.7 L 273.6 79.8 L 273.0 80.9 L 272.3 82.0 L 271.6 83.2 L 271.0 84.3 L 270.5 85.5 L 270.0 86.6 L 269.5 87.8 L 269.0 89.1 L 268.7 90.3 L 268.4 91.5 L 268.2 92.7 L 267.9 93.9 L 267.8 95.1 L 267.7 96.3 L 267.6 97.5 L 267.5 98.8 L 267.5 100.1 L 267.6 101.3 L 267.6 102.6 L 267.6 104.0 L 267.8 105.2 L 268.0 106.4 L 268.1 107.9 L 268.4 109.1 L 268.6 110.5 L 269.0 111.7 L 269.4 113.0 L 269.7 114.4 L 270.2 115.6 L 270.7 116.8 L 271.3 118.0 L 271.9 119.2 L 272.5 120.4 L 273.2 121.5 L 273.9 122.6 L 274.5 124.0 L 275.3 125.1 L 276.2 126.1 L 277.0 127.1 L 277.9 128.1 L 278.9 128.9 L 279.8 129.9 L 280.9 130.7 L 281.9 131.7 L 282.9 132.4 L 284.0 133.1 L 285.1 133.9 L 286.3 134.5 L 287.4 135.3 L 288.6 135.8 L 289.8 136.2 L 291.1 136.8 L 292.3 137.1 L 293.6 137.6 L 294.8 137.8 L 296.1 138.2 L 297.4 138.3 L 298.7 138.5 L 300.0 138.7 Z" fill="none" stroke="#3FA9F5" stroke-width="1.7" stroke-linejoin="round" stroke-linecap="round"/>
<path d="M 300.0 138.7 L 301.4 141.4 L 302.8 143.7 L 304.3 146.1 L 305.9 148.1 L 307.5 150.3 L 309.3 152.5 L 311.1 154.7 L 313.0 156.7 L 315.1 159.1 L 317.1 161.0 L 319.2 162.8 L 321.4 164.6 L 323.7 166.7 L 326.2 168.9 L 328.5 170.3 L 331.2 172.7 L 333.7 174.4 L 336.6 176.8 L 339.5 178.8 L 342.5 180.7 L 345.6 182.9 L 349.1 185.5 L 352.3 187.3 L 355.8 189.2 L 359.9 192.4 L 363.6 194.5 L 367.6 196.6 L 371.7 198.9 L 375.9 201.0 L 380.2 202.8 L 384.3 204.3 L 389.2 206.7 L 393.4 207.8 L 397.9 209.2 L 402.8 210.8 L 407.4 211.8 L 412.0 212.6 L 416.8 213.5 L 421.7 214.3 L 426.4 214.7 L 431.2 214.9 L 435.8 214.9 L 440.8 215.0 L 446.2 215.4 L 451.0 215.0 L 455.8 214.5 L 460.2 213.4 L 464.6 212.2 L 468.9 210.8 L 473.4 209.5 L 477.7 207.9 L 481.9 206.1 L 485.8 204.0 L 489.5 201.7 L 492.9 199.0 L 496.1 196.3 L 499.1 193.3 L 500.9 189.6 L 502.3 185.6 L 502.7 181.0 L 503.0 176.5 L 502.7 171.8 L 501.6 166.7 L 499.7 161.4 L 497.6 156.1 L 495.3 150.9 L 492.6 145.8 L 488.7 140.2 L 485.7 135.3 L 482.4 130.4 L 478.5 125.5 L 474.9 120.8 L 471.1 116.3 L 467.2 111.9 L 463.3 107.7 L 459.0 103.6 L 455.1 99.8 L 451.0 96.1 L 446.2 92.4 L 441.5 89.0 L 436.5 85.6 L 432.0 82.6 L 427.1 79.6 L 422.6 76.9 L 417.9 74.3 L 413.2 71.9 L 407.9 69.7 L 402.9 67.6 L 398.2 65.7 L 393.5 64.0 L 299.6 64.0 L 299.6 64.0 L 299.6 64.0 L 299.6 64.0 L 299.7 64.0 L 299.7 64.0 L 299.7 64.0 L 299.7 64.0 L 299.7 64.0 L 299.7 64.0 L 299.8 64.0 L 299.8 64.0 L 299.8 64.0 L 300.0 64.0 L 300.0 64.0 L 300.0 64.0 L 300.0 64.0 L 300.0 64.0 L 300.0 64.0 L 300.0 64.0 L 300.0 64.0 L 300.0 64.0 L 300.0 64.0 L 300.0 64.0 L 300.0 64.0 L 300.0 64.0 L 300.0 64.0 L 300.0 64.0 L 300.0 64.0 L 300.0 64.0 L 300.0 64.0 L 300.0 64.0 L 300.0 64.0 L 300.0 64.0 L 300.0 64.0 L 300.0 64.0 L 300.0 64.0 L 300.0 64.0 L 300.0 64.0 L 300.0 64.0 L 300.0 64.0 L 300.0 64.0 L 300.0 64.0 L 300.0 64.0 L 300.0 64.0 L 299.7 64.3 L 299.2 64.8 L 298.9 65.2 L 298.4 65.8 L 297.9 66.4 L 297.2 67.3 L 296.7 68.1 L 296.0 69.1 L 295.5 70.0 L 294.8 71.1 L 294.3 72.2 L 293.7 73.3 L 293.2 74.4 L 292.7 75.6 L 292.2 77.0 L 291.7 78.3 L 291.3 79.7 L 291.0 81.0 L 290.6 82.5 L 290.3 83.9 L 290.1 85.3 L 289.8 86.8 L 289.6 88.5 L 289.5 90.1 L 289.3 91.8 L 289.2 93.6 L 289.2 95.3 L 289.3 97.1 L 289.3 99.1 L 289.4 101.0 L 289.6 103.0 L 289.8 105.1 L 290.0 107.3 L 290.3 109.4 L 290.7 111.8 L 291.2 114.0 L 291.7 116.3 L 292.3 118.7 L 293.0 121.3 L 293.7 123.7 L 294.6 126.3 L 295.5 128.8 L 296.5 131.6 L 297.6 134.1 L 298.7 136.4 L 300.0 138.7 Z" fill="none" stroke="#F32740" stroke-width="2.0" stroke-linejoin="round" stroke-linecap="round"/>
<text x="338" y="132" fill="#F32740" font-size="9.5" font-weight="700">150</text>
<text x="335" y="200" fill="#F32740" font-size="9.5" font-weight="700">300</text>
<text x="335" y="268" fill="#F32740" font-size="9.5" font-weight="700">450</text>
<text x="335" y="336" fill="#F32740" font-size="9.5" font-weight="700">600</text>
<rect x="274.0" y="58" width="52" height="11" rx="1.5" fill="#fafbfc" stroke="rgba(255,255,255,0.4)" stroke-width="0.5"/>
<line x1="272.0" y1="69.8" x2="328.0" y2="69.8" stroke="#F32740" stroke-width="0.7" stroke-dasharray="1.5 2"/>
<text x="300" y="66" text-anchor="middle" fill="#F32740" font-size="8" font-weight="700" letter-spacing="0.5">cd/klm SCALE</text>
<g transform="translate(22, 434)">
<text x="0" y="-8" fill="rgba(255,255,255,0.55)" font-size="8" letter-spacing="1.4">cd/klm</text>
<line x1="0" y1="6" x2="22" y2="6" stroke="#F32740" stroke-width="2.2"/>
<text x="28" y="9" fill="rgba(255,255,255,0.7)" font-size="9.5">C0 – C180</text>
<line x1="120" y1="6" x2="142" y2="6" stroke="#3FA9F5" stroke-width="1.7"/>
<text x="148" y="9" fill="rgba(255,255,255,0.7)" font-size="9.5">C90 – C270</text>
</g>
<text x="578" y="402" fill="rgba(255,255,255,0.45)" font-size="9" text-anchor="end">η = 141 lm/W</text>
<text x="578" y="418" fill="rgba(255,255,255,0.45)" font-size="9" text-anchor="end">2,594 lm · 18.5W</text>
<text x="578" y="434" fill="rgba(255,255,255,0.55)" font-size="8" letter-spacing="1.4" text-anchor="end">PEAK INTENSITY</text>
<text x="578" y="451" fill="#fff" font-weight="700" font-size="14" text-anchor="end">1,358 cd</text>
</svg>