<svg viewBox="0 0 600 460" xmlns="http://www.w3.org/2000/svg" font-family="JetBrains Mono, monospace" font-size="9.5">
<rect width="100%" height="100%" fill="#14171b"/>
<text x="22" y="26" fill="#F32740" font-weight="700" letter-spacing="2">LWPC30-S3N2-UD-BA-PSB_BA45_LV4-12W_3000K · 0W · — · FULL CUTOFF</text>
<text x="22" y="42" fill="rgba(255,255,255,0.55)" font-size="8" letter-spacing="1.4">LUMINOUS INTENSITY DISTRIBUTION (cd/klm)</text>
<path d="M 232.0 64.0 A 68.0 68.0 0 0 0 368.0 64.0" fill="none" stroke="rgba(120,200,200,0.18)" stroke-width="0.7"/>
<path d="M 164.0 64.0 A 136.0 136.0 0 0 0 436.0 64.0" fill="none" stroke="rgba(120,200,200,0.18)" stroke-width="0.7"/>
<path d="M 96.0 64.0 A 204.0 204.0 0 0 0 504.0 64.0" fill="none" stroke="rgba(120,200,200,0.18)" stroke-width="0.7"/>
<path d="M 28.0 64.0 A 272.0 272.0 0 0 0 572.0 64.0" fill="none" stroke="rgba(120,200,200,0.18)" stroke-width="0.7"/>
<path d="M -40.0 64.0 A 340.0 340.0 0 0 0 640.0 64.0" fill="none" stroke="rgba(120,200,200,0.18)" stroke-width="0.7"/>
<line x1="300.0" y1="64" x2="388.0" y2="392.4" stroke="rgba(120,200,200,0.10)" stroke-width="0.5"/>
<line x1="300.0" y1="64" x2="212.0" y2="392.4" stroke="rgba(120,200,200,0.10)" stroke-width="0.5"/>
<line x1="300.0" y1="64" x2="470.0" y2="358.4" stroke="rgba(120,200,200,0.10)" stroke-width="0.5"/>
<line x1="300.0" y1="64" x2="130.0" y2="358.4" stroke="rgba(120,200,200,0.10)" stroke-width="0.5"/>
<line x1="300.0" y1="64" x2="540.4" y2="304.4" stroke="rgba(120,200,200,0.10)" stroke-width="0.5"/>
<line x1="300.0" y1="64" x2="59.6" y2="304.4" stroke="rgba(120,200,200,0.10)" stroke-width="0.5"/>
<line x1="300.0" y1="64" x2="594.4" y2="234.0" stroke="rgba(120,200,200,0.10)" stroke-width="0.5"/>
<line x1="300.0" y1="64" x2="5.6" y2="234.0" stroke="rgba(120,200,200,0.10)" stroke-width="0.5"/>
<line x1="300.0" y1="64" x2="628.4" y2="152.0" stroke="rgba(120,200,200,0.10)" stroke-width="0.5"/>
<line x1="300.0" y1="64" x2="-28.4" y2="152.0" stroke="rgba(120,200,200,0.10)" stroke-width="0.5"/>
<line x1="300.0" y1="64" x2="640.0" y2="64.0" stroke="rgba(120,200,200,0.10)" stroke-width="0.5"/>
<line x1="300.0" y1="64" x2="-40.0" y2="64.0" stroke="rgba(120,200,200,0.10)" stroke-width="0.5"/>
<line x1="300.0" y1="64" x2="300.0" y2="408" stroke="rgba(120,200,200,0.14)" stroke-width="0.5"/>
<line x1="-40.0" y1="64" x2="640.0" y2="64" stroke="rgba(120,200,200,0.14)" stroke-width="0.5"/>
<text x="391.6" y="408.9" text-anchor="middle" fill="rgba(255,255,255,0.4)" font-size="9">15°</text>
<text x="208.4" y="408.9" text-anchor="middle" fill="rgba(255,255,255,0.4)" font-size="9">15°</text>
<text x="477.0" y="373.6" text-anchor="middle" fill="rgba(255,255,255,0.6)" font-size="9">30°</text>
<text x="123.0" y="373.6" text-anchor="middle" fill="rgba(255,255,255,0.6)" font-size="9">30°</text>
<text x="550.3" y="317.3" text-anchor="middle" fill="rgba(255,255,255,0.4)" font-size="9">45°</text>
<text x="49.7" y="317.3" text-anchor="middle" fill="rgba(255,255,255,0.4)" font-size="9">45°</text>
<text x="606.6" y="244.0" text-anchor="middle" fill="rgba(255,255,255,0.6)" font-size="9">60°</text>
<text x="-6.6" y="244.0" text-anchor="middle" fill="rgba(255,255,255,0.6)" font-size="9">60°</text>
<text x="641.9" y="158.6" text-anchor="middle" fill="rgba(255,255,255,0.4)" font-size="9">75°</text>
<text x="-41.9" y="158.6" text-anchor="middle" fill="rgba(255,255,255,0.4)" font-size="9">75°</text>
<text x="654.0" y="67.0" text-anchor="middle" fill="rgba(255,255,255,0.6)" font-size="9">90°</text>
<text x="-54.0" y="67.0" text-anchor="middle" fill="rgba(255,255,255,0.6)" font-size="9">90°</text>
<text x="300" y="426" text-anchor="middle" fill="rgba(255,255,255,0.6)" font-size="9">0°</text>
<path d="M 300.0 138.8 L 301.3 138.9 L 302.6 138.9 L 303.9 138.8 L 305.2 138.6 L 306.5 138.3 L 307.8 138.2 L 309.1 138.0 L 310.4 137.8 L 311.6 137.3 L 312.9 137.1 L 314.1 136.7 L 315.3 136.2 L 316.5 135.5 L 317.7 134.9 L 318.8 134.1 L 319.9 133.6 L 321.1 132.9 L 322.1 132.0 L 323.2 131.3 L 324.2 130.5 L 325.2 129.5 L 326.1 128.6 L 327.0 127.6 L 328.0 126.8 L 328.8 125.8 L 329.6 124.7 L 330.4 123.7 L 331.1 122.5 L 331.8 121.3 L 332.4 120.1 L 333.0 118.9 L 333.5 117.7 L 334.1 116.5 L 334.5 115.2 L 335.0 114.0 L 335.4 112.8 L 335.9 111.6 L 336.2 110.3 L 336.5 109.1 L 336.8 107.8 L 337.0 106.5 L 337.1 105.3 L 337.3 104.0 L 337.5 102.9 L 337.6 101.6 L 337.7 100.4 L 337.7 99.2 L 337.7 97.9 L 337.5 96.6 L 337.2 95.2 L 337.0 94.0 L 336.7 92.7 L 336.3 91.3 L 335.9 90.1 L 335.5 88.8 L 335.0 87.6 L 334.5 86.4 L 333.8 85.1 L 333.1 83.9 L 332.5 82.7 L 331.7 81.6 L 330.9 80.4 L 330.0 79.3 L 329.3 78.3 L 328.5 77.3 L 327.5 76.2 L 326.6 75.3 L 325.5 74.3 L 324.4 73.4 L 323.4 72.5 L 322.2 71.6 L 321.1 70.9 L 319.8 70.1 L 318.6 69.3 L 317.4 68.7 L 316.2 68.0 L 314.9 67.4 L 313.5 66.9 L 312.2 66.4 L 310.9 65.9 L 309.7 65.5 L 308.3 65.2 L 307.0 64.9 L 305.8 64.6 L 304.7 64.4 L 303.6 64.3 L 302.5 64.1 L 301.7 64.1 L 300.9 64.0 L 300.4 64.0 L 300.0 64.0 L 300.0 64.0 L 300.0 64.0 L 300.0 64.0 L 299.6 64.0 L 299.1 64.1 L 298.4 64.2 L 297.7 64.3 L 296.8 64.5 L 295.9 64.7 L 295.0 64.9 L 294.0 65.2 L 292.9 65.5 L 291.9 65.9 L 290.8 66.3 L 289.6 66.8 L 288.5 67.3 L 287.4 67.8 L 286.3 68.4 L 285.2 69.1 L 284.1 69.8 L 283.0 70.5 L 282.1 71.2 L 281.1 72.0 L 280.0 72.9 L 279.0 73.8 L 278.1 74.7 L 277.1 75.7 L 276.3 76.6 L 275.3 77.7 L 274.5 78.7 L 273.8 79.7 L 273.0 80.8 L 272.3 82.0 L 271.6 83.1 L 271.0 84.3 L 270.5 85.4 L 270.0 86.6 L 269.5 87.8 L 269.2 89.0 L 268.7 90.3 L 268.4 91.4 L 268.2 92.6 L 268.0 93.8 L 267.8 95.1 L 267.7 96.3 L 267.6 97.5 L 267.6 98.8 L 267.5 100.1 L 267.5 101.4 L 267.6 102.6 L 267.7 103.8 L 267.9 105.1 L 268.1 106.3 L 268.3 107.7 L 268.5 109.0 L 268.7 110.5 L 269.0 111.8 L 269.4 112.9 L 269.8 114.2 L 270.2 115.5 L 270.7 116.8 L 271.2 118.1 L 271.9 119.1 L 272.4 120.5 L 273.1 121.7 L 273.8 122.7 L 274.6 123.9 L 275.4 124.9 L 276.1 126.2 L 277.0 127.2 L 277.9 128.1 L 278.8 129.1 L 279.8 130.0 L 280.8 130.8 L 281.9 131.6 L 282.9 132.5 L 284.0 133.3 L 285.1 134.0 L 286.3 134.5 L 287.5 135.2 L 288.6 135.7 L 289.8 136.3 L 291.0 137.0 L 292.3 137.4 L 293.6 137.6 L 294.8 137.9 L 296.1 138.1 L 297.4 138.3 L 298.7 138.6 L 300.0 138.8 Z" fill="none" stroke="#3FA9F5" stroke-width="1.7" stroke-linejoin="round" stroke-linecap="round"/>
<path d="M 300.0 138.7 L 301.3 141.1 L 302.8 143.8 L 304.3 146.1 L 305.9 148.2 L 307.6 150.5 L 309.3 152.9 L 311.2 154.9 L 313.1 157.0 L 315.1 159.1 L 317.1 161.2 L 319.3 163.2 L 321.5 165.1 L 323.8 166.9 L 326.1 168.8 L 328.6 170.9 L 331.2 172.8 L 333.9 174.9 L 336.6 176.6 L 339.6 179.1 L 342.6 181.1 L 345.8 183.2 L 349.1 185.6 L 352.5 187.7 L 356.0 189.9 L 359.9 192.4 L 363.8 194.8 L 367.7 196.8 L 372.0 199.3 L 376.0 201.1 L 380.4 203.3 L 384.7 205.0 L 389.1 206.6 L 393.6 208.1 L 398.1 209.4 L 402.8 210.8 L 407.7 212.2 L 412.3 213.0 L 417.0 213.8 L 421.9 214.5 L 427.1 215.5 L 431.5 215.2 L 436.4 215.5 L 441.6 215.8 L 446.3 215.5 L 451.1 215.1 L 455.8 214.5 L 460.9 214.1 L 465.4 213.0 L 469.6 211.4 L 474.1 210.1 L 478.1 208.3 L 482.3 206.4 L 486.2 204.3 L 489.8 201.9 L 494.0 199.9 L 497.1 197.0 L 499.3 193.4 L 501.3 189.8 L 502.9 185.9 L 503.7 181.6 L 503.8 177.0 L 503.5 172.2 L 502.0 166.9 L 500.5 161.8 L 498.2 156.4 L 495.7 151.1 L 492.7 145.8 L 490.0 140.8 L 486.8 135.7 L 482.6 130.5 L 478.9 125.6 L 475.0 120.9 L 471.4 116.4 L 467.6 112.1 L 463.8 107.9 L 459.4 103.8 L 455.4 99.9 L 451.2 96.1 L 446.6 92.5 L 441.9 89.0 L 437.5 85.8 L 432.6 82.6 L 427.5 79.7 L 423.0 76.9 L 418.6 74.4 L 413.1 71.9 L 408.3 69.7 L 403.3 67.6 L 398.5 65.7 L 393.4 64.0 L 299.7 64.0 L 299.7 64.0 L 300.0 64.0 L 300.0 64.0 L 300.0 64.0 L 300.0 64.0 L 300.0 64.0 L 300.0 64.0 L 300.0 64.0 L 300.0 64.0 L 300.0 64.0 L 300.0 64.0 L 300.0 64.0 L 300.0 64.0 L 300.0 64.0 L 300.0 64.0 L 300.0 64.0 L 300.0 64.0 L 300.0 64.0 L 300.0 64.0 L 300.0 64.0 L 300.0 64.0 L 300.0 64.0 L 300.0 64.0 L 300.0 64.0 L 300.0 64.0 L 300.0 64.0 L 300.0 64.0 L 300.0 64.0 L 300.0 64.0 L 300.0 64.0 L 300.0 64.0 L 300.0 64.0 L 300.0 64.0 L 300.0 64.0 L 300.0 64.0 L 300.0 64.0 L 300.0 64.0 L 300.0 64.0 L 300.0 64.0 L 300.0 64.0 L 300.0 64.0 L 300.0 64.0 L 300.0 64.0 L 300.0 64.0 L 299.8 64.2 L 299.4 64.6 L 299.0 65.1 L 298.5 65.6 L 297.9 66.4 L 297.4 67.1 L 296.8 68.0 L 296.1 69.0 L 295.5 70.0 L 294.9 71.0 L 294.4 72.0 L 293.8 73.1 L 293.2 74.4 L 292.8 75.6 L 292.2 76.9 L 291.8 78.2 L 291.4 79.6 L 291.0 80.9 L 290.6 82.4 L 290.4 83.7 L 290.1 85.2 L 289.8 86.8 L 289.7 88.3 L 289.5 90.1 L 289.4 91.6 L 289.3 93.4 L 289.3 95.2 L 289.2 97.2 L 289.3 99.0 L 289.4 101.0 L 289.6 103.0 L 289.8 105.0 L 290.0 107.2 L 290.4 109.3 L 290.8 111.5 L 291.2 113.8 L 291.7 116.4 L 292.3 118.8 L 293.0 121.3 L 293.7 123.9 L 294.5 126.4 L 295.5 128.9 L 296.5 131.7 L 297.6 134.2 L 298.7 136.7 L 300.0 138.7 Z" fill="none" stroke="#F32740" stroke-width="2.0" stroke-linejoin="round" stroke-linecap="round"/>
<text x="338" y="132" fill="#F32740" font-size="9.5" font-weight="700">150</text>
<text x="335" y="200" fill="#F32740" font-size="9.5" font-weight="700">300</text>
<text x="335" y="268" fill="#F32740" font-size="9.5" font-weight="700">450</text>
<text x="335" y="336" fill="#F32740" font-size="9.5" font-weight="700">600</text>
<rect x="274.0" y="58" width="52" height="11" rx="1.5" fill="#fafbfc" stroke="rgba(255,255,255,0.4)" stroke-width="0.5"/>
<line x1="272.0" y1="69.8" x2="328.0" y2="69.8" stroke="#F32740" stroke-width="0.7" stroke-dasharray="1.5 2"/>
<text x="300" y="66" text-anchor="middle" fill="#F32740" font-size="8" font-weight="700" letter-spacing="0.5">cd/klm SCALE</text>
<g transform="translate(22, 434)">
<text x="0" y="-8" fill="rgba(255,255,255,0.55)" font-size="8" letter-spacing="1.4">cd/klm</text>
<line x1="0" y1="6" x2="22" y2="6" stroke="#F32740" stroke-width="2.2"/>
<text x="28" y="9" fill="rgba(255,255,255,0.7)" font-size="9.5">C0 – C180</text>
<line x1="120" y1="6" x2="142" y2="6" stroke="#3FA9F5" stroke-width="1.7"/>
<text x="148" y="9" fill="rgba(255,255,255,0.7)" font-size="9.5">C90 – C270</text>
</g>
<text x="578" y="402" fill="rgba(255,255,255,0.45)" font-size="9" text-anchor="end">η = 143 lm/W</text>
<text x="578" y="418" fill="rgba(255,255,255,0.45)" font-size="9" text-anchor="end">1,739 lm · 12.2W</text>
<text x="578" y="434" fill="rgba(255,255,255,0.55)" font-size="8" letter-spacing="1.4" text-anchor="end">PEAK INTENSITY</text>
<text x="578" y="451" fill="#fff" font-weight="700" font-size="14" text-anchor="end">912 cd</text>
</svg>