<svg viewBox="0 0 600 460" xmlns="http://www.w3.org/2000/svg" font-family="JetBrains Mono, monospace" font-size="9.5">
<rect width="100%" height="100%" fill="#14171b"/>
<text x="22" y="26" fill="#F32740" font-weight="700" letter-spacing="2">LWPC30-S3N2-UD-BA-PSB_BA45_LV2-24W_3000K · 0W · — · FULL CUTOFF</text>
<text x="22" y="42" fill="rgba(255,255,255,0.55)" font-size="8" letter-spacing="1.4">LUMINOUS INTENSITY DISTRIBUTION (cd/klm)</text>
<path d="M 232.0 64.0 A 68.0 68.0 0 0 0 368.0 64.0" fill="none" stroke="rgba(120,200,200,0.18)" stroke-width="0.7"/>
<path d="M 164.0 64.0 A 136.0 136.0 0 0 0 436.0 64.0" fill="none" stroke="rgba(120,200,200,0.18)" stroke-width="0.7"/>
<path d="M 96.0 64.0 A 204.0 204.0 0 0 0 504.0 64.0" fill="none" stroke="rgba(120,200,200,0.18)" stroke-width="0.7"/>
<path d="M 28.0 64.0 A 272.0 272.0 0 0 0 572.0 64.0" fill="none" stroke="rgba(120,200,200,0.18)" stroke-width="0.7"/>
<path d="M -40.0 64.0 A 340.0 340.0 0 0 0 640.0 64.0" fill="none" stroke="rgba(120,200,200,0.18)" stroke-width="0.7"/>
<line x1="300.0" y1="64" x2="388.0" y2="392.4" stroke="rgba(120,200,200,0.10)" stroke-width="0.5"/>
<line x1="300.0" y1="64" x2="212.0" y2="392.4" stroke="rgba(120,200,200,0.10)" stroke-width="0.5"/>
<line x1="300.0" y1="64" x2="470.0" y2="358.4" stroke="rgba(120,200,200,0.10)" stroke-width="0.5"/>
<line x1="300.0" y1="64" x2="130.0" y2="358.4" stroke="rgba(120,200,200,0.10)" stroke-width="0.5"/>
<line x1="300.0" y1="64" x2="540.4" y2="304.4" stroke="rgba(120,200,200,0.10)" stroke-width="0.5"/>
<line x1="300.0" y1="64" x2="59.6" y2="304.4" stroke="rgba(120,200,200,0.10)" stroke-width="0.5"/>
<line x1="300.0" y1="64" x2="594.4" y2="234.0" stroke="rgba(120,200,200,0.10)" stroke-width="0.5"/>
<line x1="300.0" y1="64" x2="5.6" y2="234.0" stroke="rgba(120,200,200,0.10)" stroke-width="0.5"/>
<line x1="300.0" y1="64" x2="628.4" y2="152.0" stroke="rgba(120,200,200,0.10)" stroke-width="0.5"/>
<line x1="300.0" y1="64" x2="-28.4" y2="152.0" stroke="rgba(120,200,200,0.10)" stroke-width="0.5"/>
<line x1="300.0" y1="64" x2="640.0" y2="64.0" stroke="rgba(120,200,200,0.10)" stroke-width="0.5"/>
<line x1="300.0" y1="64" x2="-40.0" y2="64.0" stroke="rgba(120,200,200,0.10)" stroke-width="0.5"/>
<line x1="300.0" y1="64" x2="300.0" y2="408" stroke="rgba(120,200,200,0.14)" stroke-width="0.5"/>
<line x1="-40.0" y1="64" x2="640.0" y2="64" stroke="rgba(120,200,200,0.14)" stroke-width="0.5"/>
<text x="391.6" y="408.9" text-anchor="middle" fill="rgba(255,255,255,0.4)" font-size="9">15°</text>
<text x="208.4" y="408.9" text-anchor="middle" fill="rgba(255,255,255,0.4)" font-size="9">15°</text>
<text x="477.0" y="373.6" text-anchor="middle" fill="rgba(255,255,255,0.6)" font-size="9">30°</text>
<text x="123.0" y="373.6" text-anchor="middle" fill="rgba(255,255,255,0.6)" font-size="9">30°</text>
<text x="550.3" y="317.3" text-anchor="middle" fill="rgba(255,255,255,0.4)" font-size="9">45°</text>
<text x="49.7" y="317.3" text-anchor="middle" fill="rgba(255,255,255,0.4)" font-size="9">45°</text>
<text x="606.6" y="244.0" text-anchor="middle" fill="rgba(255,255,255,0.6)" font-size="9">60°</text>
<text x="-6.6" y="244.0" text-anchor="middle" fill="rgba(255,255,255,0.6)" font-size="9">60°</text>
<text x="641.9" y="158.6" text-anchor="middle" fill="rgba(255,255,255,0.4)" font-size="9">75°</text>
<text x="-41.9" y="158.6" text-anchor="middle" fill="rgba(255,255,255,0.4)" font-size="9">75°</text>
<text x="654.0" y="67.0" text-anchor="middle" fill="rgba(255,255,255,0.6)" font-size="9">90°</text>
<text x="-54.0" y="67.0" text-anchor="middle" fill="rgba(255,255,255,0.6)" font-size="9">90°</text>
<text x="300" y="426" text-anchor="middle" fill="rgba(255,255,255,0.6)" font-size="9">0°</text>
<path d="M 300.0 138.8 L 301.3 138.7 L 302.6 138.6 L 303.9 138.5 L 305.2 138.5 L 306.5 138.5 L 307.8 138.3 L 309.1 138.0 L 310.3 137.6 L 311.6 137.3 L 312.9 136.9 L 314.1 136.4 L 315.3 136.0 L 316.5 135.5 L 317.7 134.8 L 318.8 134.0 L 319.9 133.4 L 321.0 132.7 L 322.1 132.0 L 323.1 131.2 L 324.2 130.4 L 325.1 129.5 L 326.1 128.6 L 327.0 127.6 L 327.8 126.5 L 328.7 125.5 L 329.5 124.4 L 330.3 123.4 L 331.0 122.3 L 331.7 121.2 L 332.3 119.9 L 332.9 118.8 L 333.5 117.6 L 334.0 116.4 L 334.5 115.1 L 334.9 113.9 L 335.4 112.7 L 335.8 111.5 L 336.0 110.1 L 336.3 108.8 L 336.6 107.6 L 336.9 106.4 L 337.2 105.3 L 337.3 104.0 L 337.5 102.8 L 337.5 101.5 L 337.6 100.3 L 337.6 99.0 L 337.5 97.8 L 337.4 96.5 L 337.2 95.2 L 337.0 93.9 L 336.6 92.6 L 336.3 91.4 L 335.9 90.1 L 335.5 88.8 L 335.0 87.6 L 334.5 86.4 L 333.8 85.1 L 333.1 83.9 L 332.4 82.7 L 331.8 81.6 L 331.0 80.5 L 330.2 79.4 L 329.4 78.3 L 328.5 77.3 L 327.5 76.3 L 326.6 75.3 L 325.6 74.3 L 324.6 73.4 L 323.4 72.5 L 322.3 71.7 L 321.2 70.9 L 320.0 70.1 L 318.8 69.4 L 317.5 68.7 L 316.3 68.1 L 315.0 67.5 L 313.6 66.9 L 312.4 66.4 L 311.1 66.0 L 309.8 65.6 L 308.5 65.2 L 307.2 64.9 L 306.0 64.6 L 304.9 64.4 L 303.8 64.3 L 302.8 64.1 L 301.9 64.1 L 301.2 64.0 L 300.6 64.0 L 300.0 64.0 L 300.0 64.0 L 300.0 64.0 L 299.8 64.0 L 299.5 64.0 L 298.9 64.1 L 298.2 64.2 L 297.5 64.3 L 296.5 64.5 L 295.7 64.7 L 294.7 64.9 L 293.7 65.2 L 292.6 65.6 L 291.6 65.9 L 290.5 66.4 L 289.5 66.8 L 288.3 67.4 L 287.3 67.9 L 286.2 68.5 L 285.1 69.1 L 284.1 69.8 L 282.9 70.5 L 281.9 71.3 L 280.9 72.1 L 279.8 73.0 L 278.9 73.8 L 278.0 74.7 L 277.1 75.7 L 276.1 76.7 L 275.3 77.7 L 274.5 78.7 L 273.8 79.8 L 273.0 80.8 L 272.3 82.0 L 271.6 83.1 L 271.0 84.3 L 270.4 85.5 L 269.9 86.7 L 269.5 87.8 L 269.1 89.0 L 268.7 90.3 L 268.4 91.5 L 268.2 92.6 L 268.0 93.8 L 267.7 95.2 L 267.6 96.4 L 267.6 97.6 L 267.6 98.8 L 267.6 100.0 L 267.6 101.3 L 267.7 102.5 L 267.7 103.9 L 267.9 105.1 L 267.9 106.5 L 268.2 107.8 L 268.4 109.1 L 268.7 110.4 L 269.0 111.7 L 269.4 113.0 L 269.8 114.3 L 270.3 115.5 L 270.8 116.7 L 271.3 117.9 L 271.9 119.1 L 272.6 120.3 L 273.2 121.5 L 273.8 122.7 L 274.6 123.8 L 275.4 125.0 L 276.2 125.9 L 277.1 127.0 L 278.0 128.0 L 278.9 129.0 L 279.8 129.9 L 280.9 130.7 L 281.9 131.5 L 282.9 132.4 L 284.0 133.2 L 285.1 133.9 L 286.3 134.5 L 287.5 135.1 L 288.6 135.7 L 289.9 136.2 L 291.1 136.6 L 292.3 137.0 L 293.6 137.7 L 294.8 137.9 L 296.1 138.2 L 297.4 138.4 L 298.7 138.6 L 300.0 138.8 Z" fill="none" stroke="#3FA9F5" stroke-width="1.7" stroke-linejoin="round" stroke-linecap="round"/>
<path d="M 300.0 138.8 L 301.3 141.2 L 302.8 143.5 L 304.3 145.8 L 305.9 148.1 L 307.6 150.5 L 309.3 152.7 L 311.1 154.7 L 313.0 156.8 L 315.0 158.9 L 317.1 160.8 L 319.2 162.7 L 321.4 164.6 L 323.6 166.4 L 326.1 168.6 L 328.6 170.6 L 331.1 172.5 L 333.8 174.6 L 336.5 176.5 L 339.4 178.6 L 342.5 180.8 L 345.6 182.9 L 348.9 185.1 L 352.4 187.4 L 355.9 189.5 L 359.6 191.7 L 363.7 194.5 L 367.6 196.6 L 371.6 198.7 L 375.8 200.8 L 380.1 202.7 L 384.3 204.3 L 388.8 206.0 L 393.2 207.5 L 397.7 208.9 L 402.6 210.5 L 407.2 211.6 L 411.8 212.4 L 416.8 213.5 L 421.6 214.1 L 426.3 214.6 L 431.1 214.8 L 435.9 214.9 L 440.7 214.9 L 445.7 214.8 L 450.4 214.4 L 455.4 214.1 L 460.2 213.4 L 464.6 212.2 L 468.9 210.8 L 473.3 209.4 L 477.5 207.8 L 481.6 205.9 L 485.4 203.7 L 489.9 201.9 L 493.2 199.2 L 496.2 196.3 L 498.7 193.0 L 500.6 189.4 L 502.0 185.4 L 502.9 181.1 L 503.2 176.6 L 502.5 171.7 L 501.0 166.4 L 499.6 161.3 L 497.4 156.0 L 494.9 150.8 L 492.3 145.6 L 489.2 140.4 L 486.1 135.4 L 481.7 130.1 L 478.2 125.4 L 474.6 120.7 L 470.8 116.2 L 466.9 111.9 L 463.1 107.7 L 458.9 103.6 L 454.9 99.8 L 450.7 96.0 L 445.7 92.3 L 441.2 88.9 L 436.7 85.6 L 432.1 82.6 L 426.9 79.6 L 422.2 76.8 L 417.7 74.3 L 412.9 71.9 L 408.1 69.7 L 403.0 67.6 L 398.1 65.7 L 393.0 64.0 L 299.4 64.0 L 299.5 64.0 L 299.5 64.0 L 299.5 64.0 L 299.5 64.0 L 299.6 64.0 L 299.6 64.0 L 299.6 64.0 L 299.6 64.1 L 299.7 64.1 L 299.7 64.1 L 299.7 64.1 L 299.7 64.1 L 299.8 64.1 L 299.8 64.1 L 299.8 64.1 L 299.8 64.1 L 299.8 64.1 L 299.8 64.1 L 299.9 64.0 L 299.9 64.0 L 300.0 64.0 L 300.0 64.0 L 300.0 64.0 L 300.0 64.0 L 300.0 64.0 L 300.0 64.0 L 300.0 64.0 L 300.0 64.0 L 300.0 64.0 L 300.0 64.0 L 300.0 64.0 L 300.0 64.0 L 300.0 64.0 L 300.0 64.0 L 300.0 64.0 L 300.0 64.0 L 300.0 64.0 L 300.0 64.0 L 300.0 64.0 L 300.0 64.0 L 300.0 64.0 L 300.0 64.0 L 300.0 64.0 L 299.9 64.1 L 299.6 64.4 L 299.2 64.8 L 298.8 65.3 L 298.3 65.9 L 297.8 66.6 L 297.2 67.3 L 296.6 68.2 L 296.0 69.2 L 295.4 70.1 L 294.8 71.2 L 294.3 72.2 L 293.7 73.3 L 293.2 74.5 L 292.7 75.7 L 292.2 77.0 L 291.7 78.3 L 291.3 79.7 L 290.9 81.1 L 290.6 82.5 L 290.3 83.8 L 290.1 85.3 L 289.8 86.8 L 289.6 88.5 L 289.5 90.1 L 289.3 91.8 L 289.3 93.5 L 289.2 95.3 L 289.2 97.2 L 289.2 99.2 L 289.4 101.1 L 289.5 103.1 L 289.7 105.1 L 290.0 107.3 L 290.4 109.4 L 290.8 111.6 L 291.2 114.2 L 291.7 116.5 L 292.3 118.9 L 293.0 121.3 L 293.7 123.8 L 294.5 126.4 L 295.5 129.0 L 296.5 131.5 L 297.6 134.0 L 298.7 136.7 L 300.0 138.8 Z" fill="none" stroke="#F32740" stroke-width="2.0" stroke-linejoin="round" stroke-linecap="round"/>
<text x="338" y="132" fill="#F32740" font-size="9.5" font-weight="700">150</text>
<text x="335" y="200" fill="#F32740" font-size="9.5" font-weight="700">300</text>
<text x="335" y="268" fill="#F32740" font-size="9.5" font-weight="700">450</text>
<text x="335" y="336" fill="#F32740" font-size="9.5" font-weight="700">600</text>
<rect x="274.0" y="58" width="52" height="11" rx="1.5" fill="#fafbfc" stroke="rgba(255,255,255,0.4)" stroke-width="0.5"/>
<line x1="272.0" y1="69.8" x2="328.0" y2="69.8" stroke="#F32740" stroke-width="0.7" stroke-dasharray="1.5 2"/>
<text x="300" y="66" text-anchor="middle" fill="#F32740" font-size="8" font-weight="700" letter-spacing="0.5">cd/klm SCALE</text>
<g transform="translate(22, 434)">
<text x="0" y="-8" fill="rgba(255,255,255,0.55)" font-size="8" letter-spacing="1.4">cd/klm</text>
<line x1="0" y1="6" x2="22" y2="6" stroke="#F32740" stroke-width="2.2"/>
<text x="28" y="9" fill="rgba(255,255,255,0.7)" font-size="9.5">C0 – C180</text>
<line x1="120" y1="6" x2="142" y2="6" stroke="#3FA9F5" stroke-width="1.7"/>
<text x="148" y="9" fill="rgba(255,255,255,0.7)" font-size="9.5">C90 – C270</text>
</g>
<text x="578" y="402" fill="rgba(255,255,255,0.45)" font-size="9" text-anchor="end">η = 136 lm/W</text>
<text x="578" y="418" fill="rgba(255,255,255,0.45)" font-size="9" text-anchor="end">3,388 lm · 24.9W</text>
<text x="578" y="434" fill="rgba(255,255,255,0.55)" font-size="8" letter-spacing="1.4" text-anchor="end">PEAK INTENSITY</text>
<text x="578" y="451" fill="#fff" font-weight="700" font-size="14" text-anchor="end">1,770 cd</text>
</svg>