<svg viewBox="0 0 600 460" xmlns="http://www.w3.org/2000/svg" font-family="JetBrains Mono, monospace" font-size="9.5">
<rect width="100%" height="100%" fill="#14171b"/>
<text x="22" y="26" fill="#F32740" font-weight="700" letter-spacing="2">LWPC30-S3N2-UD-BA-PSB_BA0_LV3-18W_3000K · 0W · — · FULL CUTOFF</text>
<text x="22" y="42" fill="rgba(255,255,255,0.55)" font-size="8" letter-spacing="1.4">LUMINOUS INTENSITY DISTRIBUTION (cd/klm)</text>
<path d="M 232.0 64.0 A 68.0 68.0 0 0 0 368.0 64.0" fill="none" stroke="rgba(120,200,200,0.18)" stroke-width="0.7"/>
<path d="M 164.0 64.0 A 136.0 136.0 0 0 0 436.0 64.0" fill="none" stroke="rgba(120,200,200,0.18)" stroke-width="0.7"/>
<path d="M 96.0 64.0 A 204.0 204.0 0 0 0 504.0 64.0" fill="none" stroke="rgba(120,200,200,0.18)" stroke-width="0.7"/>
<path d="M 28.0 64.0 A 272.0 272.0 0 0 0 572.0 64.0" fill="none" stroke="rgba(120,200,200,0.18)" stroke-width="0.7"/>
<path d="M -40.0 64.0 A 340.0 340.0 0 0 0 640.0 64.0" fill="none" stroke="rgba(120,200,200,0.18)" stroke-width="0.7"/>
<line x1="300.0" y1="64" x2="388.0" y2="392.4" stroke="rgba(120,200,200,0.10)" stroke-width="0.5"/>
<line x1="300.0" y1="64" x2="212.0" y2="392.4" stroke="rgba(120,200,200,0.10)" stroke-width="0.5"/>
<line x1="300.0" y1="64" x2="470.0" y2="358.4" stroke="rgba(120,200,200,0.10)" stroke-width="0.5"/>
<line x1="300.0" y1="64" x2="130.0" y2="358.4" stroke="rgba(120,200,200,0.10)" stroke-width="0.5"/>
<line x1="300.0" y1="64" x2="540.4" y2="304.4" stroke="rgba(120,200,200,0.10)" stroke-width="0.5"/>
<line x1="300.0" y1="64" x2="59.6" y2="304.4" stroke="rgba(120,200,200,0.10)" stroke-width="0.5"/>
<line x1="300.0" y1="64" x2="594.4" y2="234.0" stroke="rgba(120,200,200,0.10)" stroke-width="0.5"/>
<line x1="300.0" y1="64" x2="5.6" y2="234.0" stroke="rgba(120,200,200,0.10)" stroke-width="0.5"/>
<line x1="300.0" y1="64" x2="628.4" y2="152.0" stroke="rgba(120,200,200,0.10)" stroke-width="0.5"/>
<line x1="300.0" y1="64" x2="-28.4" y2="152.0" stroke="rgba(120,200,200,0.10)" stroke-width="0.5"/>
<line x1="300.0" y1="64" x2="640.0" y2="64.0" stroke="rgba(120,200,200,0.10)" stroke-width="0.5"/>
<line x1="300.0" y1="64" x2="-40.0" y2="64.0" stroke="rgba(120,200,200,0.10)" stroke-width="0.5"/>
<line x1="300.0" y1="64" x2="300.0" y2="408" stroke="rgba(120,200,200,0.14)" stroke-width="0.5"/>
<line x1="-40.0" y1="64" x2="640.0" y2="64" stroke="rgba(120,200,200,0.14)" stroke-width="0.5"/>
<text x="391.6" y="408.9" text-anchor="middle" fill="rgba(255,255,255,0.4)" font-size="9">15°</text>
<text x="208.4" y="408.9" text-anchor="middle" fill="rgba(255,255,255,0.4)" font-size="9">15°</text>
<text x="477.0" y="373.6" text-anchor="middle" fill="rgba(255,255,255,0.6)" font-size="9">30°</text>
<text x="123.0" y="373.6" text-anchor="middle" fill="rgba(255,255,255,0.6)" font-size="9">30°</text>
<text x="550.3" y="317.3" text-anchor="middle" fill="rgba(255,255,255,0.4)" font-size="9">45°</text>
<text x="49.7" y="317.3" text-anchor="middle" fill="rgba(255,255,255,0.4)" font-size="9">45°</text>
<text x="606.6" y="244.0" text-anchor="middle" fill="rgba(255,255,255,0.6)" font-size="9">60°</text>
<text x="-6.6" y="244.0" text-anchor="middle" fill="rgba(255,255,255,0.6)" font-size="9">60°</text>
<text x="641.9" y="158.6" text-anchor="middle" fill="rgba(255,255,255,0.4)" font-size="9">75°</text>
<text x="-41.9" y="158.6" text-anchor="middle" fill="rgba(255,255,255,0.4)" font-size="9">75°</text>
<text x="654.0" y="67.0" text-anchor="middle" fill="rgba(255,255,255,0.6)" font-size="9">90°</text>
<text x="-54.0" y="67.0" text-anchor="middle" fill="rgba(255,255,255,0.6)" font-size="9">90°</text>
<text x="300" y="426" text-anchor="middle" fill="rgba(255,255,255,0.6)" font-size="9">0°</text>
<path d="M 300.0 278.0 L 303.7 278.1 L 307.5 278.0 L 311.2 277.7 L 314.9 277.0 L 318.6 276.6 L 322.2 275.6 L 325.9 274.5 L 329.5 273.6 L 333.0 272.0 L 336.4 270.7 L 339.9 269.4 L 343.3 267.9 L 346.6 266.0 L 349.9 264.0 L 353.0 261.7 L 356.0 259.4 L 359.0 257.0 L 361.8 254.3 L 364.7 252.0 L 367.3 249.0 L 370.0 246.3 L 372.4 243.2 L 374.7 240.1 L 376.9 236.7 L 379.0 233.4 L 381.0 230.0 L 382.9 226.7 L 384.6 223.1 L 386.1 219.4 L 387.6 215.7 L 388.6 211.4 L 389.7 207.6 L 390.7 203.7 L 391.5 199.7 L 392.3 195.8 L 392.8 191.8 L 393.3 187.8 L 393.3 183.5 L 393.6 179.6 L 393.4 175.3 L 393.2 171.2 L 392.8 167.1 L 392.2 162.8 L 391.5 158.8 L 390.7 154.7 L 389.9 150.8 L 388.8 146.8 L 387.6 142.8 L 386.2 139.0 L 384.9 135.3 L 383.4 131.6 L 381.7 127.9 L 379.7 124.1 L 377.9 120.6 L 376.0 117.2 L 373.8 113.8 L 371.8 110.6 L 369.6 107.5 L 367.5 104.5 L 364.9 101.5 L 362.7 98.7 L 360.3 96.0 L 357.9 93.5 L 355.2 90.9 L 352.7 88.6 L 350.3 86.4 L 347.8 84.3 L 345.1 82.2 L 342.6 80.3 L 340.0 78.6 L 337.5 76.9 L 334.7 75.3 L 332.2 73.8 L 329.7 72.5 L 327.3 71.3 L 324.6 70.1 L 322.2 69.1 L 319.9 68.2 L 317.4 67.4 L 315.1 66.7 L 312.9 66.0 L 310.8 65.5 L 308.8 65.1 L 306.8 64.7 L 305.1 64.4 L 303.6 64.3 L 302.3 64.1 L 301.2 64.0 L 300.0 64.0 L 300.0 64.0 L 300.0 64.0 L 300.0 64.0 L 298.7 64.0 L 297.7 64.1 L 296.5 64.2 L 295.1 64.4 L 293.4 64.7 L 291.8 65.0 L 290.0 65.4 L 288.1 65.9 L 286.2 66.4 L 283.9 67.1 L 281.9 67.9 L 279.7 68.7 L 277.3 69.7 L 275.0 70.7 L 272.8 71.8 L 270.4 73.0 L 267.8 74.5 L 265.5 75.9 L 263.1 77.4 L 260.8 79.1 L 258.3 80.9 L 256.0 82.7 L 253.6 84.7 L 251.0 86.8 L 248.6 89.0 L 246.3 91.4 L 244.1 93.7 L 241.8 96.3 L 239.3 99.0 L 237.1 101.8 L 235.0 104.6 L 232.9 107.6 L 230.8 110.7 L 228.8 113.8 L 227.0 117.0 L 224.9 120.6 L 223.2 124.0 L 221.7 127.4 L 220.0 131.1 L 218.6 134.8 L 217.4 138.3 L 216.1 142.2 L 215.1 146.0 L 214.1 149.9 L 213.0 154.1 L 212.4 157.9 L 211.9 161.8 L 211.5 165.8 L 211.0 170.1 L 210.8 174.1 L 210.8 178.2 L 210.9 182.2 L 211.2 186.2 L 211.6 190.3 L 212.2 194.1 L 212.7 198.4 L 213.5 202.4 L 214.5 206.3 L 215.7 210.0 L 217.1 213.6 L 218.4 217.5 L 219.9 221.1 L 221.6 224.7 L 223.5 228.2 L 225.3 231.7 L 227.4 235.1 L 229.5 238.5 L 231.8 241.6 L 234.2 244.8 L 236.7 247.8 L 239.3 250.7 L 242.1 253.4 L 245.0 255.9 L 247.9 258.3 L 251.0 260.5 L 254.1 262.7 L 257.3 264.7 L 260.6 266.8 L 263.9 268.5 L 267.4 269.7 L 270.8 271.8 L 274.3 273.1 L 277.9 274.3 L 281.5 275.3 L 285.2 276.1 L 288.8 276.9 L 292.6 277.2 L 296.3 277.7 L 300.0 278.0 Z" fill="none" stroke="#3FA9F5" stroke-width="1.7" stroke-linejoin="round" stroke-linecap="round"/>
<path d="M 300.0 278.0 L 303.8 281.1 L 307.7 283.4 L 311.6 285.6 L 315.6 287.7 L 319.7 289.6 L 323.9 291.5 L 328.1 292.7 L 332.3 293.9 L 336.6 294.8 L 340.7 294.8 L 344.8 294.7 L 348.8 293.7 L 352.7 292.3 L 356.3 289.8 L 359.8 287.2 L 363.1 283.9 L 366.0 279.8 L 368.7 275.4 L 370.8 269.7 L 373.0 264.5 L 374.9 259.1 L 376.4 253.2 L 378.0 247.6 L 379.1 241.6 L 380.0 235.7 L 380.7 229.4 L 381.4 223.7 L 381.9 217.9 L 382.2 212.3 L 382.3 206.6 L 382.2 200.9 L 382.0 195.2 L 381.6 189.7 L 380.8 183.8 L 380.0 178.2 L 379.0 172.7 L 377.9 167.3 L 376.7 162.1 L 375.4 157.1 L 374.0 152.2 L 372.3 147.1 L 370.2 142.0 L 368.0 137.0 L 365.8 132.2 L 363.9 127.9 L 362.0 123.9 L 360.1 120.1 L 358.0 116.2 L 356.0 112.7 L 353.9 109.3 L 351.9 106.1 L 349.9 103.0 L 348.0 100.2 L 345.7 97.2 L 344.0 94.8 L 342.1 92.4 L 340.2 90.1 L 338.6 88.1 L 336.8 86.1 L 335.1 84.3 L 333.3 82.5 L 331.7 80.8 L 330.1 79.3 L 328.5 77.9 L 326.7 76.5 L 325.3 75.2 L 323.7 74.1 L 322.2 73.0 L 320.7 72.0 L 319.3 71.0 L 317.9 70.2 L 316.5 69.4 L 314.9 68.6 L 313.5 67.9 L 312.2 67.3 L 310.9 66.7 L 309.4 66.2 L 308.2 65.7 L 307.0 65.4 L 305.7 65.0 L 304.6 64.7 L 303.6 64.5 L 302.7 64.3 L 301.8 64.2 L 301.1 64.1 L 300.6 64.0 L 300.0 64.0 L 300.0 64.0 L 300.0 64.0 L 300.0 64.0 L 300.0 64.0 L 298.6 64.0 L 297.9 64.1 L 297.1 64.2 L 296.2 64.3 L 295.2 64.4 L 293.9 64.6 L 292.8 64.9 L 291.7 65.2 L 290.6 65.5 L 289.5 65.9 L 288.2 66.3 L 287.0 66.8 L 285.7 67.3 L 284.4 67.9 L 283.0 68.5 L 281.8 69.2 L 280.6 69.9 L 279.4 70.7 L 278.0 71.6 L 276.8 72.5 L 275.5 73.4 L 274.3 74.4 L 272.9 75.5 L 271.6 76.6 L 270.3 77.8 L 268.9 79.2 L 267.6 80.5 L 266.3 81.9 L 265.0 83.4 L 263.7 85.0 L 262.1 86.8 L 260.8 88.5 L 259.5 90.3 L 258.2 92.2 L 256.8 94.3 L 255.6 96.3 L 254.2 98.5 L 252.7 100.9 L 251.5 103.3 L 250.3 105.7 L 249.2 108.2 L 248.1 110.7 L 247.1 113.3 L 246.3 115.9 L 245.5 118.5 L 244.9 121.1 L 244.2 123.8 L 243.5 126.7 L 243.2 129.4 L 242.9 132.1 L 242.5 135.0 L 242.3 137.8 L 242.3 140.6 L 242.3 143.5 L 242.4 146.3 L 242.6 149.1 L 242.8 152.1 L 243.0 155.2 L 243.5 158.0 L 243.7 161.4 L 244.1 164.8 L 244.6 168.2 L 245.2 171.6 L 245.7 175.3 L 246.4 178.9 L 247.1 182.7 L 247.9 186.6 L 248.8 190.7 L 249.8 194.7 L 250.7 199.4 L 251.9 203.7 L 253.2 207.9 L 254.7 212.3 L 256.1 217.1 L 257.9 221.3 L 259.7 225.5 L 261.7 229.8 L 263.9 233.7 L 266.2 237.8 L 268.6 242.1 L 271.1 246.2 L 273.8 250.1 L 276.7 254.0 L 279.6 257.9 L 282.7 261.5 L 285.9 265.1 L 289.3 268.4 L 292.8 271.5 L 296.3 275.2 L 300.0 278.0 Z" fill="none" stroke="#F32740" stroke-width="2.0" stroke-linejoin="round" stroke-linecap="round"/>
<text x="338" y="132" fill="#F32740" font-size="9.5" font-weight="700">150</text>
<text x="335" y="200" fill="#F32740" font-size="9.5" font-weight="700">300</text>
<text x="335" y="268" fill="#F32740" font-size="9.5" font-weight="700">450</text>
<text x="335" y="336" fill="#F32740" font-size="9.5" font-weight="700">600</text>
<rect x="274.0" y="58" width="52" height="11" rx="1.5" fill="#fafbfc" stroke="rgba(255,255,255,0.4)" stroke-width="0.5"/>
<line x1="272.0" y1="69.8" x2="328.0" y2="69.8" stroke="#F32740" stroke-width="0.7" stroke-dasharray="1.5 2"/>
<text x="300" y="66" text-anchor="middle" fill="#F32740" font-size="8" font-weight="700" letter-spacing="0.5">cd/klm SCALE</text>
<g transform="translate(22, 434)">
<text x="0" y="-8" fill="rgba(255,255,255,0.55)" font-size="8" letter-spacing="1.4">cd/klm</text>
<line x1="0" y1="6" x2="22" y2="6" stroke="#F32740" stroke-width="2.2"/>
<text x="28" y="9" fill="rgba(255,255,255,0.7)" font-size="9.5">C0 – C180</text>
<line x1="120" y1="6" x2="142" y2="6" stroke="#3FA9F5" stroke-width="1.7"/>
<text x="148" y="9" fill="rgba(255,255,255,0.7)" font-size="9.5">C90 – C270</text>
</g>
<text x="578" y="402" fill="rgba(255,255,255,0.45)" font-size="9" text-anchor="end">η = 140 lm/W</text>
<text x="578" y="418" fill="rgba(255,255,255,0.45)" font-size="9" text-anchor="end">2,591 lm · 18.5W</text>
<text x="578" y="434" fill="rgba(255,255,255,0.55)" font-size="8" letter-spacing="1.4" text-anchor="end">PEAK INTENSITY</text>
<text x="578" y="451" fill="#fff" font-weight="700" font-size="14" text-anchor="end">1,343 cd</text>
</svg>