<svg viewBox="0 0 600 460" xmlns="http://www.w3.org/2000/svg" font-family="JetBrains Mono, monospace" font-size="9.5">
<rect width="100%" height="100%" fill="#14171b"/>
<text x="22" y="26" fill="#F32740" font-weight="700" letter-spacing="2">LWPC100-S3N2-UD-BA-PSB_BA0_LV2-80W_3000K · 0W · — · FULL CUTOFF</text>
<text x="22" y="42" fill="rgba(255,255,255,0.55)" font-size="8" letter-spacing="1.4">LUMINOUS INTENSITY DISTRIBUTION (cd/klm)</text>
<path d="M 232.0 64.0 A 68.0 68.0 0 0 0 368.0 64.0" fill="none" stroke="rgba(120,200,200,0.18)" stroke-width="0.7"/>
<path d="M 164.0 64.0 A 136.0 136.0 0 0 0 436.0 64.0" fill="none" stroke="rgba(120,200,200,0.18)" stroke-width="0.7"/>
<path d="M 96.0 64.0 A 204.0 204.0 0 0 0 504.0 64.0" fill="none" stroke="rgba(120,200,200,0.18)" stroke-width="0.7"/>
<path d="M 28.0 64.0 A 272.0 272.0 0 0 0 572.0 64.0" fill="none" stroke="rgba(120,200,200,0.18)" stroke-width="0.7"/>
<path d="M -40.0 64.0 A 340.0 340.0 0 0 0 640.0 64.0" fill="none" stroke="rgba(120,200,200,0.18)" stroke-width="0.7"/>
<line x1="300.0" y1="64" x2="388.0" y2="392.4" stroke="rgba(120,200,200,0.10)" stroke-width="0.5"/>
<line x1="300.0" y1="64" x2="212.0" y2="392.4" stroke="rgba(120,200,200,0.10)" stroke-width="0.5"/>
<line x1="300.0" y1="64" x2="470.0" y2="358.4" stroke="rgba(120,200,200,0.10)" stroke-width="0.5"/>
<line x1="300.0" y1="64" x2="130.0" y2="358.4" stroke="rgba(120,200,200,0.10)" stroke-width="0.5"/>
<line x1="300.0" y1="64" x2="540.4" y2="304.4" stroke="rgba(120,200,200,0.10)" stroke-width="0.5"/>
<line x1="300.0" y1="64" x2="59.6" y2="304.4" stroke="rgba(120,200,200,0.10)" stroke-width="0.5"/>
<line x1="300.0" y1="64" x2="594.4" y2="234.0" stroke="rgba(120,200,200,0.10)" stroke-width="0.5"/>
<line x1="300.0" y1="64" x2="5.6" y2="234.0" stroke="rgba(120,200,200,0.10)" stroke-width="0.5"/>
<line x1="300.0" y1="64" x2="628.4" y2="152.0" stroke="rgba(120,200,200,0.10)" stroke-width="0.5"/>
<line x1="300.0" y1="64" x2="-28.4" y2="152.0" stroke="rgba(120,200,200,0.10)" stroke-width="0.5"/>
<line x1="300.0" y1="64" x2="640.0" y2="64.0" stroke="rgba(120,200,200,0.10)" stroke-width="0.5"/>
<line x1="300.0" y1="64" x2="-40.0" y2="64.0" stroke="rgba(120,200,200,0.10)" stroke-width="0.5"/>
<line x1="300.0" y1="64" x2="300.0" y2="408" stroke="rgba(120,200,200,0.14)" stroke-width="0.5"/>
<line x1="-40.0" y1="64" x2="640.0" y2="64" stroke="rgba(120,200,200,0.14)" stroke-width="0.5"/>
<text x="391.6" y="408.9" text-anchor="middle" fill="rgba(255,255,255,0.4)" font-size="9">15°</text>
<text x="208.4" y="408.9" text-anchor="middle" fill="rgba(255,255,255,0.4)" font-size="9">15°</text>
<text x="477.0" y="373.6" text-anchor="middle" fill="rgba(255,255,255,0.6)" font-size="9">30°</text>
<text x="123.0" y="373.6" text-anchor="middle" fill="rgba(255,255,255,0.6)" font-size="9">30°</text>
<text x="550.3" y="317.3" text-anchor="middle" fill="rgba(255,255,255,0.4)" font-size="9">45°</text>
<text x="49.7" y="317.3" text-anchor="middle" fill="rgba(255,255,255,0.4)" font-size="9">45°</text>
<text x="606.6" y="244.0" text-anchor="middle" fill="rgba(255,255,255,0.6)" font-size="9">60°</text>
<text x="-6.6" y="244.0" text-anchor="middle" fill="rgba(255,255,255,0.6)" font-size="9">60°</text>
<text x="641.9" y="158.6" text-anchor="middle" fill="rgba(255,255,255,0.4)" font-size="9">75°</text>
<text x="-41.9" y="158.6" text-anchor="middle" fill="rgba(255,255,255,0.4)" font-size="9">75°</text>
<text x="654.0" y="67.0" text-anchor="middle" fill="rgba(255,255,255,0.6)" font-size="9">90°</text>
<text x="-54.0" y="67.0" text-anchor="middle" fill="rgba(255,255,255,0.6)" font-size="9">90°</text>
<text x="300" y="426" text-anchor="middle" fill="rgba(255,255,255,0.6)" font-size="9">0°</text>
<path d="M 300.0 283.4 L 303.8 283.6 L 307.7 284.1 L 311.5 283.4 L 315.3 283.3 L 319.1 282.5 L 322.9 281.8 L 326.6 280.6 L 330.3 279.3 L 333.9 278.2 L 337.6 277.2 L 341.1 275.2 L 344.6 273.6 L 348.1 272.1 L 351.3 269.8 L 354.6 267.6 L 357.8 265.6 L 360.9 263.3 L 363.9 260.6 L 366.8 257.9 L 369.7 255.5 L 372.3 252.3 L 374.9 249.3 L 377.5 246.6 L 380.0 243.6 L 382.2 240.4 L 384.4 237.0 L 386.5 233.8 L 388.3 230.1 L 389.8 226.0 L 391.3 222.2 L 392.9 218.7 L 394.3 214.9 L 395.4 210.9 L 396.3 206.8 L 397.2 202.9 L 397.9 198.8 L 398.4 194.6 L 399.0 190.8 L 399.4 186.7 L 399.3 182.4 L 398.9 177.8 L 398.7 173.6 L 398.2 169.3 L 397.8 165.3 L 397.0 161.0 L 396.0 156.7 L 395.0 152.6 L 393.4 148.1 L 392.1 144.0 L 390.5 139.9 L 388.8 135.9 L 387.0 132.0 L 384.7 127.8 L 382.8 124.1 L 380.5 120.4 L 378.4 116.9 L 375.7 113.1 L 373.3 109.8 L 370.9 106.6 L 367.7 103.1 L 365.0 100.0 L 362.3 97.1 L 359.4 94.3 L 356.5 91.6 L 353.7 89.0 L 351.1 86.7 L 347.9 84.3 L 345.2 82.3 L 342.5 80.3 L 339.8 78.5 L 337.0 76.7 L 334.4 75.2 L 331.9 73.7 L 329.3 72.4 L 327.0 71.2 L 324.4 70.1 L 322.0 69.1 L 319.8 68.2 L 317.7 67.4 L 315.3 66.7 L 313.3 66.1 L 311.4 65.6 L 309.4 65.2 L 307.7 64.8 L 306.0 64.5 L 304.6 64.3 L 303.3 64.2 L 302.0 64.1 L 300.0 64.0 L 300.0 64.0 L 300.0 64.0 L 300.0 64.0 L 300.0 64.0 L 300.0 64.0 L 298.3 64.1 L 297.2 64.2 L 295.7 64.5 L 294.1 64.7 L 292.5 65.1 L 290.8 65.5 L 288.9 66.0 L 286.7 66.6 L 284.6 67.3 L 282.5 68.0 L 280.3 68.9 L 277.8 70.0 L 275.4 71.0 L 273.0 72.2 L 270.4 73.6 L 268.0 75.0 L 265.4 76.6 L 262.9 78.2 L 260.0 80.2 L 257.4 82.1 L 254.7 84.2 L 252.0 86.4 L 248.9 88.9 L 246.2 91.4 L 243.5 94.0 L 240.9 96.8 L 238.1 99.7 L 235.3 102.9 L 232.5 106.2 L 230.1 109.4 L 227.2 113.1 L 224.7 116.7 L 222.6 120.3 L 220.4 124.0 L 218.1 127.9 L 216.1 131.9 L 214.1 136.0 L 212.5 140.1 L 211.0 144.1 L 209.5 148.4 L 208.4 152.5 L 207.2 156.8 L 206.2 161.1 L 205.4 165.4 L 204.7 169.9 L 204.5 173.9 L 204.2 178.2 L 204.0 182.5 L 204.3 186.5 L 204.5 190.7 L 205.0 194.7 L 205.3 199.3 L 206.0 203.3 L 206.7 207.6 L 208.0 211.2 L 209.2 215.1 L 210.5 219.0 L 212.0 222.8 L 213.7 226.3 L 215.3 230.2 L 217.3 233.6 L 219.3 237.2 L 221.5 240.3 L 223.6 243.9 L 226.2 246.8 L 228.5 250.1 L 231.2 253.1 L 234.0 255.8 L 236.7 258.8 L 239.7 261.1 L 242.8 263.6 L 246.0 265.6 L 249.2 267.9 L 252.5 269.9 L 255.7 272.3 L 259.3 273.6 L 262.7 275.4 L 266.3 276.9 L 269.8 278.7 L 273.5 279.5 L 277.2 281.0 L 280.9 281.8 L 284.7 282.4 L 288.5 282.7 L 292.3 283.4 L 296.2 283.4 L 300.0 283.4 Z" fill="none" stroke="#3FA9F5" stroke-width="1.7" stroke-linejoin="round" stroke-linecap="round"/>
<path d="M 300.0 283.4 L 303.9 285.3 L 307.8 287.2 L 311.8 288.7 L 315.8 289.9 L 319.8 290.6 L 323.9 291.3 L 328.0 292.3 L 332.2 292.9 L 336.4 293.9 L 340.7 294.6 L 344.9 295.0 L 349.2 295.4 L 353.2 294.6 L 357.4 294.2 L 361.1 292.1 L 364.7 289.5 L 368.1 286.7 L 371.1 282.8 L 373.9 278.6 L 376.4 273.8 L 378.5 268.5 L 380.0 262.0 L 381.5 256.1 L 382.9 250.1 L 383.7 243.5 L 384.2 236.6 L 384.5 229.8 L 384.8 223.4 L 384.7 216.7 L 384.6 210.5 L 384.1 204.0 L 383.8 198.1 L 383.4 192.4 L 382.4 186.1 L 381.3 180.2 L 380.2 174.3 L 378.8 168.6 L 377.0 162.6 L 375.3 157.0 L 373.2 151.2 L 371.3 146.0 L 369.1 140.8 L 366.4 135.2 L 363.9 130.2 L 361.3 125.3 L 358.5 120.5 L 355.4 115.6 L 352.7 111.4 L 349.7 107.2 L 346.9 103.3 L 343.8 99.5 L 341.4 96.4 L 339.1 93.5 L 336.7 90.6 L 334.6 88.2 L 332.7 86.0 L 330.9 84.0 L 329.1 82.2 L 327.5 80.5 L 326.0 79.0 L 324.7 77.7 L 323.4 76.4 L 321.9 75.1 L 320.7 74.1 L 319.5 73.1 L 318.3 72.2 L 317.3 71.3 L 316.2 70.5 L 315.2 69.8 L 314.1 69.1 L 313.1 68.5 L 312.1 67.9 L 311.1 67.4 L 310.0 66.9 L 309.2 66.5 L 308.2 66.0 L 307.2 65.7 L 306.4 65.4 L 305.4 65.1 L 304.5 64.8 L 303.7 64.6 L 302.9 64.4 L 302.1 64.3 L 301.5 64.2 L 300.9 64.1 L 300.0 64.0 L 300.0 64.0 L 300.0 64.0 L 300.0 64.0 L 300.0 64.0 L 300.0 64.0 L 300.0 64.0 L 298.9 64.0 L 298.5 64.1 L 297.7 64.2 L 297.0 64.3 L 296.1 64.4 L 295.2 64.6 L 294.4 64.8 L 293.5 65.0 L 292.6 65.3 L 291.6 65.6 L 290.7 66.0 L 289.6 66.4 L 288.6 66.8 L 287.6 67.3 L 286.5 67.9 L 285.5 68.4 L 284.5 69.1 L 283.5 69.7 L 282.4 70.4 L 281.3 71.2 L 280.2 72.0 L 279.1 72.9 L 278.0 73.8 L 276.8 74.8 L 275.6 75.9 L 274.4 77.0 L 272.9 78.4 L 271.6 79.7 L 270.2 81.2 L 268.8 82.8 L 267.1 84.5 L 265.5 86.4 L 263.8 88.4 L 262.1 90.6 L 260.3 92.9 L 258.1 95.5 L 256.3 98.1 L 254.4 100.9 L 252.6 103.8 L 250.6 107.0 L 248.9 110.0 L 247.3 113.1 L 245.9 116.2 L 244.6 119.4 L 243.4 122.6 L 242.4 125.8 L 241.6 128.8 L 240.8 132.1 L 240.5 134.9 L 240.2 137.8 L 240.1 140.7 L 240.1 143.5 L 240.2 146.3 L 240.3 149.2 L 240.7 152.0 L 240.8 155.1 L 241.0 158.5 L 241.3 161.7 L 241.7 165.0 L 242.2 168.4 L 242.6 172.0 L 242.8 176.3 L 243.4 180.1 L 244.1 184.0 L 244.7 188.1 L 245.5 192.4 L 246.4 196.6 L 247.3 201.4 L 248.4 205.7 L 249.8 209.8 L 251.1 214.5 L 252.7 218.7 L 254.5 222.8 L 256.3 226.9 L 258.4 230.8 L 260.6 234.4 L 263.0 238.3 L 265.4 241.8 L 267.9 245.8 L 270.7 249.2 L 273.5 252.7 L 276.3 256.7 L 279.4 260.1 L 282.5 263.5 L 285.7 267.8 L 289.1 271.7 L 292.6 275.5 L 296.2 279.2 L 300.0 283.4 Z" fill="none" stroke="#F32740" stroke-width="2.0" stroke-linejoin="round" stroke-linecap="round"/>
<text x="338" y="132" fill="#F32740" font-size="9.5" font-weight="700">150</text>
<text x="335" y="200" fill="#F32740" font-size="9.5" font-weight="700">300</text>
<text x="335" y="268" fill="#F32740" font-size="9.5" font-weight="700">450</text>
<text x="335" y="336" fill="#F32740" font-size="9.5" font-weight="700">600</text>
<rect x="274.0" y="58" width="52" height="11" rx="1.5" fill="#fafbfc" stroke="rgba(255,255,255,0.4)" stroke-width="0.5"/>
<line x1="272.0" y1="69.8" x2="328.0" y2="69.8" stroke="#F32740" stroke-width="0.7" stroke-dasharray="1.5 2"/>
<text x="300" y="66" text-anchor="middle" fill="#F32740" font-size="8" font-weight="700" letter-spacing="0.5">cd/klm SCALE</text>
<g transform="translate(22, 434)">
<text x="0" y="-8" fill="rgba(255,255,255,0.55)" font-size="8" letter-spacing="1.4">cd/klm</text>
<line x1="0" y1="6" x2="22" y2="6" stroke="#F32740" stroke-width="2.2"/>
<text x="28" y="9" fill="rgba(255,255,255,0.7)" font-size="9.5">C0 – C180</text>
<line x1="120" y1="6" x2="142" y2="6" stroke="#3FA9F5" stroke-width="1.7"/>
<text x="148" y="9" fill="rgba(255,255,255,0.7)" font-size="9.5">C90 – C270</text>
</g>
<text x="578" y="402" fill="rgba(255,255,255,0.45)" font-size="9" text-anchor="end">η = 140 lm/W</text>
<text x="578" y="418" fill="rgba(255,255,255,0.45)" font-size="9" text-anchor="end">11,724 lm · 83.5W</text>
<text x="578" y="434" fill="rgba(255,255,255,0.55)" font-size="8" letter-spacing="1.4" text-anchor="end">PEAK INTENSITY</text>
<text x="578" y="451" fill="#fff" font-weight="700" font-size="14" text-anchor="end">6,135 cd</text>
</svg>