<svg viewBox="0 0 600 460" xmlns="http://www.w3.org/2000/svg" font-family="JetBrains Mono, monospace" font-size="9.5">
<rect width="100%" height="100%" fill="#14171b"/>
<text x="22" y="26" fill="#F32740" font-weight="700" letter-spacing="2">LWPC100-S3N2-UD-BA-PSB_BA0_LV3-60W_4000K · 0W · — · FULL CUTOFF</text>
<text x="22" y="42" fill="rgba(255,255,255,0.55)" font-size="8" letter-spacing="1.4">LUMINOUS INTENSITY DISTRIBUTION (cd/klm)</text>
<path d="M 232.0 64.0 A 68.0 68.0 0 0 0 368.0 64.0" fill="none" stroke="rgba(120,200,200,0.18)" stroke-width="0.7"/>
<path d="M 164.0 64.0 A 136.0 136.0 0 0 0 436.0 64.0" fill="none" stroke="rgba(120,200,200,0.18)" stroke-width="0.7"/>
<path d="M 96.0 64.0 A 204.0 204.0 0 0 0 504.0 64.0" fill="none" stroke="rgba(120,200,200,0.18)" stroke-width="0.7"/>
<path d="M 28.0 64.0 A 272.0 272.0 0 0 0 572.0 64.0" fill="none" stroke="rgba(120,200,200,0.18)" stroke-width="0.7"/>
<path d="M -40.0 64.0 A 340.0 340.0 0 0 0 640.0 64.0" fill="none" stroke="rgba(120,200,200,0.18)" stroke-width="0.7"/>
<line x1="300.0" y1="64" x2="388.0" y2="392.4" stroke="rgba(120,200,200,0.10)" stroke-width="0.5"/>
<line x1="300.0" y1="64" x2="212.0" y2="392.4" stroke="rgba(120,200,200,0.10)" stroke-width="0.5"/>
<line x1="300.0" y1="64" x2="470.0" y2="358.4" stroke="rgba(120,200,200,0.10)" stroke-width="0.5"/>
<line x1="300.0" y1="64" x2="130.0" y2="358.4" stroke="rgba(120,200,200,0.10)" stroke-width="0.5"/>
<line x1="300.0" y1="64" x2="540.4" y2="304.4" stroke="rgba(120,200,200,0.10)" stroke-width="0.5"/>
<line x1="300.0" y1="64" x2="59.6" y2="304.4" stroke="rgba(120,200,200,0.10)" stroke-width="0.5"/>
<line x1="300.0" y1="64" x2="594.4" y2="234.0" stroke="rgba(120,200,200,0.10)" stroke-width="0.5"/>
<line x1="300.0" y1="64" x2="5.6" y2="234.0" stroke="rgba(120,200,200,0.10)" stroke-width="0.5"/>
<line x1="300.0" y1="64" x2="628.4" y2="152.0" stroke="rgba(120,200,200,0.10)" stroke-width="0.5"/>
<line x1="300.0" y1="64" x2="-28.4" y2="152.0" stroke="rgba(120,200,200,0.10)" stroke-width="0.5"/>
<line x1="300.0" y1="64" x2="640.0" y2="64.0" stroke="rgba(120,200,200,0.10)" stroke-width="0.5"/>
<line x1="300.0" y1="64" x2="-40.0" y2="64.0" stroke="rgba(120,200,200,0.10)" stroke-width="0.5"/>
<line x1="300.0" y1="64" x2="300.0" y2="408" stroke="rgba(120,200,200,0.14)" stroke-width="0.5"/>
<line x1="-40.0" y1="64" x2="640.0" y2="64" stroke="rgba(120,200,200,0.14)" stroke-width="0.5"/>
<text x="391.6" y="408.9" text-anchor="middle" fill="rgba(255,255,255,0.4)" font-size="9">15°</text>
<text x="208.4" y="408.9" text-anchor="middle" fill="rgba(255,255,255,0.4)" font-size="9">15°</text>
<text x="477.0" y="373.6" text-anchor="middle" fill="rgba(255,255,255,0.6)" font-size="9">30°</text>
<text x="123.0" y="373.6" text-anchor="middle" fill="rgba(255,255,255,0.6)" font-size="9">30°</text>
<text x="550.3" y="317.3" text-anchor="middle" fill="rgba(255,255,255,0.4)" font-size="9">45°</text>
<text x="49.7" y="317.3" text-anchor="middle" fill="rgba(255,255,255,0.4)" font-size="9">45°</text>
<text x="606.6" y="244.0" text-anchor="middle" fill="rgba(255,255,255,0.6)" font-size="9">60°</text>
<text x="-6.6" y="244.0" text-anchor="middle" fill="rgba(255,255,255,0.6)" font-size="9">60°</text>
<text x="641.9" y="158.6" text-anchor="middle" fill="rgba(255,255,255,0.4)" font-size="9">75°</text>
<text x="-41.9" y="158.6" text-anchor="middle" fill="rgba(255,255,255,0.4)" font-size="9">75°</text>
<text x="654.0" y="67.0" text-anchor="middle" fill="rgba(255,255,255,0.6)" font-size="9">90°</text>
<text x="-54.0" y="67.0" text-anchor="middle" fill="rgba(255,255,255,0.6)" font-size="9">90°</text>
<text x="300" y="426" text-anchor="middle" fill="rgba(255,255,255,0.6)" font-size="9">0°</text>
<path d="M 300.0 288.8 L 303.9 288.4 L 307.8 287.9 L 311.7 287.7 L 315.7 287.8 L 319.5 287.2 L 323.3 286.0 L 327.1 285.1 L 330.9 283.8 L 334.5 281.9 L 338.2 280.9 L 341.9 279.3 L 345.5 278.3 L 349.0 276.3 L 352.4 274.2 L 355.8 272.3 L 359.0 269.7 L 362.2 267.4 L 365.2 264.8 L 368.3 262.2 L 371.1 259.4 L 373.8 256.4 L 376.4 253.2 L 379.0 250.2 L 381.4 246.7 L 383.9 244.0 L 386.1 240.5 L 388.0 236.7 L 390.0 233.3 L 391.9 229.8 L 393.1 225.2 L 394.7 221.5 L 396.0 217.6 L 397.3 213.9 L 398.5 210.0 L 399.4 205.9 L 400.2 201.9 L 400.6 197.5 L 400.8 193.0 L 401.2 188.9 L 401.2 184.6 L 401.3 180.6 L 400.8 176.0 L 400.2 171.4 L 399.7 167.2 L 398.9 162.9 L 398.2 158.9 L 397.2 154.6 L 395.5 150.0 L 394.0 145.7 L 392.5 141.6 L 390.8 137.5 L 389.1 133.6 L 386.8 129.4 L 384.7 125.5 L 382.5 121.8 L 380.1 118.0 L 377.3 114.2 L 374.9 110.8 L 372.1 107.3 L 369.5 104.1 L 366.3 100.7 L 363.7 97.9 L 360.8 95.0 L 358.0 92.3 L 355.1 89.7 L 352.1 87.2 L 349.4 85.0 L 346.4 82.8 L 343.4 80.7 L 340.7 78.8 L 338.1 77.1 L 335.4 75.5 L 332.6 74.0 L 330.0 72.6 L 327.5 71.4 L 325.1 70.3 L 322.4 69.2 L 320.1 68.3 L 318.0 67.5 L 315.6 66.8 L 313.5 66.1 L 311.6 65.6 L 309.7 65.2 L 307.9 64.8 L 306.1 64.5 L 304.6 64.3 L 303.2 64.2 L 302.0 64.1 L 300.0 64.0 L 300.0 64.0 L 300.0 64.0 L 300.0 64.0 L 300.0 64.0 L 300.0 64.0 L 298.2 64.1 L 297.0 64.3 L 295.7 64.5 L 294.3 64.7 L 292.4 65.1 L 290.8 65.5 L 288.9 66.0 L 287.0 66.5 L 284.8 67.2 L 282.7 68.0 L 280.5 68.9 L 278.1 69.9 L 275.8 70.9 L 273.4 72.1 L 271.0 73.4 L 268.4 74.9 L 265.9 76.4 L 263.3 78.1 L 260.7 79.9 L 258.0 81.8 L 255.1 84.0 L 252.4 86.2 L 249.7 88.5 L 246.7 91.2 L 243.9 93.8 L 241.3 96.5 L 238.5 99.5 L 235.7 102.7 L 233.0 105.9 L 230.4 109.2 L 228.0 112.6 L 225.0 116.5 L 222.6 120.2 L 220.2 124.1 L 218.3 127.8 L 216.3 131.8 L 214.2 136.0 L 212.5 140.1 L 210.9 144.2 L 209.2 148.7 L 208.2 152.7 L 206.7 157.3 L 205.9 161.5 L 204.9 166.0 L 204.4 170.2 L 203.8 174.6 L 203.5 179.1 L 203.4 183.3 L 203.4 187.6 L 203.7 191.8 L 204.1 196.0 L 204.7 200.1 L 205.5 204.2 L 206.2 208.5 L 206.9 212.9 L 208.2 216.8 L 209.5 220.8 L 211.0 224.5 L 212.6 228.4 L 214.4 231.9 L 216.1 236.0 L 218.4 239.0 L 220.5 242.5 L 222.6 246.3 L 225.0 249.6 L 227.6 252.5 L 230.2 255.9 L 232.9 258.9 L 235.8 261.4 L 238.7 264.5 L 241.9 266.7 L 245.0 269.1 L 248.3 271.5 L 251.7 273.1 L 255.1 275.2 L 258.5 277.6 L 262.1 279.2 L 265.6 281.0 L 269.3 282.8 L 273.0 283.6 L 276.7 285.3 L 280.6 285.8 L 284.5 286.3 L 288.3 287.1 L 292.2 287.4 L 296.1 288.2 L 300.0 288.8 Z" fill="none" stroke="#3FA9F5" stroke-width="1.7" stroke-linejoin="round" stroke-linecap="round"/>
<path d="M 300.0 288.8 L 304.0 291.5 L 308.0 292.5 L 312.0 293.6 L 316.1 294.3 L 320.2 294.6 L 324.4 296.0 L 328.6 297.1 L 332.8 297.6 L 337.2 298.6 L 341.4 299.1 L 345.5 298.2 L 349.5 296.9 L 353.3 294.9 L 357.0 292.5 L 360.3 289.0 L 363.5 285.3 L 366.5 281.5 L 369.0 276.5 L 371.4 271.3 L 373.2 265.0 L 375.0 259.3 L 376.4 253.0 L 377.5 246.7 L 378.4 240.0 L 378.9 233.3 L 379.4 226.9 L 379.2 219.5 L 379.5 213.5 L 379.4 207.2 L 379.2 201.2 L 378.8 195.2 L 378.2 189.2 L 377.1 182.7 L 376.0 176.7 L 374.9 171.0 L 373.6 165.2 L 371.9 159.5 L 369.9 153.5 L 368.1 148.0 L 366.1 142.8 L 363.9 137.5 L 361.5 132.3 L 358.8 127.0 L 356.2 122.2 L 353.7 117.7 L 350.8 113.0 L 347.6 108.4 L 344.9 104.5 L 342.5 100.9 L 340.0 97.5 L 337.7 94.5 L 335.7 91.9 L 333.7 89.4 L 331.7 87.0 L 330.0 85.0 L 328.4 83.1 L 326.8 81.4 L 325.4 79.9 L 324.0 78.4 L 322.7 77.1 L 321.4 75.9 L 320.3 74.8 L 319.2 73.8 L 318.2 72.9 L 317.0 71.9 L 315.9 71.1 L 314.9 70.3 L 313.9 69.6 L 312.8 68.9 L 311.8 68.3 L 310.9 67.8 L 309.9 67.2 L 308.9 66.7 L 308.0 66.3 L 307.1 65.9 L 306.2 65.5 L 305.3 65.2 L 304.3 64.9 L 303.5 64.7 L 302.7 64.5 L 302.0 64.3 L 301.4 64.2 L 300.8 64.1 L 300.0 64.0 L 300.0 64.0 L 300.0 64.0 L 300.0 64.0 L 300.0 64.0 L 300.0 64.0 L 300.0 64.0 L 300.0 64.0 L 298.1 64.0 L 297.3 64.1 L 296.6 64.2 L 295.6 64.3 L 294.8 64.5 L 293.9 64.6 L 293.0 64.9 L 292.0 65.1 L 291.1 65.4 L 290.0 65.8 L 289.1 66.1 L 287.9 66.6 L 286.8 67.0 L 285.8 67.5 L 284.8 68.1 L 283.7 68.7 L 282.7 69.3 L 281.6 70.0 L 280.4 70.7 L 279.4 71.5 L 278.1 72.4 L 276.9 73.3 L 275.7 74.3 L 274.3 75.5 L 272.9 76.6 L 271.5 77.9 L 270.2 79.2 L 268.5 80.7 L 266.9 82.3 L 265.3 84.1 L 263.5 85.9 L 261.3 88.2 L 259.5 90.3 L 257.5 92.7 L 255.5 95.2 L 253.4 97.9 L 251.4 100.6 L 249.5 103.5 L 247.7 106.3 L 245.8 109.5 L 243.8 112.8 L 242.3 116.0 L 240.9 119.1 L 239.7 122.3 L 238.5 125.5 L 237.7 128.6 L 236.9 131.7 L 236.4 134.6 L 236.2 137.4 L 236.0 140.3 L 235.8 143.2 L 235.9 146.1 L 235.6 149.5 L 235.9 152.2 L 236.0 155.5 L 236.2 158.5 L 236.4 162.0 L 236.6 165.5 L 237.0 168.9 L 237.3 172.6 L 237.8 176.2 L 238.1 180.5 L 238.5 184.8 L 239.1 188.8 L 239.8 193.1 L 240.4 197.8 L 241.3 202.4 L 242.3 206.9 L 243.5 211.2 L 244.9 215.4 L 246.4 219.5 L 248.1 223.6 L 249.9 228.0 L 251.9 231.8 L 254.0 235.7 L 256.1 240.0 L 258.6 243.5 L 261.0 247.4 L 263.7 251.0 L 266.4 254.8 L 269.2 258.5 L 272.2 261.7 L 275.2 265.6 L 278.4 269.8 L 281.6 274.0 L 285.0 277.9 L 288.6 281.7 L 292.3 284.9 L 296.1 287.5 L 300.0 288.8 Z" fill="none" stroke="#F32740" stroke-width="2.0" stroke-linejoin="round" stroke-linecap="round"/>
<text x="338" y="132" fill="#F32740" font-size="9.5" font-weight="700">150</text>
<text x="335" y="200" fill="#F32740" font-size="9.5" font-weight="700">300</text>
<text x="335" y="268" fill="#F32740" font-size="9.5" font-weight="700">450</text>
<text x="335" y="336" fill="#F32740" font-size="9.5" font-weight="700">600</text>
<rect x="274.0" y="58" width="52" height="11" rx="1.5" fill="#fafbfc" stroke="rgba(255,255,255,0.4)" stroke-width="0.5"/>
<line x1="272.0" y1="69.8" x2="328.0" y2="69.8" stroke="#F32740" stroke-width="0.7" stroke-dasharray="1.5 2"/>
<text x="300" y="66" text-anchor="middle" fill="#F32740" font-size="8" font-weight="700" letter-spacing="0.5">cd/klm SCALE</text>
<g transform="translate(22, 434)">
<text x="0" y="-8" fill="rgba(255,255,255,0.55)" font-size="8" letter-spacing="1.4">cd/klm</text>
<line x1="0" y1="6" x2="22" y2="6" stroke="#F32740" stroke-width="2.2"/>
<text x="28" y="9" fill="rgba(255,255,255,0.7)" font-size="9.5">C0 – C180</text>
<line x1="120" y1="6" x2="142" y2="6" stroke="#3FA9F5" stroke-width="1.7"/>
<text x="148" y="9" fill="rgba(255,255,255,0.7)" font-size="9.5">C90 – C270</text>
</g>
<text x="578" y="402" fill="rgba(255,255,255,0.45)" font-size="9" text-anchor="end">η = 170 lm/W</text>
<text x="578" y="418" fill="rgba(255,255,255,0.45)" font-size="9" text-anchor="end">10,396 lm · 61.2W</text>
<text x="578" y="434" fill="rgba(255,255,255,0.55)" font-size="8" letter-spacing="1.4" text-anchor="end">PEAK INTENSITY</text>
<text x="578" y="451" fill="#fff" font-weight="700" font-size="14" text-anchor="end">5,474 cd</text>
</svg>