<svg viewBox="0 0 600 460" xmlns="http://www.w3.org/2000/svg" font-family="JetBrains Mono, monospace" font-size="9.5">
<rect width="100%" height="100%" fill="#14171b"/>
<text x="22" y="26" fill="#F32740" font-weight="700" letter-spacing="2">LWPC100-S3N2-UD-BA-PSB_BA45_LV2-80W_5000K · 0W · — · FULL CUTOFF</text>
<text x="22" y="42" fill="rgba(255,255,255,0.55)" font-size="8" letter-spacing="1.4">LUMINOUS INTENSITY DISTRIBUTION (cd/klm)</text>
<path d="M 232.0 64.0 A 68.0 68.0 0 0 0 368.0 64.0" fill="none" stroke="rgba(120,200,200,0.18)" stroke-width="0.7"/>
<path d="M 164.0 64.0 A 136.0 136.0 0 0 0 436.0 64.0" fill="none" stroke="rgba(120,200,200,0.18)" stroke-width="0.7"/>
<path d="M 96.0 64.0 A 204.0 204.0 0 0 0 504.0 64.0" fill="none" stroke="rgba(120,200,200,0.18)" stroke-width="0.7"/>
<path d="M 28.0 64.0 A 272.0 272.0 0 0 0 572.0 64.0" fill="none" stroke="rgba(120,200,200,0.18)" stroke-width="0.7"/>
<path d="M -40.0 64.0 A 340.0 340.0 0 0 0 640.0 64.0" fill="none" stroke="rgba(120,200,200,0.18)" stroke-width="0.7"/>
<line x1="300.0" y1="64" x2="388.0" y2="392.4" stroke="rgba(120,200,200,0.10)" stroke-width="0.5"/>
<line x1="300.0" y1="64" x2="212.0" y2="392.4" stroke="rgba(120,200,200,0.10)" stroke-width="0.5"/>
<line x1="300.0" y1="64" x2="470.0" y2="358.4" stroke="rgba(120,200,200,0.10)" stroke-width="0.5"/>
<line x1="300.0" y1="64" x2="130.0" y2="358.4" stroke="rgba(120,200,200,0.10)" stroke-width="0.5"/>
<line x1="300.0" y1="64" x2="540.4" y2="304.4" stroke="rgba(120,200,200,0.10)" stroke-width="0.5"/>
<line x1="300.0" y1="64" x2="59.6" y2="304.4" stroke="rgba(120,200,200,0.10)" stroke-width="0.5"/>
<line x1="300.0" y1="64" x2="594.4" y2="234.0" stroke="rgba(120,200,200,0.10)" stroke-width="0.5"/>
<line x1="300.0" y1="64" x2="5.6" y2="234.0" stroke="rgba(120,200,200,0.10)" stroke-width="0.5"/>
<line x1="300.0" y1="64" x2="628.4" y2="152.0" stroke="rgba(120,200,200,0.10)" stroke-width="0.5"/>
<line x1="300.0" y1="64" x2="-28.4" y2="152.0" stroke="rgba(120,200,200,0.10)" stroke-width="0.5"/>
<line x1="300.0" y1="64" x2="640.0" y2="64.0" stroke="rgba(120,200,200,0.10)" stroke-width="0.5"/>
<line x1="300.0" y1="64" x2="-40.0" y2="64.0" stroke="rgba(120,200,200,0.10)" stroke-width="0.5"/>
<line x1="300.0" y1="64" x2="300.0" y2="408" stroke="rgba(120,200,200,0.14)" stroke-width="0.5"/>
<line x1="-40.0" y1="64" x2="640.0" y2="64" stroke="rgba(120,200,200,0.14)" stroke-width="0.5"/>
<text x="391.6" y="408.9" text-anchor="middle" fill="rgba(255,255,255,0.4)" font-size="9">15°</text>
<text x="208.4" y="408.9" text-anchor="middle" fill="rgba(255,255,255,0.4)" font-size="9">15°</text>
<text x="477.0" y="373.6" text-anchor="middle" fill="rgba(255,255,255,0.6)" font-size="9">30°</text>
<text x="123.0" y="373.6" text-anchor="middle" fill="rgba(255,255,255,0.6)" font-size="9">30°</text>
<text x="550.3" y="317.3" text-anchor="middle" fill="rgba(255,255,255,0.4)" font-size="9">45°</text>
<text x="49.7" y="317.3" text-anchor="middle" fill="rgba(255,255,255,0.4)" font-size="9">45°</text>
<text x="606.6" y="244.0" text-anchor="middle" fill="rgba(255,255,255,0.6)" font-size="9">60°</text>
<text x="-6.6" y="244.0" text-anchor="middle" fill="rgba(255,255,255,0.6)" font-size="9">60°</text>
<text x="641.9" y="158.6" text-anchor="middle" fill="rgba(255,255,255,0.4)" font-size="9">75°</text>
<text x="-41.9" y="158.6" text-anchor="middle" fill="rgba(255,255,255,0.4)" font-size="9">75°</text>
<text x="654.0" y="67.0" text-anchor="middle" fill="rgba(255,255,255,0.6)" font-size="9">90°</text>
<text x="-54.0" y="67.0" text-anchor="middle" fill="rgba(255,255,255,0.6)" font-size="9">90°</text>
<text x="300" y="426" text-anchor="middle" fill="rgba(255,255,255,0.6)" font-size="9">0°</text>
<path d="M 300.0 142.5 L 301.4 142.2 L 302.7 142.3 L 304.1 142.1 L 305.4 141.9 L 306.8 141.7 L 308.1 141.3 L 309.5 141.0 L 310.8 140.5 L 312.1 140.2 L 313.3 139.7 L 314.6 139.2 L 315.9 138.6 L 317.0 137.8 L 318.2 137.1 L 319.4 136.5 L 320.5 135.6 L 321.7 134.8 L 322.7 133.8 L 323.7 132.9 L 324.7 131.9 L 325.7 130.8 L 326.6 129.8 L 327.5 128.7 L 328.3 127.6 L 329.2 126.6 L 329.8 125.1 L 330.5 123.9 L 331.2 122.7 L 331.9 121.5 L 332.4 120.2 L 333.0 118.9 L 333.4 117.5 L 333.9 116.2 L 334.3 114.9 L 334.7 113.5 L 335.0 112.2 L 335.2 110.7 L 335.4 109.3 L 335.7 108.0 L 335.7 106.6 L 335.8 105.1 L 335.9 103.9 L 336.0 102.6 L 336.0 101.2 L 336.0 100.0 L 335.9 98.7 L 335.7 97.3 L 335.6 96.0 L 335.4 94.8 L 335.1 93.4 L 334.7 92.1 L 334.3 90.8 L 333.9 89.5 L 333.4 88.3 L 332.8 87.0 L 332.2 85.7 L 331.5 84.4 L 330.8 83.3 L 330.1 82.1 L 329.3 80.9 L 328.5 79.8 L 327.7 78.7 L 326.8 77.7 L 325.9 76.6 L 325.0 75.6 L 323.9 74.6 L 323.0 73.8 L 322.0 72.9 L 321.0 72.1 L 319.8 71.2 L 318.8 70.5 L 317.6 69.7 L 316.5 69.0 L 315.3 68.4 L 314.1 67.8 L 313.0 67.2 L 311.8 66.7 L 310.7 66.3 L 309.5 65.8 L 308.3 65.5 L 307.3 65.2 L 306.2 64.9 L 305.1 64.6 L 304.1 64.4 L 303.2 64.3 L 302.2 64.2 L 301.6 64.1 L 300.9 64.0 L 300.3 64.0 L 300.0 64.0 L 300.0 64.0 L 300.0 64.0 L 300.0 64.0 L 299.4 64.0 L 298.8 64.1 L 298.1 64.2 L 297.3 64.3 L 296.4 64.4 L 295.6 64.6 L 294.5 64.9 L 293.4 65.2 L 292.4 65.5 L 291.3 65.9 L 290.2 66.3 L 289.0 66.7 L 287.9 67.2 L 286.6 67.8 L 285.6 68.4 L 284.5 69.0 L 283.4 69.7 L 282.4 70.4 L 281.2 71.2 L 280.1 72.0 L 279.1 72.9 L 278.1 73.7 L 277.0 74.7 L 276.1 75.7 L 275.2 76.6 L 274.2 77.7 L 273.4 78.7 L 272.6 79.8 L 271.8 80.9 L 271.1 82.1 L 270.2 83.3 L 269.5 84.6 L 268.9 85.8 L 268.4 87.0 L 267.7 88.3 L 267.3 89.6 L 266.8 90.9 L 266.4 92.2 L 266.1 93.5 L 265.8 94.8 L 265.6 96.1 L 265.4 97.4 L 265.2 98.8 L 265.1 100.2 L 265.1 101.5 L 265.1 102.8 L 265.1 104.1 L 265.2 105.5 L 265.4 106.7 L 265.5 108.1 L 265.7 109.5 L 265.9 111.0 L 266.2 112.2 L 266.5 113.6 L 266.9 115.0 L 267.3 116.3 L 267.8 117.6 L 268.3 118.9 L 268.8 120.3 L 269.4 121.5 L 270.1 122.8 L 270.8 123.9 L 271.4 125.3 L 272.3 126.3 L 273.0 127.7 L 273.8 128.8 L 274.7 129.8 L 275.6 130.9 L 276.6 131.9 L 277.7 132.8 L 278.7 133.8 L 279.7 134.6 L 280.8 135.5 L 281.9 136.5 L 283.1 137.3 L 284.3 137.9 L 285.5 138.6 L 286.7 139.3 L 288.0 139.7 L 289.3 140.1 L 290.6 140.7 L 291.9 141.1 L 293.2 141.3 L 294.6 141.5 L 295.9 141.9 L 297.3 142.0 L 298.6 142.0 L 300.0 142.5 Z" fill="none" stroke="#3FA9F5" stroke-width="1.7" stroke-linejoin="round" stroke-linecap="round"/>
<path d="M 300.0 142.5 L 301.4 145.7 L 303.0 148.8 L 304.6 152.0 L 306.3 154.6 L 308.1 156.9 L 310.0 159.2 L 311.9 161.3 L 314.0 163.7 L 316.1 165.5 L 318.2 167.4 L 320.5 169.4 L 322.8 171.2 L 325.2 173.2 L 327.7 175.2 L 330.4 177.5 L 333.3 180.1 L 336.1 182.2 L 339.2 184.6 L 342.3 186.9 L 345.6 189.2 L 349.0 191.6 L 352.4 193.8 L 356.1 196.1 L 360.0 198.8 L 364.0 201.3 L 367.9 203.3 L 371.9 205.1 L 376.0 207.0 L 380.5 209.2 L 384.6 210.5 L 388.8 211.7 L 393.0 212.9 L 397.3 213.9 L 401.6 214.6 L 406.0 215.4 L 410.4 216.0 L 415.2 216.8 L 420.0 217.6 L 424.4 217.6 L 429.2 217.9 L 434.4 218.6 L 439.2 218.6 L 444.5 219.0 L 449.9 219.2 L 455.0 219.0 L 460.0 218.6 L 464.3 217.2 L 468.7 215.9 L 472.2 213.7 L 475.9 211.6 L 479.3 209.2 L 482.5 206.6 L 485.9 204.1 L 489.8 201.9 L 493.3 199.3 L 496.4 196.5 L 499.8 193.7 L 502.5 190.5 L 504.6 186.9 L 505.9 182.9 L 506.6 178.5 L 507.3 174.2 L 507.0 169.5 L 506.0 164.5 L 504.8 159.5 L 502.6 154.2 L 500.1 148.9 L 496.9 143.6 L 493.4 138.2 L 489.4 132.9 L 485.4 127.8 L 480.2 122.6 L 475.8 117.7 L 471.1 113.1 L 466.8 108.7 L 462.0 104.4 L 457.3 100.3 L 453.0 96.5 L 448.1 92.8 L 442.6 89.1 L 437.7 85.8 L 432.4 82.6 L 427.1 79.6 L 421.0 76.7 L 415.9 74.1 L 410.2 71.7 L 405.0 69.5 L 399.4 67.5 L 393.4 65.6 L 388.0 64.0 L 300.0 64.0 L 300.0 64.0 L 300.0 64.0 L 300.0 64.0 L 300.0 64.0 L 300.0 64.0 L 300.0 64.0 L 300.0 64.0 L 300.0 64.0 L 300.0 64.0 L 300.0 64.0 L 300.0 64.0 L 300.0 64.0 L 300.0 64.0 L 300.0 64.0 L 300.0 64.0 L 300.0 64.0 L 300.0 64.0 L 300.0 64.0 L 300.0 64.0 L 300.0 64.0 L 300.0 64.0 L 300.0 64.0 L 300.0 64.0 L 300.0 64.0 L 300.0 64.0 L 300.0 64.0 L 300.0 64.0 L 300.0 64.0 L 300.0 64.0 L 300.0 64.0 L 300.0 64.0 L 300.0 64.0 L 300.0 64.0 L 300.0 64.0 L 300.0 64.0 L 300.0 64.0 L 300.0 64.0 L 300.0 64.0 L 300.0 64.0 L 300.0 64.0 L 300.0 64.0 L 300.0 64.0 L 300.0 64.0 L 300.0 64.0 L 300.0 64.0 L 299.6 64.4 L 299.3 64.8 L 298.9 65.2 L 298.4 65.8 L 297.9 66.4 L 297.4 67.2 L 296.9 67.9 L 296.5 68.7 L 296.0 69.5 L 295.5 70.4 L 295.1 71.3 L 294.7 72.2 L 294.3 73.1 L 293.9 74.2 L 293.5 75.3 L 293.1 76.5 L 292.7 77.6 L 292.5 78.7 L 292.2 79.9 L 292.0 81.1 L 291.8 82.5 L 291.6 83.8 L 291.5 85.1 L 291.3 86.7 L 291.2 88.1 L 291.1 89.9 L 291.1 91.5 L 291.0 93.4 L 291.0 95.4 L 291.0 97.4 L 291.1 99.8 L 291.2 102.2 L 291.4 104.5 L 291.6 107.4 L 291.9 110.0 L 292.2 113.0 L 292.7 116.1 L 293.2 119.2 L 293.8 123.0 L 294.6 126.2 L 295.4 129.5 L 296.4 132.8 L 297.5 136.5 L 298.7 139.7 L 300.0 142.5 Z" fill="none" stroke="#F32740" stroke-width="2.0" stroke-linejoin="round" stroke-linecap="round"/>
<text x="338" y="132" fill="#F32740" font-size="9.5" font-weight="700">150</text>
<text x="335" y="200" fill="#F32740" font-size="9.5" font-weight="700">300</text>
<text x="335" y="268" fill="#F32740" font-size="9.5" font-weight="700">450</text>
<text x="335" y="336" fill="#F32740" font-size="9.5" font-weight="700">600</text>
<rect x="274.0" y="58" width="52" height="11" rx="1.5" fill="#fafbfc" stroke="rgba(255,255,255,0.4)" stroke-width="0.5"/>
<line x1="272.0" y1="69.8" x2="328.0" y2="69.8" stroke="#F32740" stroke-width="0.7" stroke-dasharray="1.5 2"/>
<text x="300" y="66" text-anchor="middle" fill="#F32740" font-size="8" font-weight="700" letter-spacing="0.5">cd/klm SCALE</text>
<g transform="translate(22, 434)">
<text x="0" y="-8" fill="rgba(255,255,255,0.55)" font-size="8" letter-spacing="1.4">cd/klm</text>
<line x1="0" y1="6" x2="22" y2="6" stroke="#F32740" stroke-width="2.2"/>
<text x="28" y="9" fill="rgba(255,255,255,0.7)" font-size="9.5">C0 – C180</text>
<line x1="120" y1="6" x2="142" y2="6" stroke="#3FA9F5" stroke-width="1.7"/>
<text x="148" y="9" fill="rgba(255,255,255,0.7)" font-size="9.5">C90 – C270</text>
</g>
<text x="578" y="402" fill="rgba(255,255,255,0.45)" font-size="9" text-anchor="end">η = 143 lm/W</text>
<text x="578" y="418" fill="rgba(255,255,255,0.45)" font-size="9" text-anchor="end">12,008 lm · 83.7W</text>
<text x="578" y="434" fill="rgba(255,255,255,0.55)" font-size="8" letter-spacing="1.4" text-anchor="end">PEAK INTENSITY</text>
<text x="578" y="451" fill="#fff" font-weight="700" font-size="14" text-anchor="end">6,325 cd</text>
</svg>