<svg viewBox="0 0 600 460" xmlns="http://www.w3.org/2000/svg" font-family="JetBrains Mono, monospace" font-size="9.5">
<rect width="100%" height="100%" fill="#14171b"/>
<text x="22" y="26" fill="#F32740" font-weight="700" letter-spacing="2">LWPC100-S3N2-UD-BA-PSB_BA0_LV4-40W_3000K · 0W · — · FULL CUTOFF</text>
<text x="22" y="42" fill="rgba(255,255,255,0.55)" font-size="8" letter-spacing="1.4">LUMINOUS INTENSITY DISTRIBUTION (cd/klm)</text>
<path d="M 232.0 64.0 A 68.0 68.0 0 0 0 368.0 64.0" fill="none" stroke="rgba(120,200,200,0.18)" stroke-width="0.7"/>
<path d="M 164.0 64.0 A 136.0 136.0 0 0 0 436.0 64.0" fill="none" stroke="rgba(120,200,200,0.18)" stroke-width="0.7"/>
<path d="M 96.0 64.0 A 204.0 204.0 0 0 0 504.0 64.0" fill="none" stroke="rgba(120,200,200,0.18)" stroke-width="0.7"/>
<path d="M 28.0 64.0 A 272.0 272.0 0 0 0 572.0 64.0" fill="none" stroke="rgba(120,200,200,0.18)" stroke-width="0.7"/>
<path d="M -40.0 64.0 A 340.0 340.0 0 0 0 640.0 64.0" fill="none" stroke="rgba(120,200,200,0.18)" stroke-width="0.7"/>
<line x1="300.0" y1="64" x2="388.0" y2="392.4" stroke="rgba(120,200,200,0.10)" stroke-width="0.5"/>
<line x1="300.0" y1="64" x2="212.0" y2="392.4" stroke="rgba(120,200,200,0.10)" stroke-width="0.5"/>
<line x1="300.0" y1="64" x2="470.0" y2="358.4" stroke="rgba(120,200,200,0.10)" stroke-width="0.5"/>
<line x1="300.0" y1="64" x2="130.0" y2="358.4" stroke="rgba(120,200,200,0.10)" stroke-width="0.5"/>
<line x1="300.0" y1="64" x2="540.4" y2="304.4" stroke="rgba(120,200,200,0.10)" stroke-width="0.5"/>
<line x1="300.0" y1="64" x2="59.6" y2="304.4" stroke="rgba(120,200,200,0.10)" stroke-width="0.5"/>
<line x1="300.0" y1="64" x2="594.4" y2="234.0" stroke="rgba(120,200,200,0.10)" stroke-width="0.5"/>
<line x1="300.0" y1="64" x2="5.6" y2="234.0" stroke="rgba(120,200,200,0.10)" stroke-width="0.5"/>
<line x1="300.0" y1="64" x2="628.4" y2="152.0" stroke="rgba(120,200,200,0.10)" stroke-width="0.5"/>
<line x1="300.0" y1="64" x2="-28.4" y2="152.0" stroke="rgba(120,200,200,0.10)" stroke-width="0.5"/>
<line x1="300.0" y1="64" x2="640.0" y2="64.0" stroke="rgba(120,200,200,0.10)" stroke-width="0.5"/>
<line x1="300.0" y1="64" x2="-40.0" y2="64.0" stroke="rgba(120,200,200,0.10)" stroke-width="0.5"/>
<line x1="300.0" y1="64" x2="300.0" y2="408" stroke="rgba(120,200,200,0.14)" stroke-width="0.5"/>
<line x1="-40.0" y1="64" x2="640.0" y2="64" stroke="rgba(120,200,200,0.14)" stroke-width="0.5"/>
<text x="391.6" y="408.9" text-anchor="middle" fill="rgba(255,255,255,0.4)" font-size="9">15°</text>
<text x="208.4" y="408.9" text-anchor="middle" fill="rgba(255,255,255,0.4)" font-size="9">15°</text>
<text x="477.0" y="373.6" text-anchor="middle" fill="rgba(255,255,255,0.6)" font-size="9">30°</text>
<text x="123.0" y="373.6" text-anchor="middle" fill="rgba(255,255,255,0.6)" font-size="9">30°</text>
<text x="550.3" y="317.3" text-anchor="middle" fill="rgba(255,255,255,0.4)" font-size="9">45°</text>
<text x="49.7" y="317.3" text-anchor="middle" fill="rgba(255,255,255,0.4)" font-size="9">45°</text>
<text x="606.6" y="244.0" text-anchor="middle" fill="rgba(255,255,255,0.6)" font-size="9">60°</text>
<text x="-6.6" y="244.0" text-anchor="middle" fill="rgba(255,255,255,0.6)" font-size="9">60°</text>
<text x="641.9" y="158.6" text-anchor="middle" fill="rgba(255,255,255,0.4)" font-size="9">75°</text>
<text x="-41.9" y="158.6" text-anchor="middle" fill="rgba(255,255,255,0.4)" font-size="9">75°</text>
<text x="654.0" y="67.0" text-anchor="middle" fill="rgba(255,255,255,0.6)" font-size="9">90°</text>
<text x="-54.0" y="67.0" text-anchor="middle" fill="rgba(255,255,255,0.6)" font-size="9">90°</text>
<text x="300" y="426" text-anchor="middle" fill="rgba(255,255,255,0.6)" font-size="9">0°</text>
<path d="M 300.0 282.5 L 303.8 282.9 L 307.7 283.3 L 311.4 282.2 L 315.2 281.8 L 319.0 280.9 L 322.7 280.3 L 326.4 279.0 L 330.1 278.2 L 333.8 277.4 L 337.3 275.8 L 340.9 274.4 L 344.4 273.0 L 347.7 270.6 L 351.0 268.7 L 354.3 266.7 L 357.6 264.8 L 360.6 262.2 L 363.5 259.5 L 366.5 257.2 L 369.3 254.5 L 372.2 252.0 L 374.8 249.1 L 377.2 246.0 L 379.6 242.8 L 381.6 239.0 L 383.6 235.5 L 385.6 232.1 L 387.8 229.2 L 389.3 225.0 L 391.2 222.0 L 392.5 217.9 L 393.8 214.1 L 395.0 210.2 L 395.9 206.2 L 396.9 202.4 L 397.5 198.2 L 397.9 193.9 L 398.1 189.6 L 398.5 185.7 L 398.5 181.4 L 398.7 177.6 L 398.3 173.2 L 397.9 169.0 L 397.5 165.0 L 396.4 160.4 L 395.6 156.3 L 394.6 152.2 L 393.3 148.0 L 391.7 143.7 L 390.3 139.7 L 388.5 135.7 L 386.7 131.7 L 384.6 127.7 L 382.5 123.9 L 380.2 120.2 L 378.0 116.6 L 375.3 112.9 L 372.7 109.4 L 370.2 106.2 L 367.7 103.1 L 364.8 99.9 L 362.2 97.0 L 359.4 94.3 L 356.7 91.6 L 353.9 89.1 L 350.8 86.6 L 348.1 84.4 L 345.2 82.3 L 342.4 80.3 L 339.8 78.5 L 337.2 76.8 L 334.7 75.3 L 331.9 73.7 L 329.5 72.5 L 327.1 71.3 L 324.7 70.2 L 322.1 69.1 L 319.9 68.2 L 317.8 67.5 L 315.5 66.7 L 313.6 66.1 L 311.7 65.6 L 309.8 65.2 L 308.1 64.9 L 306.3 64.6 L 304.9 64.3 L 303.6 64.2 L 302.4 64.1 L 301.3 64.0 L 300.0 64.0 L 300.0 64.0 L 300.0 64.0 L 299.5 64.0 L 298.7 64.1 L 297.7 64.2 L 296.6 64.3 L 295.2 64.5 L 293.8 64.8 L 292.0 65.1 L 290.2 65.5 L 288.4 66.0 L 286.4 66.6 L 284.2 67.4 L 282.1 68.1 L 279.9 69.0 L 277.5 70.0 L 275.2 71.1 L 272.8 72.3 L 270.4 73.6 L 267.7 75.1 L 265.1 76.7 L 262.7 78.3 L 260.0 80.2 L 257.4 82.1 L 254.5 84.3 L 251.8 86.5 L 249.2 88.8 L 246.1 91.4 L 243.4 94.1 L 240.9 96.8 L 238.2 99.7 L 235.2 103.0 L 232.6 106.1 L 230.0 109.5 L 227.6 112.8 L 225.1 116.5 L 222.8 120.1 L 220.6 123.9 L 218.3 127.9 L 216.4 131.7 L 214.5 135.7 L 212.8 139.8 L 211.3 143.8 L 209.6 148.3 L 208.3 152.5 L 207.3 156.7 L 206.4 160.9 L 205.7 165.1 L 205.2 169.3 L 204.9 173.4 L 204.5 177.8 L 204.0 182.5 L 204.6 186.1 L 204.6 190.6 L 205.1 194.6 L 205.5 198.9 L 206.3 202.9 L 207.2 207.0 L 208.3 210.7 L 209.5 214.6 L 210.9 218.4 L 212.3 222.2 L 213.9 226.0 L 215.8 229.2 L 217.4 233.3 L 219.3 237.1 L 221.6 240.2 L 223.9 243.3 L 226.3 246.4 L 228.7 249.8 L 231.5 252.3 L 234.1 255.3 L 237.1 257.5 L 240.1 260.0 L 243.0 262.6 L 246.1 265.2 L 249.3 267.2 L 252.5 269.6 L 256.0 271.0 L 259.4 272.7 L 262.8 274.8 L 266.4 276.2 L 270.0 277.5 L 273.6 278.7 L 277.3 279.8 L 281.1 280.4 L 284.8 281.4 L 288.6 282.2 L 292.4 282.6 L 296.2 282.6 L 300.0 282.5 Z" fill="none" stroke="#3FA9F5" stroke-width="1.7" stroke-linejoin="round" stroke-linecap="round"/>
<path d="M 300.0 282.5 L 303.8 284.3 L 307.8 286.6 L 311.7 287.8 L 315.7 288.7 L 319.8 289.9 L 323.8 290.8 L 327.9 291.2 L 332.0 292.0 L 336.3 293.0 L 340.5 293.8 L 344.8 294.5 L 349.0 294.6 L 353.1 294.1 L 357.1 293.2 L 360.9 291.4 L 364.5 289.1 L 367.9 286.1 L 370.9 282.3 L 373.8 278.4 L 376.1 273.2 L 378.1 267.4 L 379.9 261.6 L 381.5 256.0 L 382.6 249.6 L 383.5 243.1 L 384.1 236.3 L 384.3 229.5 L 384.4 222.7 L 384.3 216.1 L 384.3 210.0 L 384.0 203.8 L 383.4 197.4 L 382.8 191.5 L 382.2 185.8 L 381.1 179.9 L 379.9 174.0 L 378.6 168.3 L 376.8 162.4 L 375.4 157.1 L 373.3 151.4 L 370.8 145.5 L 368.8 140.4 L 366.5 135.3 L 364.1 130.4 L 361.3 125.3 L 358.6 120.6 L 355.8 116.1 L 352.6 111.4 L 349.9 107.4 L 347.0 103.5 L 344.4 99.9 L 341.6 96.5 L 339.2 93.5 L 337.1 91.0 L 335.1 88.6 L 333.1 86.3 L 331.2 84.2 L 329.5 82.4 L 327.9 80.7 L 326.2 79.1 L 324.8 77.7 L 323.4 76.5 L 322.1 75.2 L 320.9 74.2 L 319.7 73.2 L 318.6 72.3 L 317.4 71.4 L 316.4 70.6 L 315.4 69.9 L 314.4 69.2 L 313.2 68.5 L 312.3 68.0 L 311.3 67.5 L 310.3 67.0 L 309.4 66.5 L 308.4 66.1 L 307.4 65.7 L 306.6 65.4 L 305.7 65.1 L 304.7 64.8 L 303.9 64.6 L 303.2 64.4 L 302.4 64.3 L 301.7 64.2 L 301.2 64.1 L 300.7 64.1 L 300.3 64.0 L 300.0 64.0 L 300.0 64.0 L 300.0 64.0 L 300.0 64.0 L 299.1 64.0 L 298.6 64.0 L 298.1 64.1 L 297.4 64.2 L 296.6 64.3 L 295.7 64.5 L 294.8 64.6 L 294.0 64.8 L 293.1 65.1 L 292.2 65.4 L 291.2 65.7 L 290.3 66.1 L 289.3 66.5 L 288.2 66.9 L 287.2 67.4 L 286.2 68.0 L 285.2 68.5 L 284.1 69.2 L 283.1 69.8 L 282.1 70.5 L 281.1 71.3 L 279.9 72.1 L 278.8 73.0 L 277.7 73.9 L 276.6 74.9 L 275.3 76.1 L 274.1 77.2 L 272.8 78.5 L 271.5 79.8 L 269.9 81.4 L 268.4 83.0 L 266.9 84.7 L 265.3 86.5 L 263.6 88.5 L 261.5 90.9 L 259.8 93.2 L 257.9 95.7 L 255.8 98.5 L 254.0 101.3 L 252.1 104.2 L 250.4 107.1 L 248.8 110.1 L 247.1 113.4 L 245.8 116.4 L 244.5 119.5 L 243.5 122.5 L 242.5 125.6 L 241.7 128.8 L 240.8 132.1 L 240.5 134.9 L 240.4 137.6 L 240.1 140.7 L 240.1 143.5 L 240.3 146.1 L 240.3 149.2 L 240.6 152.1 L 240.8 155.2 L 241.2 158.2 L 241.5 161.4 L 241.8 164.7 L 242.0 168.6 L 242.5 172.1 L 243.0 175.9 L 243.5 179.9 L 244.2 183.7 L 244.8 187.9 L 245.7 192.0 L 246.6 196.2 L 247.5 200.7 L 248.4 205.8 L 249.7 210.1 L 251.3 214.0 L 252.8 218.3 L 254.6 222.3 L 256.6 226.0 L 258.5 230.3 L 260.8 233.8 L 263.0 237.9 L 265.5 241.4 L 268.1 245.0 L 270.8 248.5 L 273.6 251.9 L 276.5 255.5 L 279.5 259.5 L 282.6 263.0 L 285.8 267.0 L 289.2 270.5 L 292.6 274.7 L 296.3 278.5 L 300.0 282.5 Z" fill="none" stroke="#F32740" stroke-width="2.0" stroke-linejoin="round" stroke-linecap="round"/>
<text x="338" y="132" fill="#F32740" font-size="9.5" font-weight="700">150</text>
<text x="335" y="200" fill="#F32740" font-size="9.5" font-weight="700">300</text>
<text x="335" y="268" fill="#F32740" font-size="9.5" font-weight="700">450</text>
<text x="335" y="336" fill="#F32740" font-size="9.5" font-weight="700">600</text>
<rect x="274.0" y="58" width="52" height="11" rx="1.5" fill="#fafbfc" stroke="rgba(255,255,255,0.4)" stroke-width="0.5"/>
<line x1="272.0" y1="69.8" x2="328.0" y2="69.8" stroke="#F32740" stroke-width="0.7" stroke-dasharray="1.5 2"/>
<text x="300" y="66" text-anchor="middle" fill="#F32740" font-size="8" font-weight="700" letter-spacing="0.5">cd/klm SCALE</text>
<g transform="translate(22, 434)">
<text x="0" y="-8" fill="rgba(255,255,255,0.55)" font-size="8" letter-spacing="1.4">cd/klm</text>
<line x1="0" y1="6" x2="22" y2="6" stroke="#F32740" stroke-width="2.2"/>
<text x="28" y="9" fill="rgba(255,255,255,0.7)" font-size="9.5">C0 – C180</text>
<line x1="120" y1="6" x2="142" y2="6" stroke="#3FA9F5" stroke-width="1.7"/>
<text x="148" y="9" fill="rgba(255,255,255,0.7)" font-size="9.5">C90 – C270</text>
</g>
<text x="578" y="402" fill="rgba(255,255,255,0.45)" font-size="9" text-anchor="end">η = 156 lm/W</text>
<text x="578" y="418" fill="rgba(255,255,255,0.45)" font-size="9" text-anchor="end">6,735 lm · 43.1W</text>
<text x="578" y="434" fill="rgba(255,255,255,0.55)" font-size="8" letter-spacing="1.4" text-anchor="end">PEAK INTENSITY</text>
<text x="578" y="451" fill="#fff" font-weight="700" font-size="14" text-anchor="end">3,509 cd</text>
</svg>