<svg viewBox="0 0 600 460" xmlns="http://www.w3.org/2000/svg" font-family="JetBrains Mono, monospace" font-size="9.5">
<rect width="100%" height="100%" fill="#14171b"/>
<text x="22" y="26" fill="#F32740" font-weight="700" letter-spacing="2">LWPC100-S3N2-UD-BA-PSB_BA30_LV1-100W_5000K · 0W · — · FULL CUTOFF</text>
<text x="22" y="42" fill="rgba(255,255,255,0.55)" font-size="8" letter-spacing="1.4">LUMINOUS INTENSITY DISTRIBUTION (cd/klm)</text>
<path d="M 232.0 64.0 A 68.0 68.0 0 0 0 368.0 64.0" fill="none" stroke="rgba(120,200,200,0.18)" stroke-width="0.7"/>
<path d="M 164.0 64.0 A 136.0 136.0 0 0 0 436.0 64.0" fill="none" stroke="rgba(120,200,200,0.18)" stroke-width="0.7"/>
<path d="M 96.0 64.0 A 204.0 204.0 0 0 0 504.0 64.0" fill="none" stroke="rgba(120,200,200,0.18)" stroke-width="0.7"/>
<path d="M 28.0 64.0 A 272.0 272.0 0 0 0 572.0 64.0" fill="none" stroke="rgba(120,200,200,0.18)" stroke-width="0.7"/>
<path d="M -40.0 64.0 A 340.0 340.0 0 0 0 640.0 64.0" fill="none" stroke="rgba(120,200,200,0.18)" stroke-width="0.7"/>
<line x1="300.0" y1="64" x2="388.0" y2="392.4" stroke="rgba(120,200,200,0.10)" stroke-width="0.5"/>
<line x1="300.0" y1="64" x2="212.0" y2="392.4" stroke="rgba(120,200,200,0.10)" stroke-width="0.5"/>
<line x1="300.0" y1="64" x2="470.0" y2="358.4" stroke="rgba(120,200,200,0.10)" stroke-width="0.5"/>
<line x1="300.0" y1="64" x2="130.0" y2="358.4" stroke="rgba(120,200,200,0.10)" stroke-width="0.5"/>
<line x1="300.0" y1="64" x2="540.4" y2="304.4" stroke="rgba(120,200,200,0.10)" stroke-width="0.5"/>
<line x1="300.0" y1="64" x2="59.6" y2="304.4" stroke="rgba(120,200,200,0.10)" stroke-width="0.5"/>
<line x1="300.0" y1="64" x2="594.4" y2="234.0" stroke="rgba(120,200,200,0.10)" stroke-width="0.5"/>
<line x1="300.0" y1="64" x2="5.6" y2="234.0" stroke="rgba(120,200,200,0.10)" stroke-width="0.5"/>
<line x1="300.0" y1="64" x2="628.4" y2="152.0" stroke="rgba(120,200,200,0.10)" stroke-width="0.5"/>
<line x1="300.0" y1="64" x2="-28.4" y2="152.0" stroke="rgba(120,200,200,0.10)" stroke-width="0.5"/>
<line x1="300.0" y1="64" x2="640.0" y2="64.0" stroke="rgba(120,200,200,0.10)" stroke-width="0.5"/>
<line x1="300.0" y1="64" x2="-40.0" y2="64.0" stroke="rgba(120,200,200,0.10)" stroke-width="0.5"/>
<line x1="300.0" y1="64" x2="300.0" y2="408" stroke="rgba(120,200,200,0.14)" stroke-width="0.5"/>
<line x1="-40.0" y1="64" x2="640.0" y2="64" stroke="rgba(120,200,200,0.14)" stroke-width="0.5"/>
<text x="391.6" y="408.9" text-anchor="middle" fill="rgba(255,255,255,0.4)" font-size="9">15°</text>
<text x="208.4" y="408.9" text-anchor="middle" fill="rgba(255,255,255,0.4)" font-size="9">15°</text>
<text x="477.0" y="373.6" text-anchor="middle" fill="rgba(255,255,255,0.6)" font-size="9">30°</text>
<text x="123.0" y="373.6" text-anchor="middle" fill="rgba(255,255,255,0.6)" font-size="9">30°</text>
<text x="550.3" y="317.3" text-anchor="middle" fill="rgba(255,255,255,0.4)" font-size="9">45°</text>
<text x="49.7" y="317.3" text-anchor="middle" fill="rgba(255,255,255,0.4)" font-size="9">45°</text>
<text x="606.6" y="244.0" text-anchor="middle" fill="rgba(255,255,255,0.6)" font-size="9">60°</text>
<text x="-6.6" y="244.0" text-anchor="middle" fill="rgba(255,255,255,0.6)" font-size="9">60°</text>
<text x="641.9" y="158.6" text-anchor="middle" fill="rgba(255,255,255,0.4)" font-size="9">75°</text>
<text x="-41.9" y="158.6" text-anchor="middle" fill="rgba(255,255,255,0.4)" font-size="9">75°</text>
<text x="654.0" y="67.0" text-anchor="middle" fill="rgba(255,255,255,0.6)" font-size="9">90°</text>
<text x="-54.0" y="67.0" text-anchor="middle" fill="rgba(255,255,255,0.6)" font-size="9">90°</text>
<text x="300" y="426" text-anchor="middle" fill="rgba(255,255,255,0.6)" font-size="9">0°</text>
<path d="M 300.0 179.1 L 302.0 178.9 L 304.0 178.8 L 306.0 178.6 L 308.0 178.4 L 310.0 178.1 L 311.9 177.6 L 313.9 177.1 L 315.8 176.4 L 317.7 175.6 L 319.6 175.0 L 321.4 174.3 L 323.3 173.4 L 325.1 172.6 L 326.8 171.7 L 328.5 170.4 L 330.3 169.5 L 331.9 168.3 L 333.5 167.1 L 335.1 165.9 L 336.5 164.4 L 338.0 163.1 L 339.5 161.7 L 340.8 160.1 L 342.1 158.6 L 343.4 157.0 L 344.6 155.4 L 345.8 153.8 L 346.7 151.8 L 347.7 150.1 L 348.7 148.3 L 349.6 146.6 L 350.5 144.8 L 351.2 142.9 L 352.0 141.2 L 352.5 139.0 L 353.0 137.0 L 353.5 135.0 L 353.9 133.0 L 354.2 131.0 L 354.5 128.9 L 354.5 126.7 L 354.6 124.7 L 354.5 122.5 L 354.3 120.3 L 354.2 118.2 L 353.8 116.0 L 353.3 113.7 L 352.8 111.5 L 352.3 109.5 L 351.6 107.3 L 350.8 105.1 L 350.0 103.0 L 349.3 101.1 L 348.4 99.1 L 347.3 97.1 L 346.3 95.2 L 345.1 93.3 L 343.9 91.4 L 342.7 89.7 L 341.3 87.9 L 340.0 86.2 L 338.7 84.6 L 337.3 83.0 L 335.7 81.4 L 334.2 80.0 L 332.8 78.6 L 331.1 77.2 L 329.7 76.0 L 328.1 74.8 L 326.6 73.7 L 324.9 72.6 L 323.4 71.6 L 321.8 70.7 L 320.2 69.8 L 318.5 68.9 L 316.8 68.2 L 315.3 67.5 L 313.8 66.9 L 312.2 66.4 L 310.6 65.9 L 309.2 65.5 L 307.8 65.1 L 306.5 64.8 L 305.1 64.5 L 304.0 64.3 L 302.9 64.2 L 301.8 64.1 L 301.0 64.0 L 300.0 64.0 L 300.0 64.0 L 300.0 64.0 L 300.0 64.0 L 299.5 64.0 L 298.8 64.1 L 298.0 64.1 L 297.0 64.3 L 295.7 64.4 L 294.5 64.7 L 293.2 65.0 L 291.8 65.3 L 290.2 65.7 L 288.7 66.2 L 287.2 66.7 L 285.6 67.3 L 283.9 68.0 L 282.3 68.7 L 280.6 69.6 L 279.0 70.4 L 277.3 71.4 L 275.7 72.4 L 274.0 73.5 L 272.4 74.6 L 270.5 75.9 L 268.9 77.2 L 267.3 78.5 L 265.9 79.9 L 264.3 81.4 L 262.8 83.0 L 261.5 84.5 L 259.9 86.3 L 258.7 87.9 L 257.3 89.6 L 256.1 91.4 L 254.9 93.3 L 253.5 95.4 L 252.5 97.3 L 251.5 99.2 L 250.6 101.2 L 249.7 103.3 L 248.9 105.4 L 248.2 107.5 L 247.6 109.6 L 246.8 111.9 L 246.3 114.1 L 245.9 116.3 L 245.6 118.4 L 245.4 120.6 L 245.2 122.7 L 245.1 125.0 L 245.1 127.1 L 245.2 129.3 L 245.3 131.5 L 245.6 133.6 L 246.0 135.6 L 246.4 137.7 L 246.9 139.8 L 247.7 141.6 L 248.3 143.6 L 249.3 145.2 L 250.1 147.1 L 251.0 148.9 L 252.0 150.6 L 253.0 152.3 L 254.1 154.2 L 255.3 155.7 L 256.4 157.5 L 257.7 159.0 L 259.1 160.5 L 260.4 162.1 L 261.8 163.4 L 263.3 164.8 L 264.8 166.1 L 266.4 167.3 L 268.0 168.7 L 269.7 169.7 L 271.4 170.7 L 273.1 171.8 L 274.9 172.8 L 276.7 173.8 L 278.5 174.6 L 280.4 175.3 L 282.2 176.1 L 284.2 176.6 L 286.1 177.3 L 288.1 177.6 L 290.0 177.9 L 292.0 178.3 L 294.0 178.6 L 296.0 178.8 L 298.0 178.8 L 300.0 179.1 Z" fill="none" stroke="#3FA9F5" stroke-width="1.7" stroke-linejoin="round" stroke-linecap="round"/>
<path d="M 300.0 179.1 L 302.1 182.3 L 304.2 185.0 L 306.5 188.0 L 308.9 191.1 L 311.4 194.4 L 314.0 197.5 L 316.8 200.7 L 319.8 204.8 L 322.8 207.9 L 326.0 211.2 L 329.2 214.5 L 332.6 217.4 L 336.1 220.3 L 339.7 223.1 L 343.4 225.8 L 347.1 228.3 L 351.0 230.7 L 354.9 232.9 L 358.9 234.9 L 362.8 236.6 L 367.2 239.1 L 371.3 240.6 L 375.6 242.2 L 380.1 244.0 L 384.7 245.5 L 389.4 247.3 L 394.2 248.8 L 399.3 250.8 L 404.5 252.5 L 409.6 253.8 L 414.4 254.4 L 419.2 254.7 L 423.6 254.3 L 427.6 253.2 L 431.6 251.9 L 435.5 250.6 L 439.4 249.0 L 443.2 247.3 L 447.2 245.8 L 451.6 244.7 L 455.8 243.2 L 460.0 241.7 L 463.4 239.3 L 466.8 236.7 L 469.4 233.4 L 471.3 229.4 L 473.0 225.3 L 474.3 220.9 L 474.7 215.9 L 474.8 210.7 L 474.1 205.0 L 473.1 199.3 L 471.8 193.5 L 469.3 187.0 L 466.9 180.9 L 464.2 174.7 L 460.8 168.4 L 457.9 162.7 L 454.4 156.8 L 451.2 151.3 L 447.9 146.0 L 444.5 140.8 L 440.9 135.8 L 437.0 130.8 L 433.1 126.1 L 429.3 121.6 L 425.0 117.1 L 420.1 112.5 L 415.9 108.5 L 411.4 104.6 L 406.6 100.7 L 402.1 97.2 L 397.4 93.8 L 392.5 90.5 L 387.5 87.5 L 382.0 84.4 L 377.1 81.8 L 372.4 79.4 L 367.5 77.1 L 362.7 75.0 L 358.5 73.3 L 354.3 71.6 L 350.8 70.2 L 347.0 68.9 L 343.9 67.8 L 341.0 66.9 L 338.3 66.0 L 335.8 65.2 L 333.2 64.6 L 331.2 64.0 L 300.0 64.0 L 300.0 64.0 L 300.0 64.0 L 300.0 64.0 L 300.0 64.0 L 300.0 64.0 L 300.0 64.0 L 300.0 64.0 L 300.0 64.0 L 300.0 64.0 L 300.0 64.0 L 300.0 64.0 L 300.0 64.0 L 300.0 64.0 L 300.0 64.0 L 300.0 64.0 L 300.0 64.0 L 300.0 64.0 L 300.0 64.0 L 300.0 64.0 L 300.0 64.0 L 300.0 64.0 L 300.0 64.0 L 300.0 64.0 L 300.0 64.0 L 300.0 64.0 L 300.0 64.0 L 300.0 64.0 L 300.0 64.0 L 300.0 64.0 L 300.0 64.0 L 299.6 64.2 L 299.2 64.5 L 298.8 64.8 L 298.2 65.2 L 297.5 65.7 L 297.0 66.2 L 296.3 66.8 L 295.6 67.4 L 295.0 68.1 L 294.4 68.7 L 293.8 69.4 L 293.1 70.2 L 292.4 71.1 L 291.7 72.0 L 291.1 72.9 L 290.5 73.9 L 289.9 74.8 L 289.3 75.9 L 288.8 76.9 L 288.2 78.1 L 287.7 79.2 L 287.2 80.4 L 286.7 81.7 L 286.2 83.0 L 285.7 84.4 L 285.2 85.9 L 284.7 87.6 L 284.2 89.2 L 283.8 91.0 L 283.3 92.9 L 282.8 95.1 L 282.3 97.2 L 281.9 99.5 L 281.4 102.2 L 281.0 104.8 L 280.5 107.8 L 280.1 110.8 L 279.9 113.7 L 279.6 117.1 L 279.4 120.5 L 279.3 124.0 L 279.4 127.5 L 279.5 130.9 L 279.7 134.8 L 280.1 138.1 L 280.7 141.3 L 281.4 144.6 L 282.2 147.7 L 283.1 151.0 L 284.2 153.9 L 285.4 156.4 L 286.7 158.9 L 288.0 161.3 L 289.5 164.1 L 291.0 166.6 L 292.7 168.9 L 294.4 171.7 L 296.2 174.1 L 298.0 176.9 L 300.0 179.1 Z" fill="none" stroke="#F32740" stroke-width="2.0" stroke-linejoin="round" stroke-linecap="round"/>
<text x="338" y="132" fill="#F32740" font-size="9.5" font-weight="700">150</text>
<text x="335" y="200" fill="#F32740" font-size="9.5" font-weight="700">300</text>
<text x="335" y="268" fill="#F32740" font-size="9.5" font-weight="700">450</text>
<text x="335" y="336" fill="#F32740" font-size="9.5" font-weight="700">600</text>
<rect x="274.0" y="58" width="52" height="11" rx="1.5" fill="#fafbfc" stroke="rgba(255,255,255,0.4)" stroke-width="0.5"/>
<line x1="272.0" y1="69.8" x2="328.0" y2="69.8" stroke="#F32740" stroke-width="0.7" stroke-dasharray="1.5 2"/>
<text x="300" y="66" text-anchor="middle" fill="#F32740" font-size="8" font-weight="700" letter-spacing="0.5">cd/klm SCALE</text>
<g transform="translate(22, 434)">
<text x="0" y="-8" fill="rgba(255,255,255,0.55)" font-size="8" letter-spacing="1.4">cd/klm</text>
<line x1="0" y1="6" x2="22" y2="6" stroke="#F32740" stroke-width="2.2"/>
<text x="28" y="9" fill="rgba(255,255,255,0.7)" font-size="9.5">C0 – C180</text>
<line x1="120" y1="6" x2="142" y2="6" stroke="#3FA9F5" stroke-width="1.7"/>
<text x="148" y="9" fill="rgba(255,255,255,0.7)" font-size="9.5">C90 – C270</text>
</g>
<text x="578" y="402" fill="rgba(255,255,255,0.45)" font-size="9" text-anchor="end">η = 137 lm/W</text>
<text x="578" y="418" fill="rgba(255,255,255,0.45)" font-size="9" text-anchor="end">14,056 lm · 102.6W</text>
<text x="578" y="434" fill="rgba(255,255,255,0.55)" font-size="8" letter-spacing="1.4" text-anchor="end">PEAK INTENSITY</text>
<text x="578" y="451" fill="#fff" font-weight="700" font-size="14" text-anchor="end">7,446 cd</text>
</svg>