<svg viewBox="0 0 600 460" xmlns="http://www.w3.org/2000/svg" font-family="JetBrains Mono, monospace" font-size="9.5">
<rect width="100%" height="100%" fill="#14171b"/>
<text x="22" y="26" fill="#F32740" font-weight="700" letter-spacing="2">LWPC100-S3N2-UD-BA-PSB_BA15_LV4-40W_3000K · 0W · — · FULL CUTOFF</text>
<text x="22" y="42" fill="rgba(255,255,255,0.55)" font-size="8" letter-spacing="1.4">LUMINOUS INTENSITY DISTRIBUTION (cd/klm)</text>
<path d="M 232.0 64.0 A 68.0 68.0 0 0 0 368.0 64.0" fill="none" stroke="rgba(120,200,200,0.18)" stroke-width="0.7"/>
<path d="M 164.0 64.0 A 136.0 136.0 0 0 0 436.0 64.0" fill="none" stroke="rgba(120,200,200,0.18)" stroke-width="0.7"/>
<path d="M 96.0 64.0 A 204.0 204.0 0 0 0 504.0 64.0" fill="none" stroke="rgba(120,200,200,0.18)" stroke-width="0.7"/>
<path d="M 28.0 64.0 A 272.0 272.0 0 0 0 572.0 64.0" fill="none" stroke="rgba(120,200,200,0.18)" stroke-width="0.7"/>
<path d="M -40.0 64.0 A 340.0 340.0 0 0 0 640.0 64.0" fill="none" stroke="rgba(120,200,200,0.18)" stroke-width="0.7"/>
<line x1="300.0" y1="64" x2="388.0" y2="392.4" stroke="rgba(120,200,200,0.10)" stroke-width="0.5"/>
<line x1="300.0" y1="64" x2="212.0" y2="392.4" stroke="rgba(120,200,200,0.10)" stroke-width="0.5"/>
<line x1="300.0" y1="64" x2="470.0" y2="358.4" stroke="rgba(120,200,200,0.10)" stroke-width="0.5"/>
<line x1="300.0" y1="64" x2="130.0" y2="358.4" stroke="rgba(120,200,200,0.10)" stroke-width="0.5"/>
<line x1="300.0" y1="64" x2="540.4" y2="304.4" stroke="rgba(120,200,200,0.10)" stroke-width="0.5"/>
<line x1="300.0" y1="64" x2="59.6" y2="304.4" stroke="rgba(120,200,200,0.10)" stroke-width="0.5"/>
<line x1="300.0" y1="64" x2="594.4" y2="234.0" stroke="rgba(120,200,200,0.10)" stroke-width="0.5"/>
<line x1="300.0" y1="64" x2="5.6" y2="234.0" stroke="rgba(120,200,200,0.10)" stroke-width="0.5"/>
<line x1="300.0" y1="64" x2="628.4" y2="152.0" stroke="rgba(120,200,200,0.10)" stroke-width="0.5"/>
<line x1="300.0" y1="64" x2="-28.4" y2="152.0" stroke="rgba(120,200,200,0.10)" stroke-width="0.5"/>
<line x1="300.0" y1="64" x2="640.0" y2="64.0" stroke="rgba(120,200,200,0.10)" stroke-width="0.5"/>
<line x1="300.0" y1="64" x2="-40.0" y2="64.0" stroke="rgba(120,200,200,0.10)" stroke-width="0.5"/>
<line x1="300.0" y1="64" x2="300.0" y2="408" stroke="rgba(120,200,200,0.14)" stroke-width="0.5"/>
<line x1="-40.0" y1="64" x2="640.0" y2="64" stroke="rgba(120,200,200,0.14)" stroke-width="0.5"/>
<text x="391.6" y="408.9" text-anchor="middle" fill="rgba(255,255,255,0.4)" font-size="9">15°</text>
<text x="208.4" y="408.9" text-anchor="middle" fill="rgba(255,255,255,0.4)" font-size="9">15°</text>
<text x="477.0" y="373.6" text-anchor="middle" fill="rgba(255,255,255,0.6)" font-size="9">30°</text>
<text x="123.0" y="373.6" text-anchor="middle" fill="rgba(255,255,255,0.6)" font-size="9">30°</text>
<text x="550.3" y="317.3" text-anchor="middle" fill="rgba(255,255,255,0.4)" font-size="9">45°</text>
<text x="49.7" y="317.3" text-anchor="middle" fill="rgba(255,255,255,0.4)" font-size="9">45°</text>
<text x="606.6" y="244.0" text-anchor="middle" fill="rgba(255,255,255,0.6)" font-size="9">60°</text>
<text x="-6.6" y="244.0" text-anchor="middle" fill="rgba(255,255,255,0.6)" font-size="9">60°</text>
<text x="641.9" y="158.6" text-anchor="middle" fill="rgba(255,255,255,0.4)" font-size="9">75°</text>
<text x="-41.9" y="158.6" text-anchor="middle" fill="rgba(255,255,255,0.4)" font-size="9">75°</text>
<text x="654.0" y="67.0" text-anchor="middle" fill="rgba(255,255,255,0.6)" font-size="9">90°</text>
<text x="-54.0" y="67.0" text-anchor="middle" fill="rgba(255,255,255,0.6)" font-size="9">90°</text>
<text x="300" y="426" text-anchor="middle" fill="rgba(255,255,255,0.6)" font-size="9">0°</text>
<path d="M 300.0 220.5 L 302.7 219.8 L 305.4 219.5 L 308.1 219.4 L 310.9 219.2 L 313.5 218.4 L 316.2 218.1 L 318.9 217.6 L 321.5 216.8 L 324.0 215.5 L 326.6 214.6 L 329.1 213.5 L 331.5 212.3 L 334.0 211.4 L 336.4 210.1 L 338.8 208.7 L 341.1 207.4 L 343.3 205.8 L 345.5 204.0 L 347.6 202.3 L 349.6 200.2 L 351.5 198.2 L 353.4 196.1 L 355.2 194.2 L 357.0 192.0 L 358.6 189.6 L 360.1 187.3 L 361.8 185.2 L 363.2 182.9 L 364.5 180.3 L 365.6 177.6 L 366.8 175.1 L 367.7 172.4 L 368.3 169.2 L 369.1 166.5 L 370.0 164.0 L 370.4 161.0 L 371.0 158.2 L 371.2 155.1 L 371.5 152.3 L 371.7 149.5 L 371.6 146.4 L 371.6 143.5 L 371.5 140.7 L 370.9 137.4 L 370.6 134.6 L 370.0 131.6 L 369.5 128.8 L 368.8 126.0 L 368.0 123.1 L 367.1 120.3 L 365.7 117.2 L 364.6 114.5 L 363.3 111.7 L 362.2 109.2 L 360.6 106.4 L 359.2 103.9 L 357.6 101.4 L 355.9 98.9 L 354.2 96.6 L 352.5 94.3 L 350.7 92.1 L 348.9 90.0 L 346.7 87.8 L 344.9 85.9 L 342.9 84.0 L 341.0 82.3 L 339.0 80.5 L 336.9 78.9 L 335.0 77.4 L 332.6 75.9 L 330.6 74.5 L 328.6 73.3 L 326.4 72.1 L 324.4 71.0 L 322.5 70.0 L 320.5 69.1 L 318.7 68.3 L 316.8 67.6 L 314.9 66.9 L 313.1 66.3 L 311.4 65.8 L 309.5 65.3 L 308.0 65.0 L 306.5 64.7 L 305.1 64.4 L 303.7 64.3 L 302.6 64.1 L 301.5 64.1 L 300.7 64.0 L 300.0 64.0 L 300.0 64.0 L 300.0 64.0 L 300.0 64.0 L 298.9 64.1 L 297.9 64.1 L 296.7 64.3 L 295.4 64.5 L 294.1 64.7 L 292.5 65.0 L 290.8 65.5 L 289.1 65.9 L 287.3 66.5 L 285.5 67.1 L 283.5 67.8 L 281.7 68.6 L 279.7 69.4 L 277.8 70.4 L 275.6 71.5 L 273.5 72.6 L 271.6 73.8 L 269.5 75.1 L 267.3 76.6 L 265.2 78.0 L 263.3 79.6 L 261.3 81.2 L 259.0 83.1 L 257.0 85.0 L 255.0 86.9 L 253.0 89.0 L 251.1 91.1 L 249.1 93.4 L 247.4 95.6 L 245.7 97.9 L 243.8 100.5 L 242.3 102.9 L 240.7 105.5 L 239.4 108.0 L 238.0 110.7 L 236.4 113.7 L 235.2 116.5 L 234.0 119.4 L 233.1 122.2 L 232.1 125.1 L 231.4 127.9 L 230.8 130.8 L 230.0 134.0 L 229.5 137.0 L 229.3 139.8 L 229.0 142.9 L 228.9 145.8 L 228.6 149.1 L 228.9 151.8 L 229.0 154.9 L 229.5 157.6 L 229.9 160.5 L 230.5 163.2 L 231.1 166.1 L 231.9 168.8 L 232.6 171.9 L 233.8 174.2 L 234.6 177.2 L 235.8 179.8 L 237.1 182.3 L 238.5 184.7 L 239.9 187.3 L 241.5 189.5 L 243.1 191.9 L 244.7 194.3 L 246.6 196.1 L 248.4 198.5 L 250.4 200.4 L 252.5 202.0 L 254.5 204.0 L 256.7 205.7 L 258.9 207.3 L 261.1 209.1 L 263.5 210.3 L 265.9 211.5 L 268.4 212.8 L 270.8 214.0 L 273.4 214.9 L 275.9 216.0 L 278.5 216.9 L 281.2 217.4 L 283.8 218.3 L 286.5 218.8 L 289.2 219.0 L 291.8 219.6 L 294.6 219.7 L 297.3 219.7 L 300.0 220.5 Z" fill="none" stroke="#3FA9F5" stroke-width="1.7" stroke-linejoin="round" stroke-linecap="round"/>
<path d="M 300.0 220.5 L 302.8 225.3 L 305.8 228.8 L 308.8 231.9 L 312.0 235.3 L 315.2 238.0 L 318.7 242.1 L 322.2 244.8 L 325.8 247.2 L 329.4 249.7 L 333.2 252.2 L 337.1 255.0 L 341.1 257.4 L 345.3 260.1 L 349.5 262.4 L 354.0 265.6 L 358.5 268.1 L 363.2 270.7 L 368.0 273.2 L 372.6 274.8 L 377.2 276.0 L 381.5 276.3 L 385.8 276.3 L 389.9 275.7 L 393.8 274.6 L 398.3 274.7 L 402.5 274.1 L 406.5 273.0 L 411.3 273.3 L 415.5 272.4 L 419.7 271.3 L 423.8 270.1 L 427.2 267.6 L 430.7 265.3 L 433.9 262.4 L 436.3 258.6 L 438.2 254.2 L 439.9 249.6 L 441.0 244.5 L 441.6 238.9 L 441.6 232.8 L 441.4 226.6 L 440.9 220.4 L 440.0 214.2 L 438.0 206.9 L 436.4 200.4 L 434.7 194.0 L 432.5 187.6 L 430.5 181.5 L 428.4 175.6 L 426.0 169.8 L 423.2 163.8 L 420.7 158.3 L 417.9 152.9 L 414.7 147.4 L 411.6 142.2 L 408.3 137.1 L 404.7 132.0 L 401.1 127.2 L 397.4 122.5 L 393.7 118.1 L 390.0 113.9 L 386.1 109.8 L 381.1 105.3 L 377.0 101.5 L 372.7 97.9 L 368.5 94.5 L 364.2 91.2 L 360.1 88.3 L 356.2 85.6 L 352.2 83.0 L 348.9 80.8 L 345.9 78.9 L 342.7 77.0 L 339.9 75.4 L 337.5 74.0 L 335.2 72.8 L 332.9 71.6 L 331.0 70.6 L 329.0 69.6 L 327.3 68.8 L 325.7 68.1 L 324.1 67.4 L 322.4 66.8 L 321.1 66.2 L 319.7 65.7 L 318.4 65.3 L 317.1 64.9 L 315.9 64.6 L 314.7 64.3 L 313.4 64.0 L 300.0 64.0 L 300.0 64.0 L 300.0 64.0 L 300.0 64.0 L 300.0 64.0 L 300.0 64.0 L 300.0 64.0 L 300.0 64.0 L 300.0 64.0 L 300.0 64.0 L 300.0 64.0 L 300.0 64.0 L 300.0 64.0 L 300.0 64.0 L 300.0 64.0 L 300.0 64.0 L 300.0 64.0 L 300.0 64.0 L 300.0 64.0 L 299.5 64.2 L 299.2 64.3 L 298.6 64.5 L 298.1 64.8 L 297.4 65.1 L 296.6 65.5 L 295.8 66.0 L 295.0 66.4 L 294.3 66.9 L 293.4 67.5 L 292.7 68.1 L 291.9 68.7 L 291.1 69.3 L 290.3 70.1 L 289.4 70.9 L 288.6 71.7 L 287.8 72.5 L 287.1 73.3 L 286.3 74.3 L 285.5 75.3 L 284.8 76.3 L 283.9 77.5 L 283.2 78.6 L 282.4 79.8 L 281.7 81.1 L 280.8 82.5 L 280.0 84.0 L 279.2 85.6 L 278.4 87.2 L 277.4 89.1 L 276.6 90.9 L 275.5 93.2 L 274.6 95.4 L 273.6 97.8 L 272.6 100.3 L 271.6 103.1 L 270.6 106.0 L 269.6 109.0 L 268.7 112.2 L 267.8 115.5 L 266.8 119.2 L 266.2 122.5 L 265.6 126.0 L 265.1 129.6 L 264.7 133.2 L 264.7 136.5 L 264.7 139.8 L 264.8 143.1 L 265.2 146.1 L 265.6 149.2 L 266.2 152.2 L 266.9 154.9 L 267.7 157.7 L 268.6 160.6 L 269.6 163.3 L 270.7 166.2 L 271.9 169.0 L 273.2 171.6 L 274.5 174.4 L 275.9 177.5 L 277.3 180.7 L 278.8 184.2 L 280.4 187.7 L 282.1 191.5 L 283.9 194.8 L 285.9 198.6 L 287.9 202.3 L 290.1 206.2 L 292.3 210.6 L 294.7 214.5 L 297.3 218.0 L 300.0 220.5 Z" fill="none" stroke="#F32740" stroke-width="2.0" stroke-linejoin="round" stroke-linecap="round"/>
<text x="338" y="132" fill="#F32740" font-size="9.5" font-weight="700">150</text>
<text x="335" y="200" fill="#F32740" font-size="9.5" font-weight="700">300</text>
<text x="335" y="268" fill="#F32740" font-size="9.5" font-weight="700">450</text>
<text x="335" y="336" fill="#F32740" font-size="9.5" font-weight="700">600</text>
<rect x="274.0" y="58" width="52" height="11" rx="1.5" fill="#fafbfc" stroke="rgba(255,255,255,0.4)" stroke-width="0.5"/>
<line x1="272.0" y1="69.8" x2="328.0" y2="69.8" stroke="#F32740" stroke-width="0.7" stroke-dasharray="1.5 2"/>
<text x="300" y="66" text-anchor="middle" fill="#F32740" font-size="8" font-weight="700" letter-spacing="0.5">cd/klm SCALE</text>
<g transform="translate(22, 434)">
<text x="0" y="-8" fill="rgba(255,255,255,0.55)" font-size="8" letter-spacing="1.4">cd/klm</text>
<line x1="0" y1="6" x2="22" y2="6" stroke="#F32740" stroke-width="2.2"/>
<text x="28" y="9" fill="rgba(255,255,255,0.7)" font-size="9.5">C0 – C180</text>
<line x1="120" y1="6" x2="142" y2="6" stroke="#3FA9F5" stroke-width="1.7"/>
<text x="148" y="9" fill="rgba(255,255,255,0.7)" font-size="9.5">C90 – C270</text>
</g>
<text x="578" y="402" fill="rgba(255,255,255,0.45)" font-size="9" text-anchor="end">η = 159 lm/W</text>
<text x="578" y="418" fill="rgba(255,255,255,0.45)" font-size="9" text-anchor="end">6,896 lm · 43.2W</text>
<text x="578" y="434" fill="rgba(255,255,255,0.55)" font-size="8" letter-spacing="1.4" text-anchor="end">PEAK INTENSITY</text>
<text x="578" y="451" fill="#fff" font-weight="700" font-size="14" text-anchor="end">3,658 cd</text>
</svg>