<svg viewBox="0 0 600 460" xmlns="http://www.w3.org/2000/svg" font-family="JetBrains Mono, monospace" font-size="9.5">
<rect width="100%" height="100%" fill="#14171b"/>
<text x="22" y="26" fill="#F32740" font-weight="700" letter-spacing="2">LWPC100-S3N2-UD-BA-PSB_BA0_LV1-100W_3000K · 0W · — · FULL CUTOFF</text>
<text x="22" y="42" fill="rgba(255,255,255,0.55)" font-size="8" letter-spacing="1.4">LUMINOUS INTENSITY DISTRIBUTION (cd/klm)</text>
<path d="M 232.0 64.0 A 68.0 68.0 0 0 0 368.0 64.0" fill="none" stroke="rgba(120,200,200,0.18)" stroke-width="0.7"/>
<path d="M 164.0 64.0 A 136.0 136.0 0 0 0 436.0 64.0" fill="none" stroke="rgba(120,200,200,0.18)" stroke-width="0.7"/>
<path d="M 96.0 64.0 A 204.0 204.0 0 0 0 504.0 64.0" fill="none" stroke="rgba(120,200,200,0.18)" stroke-width="0.7"/>
<path d="M 28.0 64.0 A 272.0 272.0 0 0 0 572.0 64.0" fill="none" stroke="rgba(120,200,200,0.18)" stroke-width="0.7"/>
<path d="M -40.0 64.0 A 340.0 340.0 0 0 0 640.0 64.0" fill="none" stroke="rgba(120,200,200,0.18)" stroke-width="0.7"/>
<line x1="300.0" y1="64" x2="388.0" y2="392.4" stroke="rgba(120,200,200,0.10)" stroke-width="0.5"/>
<line x1="300.0" y1="64" x2="212.0" y2="392.4" stroke="rgba(120,200,200,0.10)" stroke-width="0.5"/>
<line x1="300.0" y1="64" x2="470.0" y2="358.4" stroke="rgba(120,200,200,0.10)" stroke-width="0.5"/>
<line x1="300.0" y1="64" x2="130.0" y2="358.4" stroke="rgba(120,200,200,0.10)" stroke-width="0.5"/>
<line x1="300.0" y1="64" x2="540.4" y2="304.4" stroke="rgba(120,200,200,0.10)" stroke-width="0.5"/>
<line x1="300.0" y1="64" x2="59.6" y2="304.4" stroke="rgba(120,200,200,0.10)" stroke-width="0.5"/>
<line x1="300.0" y1="64" x2="594.4" y2="234.0" stroke="rgba(120,200,200,0.10)" stroke-width="0.5"/>
<line x1="300.0" y1="64" x2="5.6" y2="234.0" stroke="rgba(120,200,200,0.10)" stroke-width="0.5"/>
<line x1="300.0" y1="64" x2="628.4" y2="152.0" stroke="rgba(120,200,200,0.10)" stroke-width="0.5"/>
<line x1="300.0" y1="64" x2="-28.4" y2="152.0" stroke="rgba(120,200,200,0.10)" stroke-width="0.5"/>
<line x1="300.0" y1="64" x2="640.0" y2="64.0" stroke="rgba(120,200,200,0.10)" stroke-width="0.5"/>
<line x1="300.0" y1="64" x2="-40.0" y2="64.0" stroke="rgba(120,200,200,0.10)" stroke-width="0.5"/>
<line x1="300.0" y1="64" x2="300.0" y2="408" stroke="rgba(120,200,200,0.14)" stroke-width="0.5"/>
<line x1="-40.0" y1="64" x2="640.0" y2="64" stroke="rgba(120,200,200,0.14)" stroke-width="0.5"/>
<text x="391.6" y="408.9" text-anchor="middle" fill="rgba(255,255,255,0.4)" font-size="9">15°</text>
<text x="208.4" y="408.9" text-anchor="middle" fill="rgba(255,255,255,0.4)" font-size="9">15°</text>
<text x="477.0" y="373.6" text-anchor="middle" fill="rgba(255,255,255,0.6)" font-size="9">30°</text>
<text x="123.0" y="373.6" text-anchor="middle" fill="rgba(255,255,255,0.6)" font-size="9">30°</text>
<text x="550.3" y="317.3" text-anchor="middle" fill="rgba(255,255,255,0.4)" font-size="9">45°</text>
<text x="49.7" y="317.3" text-anchor="middle" fill="rgba(255,255,255,0.4)" font-size="9">45°</text>
<text x="606.6" y="244.0" text-anchor="middle" fill="rgba(255,255,255,0.6)" font-size="9">60°</text>
<text x="-6.6" y="244.0" text-anchor="middle" fill="rgba(255,255,255,0.6)" font-size="9">60°</text>
<text x="641.9" y="158.6" text-anchor="middle" fill="rgba(255,255,255,0.4)" font-size="9">75°</text>
<text x="-41.9" y="158.6" text-anchor="middle" fill="rgba(255,255,255,0.4)" font-size="9">75°</text>
<text x="654.0" y="67.0" text-anchor="middle" fill="rgba(255,255,255,0.6)" font-size="9">90°</text>
<text x="-54.0" y="67.0" text-anchor="middle" fill="rgba(255,255,255,0.6)" font-size="9">90°</text>
<text x="300" y="426" text-anchor="middle" fill="rgba(255,255,255,0.6)" font-size="9">0°</text>
<path d="M 300.0 283.7 L 303.8 283.6 L 307.7 283.2 L 311.5 282.8 L 315.3 282.5 L 319.1 282.1 L 322.8 281.4 L 326.5 280.2 L 330.3 279.6 L 333.9 278.0 L 337.6 277.0 L 341.0 275.1 L 344.5 273.6 L 347.9 271.6 L 351.3 269.8 L 354.6 267.8 L 357.8 265.5 L 360.9 263.3 L 363.9 260.8 L 366.9 258.3 L 369.8 255.7 L 372.5 252.9 L 375.1 249.9 L 377.6 246.8 L 379.9 243.6 L 382.2 240.3 L 384.3 236.9 L 386.3 233.4 L 388.1 229.8 L 389.9 226.2 L 391.6 222.7 L 393.0 218.7 L 394.3 215.0 L 395.7 211.3 L 396.6 207.3 L 397.2 202.8 L 397.9 198.7 L 398.6 194.8 L 399.1 190.9 L 399.4 186.8 L 399.3 182.3 L 399.2 178.1 L 399.1 174.0 L 398.7 169.8 L 397.8 165.3 L 397.0 161.0 L 396.2 156.9 L 394.8 152.4 L 393.8 148.4 L 392.4 144.3 L 390.8 140.2 L 389.0 136.1 L 387.0 132.0 L 385.0 128.1 L 382.9 124.3 L 380.4 120.3 L 378.0 116.6 L 375.8 113.2 L 373.2 109.7 L 370.6 106.4 L 367.9 103.2 L 365.2 100.2 L 362.4 97.2 L 359.4 94.2 L 356.6 91.6 L 353.7 89.1 L 351.0 86.7 L 348.0 84.4 L 345.3 82.3 L 342.6 80.4 L 339.7 78.5 L 337.1 76.8 L 334.5 75.2 L 332.0 73.8 L 329.5 72.5 L 326.7 71.2 L 324.4 70.1 L 322.1 69.1 L 319.9 68.2 L 317.5 67.4 L 315.5 66.7 L 313.4 66.1 L 311.5 65.6 L 309.5 65.2 L 307.7 64.8 L 306.1 64.5 L 304.5 64.3 L 303.2 64.2 L 302.0 64.1 L 300.0 64.0 L 300.0 64.0 L 300.0 64.0 L 300.0 64.0 L 300.0 64.0 L 300.0 64.0 L 298.1 64.1 L 297.0 64.3 L 295.5 64.5 L 294.0 64.7 L 292.4 65.1 L 290.4 65.5 L 288.6 66.0 L 286.6 66.6 L 284.6 67.3 L 282.3 68.1 L 280.1 69.0 L 277.8 70.0 L 275.6 71.0 L 273.1 72.2 L 270.5 73.6 L 268.1 75.0 L 265.4 76.6 L 262.6 78.3 L 260.0 80.1 L 257.4 82.1 L 254.7 84.2 L 251.8 86.5 L 249.2 88.8 L 246.5 91.3 L 243.8 93.9 L 240.6 96.9 L 238.0 99.8 L 235.4 102.8 L 232.8 106.0 L 230.0 109.4 L 227.6 112.9 L 225.0 116.5 L 222.8 120.1 L 220.6 123.8 L 218.3 127.9 L 216.2 131.9 L 214.5 135.7 L 212.6 140.0 L 210.9 144.2 L 209.7 148.2 L 208.3 152.6 L 207.3 156.7 L 206.4 161.0 L 205.7 165.1 L 205.0 169.5 L 204.6 173.7 L 204.1 178.3 L 204.0 182.5 L 204.2 186.6 L 204.4 190.8 L 204.7 195.1 L 205.5 199.0 L 206.1 203.2 L 207.0 207.2 L 208.0 211.2 L 209.3 215.0 L 210.5 219.0 L 212.0 222.8 L 213.7 226.4 L 215.2 230.4 L 217.3 233.6 L 219.2 237.4 L 221.3 240.8 L 223.7 243.7 L 226.1 246.9 L 228.7 249.8 L 231.3 252.6 L 234.0 255.5 L 236.9 258.1 L 239.7 261.1 L 242.8 263.6 L 245.9 265.7 L 249.1 268.1 L 252.4 270.1 L 255.8 272.2 L 259.2 273.9 L 262.7 275.7 L 266.3 276.8 L 269.9 278.2 L 273.6 279.1 L 277.2 280.5 L 281.0 281.4 L 284.7 282.3 L 288.5 283.2 L 292.3 283.3 L 296.2 283.6 L 300.0 283.7 Z" fill="none" stroke="#3FA9F5" stroke-width="1.7" stroke-linejoin="round" stroke-linecap="round"/>
<path d="M 300.0 283.7 L 303.9 286.2 L 307.8 288.4 L 311.8 289.4 L 315.8 290.4 L 319.9 291.1 L 324.0 292.3 L 328.1 292.9 L 332.3 294.0 L 336.5 294.5 L 340.7 295.0 L 345.1 295.9 L 349.2 295.5 L 353.4 295.3 L 357.4 294.4 L 361.3 292.6 L 364.9 290.3 L 368.4 287.6 L 371.4 283.7 L 374.3 279.6 L 376.6 274.5 L 378.7 269.0 L 380.5 263.3 L 381.7 256.6 L 383.0 250.4 L 384.0 244.2 L 384.5 237.3 L 384.8 230.4 L 385.1 224.1 L 385.2 217.7 L 385.0 211.1 L 384.3 204.3 L 384.0 198.4 L 383.6 192.7 L 382.6 186.4 L 381.6 180.5 L 380.4 174.7 L 379.1 169.0 L 377.3 162.9 L 375.4 157.2 L 373.6 151.7 L 371.6 146.4 L 369.4 141.1 L 367.1 135.9 L 364.1 130.4 L 361.4 125.4 L 358.8 120.7 L 355.7 115.9 L 352.8 111.5 L 349.9 107.4 L 347.1 103.5 L 344.0 99.6 L 341.5 96.4 L 339.1 93.5 L 336.8 90.7 L 334.7 88.3 L 332.8 86.1 L 331.0 84.2 L 329.2 82.2 L 327.6 80.6 L 326.1 79.1 L 324.7 77.7 L 323.4 76.5 L 322.0 75.2 L 320.8 74.2 L 319.7 73.2 L 318.6 72.3 L 317.4 71.4 L 316.4 70.6 L 315.3 69.9 L 314.2 69.2 L 313.2 68.5 L 312.2 68.0 L 311.1 67.4 L 310.1 66.9 L 309.2 66.5 L 308.3 66.1 L 307.3 65.7 L 306.3 65.3 L 305.4 65.1 L 304.6 64.8 L 303.7 64.6 L 303.0 64.4 L 302.2 64.3 L 301.6 64.2 L 301.0 64.1 L 300.0 64.0 L 300.0 64.0 L 300.0 64.0 L 300.0 64.0 L 300.0 64.0 L 300.0 64.0 L 300.0 64.0 L 299.0 64.0 L 298.5 64.1 L 297.8 64.2 L 296.9 64.3 L 296.0 64.4 L 295.2 64.6 L 294.4 64.8 L 293.4 65.0 L 292.5 65.3 L 291.6 65.6 L 290.7 66.0 L 289.6 66.4 L 288.6 66.8 L 287.6 67.3 L 286.5 67.9 L 285.4 68.5 L 284.4 69.1 L 283.4 69.7 L 282.4 70.4 L 281.3 71.2 L 280.2 72.0 L 279.2 72.8 L 278.1 73.8 L 276.8 74.8 L 275.7 75.9 L 274.4 77.0 L 273.1 78.3 L 271.7 79.7 L 270.3 81.2 L 268.9 82.7 L 267.3 84.4 L 265.5 86.4 L 263.9 88.4 L 262.1 90.6 L 260.4 92.8 L 258.5 95.3 L 256.4 98.1 L 254.5 100.9 L 252.6 103.8 L 250.7 106.9 L 249.0 109.9 L 247.4 113.1 L 246.0 116.2 L 244.5 119.5 L 243.4 122.6 L 242.3 125.9 L 241.7 128.8 L 241.0 131.9 L 240.3 135.1 L 240.1 138.0 L 240.0 140.8 L 240.0 143.7 L 240.1 146.4 L 240.2 149.4 L 240.5 152.2 L 240.7 155.3 L 240.9 158.6 L 241.2 161.9 L 241.5 165.3 L 242.0 168.7 L 242.4 172.4 L 242.7 176.4 L 243.2 180.4 L 243.9 184.3 L 244.6 188.4 L 245.2 193.1 L 246.2 197.2 L 247.1 201.9 L 248.3 206.0 L 249.6 210.4 L 251.0 214.7 L 252.5 219.4 L 254.3 223.3 L 256.2 227.3 L 258.3 231.3 L 260.6 234.9 L 262.9 238.6 L 265.3 242.3 L 267.9 245.9 L 270.6 249.6 L 273.4 253.6 L 276.3 257.4 L 279.3 261.0 L 282.5 264.5 L 285.7 268.3 L 289.1 272.2 L 292.6 276.4 L 296.2 279.7 L 300.0 283.7 Z" fill="none" stroke="#F32740" stroke-width="2.0" stroke-linejoin="round" stroke-linecap="round"/>
<text x="338" y="132" fill="#F32740" font-size="9.5" font-weight="700">150</text>
<text x="335" y="200" fill="#F32740" font-size="9.5" font-weight="700">300</text>
<text x="335" y="268" fill="#F32740" font-size="9.5" font-weight="700">450</text>
<text x="335" y="336" fill="#F32740" font-size="9.5" font-weight="700">600</text>
<rect x="274.0" y="58" width="52" height="11" rx="1.5" fill="#fafbfc" stroke="rgba(255,255,255,0.4)" stroke-width="0.5"/>
<line x1="272.0" y1="69.8" x2="328.0" y2="69.8" stroke="#F32740" stroke-width="0.7" stroke-dasharray="1.5 2"/>
<text x="300" y="66" text-anchor="middle" fill="#F32740" font-size="8" font-weight="700" letter-spacing="0.5">cd/klm SCALE</text>
<g transform="translate(22, 434)">
<text x="0" y="-8" fill="rgba(255,255,255,0.55)" font-size="8" letter-spacing="1.4">cd/klm</text>
<line x1="0" y1="6" x2="22" y2="6" stroke="#F32740" stroke-width="2.2"/>
<text x="28" y="9" fill="rgba(255,255,255,0.7)" font-size="9.5">C0 – C180</text>
<line x1="120" y1="6" x2="142" y2="6" stroke="#3FA9F5" stroke-width="1.7"/>
<text x="148" y="9" fill="rgba(255,255,255,0.7)" font-size="9.5">C90 – C270</text>
</g>
<text x="578" y="402" fill="rgba(255,255,255,0.45)" font-size="9" text-anchor="end">η = 134 lm/W</text>
<text x="578" y="418" fill="rgba(255,255,255,0.45)" font-size="9" text-anchor="end">13,696 lm · 102.4W</text>
<text x="578" y="434" fill="rgba(255,255,255,0.55)" font-size="8" letter-spacing="1.4" text-anchor="end">PEAK INTENSITY</text>
<text x="578" y="451" fill="#fff" font-weight="700" font-size="14" text-anchor="end">7,174 cd</text>
</svg>