<svg viewBox="0 0 600 460" xmlns="http://www.w3.org/2000/svg" font-family="JetBrains Mono, monospace" font-size="9.5">
<rect width="100%" height="100%" fill="#14171b"/>
<text x="22" y="26" fill="#F32740" font-weight="700" letter-spacing="2">LWPC100-S3N2-UD-BA-PSB_BA0_LV3-60W_3000K · 0W · — · FULL CUTOFF</text>
<text x="22" y="42" fill="rgba(255,255,255,0.55)" font-size="8" letter-spacing="1.4">LUMINOUS INTENSITY DISTRIBUTION (cd/klm)</text>
<path d="M 232.0 64.0 A 68.0 68.0 0 0 0 368.0 64.0" fill="none" stroke="rgba(120,200,200,0.18)" stroke-width="0.7"/>
<path d="M 164.0 64.0 A 136.0 136.0 0 0 0 436.0 64.0" fill="none" stroke="rgba(120,200,200,0.18)" stroke-width="0.7"/>
<path d="M 96.0 64.0 A 204.0 204.0 0 0 0 504.0 64.0" fill="none" stroke="rgba(120,200,200,0.18)" stroke-width="0.7"/>
<path d="M 28.0 64.0 A 272.0 272.0 0 0 0 572.0 64.0" fill="none" stroke="rgba(120,200,200,0.18)" stroke-width="0.7"/>
<path d="M -40.0 64.0 A 340.0 340.0 0 0 0 640.0 64.0" fill="none" stroke="rgba(120,200,200,0.18)" stroke-width="0.7"/>
<line x1="300.0" y1="64" x2="388.0" y2="392.4" stroke="rgba(120,200,200,0.10)" stroke-width="0.5"/>
<line x1="300.0" y1="64" x2="212.0" y2="392.4" stroke="rgba(120,200,200,0.10)" stroke-width="0.5"/>
<line x1="300.0" y1="64" x2="470.0" y2="358.4" stroke="rgba(120,200,200,0.10)" stroke-width="0.5"/>
<line x1="300.0" y1="64" x2="130.0" y2="358.4" stroke="rgba(120,200,200,0.10)" stroke-width="0.5"/>
<line x1="300.0" y1="64" x2="540.4" y2="304.4" stroke="rgba(120,200,200,0.10)" stroke-width="0.5"/>
<line x1="300.0" y1="64" x2="59.6" y2="304.4" stroke="rgba(120,200,200,0.10)" stroke-width="0.5"/>
<line x1="300.0" y1="64" x2="594.4" y2="234.0" stroke="rgba(120,200,200,0.10)" stroke-width="0.5"/>
<line x1="300.0" y1="64" x2="5.6" y2="234.0" stroke="rgba(120,200,200,0.10)" stroke-width="0.5"/>
<line x1="300.0" y1="64" x2="628.4" y2="152.0" stroke="rgba(120,200,200,0.10)" stroke-width="0.5"/>
<line x1="300.0" y1="64" x2="-28.4" y2="152.0" stroke="rgba(120,200,200,0.10)" stroke-width="0.5"/>
<line x1="300.0" y1="64" x2="640.0" y2="64.0" stroke="rgba(120,200,200,0.10)" stroke-width="0.5"/>
<line x1="300.0" y1="64" x2="-40.0" y2="64.0" stroke="rgba(120,200,200,0.10)" stroke-width="0.5"/>
<line x1="300.0" y1="64" x2="300.0" y2="408" stroke="rgba(120,200,200,0.14)" stroke-width="0.5"/>
<line x1="-40.0" y1="64" x2="640.0" y2="64" stroke="rgba(120,200,200,0.14)" stroke-width="0.5"/>
<text x="391.6" y="408.9" text-anchor="middle" fill="rgba(255,255,255,0.4)" font-size="9">15°</text>
<text x="208.4" y="408.9" text-anchor="middle" fill="rgba(255,255,255,0.4)" font-size="9">15°</text>
<text x="477.0" y="373.6" text-anchor="middle" fill="rgba(255,255,255,0.6)" font-size="9">30°</text>
<text x="123.0" y="373.6" text-anchor="middle" fill="rgba(255,255,255,0.6)" font-size="9">30°</text>
<text x="550.3" y="317.3" text-anchor="middle" fill="rgba(255,255,255,0.4)" font-size="9">45°</text>
<text x="49.7" y="317.3" text-anchor="middle" fill="rgba(255,255,255,0.4)" font-size="9">45°</text>
<text x="606.6" y="244.0" text-anchor="middle" fill="rgba(255,255,255,0.6)" font-size="9">60°</text>
<text x="-6.6" y="244.0" text-anchor="middle" fill="rgba(255,255,255,0.6)" font-size="9">60°</text>
<text x="641.9" y="158.6" text-anchor="middle" fill="rgba(255,255,255,0.4)" font-size="9">75°</text>
<text x="-41.9" y="158.6" text-anchor="middle" fill="rgba(255,255,255,0.4)" font-size="9">75°</text>
<text x="654.0" y="67.0" text-anchor="middle" fill="rgba(255,255,255,0.6)" font-size="9">90°</text>
<text x="-54.0" y="67.0" text-anchor="middle" fill="rgba(255,255,255,0.6)" font-size="9">90°</text>
<text x="300" y="426" text-anchor="middle" fill="rgba(255,255,255,0.6)" font-size="9">0°</text>
<path d="M 300.0 282.7 L 303.8 282.7 L 307.6 282.5 L 311.5 282.8 L 315.2 281.8 L 319.0 281.6 L 322.8 280.6 L 326.5 279.7 L 330.1 278.0 L 333.7 276.8 L 337.4 276.0 L 341.0 274.7 L 344.3 272.4 L 347.7 270.8 L 351.1 269.1 L 354.3 266.7 L 357.5 264.6 L 360.6 262.1 L 363.7 260.2 L 366.5 257.1 L 369.3 254.4 L 372.0 251.6 L 374.7 248.9 L 377.2 245.8 L 379.6 242.7 L 381.7 239.1 L 383.7 235.7 L 385.8 232.3 L 387.6 228.8 L 389.4 225.3 L 391.2 221.9 L 392.5 217.9 L 393.8 214.1 L 395.0 210.3 L 396.1 206.4 L 396.9 202.4 L 397.4 198.1 L 398.1 194.1 L 398.3 189.9 L 398.5 185.7 L 398.7 181.6 L 398.7 177.6 L 398.3 173.2 L 398.0 169.1 L 397.4 164.9 L 396.6 160.6 L 395.5 156.3 L 394.5 152.1 L 393.2 147.9 L 391.9 143.9 L 390.4 139.9 L 388.5 135.7 L 386.8 131.8 L 384.7 127.8 L 382.6 124.0 L 380.4 120.3 L 377.9 116.6 L 375.5 113.0 L 372.8 109.5 L 370.2 106.2 L 367.6 103.0 L 365.0 100.0 L 362.1 97.0 L 359.3 94.2 L 356.7 91.6 L 353.8 89.1 L 350.7 86.6 L 348.1 84.4 L 345.4 82.3 L 342.4 80.3 L 339.9 78.5 L 337.2 76.8 L 334.7 75.3 L 331.9 73.8 L 329.4 72.4 L 327.0 71.2 L 324.6 70.1 L 322.3 69.2 L 319.9 68.2 L 317.7 67.5 L 315.7 66.8 L 313.7 66.2 L 311.6 65.6 L 309.8 65.2 L 308.1 64.9 L 306.5 64.6 L 304.8 64.3 L 303.6 64.2 L 302.4 64.1 L 301.4 64.0 L 300.0 64.0 L 300.0 64.0 L 299.8 64.0 L 299.4 64.0 L 298.7 64.1 L 297.7 64.2 L 296.6 64.3 L 295.2 64.5 L 293.7 64.8 L 292.1 65.1 L 290.2 65.6 L 288.3 66.1 L 286.4 66.6 L 284.3 67.3 L 282.0 68.2 L 279.9 69.0 L 277.7 70.0 L 275.1 71.1 L 272.7 72.3 L 270.4 73.6 L 267.9 75.0 L 265.4 76.6 L 262.6 78.4 L 259.9 80.2 L 257.3 82.1 L 254.6 84.2 L 251.6 86.6 L 249.0 88.9 L 246.3 91.4 L 243.3 94.1 L 240.6 96.9 L 238.0 99.8 L 235.5 102.8 L 232.5 106.2 L 229.9 109.5 L 227.5 112.9 L 225.1 116.4 L 222.6 120.2 L 220.3 124.0 L 218.5 127.7 L 216.6 131.5 L 214.5 135.7 L 212.6 140.0 L 211.1 144.0 L 209.7 148.2 L 208.7 152.2 L 207.2 156.8 L 206.5 160.8 L 205.8 165.0 L 205.1 169.4 L 204.7 173.7 L 204.6 177.7 L 204.6 181.8 L 204.7 186.0 L 204.3 190.9 L 204.8 195.0 L 205.5 198.9 L 206.3 203.0 L 207.3 206.8 L 208.4 210.6 L 209.6 214.5 L 210.8 218.5 L 212.4 221.9 L 214.0 225.8 L 215.5 229.8 L 217.5 233.1 L 219.6 236.4 L 221.8 239.7 L 224.0 243.0 L 226.3 246.5 L 228.7 249.8 L 231.5 252.2 L 234.3 254.7 L 237.1 257.5 L 240.0 260.3 L 243.0 262.7 L 246.1 265.0 L 249.3 267.3 L 252.6 269.4 L 255.9 271.3 L 259.4 273.0 L 262.8 274.8 L 266.4 276.0 L 270.0 277.2 L 273.7 278.5 L 277.4 279.5 L 281.0 280.8 L 284.8 281.7 L 288.6 282.1 L 292.4 282.7 L 296.2 282.8 L 300.0 282.7 Z" fill="none" stroke="#3FA9F5" stroke-width="1.7" stroke-linejoin="round" stroke-linecap="round"/>
<path d="M 300.0 282.7 L 303.9 284.7 L 307.8 286.4 L 311.7 287.6 L 315.7 288.5 L 319.7 289.2 L 323.8 290.0 L 327.9 290.8 L 332.0 291.9 L 336.3 293.0 L 340.6 294.0 L 344.8 294.4 L 349.1 295.0 L 353.1 294.0 L 357.0 292.8 L 360.9 291.3 L 364.5 288.9 L 367.8 285.7 L 370.8 281.8 L 373.5 277.5 L 375.9 272.6 L 378.2 267.7 L 380.0 262.1 L 381.5 256.0 L 382.7 249.7 L 383.3 242.7 L 384.0 236.2 L 384.3 229.5 L 384.2 222.3 L 384.1 215.8 L 384.0 209.5 L 384.1 203.9 L 383.4 197.5 L 382.9 191.6 L 382.2 185.9 L 381.2 180.0 L 380.1 174.2 L 378.3 167.9 L 376.6 162.1 L 375.0 156.6 L 373.2 151.2 L 370.9 145.5 L 368.7 140.3 L 366.5 135.3 L 364.1 130.3 L 361.0 125.0 L 358.4 120.4 L 355.6 115.9 L 352.4 111.2 L 349.7 107.2 L 346.8 103.3 L 344.2 99.8 L 341.7 96.6 L 339.3 93.6 L 337.0 90.9 L 334.9 88.5 L 333.0 86.3 L 331.0 84.1 L 329.3 82.3 L 327.7 80.6 L 326.1 79.1 L 324.7 77.7 L 323.4 76.4 L 322.1 75.3 L 320.8 74.2 L 319.7 73.2 L 318.6 72.3 L 317.5 71.4 L 316.4 70.6 L 315.3 69.9 L 314.3 69.2 L 313.3 68.6 L 312.3 68.0 L 311.3 67.5 L 310.4 67.0 L 309.4 66.5 L 308.5 66.1 L 307.4 65.7 L 306.5 65.4 L 305.7 65.1 L 304.7 64.8 L 303.9 64.6 L 303.2 64.4 L 302.5 64.3 L 301.8 64.2 L 301.2 64.1 L 300.7 64.1 L 300.4 64.0 L 300.1 64.0 L 300.0 64.0 L 300.0 64.0 L 300.0 64.0 L 299.1 64.0 L 298.6 64.0 L 298.1 64.1 L 297.4 64.2 L 296.6 64.3 L 295.8 64.4 L 294.8 64.6 L 294.0 64.8 L 293.1 65.1 L 292.2 65.4 L 291.3 65.7 L 290.3 66.1 L 289.3 66.5 L 288.3 66.9 L 287.1 67.4 L 286.1 68.0 L 285.2 68.5 L 284.2 69.1 L 283.1 69.8 L 282.1 70.5 L 281.1 71.3 L 280.0 72.1 L 278.8 73.0 L 277.7 73.9 L 276.6 74.9 L 275.3 76.0 L 274.1 77.2 L 272.8 78.4 L 271.5 79.8 L 270.1 81.2 L 268.4 83.0 L 266.9 84.7 L 265.2 86.6 L 263.5 88.6 L 261.6 90.9 L 259.9 93.2 L 258.0 95.7 L 256.0 98.4 L 254.3 101.0 L 252.4 103.9 L 250.6 107.0 L 248.9 110.0 L 247.3 113.1 L 245.7 116.4 L 244.4 119.6 L 243.4 122.7 L 242.4 125.8 L 241.6 128.8 L 241.1 131.7 L 240.7 134.6 L 240.2 137.8 L 240.1 140.7 L 240.2 143.3 L 240.3 146.2 L 240.4 149.1 L 240.5 152.2 L 240.7 155.3 L 241.1 158.2 L 241.5 161.4 L 241.8 164.8 L 242.2 168.3 L 242.6 171.9 L 243.1 175.6 L 243.5 179.9 L 244.1 183.9 L 244.7 188.1 L 245.6 192.3 L 246.4 196.6 L 247.4 201.0 L 248.5 205.4 L 249.9 209.5 L 251.4 213.6 L 253.0 217.8 L 254.7 221.9 L 256.7 225.6 L 258.6 230.0 L 260.8 233.6 L 263.2 237.2 L 265.5 241.4 L 268.1 245.0 L 270.8 248.5 L 273.6 252.0 L 276.5 255.6 L 279.5 259.1 L 282.6 262.7 L 285.8 266.6 L 289.2 270.4 L 292.7 274.4 L 296.3 278.6 L 300.0 282.7 Z" fill="none" stroke="#F32740" stroke-width="2.0" stroke-linejoin="round" stroke-linecap="round"/>
<text x="338" y="132" fill="#F32740" font-size="9.5" font-weight="700">150</text>
<text x="335" y="200" fill="#F32740" font-size="9.5" font-weight="700">300</text>
<text x="335" y="268" fill="#F32740" font-size="9.5" font-weight="700">450</text>
<text x="335" y="336" fill="#F32740" font-size="9.5" font-weight="700">600</text>
<rect x="274.0" y="58" width="52" height="11" rx="1.5" fill="#fafbfc" stroke="rgba(255,255,255,0.4)" stroke-width="0.5"/>
<line x1="272.0" y1="69.8" x2="328.0" y2="69.8" stroke="#F32740" stroke-width="0.7" stroke-dasharray="1.5 2"/>
<text x="300" y="66" text-anchor="middle" fill="#F32740" font-size="8" font-weight="700" letter-spacing="0.5">cd/klm SCALE</text>
<g transform="translate(22, 434)">
<text x="0" y="-8" fill="rgba(255,255,255,0.55)" font-size="8" letter-spacing="1.4">cd/klm</text>
<line x1="0" y1="6" x2="22" y2="6" stroke="#F32740" stroke-width="2.2"/>
<text x="28" y="9" fill="rgba(255,255,255,0.7)" font-size="9.5">C0 – C180</text>
<line x1="120" y1="6" x2="142" y2="6" stroke="#3FA9F5" stroke-width="1.7"/>
<text x="148" y="9" fill="rgba(255,255,255,0.7)" font-size="9.5">C90 – C270</text>
</g>
<text x="578" y="402" fill="rgba(255,255,255,0.45)" font-size="9" text-anchor="end">η = 149 lm/W</text>
<text x="578" y="418" fill="rgba(255,255,255,0.45)" font-size="9" text-anchor="end">9,438 lm · 63.3W</text>
<text x="578" y="434" fill="rgba(255,255,255,0.55)" font-size="8" letter-spacing="1.4" text-anchor="end">PEAK INTENSITY</text>
<text x="578" y="451" fill="#fff" font-weight="700" font-size="14" text-anchor="end">4,916 cd</text>
</svg>