<svg viewBox="0 0 600 460" xmlns="http://www.w3.org/2000/svg" font-family="JetBrains Mono, monospace" font-size="9.5">
<rect width="100%" height="100%" fill="#14171b"/>
<text x="22" y="26" fill="#F32740" font-weight="700" letter-spacing="2">LWPC100-S3N2-UD-BA-PSB_BA0_LV1-100W_5000K · 0W · — · FULL CUTOFF</text>
<text x="22" y="42" fill="rgba(255,255,255,0.55)" font-size="8" letter-spacing="1.4">LUMINOUS INTENSITY DISTRIBUTION (cd/klm)</text>
<path d="M 232.0 64.0 A 68.0 68.0 0 0 0 368.0 64.0" fill="none" stroke="rgba(120,200,200,0.18)" stroke-width="0.7"/>
<path d="M 164.0 64.0 A 136.0 136.0 0 0 0 436.0 64.0" fill="none" stroke="rgba(120,200,200,0.18)" stroke-width="0.7"/>
<path d="M 96.0 64.0 A 204.0 204.0 0 0 0 504.0 64.0" fill="none" stroke="rgba(120,200,200,0.18)" stroke-width="0.7"/>
<path d="M 28.0 64.0 A 272.0 272.0 0 0 0 572.0 64.0" fill="none" stroke="rgba(120,200,200,0.18)" stroke-width="0.7"/>
<path d="M -40.0 64.0 A 340.0 340.0 0 0 0 640.0 64.0" fill="none" stroke="rgba(120,200,200,0.18)" stroke-width="0.7"/>
<line x1="300.0" y1="64" x2="388.0" y2="392.4" stroke="rgba(120,200,200,0.10)" stroke-width="0.5"/>
<line x1="300.0" y1="64" x2="212.0" y2="392.4" stroke="rgba(120,200,200,0.10)" stroke-width="0.5"/>
<line x1="300.0" y1="64" x2="470.0" y2="358.4" stroke="rgba(120,200,200,0.10)" stroke-width="0.5"/>
<line x1="300.0" y1="64" x2="130.0" y2="358.4" stroke="rgba(120,200,200,0.10)" stroke-width="0.5"/>
<line x1="300.0" y1="64" x2="540.4" y2="304.4" stroke="rgba(120,200,200,0.10)" stroke-width="0.5"/>
<line x1="300.0" y1="64" x2="59.6" y2="304.4" stroke="rgba(120,200,200,0.10)" stroke-width="0.5"/>
<line x1="300.0" y1="64" x2="594.4" y2="234.0" stroke="rgba(120,200,200,0.10)" stroke-width="0.5"/>
<line x1="300.0" y1="64" x2="5.6" y2="234.0" stroke="rgba(120,200,200,0.10)" stroke-width="0.5"/>
<line x1="300.0" y1="64" x2="628.4" y2="152.0" stroke="rgba(120,200,200,0.10)" stroke-width="0.5"/>
<line x1="300.0" y1="64" x2="-28.4" y2="152.0" stroke="rgba(120,200,200,0.10)" stroke-width="0.5"/>
<line x1="300.0" y1="64" x2="640.0" y2="64.0" stroke="rgba(120,200,200,0.10)" stroke-width="0.5"/>
<line x1="300.0" y1="64" x2="-40.0" y2="64.0" stroke="rgba(120,200,200,0.10)" stroke-width="0.5"/>
<line x1="300.0" y1="64" x2="300.0" y2="408" stroke="rgba(120,200,200,0.14)" stroke-width="0.5"/>
<line x1="-40.0" y1="64" x2="640.0" y2="64" stroke="rgba(120,200,200,0.14)" stroke-width="0.5"/>
<text x="391.6" y="408.9" text-anchor="middle" fill="rgba(255,255,255,0.4)" font-size="9">15°</text>
<text x="208.4" y="408.9" text-anchor="middle" fill="rgba(255,255,255,0.4)" font-size="9">15°</text>
<text x="477.0" y="373.6" text-anchor="middle" fill="rgba(255,255,255,0.6)" font-size="9">30°</text>
<text x="123.0" y="373.6" text-anchor="middle" fill="rgba(255,255,255,0.6)" font-size="9">30°</text>
<text x="550.3" y="317.3" text-anchor="middle" fill="rgba(255,255,255,0.4)" font-size="9">45°</text>
<text x="49.7" y="317.3" text-anchor="middle" fill="rgba(255,255,255,0.4)" font-size="9">45°</text>
<text x="606.6" y="244.0" text-anchor="middle" fill="rgba(255,255,255,0.6)" font-size="9">60°</text>
<text x="-6.6" y="244.0" text-anchor="middle" fill="rgba(255,255,255,0.6)" font-size="9">60°</text>
<text x="641.9" y="158.6" text-anchor="middle" fill="rgba(255,255,255,0.4)" font-size="9">75°</text>
<text x="-41.9" y="158.6" text-anchor="middle" fill="rgba(255,255,255,0.4)" font-size="9">75°</text>
<text x="654.0" y="67.0" text-anchor="middle" fill="rgba(255,255,255,0.6)" font-size="9">90°</text>
<text x="-54.0" y="67.0" text-anchor="middle" fill="rgba(255,255,255,0.6)" font-size="9">90°</text>
<text x="300" y="426" text-anchor="middle" fill="rgba(255,255,255,0.6)" font-size="9">0°</text>
<path d="M 300.0 282.4 L 303.8 282.2 L 307.6 282.4 L 311.4 281.9 L 315.2 281.7 L 319.0 281.1 L 322.7 280.3 L 326.4 279.3 L 330.2 278.6 L 333.8 277.3 L 337.4 276.0 L 340.8 274.1 L 344.4 273.0 L 347.9 271.4 L 351.2 269.5 L 354.4 267.2 L 357.8 265.5 L 360.8 263.0 L 363.9 260.6 L 366.7 257.6 L 369.6 255.2 L 372.4 252.7 L 375.0 249.7 L 377.4 246.4 L 379.8 243.2 L 382.3 240.4 L 384.2 236.7 L 386.4 233.5 L 388.2 229.9 L 390.0 226.4 L 391.6 222.7 L 393.0 218.7 L 394.4 215.1 L 395.6 211.2 L 396.7 207.4 L 397.7 203.5 L 398.4 199.4 L 399.1 195.5 L 399.2 190.9 L 399.4 186.7 L 399.6 182.7 L 399.6 178.6 L 399.5 174.5 L 398.8 170.0 L 398.4 165.9 L 397.9 161.9 L 397.0 157.6 L 395.8 153.3 L 394.8 149.3 L 393.3 145.1 L 391.3 140.6 L 389.7 136.7 L 387.9 132.7 L 386.0 128.8 L 383.9 125.0 L 381.9 121.3 L 379.6 117.7 L 377.4 114.2 L 374.4 110.5 L 371.8 107.2 L 369.2 104.0 L 366.2 100.7 L 363.5 97.8 L 360.8 95.0 L 358.0 92.3 L 355.2 89.8 L 352.2 87.2 L 349.3 84.9 L 346.6 82.8 L 343.5 80.7 L 340.9 78.9 L 338.2 77.1 L 335.5 75.5 L 332.8 74.0 L 330.3 72.7 L 327.8 71.4 L 325.4 70.3 L 322.9 69.3 L 320.4 68.3 L 318.2 67.5 L 316.0 66.8 L 313.9 66.2 L 311.7 65.6 L 309.9 65.2 L 308.0 64.8 L 306.4 64.6 L 304.6 64.3 L 303.3 64.2 L 302.0 64.1 L 300.0 64.0 L 300.0 64.0 L 300.0 64.0 L 300.0 64.0 L 300.0 64.0 L 300.0 64.0 L 298.2 64.1 L 297.1 64.3 L 295.8 64.4 L 294.3 64.7 L 292.7 65.0 L 290.8 65.4 L 289.1 65.9 L 287.2 66.5 L 285.0 67.2 L 282.9 67.9 L 280.8 68.8 L 278.6 69.7 L 276.0 70.9 L 273.7 72.0 L 271.4 73.3 L 268.9 74.7 L 266.2 76.3 L 263.6 78.0 L 261.0 79.8 L 258.4 81.6 L 255.8 83.7 L 252.8 86.0 L 250.2 88.3 L 247.5 90.8 L 244.6 93.4 L 242.0 96.2 L 239.3 99.0 L 236.7 102.0 L 233.8 105.4 L 231.3 108.6 L 228.8 112.0 L 226.4 115.5 L 223.8 119.3 L 221.5 123.2 L 219.6 126.8 L 217.6 130.7 L 215.7 134.8 L 214.0 138.7 L 212.6 142.7 L 211.1 146.9 L 209.8 151.1 L 208.8 155.2 L 207.6 159.7 L 206.7 164.1 L 206.0 168.4 L 205.7 172.5 L 205.4 176.8 L 205.5 180.7 L 205.5 185.0 L 205.5 189.4 L 206.0 193.4 L 206.5 197.5 L 207.3 201.4 L 208.1 205.5 L 209.0 209.6 L 210.1 213.6 L 211.4 217.4 L 213.0 221.0 L 214.6 224.6 L 216.3 228.2 L 218.3 231.4 L 220.2 235.1 L 222.4 238.3 L 224.3 242.3 L 226.8 245.2 L 229.4 248.0 L 231.9 251.0 L 234.7 253.7 L 237.5 256.5 L 240.4 258.9 L 243.3 261.6 L 246.4 264.1 L 249.6 266.1 L 252.9 268.2 L 256.2 270.1 L 259.6 271.7 L 263.0 273.7 L 266.6 275.1 L 270.1 276.6 L 273.8 277.7 L 277.4 278.9 L 281.1 280.2 L 284.9 280.6 L 288.6 281.4 L 292.4 281.5 L 296.2 282.2 L 300.0 282.4 Z" fill="none" stroke="#3FA9F5" stroke-width="1.7" stroke-linejoin="round" stroke-linecap="round"/>
<path d="M 300.0 282.4 L 303.9 285.2 L 307.8 286.9 L 311.8 288.4 L 315.8 289.4 L 319.8 289.9 L 323.8 290.6 L 327.9 291.6 L 332.1 292.4 L 336.3 293.1 L 340.6 294.1 L 344.8 294.2 L 348.9 294.0 L 353.0 293.4 L 356.8 291.7 L 360.7 290.4 L 364.0 287.4 L 367.4 284.4 L 370.5 280.9 L 373.3 276.8 L 375.6 271.8 L 377.7 266.5 L 379.8 261.4 L 381.2 255.3 L 382.6 249.6 L 383.2 242.4 L 383.8 235.9 L 384.1 229.1 L 384.4 222.8 L 384.4 216.3 L 384.3 210.0 L 383.9 203.6 L 383.4 197.4 L 382.9 191.7 L 382.2 185.9 L 381.1 179.9 L 380.0 174.1 L 378.2 167.8 L 376.6 162.0 L 374.9 156.5 L 373.1 151.1 L 370.9 145.6 L 368.6 140.1 L 366.3 135.1 L 363.8 130.0 L 360.7 124.7 L 357.8 119.9 L 355.0 115.3 L 351.9 110.7 L 349.0 106.6 L 346.1 102.7 L 343.5 99.2 L 341.0 96.0 L 338.7 93.2 L 336.3 90.4 L 334.4 88.1 L 332.4 85.8 L 330.5 83.8 L 328.8 82.0 L 327.3 80.4 L 325.7 78.9 L 324.4 77.5 L 323.1 76.3 L 321.9 75.2 L 320.7 74.1 L 319.6 73.1 L 318.3 72.2 L 317.3 71.4 L 316.2 70.5 L 315.1 69.8 L 314.1 69.1 L 313.1 68.5 L 312.1 67.9 L 311.1 67.4 L 310.1 66.9 L 309.1 66.4 L 308.2 66.0 L 307.1 65.6 L 306.2 65.3 L 305.3 65.0 L 304.4 64.8 L 303.5 64.6 L 302.7 64.4 L 302.0 64.2 L 301.4 64.1 L 300.8 64.1 L 300.0 64.0 L 300.0 64.0 L 300.0 64.0 L 300.0 64.0 L 300.0 64.0 L 300.0 64.0 L 300.0 64.0 L 299.0 64.0 L 298.4 64.1 L 297.7 64.2 L 296.9 64.3 L 296.1 64.4 L 295.1 64.6 L 294.2 64.8 L 293.3 65.1 L 292.4 65.3 L 291.5 65.7 L 290.4 66.0 L 289.4 66.5 L 288.4 66.9 L 287.2 67.4 L 286.1 68.0 L 285.2 68.5 L 284.2 69.1 L 283.1 69.8 L 282.0 70.5 L 281.0 71.3 L 279.9 72.1 L 278.7 73.0 L 277.5 74.0 L 276.3 75.0 L 275.0 76.2 L 273.8 77.4 L 272.4 78.6 L 271.1 80.0 L 269.6 81.5 L 267.8 83.3 L 266.2 85.1 L 264.6 87.0 L 262.9 89.0 L 261.0 91.3 L 259.1 93.7 L 257.2 96.3 L 255.1 99.1 L 253.2 101.9 L 251.4 104.8 L 249.6 107.8 L 247.9 110.9 L 246.1 114.3 L 244.6 117.5 L 243.3 120.7 L 242.3 123.8 L 241.4 126.8 L 240.5 130.1 L 240.0 133.0 L 239.6 136.0 L 239.0 139.3 L 238.9 142.2 L 238.9 145.0 L 239.1 147.9 L 239.2 150.8 L 239.6 153.5 L 239.8 156.8 L 240.1 159.9 L 240.4 163.3 L 240.9 166.4 L 241.2 170.2 L 241.7 173.7 L 242.2 177.3 L 242.5 181.8 L 243.3 185.6 L 244.0 189.7 L 244.8 194.0 L 245.8 198.2 L 246.8 202.5 L 248.0 206.8 L 249.3 211.3 L 250.8 215.4 L 252.6 219.1 L 254.4 223.2 L 256.3 227.2 L 258.2 231.7 L 260.4 235.3 L 262.8 239.2 L 265.3 242.5 L 267.9 246.2 L 270.6 249.4 L 273.4 253.0 L 276.3 256.9 L 279.4 260.3 L 282.5 264.1 L 285.8 267.3 L 289.1 271.5 L 292.6 275.3 L 296.3 278.8 L 300.0 282.4 Z" fill="none" stroke="#F32740" stroke-width="2.0" stroke-linejoin="round" stroke-linecap="round"/>
<text x="338" y="132" fill="#F32740" font-size="9.5" font-weight="700">150</text>
<text x="335" y="200" fill="#F32740" font-size="9.5" font-weight="700">300</text>
<text x="335" y="268" fill="#F32740" font-size="9.5" font-weight="700">450</text>
<text x="335" y="336" fill="#F32740" font-size="9.5" font-weight="700">600</text>
<rect x="274.0" y="58" width="52" height="11" rx="1.5" fill="#fafbfc" stroke="rgba(255,255,255,0.4)" stroke-width="0.5"/>
<line x1="272.0" y1="69.8" x2="328.0" y2="69.8" stroke="#F32740" stroke-width="0.7" stroke-dasharray="1.5 2"/>
<text x="300" y="66" text-anchor="middle" fill="#F32740" font-size="8" font-weight="700" letter-spacing="0.5">cd/klm SCALE</text>
<g transform="translate(22, 434)">
<text x="0" y="-8" fill="rgba(255,255,255,0.55)" font-size="8" letter-spacing="1.4">cd/klm</text>
<line x1="0" y1="6" x2="22" y2="6" stroke="#F32740" stroke-width="2.2"/>
<text x="28" y="9" fill="rgba(255,255,255,0.7)" font-size="9.5">C0 – C180</text>
<line x1="120" y1="6" x2="142" y2="6" stroke="#3FA9F5" stroke-width="1.7"/>
<text x="148" y="9" fill="rgba(255,255,255,0.7)" font-size="9.5">C90 – C270</text>
</g>
<text x="578" y="402" fill="rgba(255,255,255,0.45)" font-size="9" text-anchor="end">η = 136 lm/W</text>
<text x="578" y="418" fill="rgba(255,255,255,0.45)" font-size="9" text-anchor="end">13,984 lm · 102.5W</text>
<text x="578" y="434" fill="rgba(255,255,255,0.55)" font-size="8" letter-spacing="1.4" text-anchor="end">PEAK INTENSITY</text>
<text x="578" y="451" fill="#fff" font-weight="700" font-size="14" text-anchor="end">7,263 cd</text>
</svg>