<svg viewBox="0 0 600 460" xmlns="http://www.w3.org/2000/svg" font-family="JetBrains Mono, monospace" font-size="9.5">
<rect width="100%" height="100%" fill="#14171b"/>
<text x="22" y="26" fill="#F32740" font-weight="700" letter-spacing="2">LWPC100-S3N2-UD-BA-PSB_BA45_LV1-100W_3000K · 0W · — · FULL CUTOFF</text>
<text x="22" y="42" fill="rgba(255,255,255,0.55)" font-size="8" letter-spacing="1.4">LUMINOUS INTENSITY DISTRIBUTION (cd/klm)</text>
<path d="M 232.0 64.0 A 68.0 68.0 0 0 0 368.0 64.0" fill="none" stroke="rgba(120,200,200,0.18)" stroke-width="0.7"/>
<path d="M 164.0 64.0 A 136.0 136.0 0 0 0 436.0 64.0" fill="none" stroke="rgba(120,200,200,0.18)" stroke-width="0.7"/>
<path d="M 96.0 64.0 A 204.0 204.0 0 0 0 504.0 64.0" fill="none" stroke="rgba(120,200,200,0.18)" stroke-width="0.7"/>
<path d="M 28.0 64.0 A 272.0 272.0 0 0 0 572.0 64.0" fill="none" stroke="rgba(120,200,200,0.18)" stroke-width="0.7"/>
<path d="M -40.0 64.0 A 340.0 340.0 0 0 0 640.0 64.0" fill="none" stroke="rgba(120,200,200,0.18)" stroke-width="0.7"/>
<line x1="300.0" y1="64" x2="388.0" y2="392.4" stroke="rgba(120,200,200,0.10)" stroke-width="0.5"/>
<line x1="300.0" y1="64" x2="212.0" y2="392.4" stroke="rgba(120,200,200,0.10)" stroke-width="0.5"/>
<line x1="300.0" y1="64" x2="470.0" y2="358.4" stroke="rgba(120,200,200,0.10)" stroke-width="0.5"/>
<line x1="300.0" y1="64" x2="130.0" y2="358.4" stroke="rgba(120,200,200,0.10)" stroke-width="0.5"/>
<line x1="300.0" y1="64" x2="540.4" y2="304.4" stroke="rgba(120,200,200,0.10)" stroke-width="0.5"/>
<line x1="300.0" y1="64" x2="59.6" y2="304.4" stroke="rgba(120,200,200,0.10)" stroke-width="0.5"/>
<line x1="300.0" y1="64" x2="594.4" y2="234.0" stroke="rgba(120,200,200,0.10)" stroke-width="0.5"/>
<line x1="300.0" y1="64" x2="5.6" y2="234.0" stroke="rgba(120,200,200,0.10)" stroke-width="0.5"/>
<line x1="300.0" y1="64" x2="628.4" y2="152.0" stroke="rgba(120,200,200,0.10)" stroke-width="0.5"/>
<line x1="300.0" y1="64" x2="-28.4" y2="152.0" stroke="rgba(120,200,200,0.10)" stroke-width="0.5"/>
<line x1="300.0" y1="64" x2="640.0" y2="64.0" stroke="rgba(120,200,200,0.10)" stroke-width="0.5"/>
<line x1="300.0" y1="64" x2="-40.0" y2="64.0" stroke="rgba(120,200,200,0.10)" stroke-width="0.5"/>
<line x1="300.0" y1="64" x2="300.0" y2="408" stroke="rgba(120,200,200,0.14)" stroke-width="0.5"/>
<line x1="-40.0" y1="64" x2="640.0" y2="64" stroke="rgba(120,200,200,0.14)" stroke-width="0.5"/>
<text x="391.6" y="408.9" text-anchor="middle" fill="rgba(255,255,255,0.4)" font-size="9">15°</text>
<text x="208.4" y="408.9" text-anchor="middle" fill="rgba(255,255,255,0.4)" font-size="9">15°</text>
<text x="477.0" y="373.6" text-anchor="middle" fill="rgba(255,255,255,0.6)" font-size="9">30°</text>
<text x="123.0" y="373.6" text-anchor="middle" fill="rgba(255,255,255,0.6)" font-size="9">30°</text>
<text x="550.3" y="317.3" text-anchor="middle" fill="rgba(255,255,255,0.4)" font-size="9">45°</text>
<text x="49.7" y="317.3" text-anchor="middle" fill="rgba(255,255,255,0.4)" font-size="9">45°</text>
<text x="606.6" y="244.0" text-anchor="middle" fill="rgba(255,255,255,0.6)" font-size="9">60°</text>
<text x="-6.6" y="244.0" text-anchor="middle" fill="rgba(255,255,255,0.6)" font-size="9">60°</text>
<text x="641.9" y="158.6" text-anchor="middle" fill="rgba(255,255,255,0.4)" font-size="9">75°</text>
<text x="-41.9" y="158.6" text-anchor="middle" fill="rgba(255,255,255,0.4)" font-size="9">75°</text>
<text x="654.0" y="67.0" text-anchor="middle" fill="rgba(255,255,255,0.6)" font-size="9">90°</text>
<text x="-54.0" y="67.0" text-anchor="middle" fill="rgba(255,255,255,0.6)" font-size="9">90°</text>
<text x="300" y="426" text-anchor="middle" fill="rgba(255,255,255,0.6)" font-size="9">0°</text>
<path d="M 300.0 137.4 L 301.3 137.3 L 302.6 137.1 L 303.8 137.1 L 305.1 136.8 L 306.3 136.4 L 307.6 136.0 L 308.8 135.8 L 310.0 135.4 L 311.2 134.8 L 312.4 134.5 L 313.6 133.9 L 314.7 133.3 L 315.8 132.4 L 316.9 131.8 L 318.0 131.0 L 319.0 130.2 L 320.0 129.4 L 321.0 128.6 L 321.9 127.6 L 322.8 126.6 L 323.7 125.7 L 324.5 124.6 L 325.3 123.5 L 326.1 122.6 L 326.8 121.4 L 327.5 120.3 L 328.0 119.0 L 328.7 117.9 L 329.2 116.6 L 329.7 115.4 L 330.1 114.2 L 330.6 113.0 L 331.0 111.8 L 331.4 110.5 L 331.6 109.2 L 331.9 107.9 L 332.1 106.6 L 332.2 105.2 L 332.3 103.9 L 332.4 102.6 L 332.5 101.4 L 332.6 100.2 L 332.6 99.0 L 332.6 97.7 L 332.4 96.4 L 332.3 95.2 L 332.3 94.1 L 332.1 92.9 L 331.9 91.7 L 331.6 90.5 L 331.3 89.3 L 330.9 88.1 L 330.5 87.0 L 329.9 85.7 L 329.5 84.7 L 328.9 83.5 L 328.4 82.4 L 327.6 81.3 L 327.0 80.2 L 326.3 79.2 L 325.5 78.1 L 324.7 77.1 L 323.9 76.2 L 323.1 75.3 L 322.2 74.4 L 321.2 73.4 L 320.3 72.6 L 319.4 71.8 L 318.4 71.1 L 317.4 70.3 L 316.4 69.7 L 315.4 69.0 L 314.3 68.4 L 313.3 67.8 L 312.3 67.3 L 311.2 66.8 L 310.1 66.3 L 309.0 65.9 L 308.0 65.6 L 307.0 65.2 L 306.0 64.9 L 305.1 64.7 L 304.1 64.5 L 303.3 64.3 L 302.4 64.2 L 301.8 64.1 L 301.2 64.1 L 300.6 64.0 L 300.0 64.0 L 300.0 64.0 L 300.0 64.0 L 300.0 64.0 L 299.7 64.0 L 299.1 64.0 L 298.4 64.1 L 297.6 64.2 L 296.8 64.3 L 295.9 64.5 L 294.8 64.7 L 293.8 65.0 L 292.7 65.3 L 291.7 65.6 L 290.5 66.0 L 289.4 66.4 L 288.3 66.9 L 287.2 67.4 L 286.0 68.0 L 284.9 68.6 L 283.8 69.2 L 282.8 69.9 L 281.6 70.7 L 280.6 71.4 L 279.6 72.2 L 278.6 73.1 L 277.5 74.0 L 276.6 74.9 L 275.7 75.8 L 274.9 76.8 L 274.1 77.8 L 273.2 78.8 L 272.5 79.9 L 271.7 81.0 L 271.0 82.1 L 270.4 83.3 L 269.8 84.4 L 269.2 85.6 L 268.6 86.8 L 268.1 88.0 L 267.7 89.2 L 267.4 90.4 L 267.1 91.6 L 266.7 93.0 L 266.6 94.1 L 266.4 95.4 L 266.3 96.5 L 266.2 97.8 L 266.2 99.0 L 266.1 100.4 L 266.2 101.5 L 266.4 102.7 L 266.5 103.9 L 266.7 105.2 L 266.9 106.4 L 267.0 107.8 L 267.4 108.9 L 267.6 110.2 L 268.0 111.5 L 268.3 112.8 L 268.8 114.0 L 269.2 115.2 L 269.7 116.5 L 270.2 117.7 L 270.9 118.8 L 271.5 120.0 L 272.2 121.1 L 272.9 122.2 L 273.6 123.4 L 274.4 124.4 L 275.2 125.4 L 276.0 126.5 L 276.9 127.5 L 277.9 128.2 L 278.8 129.1 L 279.8 130.0 L 280.8 130.8 L 281.9 131.6 L 282.9 132.4 L 284.1 133.1 L 285.2 133.8 L 286.3 134.4 L 287.5 134.8 L 288.7 135.4 L 289.9 135.7 L 291.2 136.0 L 292.4 136.4 L 293.6 136.7 L 294.9 136.8 L 296.2 137.1 L 297.4 137.1 L 298.7 137.0 L 300.0 137.4 Z" fill="none" stroke="#3FA9F5" stroke-width="1.7" stroke-linejoin="round" stroke-linecap="round"/>
<path d="M 300.0 137.4 L 301.3 141.1 L 302.8 144.1 L 304.4 147.1 L 306.0 149.7 L 307.7 152.3 L 309.6 155.1 L 311.5 157.3 L 313.4 159.5 L 315.4 161.4 L 317.5 163.4 L 319.7 165.2 L 321.9 167.0 L 324.3 169.3 L 326.6 170.8 L 329.3 173.3 L 331.9 175.3 L 334.7 177.4 L 337.6 179.8 L 340.7 182.2 L 343.8 184.4 L 347.1 186.7 L 350.7 189.5 L 354.3 191.8 L 357.9 194.1 L 361.8 196.5 L 365.9 199.2 L 369.9 201.2 L 374.1 203.3 L 378.3 205.3 L 382.5 207.0 L 386.7 208.2 L 391.0 209.7 L 395.2 210.6 L 399.9 212.2 L 404.3 212.9 L 408.8 213.8 L 413.4 214.5 L 417.9 214.9 L 422.5 215.3 L 427.4 215.8 L 432.2 216.1 L 437.2 216.3 L 442.3 216.6 L 447.7 217.0 L 453.2 217.2 L 458.5 217.1 L 464.0 216.9 L 468.4 215.6 L 472.1 213.6 L 475.6 211.4 L 479.2 209.1 L 482.3 206.4 L 486.2 204.3 L 489.8 201.9 L 493.4 199.4 L 497.1 196.9 L 500.7 194.3 L 503.8 191.3 L 506.8 188.3 L 509.3 184.8 L 510.8 180.9 L 512.0 176.7 L 512.2 172.1 L 511.8 167.3 L 511.2 162.5 L 509.8 157.4 L 507.4 152.0 L 505.0 146.8 L 501.6 141.4 L 497.1 135.7 L 493.4 130.6 L 488.8 125.4 L 484.0 120.2 L 479.3 115.4 L 474.8 110.8 L 469.7 106.3 L 465.1 102.1 L 459.8 98.0 L 455.4 94.2 L 450.2 90.5 L 445.6 87.1 L 439.8 83.7 L 434.3 80.5 L 428.9 77.5 L 423.6 74.8 L 417.8 72.2 L 412.3 69.9 L 407.1 67.7 L 401.5 65.8 L 395.1 64.0 L 300.0 64.0 L 300.0 64.0 L 300.0 64.0 L 300.0 64.0 L 300.0 64.0 L 300.0 64.0 L 300.0 64.0 L 300.0 64.0 L 300.0 64.0 L 300.0 64.0 L 300.0 64.0 L 300.0 64.0 L 300.0 64.0 L 300.0 64.0 L 300.0 64.0 L 300.0 64.0 L 300.0 64.0 L 300.0 64.0 L 300.0 64.0 L 300.0 64.0 L 300.0 64.0 L 300.0 64.0 L 300.0 64.0 L 300.0 64.0 L 300.0 64.0 L 300.0 64.0 L 300.0 64.0 L 300.0 64.0 L 300.0 64.0 L 300.0 64.0 L 300.0 64.0 L 300.0 64.0 L 300.0 64.0 L 300.0 64.0 L 300.0 64.0 L 300.0 64.0 L 300.0 64.0 L 300.0 64.0 L 300.0 64.0 L 300.0 64.0 L 300.0 64.0 L 300.0 64.0 L 300.0 64.0 L 300.0 64.0 L 300.0 64.0 L 300.0 64.0 L 300.0 64.0 L 299.6 64.4 L 299.3 64.7 L 299.0 65.2 L 298.6 65.7 L 298.1 66.3 L 297.6 67.0 L 297.2 67.8 L 296.7 68.6 L 296.3 69.3 L 295.9 70.1 L 295.4 71.1 L 295.0 72.0 L 294.6 72.9 L 294.3 74.0 L 293.9 75.1 L 293.5 76.2 L 293.3 77.2 L 293.0 78.3 L 292.8 79.5 L 292.6 80.7 L 292.3 82.1 L 292.2 83.4 L 292.0 84.7 L 291.9 86.2 L 291.8 87.7 L 291.8 89.2 L 291.7 91.0 L 291.8 92.7 L 291.8 94.6 L 291.9 96.6 L 292.0 98.7 L 292.1 101.1 L 292.4 103.4 L 292.6 105.9 L 292.9 108.6 L 293.3 111.8 L 293.8 114.8 L 294.3 118.0 L 295.0 121.2 L 295.8 124.5 L 296.7 127.7 L 297.7 131.1 L 298.8 134.5 L 300.0 137.4 Z" fill="none" stroke="#F32740" stroke-width="2.0" stroke-linejoin="round" stroke-linecap="round"/>
<text x="338" y="132" fill="#F32740" font-size="9.5" font-weight="700">150</text>
<text x="335" y="200" fill="#F32740" font-size="9.5" font-weight="700">300</text>
<text x="335" y="268" fill="#F32740" font-size="9.5" font-weight="700">450</text>
<text x="335" y="336" fill="#F32740" font-size="9.5" font-weight="700">600</text>
<rect x="274.0" y="58" width="52" height="11" rx="1.5" fill="#fafbfc" stroke="rgba(255,255,255,0.4)" stroke-width="0.5"/>
<line x1="272.0" y1="69.8" x2="328.0" y2="69.8" stroke="#F32740" stroke-width="0.7" stroke-dasharray="1.5 2"/>
<text x="300" y="66" text-anchor="middle" fill="#F32740" font-size="8" font-weight="700" letter-spacing="0.5">cd/klm SCALE</text>
<g transform="translate(22, 434)">
<text x="0" y="-8" fill="rgba(255,255,255,0.55)" font-size="8" letter-spacing="1.4">cd/klm</text>
<line x1="0" y1="6" x2="22" y2="6" stroke="#F32740" stroke-width="2.2"/>
<text x="28" y="9" fill="rgba(255,255,255,0.7)" font-size="9.5">C0 – C180</text>
<line x1="120" y1="6" x2="142" y2="6" stroke="#3FA9F5" stroke-width="1.7"/>
<text x="148" y="9" fill="rgba(255,255,255,0.7)" font-size="9.5">C90 – C270</text>
</g>
<text x="578" y="402" fill="rgba(255,255,255,0.45)" font-size="9" text-anchor="end">η = 134 lm/W</text>
<text x="578" y="418" fill="rgba(255,255,255,0.45)" font-size="9" text-anchor="end">13,744 lm · 102.6W</text>
<text x="578" y="434" fill="rgba(255,255,255,0.55)" font-size="8" letter-spacing="1.4" text-anchor="end">PEAK INTENSITY</text>
<text x="578" y="451" fill="#fff" font-weight="700" font-size="14" text-anchor="end">7,326 cd</text>
</svg>