<svg viewBox="0 0 600 460" xmlns="http://www.w3.org/2000/svg" font-family="JetBrains Mono, monospace" font-size="9.5">
<rect width="100%" height="100%" fill="#14171b"/>
<text x="22" y="26" fill="#F32740" font-weight="700" letter-spacing="2">LWPC100-S3N2-UD-BA-PSB_BA45_LV3-60W_4000K · 0W · — · FULL CUTOFF</text>
<text x="22" y="42" fill="rgba(255,255,255,0.55)" font-size="8" letter-spacing="1.4">LUMINOUS INTENSITY DISTRIBUTION (cd/klm)</text>
<path d="M 232.0 64.0 A 68.0 68.0 0 0 0 368.0 64.0" fill="none" stroke="rgba(120,200,200,0.18)" stroke-width="0.7"/>
<path d="M 164.0 64.0 A 136.0 136.0 0 0 0 436.0 64.0" fill="none" stroke="rgba(120,200,200,0.18)" stroke-width="0.7"/>
<path d="M 96.0 64.0 A 204.0 204.0 0 0 0 504.0 64.0" fill="none" stroke="rgba(120,200,200,0.18)" stroke-width="0.7"/>
<path d="M 28.0 64.0 A 272.0 272.0 0 0 0 572.0 64.0" fill="none" stroke="rgba(120,200,200,0.18)" stroke-width="0.7"/>
<path d="M -40.0 64.0 A 340.0 340.0 0 0 0 640.0 64.0" fill="none" stroke="rgba(120,200,200,0.18)" stroke-width="0.7"/>
<line x1="300.0" y1="64" x2="388.0" y2="392.4" stroke="rgba(120,200,200,0.10)" stroke-width="0.5"/>
<line x1="300.0" y1="64" x2="212.0" y2="392.4" stroke="rgba(120,200,200,0.10)" stroke-width="0.5"/>
<line x1="300.0" y1="64" x2="470.0" y2="358.4" stroke="rgba(120,200,200,0.10)" stroke-width="0.5"/>
<line x1="300.0" y1="64" x2="130.0" y2="358.4" stroke="rgba(120,200,200,0.10)" stroke-width="0.5"/>
<line x1="300.0" y1="64" x2="540.4" y2="304.4" stroke="rgba(120,200,200,0.10)" stroke-width="0.5"/>
<line x1="300.0" y1="64" x2="59.6" y2="304.4" stroke="rgba(120,200,200,0.10)" stroke-width="0.5"/>
<line x1="300.0" y1="64" x2="594.4" y2="234.0" stroke="rgba(120,200,200,0.10)" stroke-width="0.5"/>
<line x1="300.0" y1="64" x2="5.6" y2="234.0" stroke="rgba(120,200,200,0.10)" stroke-width="0.5"/>
<line x1="300.0" y1="64" x2="628.4" y2="152.0" stroke="rgba(120,200,200,0.10)" stroke-width="0.5"/>
<line x1="300.0" y1="64" x2="-28.4" y2="152.0" stroke="rgba(120,200,200,0.10)" stroke-width="0.5"/>
<line x1="300.0" y1="64" x2="640.0" y2="64.0" stroke="rgba(120,200,200,0.10)" stroke-width="0.5"/>
<line x1="300.0" y1="64" x2="-40.0" y2="64.0" stroke="rgba(120,200,200,0.10)" stroke-width="0.5"/>
<line x1="300.0" y1="64" x2="300.0" y2="408" stroke="rgba(120,200,200,0.14)" stroke-width="0.5"/>
<line x1="-40.0" y1="64" x2="640.0" y2="64" stroke="rgba(120,200,200,0.14)" stroke-width="0.5"/>
<text x="391.6" y="408.9" text-anchor="middle" fill="rgba(255,255,255,0.4)" font-size="9">15°</text>
<text x="208.4" y="408.9" text-anchor="middle" fill="rgba(255,255,255,0.4)" font-size="9">15°</text>
<text x="477.0" y="373.6" text-anchor="middle" fill="rgba(255,255,255,0.6)" font-size="9">30°</text>
<text x="123.0" y="373.6" text-anchor="middle" fill="rgba(255,255,255,0.6)" font-size="9">30°</text>
<text x="550.3" y="317.3" text-anchor="middle" fill="rgba(255,255,255,0.4)" font-size="9">45°</text>
<text x="49.7" y="317.3" text-anchor="middle" fill="rgba(255,255,255,0.4)" font-size="9">45°</text>
<text x="606.6" y="244.0" text-anchor="middle" fill="rgba(255,255,255,0.6)" font-size="9">60°</text>
<text x="-6.6" y="244.0" text-anchor="middle" fill="rgba(255,255,255,0.6)" font-size="9">60°</text>
<text x="641.9" y="158.6" text-anchor="middle" fill="rgba(255,255,255,0.4)" font-size="9">75°</text>
<text x="-41.9" y="158.6" text-anchor="middle" fill="rgba(255,255,255,0.4)" font-size="9">75°</text>
<text x="654.0" y="67.0" text-anchor="middle" fill="rgba(255,255,255,0.6)" font-size="9">90°</text>
<text x="-54.0" y="67.0" text-anchor="middle" fill="rgba(255,255,255,0.6)" font-size="9">90°</text>
<text x="300" y="426" text-anchor="middle" fill="rgba(255,255,255,0.6)" font-size="9">0°</text>
<path d="M 300.0 141.4 L 301.3 141.3 L 302.7 141.3 L 304.1 141.3 L 305.4 141.1 L 306.7 140.9 L 308.0 140.4 L 309.3 140.0 L 310.6 139.7 L 311.9 139.2 L 313.2 138.7 L 314.4 138.2 L 315.6 137.6 L 316.8 136.9 L 318.1 136.5 L 319.2 135.6 L 320.3 134.9 L 321.4 134.0 L 322.5 133.1 L 323.4 131.9 L 324.4 131.0 L 325.3 130.0 L 326.3 129.1 L 327.1 127.9 L 328.0 127.0 L 328.8 125.7 L 329.5 124.4 L 330.2 123.2 L 330.8 122.0 L 331.4 120.7 L 332.1 119.6 L 332.5 118.2 L 333.1 116.9 L 333.4 115.5 L 333.9 114.3 L 334.2 112.9 L 334.6 111.6 L 334.8 110.1 L 334.9 108.7 L 335.1 107.3 L 335.2 106.0 L 335.3 104.6 L 335.4 103.3 L 335.5 102.1 L 335.5 100.8 L 335.5 99.5 L 335.4 98.1 L 335.2 96.9 L 335.1 95.6 L 334.8 94.3 L 334.4 92.9 L 334.0 91.6 L 333.7 90.4 L 333.3 89.1 L 332.8 87.8 L 332.2 86.5 L 331.6 85.3 L 331.1 84.2 L 330.2 82.9 L 329.5 81.7 L 328.8 80.6 L 328.0 79.5 L 327.2 78.4 L 326.3 77.4 L 325.4 76.4 L 324.5 75.4 L 323.5 74.5 L 322.5 73.6 L 321.6 72.7 L 320.5 71.9 L 319.4 71.1 L 318.4 70.3 L 317.3 69.6 L 316.1 68.9 L 315.0 68.3 L 313.9 67.7 L 312.7 67.2 L 311.6 66.7 L 310.4 66.2 L 309.3 65.8 L 308.2 65.4 L 307.2 65.1 L 306.1 64.9 L 305.0 64.6 L 304.1 64.4 L 303.1 64.3 L 302.3 64.2 L 301.6 64.1 L 300.9 64.0 L 300.4 64.0 L 300.0 64.0 L 300.0 64.0 L 300.0 64.0 L 300.0 64.0 L 299.4 64.0 L 298.9 64.1 L 298.1 64.2 L 297.3 64.3 L 296.5 64.4 L 295.5 64.6 L 294.5 64.9 L 293.5 65.1 L 292.4 65.5 L 291.3 65.8 L 290.1 66.3 L 289.0 66.7 L 287.9 67.2 L 286.7 67.8 L 285.6 68.4 L 284.5 69.0 L 283.5 69.7 L 282.3 70.4 L 281.3 71.2 L 280.2 72.0 L 279.2 72.8 L 278.2 73.7 L 277.1 74.7 L 276.1 75.6 L 275.3 76.6 L 274.4 77.6 L 273.5 78.7 L 272.7 79.8 L 271.9 80.9 L 271.0 82.1 L 270.4 83.2 L 269.7 84.4 L 269.2 85.6 L 268.6 86.8 L 267.9 88.2 L 267.5 89.4 L 267.1 90.6 L 266.7 91.9 L 266.3 93.3 L 266.0 94.6 L 265.9 95.8 L 265.7 97.2 L 265.5 98.5 L 265.4 99.8 L 265.3 101.2 L 265.4 102.4 L 265.5 103.7 L 265.6 105.0 L 265.8 106.3 L 265.9 107.7 L 266.1 109.0 L 266.3 110.4 L 266.6 111.7 L 266.8 113.2 L 267.2 114.4 L 267.6 115.9 L 268.0 117.2 L 268.6 118.5 L 269.1 119.8 L 269.7 121.0 L 270.4 122.2 L 271.1 123.3 L 271.8 124.5 L 272.5 125.8 L 273.2 127.0 L 274.1 128.1 L 275.0 129.2 L 275.9 130.2 L 276.8 131.3 L 277.9 132.1 L 278.9 133.0 L 279.9 133.9 L 281.0 134.7 L 282.2 135.5 L 283.3 136.3 L 284.5 137.0 L 285.7 137.6 L 286.9 138.1 L 288.1 139.0 L 289.4 139.4 L 290.7 139.9 L 292.0 140.2 L 293.3 140.5 L 294.6 140.8 L 296.0 140.8 L 297.3 141.0 L 298.7 141.2 L 300.0 141.4 Z" fill="none" stroke="#3FA9F5" stroke-width="1.7" stroke-linejoin="round" stroke-linecap="round"/>
<path d="M 300.0 141.9 L 301.4 145.3 L 302.9 148.1 L 304.6 151.0 L 306.3 153.5 L 308.1 156.1 L 309.9 158.4 L 311.8 160.3 L 313.9 162.6 L 316.0 164.9 L 318.1 166.8 L 320.3 168.6 L 322.6 170.5 L 325.1 172.7 L 327.6 174.9 L 330.2 176.8 L 333.0 179.1 L 335.9 181.3 L 338.9 183.6 L 342.0 185.9 L 345.3 188.3 L 348.6 190.6 L 352.4 193.6 L 356.1 196.1 L 360.0 198.7 L 363.8 200.8 L 367.7 202.9 L 371.8 205.0 L 375.9 206.8 L 380.1 208.5 L 384.3 210.0 L 389.0 212.1 L 393.1 213.0 L 397.4 213.9 L 402.0 215.2 L 406.5 216.2 L 410.9 216.6 L 415.3 217.1 L 419.9 217.5 L 424.6 217.8 L 429.3 218.1 L 434.6 218.9 L 439.4 218.8 L 445.2 219.7 L 450.7 220.0 L 455.6 219.6 L 460.6 219.1 L 465.0 217.9 L 469.0 216.2 L 472.6 214.0 L 476.0 211.7 L 479.4 209.3 L 483.3 207.2 L 486.5 204.5 L 490.5 202.4 L 494.1 199.9 L 497.3 197.1 L 500.5 194.2 L 503.1 190.9 L 505.0 187.2 L 506.6 183.3 L 508.3 179.5 L 508.4 174.8 L 508.4 170.2 L 507.5 165.2 L 505.9 160.0 L 503.3 154.5 L 500.8 149.2 L 497.6 143.8 L 494.4 138.6 L 490.2 133.2 L 486.0 128.0 L 481.8 123.1 L 476.5 118.0 L 471.7 113.2 L 467.4 108.9 L 462.9 104.6 L 458.2 100.5 L 453.0 96.5 L 448.3 92.8 L 443.5 89.3 L 438.5 85.9 L 432.7 82.6 L 427.6 79.7 L 422.2 76.8 L 416.8 74.2 L 410.7 71.7 L 405.2 69.5 L 400.0 67.5 L 394.4 65.6 L 388.1 64.0 L 299.6 64.0 L 299.7 64.0 L 299.7 64.0 L 300.0 64.0 L 300.0 64.0 L 300.0 64.0 L 300.0 64.0 L 300.0 64.0 L 300.0 64.0 L 300.0 64.0 L 300.0 64.0 L 300.0 64.0 L 300.0 64.0 L 300.0 64.0 L 300.0 64.0 L 300.0 64.0 L 300.0 64.0 L 300.0 64.0 L 300.0 64.0 L 300.0 64.0 L 300.0 64.0 L 300.0 64.0 L 300.0 64.0 L 300.0 64.0 L 300.0 64.0 L 300.0 64.0 L 300.0 64.0 L 300.0 64.0 L 300.0 64.0 L 300.0 64.0 L 300.0 64.0 L 300.0 64.0 L 300.0 64.0 L 300.0 64.0 L 300.0 64.0 L 300.0 64.0 L 300.0 64.0 L 300.0 64.0 L 300.0 64.0 L 300.0 64.0 L 300.0 64.0 L 300.0 64.0 L 300.0 64.0 L 300.0 64.0 L 300.0 64.0 L 300.0 64.0 L 299.5 64.5 L 299.2 64.9 L 298.8 65.3 L 298.3 65.9 L 297.9 66.5 L 297.4 67.2 L 296.9 67.9 L 296.4 68.8 L 296.0 69.5 L 295.6 70.3 L 295.2 71.2 L 294.7 72.2 L 294.3 73.1 L 293.9 74.2 L 293.5 75.3 L 293.2 76.3 L 292.9 77.4 L 292.6 78.6 L 292.3 79.8 L 292.1 81.0 L 291.9 82.3 L 291.7 83.5 L 291.5 85.1 L 291.4 86.5 L 291.3 88.0 L 291.2 89.7 L 291.1 91.3 L 291.1 93.1 L 291.1 95.0 L 291.2 96.9 L 291.2 99.3 L 291.3 101.6 L 291.5 104.0 L 291.7 106.6 L 292.0 109.5 L 292.3 112.5 L 292.8 115.4 L 293.3 118.6 L 293.9 122.0 L 294.6 125.2 L 295.5 128.8 L 296.4 132.0 L 297.5 135.5 L 298.7 138.6 L 300.0 141.9 Z" fill="none" stroke="#F32740" stroke-width="2.0" stroke-linejoin="round" stroke-linecap="round"/>
<text x="338" y="132" fill="#F32740" font-size="9.5" font-weight="700">150</text>
<text x="335" y="200" fill="#F32740" font-size="9.5" font-weight="700">300</text>
<text x="335" y="268" fill="#F32740" font-size="9.5" font-weight="700">450</text>
<text x="335" y="336" fill="#F32740" font-size="9.5" font-weight="700">600</text>
<rect x="274.0" y="58" width="52" height="11" rx="1.5" fill="#fafbfc" stroke="rgba(255,255,255,0.4)" stroke-width="0.5"/>
<line x1="272.0" y1="69.8" x2="328.0" y2="69.8" stroke="#F32740" stroke-width="0.7" stroke-dasharray="1.5 2"/>
<text x="300" y="66" text-anchor="middle" fill="#F32740" font-size="8" font-weight="700" letter-spacing="0.5">cd/klm SCALE</text>
<g transform="translate(22, 434)">
<text x="0" y="-8" fill="rgba(255,255,255,0.55)" font-size="8" letter-spacing="1.4">cd/klm</text>
<line x1="0" y1="6" x2="22" y2="6" stroke="#F32740" stroke-width="2.2"/>
<text x="28" y="9" fill="rgba(255,255,255,0.7)" font-size="9.5">C0 – C180</text>
<line x1="120" y1="6" x2="142" y2="6" stroke="#3FA9F5" stroke-width="1.7"/>
<text x="148" y="9" fill="rgba(255,255,255,0.7)" font-size="9.5">C90 – C270</text>
</g>
<text x="578" y="402" fill="rgba(255,255,255,0.45)" font-size="9" text-anchor="end">η = 171 lm/W</text>
<text x="578" y="418" fill="rgba(255,255,255,0.45)" font-size="9" text-anchor="end">10,436 lm · 61.1W</text>
<text x="578" y="434" fill="rgba(255,255,255,0.55)" font-size="8" letter-spacing="1.4" text-anchor="end">PEAK INTENSITY</text>
<text x="578" y="451" fill="#fff" font-weight="700" font-size="14" text-anchor="end">5,512 cd</text>
</svg>