<svg xmlns="http://www.w3.org/2000/svg" viewBox="0 0 480 360" font-family="JetBrains Mono, monospace">
  <rect width="480" height="360" fill="#22262b"/>
  <text x="240.0" y="22" font-size="11" font-weight="700" fill="rgba(255,255,255,0.85)" text-anchor="middle">LSBX100 · Type-5</text>
  <text x="240.0" y="36" font-size="9" fill="rgba(255,255,255,0.55)" text-anchor="middle">peak 5525 cd · 16237 lm · 164 lm/W</text>
  <line x1="100.0" y1="198.00000000000003" x2="380.0" y2="198.00000000000003" stroke="rgba(255,255,255,0.18)" stroke-width="0.8"/>
  <path d="M 207.5 198.00000000000003 A 32.5 32.5 0 0 0 272.5 198.00000000000003" fill="none" stroke="rgba(255,255,255,0.10)" stroke-width="0.8"/><text x="276.5" y="201.00000000000003" font-size="8" fill="rgba(255,255,255,0.45)" font-family="JetBrains Mono, monospace">1381</text><path d="M 175.0 198.00000000000003 A 65.0 65.0 0 0 0 305.0 198.00000000000003" fill="none" stroke="rgba(255,255,255,0.10)" stroke-width="0.8"/><text x="309.0" y="201.00000000000003" font-size="8" fill="rgba(255,255,255,0.45)" font-family="JetBrains Mono, monospace">2762</text><path d="M 142.5 198.00000000000003 A 97.5 97.5 0 0 0 337.5 198.00000000000003" fill="none" stroke="rgba(255,255,255,0.10)" stroke-width="0.8"/><text x="341.5" y="201.00000000000003" font-size="8" fill="rgba(255,255,255,0.45)" font-family="JetBrains Mono, monospace">4143</text><path d="M 110.0 198.00000000000003 A 130.0 130.0 0 0 0 370.0 198.00000000000003" fill="none" stroke="rgba(255,255,255,0.10)" stroke-width="0.8"/><text x="374.0" y="201.00000000000003" font-size="8" fill="rgba(255,255,255,0.45)" font-family="JetBrains Mono, monospace">5524</text>
  <line x1="240.0" y1="198.00000000000003" x2="240.0" y2="328.0" stroke="rgba(255,255,255,0.08)" stroke-width="0.6"/><text x="240" y="338" font-size="9" fill="rgba(255,255,255,0.55)" font-family="JetBrains Mono, monospace" text-anchor="middle">0°</text><line x1="240.0" y1="198.00000000000003" x2="305.0" y2="310.6" stroke="rgba(255,255,255,0.08)" stroke-width="0.6"/><text x="305" y="321" font-size="9" fill="rgba(255,255,255,0.55)" font-family="JetBrains Mono, monospace" text-anchor="middle">30°</text><line x1="240.0" y1="198.00000000000003" x2="175.0" y2="310.6" stroke="rgba(255,255,255,0.08)" stroke-width="0.6"/><text x="175" y="321" font-size="9" fill="rgba(255,255,255,0.55)" font-family="JetBrains Mono, monospace" text-anchor="middle">30°</text><line x1="240.0" y1="198.00000000000003" x2="352.6" y2="263.0" stroke="rgba(255,255,255,0.08)" stroke-width="0.6"/><text x="353" y="273" font-size="9" fill="rgba(255,255,255,0.55)" font-family="JetBrains Mono, monospace" text-anchor="middle">60°</text><line x1="240.0" y1="198.00000000000003" x2="127.4" y2="263.0" stroke="rgba(255,255,255,0.08)" stroke-width="0.6"/><text x="127" y="273" font-size="9" fill="rgba(255,255,255,0.55)" font-family="JetBrains Mono, monospace" text-anchor="middle">60°</text><line x1="240.0" y1="198.00000000000003" x2="370.0" y2="198.0" stroke="rgba(255,255,255,0.08)" stroke-width="0.6"/><text x="370" y="208" font-size="9" fill="rgba(255,255,255,0.55)" font-family="JetBrains Mono, monospace" text-anchor="middle">90°</text><line x1="240.0" y1="198.00000000000003" x2="110.0" y2="198.0" stroke="rgba(255,255,255,0.08)" stroke-width="0.6"/><text x="110" y="208" font-size="9" fill="rgba(255,255,255,0.55)" font-family="JetBrains Mono, monospace" text-anchor="middle">90°</text>
  <path d="M 240.0 254.7 L 240.5 254.7 L 241.0 254.7 L 241.5 254.8 L 242.0 254.8 L 242.5 254.8 L 243.0 254.9 L 243.5 255.0 L 244.0 255.0 L 244.5 255.1 L 245.0 255.2 L 245.5 255.2 L 246.0 255.3 L 246.5 255.5 L 247.1 255.5 L 247.6 255.7 L 248.1 255.8 L 248.7 256.0 L 249.2 256.1 L 249.8 256.3 L 250.3 256.5 L 250.9 256.6 L 251.4 256.8 L 252.0 257.0 L 252.6 257.3 L 253.2 257.7 L 253.9 258.1 L 254.5 258.5 L 255.2 258.9 L 255.9 259.4 L 256.6 259.9 L 257.3 260.4 L 258.1 261.1 L 258.9 261.8 L 259.7 262.6 L 260.6 263.4 L 261.6 264.5 L 262.7 265.7 L 263.7 266.9 L 264.9 268.3 L 266.2 269.9 L 267.4 271.4 L 268.8 273.1 L 270.3 274.9 L 271.8 276.8 L 273.3 278.4 L 274.9 280.3 L 276.5 281.9 L 278.2 283.7 L 279.8 285.4 L 281.4 286.8 L 283.0 288.1 L 284.5 289.2 L 286.0 290.2 L 287.4 291.1 L 288.8 291.6 L 290.0 292.1 L 291.3 292.5 L 292.4 292.4 L 293.4 292.4 L 294.3 292.1 L 295.2 291.7 L 296.0 291.2 L 296.7 290.5 L 297.4 289.9 L 298.0 289.0 L 298.6 288.2 L 299.1 287.3 L 299.6 286.4 L 300.2 285.6 L 300.7 284.7 L 301.3 283.9 L 301.9 283.2 L 302.6 282.6 L 303.2 281.9 L 304.0 281.4 L 304.8 280.9 L 305.5 280.4 L 306.3 279.9 L 307.2 279.5 L 308.0 279.1 L 308.9 278.7 L 309.7 278.2 L 310.6 277.8 L 311.3 277.2 L 312.2 276.8 L 312.9 276.2 L 313.6 275.6 L 314.3 275.0 L 314.9 274.2 L 315.5 273.5 L 316.0 272.7 L 316.5 271.9 L 317.0 271.0 L 317.4 270.2 L 317.7 269.2 L 318.0 268.2 L 318.2 267.2 L 318.4 266.2 L 318.6 265.2 L 318.8 264.1 L 318.9 263.0 L 318.9 261.9 L 318.9 260.7 L 318.7 259.5 L 318.4 258.2 L 318.0 256.8 L 317.5 255.3 L 316.7 253.7 L 315.7 252.0 L 314.6 250.2 L 313.3 248.3 L 311.8 246.4 L 310.0 244.4 L 308.2 242.3 L 306.1 240.1 L 303.8 237.8 L 301.5 235.7 L 299.0 233.4 L 296.4 231.2 L 293.5 228.9 L 290.4 226.5 L 287.2 224.2 L 283.8 221.8 L 280.6 219.6 L 277.4 217.5 L 274.7 215.7 L 272.6 214.2 L 271.1 213.2 L 270.4 212.5 L 270.4 212.2 L 271.0 212.1 L 272.0 212.2 L 273.0 212.4 L 274.0 212.4 L 274.9 212.5 L 275.4 212.3 L 275.4 212.0 L 275.1 211.5 L 274.3 210.8 L 273.2 210.1 L 272.0 209.3 L 270.7 208.6 L 269.4 207.8 L 268.2 207.2 L 267.0 206.5 L 265.9 205.9 L 264.9 205.4 L 263.8 204.8 L 262.8 204.3 L 261.9 203.9 L 261.0 203.4 L 260.2 203.0 L 259.3 202.6 L 258.5 202.3 L 257.7 201.9 L 256.9 201.6 L 256.1 201.3 L 255.3 201.0 L 254.5 200.7 L 253.5 200.4 L 252.3 200.1 L 251.4 199.8 L 250.5 199.6 L 249.9 199.4 L 249.2 199.2 L 248.4 199.0 L 247.7 198.9 L 246.7 198.7 L 246.0 198.6 L 245.5 198.5 L 244.8 198.4 L 244.0 198.3 L 243.3 198.2 L 242.6 198.1 L 241.8 198.1 L 240.9 198.0 L 240.2 198.0 L 240.1 198.0 L 240.1 198.0 L 240.1 198.0" fill="none" stroke="#F32740" stroke-width="2" stroke-linejoin="round"/>
  <path d="M 240.0 254.7 L 240.5 254.7 L 241.0 254.8 L 241.5 254.9 L 242.0 255.0 L 242.5 255.0 L 243.0 255.1 L 243.5 255.2 L 244.0 255.3 L 244.5 255.4 L 245.0 255.5 L 245.5 255.6 L 246.1 255.7 L 246.6 255.8 L 247.1 255.9 L 247.6 256.0 L 248.2 256.2 L 248.7 256.3 L 249.3 256.5 L 249.8 256.6 L 250.4 256.8 L 250.9 257.0 L 251.5 257.2 L 252.1 257.4 L 252.7 257.7 L 253.3 257.9 L 253.9 258.2 L 254.5 258.5 L 255.2 258.8 L 255.8 259.2 L 256.5 259.6 L 257.2 260.0 L 257.9 260.5 L 258.7 261.1 L 259.5 261.7 L 260.3 262.4 L 261.2 263.1 L 262.1 263.9 L 263.1 264.9 L 264.0 265.8 L 265.1 267.0 L 266.2 268.1 L 267.4 269.3 L 268.6 270.7 L 269.9 272.0 L 271.3 273.5 L 272.6 274.8 L 274.0 276.2 L 275.4 277.4 L 276.8 278.7 L 278.1 279.8 L 279.6 281.0 L 280.9 281.9 L 282.2 282.7 L 283.5 283.3 L 284.7 284.0 L 286.0 284.5 L 287.1 284.8 L 288.3 285.1 L 289.4 285.4 L 290.6 285.6 L 291.7 285.7 L 292.7 285.8 L 293.9 285.9 L 295.0 286.0 L 296.0 285.9 L 297.2 286.0 L 298.2 286.0 L 299.4 286.0 L 300.5 286.0 L 301.6 285.9 L 302.7 285.9 L 303.9 285.9 L 305.1 286.0 L 306.3 285.9 L 307.4 285.8 L 308.6 285.8 L 309.8 285.7 L 311.0 285.7 L 312.1 285.4 L 313.3 285.3 L 314.4 285.1 L 315.5 284.9 L 316.7 284.6 L 317.7 284.3 L 318.8 284.0 L 319.8 283.6 L 320.9 283.2 L 321.9 282.9 L 323.0 282.4 L 323.9 281.9 L 324.8 281.3 L 325.5 280.6 L 326.3 279.9 L 327.0 279.1 L 327.6 278.3 L 328.1 277.4 L 328.6 276.4 L 329.0 275.4 L 329.0 274.0 L 328.9 272.6 L 328.8 271.2 L 328.8 269.9 L 328.6 268.5 L 328.1 266.8 L 327.5 265.1 L 326.7 263.3 L 325.5 261.3 L 324.3 259.3 L 322.9 257.2 L 321.4 255.0 L 319.7 252.8 L 317.7 250.4 L 315.5 247.9 L 313.1 245.4 L 310.6 243.0 L 307.8 240.4 L 304.8 237.7 L 301.5 235.0 L 298.2 232.3 L 294.7 229.6 L 290.8 226.8 L 286.9 224.0 L 282.8 221.3 L 279.0 218.8 L 275.1 216.3 L 271.5 214.0 L 268.1 212.0 L 265.2 210.3 L 262.4 208.7 L 260.1 207.4 L 258.0 206.2 L 256.3 205.2 L 254.6 204.4 L 253.3 203.7 L 252.2 203.1 L 251.5 202.6 L 250.7 202.2 L 250.0 201.8 L 249.2 201.4 L 248.5 201.1 L 248.0 200.8 L 247.5 200.6 L 247.1 200.4 L 246.6 200.1 L 246.1 199.9 L 245.7 199.7 L 245.3 199.6 L 245.0 199.4 L 244.7 199.3 L 244.4 199.2 L 244.2 199.1 L 244.0 199.0 L 243.8 198.9 L 243.6 198.8 L 243.4 198.7 L 243.2 198.7 L 243.0 198.6 L 242.8 198.5 L 242.7 198.5 L 242.5 198.4 L 242.3 198.4 L 242.1 198.3 L 242.0 198.3 L 241.8 198.3 L 241.6 198.2 L 241.4 198.2 L 241.3 198.1 L 241.1 198.1 L 240.9 198.1 L 240.8 198.1 L 240.6 198.0 L 240.5 198.0 L 240.3 198.0 L 240.2 198.0 L 240.1 198.0 L 240.0 198.0 L 240.0 198.0 L 240.0 198.0 L 240.0 198.0 L 240.0 198.0" fill="none" stroke="rgba(243,39,64,0.45)" stroke-width="1.4" stroke-dasharray="4,3" stroke-linejoin="round"/>
  <text x="240.0" y="350" font-size="9" fill="rgba(255,255,255,0.45)" text-anchor="middle">— C0 plane    - - - C90 plane    LSBX-100W-277V-5K-T5.IES</text>
</svg>