<svg xmlns="http://www.w3.org/2000/svg" viewBox="0 0 480 360" font-family="JetBrains Mono, monospace">
  <rect width="480" height="360" fill="#22262b"/>
  <text x="240.0" y="22" font-size="11" font-weight="700" fill="rgba(255,255,255,0.85)" text-anchor="middle">LSBX300 · Type-5</text>
  <text x="240.0" y="36" font-size="9" fill="rgba(255,255,255,0.55)" text-anchor="middle">peak 12033 cd · 43723 lm · 149 lm/W</text>
  <line x1="100.0" y1="198.00000000000003" x2="380.0" y2="198.00000000000003" stroke="rgba(255,255,255,0.18)" stroke-width="0.8"/>
  <path d="M 207.5 198.00000000000003 A 32.5 32.5 0 0 0 272.5 198.00000000000003" fill="none" stroke="rgba(255,255,255,0.10)" stroke-width="0.8"/><text x="276.5" y="201.00000000000003" font-size="8" fill="rgba(255,255,255,0.45)" font-family="JetBrains Mono, monospace">3008</text><path d="M 175.0 198.00000000000003 A 65.0 65.0 0 0 0 305.0 198.00000000000003" fill="none" stroke="rgba(255,255,255,0.10)" stroke-width="0.8"/><text x="309.0" y="201.00000000000003" font-size="8" fill="rgba(255,255,255,0.45)" font-family="JetBrains Mono, monospace">6016</text><path d="M 142.5 198.00000000000003 A 97.5 97.5 0 0 0 337.5 198.00000000000003" fill="none" stroke="rgba(255,255,255,0.10)" stroke-width="0.8"/><text x="341.5" y="201.00000000000003" font-size="8" fill="rgba(255,255,255,0.45)" font-family="JetBrains Mono, monospace">9024</text><path d="M 110.0 198.00000000000003 A 130.0 130.0 0 0 0 370.0 198.00000000000003" fill="none" stroke="rgba(255,255,255,0.10)" stroke-width="0.8"/><text x="374.0" y="201.00000000000003" font-size="8" fill="rgba(255,255,255,0.45)" font-family="JetBrains Mono, monospace">12033</text>
  <line x1="240.0" y1="198.00000000000003" x2="240.0" y2="328.0" stroke="rgba(255,255,255,0.08)" stroke-width="0.6"/><text x="240" y="338" font-size="9" fill="rgba(255,255,255,0.55)" font-family="JetBrains Mono, monospace" text-anchor="middle">0°</text><line x1="240.0" y1="198.00000000000003" x2="305.0" y2="310.6" stroke="rgba(255,255,255,0.08)" stroke-width="0.6"/><text x="305" y="321" font-size="9" fill="rgba(255,255,255,0.55)" font-family="JetBrains Mono, monospace" text-anchor="middle">30°</text><line x1="240.0" y1="198.00000000000003" x2="175.0" y2="310.6" stroke="rgba(255,255,255,0.08)" stroke-width="0.6"/><text x="175" y="321" font-size="9" fill="rgba(255,255,255,0.55)" font-family="JetBrains Mono, monospace" text-anchor="middle">30°</text><line x1="240.0" y1="198.00000000000003" x2="352.6" y2="263.0" stroke="rgba(255,255,255,0.08)" stroke-width="0.6"/><text x="353" y="273" font-size="9" fill="rgba(255,255,255,0.55)" font-family="JetBrains Mono, monospace" text-anchor="middle">60°</text><line x1="240.0" y1="198.00000000000003" x2="127.4" y2="263.0" stroke="rgba(255,255,255,0.08)" stroke-width="0.6"/><text x="127" y="273" font-size="9" fill="rgba(255,255,255,0.55)" font-family="JetBrains Mono, monospace" text-anchor="middle">60°</text><line x1="240.0" y1="198.00000000000003" x2="370.0" y2="198.0" stroke="rgba(255,255,255,0.08)" stroke-width="0.6"/><text x="370" y="208" font-size="9" fill="rgba(255,255,255,0.55)" font-family="JetBrains Mono, monospace" text-anchor="middle">90°</text><line x1="240.0" y1="198.00000000000003" x2="110.0" y2="198.0" stroke="rgba(255,255,255,0.08)" stroke-width="0.6"/><text x="110" y="208" font-size="9" fill="rgba(255,255,255,0.55)" font-family="JetBrains Mono, monospace" text-anchor="middle">90°</text>
  <path d="M 240.0 283.6 L 241.5 283.7 L 243.0 283.8 L 244.5 283.8 L 246.0 283.8 L 247.5 283.8 L 249.0 283.8 L 250.5 283.7 L 252.0 283.7 L 253.6 283.7 L 255.1 283.6 L 256.6 283.5 L 258.2 283.5 L 259.7 283.5 L 261.3 283.5 L 262.9 283.4 L 264.5 283.4 L 266.1 283.3 L 267.7 283.2 L 269.3 283.1 L 271.0 283.2 L 272.7 283.2 L 274.4 283.2 L 276.2 283.3 L 278.0 283.4 L 279.9 283.5 L 281.7 283.5 L 283.6 283.6 L 285.6 283.7 L 287.5 283.8 L 289.5 283.8 L 291.6 283.8 L 293.6 283.8 L 295.7 283.8 L 297.8 283.8 L 300.0 283.6 L 302.1 283.5 L 304.3 283.3 L 306.5 283.2 L 308.8 283.0 L 311.1 282.7 L 313.4 282.4 L 315.8 282.1 L 318.1 281.8 L 320.5 281.3 L 322.7 280.7 L 324.9 280.0 L 327.1 279.2 L 328.9 278.1 L 330.6 276.8 L 332.2 275.4 L 333.5 273.7 L 334.6 271.9 L 335.5 270.0 L 336.0 267.8 L 336.3 265.5 L 336.1 262.8 L 335.5 260.0 L 334.2 256.9 L 332.4 253.5 L 329.7 249.8 L 326.0 245.7 L 321.2 241.2 L 315.8 236.6 L 309.7 232.0 L 303.6 227.6 L 297.8 223.7 L 292.6 220.3 L 288.1 217.4 L 284.1 214.9 L 280.7 212.8 L 277.7 211.0 L 275.0 209.4 L 272.5 207.9 L 270.1 206.6 L 267.9 205.5 L 265.7 204.4 L 263.5 203.4 L 261.2 202.5 L 258.9 201.7 L 256.5 200.9 L 254.5 200.3 L 252.5 199.8 L 250.6 199.3 L 248.5 198.9 L 246.5 198.6 L 244.4 198.3 L 242.4 198.1 L 241.4 198.0 L 240.4 198.0 L 240.3 198.0" fill="none" stroke="#F32740" stroke-width="2" stroke-linejoin="round"/>
  <path d="M 240.0 283.6 L 241.5 283.8 L 243.0 283.8 L 244.5 283.9 L 246.0 283.9 L 247.5 283.9 L 249.0 284.0 L 250.6 284.0 L 252.1 284.0 L 253.6 284.0 L 255.2 284.0 L 256.7 284.0 L 258.3 284.0 L 259.9 284.1 L 261.5 284.1 L 263.1 284.1 L 264.7 284.1 L 266.3 284.1 L 268.0 284.2 L 269.7 284.2 L 271.4 284.2 L 273.1 284.2 L 274.9 284.4 L 276.7 284.5 L 278.6 284.6 L 280.4 284.7 L 282.4 284.9 L 284.3 285.0 L 286.4 285.2 L 288.4 285.4 L 290.6 285.6 L 292.8 285.8 L 295.0 286.0 L 297.3 286.2 L 299.6 286.3 L 301.8 286.3 L 304.2 286.4 L 306.7 286.5 L 309.0 286.3 L 311.3 286.1 L 313.7 285.9 L 316.1 285.5 L 318.4 285.1 L 320.7 284.5 L 322.8 283.7 L 324.8 282.8 L 326.8 281.8 L 328.7 280.7 L 330.4 279.4 L 331.9 277.9 L 333.4 276.3 L 334.5 274.5 L 335.5 272.6 L 336.0 270.4 L 336.3 267.9 L 336.1 265.3 L 335.6 262.5 L 334.5 259.3 L 332.9 256.1 L 330.8 252.6 L 328.1 248.9 L 324.8 245.0 L 320.9 241.0 L 316.5 237.0 L 311.7 233.0 L 306.4 229.0 L 301.0 225.2 L 295.6 221.6 L 290.3 218.3 L 285.0 215.3 L 280.2 212.6 L 275.7 210.3 L 271.6 208.3 L 267.8 206.5 L 264.1 204.9 L 260.6 203.5 L 257.5 202.4 L 255.0 201.5 L 252.9 200.7 L 251.0 200.1 L 249.3 199.6 L 247.7 199.2 L 246.3 198.9 L 245.2 198.6 L 244.1 198.4 L 243.0 198.3 L 242.1 198.1 L 241.3 198.1 L 240.5 198.0 L 240.1 198.0 L 240.1 198.0" fill="none" stroke="rgba(243,39,64,0.45)" stroke-width="1.4" stroke-dasharray="4,3" stroke-linejoin="round"/>
  <text x="240.0" y="350" font-size="9" fill="rgba(255,255,255,0.45)" text-anchor="middle">— C0 plane    - - - C90 plane    LSBX-300W-277V-5K-T5.IES</text>
</svg>