<svg xmlns="http://www.w3.org/2000/svg" viewBox="0 0 480 360" font-family="JetBrains Mono, monospace">
  <rect width="480" height="360" fill="#22262b"/>
  <text x="240.0" y="22" font-size="11" font-weight="700" fill="rgba(255,255,255,0.85)" text-anchor="middle">LSBX300 · Type-3</text>
  <text x="240.0" y="36" font-size="9" fill="rgba(255,255,255,0.55)" text-anchor="middle">peak 12918 cd · 43473 lm · 147 lm/W</text>
  <line x1="100.0" y1="198.00000000000003" x2="380.0" y2="198.00000000000003" stroke="rgba(255,255,255,0.18)" stroke-width="0.8"/>
  <path d="M 207.5 198.00000000000003 A 32.5 32.5 0 0 0 272.5 198.00000000000003" fill="none" stroke="rgba(255,255,255,0.10)" stroke-width="0.8"/><text x="276.5" y="201.00000000000003" font-size="8" fill="rgba(255,255,255,0.45)" font-family="JetBrains Mono, monospace">3229</text><path d="M 175.0 198.00000000000003 A 65.0 65.0 0 0 0 305.0 198.00000000000003" fill="none" stroke="rgba(255,255,255,0.10)" stroke-width="0.8"/><text x="309.0" y="201.00000000000003" font-size="8" fill="rgba(255,255,255,0.45)" font-family="JetBrains Mono, monospace">6459</text><path d="M 142.5 198.00000000000003 A 97.5 97.5 0 0 0 337.5 198.00000000000003" fill="none" stroke="rgba(255,255,255,0.10)" stroke-width="0.8"/><text x="341.5" y="201.00000000000003" font-size="8" fill="rgba(255,255,255,0.45)" font-family="JetBrains Mono, monospace">9688</text><path d="M 110.0 198.00000000000003 A 130.0 130.0 0 0 0 370.0 198.00000000000003" fill="none" stroke="rgba(255,255,255,0.10)" stroke-width="0.8"/><text x="374.0" y="201.00000000000003" font-size="8" fill="rgba(255,255,255,0.45)" font-family="JetBrains Mono, monospace">12918</text>
  <line x1="240.0" y1="198.00000000000003" x2="240.0" y2="328.0" stroke="rgba(255,255,255,0.08)" stroke-width="0.6"/><text x="240" y="338" font-size="9" fill="rgba(255,255,255,0.55)" font-family="JetBrains Mono, monospace" text-anchor="middle">0°</text><line x1="240.0" y1="198.00000000000003" x2="305.0" y2="310.6" stroke="rgba(255,255,255,0.08)" stroke-width="0.6"/><text x="305" y="321" font-size="9" fill="rgba(255,255,255,0.55)" font-family="JetBrains Mono, monospace" text-anchor="middle">30°</text><line x1="240.0" y1="198.00000000000003" x2="175.0" y2="310.6" stroke="rgba(255,255,255,0.08)" stroke-width="0.6"/><text x="175" y="321" font-size="9" fill="rgba(255,255,255,0.55)" font-family="JetBrains Mono, monospace" text-anchor="middle">30°</text><line x1="240.0" y1="198.00000000000003" x2="352.6" y2="263.0" stroke="rgba(255,255,255,0.08)" stroke-width="0.6"/><text x="353" y="273" font-size="9" fill="rgba(255,255,255,0.55)" font-family="JetBrains Mono, monospace" text-anchor="middle">60°</text><line x1="240.0" y1="198.00000000000003" x2="127.4" y2="263.0" stroke="rgba(255,255,255,0.08)" stroke-width="0.6"/><text x="127" y="273" font-size="9" fill="rgba(255,255,255,0.55)" font-family="JetBrains Mono, monospace" text-anchor="middle">60°</text><line x1="240.0" y1="198.00000000000003" x2="370.0" y2="198.0" stroke="rgba(255,255,255,0.08)" stroke-width="0.6"/><text x="370" y="208" font-size="9" fill="rgba(255,255,255,0.55)" font-family="JetBrains Mono, monospace" text-anchor="middle">90°</text><line x1="240.0" y1="198.00000000000003" x2="110.0" y2="198.0" stroke="rgba(255,255,255,0.08)" stroke-width="0.6"/><text x="110" y="208" font-size="9" fill="rgba(255,255,255,0.55)" font-family="JetBrains Mono, monospace" text-anchor="middle">90°</text>
  <path d="M 240.0 289.1 L 240.8 289.5 L 241.6 289.8 L 242.4 290.2 L 243.2 290.7 L 244.1 291.0 L 244.9 291.4 L 245.7 291.7 L 246.6 292.0 L 247.4 292.3 L 248.3 292.6 L 249.1 292.8 L 250.0 293.1 L 250.9 293.4 L 251.7 293.6 L 252.6 293.8 L 253.5 294.0 L 254.4 294.2 L 255.3 294.3 L 256.1 294.4 L 257.0 294.5 L 257.9 294.7 L 258.8 294.7 L 259.7 294.8 L 260.6 294.9 L 261.5 294.9 L 262.4 295.0 L 263.3 295.0 L 264.2 295.0 L 265.1 295.0 L 266.0 295.0 L 266.9 294.9 L 267.8 294.8 L 268.7 294.8 L 269.5 294.6 L 270.4 294.5 L 271.3 294.4 L 272.2 294.2 L 273.1 294.1 L 274.0 293.9 L 274.8 293.7 L 275.7 293.5 L 276.6 293.3 L 277.5 293.1 L 278.3 292.8 L 279.2 292.5 L 280.0 292.3 L 280.9 291.9 L 281.7 291.7 L 282.6 291.4 L 283.4 291.0 L 284.2 290.7 L 285.0 290.3 L 285.9 290.0 L 286.7 289.6 L 287.5 289.2 L 288.3 288.9 L 289.1 288.4 L 289.9 288.0 L 290.7 287.6 L 291.5 287.2 L 292.2 286.7 L 293.0 286.2 L 293.8 285.8 L 294.6 285.4 L 295.4 285.0 L 296.2 284.6 L 297.0 284.2 L 297.8 283.8 L 298.6 283.3 L 299.5 283.0 L 300.3 282.6 L 301.1 282.1 L 301.9 281.7 L 302.8 281.3 L 303.6 280.9 L 304.4 280.4 L 305.2 280.0 L 306.0 279.5 L 306.7 278.9 L 307.5 278.4 L 308.2 277.9 L 308.8 277.2 L 309.4 276.5 L 310.0 275.7 L 310.4 274.8 L 310.8 273.9 L 311.2 273.0 L 311.5 272.0 L 311.7 271.0 L 311.9 269.9 L 312.0 268.7 L 312.0 267.6 L 312.1 266.4 L 312.0 265.1 L 311.8 263.8 L 311.6 262.5 L 311.5 261.3 L 311.2 259.9 L 310.9 258.5 L 310.5 257.1 L 310.1 255.8 L 309.6 254.4 L 309.1 253.0 L 308.6 251.6 L 308.0 250.2 L 307.4 248.8 L 306.8 247.4 L 306.1 246.0 L 305.4 244.7 L 304.5 243.2 L 303.8 241.8 L 303.1 240.5 L 302.2 239.2 L 301.3 237.8 L 300.4 236.5 L 299.5 235.2 L 298.5 233.8 L 297.6 232.6 L 296.5 231.3 L 295.3 230.0 L 294.2 228.7 L 293.1 227.4 L 291.9 226.2 L 290.7 225.0 L 289.4 223.7 L 288.2 222.5 L 286.9 221.4 L 285.6 220.2 L 284.2 219.1 L 282.8 218.0 L 281.6 216.9 L 280.2 215.9 L 278.8 214.9 L 277.3 213.9 L 275.8 212.8 L 274.3 211.8 L 272.7 210.9 L 271.2 210.0 L 269.7 209.1 L 268.3 208.3 L 267.0 207.6 L 265.8 206.9 L 264.7 206.3 L 263.6 205.7 L 262.6 205.1 L 261.6 204.6 L 260.6 204.1 L 259.6 203.6 L 258.6 203.2 L 257.6 202.7 L 256.6 202.3 L 255.7 201.9 L 254.8 201.5 L 253.9 201.2 L 253.1 200.9 L 252.3 200.6 L 251.6 200.4 L 250.8 200.1 L 250.1 199.9 L 249.4 199.7 L 248.7 199.4 L 248.0 199.3 L 247.4 199.1 L 246.7 198.9 L 246.1 198.8 L 245.5 198.7 L 244.9 198.6 L 244.4 198.5 L 243.9 198.4 L 243.4 198.3 L 242.8 198.2 L 242.3 198.2 L 241.9 198.1 L 241.4 198.1 L 241.0 198.0 L 240.6 198.0 L 240.4 198.0 L 240.3 198.0 L 240.2 198.0 L 240.2 198.0" fill="none" stroke="#F32740" stroke-width="2" stroke-linejoin="round"/>
  <path d="M 240.0 289.1 L 240.8 289.1 L 241.6 289.2 L 242.4 289.3 L 243.2 289.4 L 244.0 289.5 L 244.8 289.5 L 245.6 289.6 L 246.4 289.7 L 247.2 289.8 L 248.0 289.9 L 248.9 290.1 L 249.7 290.1 L 250.5 290.2 L 251.3 290.4 L 252.2 290.4 L 253.0 290.6 L 253.9 290.7 L 254.7 290.9 L 255.6 291.0 L 256.4 291.1 L 257.3 291.2 L 258.2 291.4 L 259.0 291.5 L 259.9 291.7 L 260.8 291.9 L 261.7 292.0 L 262.6 292.1 L 263.5 292.4 L 264.5 292.6 L 265.4 292.8 L 266.3 293.0 L 267.3 293.2 L 268.3 293.5 L 269.3 293.7 L 270.3 294.0 L 271.2 294.2 L 272.3 294.4 L 273.3 294.7 L 274.3 294.9 L 275.4 295.1 L 276.4 295.3 L 277.4 295.5 L 278.5 295.7 L 279.5 295.9 L 280.6 296.0 L 281.7 296.1 L 282.7 296.2 L 283.7 296.3 L 284.8 296.3 L 285.8 296.3 L 286.9 296.2 L 287.9 296.2 L 289.0 296.2 L 290.0 296.1 L 291.0 296.0 L 292.0 295.9 L 293.1 295.7 L 294.1 295.5 L 295.1 295.4 L 296.1 295.2 L 297.1 295.0 L 298.1 294.8 L 299.2 294.5 L 300.2 294.4 L 301.2 294.1 L 302.3 293.9 L 303.3 293.6 L 304.3 293.3 L 305.3 293.0 L 306.3 292.8 L 307.4 292.5 L 308.5 292.3 L 309.5 291.9 L 310.6 291.7 L 311.7 291.5 L 312.8 291.2 L 313.9 290.9 L 314.9 290.5 L 316.0 290.2 L 317.0 289.8 L 318.1 289.4 L 319.1 289.0 L 320.2 288.6 L 321.1 288.1 L 322.0 287.5 L 322.9 286.9 L 323.8 286.3 L 324.6 285.6 L 325.4 284.9 L 326.1 284.1 L 326.7 283.2 L 327.4 282.4 L 328.0 281.5 L 328.6 280.6 L 329.1 279.6 L 329.6 278.6 L 330.0 277.7 L 330.4 276.6 L 330.9 275.6 L 331.3 274.6 L 331.8 273.7 L 332.3 272.7 L 332.8 271.8 L 333.3 270.9 L 333.9 270.0 L 334.4 269.2 L 335.0 268.3 L 335.7 267.5 L 336.4 266.7 L 337.1 266.0 L 337.8 265.2 L 338.4 264.4 L 339.1 263.6 L 339.8 262.8 L 340.5 262.0 L 341.3 261.3 L 342.0 260.5 L 342.8 259.8 L 343.5 259.0 L 344.3 258.2 L 345.1 257.4 L 345.8 256.6 L 346.5 255.8 L 347.2 255.0 L 348.0 254.2 L 348.7 253.4 L 349.4 252.5 L 350.1 251.7 L 350.7 250.8 L 351.2 249.9 L 351.8 248.9 L 352.2 247.9 L 352.3 246.8 L 352.2 245.6 L 351.8 244.3 L 351.1 242.9 L 350.3 241.4 L 349.2 239.9 L 347.9 238.4 L 346.5 236.8 L 345.0 235.2 L 343.2 233.5 L 341.4 231.9 L 339.4 230.3 L 337.3 228.7 L 335.0 227.1 L 332.7 225.5 L 330.2 223.9 L 327.6 222.3 L 324.7 220.7 L 321.8 219.1 L 318.7 217.6 L 315.6 216.2 L 312.5 214.7 L 309.2 213.4 L 305.9 212.0 L 302.6 210.7 L 299.1 209.5 L 295.2 208.2 L 291.4 207.1 L 287.5 206.0 L 283.6 204.9 L 279.8 203.9 L 276.7 203.2 L 273.7 202.4 L 270.2 201.7 L 266.9 201.1 L 263.8 200.5 L 260.4 200.0 L 257.0 199.5 L 254.1 199.1 L 251.8 198.8 L 249.6 198.6 L 247.3 198.4 L 245.1 198.2 L 242.8 198.1 L 240.6 198.0 L 240.3 198.0 L 240.3 198.0 L 240.2 198.0" fill="none" stroke="rgba(243,39,64,0.45)" stroke-width="1.4" stroke-dasharray="4,3" stroke-linejoin="round"/>
  <text x="240.0" y="350" font-size="9" fill="rgba(255,255,255,0.45)" text-anchor="middle">— C0 plane    - - - C90 plane    LSBX-300W-277V-5K-T3.IES</text>
</svg>