<svg xmlns="http://www.w3.org/2000/svg" viewBox="0 0 480 360" font-family="JetBrains Mono, monospace">
  <rect width="480" height="360" fill="#22262b"/>
  <text x="240.0" y="22" font-size="11" font-weight="700" fill="rgba(255,255,255,0.85)" text-anchor="middle">LSBX150 · Type-5</text>
  <text x="240.0" y="36" font-size="9" fill="rgba(255,255,255,0.55)" text-anchor="middle">peak 6985 cd · 24238 lm · 162 lm/W</text>
  <line x1="100.0" y1="198.00000000000003" x2="380.0" y2="198.00000000000003" stroke="rgba(255,255,255,0.18)" stroke-width="0.8"/>
  <path d="M 207.5 198.00000000000003 A 32.5 32.5 0 0 0 272.5 198.00000000000003" fill="none" stroke="rgba(255,255,255,0.10)" stroke-width="0.8"/><text x="276.5" y="201.00000000000003" font-size="8" fill="rgba(255,255,255,0.45)" font-family="JetBrains Mono, monospace">1746</text><path d="M 175.0 198.00000000000003 A 65.0 65.0 0 0 0 305.0 198.00000000000003" fill="none" stroke="rgba(255,255,255,0.10)" stroke-width="0.8"/><text x="309.0" y="201.00000000000003" font-size="8" fill="rgba(255,255,255,0.45)" font-family="JetBrains Mono, monospace">3492</text><path d="M 142.5 198.00000000000003 A 97.5 97.5 0 0 0 337.5 198.00000000000003" fill="none" stroke="rgba(255,255,255,0.10)" stroke-width="0.8"/><text x="341.5" y="201.00000000000003" font-size="8" fill="rgba(255,255,255,0.45)" font-family="JetBrains Mono, monospace">5239</text><path d="M 110.0 198.00000000000003 A 130.0 130.0 0 0 0 370.0 198.00000000000003" fill="none" stroke="rgba(255,255,255,0.10)" stroke-width="0.8"/><text x="374.0" y="201.00000000000003" font-size="8" fill="rgba(255,255,255,0.45)" font-family="JetBrains Mono, monospace">6985</text>
  <line x1="240.0" y1="198.00000000000003" x2="240.0" y2="328.0" stroke="rgba(255,255,255,0.08)" stroke-width="0.6"/><text x="240" y="338" font-size="9" fill="rgba(255,255,255,0.55)" font-family="JetBrains Mono, monospace" text-anchor="middle">0°</text><line x1="240.0" y1="198.00000000000003" x2="305.0" y2="310.6" stroke="rgba(255,255,255,0.08)" stroke-width="0.6"/><text x="305" y="321" font-size="9" fill="rgba(255,255,255,0.55)" font-family="JetBrains Mono, monospace" text-anchor="middle">30°</text><line x1="240.0" y1="198.00000000000003" x2="175.0" y2="310.6" stroke="rgba(255,255,255,0.08)" stroke-width="0.6"/><text x="175" y="321" font-size="9" fill="rgba(255,255,255,0.55)" font-family="JetBrains Mono, monospace" text-anchor="middle">30°</text><line x1="240.0" y1="198.00000000000003" x2="352.6" y2="263.0" stroke="rgba(255,255,255,0.08)" stroke-width="0.6"/><text x="353" y="273" font-size="9" fill="rgba(255,255,255,0.55)" font-family="JetBrains Mono, monospace" text-anchor="middle">60°</text><line x1="240.0" y1="198.00000000000003" x2="127.4" y2="263.0" stroke="rgba(255,255,255,0.08)" stroke-width="0.6"/><text x="127" y="273" font-size="9" fill="rgba(255,255,255,0.55)" font-family="JetBrains Mono, monospace" text-anchor="middle">60°</text><line x1="240.0" y1="198.00000000000003" x2="370.0" y2="198.0" stroke="rgba(255,255,255,0.08)" stroke-width="0.6"/><text x="370" y="208" font-size="9" fill="rgba(255,255,255,0.55)" font-family="JetBrains Mono, monospace" text-anchor="middle">90°</text><line x1="240.0" y1="198.00000000000003" x2="110.0" y2="198.0" stroke="rgba(255,255,255,0.08)" stroke-width="0.6"/><text x="110" y="208" font-size="9" fill="rgba(255,255,255,0.55)" font-family="JetBrains Mono, monospace" text-anchor="middle">90°</text>
  <path d="M 240.0 279.2 L 240.7 279.1 L 241.4 279.2 L 242.1 279.2 L 242.8 279.3 L 243.5 279.3 L 244.3 279.2 L 245.0 279.3 L 245.7 279.3 L 246.4 279.3 L 247.1 279.3 L 247.8 279.4 L 248.6 279.4 L 249.3 279.4 L 250.0 279.4 L 250.7 279.3 L 251.4 279.4 L 252.2 279.3 L 252.9 279.4 L 253.6 279.3 L 254.3 279.4 L 255.1 279.3 L 255.8 279.3 L 256.5 279.3 L 257.3 279.3 L 258.0 279.2 L 258.7 279.2 L 259.5 279.2 L 260.2 279.2 L 261.0 279.2 L 261.8 279.2 L 262.5 279.2 L 263.3 279.2 L 264.0 279.1 L 264.8 279.1 L 265.6 279.1 L 266.4 279.1 L 267.1 279.1 L 267.9 279.1 L 268.7 279.1 L 269.5 279.1 L 270.4 279.2 L 271.2 279.2 L 272.0 279.3 L 272.9 279.5 L 273.8 279.6 L 274.7 279.7 L 275.6 279.9 L 276.5 280.1 L 277.5 280.2 L 278.4 280.5 L 279.4 280.7 L 280.4 280.9 L 281.4 281.1 L 282.5 281.4 L 283.5 281.6 L 284.6 281.8 L 285.7 282.1 L 286.7 282.3 L 287.8 282.6 L 288.9 282.8 L 290.1 283.0 L 291.2 283.2 L 292.3 283.4 L 293.4 283.5 L 294.5 283.5 L 295.6 283.5 L 296.6 283.6 L 297.7 283.6 L 298.8 283.5 L 299.8 283.4 L 300.8 283.2 L 301.7 283.0 L 302.7 282.7 L 303.6 282.4 L 304.6 282.1 L 305.5 281.8 L 306.4 281.5 L 307.3 281.2 L 308.3 280.8 L 309.2 280.5 L 310.1 280.1 L 311.1 279.7 L 312.0 279.3 L 312.9 279.0 L 313.8 278.6 L 314.9 278.3 L 315.8 277.8 L 316.7 277.5 L 317.7 277.0 L 318.6 276.6 L 319.6 276.2 L 320.6 275.8 L 321.5 275.4 L 322.5 274.9 L 323.5 274.5 L 324.4 274.0 L 325.3 273.5 L 326.2 273.0 L 327.1 272.4 L 328.0 271.9 L 328.8 271.2 L 329.5 270.5 L 330.3 269.8 L 330.9 269.0 L 331.6 268.3 L 332.1 267.4 L 332.6 266.5 L 333.1 265.6 L 333.5 264.7 L 333.9 263.8 L 334.2 262.8 L 334.5 261.7 L 334.6 260.6 L 334.7 259.5 L 334.7 258.3 L 334.7 257.1 L 334.5 255.9 L 334.1 254.5 L 333.5 253.1 L 332.8 251.6 L 332.0 250.0 L 330.6 248.2 L 329.1 246.4 L 327.2 244.4 L 324.8 242.2 L 322.1 239.8 L 319.0 237.4 L 315.7 234.9 L 312.1 232.4 L 308.4 229.9 L 304.3 227.3 L 300.2 224.8 L 296.1 222.4 L 292.4 220.2 L 288.6 218.1 L 285.1 216.2 L 281.5 214.4 L 278.5 212.8 L 276.7 211.7 L 275.0 210.7 L 273.2 209.7 L 271.4 208.8 L 269.6 207.9 L 268.6 207.3 L 267.7 206.7 L 266.9 206.2 L 266.0 205.7 L 265.1 205.2 L 264.0 204.7 L 263.0 204.2 L 262.1 203.7 L 261.1 203.3 L 260.2 202.9 L 259.3 202.5 L 258.3 202.1 L 257.3 201.7 L 256.2 201.3 L 255.1 200.9 L 254.0 200.6 L 253.0 200.3 L 252.1 200.0 L 251.4 199.8 L 250.7 199.6 L 249.8 199.4 L 248.9 199.2 L 248.0 199.0 L 247.2 198.8 L 246.5 198.7 L 245.5 198.5 L 244.8 198.4 L 243.9 198.3 L 243.1 198.2 L 242.4 198.1 L 241.6 198.1 L 240.9 198.0 L 240.5 198.0 L 240.3 198.0 L 240.2 198.0 L 240.2 198.0 L 240.2 198.0" fill="none" stroke="#F32740" stroke-width="2" stroke-linejoin="round"/>
  <path d="M 240.0 279.2 L 240.7 279.2 L 241.4 279.1 L 242.1 279.0 L 242.8 279.0 L 243.5 278.9 L 244.2 278.8 L 244.9 278.8 L 245.6 278.7 L 246.3 278.6 L 247.0 278.5 L 247.7 278.4 L 248.4 278.4 L 249.1 278.3 L 249.8 278.2 L 250.5 278.1 L 251.2 278.0 L 251.9 277.8 L 252.6 277.8 L 253.3 277.6 L 254.0 277.5 L 254.7 277.4 L 255.4 277.4 L 256.1 277.2 L 256.8 277.1 L 257.5 277.0 L 258.2 276.9 L 258.9 276.8 L 259.6 276.7 L 260.3 276.5 L 261.0 276.4 L 261.7 276.3 L 262.4 276.2 L 263.1 276.0 L 263.8 276.0 L 264.6 275.9 L 265.3 275.7 L 266.0 275.6 L 266.7 275.5 L 267.4 275.4 L 268.1 275.3 L 268.9 275.3 L 269.6 275.2 L 270.4 275.1 L 271.1 274.9 L 271.8 274.9 L 272.6 274.8 L 273.3 274.7 L 274.1 274.5 L 274.9 274.5 L 275.7 274.5 L 276.5 274.5 L 277.3 274.4 L 278.1 274.4 L 278.9 274.3 L 279.7 274.3 L 280.6 274.3 L 281.4 274.3 L 282.3 274.4 L 283.2 274.3 L 284.1 274.3 L 284.9 274.3 L 285.8 274.3 L 286.7 274.3 L 287.7 274.3 L 288.6 274.2 L 289.6 274.3 L 290.5 274.3 L 291.4 274.3 L 292.4 274.2 L 293.4 274.3 L 294.4 274.3 L 295.4 274.3 L 296.4 274.2 L 297.4 274.2 L 298.5 274.2 L 299.6 274.3 L 300.6 274.2 L 301.7 274.1 L 302.7 274.1 L 303.8 274.0 L 304.9 274.0 L 306.0 273.9 L 307.1 273.8 L 308.1 273.7 L 309.2 273.5 L 310.3 273.3 L 311.3 273.2 L 312.4 273.0 L 313.4 272.7 L 314.5 272.5 L 315.5 272.2 L 316.5 271.9 L 317.5 271.5 L 318.4 271.1 L 319.4 270.7 L 320.3 270.3 L 321.2 269.8 L 322.0 269.3 L 322.9 268.8 L 323.7 268.2 L 324.5 267.6 L 325.2 267.0 L 325.9 266.4 L 326.6 265.7 L 327.3 265.0 L 327.9 264.2 L 328.4 263.4 L 328.9 262.6 L 329.3 261.7 L 329.7 260.8 L 330.0 259.9 L 330.2 258.8 L 330.3 257.8 L 330.3 256.7 L 330.3 255.5 L 330.0 254.3 L 329.7 253.0 L 329.1 251.5 L 328.4 250.1 L 327.4 248.5 L 326.4 246.9 L 325.1 245.2 L 323.1 243.1 L 321.1 241.1 L 319.1 239.2 L 316.9 237.2 L 314.2 235.0 L 311.2 232.7 L 308.1 230.5 L 304.9 228.3 L 301.6 226.1 L 298.0 223.8 L 294.5 221.7 L 290.8 219.6 L 287.2 217.5 L 283.7 215.6 L 280.2 213.8 L 276.8 212.1 L 273.5 210.5 L 270.4 209.1 L 267.5 207.7 L 264.9 206.6 L 262.6 205.6 L 260.5 204.7 L 258.7 203.9 L 257.0 203.2 L 255.6 202.6 L 254.1 202.1 L 252.8 201.6 L 251.7 201.1 L 250.7 200.8 L 250.0 200.5 L 249.2 200.2 L 248.5 200.0 L 247.8 199.7 L 247.0 199.5 L 246.5 199.3 L 246.0 199.2 L 245.5 199.0 L 245.0 198.9 L 244.5 198.8 L 244.1 198.7 L 243.7 198.6 L 243.4 198.5 L 243.0 198.4 L 242.7 198.3 L 242.4 198.3 L 242.1 198.2 L 241.8 198.2 L 241.5 198.1 L 241.2 198.1 L 241.0 198.1 L 240.7 198.0 L 240.5 198.0 L 240.3 198.0 L 240.1 198.0 L 240.1 198.0 L 240.0 198.0 L 240.0 198.0 L 240.0 198.0" fill="none" stroke="rgba(243,39,64,0.45)" stroke-width="1.4" stroke-dasharray="4,3" stroke-linejoin="round"/>
  <text x="240.0" y="350" font-size="9" fill="rgba(255,255,255,0.45)" text-anchor="middle">— C0 plane    - - - C90 plane    LSBX-150W-277V-5K-T5.IES</text>
</svg>