<svg xmlns="http://www.w3.org/2000/svg" viewBox="0 0 480 360" font-family="JetBrains Mono, monospace">
  <rect width="480" height="360" fill="#22262b"/>
  <text x="240.0" y="22" font-size="11" font-weight="700" fill="rgba(255,255,255,0.85)" text-anchor="middle">LSBX200 · Type-4</text>
  <text x="240.0" y="36" font-size="9" fill="rgba(255,255,255,0.55)" text-anchor="middle">peak 7755 cd · 29531 lm · 151 lm/W</text>
  <line x1="100.0" y1="198.00000000000003" x2="380.0" y2="198.00000000000003" stroke="rgba(255,255,255,0.18)" stroke-width="0.8"/>
  <path d="M 207.5 198.00000000000003 A 32.5 32.5 0 0 0 272.5 198.00000000000003" fill="none" stroke="rgba(255,255,255,0.10)" stroke-width="0.8"/><text x="276.5" y="201.00000000000003" font-size="8" fill="rgba(255,255,255,0.45)" font-family="JetBrains Mono, monospace">1938</text><path d="M 175.0 198.00000000000003 A 65.0 65.0 0 0 0 305.0 198.00000000000003" fill="none" stroke="rgba(255,255,255,0.10)" stroke-width="0.8"/><text x="309.0" y="201.00000000000003" font-size="8" fill="rgba(255,255,255,0.45)" font-family="JetBrains Mono, monospace">3877</text><path d="M 142.5 198.00000000000003 A 97.5 97.5 0 0 0 337.5 198.00000000000003" fill="none" stroke="rgba(255,255,255,0.10)" stroke-width="0.8"/><text x="341.5" y="201.00000000000003" font-size="8" fill="rgba(255,255,255,0.45)" font-family="JetBrains Mono, monospace">5816</text><path d="M 110.0 198.00000000000003 A 130.0 130.0 0 0 0 370.0 198.00000000000003" fill="none" stroke="rgba(255,255,255,0.10)" stroke-width="0.8"/><text x="374.0" y="201.00000000000003" font-size="8" fill="rgba(255,255,255,0.45)" font-family="JetBrains Mono, monospace">7754</text>
  <line x1="240.0" y1="198.00000000000003" x2="240.0" y2="328.0" stroke="rgba(255,255,255,0.08)" stroke-width="0.6"/><text x="240" y="338" font-size="9" fill="rgba(255,255,255,0.55)" font-family="JetBrains Mono, monospace" text-anchor="middle">0°</text><line x1="240.0" y1="198.00000000000003" x2="305.0" y2="310.6" stroke="rgba(255,255,255,0.08)" stroke-width="0.6"/><text x="305" y="321" font-size="9" fill="rgba(255,255,255,0.55)" font-family="JetBrains Mono, monospace" text-anchor="middle">30°</text><line x1="240.0" y1="198.00000000000003" x2="175.0" y2="310.6" stroke="rgba(255,255,255,0.08)" stroke-width="0.6"/><text x="175" y="321" font-size="9" fill="rgba(255,255,255,0.55)" font-family="JetBrains Mono, monospace" text-anchor="middle">30°</text><line x1="240.0" y1="198.00000000000003" x2="352.6" y2="263.0" stroke="rgba(255,255,255,0.08)" stroke-width="0.6"/><text x="353" y="273" font-size="9" fill="rgba(255,255,255,0.55)" font-family="JetBrains Mono, monospace" text-anchor="middle">60°</text><line x1="240.0" y1="198.00000000000003" x2="127.4" y2="263.0" stroke="rgba(255,255,255,0.08)" stroke-width="0.6"/><text x="127" y="273" font-size="9" fill="rgba(255,255,255,0.55)" font-family="JetBrains Mono, monospace" text-anchor="middle">60°</text><line x1="240.0" y1="198.00000000000003" x2="370.0" y2="198.0" stroke="rgba(255,255,255,0.08)" stroke-width="0.6"/><text x="370" y="208" font-size="9" fill="rgba(255,255,255,0.55)" font-family="JetBrains Mono, monospace" text-anchor="middle">90°</text><line x1="240.0" y1="198.00000000000003" x2="110.0" y2="198.0" stroke="rgba(255,255,255,0.08)" stroke-width="0.6"/><text x="110" y="208" font-size="9" fill="rgba(255,255,255,0.55)" font-family="JetBrains Mono, monospace" text-anchor="middle">90°</text>
  <path d="M 240.0 302.6 L 241.8 303.1 L 243.7 303.8 L 245.6 304.3 L 247.5 304.9 L 249.4 305.4 L 251.3 306.0 L 253.3 306.5 L 255.3 307.1 L 257.4 307.6 L 259.4 307.9 L 261.4 308.3 L 263.5 308.6 L 265.6 309.0 L 267.7 309.3 L 269.9 309.5 L 272.0 309.7 L 274.2 309.8 L 276.4 309.9 L 278.5 309.9 L 280.7 309.8 L 282.9 309.8 L 285.1 309.7 L 287.4 309.6 L 289.6 309.3 L 291.8 309.1 L 294.0 308.7 L 296.2 308.3 L 298.5 308.0 L 300.8 307.6 L 303.0 307.1 L 305.2 306.6 L 307.5 306.0 L 309.7 305.3 L 311.8 304.5 L 313.9 303.6 L 316.0 302.5 L 318.0 301.5 L 319.9 300.3 L 321.8 299.0 L 323.4 297.4 L 325.1 295.9 L 326.6 294.2 L 327.9 292.3 L 329.2 290.4 L 330.4 288.4 L 331.3 286.2 L 332.1 283.9 L 332.8 281.6 L 333.4 279.2 L 333.8 276.7 L 334.1 274.2 L 334.4 271.8 L 334.4 269.2 L 334.4 266.6 L 334.3 264.0 L 334.0 261.4 L 333.5 258.7 L 332.8 256.0 L 332.0 253.3 L 330.9 250.5 L 329.3 247.5 L 327.1 244.3 L 324.6 241.1 L 321.5 237.7 L 317.9 234.3 L 313.5 230.7 L 308.5 227.1 L 303.1 223.5 L 297.6 220.1 L 292.2 217.0 L 287.0 214.2 L 282.2 211.7 L 278.0 209.6 L 274.5 207.9 L 271.0 206.3 L 267.4 204.8 L 264.6 203.7 L 262.0 202.7 L 259.7 201.8 L 257.3 201.1 L 255.0 200.4 L 252.8 199.8 L 250.6 199.3 L 248.4 198.9 L 246.2 198.5 L 244.1 198.3 L 242.4 198.1 L 240.8 198.0 L 240.2 198.0 L 240.1 198.0" fill="none" stroke="#F32740" stroke-width="2" stroke-linejoin="round"/>
  <path d="M 240.0 302.6 L 241.8 302.6 L 243.6 302.5 L 245.5 302.4 L 247.3 302.3 L 249.1 302.2 L 250.9 302.0 L 252.8 302.0 L 254.6 301.8 L 256.4 301.6 L 258.2 301.4 L 260.1 301.2 L 261.9 301.0 L 263.7 300.8 L 265.5 300.5 L 267.4 300.2 L 269.2 299.8 L 271.1 299.6 L 272.9 299.4 L 274.8 299.0 L 276.6 298.5 L 278.4 298.1 L 280.3 297.7 L 282.1 297.2 L 283.9 296.6 L 285.7 296.0 L 287.5 295.4 L 289.3 294.7 L 291.1 294.1 L 292.8 293.2 L 294.5 292.4 L 296.2 291.5 L 297.9 290.6 L 299.6 289.7 L 301.1 288.6 L 302.7 287.6 L 304.3 286.5 L 305.8 285.3 L 307.4 284.2 L 308.9 283.1 L 310.3 281.8 L 311.7 280.5 L 313.0 279.1 L 314.4 277.7 L 315.6 276.3 L 316.9 274.9 L 318.2 273.5 L 319.4 272.0 L 320.5 270.5 L 321.8 269.1 L 322.9 267.6 L 324.1 266.1 L 325.3 264.7 L 326.6 263.2 L 328.1 262.0 L 329.6 260.7 L 331.3 259.6 L 333.1 258.5 L 335.4 257.6 L 337.8 256.8 L 340.6 256.1 L 343.6 255.4 L 346.6 254.7 L 349.5 253.8 L 352.1 252.7 L 353.9 251.1 L 354.5 249.0 L 353.4 246.1 L 350.7 242.7 L 346.1 238.7 L 340.8 234.7 L 335.5 230.9 L 330.2 227.3 L 324.5 223.8 L 318.7 220.6 L 312.8 217.5 L 306.3 214.5 L 300.0 211.9 L 293.4 209.4 L 286.7 207.1 L 280.2 205.1 L 273.8 203.4 L 267.4 201.9 L 261.9 200.7 L 257.0 199.8 L 252.4 199.1 L 247.8 198.5 L 243.2 198.2 L 240.5 198.0 L 240.1 198.0 L 240.1 198.0" fill="none" stroke="rgba(243,39,64,0.45)" stroke-width="1.4" stroke-dasharray="4,3" stroke-linejoin="round"/>
  <text x="240.0" y="350" font-size="9" fill="rgba(255,255,255,0.45)" text-anchor="middle">— C0 plane    - - - C90 plane    LSBX-200W-277V-5K-T4.IES</text>
</svg>