<svg xmlns="http://www.w3.org/2000/svg" viewBox="0 0 480 360" font-family="JetBrains Mono, monospace">
  <rect width="480" height="360" fill="#22262b"/>
  <text x="240.0" y="22" font-size="11" font-weight="700" fill="rgba(255,255,255,0.85)" text-anchor="middle">LSBX200 · Type-5</text>
  <text x="240.0" y="36" font-size="9" fill="rgba(255,255,255,0.55)" text-anchor="middle">peak 8588 cd · 29954 lm · 154 lm/W</text>
  <line x1="100.0" y1="198.00000000000003" x2="380.0" y2="198.00000000000003" stroke="rgba(255,255,255,0.18)" stroke-width="0.8"/>
  <path d="M 207.5 198.00000000000003 A 32.5 32.5 0 0 0 272.5 198.00000000000003" fill="none" stroke="rgba(255,255,255,0.10)" stroke-width="0.8"/><text x="276.5" y="201.00000000000003" font-size="8" fill="rgba(255,255,255,0.45)" font-family="JetBrains Mono, monospace">2147</text><path d="M 175.0 198.00000000000003 A 65.0 65.0 0 0 0 305.0 198.00000000000003" fill="none" stroke="rgba(255,255,255,0.10)" stroke-width="0.8"/><text x="309.0" y="201.00000000000003" font-size="8" fill="rgba(255,255,255,0.45)" font-family="JetBrains Mono, monospace">4294</text><path d="M 142.5 198.00000000000003 A 97.5 97.5 0 0 0 337.5 198.00000000000003" fill="none" stroke="rgba(255,255,255,0.10)" stroke-width="0.8"/><text x="341.5" y="201.00000000000003" font-size="8" fill="rgba(255,255,255,0.45)" font-family="JetBrains Mono, monospace">6441</text><path d="M 110.0 198.00000000000003 A 130.0 130.0 0 0 0 370.0 198.00000000000003" fill="none" stroke="rgba(255,255,255,0.10)" stroke-width="0.8"/><text x="374.0" y="201.00000000000003" font-size="8" fill="rgba(255,255,255,0.45)" font-family="JetBrains Mono, monospace">8588</text>
  <line x1="240.0" y1="198.00000000000003" x2="240.0" y2="328.0" stroke="rgba(255,255,255,0.08)" stroke-width="0.6"/><text x="240" y="338" font-size="9" fill="rgba(255,255,255,0.55)" font-family="JetBrains Mono, monospace" text-anchor="middle">0°</text><line x1="240.0" y1="198.00000000000003" x2="305.0" y2="310.6" stroke="rgba(255,255,255,0.08)" stroke-width="0.6"/><text x="305" y="321" font-size="9" fill="rgba(255,255,255,0.55)" font-family="JetBrains Mono, monospace" text-anchor="middle">30°</text><line x1="240.0" y1="198.00000000000003" x2="175.0" y2="310.6" stroke="rgba(255,255,255,0.08)" stroke-width="0.6"/><text x="175" y="321" font-size="9" fill="rgba(255,255,255,0.55)" font-family="JetBrains Mono, monospace" text-anchor="middle">30°</text><line x1="240.0" y1="198.00000000000003" x2="352.6" y2="263.0" stroke="rgba(255,255,255,0.08)" stroke-width="0.6"/><text x="353" y="273" font-size="9" fill="rgba(255,255,255,0.55)" font-family="JetBrains Mono, monospace" text-anchor="middle">60°</text><line x1="240.0" y1="198.00000000000003" x2="127.4" y2="263.0" stroke="rgba(255,255,255,0.08)" stroke-width="0.6"/><text x="127" y="273" font-size="9" fill="rgba(255,255,255,0.55)" font-family="JetBrains Mono, monospace" text-anchor="middle">60°</text><line x1="240.0" y1="198.00000000000003" x2="370.0" y2="198.0" stroke="rgba(255,255,255,0.08)" stroke-width="0.6"/><text x="370" y="208" font-size="9" fill="rgba(255,255,255,0.55)" font-family="JetBrains Mono, monospace" text-anchor="middle">90°</text><line x1="240.0" y1="198.00000000000003" x2="110.0" y2="198.0" stroke="rgba(255,255,255,0.08)" stroke-width="0.6"/><text x="110" y="208" font-size="9" fill="rgba(255,255,255,0.55)" font-family="JetBrains Mono, monospace" text-anchor="middle">90°</text>
  <path d="M 240.0 279.6 L 242.9 279.7 L 245.7 279.8 L 248.6 279.9 L 251.5 279.9 L 254.4 279.9 L 257.4 279.8 L 260.4 279.7 L 263.4 279.7 L 266.5 279.7 L 269.7 279.7 L 273.1 280.0 L 276.8 280.6 L 280.7 281.4 L 284.8 282.3 L 289.3 283.3 L 293.8 284.1 L 298.1 284.2 L 302.2 283.6 L 305.9 282.4 L 309.8 281.2 L 313.6 279.7 L 317.4 278.2 L 321.2 276.4 L 325.1 274.6 L 328.6 272.4 L 331.6 269.6 L 333.9 266.2 L 335.2 262.2 L 335.7 257.8 L 334.0 252.3 L 328.5 245.0 L 317.1 235.6 L 301.5 225.4 L 286.2 216.7 L 274.3 210.5 L 270.0 207.7 L 265.5 205.3 L 261.6 203.4 L 257.7 201.8 L 253.4 200.4 L 250.2 199.4 L 246.7 198.7 L 243.3 198.2 L 240.4 198.0 L 240.2 198.0" fill="none" stroke="#F32740" stroke-width="2" stroke-linejoin="round"/>
  <path d="M 240.0 279.6 L 242.8 279.4 L 245.7 279.1 L 248.5 278.9 L 251.3 278.5 L 254.1 278.1 L 256.9 277.6 L 259.8 277.2 L 262.6 276.8 L 265.5 276.4 L 268.4 275.9 L 271.3 275.5 L 274.4 275.3 L 277.6 275.0 L 280.9 274.9 L 284.4 274.9 L 288.0 274.9 L 291.8 274.8 L 295.8 274.9 L 300.0 274.8 L 304.2 274.6 L 308.6 274.2 L 312.9 273.5 L 317.0 272.4 L 320.8 270.8 L 324.2 268.7 L 327.2 266.1 L 329.4 263.0 L 330.8 259.2 L 330.7 254.7 L 328.3 249.0 L 322.5 241.9 L 311.2 232.7 L 299.3 224.4 L 284.8 216.1 L 271.3 209.4 L 261.2 204.9 L 254.6 202.2 L 250.0 200.5 L 247.6 199.6 L 245.1 198.9 L 243.5 198.5 L 242.2 198.2 L 241.1 198.1 L 240.2 198.0 L 240.0 198.0" fill="none" stroke="rgba(243,39,64,0.45)" stroke-width="1.4" stroke-dasharray="4,3" stroke-linejoin="round"/>
  <text x="240.0" y="350" font-size="9" fill="rgba(255,255,255,0.45)" text-anchor="middle">— C0 plane    - - - C90 plane    LSBX-200W-277V-5K-T5.IES</text>
</svg>