<svg viewBox="0 0 600 460" xmlns="http://www.w3.org/2000/svg" font-family="JetBrains Mono, monospace" font-size="9.5">
<rect width="100%" height="100%" fill="#14171b"/>
<text x="22" y="26" fill="#F32740" font-weight="700" letter-spacing="2">LFLD3W35-3E1-UD-PS-20W-30K_IESNA2002 · 20W · 3000K · FLOOD</text>
<text x="22" y="42" fill="rgba(255,255,255,0.55)" font-size="8" letter-spacing="1.4">LUMINOUS INTENSITY DISTRIBUTION (cd/klm)</text>
<path d="M 232.0 64.0 A 68.0 68.0 0 0 0 368.0 64.0" fill="none" stroke="rgba(120,200,200,0.18)" stroke-width="0.7"/>
<path d="M 164.0 64.0 A 136.0 136.0 0 0 0 436.0 64.0" fill="none" stroke="rgba(120,200,200,0.18)" stroke-width="0.7"/>
<path d="M 96.0 64.0 A 204.0 204.0 0 0 0 504.0 64.0" fill="none" stroke="rgba(120,200,200,0.18)" stroke-width="0.7"/>
<path d="M 28.0 64.0 A 272.0 272.0 0 0 0 572.0 64.0" fill="none" stroke="rgba(120,200,200,0.18)" stroke-width="0.7"/>
<path d="M -40.0 64.0 A 340.0 340.0 0 0 0 640.0 64.0" fill="none" stroke="rgba(120,200,200,0.18)" stroke-width="0.7"/>
<line x1="300.0" y1="64" x2="388.0" y2="392.4" stroke="rgba(120,200,200,0.10)" stroke-width="0.5"/>
<line x1="300.0" y1="64" x2="212.0" y2="392.4" stroke="rgba(120,200,200,0.10)" stroke-width="0.5"/>
<line x1="300.0" y1="64" x2="470.0" y2="358.4" stroke="rgba(120,200,200,0.10)" stroke-width="0.5"/>
<line x1="300.0" y1="64" x2="130.0" y2="358.4" stroke="rgba(120,200,200,0.10)" stroke-width="0.5"/>
<line x1="300.0" y1="64" x2="540.4" y2="304.4" stroke="rgba(120,200,200,0.10)" stroke-width="0.5"/>
<line x1="300.0" y1="64" x2="59.6" y2="304.4" stroke="rgba(120,200,200,0.10)" stroke-width="0.5"/>
<line x1="300.0" y1="64" x2="594.4" y2="234.0" stroke="rgba(120,200,200,0.10)" stroke-width="0.5"/>
<line x1="300.0" y1="64" x2="5.6" y2="234.0" stroke="rgba(120,200,200,0.10)" stroke-width="0.5"/>
<line x1="300.0" y1="64" x2="628.4" y2="152.0" stroke="rgba(120,200,200,0.10)" stroke-width="0.5"/>
<line x1="300.0" y1="64" x2="-28.4" y2="152.0" stroke="rgba(120,200,200,0.10)" stroke-width="0.5"/>
<line x1="300.0" y1="64" x2="640.0" y2="64.0" stroke="rgba(120,200,200,0.10)" stroke-width="0.5"/>
<line x1="300.0" y1="64" x2="-40.0" y2="64.0" stroke="rgba(120,200,200,0.10)" stroke-width="0.5"/>
<line x1="300.0" y1="64" x2="300.0" y2="408" stroke="rgba(120,200,200,0.14)" stroke-width="0.5"/>
<line x1="-40.0" y1="64" x2="640.0" y2="64" stroke="rgba(120,200,200,0.14)" stroke-width="0.5"/>
<text x="391.6" y="408.9" text-anchor="middle" fill="rgba(255,255,255,0.4)" font-size="9">15°</text>
<text x="208.4" y="408.9" text-anchor="middle" fill="rgba(255,255,255,0.4)" font-size="9">15°</text>
<text x="477.0" y="373.6" text-anchor="middle" fill="rgba(255,255,255,0.6)" font-size="9">30°</text>
<text x="123.0" y="373.6" text-anchor="middle" fill="rgba(255,255,255,0.6)" font-size="9">30°</text>
<text x="550.3" y="317.3" text-anchor="middle" fill="rgba(255,255,255,0.4)" font-size="9">45°</text>
<text x="49.7" y="317.3" text-anchor="middle" fill="rgba(255,255,255,0.4)" font-size="9">45°</text>
<text x="606.6" y="244.0" text-anchor="middle" fill="rgba(255,255,255,0.6)" font-size="9">60°</text>
<text x="-6.6" y="244.0" text-anchor="middle" fill="rgba(255,255,255,0.6)" font-size="9">60°</text>
<text x="641.9" y="158.6" text-anchor="middle" fill="rgba(255,255,255,0.4)" font-size="9">75°</text>
<text x="-41.9" y="158.6" text-anchor="middle" fill="rgba(255,255,255,0.4)" font-size="9">75°</text>
<text x="654.0" y="67.0" text-anchor="middle" fill="rgba(255,255,255,0.6)" font-size="9">90°</text>
<text x="-54.0" y="67.0" text-anchor="middle" fill="rgba(255,255,255,0.6)" font-size="9">90°</text>
<text x="300" y="426" text-anchor="middle" fill="rgba(255,255,255,0.6)" font-size="9">0°</text>
<path d="M 300.0 294.4 L 304.0 294.4 L 308.0 294.3 L 312.0 293.8 L 316.1 293.6 L 320.1 293.3 L 324.0 292.5 L 327.9 291.6 L 331.9 290.7 L 335.8 289.8 L 339.6 288.5 L 343.4 287.2 L 347.1 285.8 L 350.8 284.1 L 354.4 282.2 L 357.9 280.2 L 361.4 278.2 L 364.8 276.0 L 368.1 273.7 L 371.4 271.4 L 374.6 268.8 L 377.7 266.4 L 380.6 263.6 L 383.5 260.7 L 386.3 257.7 L 389.0 254.8 L 391.5 251.6 L 393.8 248.1 L 396.0 244.5 L 398.1 241.0 L 400.1 237.3 L 401.8 233.5 L 403.6 229.7 L 405.1 225.9 L 406.6 222.1 L 407.9 218.0 L 409.0 214.1 L 410.2 210.2 L 410.8 205.8 L 411.3 201.4 L 411.7 197.2 L 412.2 193.0 L 412.2 188.7 L 412.1 184.2 L 411.8 179.8 L 411.6 175.6 L 411.1 171.3 L 410.4 166.9 L 409.3 162.4 L 408.5 158.3 L 407.4 154.1 L 406.0 149.9 L 404.5 145.6 L 402.9 141.6 L 401.1 137.4 L 399.1 133.4 L 397.1 129.5 L 394.4 125.3 L 390.4 120.5 L 386.6 116.0 L 383.7 112.3 L 381.1 108.9 L 377.9 105.4 L 373.3 101.3 L 369.3 97.8 L 366.2 94.8 L 362.2 91.7 L 357.3 88.3 L 353.3 85.5 L 349.2 82.9 L 345.0 80.4 L 341.4 78.2 L 336.9 76.0 L 333.2 74.2 L 329.0 72.3 L 325.2 70.8 L 321.8 69.4 L 318.4 68.2 L 315.2 67.2 L 312.3 66.4 L 309.7 65.7 L 307.3 65.1 L 305.1 64.7 L 303.6 64.4 L 303.1 64.3 L 302.5 64.2 L 301.9 64.1 L 301.4 64.1 L 301.2 64.0 L 301.3 64.0 L 301.3 64.0 L 298.8 64.0 L 298.8 64.0 L 298.8 64.0 L 298.8 64.1 L 298.9 64.1 L 298.9 64.1 L 298.8 64.1 L 298.6 64.2 L 298.1 64.3 L 297.4 64.4 L 296.5 64.6 L 295.0 65.0 L 291.6 65.8 L 287.6 66.9 L 283.3 68.2 L 279.3 69.6 L 275.5 71.0 L 271.7 72.6 L 268.3 74.3 L 264.0 76.4 L 260.4 78.4 L 255.9 80.9 L 252.4 83.2 L 248.0 86.1 L 243.7 89.1 L 240.5 91.7 L 236.1 95.2 L 231.5 98.9 L 228.2 102.2 L 225.2 105.4 L 221.4 109.4 L 216.9 114.0 L 213.7 117.9 L 211.3 121.6 L 208.6 125.6 L 206.2 129.7 L 203.3 134.3 L 200.2 139.2 L 198.4 143.4 L 196.6 147.7 L 195.0 152.1 L 193.6 156.5 L 192.4 160.9 L 191.5 165.2 L 190.7 169.5 L 190.1 173.9 L 189.7 178.2 L 189.4 182.6 L 189.2 187.0 L 189.3 191.4 L 189.6 195.6 L 190.0 199.9 L 190.6 204.1 L 191.4 208.1 L 192.3 212.3 L 193.4 216.2 L 194.7 220.2 L 196.1 223.9 L 197.6 227.8 L 199.4 231.4 L 201.2 235.0 L 203.2 238.6 L 205.3 242.2 L 207.6 245.4 L 209.9 248.8 L 212.4 251.9 L 214.9 255.2 L 217.6 258.2 L 220.4 261.1 L 223.3 263.7 L 226.2 266.7 L 229.3 269.3 L 232.5 271.7 L 235.8 273.8 L 239.2 276.1 L 242.6 278.2 L 246.1 280.0 L 249.7 281.9 L 253.3 283.8 L 257.0 285.5 L 260.7 287.2 L 264.5 288.3 L 268.3 289.6 L 272.2 290.8 L 276.0 291.9 L 280.0 292.7 L 284.0 293.3 L 288.0 293.9 L 292.0 294.2 L 296.0 294.2 L 300.0 294.4 Z" fill="none" stroke="#3FA9F5" stroke-width="1.7" stroke-linejoin="round" stroke-linecap="round"/>
<path d="M 300.0 294.4 L 304.0 294.4 L 308.0 294.1 L 312.1 293.9 L 316.0 293.5 L 320.0 292.8 L 324.0 292.0 L 327.9 291.4 L 331.8 290.5 L 335.6 289.1 L 339.4 287.7 L 343.2 286.1 L 346.9 284.6 L 350.5 282.7 L 354.0 280.7 L 357.5 278.6 L 360.9 276.6 L 364.2 274.1 L 367.5 271.8 L 370.7 269.4 L 373.8 266.8 L 376.8 264.0 L 379.7 261.2 L 382.6 258.5 L 385.2 255.4 L 387.7 252.1 L 390.1 248.8 L 392.5 245.6 L 394.6 241.9 L 396.5 238.1 L 398.3 234.2 L 400.0 230.4 L 401.5 226.4 L 402.8 222.2 L 403.8 217.8 L 404.6 213.4 L 405.3 209.0 L 405.9 204.5 L 406.1 199.8 L 406.3 195.2 L 406.4 190.8 L 406.5 186.5 L 406.0 181.7 L 404.6 176.1 L 400.7 168.3 L 394.7 158.7 L 388.0 149.0 L 382.2 140.6 L 378.2 134.4 L 376.0 130.0 L 374.9 126.8 L 373.9 123.9 L 372.9 120.9 L 371.7 118.0 L 370.4 115.1 L 369.0 112.3 L 367.5 109.5 L 365.8 106.7 L 364.1 104.0 L 362.2 101.4 L 359.4 98.3 L 351.1 92.3 L 342.7 86.7 L 334.2 81.4 L 331.9 79.6 L 324.3 75.3 L 311.5 69.1 L 310.4 68.4 L 309.6 67.9 L 308.5 67.3 L 307.3 66.7 L 306.1 66.1 L 305.0 65.6 L 303.9 65.2 L 303.0 64.9 L 302.1 64.6 L 301.5 64.4 L 301.3 64.3 L 301.3 64.3 L 301.3 64.2 L 301.3 64.2 L 301.3 64.2 L 301.2 64.2 L 301.1 64.1 L 301.1 64.1 L 301.0 64.1 L 301.0 64.1 L 301.0 64.1 L 301.0 64.0 L 301.0 64.0 L 301.0 64.0 L 298.9 64.0 L 298.9 64.0 L 298.9 64.0 L 298.9 64.1 L 298.9 64.1 L 298.9 64.1 L 299.0 64.1 L 299.0 64.1 L 299.0 64.1 L 299.0 64.2 L 299.0 64.2 L 299.0 64.2 L 299.0 64.2 L 299.0 64.2 L 299.1 64.2 L 299.1 64.3 L 299.1 64.3 L 299.1 64.3 L 299.0 64.3 L 298.8 64.4 L 298.3 64.6 L 297.7 64.9 L 297.0 65.2 L 296.3 65.6 L 295.6 66.0 L 294.8 66.4 L 294.0 66.9 L 293.2 67.5 L 292.4 68.1 L 291.5 68.7 L 290.6 69.4 L 289.8 70.1 L 289.0 70.9 L 288.0 71.8 L 279.6 77.8 L 271.4 84.0 L 265.6 89.0 L 261.3 93.2 L 256.7 97.8 L 255.8 99.8 L 255.0 101.8 L 254.3 103.7 L 250.3 108.7 L 238.8 121.1 L 231.5 130.2 L 228.3 135.7 L 224.0 142.7 L 222.0 147.6 L 221.9 150.8 L 221.9 153.8 L 222.3 156.7 L 222.4 159.8 L 222.6 163.1 L 220.5 169.5 L 214.0 182.4 L 206.7 197.3 L 202.5 208.5 L 200.2 217.6 L 199.4 225.1 L 200.3 229.9 L 202.0 233.7 L 203.9 237.4 L 206.0 240.7 L 208.3 243.9 L 210.6 247.2 L 213.2 250.2 L 215.9 253.0 L 218.5 256.0 L 221.2 259.0 L 224.1 261.8 L 226.9 264.7 L 229.8 267.8 L 232.8 270.9 L 236.0 273.4 L 239.2 275.9 L 242.7 278.0 L 246.0 280.5 L 249.6 282.4 L 253.2 284.3 L 256.9 285.9 L 260.6 287.7 L 264.4 289.0 L 268.2 290.3 L 272.1 291.1 L 276.0 292.0 L 280.0 292.8 L 284.0 293.3 L 288.0 293.8 L 292.0 294.1 L 296.0 294.2 L 300.0 294.4 Z" fill="none" stroke="#F32740" stroke-width="2.0" stroke-linejoin="round" stroke-linecap="round"/>
<text x="338" y="132" fill="#F32740" font-size="9.5" font-weight="700">125</text>
<text x="335" y="200" fill="#F32740" font-size="9.5" font-weight="700">250</text>
<text x="335" y="268" fill="#F32740" font-size="9.5" font-weight="700">375</text>
<text x="335" y="336" fill="#F32740" font-size="9.5" font-weight="700">500</text>
<rect x="274.0" y="58" width="52" height="11" rx="1.5" fill="#fafbfc" stroke="rgba(255,255,255,0.4)" stroke-width="0.5"/>
<line x1="272.0" y1="69.8" x2="328.0" y2="69.8" stroke="#F32740" stroke-width="0.7" stroke-dasharray="1.5 2"/>
<text x="300" y="66" text-anchor="middle" fill="#F32740" font-size="8" font-weight="700" letter-spacing="0.5">cd/klm SCALE</text>
<g transform="translate(22, 434)">
<text x="0" y="-8" fill="rgba(255,255,255,0.55)" font-size="8" letter-spacing="1.4">cd/klm</text>
<line x1="0" y1="6" x2="22" y2="6" stroke="#F32740" stroke-width="2.2"/>
<text x="28" y="9" fill="rgba(255,255,255,0.7)" font-size="9.5">C0 – C180</text>
<line x1="120" y1="6" x2="142" y2="6" stroke="#3FA9F5" stroke-width="1.7"/>
<text x="148" y="9" fill="rgba(255,255,255,0.7)" font-size="9.5">C90 – C270</text>
</g>
<text x="578" y="402" fill="rgba(255,255,255,0.45)" font-size="9" text-anchor="end">η = 134 lm/W</text>
<text x="578" y="418" fill="rgba(255,255,255,0.45)" font-size="9" text-anchor="end">2,621 lm · 19.6W</text>
<text x="578" y="434" fill="rgba(255,255,255,0.55)" font-size="8" letter-spacing="1.4" text-anchor="end">PEAK INTENSITY</text>
<text x="578" y="451" fill="#fff" font-weight="700" font-size="14" text-anchor="end">1,110 cd</text>
</svg>