<svg viewBox="0 0 600 460" xmlns="http://www.w3.org/2000/svg" font-family="JetBrains Mono, monospace" font-size="9.5">
<rect width="100%" height="100%" fill="#14171b"/>
<text x="22" y="26" fill="#F32740" font-weight="700" letter-spacing="2">LFLD3W150-3E1-UDPS-30K_IESNA2002 · 0W · 3000K · FLOOD</text>
<text x="22" y="42" fill="rgba(255,255,255,0.55)" font-size="8" letter-spacing="1.4">LUMINOUS INTENSITY DISTRIBUTION (cd/klm)</text>
<path d="M 232.0 64.0 A 68.0 68.0 0 0 0 368.0 64.0" fill="none" stroke="rgba(120,200,200,0.18)" stroke-width="0.7"/>
<path d="M 164.0 64.0 A 136.0 136.0 0 0 0 436.0 64.0" fill="none" stroke="rgba(120,200,200,0.18)" stroke-width="0.7"/>
<path d="M 96.0 64.0 A 204.0 204.0 0 0 0 504.0 64.0" fill="none" stroke="rgba(120,200,200,0.18)" stroke-width="0.7"/>
<path d="M 28.0 64.0 A 272.0 272.0 0 0 0 572.0 64.0" fill="none" stroke="rgba(120,200,200,0.18)" stroke-width="0.7"/>
<path d="M -40.0 64.0 A 340.0 340.0 0 0 0 640.0 64.0" fill="none" stroke="rgba(120,200,200,0.18)" stroke-width="0.7"/>
<line x1="300.0" y1="64" x2="388.0" y2="392.4" stroke="rgba(120,200,200,0.10)" stroke-width="0.5"/>
<line x1="300.0" y1="64" x2="212.0" y2="392.4" stroke="rgba(120,200,200,0.10)" stroke-width="0.5"/>
<line x1="300.0" y1="64" x2="470.0" y2="358.4" stroke="rgba(120,200,200,0.10)" stroke-width="0.5"/>
<line x1="300.0" y1="64" x2="130.0" y2="358.4" stroke="rgba(120,200,200,0.10)" stroke-width="0.5"/>
<line x1="300.0" y1="64" x2="540.4" y2="304.4" stroke="rgba(120,200,200,0.10)" stroke-width="0.5"/>
<line x1="300.0" y1="64" x2="59.6" y2="304.4" stroke="rgba(120,200,200,0.10)" stroke-width="0.5"/>
<line x1="300.0" y1="64" x2="594.4" y2="234.0" stroke="rgba(120,200,200,0.10)" stroke-width="0.5"/>
<line x1="300.0" y1="64" x2="5.6" y2="234.0" stroke="rgba(120,200,200,0.10)" stroke-width="0.5"/>
<line x1="300.0" y1="64" x2="628.4" y2="152.0" stroke="rgba(120,200,200,0.10)" stroke-width="0.5"/>
<line x1="300.0" y1="64" x2="-28.4" y2="152.0" stroke="rgba(120,200,200,0.10)" stroke-width="0.5"/>
<line x1="300.0" y1="64" x2="640.0" y2="64.0" stroke="rgba(120,200,200,0.10)" stroke-width="0.5"/>
<line x1="300.0" y1="64" x2="-40.0" y2="64.0" stroke="rgba(120,200,200,0.10)" stroke-width="0.5"/>
<line x1="300.0" y1="64" x2="300.0" y2="408" stroke="rgba(120,200,200,0.14)" stroke-width="0.5"/>
<line x1="-40.0" y1="64" x2="640.0" y2="64" stroke="rgba(120,200,200,0.14)" stroke-width="0.5"/>
<text x="391.6" y="408.9" text-anchor="middle" fill="rgba(255,255,255,0.4)" font-size="9">15°</text>
<text x="208.4" y="408.9" text-anchor="middle" fill="rgba(255,255,255,0.4)" font-size="9">15°</text>
<text x="477.0" y="373.6" text-anchor="middle" fill="rgba(255,255,255,0.6)" font-size="9">30°</text>
<text x="123.0" y="373.6" text-anchor="middle" fill="rgba(255,255,255,0.6)" font-size="9">30°</text>
<text x="550.3" y="317.3" text-anchor="middle" fill="rgba(255,255,255,0.4)" font-size="9">45°</text>
<text x="49.7" y="317.3" text-anchor="middle" fill="rgba(255,255,255,0.4)" font-size="9">45°</text>
<text x="606.6" y="244.0" text-anchor="middle" fill="rgba(255,255,255,0.6)" font-size="9">60°</text>
<text x="-6.6" y="244.0" text-anchor="middle" fill="rgba(255,255,255,0.6)" font-size="9">60°</text>
<text x="641.9" y="158.6" text-anchor="middle" fill="rgba(255,255,255,0.4)" font-size="9">75°</text>
<text x="-41.9" y="158.6" text-anchor="middle" fill="rgba(255,255,255,0.4)" font-size="9">75°</text>
<text x="654.0" y="67.0" text-anchor="middle" fill="rgba(255,255,255,0.6)" font-size="9">90°</text>
<text x="-54.0" y="67.0" text-anchor="middle" fill="rgba(255,255,255,0.6)" font-size="9">90°</text>
<text x="300" y="426" text-anchor="middle" fill="rgba(255,255,255,0.6)" font-size="9">0°</text>
<path d="M 300.0 281.9 L 303.8 281.8 L 307.6 281.7 L 311.4 281.5 L 315.2 281.1 L 318.9 280.5 L 322.7 279.9 L 326.4 279.2 L 330.1 278.3 L 333.8 277.2 L 337.4 276.0 L 341.0 274.8 L 344.5 273.2 L 348.0 271.9 L 351.4 270.0 L 354.8 268.4 L 358.0 266.4 L 361.3 264.4 L 364.4 262.2 L 367.5 260.0 L 370.5 257.6 L 373.4 255.2 L 376.2 252.6 L 378.9 250.0 L 381.6 247.2 L 384.1 244.4 L 386.5 241.3 L 388.8 238.4 L 391.0 235.2 L 393.1 232.0 L 395.0 228.6 L 396.9 225.3 L 398.6 221.9 L 400.3 218.4 L 401.7 214.7 L 403.0 211.1 L 404.3 207.5 L 405.3 203.7 L 406.2 199.9 L 406.9 196.0 L 407.6 192.2 L 407.9 188.2 L 408.3 184.2 L 408.4 180.2 L 408.4 176.2 L 408.2 172.2 L 407.7 168.0 L 406.9 163.7 L 406.3 159.7 L 405.4 155.6 L 403.8 151.1 L 401.6 146.3 L 399.0 141.3 L 396.4 136.6 L 393.8 132.2 L 391.0 127.7 L 387.9 123.3 L 384.6 119.0 L 381.2 114.8 L 377.6 110.7 L 373.9 106.7 L 370.1 102.9 L 366.2 99.2 L 362.2 95.7 L 358.2 92.4 L 354.0 89.2 L 349.9 86.2 L 345.7 83.4 L 341.5 80.8 L 337.2 78.3 L 333.0 76.0 L 328.9 73.9 L 325.0 72.1 L 321.1 70.5 L 317.5 69.0 L 313.9 67.7 L 311.0 66.7 L 308.1 65.9 L 305.1 65.1 L 302.9 64.6 L 302.4 64.4 L 302.0 64.3 L 301.6 64.2 L 301.4 64.2 L 301.3 64.1 L 301.3 64.1 L 301.3 64.1 L 301.3 64.1 L 301.3 64.0 L 301.3 64.0 L 301.3 64.0 L 298.8 64.0 L 298.8 64.0 L 298.8 64.0 L 298.8 64.1 L 298.8 64.1 L 298.7 64.1 L 298.7 64.1 L 298.7 64.2 L 298.6 64.2 L 298.6 64.2 L 298.3 64.3 L 298.0 64.4 L 296.9 64.7 L 295.8 65.0 L 294.8 65.3 L 292.2 66.1 L 289.2 67.1 L 286.1 68.2 L 282.7 69.6 L 279.0 71.2 L 275.2 73.0 L 271.1 75.1 L 267.1 77.3 L 263.1 79.7 L 259.0 82.3 L 254.6 85.2 L 250.4 88.2 L 246.4 91.3 L 242.3 94.7 L 238.2 98.3 L 234.5 101.8 L 230.6 105.7 L 227.0 109.6 L 223.3 113.8 L 219.8 118.1 L 216.5 122.5 L 213.6 126.8 L 210.5 131.4 L 207.6 136.2 L 205.2 140.8 L 202.9 145.5 L 200.7 150.3 L 199.7 154.4 L 198.6 158.6 L 197.8 162.7 L 197.2 166.8 L 196.8 170.8 L 196.5 175.0 L 196.4 179.1 L 196.4 183.2 L 196.7 187.1 L 197.1 191.1 L 197.7 195.0 L 198.3 198.9 L 199.2 202.7 L 200.2 206.6 L 201.3 210.3 L 202.6 214.0 L 204.1 217.5 L 205.6 221.1 L 207.3 224.6 L 209.0 228.1 L 211.1 231.3 L 213.1 234.6 L 215.3 237.6 L 217.6 240.7 L 220.0 243.7 L 222.5 246.7 L 225.1 249.3 L 227.8 252.1 L 230.6 254.6 L 233.5 257.1 L 236.5 259.5 L 239.5 261.8 L 242.7 263.9 L 245.9 265.9 L 249.2 267.8 L 252.5 269.6 L 255.9 271.4 L 259.4 272.9 L 262.9 274.3 L 266.5 275.6 L 270.1 276.9 L 273.7 277.9 L 277.4 278.8 L 281.1 279.6 L 284.9 280.4 L 288.6 280.9 L 292.4 281.4 L 296.2 281.7 L 300.0 281.9 Z" fill="none" stroke="#3FA9F5" stroke-width="1.7" stroke-linejoin="round" stroke-linecap="round"/>
<path d="M 300.0 281.9 L 303.8 281.7 L 307.6 281.7 L 311.4 281.4 L 315.2 281.3 L 319.0 280.6 L 322.7 280.1 L 326.4 279.1 L 330.1 278.2 L 333.7 277.1 L 337.4 275.9 L 340.9 274.5 L 344.4 273.1 L 347.9 271.6 L 351.3 269.7 L 354.6 267.8 L 357.8 265.5 L 360.9 263.1 L 363.9 260.6 L 366.8 258.0 L 369.6 255.3 L 372.4 252.5 L 375.0 249.7 L 377.5 246.7 L 380.0 243.7 L 382.4 240.7 L 384.7 237.6 L 386.8 234.4 L 389.0 231.4 L 390.9 228.0 L 392.8 224.7 L 394.4 221.2 L 396.1 217.8 L 397.4 214.0 L 396.5 207.1 L 391.3 194.3 L 388.5 185.8 L 389.0 182.1 L 389.7 178.8 L 390.1 175.3 L 390.5 171.9 L 390.6 168.2 L 387.6 161.3 L 380.3 150.1 L 377.3 144.1 L 377.0 141.0 L 376.6 138.0 L 376.1 134.9 L 373.8 130.5 L 366.8 122.1 L 361.3 115.4 L 360.3 112.8 L 359.3 110.3 L 357.2 107.1 L 350.2 100.4 L 344.5 95.2 L 343.3 93.2 L 341.6 91.0 L 334.9 85.8 L 331.7 83.0 L 328.3 80.4 L 323.5 77.0 L 317.0 73.1 L 316.0 72.1 L 310.4 69.1 L 306.7 67.1 L 306.0 66.7 L 305.3 66.2 L 304.6 65.8 L 303.9 65.5 L 303.3 65.2 L 302.7 64.9 L 302.1 64.7 L 301.7 64.5 L 301.3 64.4 L 301.2 64.3 L 301.2 64.3 L 301.2 64.3 L 301.2 64.3 L 301.2 64.2 L 301.2 64.2 L 301.2 64.2 L 301.2 64.2 L 301.2 64.1 L 301.2 64.1 L 301.2 64.1 L 301.2 64.1 L 301.2 64.1 L 301.2 64.0 L 301.2 64.0 L 301.2 64.0 L 298.9 64.0 L 298.8 64.0 L 298.8 64.0 L 298.7 64.1 L 298.6 64.1 L 298.6 64.1 L 298.5 64.2 L 298.5 64.2 L 298.5 64.2 L 298.5 64.2 L 298.3 64.3 L 297.8 64.4 L 297.2 64.6 L 296.5 64.8 L 295.6 65.1 L 294.8 65.4 L 291.0 66.6 L 287.1 67.9 L 283.3 69.4 L 278.7 71.3 L 272.6 74.0 L 267.4 76.5 L 260.8 79.8 L 256.6 82.4 L 253.8 84.6 L 251.2 86.8 L 244.9 90.9 L 238.1 95.5 L 235.4 98.3 L 232.8 101.2 L 230.3 104.3 L 227.9 107.3 L 225.8 110.4 L 223.7 113.5 L 221.8 116.8 L 220.0 120.0 L 217.9 123.7 L 214.1 128.7 L 207.3 136.4 L 202.8 142.7 L 200.9 147.1 L 199.8 151.1 L 198.9 155.0 L 198.0 159.1 L 197.3 163.1 L 196.8 167.2 L 196.6 171.1 L 196.3 175.2 L 196.1 179.4 L 196.0 183.6 L 196.1 187.8 L 196.3 192.0 L 196.7 196.2 L 197.3 200.3 L 198.0 204.4 L 199.0 208.2 L 200.1 212.1 L 201.4 215.8 L 202.8 219.5 L 204.5 223.0 L 206.2 226.5 L 208.1 229.8 L 210.1 233.2 L 212.2 236.3 L 214.4 239.4 L 216.8 242.4 L 219.2 245.4 L 221.8 248.2 L 224.4 251.0 L 227.2 253.6 L 230.1 256.1 L 233.0 258.5 L 236.0 260.9 L 239.1 263.1 L 242.3 265.1 L 245.6 267.2 L 248.9 269.0 L 252.3 270.7 L 255.7 272.2 L 259.2 273.7 L 262.8 275.1 L 266.4 276.3 L 270.0 277.5 L 273.7 278.5 L 277.4 279.5 L 281.1 280.2 L 284.8 280.9 L 288.6 281.2 L 292.4 281.6 L 296.2 281.6 L 300.0 281.9 Z" fill="none" stroke="#F32740" stroke-width="2.0" stroke-linejoin="round" stroke-linecap="round"/>
<text x="338" y="132" fill="#F32740" font-size="9.5" font-weight="700">125</text>
<text x="335" y="200" fill="#F32740" font-size="9.5" font-weight="700">250</text>
<text x="335" y="268" fill="#F32740" font-size="9.5" font-weight="700">375</text>
<text x="335" y="336" fill="#F32740" font-size="9.5" font-weight="700">500</text>
<rect x="274.0" y="58" width="52" height="11" rx="1.5" fill="#fafbfc" stroke="rgba(255,255,255,0.4)" stroke-width="0.5"/>
<line x1="272.0" y1="69.8" x2="328.0" y2="69.8" stroke="#F32740" stroke-width="0.7" stroke-dasharray="1.5 2"/>
<text x="300" y="66" text-anchor="middle" fill="#F32740" font-size="8" font-weight="700" letter-spacing="0.5">cd/klm SCALE</text>
<g transform="translate(22, 434)">
<text x="0" y="-8" fill="rgba(255,255,255,0.55)" font-size="8" letter-spacing="1.4">cd/klm</text>
<line x1="0" y1="6" x2="22" y2="6" stroke="#F32740" stroke-width="2.2"/>
<text x="28" y="9" fill="rgba(255,255,255,0.7)" font-size="9.5">C0 – C180</text>
<line x1="120" y1="6" x2="142" y2="6" stroke="#3FA9F5" stroke-width="1.7"/>
<text x="148" y="9" fill="rgba(255,255,255,0.7)" font-size="9.5">C90 – C270</text>
</g>
<text x="578" y="402" fill="rgba(255,255,255,0.45)" font-size="9" text-anchor="end">η = 114 lm/W</text>
<text x="578" y="418" fill="rgba(255,255,255,0.45)" font-size="9" text-anchor="end">17,056 lm · 149.6W</text>
<text x="578" y="434" fill="rgba(255,255,255,0.55)" font-size="8" letter-spacing="1.4" text-anchor="end">PEAK INTENSITY</text>
<text x="578" y="451" fill="#fff" font-weight="700" font-size="14" text-anchor="end">6,831 cd</text>
</svg>