<svg viewBox="0 0 600 460" xmlns="http://www.w3.org/2000/svg" font-family="JetBrains Mono, monospace" font-size="9.5">
<rect width="100%" height="100%" fill="#14171b"/>
<text x="22" y="26" fill="#F32740" font-weight="700" letter-spacing="2">LFLD3W35-3E1-UD-PS-15W-40K_IESNA2002 · 15W · 4000K · FLOOD</text>
<text x="22" y="42" fill="rgba(255,255,255,0.55)" font-size="8" letter-spacing="1.4">LUMINOUS INTENSITY DISTRIBUTION (cd/klm)</text>
<path d="M 232.0 64.0 A 68.0 68.0 0 0 0 368.0 64.0" fill="none" stroke="rgba(120,200,200,0.18)" stroke-width="0.7"/>
<path d="M 164.0 64.0 A 136.0 136.0 0 0 0 436.0 64.0" fill="none" stroke="rgba(120,200,200,0.18)" stroke-width="0.7"/>
<path d="M 96.0 64.0 A 204.0 204.0 0 0 0 504.0 64.0" fill="none" stroke="rgba(120,200,200,0.18)" stroke-width="0.7"/>
<path d="M 28.0 64.0 A 272.0 272.0 0 0 0 572.0 64.0" fill="none" stroke="rgba(120,200,200,0.18)" stroke-width="0.7"/>
<path d="M -40.0 64.0 A 340.0 340.0 0 0 0 640.0 64.0" fill="none" stroke="rgba(120,200,200,0.18)" stroke-width="0.7"/>
<line x1="300.0" y1="64" x2="388.0" y2="392.4" stroke="rgba(120,200,200,0.10)" stroke-width="0.5"/>
<line x1="300.0" y1="64" x2="212.0" y2="392.4" stroke="rgba(120,200,200,0.10)" stroke-width="0.5"/>
<line x1="300.0" y1="64" x2="470.0" y2="358.4" stroke="rgba(120,200,200,0.10)" stroke-width="0.5"/>
<line x1="300.0" y1="64" x2="130.0" y2="358.4" stroke="rgba(120,200,200,0.10)" stroke-width="0.5"/>
<line x1="300.0" y1="64" x2="540.4" y2="304.4" stroke="rgba(120,200,200,0.10)" stroke-width="0.5"/>
<line x1="300.0" y1="64" x2="59.6" y2="304.4" stroke="rgba(120,200,200,0.10)" stroke-width="0.5"/>
<line x1="300.0" y1="64" x2="594.4" y2="234.0" stroke="rgba(120,200,200,0.10)" stroke-width="0.5"/>
<line x1="300.0" y1="64" x2="5.6" y2="234.0" stroke="rgba(120,200,200,0.10)" stroke-width="0.5"/>
<line x1="300.0" y1="64" x2="628.4" y2="152.0" stroke="rgba(120,200,200,0.10)" stroke-width="0.5"/>
<line x1="300.0" y1="64" x2="-28.4" y2="152.0" stroke="rgba(120,200,200,0.10)" stroke-width="0.5"/>
<line x1="300.0" y1="64" x2="640.0" y2="64.0" stroke="rgba(120,200,200,0.10)" stroke-width="0.5"/>
<line x1="300.0" y1="64" x2="-40.0" y2="64.0" stroke="rgba(120,200,200,0.10)" stroke-width="0.5"/>
<line x1="300.0" y1="64" x2="300.0" y2="408" stroke="rgba(120,200,200,0.14)" stroke-width="0.5"/>
<line x1="-40.0" y1="64" x2="640.0" y2="64" stroke="rgba(120,200,200,0.14)" stroke-width="0.5"/>
<text x="391.6" y="408.9" text-anchor="middle" fill="rgba(255,255,255,0.4)" font-size="9">15°</text>
<text x="208.4" y="408.9" text-anchor="middle" fill="rgba(255,255,255,0.4)" font-size="9">15°</text>
<text x="477.0" y="373.6" text-anchor="middle" fill="rgba(255,255,255,0.6)" font-size="9">30°</text>
<text x="123.0" y="373.6" text-anchor="middle" fill="rgba(255,255,255,0.6)" font-size="9">30°</text>
<text x="550.3" y="317.3" text-anchor="middle" fill="rgba(255,255,255,0.4)" font-size="9">45°</text>
<text x="49.7" y="317.3" text-anchor="middle" fill="rgba(255,255,255,0.4)" font-size="9">45°</text>
<text x="606.6" y="244.0" text-anchor="middle" fill="rgba(255,255,255,0.6)" font-size="9">60°</text>
<text x="-6.6" y="244.0" text-anchor="middle" fill="rgba(255,255,255,0.6)" font-size="9">60°</text>
<text x="641.9" y="158.6" text-anchor="middle" fill="rgba(255,255,255,0.4)" font-size="9">75°</text>
<text x="-41.9" y="158.6" text-anchor="middle" fill="rgba(255,255,255,0.4)" font-size="9">75°</text>
<text x="654.0" y="67.0" text-anchor="middle" fill="rgba(255,255,255,0.6)" font-size="9">90°</text>
<text x="-54.0" y="67.0" text-anchor="middle" fill="rgba(255,255,255,0.6)" font-size="9">90°</text>
<text x="300" y="426" text-anchor="middle" fill="rgba(255,255,255,0.6)" font-size="9">0°</text>
<path d="M 300.0 294.4 L 304.0 294.8 L 308.0 294.4 L 312.0 293.8 L 316.1 293.9 L 320.1 293.2 L 324.0 292.0 L 327.9 291.3 L 331.8 290.3 L 335.6 289.0 L 339.3 287.1 L 343.2 286.1 L 346.9 284.6 L 350.4 282.4 L 354.0 280.5 L 357.6 278.9 L 361.1 277.0 L 364.3 274.3 L 367.7 272.4 L 371.1 270.5 L 374.1 267.6 L 377.1 264.9 L 380.1 262.2 L 382.9 259.3 L 385.3 255.7 L 388.1 252.9 L 390.6 249.7 L 392.8 246.1 L 395.1 242.9 L 397.5 239.9 L 399.5 236.3 L 401.1 232.3 L 403.1 228.9 L 404.9 225.5 L 406.2 221.5 L 407.4 217.3 L 408.6 213.5 L 409.4 209.2 L 409.9 204.7 L 410.8 200.8 L 411.5 196.8 L 411.8 192.6 L 411.8 188.1 L 411.8 183.9 L 411.5 179.5 L 410.9 174.9 L 410.4 170.6 L 409.5 166.2 L 408.7 161.8 L 407.3 157.2 L 406.1 153.0 L 404.5 148.6 L 402.7 144.2 L 400.7 139.9 L 397.8 135.1 L 394.6 130.2 L 392.1 126.1 L 389.7 122.2 L 387.2 118.5 L 383.5 114.2 L 379.2 109.7 L 375.4 105.8 L 372.2 102.4 L 368.8 99.0 L 364.3 95.3 L 360.0 92.0 L 356.6 89.2 L 352.2 86.2 L 347.9 83.4 L 344.5 81.1 L 339.7 78.4 L 336.2 76.5 L 332.3 74.5 L 328.3 72.7 L 324.5 71.0 L 320.7 69.6 L 316.6 68.1 L 312.2 66.8 L 308.3 65.8 L 304.9 65.0 L 303.6 64.6 L 302.6 64.4 L 301.9 64.3 L 301.4 64.2 L 301.2 64.1 L 301.1 64.1 L 301.2 64.1 L 301.2 64.1 L 301.2 64.0 L 301.2 64.0 L 301.2 64.0 L 298.7 64.0 L 298.6 64.0 L 298.8 64.0 L 298.6 64.1 L 298.0 64.1 L 297.4 64.2 L 296.9 64.3 L 296.4 64.4 L 295.1 64.7 L 292.8 65.1 L 290.4 65.7 L 287.6 66.4 L 284.6 67.3 L 281.3 68.3 L 277.9 69.5 L 274.4 70.9 L 270.3 72.5 L 266.3 74.3 L 262.5 76.2 L 258.2 78.4 L 254.0 80.7 L 249.9 83.2 L 245.3 86.1 L 241.8 88.7 L 237.5 91.8 L 233.3 95.1 L 229.2 98.5 L 225.8 101.8 L 221.3 105.8 L 217.4 109.8 L 214.4 113.4 L 211.9 116.9 L 208.9 120.9 L 204.8 125.8 L 201.2 130.7 L 199.1 134.7 L 197.4 138.6 L 195.5 142.8 L 193.9 146.9 L 192.9 150.8 L 191.5 155.0 L 190.3 159.3 L 189.5 163.5 L 188.9 167.6 L 188.0 172.1 L 187.6 176.4 L 187.4 180.6 L 187.3 184.8 L 187.3 189.2 L 187.4 193.5 L 188.0 197.5 L 188.3 201.9 L 188.9 206.2 L 189.7 210.3 L 190.6 214.5 L 191.7 218.6 L 193.2 222.4 L 194.8 225.9 L 196.1 230.3 L 197.8 234.1 L 199.8 237.5 L 201.8 241.2 L 203.7 245.2 L 206.0 248.5 L 208.6 251.3 L 210.9 255.1 L 213.5 258.2 L 216.3 261.3 L 219.4 263.6 L 222.0 267.1 L 225.2 269.5 L 228.5 271.8 L 231.8 273.9 L 234.9 276.8 L 238.4 278.7 L 242.0 280.5 L 245.5 282.7 L 249.0 284.7 L 252.8 286.1 L 256.5 287.6 L 260.3 289.1 L 264.2 290.2 L 268.1 290.8 L 272.0 292.1 L 276.0 292.8 L 280.0 293.1 L 283.9 293.7 L 287.9 294.1 L 292.0 294.2 L 296.0 293.8 L 300.0 294.4 Z" fill="none" stroke="#3FA9F5" stroke-width="1.7" stroke-linejoin="round" stroke-linecap="round"/>
<path d="M 300.0 294.4 L 304.0 295.3 L 308.1 294.7 L 312.1 294.4 L 316.1 294.2 L 320.1 293.2 L 324.1 293.2 L 328.0 292.2 L 331.9 290.8 L 335.8 290.3 L 339.6 288.8 L 343.4 287.0 L 347.1 285.6 L 350.6 283.2 L 354.3 281.6 L 357.8 279.6 L 360.9 276.4 L 364.4 274.6 L 367.6 271.9 L 370.5 268.8 L 373.6 266.3 L 376.3 262.9 L 379.2 260.0 L 382.0 257.2 L 384.4 253.5 L 386.8 250.1 L 387.9 244.3 L 388.0 236.7 L 387.0 227.6 L 385.4 218.0 L 384.7 210.7 L 385.1 205.7 L 386.0 201.6 L 386.1 196.5 L 385.5 190.8 L 383.8 183.7 L 380.7 175.0 L 377.6 167.0 L 376.6 162.0 L 375.6 157.4 L 373.8 152.0 L 372.6 147.5 L 368.7 140.3 L 363.8 132.5 L 361.2 127.4 L 358.7 122.7 L 357.1 119.1 L 353.3 113.7 L 347.0 106.4 L 343.2 101.5 L 340.6 98.0 L 338.1 94.8 L 331.0 88.3 L 326.9 84.3 L 322.8 80.5 L 319.6 77.7 L 312.8 72.6 L 311.1 71.2 L 310.4 70.5 L 309.7 69.8 L 309.0 69.2 L 308.2 68.6 L 307.4 68.0 L 306.7 67.4 L 305.9 66.9 L 305.2 66.4 L 304.4 66.0 L 303.7 65.6 L 303.0 65.2 L 302.4 64.9 L 301.7 64.6 L 301.2 64.4 L 301.0 64.3 L 301.0 64.3 L 300.9 64.3 L 301.0 64.3 L 301.0 64.2 L 301.0 64.2 L 301.0 64.2 L 301.0 64.2 L 301.0 64.2 L 301.0 64.2 L 301.0 64.1 L 301.1 64.1 L 301.1 64.1 L 301.1 64.1 L 301.1 64.1 L 301.1 64.1 L 301.1 64.0 L 301.1 64.0 L 301.1 64.0 L 299.0 64.0 L 299.1 64.0 L 299.1 64.0 L 299.1 64.0 L 299.0 64.1 L 299.0 64.1 L 298.9 64.1 L 298.9 64.1 L 298.8 64.2 L 298.7 64.2 L 298.7 64.2 L 298.7 64.3 L 298.7 64.3 L 298.7 64.3 L 298.5 64.4 L 297.8 64.6 L 296.9 64.9 L 295.9 65.3 L 294.8 65.7 L 293.5 66.2 L 292.2 66.8 L 290.9 67.5 L 289.6 68.2 L 287.6 69.3 L 278.9 73.4 L 271.2 77.4 L 265.1 81.0 L 254.9 87.0 L 250.1 90.5 L 243.0 95.6 L 239.7 98.8 L 236.6 102.1 L 233.6 105.5 L 230.8 108.9 L 226.7 113.4 L 221.1 119.2 L 216.3 124.8 L 212.4 130.0 L 210.0 134.4 L 208.8 137.8 L 207.5 141.6 L 206.5 145.3 L 205.1 149.5 L 202.7 154.7 L 199.8 160.8 L 196.3 167.7 L 193.0 174.8 L 191.3 180.5 L 190.3 185.8 L 190.3 190.2 L 190.5 194.5 L 190.7 199.0 L 191.3 203.1 L 191.9 207.5 L 192.4 212.1 L 193.6 216.0 L 194.3 220.7 L 195.5 224.8 L 197.0 228.8 L 198.4 233.1 L 200.3 236.7 L 202.3 240.2 L 204.0 244.5 L 206.5 247.5 L 208.8 251.1 L 211.3 254.2 L 214.1 257.0 L 216.7 260.3 L 219.6 263.1 L 222.6 265.5 L 225.4 268.9 L 228.8 270.9 L 231.9 273.5 L 235.3 275.5 L 238.7 277.8 L 242.0 280.4 L 245.6 282.3 L 249.3 283.6 L 252.8 286.0 L 256.6 287.1 L 260.4 288.9 L 264.2 290.0 L 268.1 290.8 L 272.0 292.4 L 275.9 293.3 L 279.9 293.6 L 283.9 294.7 L 287.9 294.5 L 291.9 295.1 L 296.0 295.1 L 300.0 294.4 Z" fill="none" stroke="#F32740" stroke-width="2.0" stroke-linejoin="round" stroke-linecap="round"/>
<text x="338" y="132" fill="#F32740" font-size="9.5" font-weight="700">125</text>
<text x="335" y="200" fill="#F32740" font-size="9.5" font-weight="700">250</text>
<text x="335" y="268" fill="#F32740" font-size="9.5" font-weight="700">375</text>
<text x="335" y="336" fill="#F32740" font-size="9.5" font-weight="700">500</text>
<rect x="274.0" y="58" width="52" height="11" rx="1.5" fill="#fafbfc" stroke="rgba(255,255,255,0.4)" stroke-width="0.5"/>
<line x1="272.0" y1="69.8" x2="328.0" y2="69.8" stroke="#F32740" stroke-width="0.7" stroke-dasharray="1.5 2"/>
<text x="300" y="66" text-anchor="middle" fill="#F32740" font-size="8" font-weight="700" letter-spacing="0.5">cd/klm SCALE</text>
<g transform="translate(22, 434)">
<text x="0" y="-8" fill="rgba(255,255,255,0.55)" font-size="8" letter-spacing="1.4">cd/klm</text>
<line x1="0" y1="6" x2="22" y2="6" stroke="#F32740" stroke-width="2.2"/>
<text x="28" y="9" fill="rgba(255,255,255,0.7)" font-size="9.5">C0 – C180</text>
<line x1="120" y1="6" x2="142" y2="6" stroke="#3FA9F5" stroke-width="1.7"/>
<text x="148" y="9" fill="rgba(255,255,255,0.7)" font-size="9.5">C90 – C270</text>
</g>
<text x="578" y="402" fill="rgba(255,255,255,0.45)" font-size="9" text-anchor="end">η = 150 lm/W</text>
<text x="578" y="418" fill="rgba(255,255,255,0.45)" font-size="9" text-anchor="end">2,033 lm · 13.6W</text>
<text x="578" y="434" fill="rgba(255,255,255,0.55)" font-size="8" letter-spacing="1.4" text-anchor="end">PEAK INTENSITY</text>
<text x="578" y="451" fill="#fff" font-weight="700" font-size="14" text-anchor="end">864 cd</text>
</svg>