<svg viewBox="0 0 600 460" xmlns="http://www.w3.org/2000/svg" font-family="JetBrains Mono, monospace" font-size="9.5">
<rect width="100%" height="100%" fill="#14171b"/>
<text x="22" y="26" fill="#F32740" font-weight="700" letter-spacing="2">LFLD3W35-3E1-UD-PS-20W-40K_IESNA2002 · 20W · 4000K · FLOOD</text>
<text x="22" y="42" fill="rgba(255,255,255,0.55)" font-size="8" letter-spacing="1.4">LUMINOUS INTENSITY DISTRIBUTION (cd/klm)</text>
<path d="M 232.0 64.0 A 68.0 68.0 0 0 0 368.0 64.0" fill="none" stroke="rgba(120,200,200,0.18)" stroke-width="0.7"/>
<path d="M 164.0 64.0 A 136.0 136.0 0 0 0 436.0 64.0" fill="none" stroke="rgba(120,200,200,0.18)" stroke-width="0.7"/>
<path d="M 96.0 64.0 A 204.0 204.0 0 0 0 504.0 64.0" fill="none" stroke="rgba(120,200,200,0.18)" stroke-width="0.7"/>
<path d="M 28.0 64.0 A 272.0 272.0 0 0 0 572.0 64.0" fill="none" stroke="rgba(120,200,200,0.18)" stroke-width="0.7"/>
<path d="M -40.0 64.0 A 340.0 340.0 0 0 0 640.0 64.0" fill="none" stroke="rgba(120,200,200,0.18)" stroke-width="0.7"/>
<line x1="300.0" y1="64" x2="388.0" y2="392.4" stroke="rgba(120,200,200,0.10)" stroke-width="0.5"/>
<line x1="300.0" y1="64" x2="212.0" y2="392.4" stroke="rgba(120,200,200,0.10)" stroke-width="0.5"/>
<line x1="300.0" y1="64" x2="470.0" y2="358.4" stroke="rgba(120,200,200,0.10)" stroke-width="0.5"/>
<line x1="300.0" y1="64" x2="130.0" y2="358.4" stroke="rgba(120,200,200,0.10)" stroke-width="0.5"/>
<line x1="300.0" y1="64" x2="540.4" y2="304.4" stroke="rgba(120,200,200,0.10)" stroke-width="0.5"/>
<line x1="300.0" y1="64" x2="59.6" y2="304.4" stroke="rgba(120,200,200,0.10)" stroke-width="0.5"/>
<line x1="300.0" y1="64" x2="594.4" y2="234.0" stroke="rgba(120,200,200,0.10)" stroke-width="0.5"/>
<line x1="300.0" y1="64" x2="5.6" y2="234.0" stroke="rgba(120,200,200,0.10)" stroke-width="0.5"/>
<line x1="300.0" y1="64" x2="628.4" y2="152.0" stroke="rgba(120,200,200,0.10)" stroke-width="0.5"/>
<line x1="300.0" y1="64" x2="-28.4" y2="152.0" stroke="rgba(120,200,200,0.10)" stroke-width="0.5"/>
<line x1="300.0" y1="64" x2="640.0" y2="64.0" stroke="rgba(120,200,200,0.10)" stroke-width="0.5"/>
<line x1="300.0" y1="64" x2="-40.0" y2="64.0" stroke="rgba(120,200,200,0.10)" stroke-width="0.5"/>
<line x1="300.0" y1="64" x2="300.0" y2="408" stroke="rgba(120,200,200,0.14)" stroke-width="0.5"/>
<line x1="-40.0" y1="64" x2="640.0" y2="64" stroke="rgba(120,200,200,0.14)" stroke-width="0.5"/>
<text x="391.6" y="408.9" text-anchor="middle" fill="rgba(255,255,255,0.4)" font-size="9">15°</text>
<text x="208.4" y="408.9" text-anchor="middle" fill="rgba(255,255,255,0.4)" font-size="9">15°</text>
<text x="477.0" y="373.6" text-anchor="middle" fill="rgba(255,255,255,0.6)" font-size="9">30°</text>
<text x="123.0" y="373.6" text-anchor="middle" fill="rgba(255,255,255,0.6)" font-size="9">30°</text>
<text x="550.3" y="317.3" text-anchor="middle" fill="rgba(255,255,255,0.4)" font-size="9">45°</text>
<text x="49.7" y="317.3" text-anchor="middle" fill="rgba(255,255,255,0.4)" font-size="9">45°</text>
<text x="606.6" y="244.0" text-anchor="middle" fill="rgba(255,255,255,0.6)" font-size="9">60°</text>
<text x="-6.6" y="244.0" text-anchor="middle" fill="rgba(255,255,255,0.6)" font-size="9">60°</text>
<text x="641.9" y="158.6" text-anchor="middle" fill="rgba(255,255,255,0.4)" font-size="9">75°</text>
<text x="-41.9" y="158.6" text-anchor="middle" fill="rgba(255,255,255,0.4)" font-size="9">75°</text>
<text x="654.0" y="67.0" text-anchor="middle" fill="rgba(255,255,255,0.6)" font-size="9">90°</text>
<text x="-54.0" y="67.0" text-anchor="middle" fill="rgba(255,255,255,0.6)" font-size="9">90°</text>
<text x="300" y="426" text-anchor="middle" fill="rgba(255,255,255,0.6)" font-size="9">0°</text>
<path d="M 300.0 294.2 L 304.0 294.3 L 308.0 293.7 L 312.0 293.9 L 316.0 293.4 L 320.0 293.0 L 324.0 292.5 L 328.0 291.7 L 331.9 290.9 L 335.9 290.4 L 339.6 288.8 L 343.5 287.6 L 347.2 286.3 L 350.9 284.5 L 354.6 282.9 L 358.0 280.5 L 361.6 278.7 L 365.0 276.6 L 368.4 274.4 L 371.7 272.1 L 374.9 269.7 L 378.0 267.1 L 381.1 264.7 L 383.8 261.5 L 386.8 258.9 L 389.4 255.8 L 391.9 252.4 L 394.3 249.1 L 396.7 245.8 L 398.7 242.1 L 400.8 238.6 L 402.6 234.8 L 404.4 231.1 L 406.1 227.4 L 407.5 223.4 L 408.9 219.5 L 410.2 215.7 L 411.1 211.4 L 411.9 207.3 L 412.4 202.8 L 412.9 198.6 L 413.5 194.5 L 413.5 190.0 L 413.5 185.7 L 413.4 181.4 L 413.0 177.0 L 412.7 172.8 L 411.9 168.4 L 411.0 163.9 L 410.1 159.7 L 409.0 155.5 L 407.7 151.2 L 406.4 147.1 L 404.8 143.0 L 402.9 138.7 L 401.1 134.8 L 399.0 130.8 L 396.3 126.5 L 392.4 121.7 L 388.5 117.2 L 385.7 113.5 L 382.9 109.9 L 379.5 106.3 L 375.0 102.2 L 370.9 98.6 L 367.7 95.6 L 363.7 92.3 L 358.8 88.9 L 355.3 86.4 L 351.1 83.6 L 346.8 81.0 L 342.5 78.6 L 337.9 76.3 L 334.3 74.5 L 330.1 72.6 L 326.1 71.0 L 322.6 69.6 L 319.1 68.4 L 315.7 67.3 L 312.7 66.5 L 309.9 65.7 L 307.4 65.2 L 305.2 64.7 L 303.7 64.5 L 303.1 64.3 L 302.6 64.2 L 302.0 64.1 L 301.4 64.1 L 301.2 64.0 L 301.4 64.0 L 301.3 64.0 L 298.8 64.0 L 298.8 64.0 L 298.8 64.0 L 298.8 64.1 L 298.8 64.1 L 298.8 64.1 L 298.8 64.1 L 298.6 64.2 L 298.1 64.3 L 297.4 64.4 L 296.5 64.6 L 295.1 64.9 L 291.9 65.7 L 287.9 66.8 L 283.6 68.1 L 279.7 69.4 L 275.8 70.9 L 272.0 72.6 L 268.5 74.2 L 264.2 76.3 L 260.7 78.3 L 256.0 80.9 L 252.4 83.2 L 248.5 85.9 L 243.7 89.0 L 240.3 91.8 L 236.6 94.9 L 231.6 98.8 L 228.0 102.3 L 225.0 105.6 L 221.5 109.3 L 217.3 113.7 L 213.3 118.2 L 210.6 122.1 L 208.2 125.9 L 206.0 129.8 L 203.2 134.4 L 200.1 139.3 L 198.0 143.7 L 196.2 148.1 L 194.8 152.3 L 193.3 156.7 L 192.3 161.0 L 191.2 165.5 L 190.3 169.9 L 189.6 174.4 L 189.1 178.8 L 188.9 183.2 L 188.8 187.4 L 188.8 191.9 L 189.2 196.0 L 189.8 200.1 L 190.3 204.4 L 191.1 208.6 L 191.8 212.9 L 192.8 217.1 L 194.2 220.8 L 195.6 224.8 L 197.1 228.7 L 198.9 232.3 L 200.8 235.8 L 202.9 239.3 L 205.0 242.6 L 207.3 246.0 L 209.7 249.2 L 212.1 252.6 L 214.6 255.9 L 217.3 258.7 L 220.1 261.7 L 223.0 264.6 L 226.0 267.3 L 229.1 270.0 L 232.4 272.2 L 235.7 274.3 L 239.0 276.7 L 242.5 278.6 L 246.1 280.2 L 249.6 282.3 L 253.3 283.7 L 256.9 285.8 L 260.6 287.4 L 264.5 288.4 L 268.3 289.9 L 272.1 291.2 L 276.1 291.7 L 280.0 292.9 L 284.0 293.4 L 287.9 294.0 L 292.0 294.1 L 296.0 294.0 L 300.0 294.2 Z" fill="none" stroke="#3FA9F5" stroke-width="1.7" stroke-linejoin="round" stroke-linecap="round"/>
<path d="M 300.0 294.2 L 304.0 294.0 L 308.0 293.9 L 312.1 294.1 L 316.1 293.8 L 320.0 293.1 L 324.0 292.2 L 327.9 291.6 L 331.9 290.7 L 335.7 289.3 L 339.5 287.9 L 343.3 287.0 L 347.0 285.2 L 350.6 283.2 L 354.2 281.4 L 357.8 279.6 L 361.3 277.6 L 364.6 275.1 L 367.8 272.7 L 371.1 270.4 L 374.2 267.9 L 377.2 265.1 L 380.2 262.4 L 383.1 259.8 L 385.9 256.9 L 388.4 253.5 L 390.9 250.4 L 393.3 247.1 L 395.5 243.6 L 397.5 239.9 L 399.4 236.2 L 401.2 232.4 L 402.8 228.6 L 404.2 224.4 L 405.4 220.2 L 406.5 216.1 L 407.3 211.7 L 407.9 207.2 L 408.5 202.9 L 409.0 198.6 L 409.5 194.5 L 409.5 189.9 L 409.6 185.7 L 408.8 180.7 L 406.8 174.6 L 403.4 167.4 L 400.0 160.6 L 396.8 154.2 L 394.6 149.2 L 393.1 145.0 L 392.2 141.4 L 391.0 137.7 L 389.8 134.1 L 387.4 129.9 L 383.8 124.9 L 378.6 119.0 L 372.9 113.2 L 368.7 108.6 L 366.1 105.3 L 364.1 102.5 L 361.6 99.6 L 357.1 95.7 L 349.9 90.5 L 342.4 85.6 L 334.8 81.0 L 328.8 77.4 L 321.0 73.4 L 312.5 69.3 L 310.4 68.2 L 309.1 67.5 L 307.8 66.8 L 306.5 66.2 L 305.2 65.7 L 304.1 65.3 L 303.1 64.9 L 302.2 64.6 L 301.5 64.4 L 301.3 64.3 L 301.3 64.3 L 301.3 64.3 L 301.3 64.2 L 301.3 64.2 L 301.2 64.2 L 301.1 64.1 L 301.1 64.1 L 301.0 64.1 L 301.0 64.1 L 300.9 64.0 L 300.9 64.0 L 300.9 64.0 L 301.0 64.0 L 298.9 64.0 L 298.9 64.0 L 298.9 64.0 L 298.9 64.1 L 298.9 64.1 L 298.9 64.1 L 298.9 64.1 L 298.9 64.1 L 299.0 64.1 L 299.0 64.2 L 299.0 64.2 L 299.0 64.2 L 299.0 64.2 L 299.0 64.2 L 299.0 64.2 L 299.0 64.3 L 299.1 64.3 L 299.0 64.3 L 299.0 64.3 L 298.8 64.4 L 298.2 64.6 L 297.6 64.9 L 297.0 65.2 L 296.3 65.6 L 295.6 66.0 L 294.8 66.4 L 294.1 66.9 L 293.3 67.4 L 292.5 68.0 L 291.7 68.6 L 291.0 69.2 L 290.3 69.8 L 289.6 70.5 L 288.9 71.2 L 284.9 74.2 L 281.0 77.3 L 277.2 80.6 L 274.6 83.1 L 268.8 88.4 L 261.8 94.9 L 259.5 98.0 L 256.7 101.6 L 252.7 106.5 L 246.7 113.7 L 243.0 119.0 L 241.2 122.8 L 238.9 127.2 L 236.2 132.4 L 231.5 140.1 L 227.5 147.4 L 226.2 152.0 L 224.6 157.1 L 223.6 161.8 L 222.4 167.0 L 219.5 174.9 L 216.3 183.5 L 214.7 190.4 L 214.0 196.5 L 214.2 201.3 L 215.1 205.3 L 215.5 210.3 L 214.5 218.2 L 213.1 227.4 L 212.0 236.6 L 212.4 243.7 L 213.5 249.6 L 215.7 253.3 L 218.3 256.4 L 221.1 259.3 L 223.8 262.6 L 226.7 265.5 L 229.6 268.5 L 232.7 271.1 L 235.8 273.9 L 239.1 276.4 L 242.5 278.7 L 245.9 280.9 L 249.5 282.9 L 253.1 284.8 L 256.8 286.5 L 260.6 287.6 L 264.3 289.3 L 268.2 290.5 L 272.1 291.4 L 276.0 292.0 L 280.0 292.9 L 284.0 293.1 L 288.0 293.7 L 292.0 293.7 L 296.0 294.1 L 300.0 294.2 Z" fill="none" stroke="#F32740" stroke-width="2.0" stroke-linejoin="round" stroke-linecap="round"/>
<text x="338" y="132" fill="#F32740" font-size="9.5" font-weight="700">125</text>
<text x="335" y="200" fill="#F32740" font-size="9.5" font-weight="700">250</text>
<text x="335" y="268" fill="#F32740" font-size="9.5" font-weight="700">375</text>
<text x="335" y="336" fill="#F32740" font-size="9.5" font-weight="700">500</text>
<rect x="274.0" y="58" width="52" height="11" rx="1.5" fill="#fafbfc" stroke="rgba(255,255,255,0.4)" stroke-width="0.5"/>
<line x1="272.0" y1="69.8" x2="328.0" y2="69.8" stroke="#F32740" stroke-width="0.7" stroke-dasharray="1.5 2"/>
<text x="300" y="66" text-anchor="middle" fill="#F32740" font-size="8" font-weight="700" letter-spacing="0.5">cd/klm SCALE</text>
<g transform="translate(22, 434)">
<text x="0" y="-8" fill="rgba(255,255,255,0.55)" font-size="8" letter-spacing="1.4">cd/klm</text>
<line x1="0" y1="6" x2="22" y2="6" stroke="#F32740" stroke-width="2.2"/>
<text x="28" y="9" fill="rgba(255,255,255,0.7)" font-size="9.5">C0 – C180</text>
<line x1="120" y1="6" x2="142" y2="6" stroke="#3FA9F5" stroke-width="1.7"/>
<text x="148" y="9" fill="rgba(255,255,255,0.7)" font-size="9.5">C90 – C270</text>
</g>
<text x="578" y="402" fill="rgba(255,255,255,0.45)" font-size="9" text-anchor="end">η = 147 lm/W</text>
<text x="578" y="418" fill="rgba(255,255,255,0.45)" font-size="9" text-anchor="end">2,804 lm · 19.0W</text>
<text x="578" y="434" fill="rgba(255,255,255,0.55)" font-size="8" letter-spacing="1.4" text-anchor="end">PEAK INTENSITY</text>
<text x="578" y="451" fill="#fff" font-weight="700" font-size="14" text-anchor="end">1,188 cd</text>
</svg>