<svg viewBox="0 0 600 460" xmlns="http://www.w3.org/2000/svg" font-family="JetBrains Mono, monospace" font-size="9.5">
<rect width="100%" height="100%" fill="#14171b"/>
<text x="22" y="26" fill="#F32740" font-weight="700" letter-spacing="2">LFLD3W80-3E1-UD-PS-60W-50K_IESNA2002 · 60W · 5000K · FLOOD</text>
<text x="22" y="42" fill="rgba(255,255,255,0.55)" font-size="8" letter-spacing="1.4">LUMINOUS INTENSITY DISTRIBUTION (cd/klm)</text>
<path d="M 232.0 64.0 A 68.0 68.0 0 0 0 368.0 64.0" fill="none" stroke="rgba(120,200,200,0.18)" stroke-width="0.7"/>
<path d="M 164.0 64.0 A 136.0 136.0 0 0 0 436.0 64.0" fill="none" stroke="rgba(120,200,200,0.18)" stroke-width="0.7"/>
<path d="M 96.0 64.0 A 204.0 204.0 0 0 0 504.0 64.0" fill="none" stroke="rgba(120,200,200,0.18)" stroke-width="0.7"/>
<path d="M 28.0 64.0 A 272.0 272.0 0 0 0 572.0 64.0" fill="none" stroke="rgba(120,200,200,0.18)" stroke-width="0.7"/>
<path d="M -40.0 64.0 A 340.0 340.0 0 0 0 640.0 64.0" fill="none" stroke="rgba(120,200,200,0.18)" stroke-width="0.7"/>
<line x1="300.0" y1="64" x2="388.0" y2="392.4" stroke="rgba(120,200,200,0.10)" stroke-width="0.5"/>
<line x1="300.0" y1="64" x2="212.0" y2="392.4" stroke="rgba(120,200,200,0.10)" stroke-width="0.5"/>
<line x1="300.0" y1="64" x2="470.0" y2="358.4" stroke="rgba(120,200,200,0.10)" stroke-width="0.5"/>
<line x1="300.0" y1="64" x2="130.0" y2="358.4" stroke="rgba(120,200,200,0.10)" stroke-width="0.5"/>
<line x1="300.0" y1="64" x2="540.4" y2="304.4" stroke="rgba(120,200,200,0.10)" stroke-width="0.5"/>
<line x1="300.0" y1="64" x2="59.6" y2="304.4" stroke="rgba(120,200,200,0.10)" stroke-width="0.5"/>
<line x1="300.0" y1="64" x2="594.4" y2="234.0" stroke="rgba(120,200,200,0.10)" stroke-width="0.5"/>
<line x1="300.0" y1="64" x2="5.6" y2="234.0" stroke="rgba(120,200,200,0.10)" stroke-width="0.5"/>
<line x1="300.0" y1="64" x2="628.4" y2="152.0" stroke="rgba(120,200,200,0.10)" stroke-width="0.5"/>
<line x1="300.0" y1="64" x2="-28.4" y2="152.0" stroke="rgba(120,200,200,0.10)" stroke-width="0.5"/>
<line x1="300.0" y1="64" x2="640.0" y2="64.0" stroke="rgba(120,200,200,0.10)" stroke-width="0.5"/>
<line x1="300.0" y1="64" x2="-40.0" y2="64.0" stroke="rgba(120,200,200,0.10)" stroke-width="0.5"/>
<line x1="300.0" y1="64" x2="300.0" y2="408" stroke="rgba(120,200,200,0.14)" stroke-width="0.5"/>
<line x1="-40.0" y1="64" x2="640.0" y2="64" stroke="rgba(120,200,200,0.14)" stroke-width="0.5"/>
<text x="391.6" y="408.9" text-anchor="middle" fill="rgba(255,255,255,0.4)" font-size="9">15°</text>
<text x="208.4" y="408.9" text-anchor="middle" fill="rgba(255,255,255,0.4)" font-size="9">15°</text>
<text x="477.0" y="373.6" text-anchor="middle" fill="rgba(255,255,255,0.6)" font-size="9">30°</text>
<text x="123.0" y="373.6" text-anchor="middle" fill="rgba(255,255,255,0.6)" font-size="9">30°</text>
<text x="550.3" y="317.3" text-anchor="middle" fill="rgba(255,255,255,0.4)" font-size="9">45°</text>
<text x="49.7" y="317.3" text-anchor="middle" fill="rgba(255,255,255,0.4)" font-size="9">45°</text>
<text x="606.6" y="244.0" text-anchor="middle" fill="rgba(255,255,255,0.6)" font-size="9">60°</text>
<text x="-6.6" y="244.0" text-anchor="middle" fill="rgba(255,255,255,0.6)" font-size="9">60°</text>
<text x="641.9" y="158.6" text-anchor="middle" fill="rgba(255,255,255,0.4)" font-size="9">75°</text>
<text x="-41.9" y="158.6" text-anchor="middle" fill="rgba(255,255,255,0.4)" font-size="9">75°</text>
<text x="654.0" y="67.0" text-anchor="middle" fill="rgba(255,255,255,0.6)" font-size="9">90°</text>
<text x="-54.0" y="67.0" text-anchor="middle" fill="rgba(255,255,255,0.6)" font-size="9">90°</text>
<text x="300" y="426" text-anchor="middle" fill="rgba(255,255,255,0.6)" font-size="9">0°</text>
<path d="M 300.0 290.9 L 304.0 291.1 L 307.9 290.8 L 311.9 290.8 L 315.8 290.2 L 319.8 289.8 L 323.7 289.3 L 327.6 288.4 L 331.4 287.5 L 335.3 286.6 L 339.0 285.4 L 342.8 284.1 L 346.5 282.7 L 350.2 281.3 L 353.8 279.7 L 357.3 277.7 L 360.8 275.9 L 364.2 274.0 L 367.6 271.9 L 370.8 269.7 L 374.0 267.3 L 377.0 264.6 L 380.1 262.3 L 383.0 259.6 L 385.8 256.7 L 388.5 253.9 L 391.1 250.9 L 393.6 247.8 L 395.9 244.4 L 398.3 241.3 L 400.5 238.1 L 402.4 234.4 L 404.3 230.9 L 406.1 227.4 L 407.7 223.6 L 409.1 219.9 L 410.4 216.0 L 411.6 212.1 L 412.5 208.0 L 413.5 204.1 L 414.2 200.1 L 414.7 196.0 L 415.1 191.9 L 415.3 187.6 L 415.2 183.3 L 415.2 179.2 L 414.8 174.9 L 414.3 170.6 L 413.6 166.2 L 412.8 162.1 L 411.8 157.8 L 410.6 153.5 L 409.2 149.3 L 407.8 145.2 L 406.1 141.1 L 404.2 136.9 L 402.1 132.9 L 399.8 128.8 L 396.7 124.5 L 393.3 120.1 L 390.4 116.2 L 387.5 112.5 L 383.6 108.5 L 379.8 104.7 L 376.5 101.3 L 372.0 97.6 L 367.0 93.8 L 361.7 90.2 L 356.0 86.6 L 350.3 83.3 L 344.5 80.2 L 338.9 77.4 L 333.6 74.9 L 328.2 72.6 L 323.5 70.7 L 318.7 69.0 L 313.9 67.5 L 309.8 66.3 L 306.1 65.3 L 303.4 64.7 L 302.6 64.5 L 302.0 64.3 L 301.5 64.2 L 301.3 64.2 L 301.3 64.1 L 301.4 64.1 L 301.3 64.1 L 301.3 64.1 L 301.3 64.0 L 301.3 64.0 L 301.3 64.0 L 298.7 64.0 L 298.8 64.0 L 298.7 64.0 L 298.7 64.1 L 298.7 64.1 L 298.8 64.1 L 298.8 64.1 L 298.8 64.1 L 298.8 64.2 L 298.7 64.2 L 298.3 64.3 L 297.8 64.4 L 297.2 64.6 L 296.3 64.9 L 293.1 65.7 L 289.9 66.7 L 286.0 68.0 L 281.9 69.5 L 277.6 71.3 L 272.9 73.3 L 268.1 75.6 L 263.1 78.2 L 257.9 81.0 L 252.8 84.0 L 247.4 87.4 L 242.3 90.9 L 236.8 94.8 L 231.7 98.8 L 226.8 102.9 L 222.6 106.9 L 218.5 111.0 L 214.6 115.3 L 212.0 119.0 L 209.1 123.0 L 205.9 127.5 L 203.1 131.9 L 201.2 135.7 L 199.4 139.8 L 197.7 143.9 L 196.2 148.0 L 195.0 152.1 L 193.9 156.2 L 192.9 160.4 L 192.0 164.7 L 191.4 168.9 L 190.9 173.1 L 190.6 177.3 L 190.4 181.6 L 190.4 185.8 L 190.6 189.8 L 190.9 194.0 L 191.3 198.2 L 192.0 202.3 L 192.8 206.2 L 193.8 210.2 L 194.9 214.1 L 196.1 218.1 L 197.4 221.9 L 199.0 225.6 L 200.7 229.3 L 202.6 232.7 L 204.6 236.2 L 206.6 239.7 L 208.8 243.1 L 211.1 246.2 L 213.5 249.5 L 216.1 252.4 L 218.8 255.3 L 221.5 258.3 L 224.4 260.8 L 227.4 263.4 L 230.4 266.0 L 233.5 268.5 L 236.8 270.6 L 240.1 272.9 L 243.5 275.0 L 246.9 276.9 L 250.4 278.7 L 254.0 280.4 L 257.6 282.1 L 261.3 283.4 L 265.0 284.8 L 268.8 286.0 L 272.6 287.2 L 276.4 288.1 L 280.3 288.9 L 284.2 289.6 L 288.1 290.4 L 292.1 290.6 L 296.0 290.9 L 300.0 290.9 Z" fill="none" stroke="#3FA9F5" stroke-width="1.7" stroke-linejoin="round" stroke-linecap="round"/>
<path d="M 300.0 290.9 L 304.0 290.8 L 307.9 290.8 L 311.9 290.5 L 315.8 290.2 L 319.7 289.6 L 323.7 289.2 L 327.6 288.5 L 331.5 287.8 L 335.3 286.7 L 339.1 285.6 L 342.8 284.3 L 346.5 283.0 L 350.2 281.4 L 353.8 279.9 L 357.4 278.3 L 361.0 276.6 L 364.4 274.6 L 367.7 272.5 L 371.1 270.4 L 374.3 268.0 L 377.4 265.7 L 380.5 263.2 L 383.5 260.7 L 386.4 258.0 L 389.1 255.2 L 391.7 252.1 L 394.2 248.9 L 396.8 246.0 L 399.0 242.7 L 401.2 239.3 L 403.2 235.8 L 405.3 232.5 L 407.1 228.9 L 408.9 225.4 L 410.2 221.4 L 411.7 217.7 L 412.9 213.8 L 414.1 210.0 L 415.0 206.0 L 415.8 202.0 L 416.4 197.9 L 416.9 193.9 L 417.1 189.6 L 417.4 185.6 L 417.4 181.4 L 417.3 177.2 L 416.8 172.9 L 416.3 168.7 L 415.6 164.5 L 414.9 160.4 L 413.5 155.9 L 411.5 151.1 L 403.7 142.1 L 395.7 133.5 L 392.5 128.7 L 388.8 123.9 L 377.6 114.4 L 372.8 109.5 L 369.9 106.0 L 357.6 97.3 L 353.2 93.5 L 346.9 88.9 L 337.3 83.0 L 334.2 80.7 L 323.1 74.8 L 316.7 71.4 L 310.2 68.4 L 309.1 67.7 L 307.8 67.0 L 306.5 66.4 L 305.3 65.8 L 304.2 65.4 L 303.2 65.0 L 302.3 64.6 L 301.5 64.4 L 301.3 64.3 L 301.3 64.3 L 301.3 64.3 L 301.3 64.3 L 301.3 64.2 L 301.3 64.2 L 301.2 64.2 L 301.2 64.1 L 301.1 64.1 L 301.0 64.1 L 301.0 64.1 L 300.9 64.0 L 300.9 64.0 L 300.9 64.0 L 301.0 64.0 L 298.8 64.0 L 298.8 64.0 L 298.8 64.0 L 298.8 64.1 L 298.8 64.1 L 298.8 64.1 L 298.8 64.1 L 298.8 64.2 L 298.8 64.2 L 298.8 64.2 L 298.8 64.2 L 298.8 64.2 L 298.8 64.2 L 298.9 64.3 L 298.9 64.3 L 298.9 64.3 L 298.9 64.3 L 298.9 64.3 L 298.9 64.3 L 299.0 64.4 L 299.0 64.4 L 299.0 64.4 L 298.9 64.5 L 298.5 64.6 L 298.0 64.9 L 297.5 65.2 L 296.9 65.5 L 296.3 65.9 L 295.7 66.3 L 295.1 66.7 L 294.5 67.2 L 293.9 67.7 L 293.4 68.1 L 292.9 68.6 L 291.9 69.5 L 290.8 70.5 L 283.6 75.9 L 280.2 78.9 L 277.9 81.2 L 271.1 87.4 L 266.1 92.4 L 263.5 95.7 L 261.6 98.5 L 256.2 104.9 L 250.3 112.0 L 246.9 117.1 L 245.0 120.9 L 241.2 127.0 L 237.6 133.3 L 234.2 139.7 L 230.9 146.3 L 229.4 151.2 L 228.9 155.0 L 229.0 158.2 L 226.9 164.7 L 222.0 175.4 L 219.2 183.8 L 218.1 190.1 L 218.4 194.6 L 219.5 197.9 L 220.8 201.2 L 221.2 206.1 L 219.3 215.8 L 217.3 226.4 L 216.4 235.4 L 217.2 241.5 L 219.3 245.3 L 221.8 248.2 L 224.3 251.4 L 226.9 254.5 L 229.5 257.7 L 232.3 260.6 L 235.1 263.7 L 238.1 266.6 L 241.1 269.3 L 244.3 271.8 L 247.6 274.4 L 251.0 276.4 L 254.4 278.7 L 257.9 280.7 L 261.5 282.4 L 265.2 283.9 L 268.9 285.5 L 272.7 286.5 L 276.5 287.4 L 280.4 288.4 L 284.3 289.2 L 288.2 289.7 L 292.1 290.2 L 296.0 290.6 L 300.0 290.9 Z" fill="none" stroke="#F32740" stroke-width="2.0" stroke-linejoin="round" stroke-linecap="round"/>
<text x="338" y="132" fill="#F32740" font-size="9.5" font-weight="700">125</text>
<text x="335" y="200" fill="#F32740" font-size="9.5" font-weight="700">250</text>
<text x="335" y="268" fill="#F32740" font-size="9.5" font-weight="700">375</text>
<text x="335" y="336" fill="#F32740" font-size="9.5" font-weight="700">500</text>
<rect x="274.0" y="58" width="52" height="11" rx="1.5" fill="#fafbfc" stroke="rgba(255,255,255,0.4)" stroke-width="0.5"/>
<line x1="272.0" y1="69.8" x2="328.0" y2="69.8" stroke="#F32740" stroke-width="0.7" stroke-dasharray="1.5 2"/>
<text x="300" y="66" text-anchor="middle" fill="#F32740" font-size="8" font-weight="700" letter-spacing="0.5">cd/klm SCALE</text>
<g transform="translate(22, 434)">
<text x="0" y="-8" fill="rgba(255,255,255,0.55)" font-size="8" letter-spacing="1.4">cd/klm</text>
<line x1="0" y1="6" x2="22" y2="6" stroke="#F32740" stroke-width="2.2"/>
<text x="28" y="9" fill="rgba(255,255,255,0.7)" font-size="9.5">C0 – C180</text>
<line x1="120" y1="6" x2="142" y2="6" stroke="#3FA9F5" stroke-width="1.7"/>
<text x="148" y="9" fill="rgba(255,255,255,0.7)" font-size="9.5">C90 – C270</text>
</g>
<text x="578" y="402" fill="rgba(255,255,255,0.45)" font-size="9" text-anchor="end">η = 141 lm/W</text>
<text x="578" y="418" fill="rgba(255,255,255,0.45)" font-size="9" text-anchor="end">7,786 lm · 55.3W</text>
<text x="578" y="434" fill="rgba(255,255,255,0.55)" font-size="8" letter-spacing="1.4" text-anchor="end">PEAK INTENSITY</text>
<text x="578" y="451" fill="#fff" font-weight="700" font-size="14" text-anchor="end">3,251 cd</text>
</svg>