<svg viewBox="0 0 600 460" xmlns="http://www.w3.org/2000/svg" font-family="JetBrains Mono, monospace" font-size="9.5">
<rect width="100%" height="100%" fill="#14171b"/>
<text x="22" y="26" fill="#F32740" font-weight="700" letter-spacing="2">LFLD3W35-3E1-UD-PS-35W-40K_IESNA2002 · 35W · 4000K · FLOOD</text>
<text x="22" y="42" fill="rgba(255,255,255,0.55)" font-size="8" letter-spacing="1.4">LUMINOUS INTENSITY DISTRIBUTION (cd/klm)</text>
<path d="M 232.0 64.0 A 68.0 68.0 0 0 0 368.0 64.0" fill="none" stroke="rgba(120,200,200,0.18)" stroke-width="0.7"/>
<path d="M 164.0 64.0 A 136.0 136.0 0 0 0 436.0 64.0" fill="none" stroke="rgba(120,200,200,0.18)" stroke-width="0.7"/>
<path d="M 96.0 64.0 A 204.0 204.0 0 0 0 504.0 64.0" fill="none" stroke="rgba(120,200,200,0.18)" stroke-width="0.7"/>
<path d="M 28.0 64.0 A 272.0 272.0 0 0 0 572.0 64.0" fill="none" stroke="rgba(120,200,200,0.18)" stroke-width="0.7"/>
<path d="M -40.0 64.0 A 340.0 340.0 0 0 0 640.0 64.0" fill="none" stroke="rgba(120,200,200,0.18)" stroke-width="0.7"/>
<line x1="300.0" y1="64" x2="388.0" y2="392.4" stroke="rgba(120,200,200,0.10)" stroke-width="0.5"/>
<line x1="300.0" y1="64" x2="212.0" y2="392.4" stroke="rgba(120,200,200,0.10)" stroke-width="0.5"/>
<line x1="300.0" y1="64" x2="470.0" y2="358.4" stroke="rgba(120,200,200,0.10)" stroke-width="0.5"/>
<line x1="300.0" y1="64" x2="130.0" y2="358.4" stroke="rgba(120,200,200,0.10)" stroke-width="0.5"/>
<line x1="300.0" y1="64" x2="540.4" y2="304.4" stroke="rgba(120,200,200,0.10)" stroke-width="0.5"/>
<line x1="300.0" y1="64" x2="59.6" y2="304.4" stroke="rgba(120,200,200,0.10)" stroke-width="0.5"/>
<line x1="300.0" y1="64" x2="594.4" y2="234.0" stroke="rgba(120,200,200,0.10)" stroke-width="0.5"/>
<line x1="300.0" y1="64" x2="5.6" y2="234.0" stroke="rgba(120,200,200,0.10)" stroke-width="0.5"/>
<line x1="300.0" y1="64" x2="628.4" y2="152.0" stroke="rgba(120,200,200,0.10)" stroke-width="0.5"/>
<line x1="300.0" y1="64" x2="-28.4" y2="152.0" stroke="rgba(120,200,200,0.10)" stroke-width="0.5"/>
<line x1="300.0" y1="64" x2="640.0" y2="64.0" stroke="rgba(120,200,200,0.10)" stroke-width="0.5"/>
<line x1="300.0" y1="64" x2="-40.0" y2="64.0" stroke="rgba(120,200,200,0.10)" stroke-width="0.5"/>
<line x1="300.0" y1="64" x2="300.0" y2="408" stroke="rgba(120,200,200,0.14)" stroke-width="0.5"/>
<line x1="-40.0" y1="64" x2="640.0" y2="64" stroke="rgba(120,200,200,0.14)" stroke-width="0.5"/>
<text x="391.6" y="408.9" text-anchor="middle" fill="rgba(255,255,255,0.4)" font-size="9">15°</text>
<text x="208.4" y="408.9" text-anchor="middle" fill="rgba(255,255,255,0.4)" font-size="9">15°</text>
<text x="477.0" y="373.6" text-anchor="middle" fill="rgba(255,255,255,0.6)" font-size="9">30°</text>
<text x="123.0" y="373.6" text-anchor="middle" fill="rgba(255,255,255,0.6)" font-size="9">30°</text>
<text x="550.3" y="317.3" text-anchor="middle" fill="rgba(255,255,255,0.4)" font-size="9">45°</text>
<text x="49.7" y="317.3" text-anchor="middle" fill="rgba(255,255,255,0.4)" font-size="9">45°</text>
<text x="606.6" y="244.0" text-anchor="middle" fill="rgba(255,255,255,0.6)" font-size="9">60°</text>
<text x="-6.6" y="244.0" text-anchor="middle" fill="rgba(255,255,255,0.6)" font-size="9">60°</text>
<text x="641.9" y="158.6" text-anchor="middle" fill="rgba(255,255,255,0.4)" font-size="9">75°</text>
<text x="-41.9" y="158.6" text-anchor="middle" fill="rgba(255,255,255,0.4)" font-size="9">75°</text>
<text x="654.0" y="67.0" text-anchor="middle" fill="rgba(255,255,255,0.6)" font-size="9">90°</text>
<text x="-54.0" y="67.0" text-anchor="middle" fill="rgba(255,255,255,0.6)" font-size="9">90°</text>
<text x="300" y="426" text-anchor="middle" fill="rgba(255,255,255,0.6)" font-size="9">0°</text>
<path d="M 300.0 291.5 L 304.0 291.5 L 307.9 291.4 L 311.9 291.0 L 315.9 290.8 L 319.8 290.1 L 323.7 289.3 L 327.5 288.1 L 331.3 287.0 L 335.1 285.6 L 338.8 284.3 L 342.5 282.6 L 346.1 281.1 L 349.7 279.3 L 353.2 277.6 L 356.7 275.5 L 360.1 273.5 L 363.4 271.3 L 366.6 269.1 L 369.8 266.7 L 372.9 264.2 L 375.8 261.6 L 378.7 258.8 L 381.5 255.9 L 384.1 252.9 L 386.6 249.7 L 389.0 246.5 L 391.2 243.1 L 393.4 239.6 L 395.5 236.3 L 397.5 232.9 L 399.3 229.3 L 401.0 225.6 L 402.7 222.1 L 404.0 218.2 L 405.3 214.4 L 406.3 210.3 L 407.3 206.4 L 408.1 202.3 L 408.6 198.1 L 409.0 193.9 L 409.3 189.8 L 409.5 185.7 L 409.6 181.5 L 409.3 177.2 L 409.0 173.0 L 408.4 168.7 L 407.7 164.4 L 406.6 160.0 L 405.5 155.7 L 404.4 151.6 L 403.1 147.5 L 401.5 143.3 L 399.7 139.1 L 397.5 134.8 L 394.6 130.2 L 390.8 125.3 L 387.5 120.8 L 384.7 116.9 L 382.0 113.2 L 379.0 109.6 L 375.0 105.6 L 370.5 101.5 L 367.0 98.1 L 363.7 95.1 L 359.7 91.8 L 354.8 88.4 L 351.2 85.7 L 347.3 83.1 L 342.6 80.4 L 339.2 78.3 L 334.8 76.0 L 331.1 74.1 L 327.1 72.3 L 323.8 70.8 L 320.3 69.4 L 316.9 68.2 L 313.4 67.1 L 309.8 66.1 L 306.1 65.2 L 303.7 64.7 L 302.7 64.4 L 301.9 64.3 L 301.4 64.2 L 301.2 64.1 L 301.2 64.1 L 301.2 64.1 L 301.2 64.1 L 301.2 64.0 L 301.2 64.0 L 301.2 64.0 L 298.8 64.0 L 298.8 64.0 L 298.8 64.0 L 298.8 64.1 L 298.8 64.1 L 298.6 64.1 L 298.2 64.2 L 297.4 64.3 L 296.4 64.5 L 293.8 65.0 L 289.6 65.8 L 285.0 66.9 L 281.1 68.0 L 277.6 69.2 L 273.6 70.6 L 269.7 72.1 L 265.9 73.8 L 261.7 75.7 L 257.5 77.8 L 253.1 80.1 L 249.5 82.4 L 244.5 85.3 L 240.4 88.1 L 237.0 90.7 L 232.4 94.1 L 227.7 97.7 L 224.6 100.8 L 221.6 103.9 L 217.7 107.7 L 213.1 112.2 L 209.5 116.3 L 206.9 119.9 L 204.7 123.6 L 202.1 127.6 L 199.0 132.1 L 195.4 137.2 L 192.4 142.2 L 190.5 146.5 L 189.2 150.5 L 187.9 154.8 L 186.6 159.1 L 185.6 163.4 L 184.9 167.6 L 184.3 171.9 L 183.9 176.1 L 183.6 180.4 L 183.6 184.5 L 183.8 188.6 L 184.0 192.8 L 184.3 197.1 L 184.9 201.2 L 185.6 205.3 L 186.7 209.1 L 187.7 213.0 L 189.0 216.8 L 190.3 220.7 L 191.8 224.4 L 193.4 228.1 L 195.2 231.7 L 197.0 235.4 L 199.1 238.7 L 201.2 242.2 L 203.5 245.6 L 205.8 248.8 L 208.4 251.8 L 211.0 254.8 L 213.8 257.6 L 216.6 260.5 L 219.6 263.0 L 222.7 265.5 L 225.7 268.1 L 228.9 270.4 L 232.2 272.6 L 235.6 274.7 L 238.9 277.0 L 242.4 278.9 L 246.0 280.7 L 249.6 282.3 L 253.3 283.9 L 257.0 285.3 L 260.8 286.4 L 264.6 287.2 L 268.5 288.3 L 272.4 289.1 L 276.3 289.9 L 280.2 290.4 L 284.1 290.9 L 288.1 291.1 L 292.1 291.3 L 296.0 291.3 L 300.0 291.5 Z" fill="none" stroke="#3FA9F5" stroke-width="1.7" stroke-linejoin="round" stroke-linecap="round"/>
<path d="M 300.0 291.5 L 304.0 291.5 L 307.9 291.4 L 311.9 291.0 L 315.9 290.7 L 319.8 290.3 L 323.7 289.8 L 327.6 288.8 L 331.5 288.0 L 335.3 286.9 L 339.1 285.5 L 342.7 283.9 L 346.4 282.1 L 349.9 280.4 L 353.5 278.5 L 356.9 276.3 L 360.2 273.9 L 363.4 271.4 L 366.5 268.8 L 369.5 266.0 L 372.5 263.1 L 375.2 260.0 L 378.0 257.0 L 380.6 253.9 L 383.2 250.9 L 385.7 247.8 L 387.4 243.2 L 387.8 236.4 L 386.8 227.3 L 385.2 217.7 L 384.2 209.8 L 384.4 204.4 L 385.3 200.5 L 386.0 196.4 L 385.5 190.8 L 383.6 183.4 L 380.7 175.1 L 377.8 167.3 L 376.7 162.1 L 376.1 158.0 L 374.7 153.1 L 372.9 147.9 L 369.5 141.2 L 364.7 133.3 L 361.6 127.8 L 359.7 123.7 L 357.7 119.8 L 354.7 115.0 L 348.7 107.9 L 344.5 102.7 L 341.6 98.9 L 339.3 95.8 L 333.0 89.7 L 326.8 84.2 L 323.8 81.3 L 321.4 79.0 L 314.5 73.8 L 313.2 72.6 L 311.8 71.4 L 310.5 70.3 L 309.6 69.5 L 308.7 68.8 L 307.8 68.2 L 307.0 67.6 L 306.1 67.0 L 305.3 66.5 L 304.5 66.0 L 303.7 65.6 L 303.0 65.2 L 302.3 64.9 L 301.6 64.6 L 301.1 64.4 L 301.0 64.3 L 301.0 64.3 L 301.0 64.3 L 301.0 64.3 L 301.0 64.2 L 301.0 64.2 L 301.0 64.2 L 301.0 64.2 L 301.0 64.2 L 301.0 64.2 L 301.0 64.1 L 301.1 64.1 L 301.1 64.1 L 301.1 64.1 L 301.1 64.1 L 301.1 64.1 L 301.1 64.0 L 301.1 64.0 L 301.1 64.0 L 299.0 64.0 L 299.0 64.0 L 299.1 64.0 L 299.1 64.0 L 299.0 64.1 L 299.0 64.1 L 298.9 64.1 L 298.9 64.1 L 298.8 64.2 L 298.7 64.2 L 298.7 64.2 L 298.7 64.3 L 298.7 64.3 L 298.7 64.3 L 298.7 64.3 L 298.4 64.4 L 297.6 64.7 L 296.7 65.0 L 295.7 65.4 L 294.5 65.9 L 293.1 66.5 L 291.6 67.2 L 290.1 68.0 L 287.2 69.4 L 279.5 73.1 L 272.4 76.9 L 265.5 80.8 L 256.5 86.2 L 251.0 90.1 L 243.1 95.6 L 240.3 98.4 L 238.1 101.2 L 235.1 104.6 L 229.8 109.6 L 223.7 115.5 L 218.6 121.0 L 215.8 125.2 L 214.2 128.6 L 212.7 132.2 L 211.3 135.8 L 210.0 139.5 L 208.1 143.9 L 204.9 149.6 L 201.2 156.2 L 197.3 163.2 L 194.0 170.0 L 192.0 175.9 L 191.2 180.7 L 191.1 184.9 L 191.3 189.0 L 191.8 193.0 L 192.3 197.0 L 192.8 201.2 L 193.4 205.4 L 194.2 209.6 L 195.1 213.9 L 196.2 217.8 L 197.5 221.8 L 199.0 225.7 L 200.5 229.5 L 202.3 233.3 L 204.2 236.8 L 206.2 240.4 L 208.4 243.8 L 210.7 247.0 L 213.2 250.2 L 215.7 253.3 L 218.4 256.3 L 221.2 259.1 L 224.1 261.8 L 227.0 264.5 L 230.0 267.2 L 233.2 269.6 L 236.4 272.0 L 239.7 274.2 L 243.1 276.3 L 246.6 278.3 L 250.1 280.1 L 253.7 281.9 L 257.3 283.6 L 261.0 285.1 L 264.8 286.2 L 268.6 287.5 L 272.4 288.6 L 276.3 289.4 L 280.2 290.0 L 284.1 290.7 L 288.1 291.2 L 292.1 291.4 L 296.0 291.4 L 300.0 291.5 Z" fill="none" stroke="#F32740" stroke-width="2.0" stroke-linejoin="round" stroke-linecap="round"/>
<text x="338" y="132" fill="#F32740" font-size="9.5" font-weight="700">125</text>
<text x="335" y="200" fill="#F32740" font-size="9.5" font-weight="700">250</text>
<text x="335" y="268" fill="#F32740" font-size="9.5" font-weight="700">375</text>
<text x="335" y="336" fill="#F32740" font-size="9.5" font-weight="700">500</text>
<rect x="274.0" y="58" width="52" height="11" rx="1.5" fill="#fafbfc" stroke="rgba(255,255,255,0.4)" stroke-width="0.5"/>
<line x1="272.0" y1="69.8" x2="328.0" y2="69.8" stroke="#F32740" stroke-width="0.7" stroke-dasharray="1.5 2"/>
<text x="300" y="66" text-anchor="middle" fill="#F32740" font-size="8" font-weight="700" letter-spacing="0.5">cd/klm SCALE</text>
<g transform="translate(22, 434)">
<text x="0" y="-8" fill="rgba(255,255,255,0.55)" font-size="8" letter-spacing="1.4">cd/klm</text>
<line x1="0" y1="6" x2="22" y2="6" stroke="#F32740" stroke-width="2.2"/>
<text x="28" y="9" fill="rgba(255,255,255,0.7)" font-size="9.5">C0 – C180</text>
<line x1="120" y1="6" x2="142" y2="6" stroke="#3FA9F5" stroke-width="1.7"/>
<text x="148" y="9" fill="rgba(255,255,255,0.7)" font-size="9.5">C90 – C270</text>
</g>
<text x="578" y="402" fill="rgba(255,255,255,0.45)" font-size="9" text-anchor="end">η = 141 lm/W</text>
<text x="578" y="418" fill="rgba(255,255,255,0.45)" font-size="9" text-anchor="end">4,966 lm · 35.3W</text>
<text x="578" y="434" fill="rgba(255,255,255,0.55)" font-size="8" letter-spacing="1.4" text-anchor="end">PEAK INTENSITY</text>
<text x="578" y="451" fill="#fff" font-weight="700" font-size="14" text-anchor="end">2,077 cd</text>
</svg>