<svg viewBox="0 0 600 460" xmlns="http://www.w3.org/2000/svg" font-family="JetBrains Mono, monospace" font-size="9.5">
<rect width="100%" height="100%" fill="#14171b"/>
<text x="22" y="26" fill="#F32740" font-weight="700" letter-spacing="2">LFLD3W150-3E1-UD-PS-150W-30K_IESNA2002 · 150W · 3000K · FLOOD</text>
<text x="22" y="42" fill="rgba(255,255,255,0.55)" font-size="8" letter-spacing="1.4">LUMINOUS INTENSITY DISTRIBUTION (cd/klm)</text>
<path d="M 232.0 64.0 A 68.0 68.0 0 0 0 368.0 64.0" fill="none" stroke="rgba(120,200,200,0.18)" stroke-width="0.7"/>
<path d="M 164.0 64.0 A 136.0 136.0 0 0 0 436.0 64.0" fill="none" stroke="rgba(120,200,200,0.18)" stroke-width="0.7"/>
<path d="M 96.0 64.0 A 204.0 204.0 0 0 0 504.0 64.0" fill="none" stroke="rgba(120,200,200,0.18)" stroke-width="0.7"/>
<path d="M 28.0 64.0 A 272.0 272.0 0 0 0 572.0 64.0" fill="none" stroke="rgba(120,200,200,0.18)" stroke-width="0.7"/>
<path d="M -40.0 64.0 A 340.0 340.0 0 0 0 640.0 64.0" fill="none" stroke="rgba(120,200,200,0.18)" stroke-width="0.7"/>
<line x1="300.0" y1="64" x2="388.0" y2="392.4" stroke="rgba(120,200,200,0.10)" stroke-width="0.5"/>
<line x1="300.0" y1="64" x2="212.0" y2="392.4" stroke="rgba(120,200,200,0.10)" stroke-width="0.5"/>
<line x1="300.0" y1="64" x2="470.0" y2="358.4" stroke="rgba(120,200,200,0.10)" stroke-width="0.5"/>
<line x1="300.0" y1="64" x2="130.0" y2="358.4" stroke="rgba(120,200,200,0.10)" stroke-width="0.5"/>
<line x1="300.0" y1="64" x2="540.4" y2="304.4" stroke="rgba(120,200,200,0.10)" stroke-width="0.5"/>
<line x1="300.0" y1="64" x2="59.6" y2="304.4" stroke="rgba(120,200,200,0.10)" stroke-width="0.5"/>
<line x1="300.0" y1="64" x2="594.4" y2="234.0" stroke="rgba(120,200,200,0.10)" stroke-width="0.5"/>
<line x1="300.0" y1="64" x2="5.6" y2="234.0" stroke="rgba(120,200,200,0.10)" stroke-width="0.5"/>
<line x1="300.0" y1="64" x2="628.4" y2="152.0" stroke="rgba(120,200,200,0.10)" stroke-width="0.5"/>
<line x1="300.0" y1="64" x2="-28.4" y2="152.0" stroke="rgba(120,200,200,0.10)" stroke-width="0.5"/>
<line x1="300.0" y1="64" x2="640.0" y2="64.0" stroke="rgba(120,200,200,0.10)" stroke-width="0.5"/>
<line x1="300.0" y1="64" x2="-40.0" y2="64.0" stroke="rgba(120,200,200,0.10)" stroke-width="0.5"/>
<line x1="300.0" y1="64" x2="300.0" y2="408" stroke="rgba(120,200,200,0.14)" stroke-width="0.5"/>
<line x1="-40.0" y1="64" x2="640.0" y2="64" stroke="rgba(120,200,200,0.14)" stroke-width="0.5"/>
<text x="391.6" y="408.9" text-anchor="middle" fill="rgba(255,255,255,0.4)" font-size="9">15°</text>
<text x="208.4" y="408.9" text-anchor="middle" fill="rgba(255,255,255,0.4)" font-size="9">15°</text>
<text x="477.0" y="373.6" text-anchor="middle" fill="rgba(255,255,255,0.6)" font-size="9">30°</text>
<text x="123.0" y="373.6" text-anchor="middle" fill="rgba(255,255,255,0.6)" font-size="9">30°</text>
<text x="550.3" y="317.3" text-anchor="middle" fill="rgba(255,255,255,0.4)" font-size="9">45°</text>
<text x="49.7" y="317.3" text-anchor="middle" fill="rgba(255,255,255,0.4)" font-size="9">45°</text>
<text x="606.6" y="244.0" text-anchor="middle" fill="rgba(255,255,255,0.6)" font-size="9">60°</text>
<text x="-6.6" y="244.0" text-anchor="middle" fill="rgba(255,255,255,0.6)" font-size="9">60°</text>
<text x="641.9" y="158.6" text-anchor="middle" fill="rgba(255,255,255,0.4)" font-size="9">75°</text>
<text x="-41.9" y="158.6" text-anchor="middle" fill="rgba(255,255,255,0.4)" font-size="9">75°</text>
<text x="654.0" y="67.0" text-anchor="middle" fill="rgba(255,255,255,0.6)" font-size="9">90°</text>
<text x="-54.0" y="67.0" text-anchor="middle" fill="rgba(255,255,255,0.6)" font-size="9">90°</text>
<text x="300" y="426" text-anchor="middle" fill="rgba(255,255,255,0.6)" font-size="9">0°</text>
<path d="M 300.0 281.5 L 303.8 281.7 L 307.6 281.4 L 311.4 281.1 L 315.1 280.5 L 318.9 280.2 L 322.6 279.3 L 326.3 278.6 L 330.0 277.5 L 333.7 276.5 L 337.3 275.3 L 340.8 273.9 L 344.3 272.3 L 347.8 270.9 L 351.2 269.2 L 354.5 267.4 L 357.7 265.4 L 360.9 263.2 L 364.1 261.2 L 367.1 258.9 L 370.1 256.5 L 372.9 254.0 L 375.8 251.5 L 378.5 248.9 L 381.0 246.0 L 383.5 243.1 L 385.9 240.2 L 388.2 237.2 L 390.4 234.0 L 392.4 230.7 L 394.4 227.5 L 396.2 224.2 L 397.9 220.7 L 399.5 217.2 L 400.9 213.6 L 402.2 210.0 L 403.3 206.2 L 404.3 202.5 L 405.3 198.8 L 406.0 194.9 L 406.5 191.0 L 406.9 187.0 L 407.2 183.1 L 407.4 179.2 L 407.3 175.1 L 407.1 171.1 L 406.8 167.1 L 406.4 163.2 L 405.6 159.0 L 404.7 155.0 L 403.7 151.0 L 402.6 147.1 L 400.8 142.8 L 398.7 138.4 L 396.0 133.7 L 393.1 129.2 L 389.7 124.5 L 386.5 120.2 L 383.1 115.9 L 379.6 111.8 L 375.8 107.8 L 371.9 103.9 L 367.8 100.1 L 363.9 96.5 L 359.5 93.0 L 355.2 89.7 L 350.8 86.6 L 346.6 83.8 L 342.2 81.1 L 337.9 78.5 L 333.4 76.2 L 329.3 74.1 L 325.1 72.1 L 321.1 70.5 L 317.3 69.0 L 313.8 67.7 L 310.9 66.7 L 307.9 65.8 L 304.9 65.0 L 302.8 64.5 L 302.4 64.4 L 302.1 64.3 L 301.8 64.2 L 301.5 64.2 L 301.5 64.2 L 301.4 64.1 L 301.3 64.1 L 301.3 64.1 L 301.3 64.0 L 301.3 64.0 L 301.2 64.0 L 298.8 64.0 L 298.8 64.0 L 298.8 64.0 L 298.8 64.1 L 298.8 64.1 L 298.8 64.1 L 298.8 64.1 L 298.8 64.1 L 298.8 64.2 L 298.7 64.2 L 298.5 64.3 L 298.1 64.4 L 296.9 64.7 L 295.6 65.0 L 294.4 65.4 L 291.5 66.3 L 288.3 67.4 L 284.8 68.6 L 281.2 70.1 L 277.3 71.8 L 273.2 73.7 L 269.0 75.9 L 264.8 78.2 L 260.4 80.8 L 256.0 83.6 L 251.5 86.6 L 247.2 89.8 L 242.9 93.1 L 238.8 96.5 L 234.7 100.2 L 230.6 104.0 L 226.8 108.0 L 223.2 112.0 L 219.6 116.2 L 216.1 120.6 L 212.8 125.1 L 209.8 129.5 L 206.9 134.1 L 204.1 138.9 L 201.5 143.8 L 199.6 148.2 L 198.0 152.7 L 196.7 157.0 L 195.9 161.1 L 195.2 165.2 L 194.8 169.2 L 194.5 173.3 L 194.3 177.3 L 194.4 181.3 L 194.6 185.3 L 194.9 189.3 L 195.4 193.2 L 196.0 197.1 L 196.9 200.8 L 197.8 204.7 L 198.8 208.5 L 200.1 212.1 L 201.5 215.6 L 203.0 219.3 L 204.6 222.7 L 206.4 226.1 L 208.3 229.4 L 210.3 232.8 L 212.4 236.0 L 214.7 239.0 L 217.0 242.0 L 219.5 244.9 L 222.0 247.8 L 224.7 250.4 L 227.4 253.1 L 230.3 255.6 L 233.2 258.1 L 236.2 260.3 L 239.3 262.6 L 242.5 264.7 L 245.7 266.8 L 249.0 268.5 L 252.4 270.2 L 255.8 271.8 L 259.3 273.6 L 262.8 274.7 L 266.4 276.1 L 270.1 277.1 L 273.7 278.4 L 277.4 279.0 L 281.1 279.9 L 284.9 280.4 L 288.6 281.1 L 292.4 281.2 L 296.2 281.6 L 300.0 281.5 Z" fill="none" stroke="#3FA9F5" stroke-width="1.7" stroke-linejoin="round" stroke-linecap="round"/>
<path d="M 300.0 281.5 L 303.8 281.8 L 307.6 281.5 L 311.4 281.4 L 315.2 280.9 L 319.0 280.7 L 322.7 280.0 L 326.4 279.4 L 330.1 278.5 L 333.8 277.5 L 337.5 276.4 L 341.1 275.3 L 344.6 273.9 L 348.1 272.5 L 351.6 270.9 L 355.0 269.1 L 358.3 267.4 L 361.6 265.4 L 364.8 263.6 L 368.0 261.4 L 371.0 259.1 L 374.0 256.7 L 376.9 254.3 L 379.7 251.7 L 382.4 249.0 L 384.9 246.1 L 387.5 243.4 L 389.9 240.4 L 392.2 237.4 L 394.2 234.0 L 396.4 231.0 L 398.3 227.6 L 400.1 224.3 L 401.7 220.6 L 403.3 217.2 L 404.6 213.4 L 406.0 209.9 L 407.0 205.9 L 408.0 202.2 L 408.7 198.2 L 409.4 194.4 L 409.7 190.2 L 410.1 186.2 L 410.1 182.1 L 410.1 178.1 L 409.9 173.9 L 409.6 169.8 L 409.1 165.7 L 408.5 161.7 L 407.9 157.8 L 407.1 153.9 L 406.2 150.0 L 405.0 146.1 L 403.7 142.2 L 401.7 137.9 L 396.5 131.6 L 389.3 124.2 L 385.2 119.3 L 383.0 115.8 L 381.0 112.7 L 378.8 109.5 L 375.0 105.6 L 371.0 101.7 L 361.3 95.2 L 358.6 92.6 L 352.4 88.5 L 344.7 83.9 L 341.2 81.5 L 332.3 77.1 L 329.2 75.2 L 321.4 71.8 L 317.3 70.0 L 313.4 68.4 L 309.4 66.9 L 305.5 65.6 L 304.8 65.3 L 304.0 65.0 L 303.3 64.8 L 302.5 64.5 L 301.9 64.4 L 301.5 64.3 L 301.5 64.2 L 301.5 64.2 L 301.5 64.2 L 301.4 64.1 L 301.4 64.1 L 301.3 64.1 L 301.2 64.1 L 301.2 64.0 L 301.1 64.0 L 301.1 64.0 L 298.8 64.0 L 298.8 64.0 L 298.8 64.0 L 298.8 64.1 L 298.8 64.1 L 298.7 64.1 L 298.8 64.1 L 298.8 64.2 L 298.8 64.2 L 298.8 64.2 L 298.8 64.2 L 298.8 64.2 L 298.8 64.3 L 298.8 64.3 L 298.9 64.3 L 298.9 64.3 L 298.9 64.3 L 298.9 64.3 L 298.8 64.4 L 298.5 64.5 L 298.0 64.7 L 297.5 65.0 L 296.8 65.3 L 296.2 65.6 L 295.6 66.0 L 294.9 66.4 L 294.2 66.8 L 293.6 67.3 L 293.0 67.7 L 284.3 72.7 L 283.4 73.6 L 279.4 76.4 L 272.3 81.3 L 271.0 82.8 L 269.7 84.4 L 258.8 92.9 L 257.7 94.7 L 256.6 96.7 L 254.8 99.3 L 243.3 109.9 L 242.3 112.4 L 241.4 114.9 L 240.7 117.4 L 238.6 121.2 L 227.6 133.9 L 226.6 137.4 L 226.1 140.5 L 225.8 143.6 L 225.6 146.6 L 225.0 150.3 L 216.7 163.3 L 213.3 171.1 L 213.7 174.5 L 214.1 177.9 L 214.8 181.3 L 215.5 184.6 L 216.4 187.9 L 215.9 193.6 L 209.4 209.0 L 208.2 216.8 L 209.8 220.3 L 211.5 223.7 L 213.2 227.2 L 215.2 230.5 L 217.3 233.6 L 219.5 236.6 L 221.8 239.7 L 224.1 242.7 L 226.7 245.5 L 229.2 248.3 L 231.9 251.2 L 234.6 254.0 L 237.4 256.6 L 240.3 259.1 L 243.3 261.7 L 246.4 264.1 L 249.6 266.3 L 252.8 268.4 L 256.1 270.4 L 259.5 272.4 L 263.0 273.9 L 266.5 275.3 L 270.1 276.4 L 273.7 277.8 L 277.5 278.4 L 281.1 279.5 L 284.9 280.0 L 288.6 280.8 L 292.4 281.1 L 296.2 281.5 L 300.0 281.5 Z" fill="none" stroke="#F32740" stroke-width="2.0" stroke-linejoin="round" stroke-linecap="round"/>
<text x="338" y="132" fill="#F32740" font-size="9.5" font-weight="700">125</text>
<text x="335" y="200" fill="#F32740" font-size="9.5" font-weight="700">250</text>
<text x="335" y="268" fill="#F32740" font-size="9.5" font-weight="700">375</text>
<text x="335" y="336" fill="#F32740" font-size="9.5" font-weight="700">500</text>
<rect x="274.0" y="58" width="52" height="11" rx="1.5" fill="#fafbfc" stroke="rgba(255,255,255,0.4)" stroke-width="0.5"/>
<line x1="272.0" y1="69.8" x2="328.0" y2="69.8" stroke="#F32740" stroke-width="0.7" stroke-dasharray="1.5 2"/>
<text x="300" y="66" text-anchor="middle" fill="#F32740" font-size="8" font-weight="700" letter-spacing="0.5">cd/klm SCALE</text>
<g transform="translate(22, 434)">
<text x="0" y="-8" fill="rgba(255,255,255,0.55)" font-size="8" letter-spacing="1.4">cd/klm</text>
<line x1="0" y1="6" x2="22" y2="6" stroke="#F32740" stroke-width="2.2"/>
<text x="28" y="9" fill="rgba(255,255,255,0.7)" font-size="9.5">C0 – C180</text>
<line x1="120" y1="6" x2="142" y2="6" stroke="#3FA9F5" stroke-width="1.7"/>
<text x="148" y="9" fill="rgba(255,255,255,0.7)" font-size="9.5">C90 – C270</text>
</g>
<text x="578" y="402" fill="rgba(255,255,255,0.45)" font-size="9" text-anchor="end">η = 117 lm/W</text>
<text x="578" y="418" fill="rgba(255,255,255,0.45)" font-size="9" text-anchor="end">17,214 lm · 146.5W</text>
<text x="578" y="434" fill="rgba(255,255,255,0.55)" font-size="8" letter-spacing="1.4" text-anchor="end">PEAK INTENSITY</text>
<text x="578" y="451" fill="#fff" font-weight="700" font-size="14" text-anchor="end">6,892 cd</text>
</svg>