<svg viewBox="0 0 600 460" xmlns="http://www.w3.org/2000/svg" font-family="JetBrains Mono, monospace" font-size="9.5">
<rect width="100%" height="100%" fill="#14171b"/>
<text x="22" y="26" fill="#F32740" font-weight="700" letter-spacing="2">LFLD3W150-3E1-UD-PS-150W-40K_IESNA2002 · 150W · 4000K · FLOOD</text>
<text x="22" y="42" fill="rgba(255,255,255,0.55)" font-size="8" letter-spacing="1.4">LUMINOUS INTENSITY DISTRIBUTION (cd/klm)</text>
<path d="M 232.0 64.0 A 68.0 68.0 0 0 0 368.0 64.0" fill="none" stroke="rgba(120,200,200,0.18)" stroke-width="0.7"/>
<path d="M 164.0 64.0 A 136.0 136.0 0 0 0 436.0 64.0" fill="none" stroke="rgba(120,200,200,0.18)" stroke-width="0.7"/>
<path d="M 96.0 64.0 A 204.0 204.0 0 0 0 504.0 64.0" fill="none" stroke="rgba(120,200,200,0.18)" stroke-width="0.7"/>
<path d="M 28.0 64.0 A 272.0 272.0 0 0 0 572.0 64.0" fill="none" stroke="rgba(120,200,200,0.18)" stroke-width="0.7"/>
<path d="M -40.0 64.0 A 340.0 340.0 0 0 0 640.0 64.0" fill="none" stroke="rgba(120,200,200,0.18)" stroke-width="0.7"/>
<line x1="300.0" y1="64" x2="388.0" y2="392.4" stroke="rgba(120,200,200,0.10)" stroke-width="0.5"/>
<line x1="300.0" y1="64" x2="212.0" y2="392.4" stroke="rgba(120,200,200,0.10)" stroke-width="0.5"/>
<line x1="300.0" y1="64" x2="470.0" y2="358.4" stroke="rgba(120,200,200,0.10)" stroke-width="0.5"/>
<line x1="300.0" y1="64" x2="130.0" y2="358.4" stroke="rgba(120,200,200,0.10)" stroke-width="0.5"/>
<line x1="300.0" y1="64" x2="540.4" y2="304.4" stroke="rgba(120,200,200,0.10)" stroke-width="0.5"/>
<line x1="300.0" y1="64" x2="59.6" y2="304.4" stroke="rgba(120,200,200,0.10)" stroke-width="0.5"/>
<line x1="300.0" y1="64" x2="594.4" y2="234.0" stroke="rgba(120,200,200,0.10)" stroke-width="0.5"/>
<line x1="300.0" y1="64" x2="5.6" y2="234.0" stroke="rgba(120,200,200,0.10)" stroke-width="0.5"/>
<line x1="300.0" y1="64" x2="628.4" y2="152.0" stroke="rgba(120,200,200,0.10)" stroke-width="0.5"/>
<line x1="300.0" y1="64" x2="-28.4" y2="152.0" stroke="rgba(120,200,200,0.10)" stroke-width="0.5"/>
<line x1="300.0" y1="64" x2="640.0" y2="64.0" stroke="rgba(120,200,200,0.10)" stroke-width="0.5"/>
<line x1="300.0" y1="64" x2="-40.0" y2="64.0" stroke="rgba(120,200,200,0.10)" stroke-width="0.5"/>
<line x1="300.0" y1="64" x2="300.0" y2="408" stroke="rgba(120,200,200,0.14)" stroke-width="0.5"/>
<line x1="-40.0" y1="64" x2="640.0" y2="64" stroke="rgba(120,200,200,0.14)" stroke-width="0.5"/>
<text x="391.6" y="408.9" text-anchor="middle" fill="rgba(255,255,255,0.4)" font-size="9">15°</text>
<text x="208.4" y="408.9" text-anchor="middle" fill="rgba(255,255,255,0.4)" font-size="9">15°</text>
<text x="477.0" y="373.6" text-anchor="middle" fill="rgba(255,255,255,0.6)" font-size="9">30°</text>
<text x="123.0" y="373.6" text-anchor="middle" fill="rgba(255,255,255,0.6)" font-size="9">30°</text>
<text x="550.3" y="317.3" text-anchor="middle" fill="rgba(255,255,255,0.4)" font-size="9">45°</text>
<text x="49.7" y="317.3" text-anchor="middle" fill="rgba(255,255,255,0.4)" font-size="9">45°</text>
<text x="606.6" y="244.0" text-anchor="middle" fill="rgba(255,255,255,0.6)" font-size="9">60°</text>
<text x="-6.6" y="244.0" text-anchor="middle" fill="rgba(255,255,255,0.6)" font-size="9">60°</text>
<text x="641.9" y="158.6" text-anchor="middle" fill="rgba(255,255,255,0.4)" font-size="9">75°</text>
<text x="-41.9" y="158.6" text-anchor="middle" fill="rgba(255,255,255,0.4)" font-size="9">75°</text>
<text x="654.0" y="67.0" text-anchor="middle" fill="rgba(255,255,255,0.6)" font-size="9">90°</text>
<text x="-54.0" y="67.0" text-anchor="middle" fill="rgba(255,255,255,0.6)" font-size="9">90°</text>
<text x="300" y="426" text-anchor="middle" fill="rgba(255,255,255,0.6)" font-size="9">0°</text>
<path d="M 300.0 335.2 L 304.7 334.9 L 309.5 334.8 L 314.2 334.4 L 318.9 334.0 L 323.5 333.1 L 328.2 332.3 L 332.8 331.1 L 337.4 330.2 L 341.9 328.7 L 346.4 327.3 L 350.8 325.4 L 355.2 323.9 L 359.6 322.0 L 363.8 319.8 L 367.9 317.4 L 372.0 315.2 L 376.0 312.7 L 379.9 310.0 L 383.7 307.1 L 387.5 304.3 L 391.1 301.2 L 394.6 298.2 L 397.9 294.7 L 401.2 291.4 L 404.3 287.7 L 407.3 284.1 L 410.2 280.4 L 413.0 276.5 L 415.6 272.5 L 418.0 268.4 L 420.3 264.3 L 422.5 260.1 L 424.5 255.7 L 426.4 251.3 L 427.9 246.6 L 429.5 242.2 L 430.7 237.4 L 431.9 232.8 L 432.7 227.9 L 433.6 223.2 L 434.1 218.2 L 434.5 213.4 L 434.5 208.2 L 434.6 203.4 L 434.4 198.4 L 433.9 193.3 L 433.1 188.2 L 432.4 183.2 L 431.3 178.2 L 430.0 173.1 L 428.5 168.0 L 426.6 162.9 L 423.9 157.3 L 420.5 151.5 L 416.7 145.7 L 412.8 140.1 L 408.6 134.6 L 404.3 129.2 L 399.9 124.0 L 395.3 119.0 L 390.5 114.2 L 385.5 109.4 L 380.3 104.9 L 375.0 100.6 L 369.6 96.4 L 364.1 92.6 L 358.7 88.9 L 353.3 85.5 L 347.7 82.3 L 342.2 79.3 L 336.8 76.7 L 331.6 74.3 L 326.7 72.1 L 321.9 70.3 L 317.3 68.6 L 313.2 67.3 L 309.6 66.2 L 306.0 65.3 L 303.5 64.7 L 303.0 64.5 L 302.6 64.4 L 302.2 64.3 L 301.9 64.2 L 301.8 64.2 L 301.8 64.2 L 301.7 64.1 L 301.6 64.1 L 301.6 64.1 L 301.6 64.0 L 301.6 64.0 L 298.5 64.0 L 298.5 64.0 L 298.5 64.1 L 298.5 64.1 L 298.5 64.1 L 298.5 64.1 L 298.5 64.2 L 298.5 64.2 L 298.5 64.2 L 298.4 64.3 L 298.1 64.3 L 297.6 64.5 L 296.8 64.7 L 296.0 64.9 L 292.8 65.8 L 289.1 66.9 L 285.0 68.3 L 280.6 69.9 L 276.0 71.8 L 271.1 74.0 L 265.8 76.4 L 260.6 79.1 L 255.2 82.1 L 249.7 85.3 L 244.2 88.9 L 238.7 92.6 L 233.0 96.7 L 227.7 100.8 L 222.5 105.2 L 217.5 109.7 L 212.2 114.7 L 207.6 119.5 L 203.0 124.6 L 198.6 129.9 L 194.1 135.4 L 190.1 141.0 L 186.3 146.6 L 182.7 152.4 L 179.1 158.5 L 175.9 164.5 L 173.5 170.2 L 171.6 175.6 L 170.0 181.0 L 169.1 186.1 L 168.2 191.3 L 167.8 196.2 L 167.3 201.5 L 167.2 206.4 L 167.2 211.5 L 167.6 216.3 L 167.9 221.4 L 168.7 226.1 L 169.4 231.1 L 170.6 235.7 L 171.7 240.6 L 173.2 245.1 L 174.7 249.8 L 176.6 254.1 L 178.4 258.6 L 180.5 262.8 L 182.7 267.2 L 185.2 271.1 L 187.6 275.3 L 190.3 279.3 L 193.2 283.0 L 196.2 286.6 L 199.3 290.3 L 202.5 293.8 L 205.8 297.1 L 209.3 300.3 L 212.9 303.4 L 216.5 306.4 L 220.3 309.2 L 224.2 311.8 L 228.2 314.4 L 232.2 317.0 L 236.4 319.1 L 240.6 321.2 L 244.9 323.4 L 249.2 325.1 L 253.7 326.7 L 258.2 328.2 L 262.6 329.9 L 267.2 331.0 L 271.8 332.1 L 276.5 332.8 L 281.1 333.8 L 285.8 334.1 L 290.5 334.8 L 295.3 334.8 L 300.0 335.2 Z" fill="none" stroke="#3FA9F5" stroke-width="1.7" stroke-linejoin="round" stroke-linecap="round"/>
<path d="M 300.0 335.2 L 304.7 335.4 L 309.5 335.2 L 314.2 335.2 L 318.9 334.5 L 323.6 334.1 L 328.3 333.3 L 333.0 332.7 L 337.6 331.5 L 342.2 330.3 L 346.7 328.9 L 351.2 327.5 L 355.6 325.8 L 360.1 324.2 L 364.3 321.9 L 368.6 320.0 L 372.8 317.7 L 376.9 315.4 L 380.9 312.9 L 384.8 310.3 L 388.6 307.5 L 392.4 304.7 L 396.0 301.5 L 399.5 298.3 L 402.9 295.0 L 406.2 291.7 L 409.3 288.0 L 412.3 284.4 L 415.2 280.6 L 417.9 276.7 L 420.5 272.7 L 422.9 268.6 L 425.3 264.5 L 427.4 260.2 L 429.4 255.8 L 431.2 251.3 L 432.8 246.8 L 434.3 242.2 L 435.4 237.4 L 436.5 232.6 L 437.4 227.8 L 438.1 222.9 L 438.6 217.9 L 438.8 212.8 L 438.9 207.9 L 438.8 202.8 L 438.4 197.7 L 437.9 192.6 L 437.4 187.7 L 436.7 182.8 L 435.7 177.9 L 434.5 172.9 L 433.3 168.1 L 431.8 163.3 L 429.4 158.0 L 425.1 151.6 L 419.8 144.8 L 416.4 139.6 L 413.7 135.0 L 411.1 130.8 L 407.5 126.0 L 399.6 119.2 L 392.8 113.4 L 384.9 107.2 L 376.7 101.4 L 369.8 96.5 L 362.0 91.6 L 354.0 86.9 L 346.5 82.8 L 338.7 78.8 L 331.5 75.5 L 324.3 72.4 L 317.0 69.5 L 312.3 67.7 L 307.5 66.1 L 306.4 65.7 L 305.3 65.3 L 304.3 65.0 L 303.3 64.7 L 302.4 64.5 L 301.9 64.3 L 301.9 64.3 L 301.9 64.3 L 301.8 64.2 L 301.8 64.2 L 301.7 64.1 L 301.6 64.1 L 301.5 64.1 L 301.5 64.1 L 301.4 64.0 L 301.3 64.0 L 298.5 64.0 L 298.5 64.0 L 298.5 64.1 L 298.5 64.1 L 298.4 64.1 L 298.4 64.1 L 298.4 64.2 L 298.4 64.2 L 298.4 64.2 L 298.4 64.2 L 298.5 64.3 L 298.5 64.3 L 298.5 64.3 L 298.5 64.3 L 298.5 64.4 L 298.6 64.4 L 298.6 64.4 L 298.6 64.4 L 298.5 64.5 L 298.1 64.6 L 297.5 64.9 L 296.9 65.2 L 296.1 65.6 L 295.4 65.9 L 294.7 66.4 L 293.9 66.8 L 293.1 67.3 L 292.5 67.8 L 291.9 68.3 L 286.3 71.6 L 279.7 75.7 L 276.7 78.0 L 270.6 82.4 L 264.6 87.0 L 262.6 89.2 L 255.5 95.1 L 253.0 98.1 L 245.8 104.8 L 244.1 107.7 L 236.6 115.3 L 235.4 118.2 L 228.9 125.8 L 225.7 130.9 L 224.1 134.8 L 217.0 144.2 L 216.2 147.8 L 214.2 152.9 L 207.8 162.9 L 206.8 167.5 L 206.5 171.6 L 201.4 181.5 L 199.7 187.9 L 200.0 192.0 L 199.0 198.0 L 194.6 209.0 L 194.5 214.7 L 195.5 219.0 L 195.8 224.4 L 192.6 235.8 L 192.9 242.2 L 194.7 246.4 L 196.4 250.9 L 196.0 259.6 L 194.9 270.2 L 196.8 275.6 L 199.5 279.5 L 202.4 283.2 L 205.5 286.6 L 208.5 290.4 L 211.7 294.0 L 214.9 297.7 L 218.4 301.1 L 221.8 304.6 L 225.4 307.9 L 229.2 311.0 L 233.1 313.8 L 237.0 316.5 L 241.1 319.3 L 245.2 321.7 L 249.5 323.9 L 253.8 325.8 L 258.2 327.7 L 262.8 329.0 L 267.3 330.3 L 271.9 331.4 L 276.5 332.7 L 281.2 333.3 L 285.8 334.1 L 290.6 334.4 L 295.3 335.3 L 300.0 335.2 Z" fill="none" stroke="#F32740" stroke-width="2.0" stroke-linejoin="round" stroke-linecap="round"/>
<text x="338" y="132" fill="#F32740" font-size="9.5" font-weight="700">100</text>
<text x="335" y="200" fill="#F32740" font-size="9.5" font-weight="700">200</text>
<text x="335" y="268" fill="#F32740" font-size="9.5" font-weight="700">300</text>
<text x="335" y="336" fill="#F32740" font-size="9.5" font-weight="700">400</text>
<rect x="274.0" y="58" width="52" height="11" rx="1.5" fill="#fafbfc" stroke="rgba(255,255,255,0.4)" stroke-width="0.5"/>
<line x1="272.0" y1="69.8" x2="328.0" y2="69.8" stroke="#F32740" stroke-width="0.7" stroke-dasharray="1.5 2"/>
<text x="300" y="66" text-anchor="middle" fill="#F32740" font-size="8" font-weight="700" letter-spacing="0.5">cd/klm SCALE</text>
<g transform="translate(22, 434)">
<text x="0" y="-8" fill="rgba(255,255,255,0.55)" font-size="8" letter-spacing="1.4">cd/klm</text>
<line x1="0" y1="6" x2="22" y2="6" stroke="#F32740" stroke-width="2.2"/>
<text x="28" y="9" fill="rgba(255,255,255,0.7)" font-size="9.5">C0 – C180</text>
<line x1="120" y1="6" x2="142" y2="6" stroke="#3FA9F5" stroke-width="1.7"/>
<text x="148" y="9" fill="rgba(255,255,255,0.7)" font-size="9.5">C90 – C270</text>
</g>
<text x="578" y="402" fill="rgba(255,255,255,0.45)" font-size="9" text-anchor="end">η = 137 lm/W</text>
<text x="578" y="418" fill="rgba(255,255,255,0.45)" font-size="9" text-anchor="end">19,284 lm · 140.8W</text>
<text x="578" y="434" fill="rgba(255,255,255,0.55)" font-size="8" letter-spacing="1.4" text-anchor="end">PEAK INTENSITY</text>
<text x="578" y="451" fill="#fff" font-weight="700" font-size="14" text-anchor="end">7,700 cd</text>
</svg>