<svg viewBox="0 0 600 460" xmlns="http://www.w3.org/2000/svg" font-family="JetBrains Mono, monospace" font-size="9.5">
<rect width="100%" height="100%" fill="#14171b"/>
<text x="22" y="26" fill="#F32740" font-weight="700" letter-spacing="2">LFLD3W150-3E1-UD-PS-120W-30K_IESNA2002 · 120W · 3000K · FLOOD</text>
<text x="22" y="42" fill="rgba(255,255,255,0.55)" font-size="8" letter-spacing="1.4">LUMINOUS INTENSITY DISTRIBUTION (cd/klm)</text>
<path d="M 232.0 64.0 A 68.0 68.0 0 0 0 368.0 64.0" fill="none" stroke="rgba(120,200,200,0.18)" stroke-width="0.7"/>
<path d="M 164.0 64.0 A 136.0 136.0 0 0 0 436.0 64.0" fill="none" stroke="rgba(120,200,200,0.18)" stroke-width="0.7"/>
<path d="M 96.0 64.0 A 204.0 204.0 0 0 0 504.0 64.0" fill="none" stroke="rgba(120,200,200,0.18)" stroke-width="0.7"/>
<path d="M 28.0 64.0 A 272.0 272.0 0 0 0 572.0 64.0" fill="none" stroke="rgba(120,200,200,0.18)" stroke-width="0.7"/>
<path d="M -40.0 64.0 A 340.0 340.0 0 0 0 640.0 64.0" fill="none" stroke="rgba(120,200,200,0.18)" stroke-width="0.7"/>
<line x1="300.0" y1="64" x2="388.0" y2="392.4" stroke="rgba(120,200,200,0.10)" stroke-width="0.5"/>
<line x1="300.0" y1="64" x2="212.0" y2="392.4" stroke="rgba(120,200,200,0.10)" stroke-width="0.5"/>
<line x1="300.0" y1="64" x2="470.0" y2="358.4" stroke="rgba(120,200,200,0.10)" stroke-width="0.5"/>
<line x1="300.0" y1="64" x2="130.0" y2="358.4" stroke="rgba(120,200,200,0.10)" stroke-width="0.5"/>
<line x1="300.0" y1="64" x2="540.4" y2="304.4" stroke="rgba(120,200,200,0.10)" stroke-width="0.5"/>
<line x1="300.0" y1="64" x2="59.6" y2="304.4" stroke="rgba(120,200,200,0.10)" stroke-width="0.5"/>
<line x1="300.0" y1="64" x2="594.4" y2="234.0" stroke="rgba(120,200,200,0.10)" stroke-width="0.5"/>
<line x1="300.0" y1="64" x2="5.6" y2="234.0" stroke="rgba(120,200,200,0.10)" stroke-width="0.5"/>
<line x1="300.0" y1="64" x2="628.4" y2="152.0" stroke="rgba(120,200,200,0.10)" stroke-width="0.5"/>
<line x1="300.0" y1="64" x2="-28.4" y2="152.0" stroke="rgba(120,200,200,0.10)" stroke-width="0.5"/>
<line x1="300.0" y1="64" x2="640.0" y2="64.0" stroke="rgba(120,200,200,0.10)" stroke-width="0.5"/>
<line x1="300.0" y1="64" x2="-40.0" y2="64.0" stroke="rgba(120,200,200,0.10)" stroke-width="0.5"/>
<line x1="300.0" y1="64" x2="300.0" y2="408" stroke="rgba(120,200,200,0.14)" stroke-width="0.5"/>
<line x1="-40.0" y1="64" x2="640.0" y2="64" stroke="rgba(120,200,200,0.14)" stroke-width="0.5"/>
<text x="391.6" y="408.9" text-anchor="middle" fill="rgba(255,255,255,0.4)" font-size="9">15°</text>
<text x="208.4" y="408.9" text-anchor="middle" fill="rgba(255,255,255,0.4)" font-size="9">15°</text>
<text x="477.0" y="373.6" text-anchor="middle" fill="rgba(255,255,255,0.6)" font-size="9">30°</text>
<text x="123.0" y="373.6" text-anchor="middle" fill="rgba(255,255,255,0.6)" font-size="9">30°</text>
<text x="550.3" y="317.3" text-anchor="middle" fill="rgba(255,255,255,0.4)" font-size="9">45°</text>
<text x="49.7" y="317.3" text-anchor="middle" fill="rgba(255,255,255,0.4)" font-size="9">45°</text>
<text x="606.6" y="244.0" text-anchor="middle" fill="rgba(255,255,255,0.6)" font-size="9">60°</text>
<text x="-6.6" y="244.0" text-anchor="middle" fill="rgba(255,255,255,0.6)" font-size="9">60°</text>
<text x="641.9" y="158.6" text-anchor="middle" fill="rgba(255,255,255,0.4)" font-size="9">75°</text>
<text x="-41.9" y="158.6" text-anchor="middle" fill="rgba(255,255,255,0.4)" font-size="9">75°</text>
<text x="654.0" y="67.0" text-anchor="middle" fill="rgba(255,255,255,0.6)" font-size="9">90°</text>
<text x="-54.0" y="67.0" text-anchor="middle" fill="rgba(255,255,255,0.6)" font-size="9">90°</text>
<text x="300" y="426" text-anchor="middle" fill="rgba(255,255,255,0.6)" font-size="9">0°</text>
<path d="M 300.0 281.4 L 303.8 281.4 L 307.6 281.1 L 311.4 280.6 L 315.1 280.3 L 318.9 279.6 L 322.6 278.8 L 326.3 278.1 L 329.9 277.0 L 333.6 275.9 L 337.2 274.7 L 340.7 273.2 L 344.1 271.7 L 347.6 270.2 L 351.0 268.4 L 354.2 266.3 L 357.5 264.7 L 360.7 262.5 L 363.8 260.3 L 366.8 257.9 L 369.7 255.5 L 372.5 253.0 L 375.3 250.4 L 377.9 247.5 L 380.4 244.7 L 383.0 241.9 L 385.3 238.9 L 387.5 235.7 L 389.6 232.6 L 391.7 229.4 L 393.5 226.0 L 395.2 222.5 L 396.8 219.0 L 398.4 215.5 L 399.8 211.9 L 401.0 208.2 L 402.1 204.5 L 403.1 200.8 L 403.9 197.0 L 404.4 192.9 L 404.9 189.1 L 405.4 185.2 L 405.5 181.2 L 405.5 177.2 L 405.5 173.2 L 405.1 169.1 L 404.7 165.1 L 403.9 160.9 L 403.1 156.8 L 401.9 152.6 L 400.3 148.2 L 398.3 143.6 L 395.8 138.8 L 393.0 134.1 L 390.1 129.4 L 386.9 124.9 L 383.8 120.5 L 380.3 116.1 L 376.7 112.0 L 373.0 107.9 L 369.3 104.0 L 365.1 100.1 L 361.1 96.5 L 356.9 93.0 L 352.7 89.7 L 348.3 86.5 L 343.9 83.5 L 339.6 80.8 L 335.3 78.3 L 330.9 75.9 L 326.6 73.7 L 322.5 71.7 L 318.7 70.1 L 315.0 68.6 L 311.6 67.3 L 308.4 66.2 L 305.5 65.4 L 303.9 64.9 L 302.3 64.5 L 301.9 64.4 L 301.5 64.3 L 301.3 64.2 L 301.2 64.2 L 301.2 64.1 L 301.2 64.1 L 301.2 64.1 L 301.2 64.1 L 301.2 64.1 L 301.2 64.0 L 301.2 64.0 L 301.2 64.0 L 298.8 64.0 L 298.7 64.0 L 298.7 64.0 L 298.7 64.1 L 298.7 64.1 L 298.6 64.1 L 298.5 64.2 L 298.5 64.2 L 298.2 64.2 L 297.9 64.3 L 297.6 64.4 L 297.1 64.6 L 295.1 65.1 L 292.1 65.8 L 289.1 66.7 L 286.1 67.7 L 282.6 69.0 L 278.8 70.5 L 274.8 72.2 L 270.6 74.1 L 266.4 76.2 L 262.0 78.6 L 257.6 81.1 L 253.3 83.8 L 249.0 86.7 L 244.7 89.8 L 240.4 93.1 L 236.0 96.6 L 232.0 100.1 L 228.0 103.9 L 224.0 107.9 L 220.3 111.9 L 216.8 116.0 L 213.3 120.3 L 210.1 124.7 L 206.8 129.3 L 203.9 133.8 L 201.2 138.4 L 199.1 142.8 L 197.4 147.1 L 196.2 151.1 L 195.3 155.0 L 194.3 159.2 L 193.6 163.2 L 193.2 167.1 L 192.8 171.2 L 192.6 175.2 L 192.6 179.2 L 192.7 183.1 L 193.0 187.1 L 193.5 191.0 L 194.0 194.9 L 194.8 198.7 L 195.7 202.4 L 196.6 206.3 L 197.8 210.0 L 199.2 213.5 L 200.6 217.1 L 202.0 220.8 L 203.8 224.0 L 205.7 227.4 L 207.6 230.7 L 209.6 234.0 L 211.8 237.2 L 214.0 240.2 L 216.5 243.1 L 219.0 245.9 L 221.5 248.9 L 224.3 251.3 L 227.1 254.0 L 229.9 256.6 L 232.9 259.0 L 236.0 261.1 L 239.1 263.3 L 242.3 265.2 L 245.5 267.4 L 248.9 269.1 L 252.3 270.6 L 255.7 272.2 L 259.2 273.9 L 262.8 275.0 L 266.4 276.3 L 270.0 277.5 L 273.7 278.5 L 277.4 279.1 L 281.1 279.8 L 284.9 280.4 L 288.6 280.9 L 292.4 281.2 L 296.2 281.2 L 300.0 281.4 Z" fill="none" stroke="#3FA9F5" stroke-width="1.7" stroke-linejoin="round" stroke-linecap="round"/>
<path d="M 300.0 281.4 L 303.8 281.7 L 307.6 281.6 L 311.4 281.4 L 315.2 280.7 L 319.0 280.6 L 322.7 280.0 L 326.4 279.3 L 330.1 278.3 L 333.8 277.5 L 337.4 276.4 L 341.0 275.2 L 344.6 273.9 L 348.1 272.4 L 351.6 270.8 L 354.9 269.1 L 358.2 267.1 L 361.6 265.4 L 364.8 263.5 L 367.9 261.2 L 371.0 259.0 L 374.0 256.9 L 376.8 254.2 L 379.7 251.7 L 382.3 248.9 L 385.0 246.3 L 387.5 243.3 L 389.9 240.5 L 392.1 237.2 L 394.4 234.2 L 396.4 230.9 L 398.3 227.6 L 400.1 224.1 L 401.9 220.9 L 403.3 217.2 L 404.8 213.6 L 406.0 209.8 L 407.2 206.2 L 408.1 202.3 L 408.8 198.4 L 409.3 194.3 L 409.9 190.4 L 410.3 186.4 L 410.3 182.2 L 410.1 178.0 L 410.1 174.1 L 409.7 169.9 L 409.1 165.7 L 408.6 161.8 L 408.0 157.9 L 407.2 153.9 L 406.2 150.0 L 405.1 146.1 L 403.9 142.3 L 401.6 137.8 L 396.0 131.2 L 389.0 124.0 L 386.1 119.9 L 383.1 115.9 L 381.2 112.8 L 379.0 109.6 L 376.5 106.4 L 371.0 101.7 L 361.4 95.3 L 358.7 92.6 L 352.5 88.5 L 344.8 84.0 L 341.2 81.5 L 332.4 77.1 L 329.2 75.2 L 321.5 71.8 L 317.3 70.0 L 313.4 68.4 L 309.4 66.9 L 305.5 65.6 L 304.8 65.3 L 304.0 65.0 L 303.3 64.8 L 302.5 64.5 L 301.9 64.4 L 301.5 64.3 L 301.5 64.2 L 301.5 64.2 L 301.4 64.2 L 301.4 64.1 L 301.4 64.1 L 301.3 64.1 L 301.2 64.1 L 301.2 64.0 L 301.1 64.0 L 301.1 64.0 L 298.8 64.0 L 298.8 64.0 L 298.8 64.0 L 298.8 64.1 L 298.8 64.1 L 298.7 64.1 L 298.8 64.1 L 298.8 64.2 L 298.8 64.2 L 298.8 64.2 L 298.8 64.2 L 298.8 64.2 L 298.8 64.3 L 298.8 64.3 L 298.9 64.3 L 298.9 64.3 L 298.9 64.3 L 298.9 64.3 L 298.8 64.4 L 298.5 64.5 L 298.0 64.7 L 297.5 65.0 L 296.9 65.2 L 296.2 65.6 L 295.6 66.0 L 295.0 66.4 L 294.3 66.8 L 293.6 67.3 L 293.0 67.7 L 284.3 72.7 L 283.4 73.6 L 280.0 76.0 L 272.3 81.3 L 267.7 85.0 L 263.2 88.8 L 258.8 92.8 L 257.8 94.7 L 256.7 96.6 L 255.0 99.1 L 243.5 109.8 L 242.4 112.4 L 241.5 114.9 L 240.7 117.4 L 238.8 121.0 L 227.8 133.7 L 226.6 137.4 L 226.2 140.4 L 225.8 143.6 L 225.7 146.6 L 225.1 150.2 L 217.3 162.6 L 213.3 171.0 L 213.7 174.5 L 214.1 177.9 L 214.9 181.2 L 215.6 184.6 L 216.4 187.9 L 216.2 193.1 L 209.9 208.2 L 208.2 216.8 L 209.8 220.2 L 211.5 223.7 L 213.3 227.0 L 215.2 230.4 L 217.3 233.6 L 219.5 236.7 L 221.9 239.4 L 224.2 242.5 L 226.6 245.6 L 229.3 248.2 L 231.9 251.0 L 234.6 254.0 L 237.4 256.6 L 240.4 259.0 L 243.3 261.7 L 246.4 263.9 L 249.5 266.3 L 252.8 268.4 L 256.2 270.3 L 259.5 272.2 L 263.0 273.9 L 266.5 275.2 L 270.1 276.5 L 273.8 277.7 L 277.4 278.6 L 281.2 279.2 L 284.9 280.0 L 288.6 280.8 L 292.4 281.0 L 296.2 281.4 L 300.0 281.4 Z" fill="none" stroke="#F32740" stroke-width="2.0" stroke-linejoin="round" stroke-linecap="round"/>
<text x="338" y="132" fill="#F32740" font-size="9.5" font-weight="700">125</text>
<text x="335" y="200" fill="#F32740" font-size="9.5" font-weight="700">250</text>
<text x="335" y="268" fill="#F32740" font-size="9.5" font-weight="700">375</text>
<text x="335" y="336" fill="#F32740" font-size="9.5" font-weight="700">500</text>
<rect x="274.0" y="58" width="52" height="11" rx="1.5" fill="#fafbfc" stroke="rgba(255,255,255,0.4)" stroke-width="0.5"/>
<line x1="272.0" y1="69.8" x2="328.0" y2="69.8" stroke="#F32740" stroke-width="0.7" stroke-dasharray="1.5 2"/>
<text x="300" y="66" text-anchor="middle" fill="#F32740" font-size="8" font-weight="700" letter-spacing="0.5">cd/klm SCALE</text>
<g transform="translate(22, 434)">
<text x="0" y="-8" fill="rgba(255,255,255,0.55)" font-size="8" letter-spacing="1.4">cd/klm</text>
<line x1="0" y1="6" x2="22" y2="6" stroke="#F32740" stroke-width="2.2"/>
<text x="28" y="9" fill="rgba(255,255,255,0.7)" font-size="9.5">C0 – C180</text>
<line x1="120" y1="6" x2="142" y2="6" stroke="#3FA9F5" stroke-width="1.7"/>
<text x="148" y="9" fill="rgba(255,255,255,0.7)" font-size="9.5">C90 – C270</text>
</g>
<text x="578" y="402" fill="rgba(255,255,255,0.45)" font-size="9" text-anchor="end">η = 125 lm/W</text>
<text x="578" y="418" fill="rgba(255,255,255,0.45)" font-size="9" text-anchor="end">14,662 lm · 117.7W</text>
<text x="578" y="434" fill="rgba(255,255,255,0.55)" font-size="8" letter-spacing="1.4" text-anchor="end">PEAK INTENSITY</text>
<text x="578" y="451" fill="#fff" font-weight="700" font-size="14" text-anchor="end">5,869 cd</text>
</svg>