<svg viewBox="0 0 600 460" xmlns="http://www.w3.org/2000/svg" font-family="JetBrains Mono, monospace" font-size="9.5">
<rect width="100%" height="100%" fill="#14171b"/>
<text x="22" y="26" fill="#F32740" font-weight="700" letter-spacing="2">LFLD3W80-3E1-UDPS-40K_IESNA2002 · 0W · 4000K · FLOOD</text>
<text x="22" y="42" fill="rgba(255,255,255,0.55)" font-size="8" letter-spacing="1.4">LUMINOUS INTENSITY DISTRIBUTION (cd/klm)</text>
<path d="M 232.0 64.0 A 68.0 68.0 0 0 0 368.0 64.0" fill="none" stroke="rgba(120,200,200,0.18)" stroke-width="0.7"/>
<path d="M 164.0 64.0 A 136.0 136.0 0 0 0 436.0 64.0" fill="none" stroke="rgba(120,200,200,0.18)" stroke-width="0.7"/>
<path d="M 96.0 64.0 A 204.0 204.0 0 0 0 504.0 64.0" fill="none" stroke="rgba(120,200,200,0.18)" stroke-width="0.7"/>
<path d="M 28.0 64.0 A 272.0 272.0 0 0 0 572.0 64.0" fill="none" stroke="rgba(120,200,200,0.18)" stroke-width="0.7"/>
<path d="M -40.0 64.0 A 340.0 340.0 0 0 0 640.0 64.0" fill="none" stroke="rgba(120,200,200,0.18)" stroke-width="0.7"/>
<line x1="300.0" y1="64" x2="388.0" y2="392.4" stroke="rgba(120,200,200,0.10)" stroke-width="0.5"/>
<line x1="300.0" y1="64" x2="212.0" y2="392.4" stroke="rgba(120,200,200,0.10)" stroke-width="0.5"/>
<line x1="300.0" y1="64" x2="470.0" y2="358.4" stroke="rgba(120,200,200,0.10)" stroke-width="0.5"/>
<line x1="300.0" y1="64" x2="130.0" y2="358.4" stroke="rgba(120,200,200,0.10)" stroke-width="0.5"/>
<line x1="300.0" y1="64" x2="540.4" y2="304.4" stroke="rgba(120,200,200,0.10)" stroke-width="0.5"/>
<line x1="300.0" y1="64" x2="59.6" y2="304.4" stroke="rgba(120,200,200,0.10)" stroke-width="0.5"/>
<line x1="300.0" y1="64" x2="594.4" y2="234.0" stroke="rgba(120,200,200,0.10)" stroke-width="0.5"/>
<line x1="300.0" y1="64" x2="5.6" y2="234.0" stroke="rgba(120,200,200,0.10)" stroke-width="0.5"/>
<line x1="300.0" y1="64" x2="628.4" y2="152.0" stroke="rgba(120,200,200,0.10)" stroke-width="0.5"/>
<line x1="300.0" y1="64" x2="-28.4" y2="152.0" stroke="rgba(120,200,200,0.10)" stroke-width="0.5"/>
<line x1="300.0" y1="64" x2="640.0" y2="64.0" stroke="rgba(120,200,200,0.10)" stroke-width="0.5"/>
<line x1="300.0" y1="64" x2="-40.0" y2="64.0" stroke="rgba(120,200,200,0.10)" stroke-width="0.5"/>
<line x1="300.0" y1="64" x2="300.0" y2="408" stroke="rgba(120,200,200,0.14)" stroke-width="0.5"/>
<line x1="-40.0" y1="64" x2="640.0" y2="64" stroke="rgba(120,200,200,0.14)" stroke-width="0.5"/>
<text x="391.6" y="408.9" text-anchor="middle" fill="rgba(255,255,255,0.4)" font-size="9">15°</text>
<text x="208.4" y="408.9" text-anchor="middle" fill="rgba(255,255,255,0.4)" font-size="9">15°</text>
<text x="477.0" y="373.6" text-anchor="middle" fill="rgba(255,255,255,0.6)" font-size="9">30°</text>
<text x="123.0" y="373.6" text-anchor="middle" fill="rgba(255,255,255,0.6)" font-size="9">30°</text>
<text x="550.3" y="317.3" text-anchor="middle" fill="rgba(255,255,255,0.4)" font-size="9">45°</text>
<text x="49.7" y="317.3" text-anchor="middle" fill="rgba(255,255,255,0.4)" font-size="9">45°</text>
<text x="606.6" y="244.0" text-anchor="middle" fill="rgba(255,255,255,0.6)" font-size="9">60°</text>
<text x="-6.6" y="244.0" text-anchor="middle" fill="rgba(255,255,255,0.6)" font-size="9">60°</text>
<text x="641.9" y="158.6" text-anchor="middle" fill="rgba(255,255,255,0.4)" font-size="9">75°</text>
<text x="-41.9" y="158.6" text-anchor="middle" fill="rgba(255,255,255,0.4)" font-size="9">75°</text>
<text x="654.0" y="67.0" text-anchor="middle" fill="rgba(255,255,255,0.6)" font-size="9">90°</text>
<text x="-54.0" y="67.0" text-anchor="middle" fill="rgba(255,255,255,0.6)" font-size="9">90°</text>
<text x="300" y="426" text-anchor="middle" fill="rgba(255,255,255,0.6)" font-size="9">0°</text>
<path d="M 300.0 284.3 L 303.8 284.5 L 307.7 284.2 L 311.5 284.1 L 315.4 283.8 L 319.2 283.2 L 323.0 282.6 L 326.7 281.7 L 330.5 280.9 L 334.2 279.9 L 337.9 278.7 L 341.5 277.3 L 345.1 276.0 L 348.6 274.4 L 352.1 272.8 L 355.5 271.0 L 358.8 269.2 L 362.1 267.1 L 365.3 265.0 L 368.4 262.6 L 371.5 260.3 L 374.4 257.9 L 377.3 255.4 L 380.1 252.7 L 382.8 250.0 L 385.4 247.1 L 387.8 244.1 L 390.2 241.0 L 392.5 238.0 L 394.6 234.7 L 396.6 231.4 L 398.5 227.9 L 400.3 224.5 L 402.0 221.0 L 403.4 217.3 L 404.8 213.6 L 406.0 209.9 L 407.1 206.1 L 408.0 202.2 L 408.7 198.3 L 409.3 194.3 L 409.8 190.3 L 410.1 186.3 L 410.3 182.3 L 410.1 178.1 L 410.0 174.0 L 409.6 169.8 L 408.9 165.6 L 408.3 161.5 L 407.4 157.4 L 406.4 153.3 L 405.2 149.2 L 403.8 145.1 L 402.3 141.1 L 400.8 137.2 L 398.9 133.2 L 396.9 129.4 L 394.7 125.5 L 392.2 121.6 L 388.9 117.4 L 385.6 113.4 L 382.8 109.9 L 379.5 106.3 L 375.5 102.5 L 371.0 98.6 L 365.8 94.7 L 360.9 91.1 L 355.6 87.6 L 350.4 84.4 L 345.1 81.3 L 340.0 78.5 L 334.8 76.0 L 329.9 73.7 L 324.9 71.6 L 320.3 69.8 L 316.3 68.4 L 312.2 67.0 L 308.1 65.9 L 304.8 65.0 L 303.2 64.6 L 302.5 64.4 L 301.9 64.3 L 301.5 64.2 L 301.4 64.2 L 301.4 64.1 L 301.3 64.1 L 301.3 64.1 L 301.3 64.1 L 301.3 64.0 L 301.3 64.0 L 301.3 64.0 L 298.8 64.0 L 298.8 64.0 L 298.8 64.0 L 298.8 64.1 L 298.8 64.1 L 298.8 64.1 L 298.7 64.1 L 298.7 64.2 L 298.6 64.2 L 298.4 64.3 L 297.9 64.4 L 297.3 64.5 L 295.4 65.0 L 293.5 65.5 L 291.5 66.1 L 288.3 67.1 L 284.6 68.4 L 280.6 69.9 L 276.4 71.7 L 272.0 73.6 L 267.4 75.9 L 262.6 78.4 L 257.7 81.1 L 252.8 84.0 L 248.0 87.2 L 243.2 90.5 L 238.7 93.9 L 234.9 97.2 L 230.9 100.7 L 227.6 104.2 L 224.5 107.6 L 221.0 111.5 L 218.0 115.3 L 215.5 118.9 L 212.7 122.9 L 209.8 127.2 L 207.2 131.4 L 205.4 135.2 L 203.8 139.2 L 202.2 143.2 L 200.9 147.2 L 199.6 151.2 L 198.6 155.3 L 197.7 159.4 L 197.0 163.5 L 196.3 167.7 L 195.9 171.8 L 195.6 175.9 L 195.5 180.1 L 195.5 184.2 L 195.7 188.3 L 196.2 192.2 L 196.6 196.3 L 197.4 200.2 L 198.1 204.2 L 199.2 208.0 L 200.3 211.8 L 201.6 215.5 L 203.0 219.3 L 204.6 222.8 L 206.3 226.4 L 208.1 229.8 L 210.0 233.2 L 212.1 236.5 L 214.3 239.7 L 216.7 242.7 L 219.1 245.7 L 221.6 248.6 L 224.2 251.5 L 227.0 254.2 L 229.8 256.8 L 232.7 259.3 L 235.7 261.7 L 238.9 264.0 L 242.0 266.1 L 245.2 268.3 L 248.6 270.2 L 252.0 271.9 L 255.4 273.7 L 258.9 275.3 L 262.5 276.7 L 266.1 278.1 L 269.7 279.3 L 273.4 280.5 L 277.2 281.3 L 280.9 282.2 L 284.7 282.9 L 288.5 283.6 L 292.3 283.9 L 296.2 284.2 L 300.0 284.3 Z" fill="none" stroke="#3FA9F5" stroke-width="1.7" stroke-linejoin="round" stroke-linecap="round"/>
<path d="M 300.0 284.3 L 303.8 284.2 L 307.7 283.9 L 311.5 283.7 L 315.3 283.2 L 319.1 282.5 L 322.9 281.7 L 326.6 280.9 L 330.4 280.0 L 334.0 278.9 L 337.7 277.6 L 341.3 276.3 L 344.8 274.8 L 348.3 273.0 L 351.7 271.3 L 355.1 269.5 L 358.3 267.3 L 361.4 265.0 L 364.5 262.4 L 367.4 259.8 L 370.1 256.7 L 372.8 253.7 L 375.4 250.5 L 377.8 247.4 L 380.1 243.9 L 382.3 240.5 L 384.3 236.9 L 386.5 233.7 L 388.4 230.3 L 390.3 227.0 L 391.4 222.3 L 389.4 212.9 L 388.3 205.2 L 389.1 201.2 L 389.5 196.7 L 386.4 187.4 L 385.0 180.9 L 385.5 177.5 L 383.7 171.1 L 379.6 162.4 L 378.7 157.8 L 377.7 153.4 L 372.9 144.9 L 371.3 140.5 L 369.4 135.9 L 364.0 128.0 L 362.2 124.1 L 358.8 118.8 L 354.0 112.6 L 352.1 109.3 L 346.4 103.0 L 342.4 98.3 L 338.3 93.9 L 335.7 90.9 L 329.9 85.7 L 327.1 83.0 L 321.6 78.6 L 318.2 75.8 L 313.8 72.7 L 308.8 69.3 L 308.0 68.6 L 307.5 68.2 L 306.9 67.7 L 306.2 67.2 L 305.6 66.7 L 305.0 66.3 L 304.4 65.9 L 303.8 65.6 L 303.2 65.3 L 302.7 65.0 L 302.2 64.8 L 301.8 64.6 L 301.7 64.6 L 301.7 64.5 L 301.7 64.5 L 301.7 64.4 L 301.7 64.4 L 301.7 64.4 L 301.7 64.4 L 301.7 64.3 L 301.6 64.3 L 301.6 64.3 L 301.5 64.2 L 301.4 64.2 L 301.3 64.1 L 301.2 64.1 L 301.2 64.1 L 301.2 64.1 L 301.2 64.0 L 301.2 64.0 L 301.2 64.0 L 299.0 64.0 L 298.9 64.0 L 298.8 64.0 L 298.8 64.1 L 298.7 64.1 L 298.6 64.1 L 298.6 64.2 L 298.5 64.2 L 298.5 64.2 L 298.5 64.2 L 298.5 64.3 L 298.5 64.3 L 298.0 64.4 L 297.2 64.6 L 296.3 64.9 L 295.3 65.3 L 294.1 65.7 L 292.9 66.2 L 291.6 66.7 L 287.1 68.5 L 282.6 70.3 L 278.2 72.4 L 272.6 75.1 L 266.8 78.1 L 260.9 81.4 L 254.8 85.1 L 248.8 88.9 L 243.1 93.0 L 237.2 97.4 L 231.9 101.7 L 226.7 106.3 L 221.2 111.4 L 217.0 115.8 L 214.3 119.7 L 211.3 123.8 L 207.8 128.5 L 203.6 134.0 L 199.9 139.4 L 198.1 143.6 L 196.8 147.6 L 195.6 151.6 L 194.6 155.6 L 193.9 159.5 L 193.3 163.5 L 192.7 167.6 L 192.3 171.7 L 192.1 175.8 L 191.9 179.9 L 191.9 184.0 L 192.1 188.1 L 192.5 192.1 L 193.0 196.2 L 193.6 200.2 L 194.4 204.2 L 195.3 208.1 L 196.5 211.9 L 197.6 215.8 L 199.1 219.3 L 200.6 223.1 L 202.3 226.6 L 204.1 230.1 L 206.1 233.4 L 208.1 236.7 L 210.4 239.9 L 212.6 243.1 L 215.1 246.0 L 217.6 249.0 L 220.3 251.8 L 223.0 254.6 L 225.9 257.2 L 228.8 259.7 L 231.8 262.0 L 234.9 264.4 L 238.1 266.5 L 241.3 268.6 L 244.7 270.4 L 248.1 272.2 L 251.5 273.9 L 255.1 275.4 L 258.6 276.8 L 262.2 278.1 L 265.9 279.3 L 269.6 280.5 L 273.3 281.4 L 277.1 282.1 L 280.9 282.8 L 284.7 283.4 L 288.5 283.7 L 292.3 284.1 L 296.2 284.2 L 300.0 284.3 Z" fill="none" stroke="#F32740" stroke-width="2.0" stroke-linejoin="round" stroke-linecap="round"/>
<text x="338" y="132" fill="#F32740" font-size="9.5" font-weight="700">125</text>
<text x="335" y="200" fill="#F32740" font-size="9.5" font-weight="700">250</text>
<text x="335" y="268" fill="#F32740" font-size="9.5" font-weight="700">375</text>
<text x="335" y="336" fill="#F32740" font-size="9.5" font-weight="700">500</text>
<rect x="274.0" y="58" width="52" height="11" rx="1.5" fill="#fafbfc" stroke="rgba(255,255,255,0.4)" stroke-width="0.5"/>
<line x1="272.0" y1="69.8" x2="328.0" y2="69.8" stroke="#F32740" stroke-width="0.7" stroke-dasharray="1.5 2"/>
<text x="300" y="66" text-anchor="middle" fill="#F32740" font-size="8" font-weight="700" letter-spacing="0.5">cd/klm SCALE</text>
<g transform="translate(22, 434)">
<text x="0" y="-8" fill="rgba(255,255,255,0.55)" font-size="8" letter-spacing="1.4">cd/klm</text>
<line x1="0" y1="6" x2="22" y2="6" stroke="#F32740" stroke-width="2.2"/>
<text x="28" y="9" fill="rgba(255,255,255,0.7)" font-size="9.5">C0 – C180</text>
<line x1="120" y1="6" x2="142" y2="6" stroke="#3FA9F5" stroke-width="1.7"/>
<text x="148" y="9" fill="rgba(255,255,255,0.7)" font-size="9.5">C90 – C270</text>
</g>
<text x="578" y="402" fill="rgba(255,255,255,0.45)" font-size="9" text-anchor="end">η = 137 lm/W</text>
<text x="578" y="418" fill="rgba(255,255,255,0.45)" font-size="9" text-anchor="end">10,142 lm · 74.1W</text>
<text x="578" y="434" fill="rgba(255,255,255,0.55)" font-size="8" letter-spacing="1.4" text-anchor="end">PEAK INTENSITY</text>
<text x="578" y="451" fill="#fff" font-weight="700" font-size="14" text-anchor="end">4,111 cd</text>
</svg>