<svg viewBox="0 0 600 460" xmlns="http://www.w3.org/2000/svg" font-family="JetBrains Mono, monospace" font-size="9.5">
<rect width="100%" height="100%" fill="#14171b"/>
<text x="22" y="26" fill="#F32740" font-weight="700" letter-spacing="2">LFLD3W80-3E1-UD-PS-60W-40K_IESNA2002 · 60W · 4000K · FLOOD</text>
<text x="22" y="42" fill="rgba(255,255,255,0.55)" font-size="8" letter-spacing="1.4">LUMINOUS INTENSITY DISTRIBUTION (cd/klm)</text>
<path d="M 232.0 64.0 A 68.0 68.0 0 0 0 368.0 64.0" fill="none" stroke="rgba(120,200,200,0.18)" stroke-width="0.7"/>
<path d="M 164.0 64.0 A 136.0 136.0 0 0 0 436.0 64.0" fill="none" stroke="rgba(120,200,200,0.18)" stroke-width="0.7"/>
<path d="M 96.0 64.0 A 204.0 204.0 0 0 0 504.0 64.0" fill="none" stroke="rgba(120,200,200,0.18)" stroke-width="0.7"/>
<path d="M 28.0 64.0 A 272.0 272.0 0 0 0 572.0 64.0" fill="none" stroke="rgba(120,200,200,0.18)" stroke-width="0.7"/>
<path d="M -40.0 64.0 A 340.0 340.0 0 0 0 640.0 64.0" fill="none" stroke="rgba(120,200,200,0.18)" stroke-width="0.7"/>
<line x1="300.0" y1="64" x2="388.0" y2="392.4" stroke="rgba(120,200,200,0.10)" stroke-width="0.5"/>
<line x1="300.0" y1="64" x2="212.0" y2="392.4" stroke="rgba(120,200,200,0.10)" stroke-width="0.5"/>
<line x1="300.0" y1="64" x2="470.0" y2="358.4" stroke="rgba(120,200,200,0.10)" stroke-width="0.5"/>
<line x1="300.0" y1="64" x2="130.0" y2="358.4" stroke="rgba(120,200,200,0.10)" stroke-width="0.5"/>
<line x1="300.0" y1="64" x2="540.4" y2="304.4" stroke="rgba(120,200,200,0.10)" stroke-width="0.5"/>
<line x1="300.0" y1="64" x2="59.6" y2="304.4" stroke="rgba(120,200,200,0.10)" stroke-width="0.5"/>
<line x1="300.0" y1="64" x2="594.4" y2="234.0" stroke="rgba(120,200,200,0.10)" stroke-width="0.5"/>
<line x1="300.0" y1="64" x2="5.6" y2="234.0" stroke="rgba(120,200,200,0.10)" stroke-width="0.5"/>
<line x1="300.0" y1="64" x2="628.4" y2="152.0" stroke="rgba(120,200,200,0.10)" stroke-width="0.5"/>
<line x1="300.0" y1="64" x2="-28.4" y2="152.0" stroke="rgba(120,200,200,0.10)" stroke-width="0.5"/>
<line x1="300.0" y1="64" x2="640.0" y2="64.0" stroke="rgba(120,200,200,0.10)" stroke-width="0.5"/>
<line x1="300.0" y1="64" x2="-40.0" y2="64.0" stroke="rgba(120,200,200,0.10)" stroke-width="0.5"/>
<line x1="300.0" y1="64" x2="300.0" y2="408" stroke="rgba(120,200,200,0.14)" stroke-width="0.5"/>
<line x1="-40.0" y1="64" x2="640.0" y2="64" stroke="rgba(120,200,200,0.14)" stroke-width="0.5"/>
<text x="391.6" y="408.9" text-anchor="middle" fill="rgba(255,255,255,0.4)" font-size="9">15°</text>
<text x="208.4" y="408.9" text-anchor="middle" fill="rgba(255,255,255,0.4)" font-size="9">15°</text>
<text x="477.0" y="373.6" text-anchor="middle" fill="rgba(255,255,255,0.6)" font-size="9">30°</text>
<text x="123.0" y="373.6" text-anchor="middle" fill="rgba(255,255,255,0.6)" font-size="9">30°</text>
<text x="550.3" y="317.3" text-anchor="middle" fill="rgba(255,255,255,0.4)" font-size="9">45°</text>
<text x="49.7" y="317.3" text-anchor="middle" fill="rgba(255,255,255,0.4)" font-size="9">45°</text>
<text x="606.6" y="244.0" text-anchor="middle" fill="rgba(255,255,255,0.6)" font-size="9">60°</text>
<text x="-6.6" y="244.0" text-anchor="middle" fill="rgba(255,255,255,0.6)" font-size="9">60°</text>
<text x="641.9" y="158.6" text-anchor="middle" fill="rgba(255,255,255,0.4)" font-size="9">75°</text>
<text x="-41.9" y="158.6" text-anchor="middle" fill="rgba(255,255,255,0.4)" font-size="9">75°</text>
<text x="654.0" y="67.0" text-anchor="middle" fill="rgba(255,255,255,0.6)" font-size="9">90°</text>
<text x="-54.0" y="67.0" text-anchor="middle" fill="rgba(255,255,255,0.6)" font-size="9">90°</text>
<text x="300" y="426" text-anchor="middle" fill="rgba(255,255,255,0.6)" font-size="9">0°</text>
<path d="M 300.0 291.0 L 304.0 291.1 L 307.9 291.0 L 311.9 290.7 L 315.8 290.1 L 319.8 289.8 L 323.7 289.2 L 327.5 288.3 L 331.4 287.3 L 335.2 286.2 L 339.0 285.0 L 342.7 283.6 L 346.4 282.2 L 350.0 280.6 L 353.6 279.1 L 357.1 277.2 L 360.6 275.2 L 363.9 273.1 L 367.2 270.9 L 370.4 268.6 L 373.6 266.1 L 376.6 263.6 L 379.6 261.1 L 382.5 258.4 L 385.4 255.8 L 388.0 252.8 L 390.6 249.8 L 393.0 246.4 L 395.4 243.3 L 397.4 239.8 L 399.6 236.5 L 401.6 233.0 L 403.3 229.4 L 405.0 225.8 L 406.6 222.0 L 407.9 218.1 L 409.2 214.3 L 410.4 210.5 L 411.3 206.4 L 412.1 202.5 L 412.8 198.4 L 413.3 194.3 L 413.6 190.2 L 413.8 186.0 L 413.8 181.8 L 413.5 177.5 L 413.2 173.3 L 412.6 169.0 L 412.0 164.9 L 411.1 160.6 L 410.0 156.3 L 408.9 152.2 L 407.5 148.0 L 406.0 143.9 L 404.2 139.7 L 402.4 135.7 L 400.4 131.8 L 398.0 127.7 L 395.0 123.3 L 391.7 119.1 L 388.7 115.2 L 385.8 111.6 L 381.9 107.6 L 378.2 103.9 L 375.0 100.6 L 370.3 96.8 L 365.5 93.2 L 360.2 89.6 L 354.7 86.1 L 349.0 82.8 L 343.4 79.8 L 337.9 77.1 L 332.7 74.6 L 327.5 72.4 L 322.9 70.6 L 318.2 68.9 L 313.5 67.4 L 309.6 66.2 L 306.0 65.3 L 303.4 64.7 L 302.6 64.5 L 302.0 64.3 L 301.5 64.2 L 301.3 64.2 L 301.3 64.1 L 301.4 64.1 L 301.3 64.1 L 301.3 64.1 L 301.3 64.0 L 301.3 64.0 L 301.3 64.0 L 298.8 64.0 L 298.8 64.0 L 298.8 64.0 L 298.8 64.1 L 298.8 64.1 L 298.8 64.1 L 298.8 64.1 L 298.8 64.1 L 298.8 64.2 L 298.7 64.2 L 298.3 64.3 L 297.9 64.4 L 297.2 64.6 L 296.4 64.8 L 293.2 65.7 L 290.0 66.7 L 286.1 68.0 L 281.9 69.5 L 277.7 71.3 L 272.8 73.4 L 268.1 75.6 L 263.0 78.2 L 257.8 81.1 L 252.8 84.0 L 247.3 87.5 L 242.2 90.9 L 236.6 94.9 L 231.6 98.9 L 226.9 102.9 L 222.3 107.1 L 217.8 111.5 L 214.4 115.4 L 211.8 119.1 L 208.9 123.2 L 205.7 127.6 L 202.9 132.0 L 200.8 136.1 L 199.2 140.0 L 197.4 144.2 L 196.0 148.2 L 194.7 152.4 L 193.6 156.5 L 192.5 160.8 L 191.7 165.0 L 191.1 169.2 L 190.7 173.3 L 190.3 177.6 L 190.1 181.8 L 190.1 186.1 L 190.3 190.1 L 190.6 194.3 L 191.1 198.4 L 191.8 202.5 L 192.6 206.6 L 193.6 210.5 L 194.6 214.5 L 195.8 218.4 L 197.2 222.2 L 198.8 225.9 L 200.5 229.6 L 202.3 233.2 L 204.3 236.6 L 206.4 240.0 L 208.7 243.3 L 210.9 246.7 L 213.4 249.7 L 216.0 252.7 L 218.7 255.6 L 221.4 258.5 L 224.3 261.1 L 227.3 263.9 L 230.3 266.4 L 233.4 268.8 L 236.7 271.0 L 240.0 273.2 L 243.4 275.3 L 246.8 277.3 L 250.3 279.2 L 253.9 280.8 L 257.6 282.3 L 261.2 283.8 L 265.0 285.0 L 268.8 286.2 L 272.6 287.4 L 276.4 288.3 L 280.3 289.1 L 284.2 289.8 L 288.1 290.2 L 292.1 290.7 L 296.0 291.0 L 300.0 291.0 Z" fill="none" stroke="#3FA9F5" stroke-width="1.7" stroke-linejoin="round" stroke-linecap="round"/>
<path d="M 300.0 291.0 L 304.0 291.1 L 307.9 290.9 L 311.9 290.7 L 315.8 290.3 L 319.8 290.0 L 323.7 289.3 L 327.6 288.7 L 331.5 287.8 L 335.3 286.9 L 339.1 285.5 L 342.8 284.3 L 346.5 282.9 L 350.2 281.5 L 353.8 279.9 L 357.4 278.2 L 360.9 276.3 L 364.2 274.1 L 367.6 272.2 L 370.9 270.0 L 374.1 267.5 L 377.2 265.2 L 380.3 262.7 L 383.2 260.0 L 386.1 257.3 L 388.8 254.3 L 391.5 251.7 L 394.0 248.4 L 396.3 245.1 L 398.5 241.8 L 400.7 238.5 L 402.7 235.0 L 404.7 231.6 L 406.4 227.9 L 408.0 224.2 L 409.5 220.4 L 410.8 216.6 L 412.0 212.6 L 413.0 208.6 L 413.9 204.6 L 414.7 200.7 L 415.2 196.5 L 415.6 192.4 L 415.8 188.2 L 415.9 184.0 L 415.8 179.8 L 415.5 175.6 L 415.1 171.4 L 414.5 167.1 L 413.7 162.9 L 412.3 158.2 L 408.5 151.9 L 403.7 145.1 L 398.2 138.0 L 392.9 131.5 L 386.8 124.8 L 381.5 118.9 L 374.6 112.5 L 368.4 106.8 L 362.7 101.7 L 355.2 95.9 L 348.2 90.7 L 341.8 86.2 L 335.1 81.9 L 328.5 77.9 L 321.6 74.1 L 314.7 70.5 L 309.4 68.0 L 308.4 67.4 L 307.3 66.8 L 306.2 66.2 L 305.1 65.7 L 304.1 65.3 L 303.1 64.9 L 302.2 64.6 L 301.5 64.4 L 301.3 64.3 L 301.3 64.3 L 301.3 64.3 L 301.3 64.3 L 301.3 64.2 L 301.3 64.2 L 301.2 64.2 L 301.2 64.1 L 301.1 64.1 L 301.0 64.1 L 301.0 64.1 L 301.0 64.1 L 301.0 64.0 L 301.0 64.0 L 301.0 64.0 L 298.8 64.0 L 298.8 64.0 L 298.8 64.0 L 298.8 64.1 L 298.8 64.1 L 298.8 64.1 L 298.8 64.1 L 298.8 64.1 L 298.8 64.2 L 298.8 64.2 L 298.8 64.2 L 298.8 64.2 L 298.9 64.2 L 298.9 64.3 L 298.9 64.3 L 298.9 64.3 L 298.9 64.3 L 298.9 64.3 L 299.0 64.3 L 299.0 64.4 L 299.0 64.4 L 299.0 64.4 L 298.9 64.5 L 298.5 64.6 L 298.0 64.9 L 297.4 65.2 L 296.8 65.5 L 296.2 65.9 L 295.6 66.3 L 295.0 66.8 L 294.3 67.3 L 293.6 67.8 L 293.0 68.4 L 291.2 69.7 L 289.4 71.1 L 286.3 73.6 L 281.4 77.5 L 277.2 81.2 L 273.0 85.1 L 268.1 89.8 L 264.5 93.8 L 259.8 99.0 L 256.3 103.3 L 252.2 108.6 L 248.1 114.1 L 245.3 118.7 L 241.7 124.4 L 238.3 130.2 L 235.1 136.1 L 231.5 142.8 L 229.6 147.9 L 226.7 154.5 L 224.1 161.1 L 222.8 166.4 L 221.3 172.3 L 218.7 180.1 L 217.6 186.1 L 217.2 191.5 L 215.8 198.7 L 215.0 205.5 L 214.9 211.4 L 215.3 216.9 L 215.0 223.9 L 214.8 231.2 L 215.4 237.5 L 216.9 242.2 L 219.0 245.8 L 221.5 249.0 L 224.1 251.9 L 226.7 255.0 L 229.4 258.1 L 232.2 261.0 L 235.0 264.0 L 238.0 266.9 L 241.1 269.6 L 244.2 272.2 L 247.5 274.6 L 250.9 276.7 L 254.3 278.8 L 257.9 280.8 L 261.4 282.8 L 265.1 284.2 L 268.9 285.6 L 272.6 286.9 L 276.5 287.7 L 280.4 288.5 L 284.2 289.3 L 288.2 289.9 L 292.1 290.4 L 296.0 290.9 L 300.0 291.0 Z" fill="none" stroke="#F32740" stroke-width="2.0" stroke-linejoin="round" stroke-linecap="round"/>
<text x="338" y="132" fill="#F32740" font-size="9.5" font-weight="700">125</text>
<text x="335" y="200" fill="#F32740" font-size="9.5" font-weight="700">250</text>
<text x="335" y="268" fill="#F32740" font-size="9.5" font-weight="700">375</text>
<text x="335" y="336" fill="#F32740" font-size="9.5" font-weight="700">500</text>
<rect x="274.0" y="58" width="52" height="11" rx="1.5" fill="#fafbfc" stroke="rgba(255,255,255,0.4)" stroke-width="0.5"/>
<line x1="272.0" y1="69.8" x2="328.0" y2="69.8" stroke="#F32740" stroke-width="0.7" stroke-dasharray="1.5 2"/>
<text x="300" y="66" text-anchor="middle" fill="#F32740" font-size="8" font-weight="700" letter-spacing="0.5">cd/klm SCALE</text>
<g transform="translate(22, 434)">
<text x="0" y="-8" fill="rgba(255,255,255,0.55)" font-size="8" letter-spacing="1.4">cd/klm</text>
<line x1="0" y1="6" x2="22" y2="6" stroke="#F32740" stroke-width="2.2"/>
<text x="28" y="9" fill="rgba(255,255,255,0.7)" font-size="9.5">C0 – C180</text>
<line x1="120" y1="6" x2="142" y2="6" stroke="#3FA9F5" stroke-width="1.7"/>
<text x="148" y="9" fill="rgba(255,255,255,0.7)" font-size="9.5">C90 – C270</text>
</g>
<text x="578" y="402" fill="rgba(255,255,255,0.45)" font-size="9" text-anchor="end">η = 149 lm/W</text>
<text x="578" y="418" fill="rgba(255,255,255,0.45)" font-size="9" text-anchor="end">8,021 lm · 54.0W</text>
<text x="578" y="434" fill="rgba(255,255,255,0.55)" font-size="8" letter-spacing="1.4" text-anchor="end">PEAK INTENSITY</text>
<text x="578" y="451" fill="#fff" font-weight="700" font-size="14" text-anchor="end">3,349 cd</text>
</svg>