<svg viewBox="0 0 600 460" xmlns="http://www.w3.org/2000/svg" font-family="JetBrains Mono, monospace" font-size="9.5">
<rect width="100%" height="100%" fill="#14171b"/>
<text x="22" y="26" fill="#F32740" font-weight="700" letter-spacing="2">LFLD3W80-3E1-UD-PS-35W-30K_IESNA2002 · 35W · 3000K · FLOOD</text>
<text x="22" y="42" fill="rgba(255,255,255,0.55)" font-size="8" letter-spacing="1.4">LUMINOUS INTENSITY DISTRIBUTION (cd/klm)</text>
<path d="M 232.0 64.0 A 68.0 68.0 0 0 0 368.0 64.0" fill="none" stroke="rgba(120,200,200,0.18)" stroke-width="0.7"/>
<path d="M 164.0 64.0 A 136.0 136.0 0 0 0 436.0 64.0" fill="none" stroke="rgba(120,200,200,0.18)" stroke-width="0.7"/>
<path d="M 96.0 64.0 A 204.0 204.0 0 0 0 504.0 64.0" fill="none" stroke="rgba(120,200,200,0.18)" stroke-width="0.7"/>
<path d="M 28.0 64.0 A 272.0 272.0 0 0 0 572.0 64.0" fill="none" stroke="rgba(120,200,200,0.18)" stroke-width="0.7"/>
<path d="M -40.0 64.0 A 340.0 340.0 0 0 0 640.0 64.0" fill="none" stroke="rgba(120,200,200,0.18)" stroke-width="0.7"/>
<line x1="300.0" y1="64" x2="388.0" y2="392.4" stroke="rgba(120,200,200,0.10)" stroke-width="0.5"/>
<line x1="300.0" y1="64" x2="212.0" y2="392.4" stroke="rgba(120,200,200,0.10)" stroke-width="0.5"/>
<line x1="300.0" y1="64" x2="470.0" y2="358.4" stroke="rgba(120,200,200,0.10)" stroke-width="0.5"/>
<line x1="300.0" y1="64" x2="130.0" y2="358.4" stroke="rgba(120,200,200,0.10)" stroke-width="0.5"/>
<line x1="300.0" y1="64" x2="540.4" y2="304.4" stroke="rgba(120,200,200,0.10)" stroke-width="0.5"/>
<line x1="300.0" y1="64" x2="59.6" y2="304.4" stroke="rgba(120,200,200,0.10)" stroke-width="0.5"/>
<line x1="300.0" y1="64" x2="594.4" y2="234.0" stroke="rgba(120,200,200,0.10)" stroke-width="0.5"/>
<line x1="300.0" y1="64" x2="5.6" y2="234.0" stroke="rgba(120,200,200,0.10)" stroke-width="0.5"/>
<line x1="300.0" y1="64" x2="628.4" y2="152.0" stroke="rgba(120,200,200,0.10)" stroke-width="0.5"/>
<line x1="300.0" y1="64" x2="-28.4" y2="152.0" stroke="rgba(120,200,200,0.10)" stroke-width="0.5"/>
<line x1="300.0" y1="64" x2="640.0" y2="64.0" stroke="rgba(120,200,200,0.10)" stroke-width="0.5"/>
<line x1="300.0" y1="64" x2="-40.0" y2="64.0" stroke="rgba(120,200,200,0.10)" stroke-width="0.5"/>
<line x1="300.0" y1="64" x2="300.0" y2="408" stroke="rgba(120,200,200,0.14)" stroke-width="0.5"/>
<line x1="-40.0" y1="64" x2="640.0" y2="64" stroke="rgba(120,200,200,0.14)" stroke-width="0.5"/>
<text x="391.6" y="408.9" text-anchor="middle" fill="rgba(255,255,255,0.4)" font-size="9">15°</text>
<text x="208.4" y="408.9" text-anchor="middle" fill="rgba(255,255,255,0.4)" font-size="9">15°</text>
<text x="477.0" y="373.6" text-anchor="middle" fill="rgba(255,255,255,0.6)" font-size="9">30°</text>
<text x="123.0" y="373.6" text-anchor="middle" fill="rgba(255,255,255,0.6)" font-size="9">30°</text>
<text x="550.3" y="317.3" text-anchor="middle" fill="rgba(255,255,255,0.4)" font-size="9">45°</text>
<text x="49.7" y="317.3" text-anchor="middle" fill="rgba(255,255,255,0.4)" font-size="9">45°</text>
<text x="606.6" y="244.0" text-anchor="middle" fill="rgba(255,255,255,0.6)" font-size="9">60°</text>
<text x="-6.6" y="244.0" text-anchor="middle" fill="rgba(255,255,255,0.6)" font-size="9">60°</text>
<text x="641.9" y="158.6" text-anchor="middle" fill="rgba(255,255,255,0.4)" font-size="9">75°</text>
<text x="-41.9" y="158.6" text-anchor="middle" fill="rgba(255,255,255,0.4)" font-size="9">75°</text>
<text x="654.0" y="67.0" text-anchor="middle" fill="rgba(255,255,255,0.6)" font-size="9">90°</text>
<text x="-54.0" y="67.0" text-anchor="middle" fill="rgba(255,255,255,0.6)" font-size="9">90°</text>
<text x="300" y="426" text-anchor="middle" fill="rgba(255,255,255,0.6)" font-size="9">0°</text>
<path d="M 300.0 290.5 L 304.0 290.5 L 307.9 290.3 L 311.8 289.9 L 315.8 289.6 L 319.7 289.0 L 323.6 288.3 L 327.4 287.4 L 331.3 286.4 L 335.0 285.2 L 338.8 284.0 L 342.5 282.4 L 346.1 281.1 L 349.7 279.3 L 353.2 277.5 L 356.7 275.7 L 360.2 273.9 L 363.4 271.5 L 366.8 269.6 L 369.9 266.9 L 373.0 264.7 L 376.0 262.0 L 378.9 259.2 L 381.7 256.4 L 384.5 253.7 L 387.0 250.6 L 389.5 247.4 L 391.8 244.3 L 394.2 241.2 L 396.2 237.6 L 398.2 234.2 L 400.1 230.7 L 402.0 227.2 L 403.5 223.3 L 405.0 219.7 L 406.4 215.9 L 407.7 212.2 L 408.6 208.1 L 409.4 204.0 L 410.3 200.2 L 411.0 196.3 L 411.3 192.0 L 411.6 187.9 L 411.6 183.7 L 411.6 179.5 L 411.4 175.4 L 411.0 171.2 L 410.4 167.0 L 409.7 162.7 L 408.8 158.6 L 407.8 154.5 L 406.5 150.3 L 405.2 146.2 L 403.7 142.2 L 402.0 138.1 L 400.2 134.1 L 398.1 130.2 L 395.8 126.2 L 392.6 121.9 L 389.4 117.7 L 386.6 114.0 L 383.6 110.3 L 379.8 106.4 L 376.2 102.8 L 373.0 99.6 L 368.9 96.1 L 364.9 92.9 L 361.4 90.1 L 357.0 87.0 L 353.0 84.3 L 348.1 81.5 L 343.2 78.9 L 337.9 76.3 L 332.9 74.1 L 327.9 72.0 L 322.8 70.1 L 318.4 68.6 L 314.3 67.3 L 310.5 66.2 L 307.1 65.4 L 304.3 64.8 L 302.9 64.5 L 302.2 64.3 L 301.7 64.2 L 301.4 64.1 L 301.2 64.1 L 301.3 64.1 L 301.3 64.1 L 301.3 64.0 L 301.3 64.0 L 301.3 64.0 L 298.8 64.0 L 298.8 64.0 L 298.8 64.0 L 298.8 64.1 L 298.8 64.1 L 298.8 64.1 L 298.8 64.1 L 298.8 64.1 L 298.8 64.2 L 298.7 64.2 L 298.4 64.3 L 297.9 64.4 L 297.3 64.6 L 296.5 64.8 L 293.5 65.6 L 289.6 66.8 L 285.8 68.1 L 282.0 69.5 L 277.7 71.3 L 272.9 73.3 L 268.0 75.6 L 263.0 78.2 L 257.8 81.1 L 252.8 84.0 L 247.3 87.5 L 242.2 90.9 L 236.7 94.9 L 231.5 98.9 L 226.7 103.0 L 221.7 107.4 L 217.8 111.5 L 214.3 115.5 L 211.7 119.2 L 208.9 123.2 L 205.6 127.6 L 202.8 132.1 L 200.7 136.1 L 198.9 140.2 L 197.4 144.2 L 195.9 148.3 L 194.6 152.4 L 193.5 156.6 L 192.5 160.8 L 191.6 165.1 L 191.0 169.3 L 190.6 173.4 L 190.3 177.6 L 189.9 182.0 L 190.1 186.1 L 190.2 190.3 L 190.7 194.3 L 191.1 198.4 L 191.8 202.5 L 192.5 206.6 L 193.5 210.6 L 194.7 214.5 L 195.9 218.3 L 197.3 222.1 L 199.0 225.6 L 200.7 229.3 L 202.4 233.0 L 204.4 236.4 L 206.6 239.6 L 208.7 243.2 L 211.0 246.4 L 213.5 249.5 L 216.1 252.4 L 218.7 255.4 L 221.5 258.4 L 224.4 261.0 L 227.3 263.6 L 230.4 266.2 L 233.5 268.7 L 236.8 270.9 L 240.1 273.0 L 243.5 275.0 L 246.9 277.0 L 250.4 278.8 L 254.0 280.6 L 257.6 282.0 L 261.3 283.5 L 265.0 284.7 L 268.8 286.0 L 272.6 287.1 L 276.4 288.2 L 280.3 288.8 L 284.2 289.4 L 288.2 289.8 L 292.1 290.3 L 296.1 290.2 L 300.0 290.5 Z" fill="none" stroke="#3FA9F5" stroke-width="1.7" stroke-linejoin="round" stroke-linecap="round"/>
<path d="M 300.0 290.5 L 303.9 290.2 L 307.9 289.7 L 311.8 289.4 L 315.7 289.0 L 319.6 287.6 L 323.4 287.0 L 327.3 286.1 L 331.1 285.2 L 334.8 284.0 L 338.5 282.3 L 342.1 280.7 L 345.6 278.6 L 349.0 276.3 L 352.4 274.1 L 355.7 272.0 L 359.0 269.7 L 362.0 266.8 L 364.9 263.8 L 367.9 261.2 L 370.7 258.2 L 373.4 255.2 L 376.1 252.3 L 378.6 249.2 L 381.1 246.0 L 383.4 242.8 L 385.6 239.5 L 387.7 236.1 L 389.6 232.6 L 391.1 228.4 L 391.5 222.5 L 389.9 213.6 L 386.9 203.1 L 384.0 193.4 L 384.3 188.9 L 385.1 185.5 L 385.1 181.2 L 384.3 175.8 L 381.4 168.2 L 376.5 158.4 L 372.4 150.3 L 371.9 146.7 L 370.9 142.7 L 368.8 137.7 L 364.7 131.0 L 357.1 121.1 L 354.9 117.0 L 353.0 113.5 L 350.3 109.3 L 344.9 103.1 L 338.1 96.0 L 335.9 93.1 L 333.0 89.8 L 326.6 84.0 L 321.3 79.5 L 318.8 77.2 L 313.9 73.4 L 310.7 71.0 L 307.4 68.6 L 306.7 68.0 L 305.9 67.4 L 305.2 66.9 L 304.5 66.4 L 303.8 66.0 L 303.2 65.6 L 302.6 65.2 L 302.0 64.9 L 301.5 64.6 L 301.1 64.5 L 301.0 64.4 L 301.0 64.4 L 301.0 64.4 L 301.0 64.3 L 301.0 64.3 L 301.1 64.3 L 301.1 64.3 L 301.1 64.3 L 301.1 64.3 L 301.1 64.2 L 301.1 64.2 L 301.2 64.2 L 301.2 64.2 L 301.2 64.2 L 301.2 64.1 L 301.2 64.1 L 301.2 64.1 L 301.2 64.1 L 301.2 64.1 L 301.1 64.0 L 301.1 64.0 L 301.2 64.0 L 299.0 64.0 L 299.0 64.0 L 299.0 64.0 L 299.0 64.1 L 299.0 64.1 L 299.0 64.1 L 298.9 64.1 L 298.8 64.1 L 298.8 64.2 L 298.7 64.2 L 298.7 64.2 L 298.7 64.3 L 298.7 64.3 L 298.7 64.3 L 298.7 64.3 L 298.6 64.4 L 297.9 64.6 L 297.0 64.9 L 296.2 65.2 L 295.2 65.6 L 294.3 66.1 L 293.3 66.6 L 292.4 67.1 L 291.6 67.6 L 290.6 68.2 L 281.3 72.7 L 278.3 74.6 L 271.3 78.6 L 264.3 83.0 L 258.2 87.2 L 248.6 93.7 L 246.2 96.3 L 237.6 103.0 L 229.8 109.6 L 227.6 112.8 L 220.6 119.6 L 211.0 128.6 L 208.6 132.8 L 205.5 137.8 L 197.9 146.7 L 191.2 155.3 L 188.8 160.7 L 188.0 164.8 L 187.4 169.0 L 186.7 173.4 L 186.3 177.7 L 186.2 181.8 L 186.3 185.9 L 186.4 190.2 L 186.6 194.4 L 187.1 198.6 L 187.8 202.6 L 188.6 206.6 L 189.4 210.7 L 190.5 214.7 L 191.9 218.4 L 193.3 222.2 L 194.8 226.0 L 196.5 229.7 L 198.3 233.2 L 200.3 236.7 L 202.4 240.1 L 204.6 243.5 L 207.0 246.6 L 209.4 249.8 L 211.9 252.9 L 214.6 255.8 L 217.4 258.6 L 220.3 261.3 L 223.3 263.9 L 226.4 266.3 L 229.5 268.9 L 232.7 271.0 L 236.0 273.4 L 239.3 275.6 L 242.8 277.4 L 246.4 279.1 L 250.0 280.7 L 253.7 282.0 L 257.3 283.8 L 261.0 285.1 L 264.8 286.4 L 268.6 287.2 L 272.5 288.0 L 276.4 288.8 L 280.3 289.5 L 284.2 289.7 L 288.2 290.1 L 292.1 290.3 L 296.0 290.3 L 300.0 290.5 Z" fill="none" stroke="#F32740" stroke-width="2.0" stroke-linejoin="round" stroke-linecap="round"/>
<text x="338" y="132" fill="#F32740" font-size="9.5" font-weight="700">125</text>
<text x="335" y="200" fill="#F32740" font-size="9.5" font-weight="700">250</text>
<text x="335" y="268" fill="#F32740" font-size="9.5" font-weight="700">375</text>
<text x="335" y="336" fill="#F32740" font-size="9.5" font-weight="700">500</text>
<rect x="274.0" y="58" width="52" height="11" rx="1.5" fill="#fafbfc" stroke="rgba(255,255,255,0.4)" stroke-width="0.5"/>
<line x1="272.0" y1="69.8" x2="328.0" y2="69.8" stroke="#F32740" stroke-width="0.7" stroke-dasharray="1.5 2"/>
<text x="300" y="66" text-anchor="middle" fill="#F32740" font-size="8" font-weight="700" letter-spacing="0.5">cd/klm SCALE</text>
<g transform="translate(22, 434)">
<text x="0" y="-8" fill="rgba(255,255,255,0.55)" font-size="8" letter-spacing="1.4">cd/klm</text>
<line x1="0" y1="6" x2="22" y2="6" stroke="#F32740" stroke-width="2.2"/>
<text x="28" y="9" fill="rgba(255,255,255,0.7)" font-size="9.5">C0 – C180</text>
<line x1="120" y1="6" x2="142" y2="6" stroke="#3FA9F5" stroke-width="1.7"/>
<text x="148" y="9" fill="rgba(255,255,255,0.7)" font-size="9.5">C90 – C270</text>
</g>
<text x="578" y="402" fill="rgba(255,255,255,0.45)" font-size="9" text-anchor="end">η = 144 lm/W</text>
<text x="578" y="418" fill="rgba(255,255,255,0.45)" font-size="9" text-anchor="end">5,332 lm · 36.9W</text>
<text x="578" y="434" fill="rgba(255,255,255,0.55)" font-size="8" letter-spacing="1.4" text-anchor="end">PEAK INTENSITY</text>
<text x="578" y="451" fill="#fff" font-weight="700" font-size="14" text-anchor="end">2,220 cd</text>
</svg>