<svg viewBox="0 0 600 460" xmlns="http://www.w3.org/2000/svg" font-family="JetBrains Mono, monospace" font-size="9.5">
<rect width="100%" height="100%" fill="#14171b"/>
<text x="22" y="26" fill="#F32740" font-weight="700" letter-spacing="2">LFLD3W150-3E1-UD-PS-120W-50K_IESNA2002 · 120W · 5000K · FLOOD</text>
<text x="22" y="42" fill="rgba(255,255,255,0.55)" font-size="8" letter-spacing="1.4">LUMINOUS INTENSITY DISTRIBUTION (cd/klm)</text>
<path d="M 232.0 64.0 A 68.0 68.0 0 0 0 368.0 64.0" fill="none" stroke="rgba(120,200,200,0.18)" stroke-width="0.7"/>
<path d="M 164.0 64.0 A 136.0 136.0 0 0 0 436.0 64.0" fill="none" stroke="rgba(120,200,200,0.18)" stroke-width="0.7"/>
<path d="M 96.0 64.0 A 204.0 204.0 0 0 0 504.0 64.0" fill="none" stroke="rgba(120,200,200,0.18)" stroke-width="0.7"/>
<path d="M 28.0 64.0 A 272.0 272.0 0 0 0 572.0 64.0" fill="none" stroke="rgba(120,200,200,0.18)" stroke-width="0.7"/>
<path d="M -40.0 64.0 A 340.0 340.0 0 0 0 640.0 64.0" fill="none" stroke="rgba(120,200,200,0.18)" stroke-width="0.7"/>
<line x1="300.0" y1="64" x2="388.0" y2="392.4" stroke="rgba(120,200,200,0.10)" stroke-width="0.5"/>
<line x1="300.0" y1="64" x2="212.0" y2="392.4" stroke="rgba(120,200,200,0.10)" stroke-width="0.5"/>
<line x1="300.0" y1="64" x2="470.0" y2="358.4" stroke="rgba(120,200,200,0.10)" stroke-width="0.5"/>
<line x1="300.0" y1="64" x2="130.0" y2="358.4" stroke="rgba(120,200,200,0.10)" stroke-width="0.5"/>
<line x1="300.0" y1="64" x2="540.4" y2="304.4" stroke="rgba(120,200,200,0.10)" stroke-width="0.5"/>
<line x1="300.0" y1="64" x2="59.6" y2="304.4" stroke="rgba(120,200,200,0.10)" stroke-width="0.5"/>
<line x1="300.0" y1="64" x2="594.4" y2="234.0" stroke="rgba(120,200,200,0.10)" stroke-width="0.5"/>
<line x1="300.0" y1="64" x2="5.6" y2="234.0" stroke="rgba(120,200,200,0.10)" stroke-width="0.5"/>
<line x1="300.0" y1="64" x2="628.4" y2="152.0" stroke="rgba(120,200,200,0.10)" stroke-width="0.5"/>
<line x1="300.0" y1="64" x2="-28.4" y2="152.0" stroke="rgba(120,200,200,0.10)" stroke-width="0.5"/>
<line x1="300.0" y1="64" x2="640.0" y2="64.0" stroke="rgba(120,200,200,0.10)" stroke-width="0.5"/>
<line x1="300.0" y1="64" x2="-40.0" y2="64.0" stroke="rgba(120,200,200,0.10)" stroke-width="0.5"/>
<line x1="300.0" y1="64" x2="300.0" y2="408" stroke="rgba(120,200,200,0.14)" stroke-width="0.5"/>
<line x1="-40.0" y1="64" x2="640.0" y2="64" stroke="rgba(120,200,200,0.14)" stroke-width="0.5"/>
<text x="391.6" y="408.9" text-anchor="middle" fill="rgba(255,255,255,0.4)" font-size="9">15°</text>
<text x="208.4" y="408.9" text-anchor="middle" fill="rgba(255,255,255,0.4)" font-size="9">15°</text>
<text x="477.0" y="373.6" text-anchor="middle" fill="rgba(255,255,255,0.6)" font-size="9">30°</text>
<text x="123.0" y="373.6" text-anchor="middle" fill="rgba(255,255,255,0.6)" font-size="9">30°</text>
<text x="550.3" y="317.3" text-anchor="middle" fill="rgba(255,255,255,0.4)" font-size="9">45°</text>
<text x="49.7" y="317.3" text-anchor="middle" fill="rgba(255,255,255,0.4)" font-size="9">45°</text>
<text x="606.6" y="244.0" text-anchor="middle" fill="rgba(255,255,255,0.6)" font-size="9">60°</text>
<text x="-6.6" y="244.0" text-anchor="middle" fill="rgba(255,255,255,0.6)" font-size="9">60°</text>
<text x="641.9" y="158.6" text-anchor="middle" fill="rgba(255,255,255,0.4)" font-size="9">75°</text>
<text x="-41.9" y="158.6" text-anchor="middle" fill="rgba(255,255,255,0.4)" font-size="9">75°</text>
<text x="654.0" y="67.0" text-anchor="middle" fill="rgba(255,255,255,0.6)" font-size="9">90°</text>
<text x="-54.0" y="67.0" text-anchor="middle" fill="rgba(255,255,255,0.6)" font-size="9">90°</text>
<text x="300" y="426" text-anchor="middle" fill="rgba(255,255,255,0.6)" font-size="9">0°</text>
<path d="M 300.0 334.6 L 304.7 334.6 L 309.4 334.1 L 314.1 333.9 L 318.8 333.1 L 323.5 332.8 L 328.1 331.5 L 332.8 330.9 L 337.3 329.4 L 341.8 328.2 L 346.3 326.4 L 350.7 324.9 L 355.1 323.1 L 359.4 321.2 L 363.6 319.0 L 367.8 316.9 L 371.8 314.3 L 375.9 312.1 L 379.7 309.2 L 383.5 306.4 L 387.2 303.5 L 390.8 300.5 L 394.3 297.3 L 397.6 293.9 L 400.9 290.6 L 404.1 287.2 L 407.0 283.4 L 409.9 279.7 L 412.6 275.8 L 415.3 271.9 L 417.6 267.7 L 419.8 263.4 L 422.0 259.3 L 423.9 254.8 L 425.8 250.5 L 427.3 245.7 L 428.7 241.1 L 430.0 236.6 L 431.1 231.8 L 431.9 226.9 L 432.5 221.9 L 433.2 217.2 L 433.5 212.3 L 433.5 207.1 L 433.4 202.1 L 432.9 196.9 L 432.5 192.0 L 431.6 186.7 L 430.6 181.6 L 429.2 176.3 L 427.3 170.9 L 424.8 165.1 L 421.5 158.9 L 418.1 153.0 L 414.5 147.2 L 410.5 141.4 L 406.5 135.9 L 402.1 130.3 L 397.8 125.1 L 393.2 120.0 L 388.5 115.1 L 383.3 110.2 L 378.1 105.5 L 372.8 101.1 L 367.6 97.0 L 361.9 92.9 L 356.4 89.1 L 350.7 85.5 L 345.4 82.3 L 340.0 79.4 L 334.5 76.6 L 329.2 74.0 L 324.3 71.9 L 319.7 70.0 L 315.2 68.3 L 311.0 66.9 L 307.3 65.8 L 305.1 65.2 L 302.9 64.6 L 302.4 64.5 L 301.9 64.3 L 301.6 64.3 L 301.5 64.2 L 301.5 64.2 L 301.5 64.2 L 301.5 64.1 L 301.5 64.1 L 301.5 64.1 L 301.5 64.1 L 301.5 64.0 L 301.5 64.0 L 298.4 64.0 L 298.4 64.0 L 298.4 64.1 L 298.4 64.1 L 298.3 64.1 L 298.3 64.2 L 298.2 64.2 L 298.1 64.2 L 297.8 64.3 L 297.5 64.4 L 297.1 64.5 L 296.5 64.7 L 293.8 65.3 L 290.0 66.3 L 286.1 67.5 L 282.3 68.7 L 277.7 70.4 L 272.8 72.3 L 267.8 74.5 L 262.5 76.9 L 257.2 79.6 L 251.5 82.6 L 245.9 85.9 L 240.4 89.3 L 234.9 93.0 L 229.4 96.9 L 224.1 101.0 L 218.7 105.4 L 213.6 109.9 L 208.5 114.7 L 203.7 119.6 L 199.1 124.6 L 194.6 129.9 L 190.3 135.3 L 186.2 140.8 L 182.3 146.4 L 178.5 152.2 L 175.1 158.1 L 172.7 163.5 L 170.6 168.8 L 169.2 173.8 L 167.8 178.9 L 166.9 183.9 L 166.1 188.9 L 165.3 194.0 L 164.9 199.1 L 164.7 204.1 L 164.9 208.9 L 165.0 214.0 L 165.2 219.0 L 165.9 223.8 L 166.7 228.6 L 167.7 233.4 L 168.8 238.1 L 170.1 242.7 L 171.6 247.3 L 173.3 251.8 L 175.2 256.2 L 177.1 260.7 L 179.4 264.6 L 181.7 268.8 L 184.1 273.1 L 186.8 277.0 L 189.5 280.9 L 192.5 284.4 L 195.5 288.2 L 198.6 291.8 L 202.0 294.9 L 205.3 298.3 L 208.9 301.4 L 212.5 304.5 L 216.2 307.3 L 220.1 310.0 L 223.9 312.8 L 228.0 315.2 L 232.1 317.5 L 236.3 319.6 L 240.5 321.8 L 244.8 323.6 L 249.2 325.3 L 253.6 326.9 L 258.1 328.5 L 262.7 329.8 L 267.2 331.0 L 271.9 331.6 L 276.5 332.8 L 281.2 333.3 L 285.8 334.1 L 290.6 334.2 L 295.3 334.5 L 300.0 334.6 Z" fill="none" stroke="#3FA9F5" stroke-width="1.7" stroke-linejoin="round" stroke-linecap="round"/>
<path d="M 300.0 334.6 L 304.7 334.7 L 309.4 334.4 L 314.2 334.6 L 318.9 333.7 L 323.6 333.5 L 328.2 332.5 L 332.9 331.9 L 337.5 331.0 L 342.1 329.6 L 346.6 328.2 L 351.1 327.0 L 355.5 325.0 L 359.9 323.7 L 364.2 321.3 L 368.5 319.6 L 372.7 317.4 L 376.8 315.1 L 380.7 312.4 L 384.7 310.0 L 388.6 307.3 L 392.3 304.4 L 395.8 301.2 L 399.4 298.2 L 402.9 295.0 L 406.2 291.7 L 409.3 288.0 L 412.3 284.5 L 415.3 280.9 L 418.1 277.0 L 420.6 272.9 L 423.2 269.0 L 425.5 264.8 L 427.8 260.7 L 429.6 256.2 L 431.5 251.8 L 433.3 247.4 L 434.7 242.7 L 436.1 238.2 L 437.0 233.2 L 438.1 228.6 L 439.0 223.8 L 439.5 218.9 L 439.9 214.0 L 440.1 209.1 L 440.3 204.3 L 439.9 199.1 L 439.6 194.1 L 439.1 189.3 L 438.5 184.4 L 437.6 179.4 L 436.5 174.5 L 435.2 169.6 L 434.0 165.0 L 432.1 160.0 L 430.2 155.2 L 428.2 150.5 L 425.9 145.7 L 423.4 141.1 L 420.5 136.4 L 416.2 131.1 L 406.6 123.1 L 396.8 115.5 L 392.8 111.3 L 380.6 103.3 L 374.1 98.6 L 367.9 94.2 L 356.6 88.0 L 352.3 85.1 L 340.9 79.7 L 335.9 77.1 L 327.1 73.3 L 318.9 70.1 L 313.5 68.1 L 308.1 66.3 L 306.9 65.8 L 305.6 65.4 L 304.5 65.0 L 303.4 64.7 L 302.5 64.5 L 301.9 64.3 L 301.9 64.3 L 301.9 64.3 L 301.8 64.2 L 301.8 64.2 L 301.7 64.2 L 301.6 64.1 L 301.5 64.1 L 301.4 64.1 L 301.4 64.0 L 301.3 64.0 L 298.4 64.0 L 298.5 64.0 L 298.5 64.1 L 298.4 64.1 L 298.4 64.1 L 298.4 64.1 L 298.4 64.2 L 298.4 64.2 L 298.4 64.2 L 298.4 64.2 L 298.4 64.3 L 298.5 64.3 L 298.5 64.3 L 298.5 64.3 L 298.5 64.4 L 298.5 64.4 L 298.5 64.4 L 298.5 64.4 L 298.5 64.5 L 298.1 64.7 L 297.5 64.9 L 296.9 65.2 L 296.2 65.5 L 295.5 65.9 L 294.8 66.3 L 294.1 66.7 L 293.5 67.2 L 292.9 67.6 L 292.5 68.0 L 291.9 68.5 L 280.2 75.4 L 279.1 76.6 L 278.0 77.7 L 265.2 86.6 L 263.3 88.7 L 261.2 91.2 L 258.9 93.8 L 246.0 104.7 L 244.8 107.1 L 243.7 109.6 L 242.5 112.3 L 231.3 123.7 L 225.9 130.8 L 224.9 134.0 L 224.2 137.2 L 223.7 140.3 L 220.7 146.1 L 208.4 162.2 L 206.8 167.5 L 206.9 171.1 L 207.0 174.8 L 207.3 178.5 L 207.6 182.3 L 205.3 189.7 L 196.1 207.0 L 194.6 214.6 L 195.6 218.8 L 196.9 222.7 L 198.4 226.6 L 200.1 230.3 L 201.7 234.3 L 203.2 238.7 L 200.5 251.1 L 195.9 268.3 L 197.0 275.2 L 199.7 279.1 L 202.6 282.7 L 205.7 286.1 L 208.7 290.0 L 211.9 293.5 L 215.1 297.3 L 218.5 300.8 L 222.0 304.2 L 225.5 307.7 L 229.3 310.4 L 233.1 313.5 L 237.1 316.2 L 241.2 318.9 L 245.3 321.3 L 249.6 323.3 L 253.9 325.5 L 258.3 327.1 L 262.9 328.3 L 267.4 329.9 L 272.0 330.7 L 276.5 332.2 L 281.2 332.6 L 285.9 333.5 L 290.6 334.0 L 295.3 334.5 L 300.0 334.6 Z" fill="none" stroke="#F32740" stroke-width="2.0" stroke-linejoin="round" stroke-linecap="round"/>
<text x="338" y="132" fill="#F32740" font-size="9.5" font-weight="700">100</text>
<text x="335" y="200" fill="#F32740" font-size="9.5" font-weight="700">200</text>
<text x="335" y="268" fill="#F32740" font-size="9.5" font-weight="700">300</text>
<text x="335" y="336" fill="#F32740" font-size="9.5" font-weight="700">400</text>
<rect x="274.0" y="58" width="52" height="11" rx="1.5" fill="#fafbfc" stroke="rgba(255,255,255,0.4)" stroke-width="0.5"/>
<line x1="272.0" y1="69.8" x2="328.0" y2="69.8" stroke="#F32740" stroke-width="0.7" stroke-dasharray="1.5 2"/>
<text x="300" y="66" text-anchor="middle" fill="#F32740" font-size="8" font-weight="700" letter-spacing="0.5">cd/klm SCALE</text>
<g transform="translate(22, 434)">
<text x="0" y="-8" fill="rgba(255,255,255,0.55)" font-size="8" letter-spacing="1.4">cd/klm</text>
<line x1="0" y1="6" x2="22" y2="6" stroke="#F32740" stroke-width="2.2"/>
<text x="28" y="9" fill="rgba(255,255,255,0.7)" font-size="9.5">C0 – C180</text>
<line x1="120" y1="6" x2="142" y2="6" stroke="#3FA9F5" stroke-width="1.7"/>
<text x="148" y="9" fill="rgba(255,255,255,0.7)" font-size="9.5">C90 – C270</text>
</g>
<text x="578" y="402" fill="rgba(255,255,255,0.45)" font-size="9" text-anchor="end">η = 133 lm/W</text>
<text x="578" y="418" fill="rgba(255,255,255,0.45)" font-size="9" text-anchor="end">15,609 lm · 117.6W</text>
<text x="578" y="434" fill="rgba(255,255,255,0.55)" font-size="8" letter-spacing="1.4" text-anchor="end">PEAK INTENSITY</text>
<text x="578" y="451" fill="#fff" font-weight="700" font-size="14" text-anchor="end">6,219 cd</text>
</svg>