<svg viewBox="0 0 600 460" xmlns="http://www.w3.org/2000/svg" font-family="JetBrains Mono, monospace" font-size="9.5">
<rect width="100%" height="100%" fill="#14171b"/>
<text x="22" y="26" fill="#F32740" font-weight="700" letter-spacing="2">LFLD3W150-3E1-UDPS-40K_IESNA2002 · 0W · 4000K · FLOOD</text>
<text x="22" y="42" fill="rgba(255,255,255,0.55)" font-size="8" letter-spacing="1.4">LUMINOUS INTENSITY DISTRIBUTION (cd/klm)</text>
<path d="M 232.0 64.0 A 68.0 68.0 0 0 0 368.0 64.0" fill="none" stroke="rgba(120,200,200,0.18)" stroke-width="0.7"/>
<path d="M 164.0 64.0 A 136.0 136.0 0 0 0 436.0 64.0" fill="none" stroke="rgba(120,200,200,0.18)" stroke-width="0.7"/>
<path d="M 96.0 64.0 A 204.0 204.0 0 0 0 504.0 64.0" fill="none" stroke="rgba(120,200,200,0.18)" stroke-width="0.7"/>
<path d="M 28.0 64.0 A 272.0 272.0 0 0 0 572.0 64.0" fill="none" stroke="rgba(120,200,200,0.18)" stroke-width="0.7"/>
<path d="M -40.0 64.0 A 340.0 340.0 0 0 0 640.0 64.0" fill="none" stroke="rgba(120,200,200,0.18)" stroke-width="0.7"/>
<line x1="300.0" y1="64" x2="388.0" y2="392.4" stroke="rgba(120,200,200,0.10)" stroke-width="0.5"/>
<line x1="300.0" y1="64" x2="212.0" y2="392.4" stroke="rgba(120,200,200,0.10)" stroke-width="0.5"/>
<line x1="300.0" y1="64" x2="470.0" y2="358.4" stroke="rgba(120,200,200,0.10)" stroke-width="0.5"/>
<line x1="300.0" y1="64" x2="130.0" y2="358.4" stroke="rgba(120,200,200,0.10)" stroke-width="0.5"/>
<line x1="300.0" y1="64" x2="540.4" y2="304.4" stroke="rgba(120,200,200,0.10)" stroke-width="0.5"/>
<line x1="300.0" y1="64" x2="59.6" y2="304.4" stroke="rgba(120,200,200,0.10)" stroke-width="0.5"/>
<line x1="300.0" y1="64" x2="594.4" y2="234.0" stroke="rgba(120,200,200,0.10)" stroke-width="0.5"/>
<line x1="300.0" y1="64" x2="5.6" y2="234.0" stroke="rgba(120,200,200,0.10)" stroke-width="0.5"/>
<line x1="300.0" y1="64" x2="628.4" y2="152.0" stroke="rgba(120,200,200,0.10)" stroke-width="0.5"/>
<line x1="300.0" y1="64" x2="-28.4" y2="152.0" stroke="rgba(120,200,200,0.10)" stroke-width="0.5"/>
<line x1="300.0" y1="64" x2="640.0" y2="64.0" stroke="rgba(120,200,200,0.10)" stroke-width="0.5"/>
<line x1="300.0" y1="64" x2="-40.0" y2="64.0" stroke="rgba(120,200,200,0.10)" stroke-width="0.5"/>
<line x1="300.0" y1="64" x2="300.0" y2="408" stroke="rgba(120,200,200,0.14)" stroke-width="0.5"/>
<line x1="-40.0" y1="64" x2="640.0" y2="64" stroke="rgba(120,200,200,0.14)" stroke-width="0.5"/>
<text x="391.6" y="408.9" text-anchor="middle" fill="rgba(255,255,255,0.4)" font-size="9">15°</text>
<text x="208.4" y="408.9" text-anchor="middle" fill="rgba(255,255,255,0.4)" font-size="9">15°</text>
<text x="477.0" y="373.6" text-anchor="middle" fill="rgba(255,255,255,0.6)" font-size="9">30°</text>
<text x="123.0" y="373.6" text-anchor="middle" fill="rgba(255,255,255,0.6)" font-size="9">30°</text>
<text x="550.3" y="317.3" text-anchor="middle" fill="rgba(255,255,255,0.4)" font-size="9">45°</text>
<text x="49.7" y="317.3" text-anchor="middle" fill="rgba(255,255,255,0.4)" font-size="9">45°</text>
<text x="606.6" y="244.0" text-anchor="middle" fill="rgba(255,255,255,0.6)" font-size="9">60°</text>
<text x="-6.6" y="244.0" text-anchor="middle" fill="rgba(255,255,255,0.6)" font-size="9">60°</text>
<text x="641.9" y="158.6" text-anchor="middle" fill="rgba(255,255,255,0.4)" font-size="9">75°</text>
<text x="-41.9" y="158.6" text-anchor="middle" fill="rgba(255,255,255,0.4)" font-size="9">75°</text>
<text x="654.0" y="67.0" text-anchor="middle" fill="rgba(255,255,255,0.6)" font-size="9">90°</text>
<text x="-54.0" y="67.0" text-anchor="middle" fill="rgba(255,255,255,0.6)" font-size="9">90°</text>
<text x="300" y="426" text-anchor="middle" fill="rgba(255,255,255,0.6)" font-size="9">0°</text>
<path d="M 300.0 335.7 L 304.7 335.6 L 309.5 335.7 L 314.2 335.4 L 318.9 334.8 L 323.6 334.2 L 328.3 333.5 L 333.0 332.5 L 337.6 331.5 L 342.1 330.1 L 346.7 328.8 L 351.1 327.0 L 355.6 325.4 L 359.9 323.6 L 364.2 321.5 L 368.4 319.2 L 372.5 317.0 L 376.6 314.5 L 380.6 312.0 L 384.4 309.1 L 388.2 306.3 L 391.9 303.3 L 395.4 300.2 L 398.8 296.8 L 402.2 293.6 L 405.4 290.0 L 408.5 286.4 L 411.3 282.5 L 414.2 278.7 L 416.8 274.7 L 419.3 270.6 L 421.6 266.4 L 424.0 262.4 L 425.9 257.9 L 427.8 253.4 L 429.4 248.8 L 431.0 244.4 L 432.4 239.7 L 433.6 235.0 L 434.5 230.1 L 435.3 225.2 L 435.8 220.3 L 436.3 215.4 L 436.4 210.3 L 436.4 205.3 L 436.3 200.3 L 435.6 195.0 L 434.7 189.6 L 433.9 184.6 L 432.9 179.5 L 430.9 173.8 L 428.2 167.8 L 425.0 161.6 L 421.8 155.8 L 418.5 150.1 L 415.0 144.5 L 411.1 138.9 L 407.0 133.5 L 402.8 128.2 L 398.4 123.1 L 393.7 118.1 L 388.8 113.2 L 383.9 108.6 L 378.9 104.2 L 373.8 100.0 L 368.4 95.9 L 363.2 92.2 L 357.8 88.6 L 352.4 85.2 L 347.0 82.0 L 341.7 79.2 L 336.4 76.5 L 331.5 74.2 L 326.7 72.2 L 322.1 70.3 L 317.7 68.7 L 313.6 67.4 L 310.0 66.3 L 306.4 65.4 L 303.7 64.7 L 303.0 64.5 L 302.4 64.4 L 302.0 64.3 L 301.7 64.2 L 301.7 64.2 L 301.6 64.1 L 301.6 64.1 L 301.6 64.1 L 301.6 64.1 L 301.6 64.0 L 301.6 64.0 L 298.5 64.0 L 298.5 64.0 L 298.5 64.1 L 298.5 64.1 L 298.4 64.1 L 298.4 64.1 L 298.4 64.2 L 298.4 64.2 L 298.3 64.2 L 298.2 64.3 L 297.9 64.4 L 297.5 64.5 L 296.7 64.7 L 295.9 64.9 L 293.1 65.7 L 289.9 66.7 L 286.3 67.9 L 282.3 69.4 L 278.1 71.1 L 273.5 73.1 L 268.4 75.5 L 263.4 78.0 L 258.5 80.8 L 253.3 83.8 L 248.1 87.1 L 242.6 90.8 L 237.3 94.6 L 232.2 98.5 L 227.0 102.8 L 222.1 107.2 L 217.3 111.8 L 212.4 116.6 L 207.9 121.6 L 203.2 126.9 L 198.9 132.2 L 194.8 137.7 L 191.1 143.1 L 187.4 148.9 L 183.7 154.9 L 180.5 160.8 L 177.7 166.6 L 175.1 172.6 L 173.8 177.6 L 172.4 183.0 L 171.5 188.1 L 170.8 193.2 L 170.3 198.3 L 170.0 203.4 L 169.8 208.6 L 169.9 213.6 L 170.2 218.6 L 170.8 223.6 L 171.5 228.5 L 172.4 233.4 L 173.5 238.1 L 174.7 243.0 L 176.2 247.5 L 177.8 252.2 L 179.7 256.5 L 181.6 261.1 L 183.8 265.2 L 186.0 269.6 L 188.5 273.6 L 191.1 277.8 L 193.9 281.5 L 196.8 285.4 L 199.8 289.0 L 203.0 292.6 L 206.3 296.0 L 209.6 299.4 L 213.2 302.4 L 216.8 305.6 L 220.6 308.4 L 224.4 311.2 L 228.4 313.7 L 232.4 316.3 L 236.5 318.7 L 240.7 320.9 L 245.0 323.0 L 249.3 325.0 L 253.7 326.7 L 258.1 328.4 L 262.7 329.7 L 267.2 331.1 L 271.8 332.2 L 276.4 333.3 L 281.1 334.0 L 285.8 334.7 L 290.5 335.3 L 295.3 335.5 L 300.0 335.7 Z" fill="none" stroke="#3FA9F5" stroke-width="1.7" stroke-linejoin="round" stroke-linecap="round"/>
<path d="M 300.0 335.7 L 304.7 335.6 L 309.5 335.5 L 314.2 335.1 L 318.9 334.9 L 323.6 334.0 L 328.3 333.4 L 332.9 332.2 L 337.5 331.1 L 342.1 329.7 L 346.6 328.1 L 351.1 326.7 L 355.5 325.0 L 359.8 323.0 L 364.0 320.9 L 368.2 318.5 L 372.2 315.8 L 376.1 312.8 L 379.8 309.6 L 383.5 306.6 L 387.0 303.0 L 390.4 299.6 L 393.7 295.9 L 396.8 292.1 L 399.9 288.3 L 402.8 284.5 L 405.6 280.6 L 408.4 276.7 L 411.0 272.8 L 413.1 268.0 L 412.6 259.0 L 411.2 249.0 L 412.1 243.4 L 413.8 239.3 L 414.1 233.1 L 411.6 223.4 L 410.5 216.1 L 411.3 211.7 L 411.1 206.2 L 407.6 196.8 L 404.9 189.0 L 404.8 184.6 L 403.1 178.5 L 398.6 169.8 L 396.8 164.3 L 395.6 159.6 L 391.0 151.9 L 386.9 145.0 L 385.2 140.7 L 380.5 134.0 L 376.6 128.3 L 373.6 123.6 L 367.4 116.7 L 364.4 112.5 L 359.4 107.2 L 355.3 102.7 L 350.4 98.0 L 345.1 93.3 L 340.3 89.2 L 335.6 85.4 L 330.5 81.6 L 325.2 78.0 L 320.2 74.7 L 314.6 71.5 L 310.3 69.0 L 307.9 67.7 L 307.1 67.2 L 306.3 66.7 L 305.5 66.2 L 304.8 65.8 L 304.1 65.5 L 303.4 65.2 L 302.7 64.9 L 302.1 64.6 L 301.6 64.5 L 301.5 64.4 L 301.5 64.4 L 301.5 64.3 L 301.5 64.3 L 301.5 64.3 L 301.5 64.3 L 301.5 64.2 L 301.5 64.2 L 301.5 64.2 L 301.5 64.2 L 301.5 64.1 L 301.5 64.1 L 301.5 64.1 L 301.5 64.1 L 301.5 64.0 L 301.5 64.0 L 298.6 64.0 L 298.6 64.0 L 298.5 64.1 L 298.4 64.1 L 298.3 64.1 L 298.2 64.2 L 298.1 64.2 L 298.1 64.2 L 298.0 64.3 L 298.0 64.3 L 297.9 64.4 L 297.2 64.5 L 296.3 64.8 L 295.3 65.1 L 294.1 65.5 L 290.5 66.5 L 286.9 67.8 L 283.3 69.1 L 276.9 71.5 L 270.2 74.3 L 263.0 77.5 L 255.6 81.1 L 248.6 84.8 L 241.3 88.9 L 236.0 92.5 L 232.4 95.5 L 227.2 99.5 L 220.8 104.4 L 217.2 108.0 L 213.7 111.8 L 210.3 115.8 L 204.7 121.3 L 198.8 127.2 L 195.6 131.8 L 193.1 136.1 L 190.6 140.6 L 188.2 145.2 L 185.0 150.7 L 180.2 157.6 L 176.1 164.3 L 174.1 169.6 L 172.8 174.6 L 171.7 179.5 L 170.8 184.5 L 170.0 189.5 L 169.4 194.6 L 169.2 199.4 L 168.9 204.6 L 168.8 209.7 L 169.0 214.7 L 169.3 219.8 L 169.8 224.8 L 170.4 229.9 L 171.2 234.9 L 172.3 239.8 L 173.5 244.6 L 175.0 249.3 L 176.7 253.9 L 178.4 258.5 L 180.5 262.9 L 182.7 267.2 L 185.1 271.3 L 187.6 275.5 L 190.3 279.4 L 193.1 283.2 L 196.0 287.1 L 199.0 290.8 L 202.3 294.3 L 205.6 297.7 L 209.1 300.9 L 212.7 303.9 L 216.3 307.0 L 220.1 309.8 L 224.0 312.7 L 228.0 315.2 L 232.0 317.8 L 236.2 319.9 L 240.4 322.1 L 244.7 324.0 L 249.1 325.8 L 253.6 327.4 L 258.0 329.0 L 262.6 330.2 L 267.1 331.6 L 271.7 332.8 L 276.4 333.7 L 281.1 334.4 L 285.8 335.0 L 290.5 335.4 L 295.3 335.6 L 300.0 335.7 Z" fill="none" stroke="#F32740" stroke-width="2.0" stroke-linejoin="round" stroke-linecap="round"/>
<text x="338" y="132" fill="#F32740" font-size="9.5" font-weight="700">100</text>
<text x="335" y="200" fill="#F32740" font-size="9.5" font-weight="700">200</text>
<text x="335" y="268" fill="#F32740" font-size="9.5" font-weight="700">300</text>
<text x="335" y="336" fill="#F32740" font-size="9.5" font-weight="700">400</text>
<rect x="274.0" y="58" width="52" height="11" rx="1.5" fill="#fafbfc" stroke="rgba(255,255,255,0.4)" stroke-width="0.5"/>
<line x1="272.0" y1="69.8" x2="328.0" y2="69.8" stroke="#F32740" stroke-width="0.7" stroke-dasharray="1.5 2"/>
<text x="300" y="66" text-anchor="middle" fill="#F32740" font-size="8" font-weight="700" letter-spacing="0.5">cd/klm SCALE</text>
<g transform="translate(22, 434)">
<text x="0" y="-8" fill="rgba(255,255,255,0.55)" font-size="8" letter-spacing="1.4">cd/klm</text>
<line x1="0" y1="6" x2="22" y2="6" stroke="#F32740" stroke-width="2.2"/>
<text x="28" y="9" fill="rgba(255,255,255,0.7)" font-size="9.5">C0 – C180</text>
<line x1="120" y1="6" x2="142" y2="6" stroke="#3FA9F5" stroke-width="1.7"/>
<text x="148" y="9" fill="rgba(255,255,255,0.7)" font-size="9.5">C90 – C270</text>
</g>
<text x="578" y="402" fill="rgba(255,255,255,0.45)" font-size="9" text-anchor="end">η = 133 lm/W</text>
<text x="578" y="418" fill="rgba(255,255,255,0.45)" font-size="9" text-anchor="end">19,111 lm · 143.6W</text>
<text x="578" y="434" fill="rgba(255,255,255,0.55)" font-size="8" letter-spacing="1.4" text-anchor="end">PEAK INTENSITY</text>
<text x="578" y="451" fill="#fff" font-weight="700" font-size="14" text-anchor="end">7,640 cd</text>
</svg>