<svg viewBox="0 0 600 460" xmlns="http://www.w3.org/2000/svg" font-family="JetBrains Mono, monospace" font-size="9.5">
<rect width="100%" height="100%" fill="#14171b"/>
<text x="22" y="26" fill="#F32740" font-weight="700" letter-spacing="2">LFLD3W150-3E1-UD-PS-100W-30K_IESNA2002 · 100W · 3000K · FLOOD</text>
<text x="22" y="42" fill="rgba(255,255,255,0.55)" font-size="8" letter-spacing="1.4">LUMINOUS INTENSITY DISTRIBUTION (cd/klm)</text>
<path d="M 232.0 64.0 A 68.0 68.0 0 0 0 368.0 64.0" fill="none" stroke="rgba(120,200,200,0.18)" stroke-width="0.7"/>
<path d="M 164.0 64.0 A 136.0 136.0 0 0 0 436.0 64.0" fill="none" stroke="rgba(120,200,200,0.18)" stroke-width="0.7"/>
<path d="M 96.0 64.0 A 204.0 204.0 0 0 0 504.0 64.0" fill="none" stroke="rgba(120,200,200,0.18)" stroke-width="0.7"/>
<path d="M 28.0 64.0 A 272.0 272.0 0 0 0 572.0 64.0" fill="none" stroke="rgba(120,200,200,0.18)" stroke-width="0.7"/>
<path d="M -40.0 64.0 A 340.0 340.0 0 0 0 640.0 64.0" fill="none" stroke="rgba(120,200,200,0.18)" stroke-width="0.7"/>
<line x1="300.0" y1="64" x2="388.0" y2="392.4" stroke="rgba(120,200,200,0.10)" stroke-width="0.5"/>
<line x1="300.0" y1="64" x2="212.0" y2="392.4" stroke="rgba(120,200,200,0.10)" stroke-width="0.5"/>
<line x1="300.0" y1="64" x2="470.0" y2="358.4" stroke="rgba(120,200,200,0.10)" stroke-width="0.5"/>
<line x1="300.0" y1="64" x2="130.0" y2="358.4" stroke="rgba(120,200,200,0.10)" stroke-width="0.5"/>
<line x1="300.0" y1="64" x2="540.4" y2="304.4" stroke="rgba(120,200,200,0.10)" stroke-width="0.5"/>
<line x1="300.0" y1="64" x2="59.6" y2="304.4" stroke="rgba(120,200,200,0.10)" stroke-width="0.5"/>
<line x1="300.0" y1="64" x2="594.4" y2="234.0" stroke="rgba(120,200,200,0.10)" stroke-width="0.5"/>
<line x1="300.0" y1="64" x2="5.6" y2="234.0" stroke="rgba(120,200,200,0.10)" stroke-width="0.5"/>
<line x1="300.0" y1="64" x2="628.4" y2="152.0" stroke="rgba(120,200,200,0.10)" stroke-width="0.5"/>
<line x1="300.0" y1="64" x2="-28.4" y2="152.0" stroke="rgba(120,200,200,0.10)" stroke-width="0.5"/>
<line x1="300.0" y1="64" x2="640.0" y2="64.0" stroke="rgba(120,200,200,0.10)" stroke-width="0.5"/>
<line x1="300.0" y1="64" x2="-40.0" y2="64.0" stroke="rgba(120,200,200,0.10)" stroke-width="0.5"/>
<line x1="300.0" y1="64" x2="300.0" y2="408" stroke="rgba(120,200,200,0.14)" stroke-width="0.5"/>
<line x1="-40.0" y1="64" x2="640.0" y2="64" stroke="rgba(120,200,200,0.14)" stroke-width="0.5"/>
<text x="391.6" y="408.9" text-anchor="middle" fill="rgba(255,255,255,0.4)" font-size="9">15°</text>
<text x="208.4" y="408.9" text-anchor="middle" fill="rgba(255,255,255,0.4)" font-size="9">15°</text>
<text x="477.0" y="373.6" text-anchor="middle" fill="rgba(255,255,255,0.6)" font-size="9">30°</text>
<text x="123.0" y="373.6" text-anchor="middle" fill="rgba(255,255,255,0.6)" font-size="9">30°</text>
<text x="550.3" y="317.3" text-anchor="middle" fill="rgba(255,255,255,0.4)" font-size="9">45°</text>
<text x="49.7" y="317.3" text-anchor="middle" fill="rgba(255,255,255,0.4)" font-size="9">45°</text>
<text x="606.6" y="244.0" text-anchor="middle" fill="rgba(255,255,255,0.6)" font-size="9">60°</text>
<text x="-6.6" y="244.0" text-anchor="middle" fill="rgba(255,255,255,0.6)" font-size="9">60°</text>
<text x="641.9" y="158.6" text-anchor="middle" fill="rgba(255,255,255,0.4)" font-size="9">75°</text>
<text x="-41.9" y="158.6" text-anchor="middle" fill="rgba(255,255,255,0.4)" font-size="9">75°</text>
<text x="654.0" y="67.0" text-anchor="middle" fill="rgba(255,255,255,0.6)" font-size="9">90°</text>
<text x="-54.0" y="67.0" text-anchor="middle" fill="rgba(255,255,255,0.6)" font-size="9">90°</text>
<text x="300" y="426" text-anchor="middle" fill="rgba(255,255,255,0.6)" font-size="9">0°</text>
<path d="M 300.0 281.5 L 303.8 281.7 L 307.6 282.1 L 311.4 281.4 L 315.1 280.6 L 318.9 280.1 L 322.7 280.0 L 326.4 279.2 L 330.0 277.8 L 333.7 276.5 L 337.3 275.7 L 340.9 274.6 L 344.4 272.9 L 347.9 271.3 L 351.2 269.3 L 354.6 267.9 L 357.9 266.1 L 361.1 263.7 L 364.1 261.3 L 367.3 259.4 L 370.3 257.2 L 373.2 254.8 L 375.8 251.7 L 378.5 249.0 L 381.3 246.6 L 383.9 243.9 L 386.1 240.4 L 388.2 237.1 L 390.6 234.4 L 392.8 231.5 L 394.7 228.0 L 396.3 224.2 L 398.0 220.9 L 399.8 217.7 L 401.3 214.2 L 402.3 210.2 L 403.4 206.3 L 404.6 202.9 L 405.7 199.3 L 406.2 195.1 L 406.6 191.0 L 407.1 187.2 L 407.7 183.6 L 407.7 179.5 L 407.5 175.3 L 407.2 171.2 L 407.1 167.4 L 406.7 163.5 L 406.0 159.4 L 404.9 155.2 L 403.9 151.2 L 402.9 147.3 L 401.3 143.2 L 398.9 138.6 L 396.2 133.9 L 393.3 129.3 L 390.3 124.9 L 386.8 120.4 L 383.2 116.0 L 379.7 111.9 L 376.2 108.0 L 372.2 104.0 L 368.1 100.2 L 363.8 96.5 L 359.7 93.1 L 355.4 89.8 L 351.1 86.8 L 346.7 83.8 L 342.4 81.1 L 338.0 78.6 L 333.6 76.2 L 329.4 74.1 L 325.1 72.2 L 321.2 70.5 L 317.4 69.0 L 314.2 67.8 L 310.9 66.7 L 307.5 65.7 L 304.9 65.0 L 302.8 64.6 L 302.4 64.4 L 302.1 64.3 L 301.8 64.2 L 301.5 64.2 L 301.5 64.2 L 301.4 64.1 L 301.3 64.1 L 301.3 64.1 L 301.3 64.0 L 301.3 64.0 L 301.2 64.0 L 298.8 64.0 L 298.8 64.0 L 298.8 64.0 L 298.8 64.1 L 298.8 64.1 L 298.8 64.1 L 298.8 64.1 L 298.8 64.2 L 298.8 64.2 L 298.7 64.2 L 298.5 64.3 L 298.1 64.4 L 297.7 64.5 L 296.1 64.9 L 294.4 65.4 L 291.5 66.3 L 288.3 67.4 L 284.9 68.6 L 281.2 70.1 L 277.4 71.8 L 273.2 73.8 L 268.9 75.9 L 264.7 78.3 L 260.2 80.9 L 255.8 83.7 L 251.5 86.6 L 247.1 89.8 L 242.9 93.1 L 238.7 96.6 L 234.6 100.2 L 230.4 104.2 L 226.7 108.0 L 223.1 112.1 L 219.4 116.4 L 215.7 120.8 L 212.7 125.1 L 209.7 129.6 L 206.8 134.2 L 203.8 139.1 L 201.2 144.0 L 199.5 148.4 L 197.9 152.8 L 196.4 157.3 L 195.6 161.4 L 195.1 165.3 L 194.7 169.3 L 194.3 173.5 L 193.9 177.7 L 194.1 181.6 L 194.6 185.3 L 194.8 189.3 L 195.1 193.5 L 195.6 197.6 L 196.8 200.9 L 197.8 204.7 L 198.7 208.7 L 199.8 212.6 L 201.3 215.9 L 203.0 219.2 L 204.6 222.8 L 206.1 226.6 L 208.1 229.9 L 210.2 232.9 L 212.3 236.1 L 214.4 239.4 L 216.8 242.5 L 219.3 245.3 L 222.0 247.8 L 224.6 250.5 L 227.3 253.5 L 230.1 256.1 L 233.0 258.5 L 236.2 260.4 L 239.2 262.8 L 242.3 265.3 L 245.6 267.2 L 249.0 268.5 L 252.3 270.4 L 255.7 272.6 L 259.1 274.2 L 262.8 275.1 L 266.4 276.2 L 270.0 277.5 L 273.6 279.0 L 277.3 279.6 L 281.1 279.8 L 284.9 280.6 L 288.6 281.5 L 292.4 282.1 L 296.2 281.7 L 300.0 281.5 Z" fill="none" stroke="#3FA9F5" stroke-width="1.7" stroke-linejoin="round" stroke-linecap="round"/>
<path d="M 300.0 281.5 L 303.8 280.9 L 307.6 280.3 L 311.3 280.0 L 315.1 280.0 L 318.8 279.1 L 322.5 277.7 L 326.1 276.9 L 329.9 276.4 L 333.4 275.1 L 336.9 273.1 L 340.4 271.6 L 343.8 270.3 L 347.2 268.4 L 350.3 265.6 L 353.4 263.3 L 356.6 261.4 L 359.6 259.1 L 362.4 256.1 L 365.2 253.3 L 368.0 250.9 L 370.8 248.4 L 373.1 244.9 L 375.6 242.0 L 378.0 239.2 L 380.5 236.7 L 382.5 233.1 L 384.5 229.8 L 386.5 226.6 L 388.6 223.8 L 390.1 220.1 L 391.5 216.2 L 389.6 207.3 L 383.8 193.0 L 383.5 187.8 L 384.3 184.3 L 385.0 181.0 L 385.9 178.0 L 386.3 174.5 L 386.6 170.9 L 382.1 161.8 L 374.9 150.1 L 374.4 146.6 L 374.1 143.4 L 373.7 140.3 L 373.4 137.4 L 372.0 133.6 L 360.9 120.8 L 359.2 117.3 L 358.5 114.9 L 357.7 112.4 L 356.4 109.7 L 344.7 98.9 L 343.3 96.6 L 342.2 94.7 L 337.9 90.5 L 333.4 86.5 L 328.7 82.7 L 327.6 81.3 L 319.6 75.8 L 316.5 73.5 L 315.7 72.7 L 307.0 67.7 L 306.4 67.3 L 305.7 66.8 L 305.0 66.3 L 304.4 65.9 L 303.7 65.6 L 303.1 65.2 L 302.5 65.0 L 302.0 64.7 L 301.5 64.5 L 301.1 64.4 L 301.1 64.3 L 301.1 64.3 L 301.1 64.3 L 301.1 64.3 L 301.2 64.3 L 301.2 64.2 L 301.2 64.2 L 301.2 64.2 L 301.2 64.2 L 301.2 64.2 L 301.2 64.2 L 301.2 64.1 L 301.2 64.1 L 301.2 64.1 L 301.2 64.1 L 301.2 64.0 L 301.2 64.0 L 301.2 64.0 L 298.9 64.0 L 298.9 64.0 L 298.8 64.0 L 298.8 64.1 L 298.7 64.1 L 298.7 64.1 L 298.6 64.1 L 298.6 64.2 L 298.5 64.2 L 298.5 64.2 L 298.5 64.3 L 298.1 64.4 L 297.5 64.5 L 296.8 64.7 L 296.0 65.0 L 295.2 65.3 L 294.5 65.6 L 293.9 65.9 L 288.4 67.8 L 282.9 69.9 L 278.5 71.8 L 271.1 75.1 L 267.7 77.0 L 259.1 81.3 L 255.2 84.0 L 247.8 88.3 L 241.6 92.5 L 238.9 95.2 L 229.3 101.6 L 223.6 106.3 L 221.4 109.4 L 219.1 112.6 L 216.9 115.9 L 214.9 119.3 L 211.7 123.6 L 205.1 130.5 L 198.7 137.6 L 196.1 142.3 L 195.3 145.8 L 194.2 149.7 L 192.9 153.8 L 192.0 157.9 L 191.8 161.5 L 191.2 165.4 L 190.4 169.8 L 189.9 174.1 L 190.0 177.9 L 190.1 181.9 L 189.9 186.2 L 190.0 190.6 L 190.8 194.2 L 191.5 198.0 L 192.1 202.1 L 192.8 206.3 L 194.1 209.7 L 195.5 213.2 L 196.9 216.8 L 198.2 220.8 L 200.0 224.0 L 201.9 227.2 L 203.8 230.6 L 205.7 234.1 L 207.9 237.2 L 210.3 240.0 L 212.9 242.7 L 215.0 246.2 L 217.7 248.8 L 220.6 251.0 L 223.4 253.6 L 226.1 256.6 L 229.1 258.9 L 232.3 260.7 L 235.4 262.7 L 238.5 265.3 L 241.7 267.2 L 245.2 268.6 L 248.7 269.9 L 252.0 272.1 L 255.4 273.7 L 259.0 274.7 L 262.7 275.5 L 266.3 277.1 L 269.9 278.4 L 273.6 278.9 L 277.4 279.2 L 281.1 280.1 L 284.8 280.9 L 288.6 281.0 L 292.4 280.6 L 296.2 281.2 L 300.0 281.5 Z" fill="none" stroke="#F32740" stroke-width="2.0" stroke-linejoin="round" stroke-linecap="round"/>
<text x="338" y="132" fill="#F32740" font-size="9.5" font-weight="700">125</text>
<text x="335" y="200" fill="#F32740" font-size="9.5" font-weight="700">250</text>
<text x="335" y="268" fill="#F32740" font-size="9.5" font-weight="700">375</text>
<text x="335" y="336" fill="#F32740" font-size="9.5" font-weight="700">500</text>
<rect x="274.0" y="58" width="52" height="11" rx="1.5" fill="#fafbfc" stroke="rgba(255,255,255,0.4)" stroke-width="0.5"/>
<line x1="272.0" y1="69.8" x2="328.0" y2="69.8" stroke="#F32740" stroke-width="0.7" stroke-dasharray="1.5 2"/>
<text x="300" y="66" text-anchor="middle" fill="#F32740" font-size="8" font-weight="700" letter-spacing="0.5">cd/klm SCALE</text>
<g transform="translate(22, 434)">
<text x="0" y="-8" fill="rgba(255,255,255,0.55)" font-size="8" letter-spacing="1.4">cd/klm</text>
<line x1="0" y1="6" x2="22" y2="6" stroke="#F32740" stroke-width="2.2"/>
<text x="28" y="9" fill="rgba(255,255,255,0.7)" font-size="9.5">C0 – C180</text>
<line x1="120" y1="6" x2="142" y2="6" stroke="#3FA9F5" stroke-width="1.7"/>
<text x="148" y="9" fill="rgba(255,255,255,0.7)" font-size="9.5">C90 – C270</text>
</g>
<text x="578" y="402" fill="rgba(255,255,255,0.45)" font-size="9" text-anchor="end">η = 130 lm/W</text>
<text x="578" y="418" fill="rgba(255,255,255,0.45)" font-size="9" text-anchor="end">12,853 lm · 98.9W</text>
<text x="578" y="434" fill="rgba(255,255,255,0.55)" font-size="8" letter-spacing="1.4" text-anchor="end">PEAK INTENSITY</text>
<text x="578" y="451" fill="#fff" font-weight="700" font-size="14" text-anchor="end">5,156 cd</text>
</svg>