<svg viewBox="0 0 600 460" xmlns="http://www.w3.org/2000/svg" font-family="JetBrains Mono, monospace" font-size="9.5">
<rect width="100%" height="100%" fill="#14171b"/>
<text x="22" y="26" fill="#F32740" font-weight="700" letter-spacing="2">LFLD3W80-3E1-UDPS-30K_IESNA2002 · 0W · 3000K · FLOOD</text>
<text x="22" y="42" fill="rgba(255,255,255,0.55)" font-size="8" letter-spacing="1.4">LUMINOUS INTENSITY DISTRIBUTION (cd/klm)</text>
<path d="M 232.0 64.0 A 68.0 68.0 0 0 0 368.0 64.0" fill="none" stroke="rgba(120,200,200,0.18)" stroke-width="0.7"/>
<path d="M 164.0 64.0 A 136.0 136.0 0 0 0 436.0 64.0" fill="none" stroke="rgba(120,200,200,0.18)" stroke-width="0.7"/>
<path d="M 96.0 64.0 A 204.0 204.0 0 0 0 504.0 64.0" fill="none" stroke="rgba(120,200,200,0.18)" stroke-width="0.7"/>
<path d="M 28.0 64.0 A 272.0 272.0 0 0 0 572.0 64.0" fill="none" stroke="rgba(120,200,200,0.18)" stroke-width="0.7"/>
<path d="M -40.0 64.0 A 340.0 340.0 0 0 0 640.0 64.0" fill="none" stroke="rgba(120,200,200,0.18)" stroke-width="0.7"/>
<line x1="300.0" y1="64" x2="388.0" y2="392.4" stroke="rgba(120,200,200,0.10)" stroke-width="0.5"/>
<line x1="300.0" y1="64" x2="212.0" y2="392.4" stroke="rgba(120,200,200,0.10)" stroke-width="0.5"/>
<line x1="300.0" y1="64" x2="470.0" y2="358.4" stroke="rgba(120,200,200,0.10)" stroke-width="0.5"/>
<line x1="300.0" y1="64" x2="130.0" y2="358.4" stroke="rgba(120,200,200,0.10)" stroke-width="0.5"/>
<line x1="300.0" y1="64" x2="540.4" y2="304.4" stroke="rgba(120,200,200,0.10)" stroke-width="0.5"/>
<line x1="300.0" y1="64" x2="59.6" y2="304.4" stroke="rgba(120,200,200,0.10)" stroke-width="0.5"/>
<line x1="300.0" y1="64" x2="594.4" y2="234.0" stroke="rgba(120,200,200,0.10)" stroke-width="0.5"/>
<line x1="300.0" y1="64" x2="5.6" y2="234.0" stroke="rgba(120,200,200,0.10)" stroke-width="0.5"/>
<line x1="300.0" y1="64" x2="628.4" y2="152.0" stroke="rgba(120,200,200,0.10)" stroke-width="0.5"/>
<line x1="300.0" y1="64" x2="-28.4" y2="152.0" stroke="rgba(120,200,200,0.10)" stroke-width="0.5"/>
<line x1="300.0" y1="64" x2="640.0" y2="64.0" stroke="rgba(120,200,200,0.10)" stroke-width="0.5"/>
<line x1="300.0" y1="64" x2="-40.0" y2="64.0" stroke="rgba(120,200,200,0.10)" stroke-width="0.5"/>
<line x1="300.0" y1="64" x2="300.0" y2="408" stroke="rgba(120,200,200,0.14)" stroke-width="0.5"/>
<line x1="-40.0" y1="64" x2="640.0" y2="64" stroke="rgba(120,200,200,0.14)" stroke-width="0.5"/>
<text x="391.6" y="408.9" text-anchor="middle" fill="rgba(255,255,255,0.4)" font-size="9">15°</text>
<text x="208.4" y="408.9" text-anchor="middle" fill="rgba(255,255,255,0.4)" font-size="9">15°</text>
<text x="477.0" y="373.6" text-anchor="middle" fill="rgba(255,255,255,0.6)" font-size="9">30°</text>
<text x="123.0" y="373.6" text-anchor="middle" fill="rgba(255,255,255,0.6)" font-size="9">30°</text>
<text x="550.3" y="317.3" text-anchor="middle" fill="rgba(255,255,255,0.4)" font-size="9">45°</text>
<text x="49.7" y="317.3" text-anchor="middle" fill="rgba(255,255,255,0.4)" font-size="9">45°</text>
<text x="606.6" y="244.0" text-anchor="middle" fill="rgba(255,255,255,0.6)" font-size="9">60°</text>
<text x="-6.6" y="244.0" text-anchor="middle" fill="rgba(255,255,255,0.6)" font-size="9">60°</text>
<text x="641.9" y="158.6" text-anchor="middle" fill="rgba(255,255,255,0.4)" font-size="9">75°</text>
<text x="-41.9" y="158.6" text-anchor="middle" fill="rgba(255,255,255,0.4)" font-size="9">75°</text>
<text x="654.0" y="67.0" text-anchor="middle" fill="rgba(255,255,255,0.6)" font-size="9">90°</text>
<text x="-54.0" y="67.0" text-anchor="middle" fill="rgba(255,255,255,0.6)" font-size="9">90°</text>
<text x="300" y="426" text-anchor="middle" fill="rgba(255,255,255,0.6)" font-size="9">0°</text>
<path d="M 300.0 284.9 L 303.9 284.9 L 307.7 284.7 L 311.6 284.6 L 315.4 284.2 L 319.2 283.7 L 323.0 282.9 L 326.8 282.2 L 330.5 281.2 L 334.2 280.2 L 337.9 279.0 L 341.5 277.7 L 345.1 276.3 L 348.7 274.7 L 352.1 272.9 L 355.5 271.2 L 358.9 269.3 L 362.1 267.2 L 365.3 265.0 L 368.4 262.8 L 371.5 260.3 L 374.4 257.9 L 377.3 255.3 L 380.1 252.6 L 382.7 249.8 L 385.3 247.0 L 387.7 243.8 L 390.1 240.8 L 392.3 237.5 L 394.4 234.3 L 396.3 230.9 L 398.2 227.4 L 400.0 224.0 L 401.6 220.4 L 403.0 216.8 L 404.3 213.0 L 405.5 209.2 L 406.5 205.4 L 407.4 201.5 L 408.2 197.6 L 408.7 193.6 L 409.3 189.7 L 409.5 185.6 L 409.6 181.5 L 409.5 177.4 L 409.3 173.3 L 408.8 169.1 L 408.2 164.9 L 407.5 160.8 L 406.6 156.7 L 405.6 152.6 L 404.4 148.5 L 403.0 144.5 L 401.6 140.5 L 400.0 136.7 L 398.2 132.8 L 396.2 128.9 L 394.1 125.1 L 391.2 121.0 L 387.9 116.8 L 384.9 113.0 L 382.2 109.6 L 378.6 105.8 L 374.8 102.1 L 370.2 98.2 L 365.1 94.4 L 360.0 90.7 L 354.5 87.1 L 349.3 83.9 L 343.9 80.8 L 338.4 78.0 L 333.3 75.5 L 328.4 73.2 L 323.6 71.2 L 319.3 69.5 L 315.1 68.0 L 310.7 66.7 L 307.1 65.6 L 304.0 64.9 L 303.0 64.6 L 302.4 64.4 L 301.8 64.3 L 301.4 64.2 L 301.3 64.2 L 301.3 64.1 L 301.3 64.1 L 301.3 64.1 L 301.3 64.1 L 301.3 64.0 L 301.3 64.0 L 301.3 64.0 L 298.8 64.0 L 298.8 64.0 L 298.8 64.0 L 298.8 64.1 L 298.8 64.1 L 298.8 64.1 L 298.7 64.1 L 298.7 64.2 L 298.7 64.2 L 298.4 64.3 L 297.9 64.4 L 297.4 64.5 L 296.7 64.7 L 294.3 65.3 L 292.0 66.0 L 288.8 67.0 L 285.2 68.2 L 281.4 69.7 L 277.3 71.4 L 272.9 73.3 L 268.4 75.5 L 263.7 77.9 L 258.8 80.6 L 254.0 83.5 L 248.9 86.7 L 244.2 90.0 L 240.0 93.3 L 235.9 96.7 L 231.9 100.2 L 228.4 103.7 L 225.4 107.1 L 221.9 110.9 L 218.8 114.8 L 216.4 118.3 L 213.7 122.2 L 210.6 126.6 L 208.0 130.8 L 206.1 134.7 L 204.4 138.7 L 202.9 142.6 L 201.5 146.6 L 200.3 150.6 L 199.2 154.7 L 198.4 158.8 L 197.5 163.0 L 197.0 167.0 L 196.5 171.2 L 196.2 175.3 L 196.0 179.5 L 196.1 183.5 L 196.3 187.6 L 196.7 191.6 L 197.2 195.6 L 197.9 199.5 L 198.6 203.5 L 199.6 207.4 L 200.7 211.2 L 202.0 214.9 L 203.4 218.6 L 204.9 222.2 L 206.6 225.8 L 208.4 229.3 L 210.3 232.7 L 212.3 236.0 L 214.5 239.2 L 216.9 242.3 L 219.2 245.4 L 221.7 248.4 L 224.4 251.2 L 227.1 254.0 L 229.9 256.7 L 232.8 259.2 L 235.8 261.7 L 238.9 264.0 L 242.0 266.3 L 245.2 268.4 L 248.6 270.3 L 251.9 272.3 L 255.4 273.9 L 258.9 275.7 L 262.4 277.1 L 266.0 278.5 L 269.7 279.7 L 273.4 281.0 L 277.1 281.8 L 280.9 282.6 L 284.7 283.3 L 288.5 284.1 L 292.3 284.4 L 296.1 284.7 L 300.0 284.9 Z" fill="none" stroke="#3FA9F5" stroke-width="1.7" stroke-linejoin="round" stroke-linecap="round"/>
<path d="M 300.0 284.9 L 303.9 284.7 L 307.7 284.6 L 311.5 284.1 L 315.4 283.7 L 319.2 283.0 L 322.9 282.3 L 326.7 281.3 L 330.4 280.3 L 334.1 279.3 L 337.7 277.9 L 341.3 276.5 L 344.8 274.8 L 348.3 273.2 L 351.7 271.3 L 355.0 269.4 L 358.3 267.2 L 361.4 265.0 L 364.4 262.3 L 367.4 259.6 L 370.1 256.6 L 372.8 253.7 L 375.3 250.4 L 377.8 247.2 L 380.1 243.9 L 382.3 240.5 L 384.5 237.2 L 386.6 233.9 L 388.5 230.5 L 390.5 227.2 L 392.2 223.7 L 393.7 220.0 L 395.2 216.4 L 396.5 212.6 L 396.6 207.2 L 389.5 191.9 L 385.4 181.5 L 385.6 177.6 L 386.1 174.2 L 386.4 170.7 L 386.6 167.2 L 384.9 161.7 L 375.1 147.4 L 371.7 140.9 L 371.3 137.8 L 370.8 134.8 L 370.2 131.8 L 364.4 124.0 L 354.7 113.3 L 353.7 110.6 L 352.6 108.2 L 351.3 105.5 L 340.9 95.9 L 336.8 91.7 L 335.7 89.9 L 333.4 87.4 L 322.8 79.4 L 321.1 77.7 L 319.7 76.3 L 309.9 69.9 L 308.6 68.9 L 308.0 68.4 L 307.2 67.8 L 306.5 67.3 L 305.8 66.8 L 305.1 66.4 L 304.5 66.0 L 303.8 65.6 L 303.2 65.3 L 302.7 65.0 L 302.2 64.8 L 301.8 64.6 L 301.7 64.5 L 301.7 64.5 L 301.7 64.5 L 301.7 64.4 L 301.7 64.4 L 301.7 64.4 L 301.7 64.4 L 301.7 64.3 L 301.6 64.3 L 301.6 64.2 L 301.5 64.2 L 301.4 64.2 L 301.3 64.1 L 301.2 64.1 L 301.2 64.1 L 301.2 64.1 L 301.2 64.0 L 301.2 64.0 L 301.2 64.0 L 299.0 64.0 L 298.9 64.0 L 298.8 64.0 L 298.8 64.1 L 298.7 64.1 L 298.6 64.1 L 298.6 64.1 L 298.5 64.2 L 298.5 64.2 L 298.5 64.2 L 298.5 64.3 L 298.5 64.3 L 298.0 64.4 L 297.3 64.6 L 296.4 64.9 L 295.5 65.2 L 294.4 65.6 L 293.4 66.0 L 292.3 66.5 L 291.0 67.1 L 285.8 69.2 L 280.8 71.4 L 275.8 73.8 L 271.1 76.3 L 264.3 79.9 L 260.3 82.5 L 252.9 87.0 L 247.8 90.6 L 243.0 94.3 L 236.5 99.2 L 230.7 104.0 L 227.8 107.4 L 224.4 111.3 L 220.9 115.3 L 218.7 118.8 L 214.8 123.7 L 208.2 130.7 L 202.2 137.7 L 199.4 142.6 L 198.1 146.5 L 196.9 150.5 L 195.9 154.5 L 195.1 158.4 L 194.5 162.4 L 193.9 166.5 L 193.3 170.7 L 193.0 174.8 L 192.7 179.0 L 192.6 183.3 L 192.9 187.2 L 193.1 191.4 L 193.5 195.6 L 194.0 199.7 L 194.8 203.7 L 195.6 207.6 L 196.8 211.4 L 197.9 215.3 L 199.3 219.1 L 200.8 222.8 L 202.4 226.4 L 204.2 230.0 L 206.1 233.3 L 208.2 236.7 L 210.3 240.1 L 212.7 243.0 L 215.1 246.1 L 217.6 249.1 L 220.2 252.0 L 223.0 254.7 L 225.8 257.3 L 228.7 259.9 L 231.7 262.4 L 234.8 264.6 L 238.0 266.8 L 241.3 268.8 L 244.6 270.8 L 248.0 272.6 L 251.4 274.3 L 255.0 275.8 L 258.5 277.4 L 262.2 278.6 L 265.8 279.9 L 269.5 281.0 L 273.3 281.9 L 277.0 282.6 L 280.8 283.3 L 284.6 283.9 L 288.5 284.2 L 292.3 284.6 L 296.1 284.8 L 300.0 284.9 Z" fill="none" stroke="#F32740" stroke-width="2.0" stroke-linejoin="round" stroke-linecap="round"/>
<text x="338" y="132" fill="#F32740" font-size="9.5" font-weight="700">125</text>
<text x="335" y="200" fill="#F32740" font-size="9.5" font-weight="700">250</text>
<text x="335" y="268" fill="#F32740" font-size="9.5" font-weight="700">375</text>
<text x="335" y="336" fill="#F32740" font-size="9.5" font-weight="700">500</text>
<rect x="274.0" y="58" width="52" height="11" rx="1.5" fill="#fafbfc" stroke="rgba(255,255,255,0.4)" stroke-width="0.5"/>
<line x1="272.0" y1="69.8" x2="328.0" y2="69.8" stroke="#F32740" stroke-width="0.7" stroke-dasharray="1.5 2"/>
<text x="300" y="66" text-anchor="middle" fill="#F32740" font-size="8" font-weight="700" letter-spacing="0.5">cd/klm SCALE</text>
<g transform="translate(22, 434)">
<text x="0" y="-8" fill="rgba(255,255,255,0.55)" font-size="8" letter-spacing="1.4">cd/klm</text>
<line x1="0" y1="6" x2="22" y2="6" stroke="#F32740" stroke-width="2.2"/>
<text x="28" y="9" fill="rgba(255,255,255,0.7)" font-size="9.5">C0 – C180</text>
<line x1="120" y1="6" x2="142" y2="6" stroke="#3FA9F5" stroke-width="1.7"/>
<text x="148" y="9" fill="rgba(255,255,255,0.7)" font-size="9.5">C90 – C270</text>
</g>
<text x="578" y="402" fill="rgba(255,255,255,0.45)" font-size="9" text-anchor="end">η = 116 lm/W</text>
<text x="578" y="418" fill="rgba(255,255,255,0.45)" font-size="9" text-anchor="end">8,857 lm · 76.4W</text>
<text x="578" y="434" fill="rgba(255,255,255,0.55)" font-size="8" letter-spacing="1.4" text-anchor="end">PEAK INTENSITY</text>
<text x="578" y="451" fill="#fff" font-weight="700" font-size="14" text-anchor="end">3,597 cd</text>
</svg>