<svg viewBox="0 0 600 460" xmlns="http://www.w3.org/2000/svg" font-family="JetBrains Mono, monospace" font-size="9.5">
<rect width="100%" height="100%" fill="#14171b"/>
<text x="22" y="26" fill="#F32740" font-weight="700" letter-spacing="2">LFLD3W80-3E1-UD-PS-80W-40K_IESNA2002 · 80W · 4000K · FLOOD</text>
<text x="22" y="42" fill="rgba(255,255,255,0.55)" font-size="8" letter-spacing="1.4">LUMINOUS INTENSITY DISTRIBUTION (cd/klm)</text>
<path d="M 232.0 64.0 A 68.0 68.0 0 0 0 368.0 64.0" fill="none" stroke="rgba(120,200,200,0.18)" stroke-width="0.7"/>
<path d="M 164.0 64.0 A 136.0 136.0 0 0 0 436.0 64.0" fill="none" stroke="rgba(120,200,200,0.18)" stroke-width="0.7"/>
<path d="M 96.0 64.0 A 204.0 204.0 0 0 0 504.0 64.0" fill="none" stroke="rgba(120,200,200,0.18)" stroke-width="0.7"/>
<path d="M 28.0 64.0 A 272.0 272.0 0 0 0 572.0 64.0" fill="none" stroke="rgba(120,200,200,0.18)" stroke-width="0.7"/>
<path d="M -40.0 64.0 A 340.0 340.0 0 0 0 640.0 64.0" fill="none" stroke="rgba(120,200,200,0.18)" stroke-width="0.7"/>
<line x1="300.0" y1="64" x2="388.0" y2="392.4" stroke="rgba(120,200,200,0.10)" stroke-width="0.5"/>
<line x1="300.0" y1="64" x2="212.0" y2="392.4" stroke="rgba(120,200,200,0.10)" stroke-width="0.5"/>
<line x1="300.0" y1="64" x2="470.0" y2="358.4" stroke="rgba(120,200,200,0.10)" stroke-width="0.5"/>
<line x1="300.0" y1="64" x2="130.0" y2="358.4" stroke="rgba(120,200,200,0.10)" stroke-width="0.5"/>
<line x1="300.0" y1="64" x2="540.4" y2="304.4" stroke="rgba(120,200,200,0.10)" stroke-width="0.5"/>
<line x1="300.0" y1="64" x2="59.6" y2="304.4" stroke="rgba(120,200,200,0.10)" stroke-width="0.5"/>
<line x1="300.0" y1="64" x2="594.4" y2="234.0" stroke="rgba(120,200,200,0.10)" stroke-width="0.5"/>
<line x1="300.0" y1="64" x2="5.6" y2="234.0" stroke="rgba(120,200,200,0.10)" stroke-width="0.5"/>
<line x1="300.0" y1="64" x2="628.4" y2="152.0" stroke="rgba(120,200,200,0.10)" stroke-width="0.5"/>
<line x1="300.0" y1="64" x2="-28.4" y2="152.0" stroke="rgba(120,200,200,0.10)" stroke-width="0.5"/>
<line x1="300.0" y1="64" x2="640.0" y2="64.0" stroke="rgba(120,200,200,0.10)" stroke-width="0.5"/>
<line x1="300.0" y1="64" x2="-40.0" y2="64.0" stroke="rgba(120,200,200,0.10)" stroke-width="0.5"/>
<line x1="300.0" y1="64" x2="300.0" y2="408" stroke="rgba(120,200,200,0.14)" stroke-width="0.5"/>
<line x1="-40.0" y1="64" x2="640.0" y2="64" stroke="rgba(120,200,200,0.14)" stroke-width="0.5"/>
<text x="391.6" y="408.9" text-anchor="middle" fill="rgba(255,255,255,0.4)" font-size="9">15°</text>
<text x="208.4" y="408.9" text-anchor="middle" fill="rgba(255,255,255,0.4)" font-size="9">15°</text>
<text x="477.0" y="373.6" text-anchor="middle" fill="rgba(255,255,255,0.6)" font-size="9">30°</text>
<text x="123.0" y="373.6" text-anchor="middle" fill="rgba(255,255,255,0.6)" font-size="9">30°</text>
<text x="550.3" y="317.3" text-anchor="middle" fill="rgba(255,255,255,0.4)" font-size="9">45°</text>
<text x="49.7" y="317.3" text-anchor="middle" fill="rgba(255,255,255,0.4)" font-size="9">45°</text>
<text x="606.6" y="244.0" text-anchor="middle" fill="rgba(255,255,255,0.6)" font-size="9">60°</text>
<text x="-6.6" y="244.0" text-anchor="middle" fill="rgba(255,255,255,0.6)" font-size="9">60°</text>
<text x="641.9" y="158.6" text-anchor="middle" fill="rgba(255,255,255,0.4)" font-size="9">75°</text>
<text x="-41.9" y="158.6" text-anchor="middle" fill="rgba(255,255,255,0.4)" font-size="9">75°</text>
<text x="654.0" y="67.0" text-anchor="middle" fill="rgba(255,255,255,0.6)" font-size="9">90°</text>
<text x="-54.0" y="67.0" text-anchor="middle" fill="rgba(255,255,255,0.6)" font-size="9">90°</text>
<text x="300" y="426" text-anchor="middle" fill="rgba(255,255,255,0.6)" font-size="9">0°</text>
<path d="M 300.0 291.0 L 304.0 291.0 L 307.9 290.7 L 311.9 290.5 L 315.8 290.1 L 319.7 289.6 L 323.6 288.9 L 327.5 288.0 L 331.4 287.3 L 335.2 286.2 L 339.0 285.1 L 342.7 283.6 L 346.4 282.1 L 350.0 280.6 L 353.6 278.9 L 357.1 277.0 L 360.5 275.0 L 363.9 272.8 L 367.2 270.8 L 370.4 268.5 L 373.5 266.0 L 376.6 263.5 L 379.5 260.8 L 382.5 258.2 L 385.2 255.3 L 387.9 252.5 L 390.5 249.6 L 392.9 246.3 L 395.2 243.0 L 397.4 239.7 L 399.5 236.3 L 401.4 232.8 L 403.2 229.2 L 405.1 225.8 L 406.4 221.8 L 407.9 218.1 L 409.0 214.0 L 410.3 210.4 L 411.2 206.3 L 412.0 202.3 L 412.6 198.2 L 413.2 194.2 L 413.4 190.0 L 413.8 186.0 L 413.7 181.8 L 413.5 177.5 L 413.1 173.2 L 412.6 169.0 L 411.8 164.7 L 411.0 160.5 L 410.1 156.4 L 408.7 152.0 L 407.4 147.9 L 405.9 143.8 L 404.2 139.7 L 402.4 135.7 L 400.3 131.7 L 398.0 127.6 L 394.9 123.3 L 391.5 119.0 L 388.6 115.1 L 385.8 111.5 L 381.9 107.5 L 378.1 103.8 L 374.9 100.5 L 370.5 96.9 L 365.9 93.3 L 360.8 89.8 L 355.2 86.3 L 349.5 83.0 L 343.9 80.0 L 338.4 77.2 L 333.1 74.8 L 327.9 72.5 L 322.9 70.6 L 318.6 69.0 L 314.2 67.6 L 309.9 66.3 L 306.3 65.3 L 303.5 64.7 L 302.6 64.5 L 302.0 64.3 L 301.6 64.2 L 301.3 64.2 L 301.3 64.1 L 301.4 64.1 L 301.3 64.1 L 301.3 64.1 L 301.3 64.0 L 301.3 64.0 L 301.3 64.0 L 298.8 64.0 L 298.8 64.0 L 298.8 64.0 L 298.8 64.1 L 298.8 64.1 L 298.8 64.1 L 298.8 64.1 L 298.8 64.1 L 298.8 64.2 L 298.7 64.2 L 298.3 64.3 L 297.9 64.4 L 297.2 64.6 L 294.8 65.2 L 292.4 65.9 L 290.0 66.7 L 286.2 68.0 L 282.0 69.5 L 277.7 71.2 L 272.9 73.3 L 268.1 75.6 L 263.1 78.2 L 257.9 81.0 L 252.9 84.0 L 247.4 87.4 L 242.0 91.0 L 236.8 94.8 L 231.8 98.7 L 226.9 102.9 L 222.0 107.3 L 217.9 111.4 L 214.4 115.4 L 211.8 119.1 L 208.9 123.1 L 205.7 127.6 L 203.0 131.9 L 201.0 135.9 L 199.2 140.0 L 197.5 144.1 L 196.0 148.2 L 194.8 152.3 L 193.6 156.5 L 192.7 160.6 L 191.7 165.0 L 191.1 169.1 L 190.7 173.3 L 190.4 177.5 L 190.1 181.9 L 190.2 186.0 L 190.4 190.1 L 190.7 194.3 L 191.2 198.4 L 191.8 202.5 L 192.6 206.5 L 193.5 210.5 L 194.7 214.4 L 196.0 218.3 L 197.3 222.1 L 199.0 225.7 L 200.6 229.4 L 202.4 233.0 L 204.4 236.5 L 206.4 240.0 L 208.7 243.2 L 211.0 246.5 L 213.4 249.6 L 216.0 252.6 L 218.7 255.6 L 221.4 258.5 L 224.4 261.0 L 227.3 263.7 L 230.4 266.2 L 233.5 268.8 L 236.7 270.9 L 240.0 273.1 L 243.4 275.2 L 246.8 277.3 L 250.4 278.8 L 254.0 280.6 L 257.5 282.4 L 261.3 283.6 L 265.0 285.1 L 268.8 286.3 L 272.6 287.3 L 276.4 288.1 L 280.3 289.1 L 284.2 289.5 L 288.1 290.4 L 292.1 290.5 L 296.0 290.9 L 300.0 291.0 Z" fill="none" stroke="#3FA9F5" stroke-width="1.7" stroke-linejoin="round" stroke-linecap="round"/>
<path d="M 300.0 291.0 L 304.0 291.2 L 307.9 290.9 L 311.9 290.7 L 315.8 290.1 L 319.8 289.9 L 323.7 289.3 L 327.6 288.5 L 331.4 287.6 L 335.3 286.8 L 339.1 285.7 L 342.8 284.3 L 346.5 282.8 L 350.2 281.5 L 353.8 279.6 L 357.4 278.1 L 360.8 276.1 L 364.2 274.1 L 367.6 272.2 L 370.8 269.7 L 374.1 267.5 L 377.1 265.0 L 380.2 262.4 L 383.1 259.8 L 385.9 256.9 L 388.6 254.1 L 391.2 251.0 L 393.8 248.0 L 396.1 244.8 L 398.4 241.5 L 400.5 238.1 L 402.5 234.7 L 404.4 231.1 L 406.3 227.7 L 407.9 223.9 L 409.3 220.1 L 410.7 216.3 L 411.8 212.4 L 412.9 208.5 L 413.8 204.5 L 414.6 200.5 L 415.1 196.4 L 415.5 192.3 L 415.8 188.2 L 415.8 183.9 L 415.8 179.8 L 415.5 175.5 L 415.0 171.3 L 414.5 167.1 L 413.7 162.8 L 412.3 158.2 L 408.5 151.9 L 403.8 145.1 L 398.3 138.1 L 393.1 131.6 L 387.0 124.9 L 381.7 119.1 L 374.7 112.5 L 368.6 106.9 L 363.0 101.8 L 355.3 95.9 L 348.3 90.8 L 342.0 86.4 L 335.2 82.0 L 328.6 78.0 L 321.4 74.0 L 315.5 70.9 L 309.4 68.0 L 308.4 67.4 L 307.3 66.8 L 306.2 66.2 L 305.1 65.7 L 304.1 65.3 L 303.1 64.9 L 302.2 64.6 L 301.5 64.4 L 301.3 64.3 L 301.3 64.3 L 301.3 64.3 L 301.3 64.3 L 301.3 64.2 L 301.3 64.2 L 301.2 64.2 L 301.2 64.1 L 301.1 64.1 L 301.0 64.1 L 301.0 64.1 L 301.0 64.1 L 301.0 64.0 L 301.0 64.0 L 301.0 64.0 L 298.8 64.0 L 298.8 64.0 L 298.8 64.0 L 298.8 64.1 L 298.8 64.1 L 298.8 64.1 L 298.8 64.1 L 298.8 64.1 L 298.8 64.2 L 298.8 64.2 L 298.8 64.2 L 298.8 64.2 L 298.9 64.2 L 298.9 64.3 L 298.9 64.3 L 298.9 64.3 L 298.9 64.3 L 298.9 64.3 L 299.0 64.3 L 299.0 64.4 L 299.0 64.4 L 299.0 64.4 L 298.9 64.5 L 298.5 64.6 L 298.0 64.9 L 297.4 65.2 L 296.9 65.5 L 296.3 65.9 L 295.6 66.3 L 295.0 66.8 L 294.3 67.3 L 293.7 67.8 L 293.1 68.3 L 292.5 68.9 L 289.5 71.1 L 286.4 73.5 L 281.5 77.4 L 277.2 81.2 L 273.2 85.0 L 268.2 89.7 L 264.6 93.7 L 259.9 98.8 L 255.9 103.7 L 252.1 108.7 L 248.4 113.8 L 245.6 118.4 L 241.0 125.1 L 238.5 129.9 L 235.3 135.9 L 231.7 142.6 L 229.7 147.7 L 226.8 154.3 L 224.2 161.0 L 222.9 166.3 L 221.4 172.2 L 218.9 179.9 L 217.7 186.0 L 217.2 191.5 L 215.9 198.7 L 215.1 205.3 L 215.0 211.3 L 215.4 216.7 L 215.0 223.9 L 214.8 231.2 L 215.3 237.6 L 216.9 242.2 L 219.1 245.7 L 221.5 248.9 L 224.1 251.9 L 226.7 254.8 L 229.4 257.9 L 232.1 261.1 L 235.1 263.9 L 238.0 266.8 L 241.1 269.5 L 244.3 272.0 L 247.5 274.4 L 250.9 276.5 L 254.3 278.8 L 257.8 281.0 L 261.5 282.5 L 265.2 283.9 L 268.9 285.5 L 272.7 286.7 L 276.5 287.6 L 280.4 288.4 L 284.3 289.2 L 288.2 289.8 L 292.1 290.3 L 296.0 290.6 L 300.0 291.0 Z" fill="none" stroke="#F32740" stroke-width="2.0" stroke-linejoin="round" stroke-linecap="round"/>
<text x="338" y="132" fill="#F32740" font-size="9.5" font-weight="700">125</text>
<text x="335" y="200" fill="#F32740" font-size="9.5" font-weight="700">250</text>
<text x="335" y="268" fill="#F32740" font-size="9.5" font-weight="700">375</text>
<text x="335" y="336" fill="#F32740" font-size="9.5" font-weight="700">500</text>
<rect x="274.0" y="58" width="52" height="11" rx="1.5" fill="#fafbfc" stroke="rgba(255,255,255,0.4)" stroke-width="0.5"/>
<line x1="272.0" y1="69.8" x2="328.0" y2="69.8" stroke="#F32740" stroke-width="0.7" stroke-dasharray="1.5 2"/>
<text x="300" y="66" text-anchor="middle" fill="#F32740" font-size="8" font-weight="700" letter-spacing="0.5">cd/klm SCALE</text>
<g transform="translate(22, 434)">
<text x="0" y="-8" fill="rgba(255,255,255,0.55)" font-size="8" letter-spacing="1.4">cd/klm</text>
<line x1="0" y1="6" x2="22" y2="6" stroke="#F32740" stroke-width="2.2"/>
<text x="28" y="9" fill="rgba(255,255,255,0.7)" font-size="9.5">C0 – C180</text>
<line x1="120" y1="6" x2="142" y2="6" stroke="#3FA9F5" stroke-width="1.7"/>
<text x="148" y="9" fill="rgba(255,255,255,0.7)" font-size="9.5">C90 – C270</text>
</g>
<text x="578" y="402" fill="rgba(255,255,255,0.45)" font-size="9" text-anchor="end">η = 141 lm/W</text>
<text x="578" y="418" fill="rgba(255,255,255,0.45)" font-size="9" text-anchor="end">10,425 lm · 74.0W</text>
<text x="578" y="434" fill="rgba(255,255,255,0.55)" font-size="8" letter-spacing="1.4" text-anchor="end">PEAK INTENSITY</text>
<text x="578" y="451" fill="#fff" font-weight="700" font-size="14" text-anchor="end">4,354 cd</text>
</svg>