<svg viewBox="0 0 600 460" xmlns="http://www.w3.org/2000/svg" font-family="JetBrains Mono, monospace" font-size="9.5">
<rect width="100%" height="100%" fill="#14171b"/>
<text x="22" y="26" fill="#F32740" font-weight="700" letter-spacing="2">LFLD3W150-3E1-UD-PS-100W-50K_IESNA2002 · 100W · 5000K · FLOOD</text>
<text x="22" y="42" fill="rgba(255,255,255,0.55)" font-size="8" letter-spacing="1.4">LUMINOUS INTENSITY DISTRIBUTION (cd/klm)</text>
<path d="M 232.0 64.0 A 68.0 68.0 0 0 0 368.0 64.0" fill="none" stroke="rgba(120,200,200,0.18)" stroke-width="0.7"/>
<path d="M 164.0 64.0 A 136.0 136.0 0 0 0 436.0 64.0" fill="none" stroke="rgba(120,200,200,0.18)" stroke-width="0.7"/>
<path d="M 96.0 64.0 A 204.0 204.0 0 0 0 504.0 64.0" fill="none" stroke="rgba(120,200,200,0.18)" stroke-width="0.7"/>
<path d="M 28.0 64.0 A 272.0 272.0 0 0 0 572.0 64.0" fill="none" stroke="rgba(120,200,200,0.18)" stroke-width="0.7"/>
<path d="M -40.0 64.0 A 340.0 340.0 0 0 0 640.0 64.0" fill="none" stroke="rgba(120,200,200,0.18)" stroke-width="0.7"/>
<line x1="300.0" y1="64" x2="388.0" y2="392.4" stroke="rgba(120,200,200,0.10)" stroke-width="0.5"/>
<line x1="300.0" y1="64" x2="212.0" y2="392.4" stroke="rgba(120,200,200,0.10)" stroke-width="0.5"/>
<line x1="300.0" y1="64" x2="470.0" y2="358.4" stroke="rgba(120,200,200,0.10)" stroke-width="0.5"/>
<line x1="300.0" y1="64" x2="130.0" y2="358.4" stroke="rgba(120,200,200,0.10)" stroke-width="0.5"/>
<line x1="300.0" y1="64" x2="540.4" y2="304.4" stroke="rgba(120,200,200,0.10)" stroke-width="0.5"/>
<line x1="300.0" y1="64" x2="59.6" y2="304.4" stroke="rgba(120,200,200,0.10)" stroke-width="0.5"/>
<line x1="300.0" y1="64" x2="594.4" y2="234.0" stroke="rgba(120,200,200,0.10)" stroke-width="0.5"/>
<line x1="300.0" y1="64" x2="5.6" y2="234.0" stroke="rgba(120,200,200,0.10)" stroke-width="0.5"/>
<line x1="300.0" y1="64" x2="628.4" y2="152.0" stroke="rgba(120,200,200,0.10)" stroke-width="0.5"/>
<line x1="300.0" y1="64" x2="-28.4" y2="152.0" stroke="rgba(120,200,200,0.10)" stroke-width="0.5"/>
<line x1="300.0" y1="64" x2="640.0" y2="64.0" stroke="rgba(120,200,200,0.10)" stroke-width="0.5"/>
<line x1="300.0" y1="64" x2="-40.0" y2="64.0" stroke="rgba(120,200,200,0.10)" stroke-width="0.5"/>
<line x1="300.0" y1="64" x2="300.0" y2="408" stroke="rgba(120,200,200,0.14)" stroke-width="0.5"/>
<line x1="-40.0" y1="64" x2="640.0" y2="64" stroke="rgba(120,200,200,0.14)" stroke-width="0.5"/>
<text x="391.6" y="408.9" text-anchor="middle" fill="rgba(255,255,255,0.4)" font-size="9">15°</text>
<text x="208.4" y="408.9" text-anchor="middle" fill="rgba(255,255,255,0.4)" font-size="9">15°</text>
<text x="477.0" y="373.6" text-anchor="middle" fill="rgba(255,255,255,0.6)" font-size="9">30°</text>
<text x="123.0" y="373.6" text-anchor="middle" fill="rgba(255,255,255,0.6)" font-size="9">30°</text>
<text x="550.3" y="317.3" text-anchor="middle" fill="rgba(255,255,255,0.4)" font-size="9">45°</text>
<text x="49.7" y="317.3" text-anchor="middle" fill="rgba(255,255,255,0.4)" font-size="9">45°</text>
<text x="606.6" y="244.0" text-anchor="middle" fill="rgba(255,255,255,0.6)" font-size="9">60°</text>
<text x="-6.6" y="244.0" text-anchor="middle" fill="rgba(255,255,255,0.6)" font-size="9">60°</text>
<text x="641.9" y="158.6" text-anchor="middle" fill="rgba(255,255,255,0.4)" font-size="9">75°</text>
<text x="-41.9" y="158.6" text-anchor="middle" fill="rgba(255,255,255,0.4)" font-size="9">75°</text>
<text x="654.0" y="67.0" text-anchor="middle" fill="rgba(255,255,255,0.6)" font-size="9">90°</text>
<text x="-54.0" y="67.0" text-anchor="middle" fill="rgba(255,255,255,0.6)" font-size="9">90°</text>
<text x="300" y="426" text-anchor="middle" fill="rgba(255,255,255,0.6)" font-size="9">0°</text>
<path d="M 300.0 334.7 L 304.7 334.9 L 309.4 334.6 L 314.2 334.2 L 318.8 333.5 L 323.6 333.2 L 328.2 332.0 L 332.8 331.0 L 337.4 329.8 L 341.9 328.4 L 346.3 326.6 L 350.7 325.0 L 355.1 323.1 L 359.4 321.3 L 363.5 318.8 L 367.7 316.6 L 371.7 314.1 L 375.8 311.8 L 379.6 308.9 L 383.3 306.0 L 387.0 303.1 L 390.7 300.2 L 394.2 297.1 L 397.5 293.7 L 400.8 290.5 L 404.1 287.1 L 407.1 283.7 L 409.9 279.8 L 412.7 275.9 L 415.3 272.1 L 417.8 268.0 L 420.0 263.7 L 422.2 259.5 L 424.2 255.3 L 426.0 250.8 L 427.4 245.9 L 428.8 241.3 L 430.0 236.5 L 431.1 231.9 L 431.8 226.7 L 432.4 221.8 L 432.9 216.9 L 433.2 211.9 L 433.2 206.8 L 433.1 201.8 L 432.7 196.7 L 432.2 191.7 L 431.4 186.6 L 430.4 181.4 L 429.2 176.3 L 427.3 170.8 L 424.9 165.1 L 421.6 159.0 L 418.3 153.1 L 414.5 147.2 L 410.8 141.6 L 406.7 136.0 L 402.4 130.5 L 397.9 125.2 L 393.4 120.1 L 388.5 115.1 L 383.4 110.2 L 378.2 105.6 L 372.8 101.1 L 367.5 96.9 L 361.9 92.9 L 356.3 89.1 L 350.9 85.6 L 345.4 82.4 L 339.9 79.3 L 334.5 76.5 L 329.3 74.1 L 324.3 71.9 L 319.7 70.0 L 315.2 68.4 L 311.0 67.0 L 307.3 65.8 L 305.1 65.2 L 302.9 64.6 L 302.4 64.5 L 302.0 64.3 L 301.6 64.3 L 301.5 64.2 L 301.5 64.2 L 301.5 64.2 L 301.5 64.1 L 301.5 64.1 L 301.5 64.1 L 301.5 64.1 L 301.5 64.0 L 301.5 64.0 L 298.4 64.0 L 298.4 64.0 L 298.4 64.1 L 298.4 64.1 L 298.3 64.1 L 298.2 64.2 L 298.2 64.2 L 298.1 64.2 L 297.8 64.3 L 297.5 64.4 L 297.1 64.5 L 296.5 64.7 L 293.8 65.3 L 290.4 66.2 L 286.3 67.4 L 282.3 68.7 L 277.7 70.4 L 272.8 72.3 L 267.7 74.5 L 262.5 76.9 L 257.0 79.6 L 251.4 82.7 L 245.7 85.9 L 240.3 89.3 L 234.8 93.0 L 229.3 97.0 L 223.9 101.1 L 218.6 105.5 L 213.5 110.0 L 208.5 114.7 L 203.5 119.7 L 199.1 124.7 L 194.6 129.9 L 190.3 135.3 L 186.1 140.9 L 182.4 146.4 L 178.6 152.2 L 175.2 158.0 L 172.4 163.7 L 170.6 168.8 L 169.0 174.0 L 167.7 179.0 L 166.4 184.3 L 165.7 189.3 L 165.0 194.4 L 164.6 199.4 L 164.3 204.5 L 164.4 209.4 L 164.6 214.4 L 165.1 219.2 L 165.6 224.1 L 166.4 228.9 L 167.6 233.5 L 168.8 238.2 L 170.0 242.9 L 171.7 247.3 L 173.4 251.7 L 175.3 256.1 L 177.2 260.5 L 179.4 264.7 L 181.9 268.5 L 184.2 272.8 L 186.8 276.9 L 189.5 280.9 L 192.5 284.3 L 195.4 288.4 L 198.5 291.9 L 201.8 295.4 L 205.3 298.5 L 208.8 301.7 L 212.3 305.0 L 216.0 308.0 L 220.0 310.4 L 223.8 313.1 L 227.8 315.6 L 232.0 317.9 L 236.2 319.8 L 240.5 321.9 L 244.8 323.7 L 249.2 325.4 L 253.7 326.5 L 258.1 328.3 L 262.7 329.4 L 267.2 330.8 L 271.9 331.4 L 276.5 332.4 L 281.2 333.2 L 285.8 334.0 L 290.6 334.2 L 295.3 334.6 L 300.0 334.7 Z" fill="none" stroke="#3FA9F5" stroke-width="1.7" stroke-linejoin="round" stroke-linecap="round"/>
<path d="M 300.0 334.7 L 304.7 334.8 L 309.5 334.8 L 314.2 334.4 L 318.9 333.9 L 323.6 333.5 L 328.3 333.0 L 332.9 332.0 L 337.5 331.1 L 342.1 329.6 L 346.6 328.6 L 351.1 327.1 L 355.5 325.3 L 359.9 323.3 L 364.3 321.8 L 368.5 319.6 L 372.7 317.6 L 376.7 315.0 L 380.8 312.8 L 384.8 310.2 L 388.6 307.4 L 392.3 304.6 L 396.0 301.6 L 399.6 298.5 L 402.9 295.1 L 406.3 291.9 L 409.4 288.2 L 412.6 284.9 L 415.4 281.1 L 418.2 277.2 L 420.8 273.3 L 423.4 269.4 L 425.7 265.2 L 427.9 261.0 L 429.8 256.4 L 431.9 252.4 L 433.5 247.8 L 435.0 243.1 L 436.3 238.4 L 437.6 233.9 L 438.5 229.1 L 439.3 224.3 L 439.8 219.2 L 440.3 214.4 L 440.5 209.5 L 440.5 204.5 L 440.2 199.4 L 440.0 194.5 L 439.3 189.5 L 438.8 184.7 L 437.9 179.7 L 436.9 174.9 L 435.6 169.9 L 434.2 165.1 L 432.4 160.2 L 430.7 155.5 L 428.6 150.7 L 426.2 146.0 L 423.7 141.3 L 420.9 136.6 L 412.4 128.9 L 403.7 121.5 L 397.1 115.7 L 392.8 111.3 L 380.4 103.2 L 374.4 98.7 L 367.8 94.2 L 356.8 88.1 L 352.2 85.1 L 341.0 79.7 L 335.7 77.0 L 327.1 73.3 L 318.6 70.0 L 313.3 68.1 L 308.1 66.3 L 306.9 65.8 L 305.6 65.4 L 304.5 65.0 L 303.4 64.7 L 302.5 64.5 L 301.9 64.3 L 301.9 64.3 L 301.9 64.3 L 301.9 64.2 L 301.8 64.2 L 301.7 64.2 L 301.6 64.1 L 301.5 64.1 L 301.5 64.1 L 301.4 64.0 L 301.3 64.0 L 298.4 64.0 L 298.5 64.0 L 298.5 64.1 L 298.4 64.1 L 298.4 64.1 L 298.4 64.1 L 298.4 64.2 L 298.4 64.2 L 298.4 64.2 L 298.4 64.2 L 298.4 64.3 L 298.5 64.3 L 298.5 64.3 L 298.5 64.3 L 298.5 64.4 L 298.5 64.4 L 298.5 64.4 L 298.6 64.4 L 298.5 64.5 L 298.1 64.6 L 297.5 64.9 L 296.9 65.2 L 296.2 65.5 L 295.6 65.9 L 294.8 66.3 L 294.1 66.7 L 293.5 67.2 L 292.9 67.6 L 292.5 68.0 L 291.9 68.5 L 280.3 75.4 L 279.0 76.6 L 277.9 77.8 L 265.3 86.5 L 263.1 88.9 L 257.1 94.0 L 251.3 99.4 L 245.7 104.9 L 244.5 107.3 L 243.4 109.9 L 242.3 112.4 L 231.7 123.4 L 225.5 131.1 L 224.6 134.3 L 223.9 137.5 L 223.4 140.6 L 220.7 146.2 L 208.2 162.4 L 206.5 167.9 L 206.4 171.7 L 206.6 175.3 L 206.8 179.1 L 207.3 182.7 L 205.1 189.9 L 196.0 207.2 L 194.0 215.3 L 195.2 219.3 L 196.5 223.4 L 198.1 227.1 L 199.5 231.2 L 201.4 234.8 L 202.9 239.2 L 200.6 251.0 L 195.7 268.8 L 196.7 275.9 L 199.4 279.7 L 202.4 283.2 L 205.4 287.0 L 208.5 290.4 L 211.7 294.1 L 215.0 297.5 L 218.3 301.3 L 221.8 304.8 L 225.4 307.9 L 229.2 310.9 L 233.1 313.8 L 237.0 316.8 L 241.1 319.1 L 245.3 321.5 L 249.5 323.6 L 253.9 325.7 L 258.3 327.2 L 262.8 328.6 L 267.4 329.8 L 271.9 331.2 L 276.6 332.0 L 281.2 332.9 L 285.9 333.6 L 290.6 334.4 L 295.3 334.6 L 300.0 334.7 Z" fill="none" stroke="#F32740" stroke-width="2.0" stroke-linejoin="round" stroke-linecap="round"/>
<text x="338" y="132" fill="#F32740" font-size="9.5" font-weight="700">100</text>
<text x="335" y="200" fill="#F32740" font-size="9.5" font-weight="700">200</text>
<text x="335" y="268" fill="#F32740" font-size="9.5" font-weight="700">300</text>
<text x="335" y="336" fill="#F32740" font-size="9.5" font-weight="700">400</text>
<rect x="274.0" y="58" width="52" height="11" rx="1.5" fill="#fafbfc" stroke="rgba(255,255,255,0.4)" stroke-width="0.5"/>
<line x1="272.0" y1="69.8" x2="328.0" y2="69.8" stroke="#F32740" stroke-width="0.7" stroke-dasharray="1.5 2"/>
<text x="300" y="66" text-anchor="middle" fill="#F32740" font-size="8" font-weight="700" letter-spacing="0.5">cd/klm SCALE</text>
<g transform="translate(22, 434)">
<text x="0" y="-8" fill="rgba(255,255,255,0.55)" font-size="8" letter-spacing="1.4">cd/klm</text>
<line x1="0" y1="6" x2="22" y2="6" stroke="#F32740" stroke-width="2.2"/>
<text x="28" y="9" fill="rgba(255,255,255,0.7)" font-size="9.5">C0 – C180</text>
<line x1="120" y1="6" x2="142" y2="6" stroke="#3FA9F5" stroke-width="1.7"/>
<text x="148" y="9" fill="rgba(255,255,255,0.7)" font-size="9.5">C90 – C270</text>
</g>
<text x="578" y="402" fill="rgba(255,255,255,0.45)" font-size="9" text-anchor="end">η = 141 lm/W</text>
<text x="578" y="418" fill="rgba(255,255,255,0.45)" font-size="9" text-anchor="end">14,063 lm · 99.6W</text>
<text x="578" y="434" fill="rgba(255,255,255,0.55)" font-size="8" letter-spacing="1.4" text-anchor="end">PEAK INTENSITY</text>
<text x="578" y="451" fill="#fff" font-weight="700" font-size="14" text-anchor="end">5,604 cd</text>
</svg>