<svg viewBox="0 0 600 460" xmlns="http://www.w3.org/2000/svg" font-family="JetBrains Mono, monospace" font-size="9.5">
<rect width="100%" height="100%" fill="#14171b"/>
<text x="22" y="26" fill="#F32740" font-weight="700" letter-spacing="2">LFLD3W35-3E1-UDPS-40K_IESNA2002 · 0W · 4000K · FLOOD</text>
<text x="22" y="42" fill="rgba(255,255,255,0.55)" font-size="8" letter-spacing="1.4">LUMINOUS INTENSITY DISTRIBUTION (cd/klm)</text>
<path d="M 232.0 64.0 A 68.0 68.0 0 0 0 368.0 64.0" fill="none" stroke="rgba(120,200,200,0.18)" stroke-width="0.7"/>
<path d="M 164.0 64.0 A 136.0 136.0 0 0 0 436.0 64.0" fill="none" stroke="rgba(120,200,200,0.18)" stroke-width="0.7"/>
<path d="M 96.0 64.0 A 204.0 204.0 0 0 0 504.0 64.0" fill="none" stroke="rgba(120,200,200,0.18)" stroke-width="0.7"/>
<path d="M 28.0 64.0 A 272.0 272.0 0 0 0 572.0 64.0" fill="none" stroke="rgba(120,200,200,0.18)" stroke-width="0.7"/>
<path d="M -40.0 64.0 A 340.0 340.0 0 0 0 640.0 64.0" fill="none" stroke="rgba(120,200,200,0.18)" stroke-width="0.7"/>
<line x1="300.0" y1="64" x2="388.0" y2="392.4" stroke="rgba(120,200,200,0.10)" stroke-width="0.5"/>
<line x1="300.0" y1="64" x2="212.0" y2="392.4" stroke="rgba(120,200,200,0.10)" stroke-width="0.5"/>
<line x1="300.0" y1="64" x2="470.0" y2="358.4" stroke="rgba(120,200,200,0.10)" stroke-width="0.5"/>
<line x1="300.0" y1="64" x2="130.0" y2="358.4" stroke="rgba(120,200,200,0.10)" stroke-width="0.5"/>
<line x1="300.0" y1="64" x2="540.4" y2="304.4" stroke="rgba(120,200,200,0.10)" stroke-width="0.5"/>
<line x1="300.0" y1="64" x2="59.6" y2="304.4" stroke="rgba(120,200,200,0.10)" stroke-width="0.5"/>
<line x1="300.0" y1="64" x2="594.4" y2="234.0" stroke="rgba(120,200,200,0.10)" stroke-width="0.5"/>
<line x1="300.0" y1="64" x2="5.6" y2="234.0" stroke="rgba(120,200,200,0.10)" stroke-width="0.5"/>
<line x1="300.0" y1="64" x2="628.4" y2="152.0" stroke="rgba(120,200,200,0.10)" stroke-width="0.5"/>
<line x1="300.0" y1="64" x2="-28.4" y2="152.0" stroke="rgba(120,200,200,0.10)" stroke-width="0.5"/>
<line x1="300.0" y1="64" x2="640.0" y2="64.0" stroke="rgba(120,200,200,0.10)" stroke-width="0.5"/>
<line x1="300.0" y1="64" x2="-40.0" y2="64.0" stroke="rgba(120,200,200,0.10)" stroke-width="0.5"/>
<line x1="300.0" y1="64" x2="300.0" y2="408" stroke="rgba(120,200,200,0.14)" stroke-width="0.5"/>
<line x1="-40.0" y1="64" x2="640.0" y2="64" stroke="rgba(120,200,200,0.14)" stroke-width="0.5"/>
<text x="391.6" y="408.9" text-anchor="middle" fill="rgba(255,255,255,0.4)" font-size="9">15°</text>
<text x="208.4" y="408.9" text-anchor="middle" fill="rgba(255,255,255,0.4)" font-size="9">15°</text>
<text x="477.0" y="373.6" text-anchor="middle" fill="rgba(255,255,255,0.6)" font-size="9">30°</text>
<text x="123.0" y="373.6" text-anchor="middle" fill="rgba(255,255,255,0.6)" font-size="9">30°</text>
<text x="550.3" y="317.3" text-anchor="middle" fill="rgba(255,255,255,0.4)" font-size="9">45°</text>
<text x="49.7" y="317.3" text-anchor="middle" fill="rgba(255,255,255,0.4)" font-size="9">45°</text>
<text x="606.6" y="244.0" text-anchor="middle" fill="rgba(255,255,255,0.6)" font-size="9">60°</text>
<text x="-6.6" y="244.0" text-anchor="middle" fill="rgba(255,255,255,0.6)" font-size="9">60°</text>
<text x="641.9" y="158.6" text-anchor="middle" fill="rgba(255,255,255,0.4)" font-size="9">75°</text>
<text x="-41.9" y="158.6" text-anchor="middle" fill="rgba(255,255,255,0.4)" font-size="9">75°</text>
<text x="654.0" y="67.0" text-anchor="middle" fill="rgba(255,255,255,0.6)" font-size="9">90°</text>
<text x="-54.0" y="67.0" text-anchor="middle" fill="rgba(255,255,255,0.6)" font-size="9">90°</text>
<text x="300" y="426" text-anchor="middle" fill="rgba(255,255,255,0.6)" font-size="9">0°</text>
<path d="M 300.0 293.3 L 304.0 293.3 L 308.0 293.2 L 312.0 292.9 L 316.0 292.6 L 319.9 292.0 L 323.9 291.3 L 327.8 290.4 L 331.7 289.7 L 335.5 288.4 L 339.4 287.4 L 343.2 286.0 L 346.9 284.7 L 350.6 283.1 L 354.2 281.4 L 357.7 279.5 L 361.3 277.6 L 364.7 275.5 L 368.0 273.4 L 371.3 271.0 L 374.5 268.6 L 377.6 266.2 L 380.6 263.5 L 383.5 260.8 L 386.4 258.0 L 389.1 255.0 L 391.7 251.9 L 394.1 248.7 L 396.5 245.5 L 398.7 242.1 L 400.8 238.6 L 402.9 235.2 L 404.8 231.7 L 406.5 228.0 L 408.1 224.2 L 409.5 220.3 L 410.8 216.4 L 411.9 212.5 L 412.8 208.4 L 413.6 204.3 L 414.3 200.3 L 414.9 196.2 L 415.1 191.9 L 415.3 187.6 L 415.2 183.3 L 415.1 179.1 L 414.7 174.7 L 414.1 170.4 L 413.4 166.1 L 412.5 161.8 L 411.4 157.5 L 410.1 153.2 L 408.7 148.9 L 407.3 144.9 L 405.5 140.7 L 403.5 136.5 L 401.0 132.1 L 397.9 127.6 L 394.6 123.1 L 391.7 119.1 L 388.8 115.3 L 385.0 111.1 L 381.1 107.1 L 377.8 103.6 L 373.8 100.0 L 369.4 96.4 L 365.7 93.2 L 361.6 90.1 L 357.3 87.1 L 353.2 84.4 L 348.6 81.7 L 344.5 79.3 L 340.5 77.2 L 336.1 75.0 L 332.3 73.2 L 328.3 71.6 L 324.4 70.1 L 320.7 68.8 L 317.2 67.7 L 314.1 66.7 L 311.1 66.0 L 308.5 65.4 L 306.2 64.9 L 304.3 64.5 L 303.2 64.3 L 302.6 64.2 L 302.2 64.2 L 301.8 64.1 L 301.5 64.1 L 301.4 64.0 L 301.3 64.0 L 298.7 64.0 L 298.7 64.0 L 298.7 64.0 L 298.7 64.1 L 298.6 64.1 L 298.3 64.1 L 298.0 64.2 L 297.6 64.3 L 297.1 64.4 L 296.2 64.6 L 294.5 65.0 L 292.4 65.5 L 290.0 66.1 L 287.0 67.0 L 284.1 68.0 L 280.9 69.1 L 277.4 70.5 L 273.8 72.0 L 270.1 73.7 L 266.4 75.6 L 262.1 77.8 L 258.1 80.1 L 254.1 82.5 L 249.8 85.3 L 245.8 88.1 L 241.4 91.3 L 237.3 94.6 L 233.6 97.8 L 229.3 101.6 L 225.8 105.1 L 222.3 108.9 L 218.3 113.1 L 215.0 117.1 L 212.2 121.0 L 209.0 125.4 L 205.6 130.1 L 202.7 134.7 L 200.7 138.8 L 199.0 142.9 L 197.4 147.1 L 195.8 151.5 L 194.6 155.6 L 193.5 159.9 L 192.5 164.2 L 191.7 168.6 L 191.1 172.9 L 190.6 177.3 L 190.3 181.6 L 190.2 186.0 L 190.4 190.1 L 190.6 194.4 L 191.0 198.6 L 191.5 202.9 L 192.2 207.0 L 193.2 211.0 L 194.3 214.9 L 195.5 218.9 L 196.9 222.7 L 198.4 226.5 L 200.1 230.2 L 201.9 234.0 L 203.9 237.5 L 205.9 241.0 L 208.1 244.3 L 210.5 247.6 L 213.0 250.7 L 215.5 253.8 L 218.2 256.8 L 220.9 259.8 L 223.8 262.5 L 226.7 265.3 L 229.8 267.8 L 233.0 270.3 L 236.3 272.4 L 239.6 274.7 L 243.0 276.8 L 246.4 278.8 L 250.0 280.6 L 253.6 282.5 L 257.2 284.1 L 260.9 285.7 L 264.7 287.0 L 268.5 288.2 L 272.3 289.3 L 276.2 290.3 L 280.1 291.0 L 284.1 291.8 L 288.0 292.3 L 292.0 292.8 L 296.0 293.0 L 300.0 293.3 Z" fill="none" stroke="#3FA9F5" stroke-width="1.7" stroke-linejoin="round" stroke-linecap="round"/>
<path d="M 300.0 293.3 L 304.0 293.5 L 308.0 293.5 L 312.0 293.3 L 316.0 293.0 L 320.0 292.6 L 324.0 292.1 L 327.9 291.5 L 331.9 290.7 L 335.8 289.9 L 339.6 288.7 L 343.4 287.5 L 347.2 286.0 L 350.9 284.7 L 354.6 283.1 L 358.2 281.3 L 361.8 279.5 L 365.3 277.5 L 368.7 275.4 L 372.1 273.4 L 375.3 270.9 L 378.5 268.6 L 381.6 266.1 L 384.7 263.4 L 387.5 260.5 L 390.3 257.7 L 392.9 254.6 L 395.5 251.5 L 398.0 248.2 L 400.3 244.9 L 402.4 241.3 L 404.5 237.9 L 406.3 234.2 L 408.1 230.5 L 409.7 226.6 L 411.1 222.7 L 412.4 218.7 L 413.6 214.8 L 414.6 210.7 L 415.5 206.6 L 416.3 202.6 L 416.9 198.4 L 417.2 194.2 L 417.6 190.1 L 417.9 186.1 L 418.0 182.0 L 417.8 177.8 L 417.6 173.6 L 417.2 169.5 L 416.6 165.4 L 415.9 161.3 L 414.8 156.9 L 412.2 151.6 L 407.2 144.8 L 401.0 137.4 L 396.9 131.8 L 394.0 127.4 L 392.1 123.8 L 390.2 120.4 L 388.3 117.0 L 386.1 113.7 L 383.7 110.4 L 379.3 106.2 L 369.2 99.2 L 362.2 94.3 L 353.3 88.8 L 345.8 84.4 L 335.7 79.2 L 328.1 75.4 L 320.4 71.8 L 311.8 68.3 L 309.7 67.4 L 308.4 66.7 L 307.0 66.1 L 305.6 65.6 L 304.3 65.2 L 303.2 64.8 L 302.2 64.5 L 301.5 64.3 L 301.5 64.3 L 301.5 64.3 L 301.5 64.2 L 301.5 64.2 L 301.5 64.2 L 301.4 64.1 L 301.4 64.1 L 301.3 64.1 L 301.2 64.1 L 301.1 64.0 L 301.0 64.0 L 301.0 64.0 L 298.8 64.0 L 298.8 64.0 L 298.8 64.0 L 298.8 64.1 L 298.8 64.1 L 298.8 64.1 L 298.8 64.1 L 298.8 64.2 L 298.8 64.2 L 298.8 64.2 L 298.8 64.2 L 298.8 64.2 L 298.8 64.3 L 298.8 64.3 L 298.8 64.3 L 298.8 64.3 L 298.9 64.3 L 298.9 64.3 L 298.9 64.4 L 298.9 64.4 L 298.9 64.4 L 298.9 64.4 L 298.9 64.4 L 298.9 64.5 L 298.9 64.5 L 298.5 64.7 L 297.9 65.0 L 297.2 65.4 L 296.5 65.8 L 295.8 66.3 L 295.1 66.8 L 294.3 67.4 L 293.6 68.0 L 292.8 68.7 L 292.1 69.4 L 291.3 70.1 L 290.7 70.8 L 290.2 71.4 L 288.7 72.8 L 287.2 74.3 L 277.1 83.2 L 276.2 84.7 L 275.3 86.2 L 267.1 94.7 L 260.1 102.5 L 259.6 104.4 L 259.0 106.4 L 254.3 113.0 L 245.7 124.3 L 244.9 127.3 L 244.8 129.8 L 244.3 132.8 L 239.4 141.6 L 231.3 155.2 L 230.3 160.0 L 230.7 163.0 L 231.2 166.0 L 231.2 169.9 L 227.5 180.1 L 222.1 193.7 L 222.1 198.9 L 223.4 202.2 L 224.8 205.4 L 226.4 208.5 L 226.5 214.6 L 224.1 226.8 L 221.3 240.8 L 222.2 247.4 L 224.6 250.6 L 227.3 253.5 L 230.0 256.4 L 232.8 259.3 L 235.6 262.2 L 238.5 265.2 L 241.4 268.3 L 244.4 271.4 L 247.6 274.2 L 250.9 276.8 L 254.2 279.3 L 257.7 281.6 L 261.2 283.8 L 264.9 285.4 L 268.7 286.9 L 272.5 288.2 L 276.3 289.5 L 280.2 290.5 L 284.1 291.4 L 288.0 292.1 L 292.0 292.8 L 296.0 293.1 L 300.0 293.3 Z" fill="none" stroke="#F32740" stroke-width="2.0" stroke-linejoin="round" stroke-linecap="round"/>
<text x="338" y="132" fill="#F32740" font-size="9.5" font-weight="700">125</text>
<text x="335" y="200" fill="#F32740" font-size="9.5" font-weight="700">250</text>
<text x="335" y="268" fill="#F32740" font-size="9.5" font-weight="700">375</text>
<text x="335" y="336" fill="#F32740" font-size="9.5" font-weight="700">500</text>
<rect x="274.0" y="58" width="52" height="11" rx="1.5" fill="#fafbfc" stroke="rgba(255,255,255,0.4)" stroke-width="0.5"/>
<line x1="272.0" y1="69.8" x2="328.0" y2="69.8" stroke="#F32740" stroke-width="0.7" stroke-dasharray="1.5 2"/>
<text x="300" y="66" text-anchor="middle" fill="#F32740" font-size="8" font-weight="700" letter-spacing="0.5">cd/klm SCALE</text>
<g transform="translate(22, 434)">
<text x="0" y="-8" fill="rgba(255,255,255,0.55)" font-size="8" letter-spacing="1.4">cd/klm</text>
<line x1="0" y1="6" x2="22" y2="6" stroke="#F32740" stroke-width="2.2"/>
<text x="28" y="9" fill="rgba(255,255,255,0.7)" font-size="9.5">C0 – C180</text>
<line x1="120" y1="6" x2="142" y2="6" stroke="#3FA9F5" stroke-width="1.7"/>
<text x="148" y="9" fill="rgba(255,255,255,0.7)" font-size="9.5">C90 – C270</text>
</g>
<text x="578" y="402" fill="rgba(255,255,255,0.45)" font-size="9" text-anchor="end">η = 130 lm/W</text>
<text x="578" y="418" fill="rgba(255,255,255,0.45)" font-size="9" text-anchor="end">4,594 lm · 35.2W</text>
<text x="578" y="434" fill="rgba(255,255,255,0.55)" font-size="8" letter-spacing="1.4" text-anchor="end">PEAK INTENSITY</text>
<text x="578" y="451" fill="#fff" font-weight="700" font-size="14" text-anchor="end">1,939 cd</text>
</svg>