<svg viewBox="0 0 600 460" xmlns="http://www.w3.org/2000/svg" font-family="JetBrains Mono, monospace" font-size="9.5">
<rect width="100%" height="100%" fill="#14171b"/>
<text x="22" y="26" fill="#F32740" font-weight="700" letter-spacing="2">LFLD3W150-3E1-UD-PS-150W-50K_IESNA2002 · 150W · 5000K · FLOOD</text>
<text x="22" y="42" fill="rgba(255,255,255,0.55)" font-size="8" letter-spacing="1.4">LUMINOUS INTENSITY DISTRIBUTION (cd/klm)</text>
<path d="M 232.0 64.0 A 68.0 68.0 0 0 0 368.0 64.0" fill="none" stroke="rgba(120,200,200,0.18)" stroke-width="0.7"/>
<path d="M 164.0 64.0 A 136.0 136.0 0 0 0 436.0 64.0" fill="none" stroke="rgba(120,200,200,0.18)" stroke-width="0.7"/>
<path d="M 96.0 64.0 A 204.0 204.0 0 0 0 504.0 64.0" fill="none" stroke="rgba(120,200,200,0.18)" stroke-width="0.7"/>
<path d="M 28.0 64.0 A 272.0 272.0 0 0 0 572.0 64.0" fill="none" stroke="rgba(120,200,200,0.18)" stroke-width="0.7"/>
<path d="M -40.0 64.0 A 340.0 340.0 0 0 0 640.0 64.0" fill="none" stroke="rgba(120,200,200,0.18)" stroke-width="0.7"/>
<line x1="300.0" y1="64" x2="388.0" y2="392.4" stroke="rgba(120,200,200,0.10)" stroke-width="0.5"/>
<line x1="300.0" y1="64" x2="212.0" y2="392.4" stroke="rgba(120,200,200,0.10)" stroke-width="0.5"/>
<line x1="300.0" y1="64" x2="470.0" y2="358.4" stroke="rgba(120,200,200,0.10)" stroke-width="0.5"/>
<line x1="300.0" y1="64" x2="130.0" y2="358.4" stroke="rgba(120,200,200,0.10)" stroke-width="0.5"/>
<line x1="300.0" y1="64" x2="540.4" y2="304.4" stroke="rgba(120,200,200,0.10)" stroke-width="0.5"/>
<line x1="300.0" y1="64" x2="59.6" y2="304.4" stroke="rgba(120,200,200,0.10)" stroke-width="0.5"/>
<line x1="300.0" y1="64" x2="594.4" y2="234.0" stroke="rgba(120,200,200,0.10)" stroke-width="0.5"/>
<line x1="300.0" y1="64" x2="5.6" y2="234.0" stroke="rgba(120,200,200,0.10)" stroke-width="0.5"/>
<line x1="300.0" y1="64" x2="628.4" y2="152.0" stroke="rgba(120,200,200,0.10)" stroke-width="0.5"/>
<line x1="300.0" y1="64" x2="-28.4" y2="152.0" stroke="rgba(120,200,200,0.10)" stroke-width="0.5"/>
<line x1="300.0" y1="64" x2="640.0" y2="64.0" stroke="rgba(120,200,200,0.10)" stroke-width="0.5"/>
<line x1="300.0" y1="64" x2="-40.0" y2="64.0" stroke="rgba(120,200,200,0.10)" stroke-width="0.5"/>
<line x1="300.0" y1="64" x2="300.0" y2="408" stroke="rgba(120,200,200,0.14)" stroke-width="0.5"/>
<line x1="-40.0" y1="64" x2="640.0" y2="64" stroke="rgba(120,200,200,0.14)" stroke-width="0.5"/>
<text x="391.6" y="408.9" text-anchor="middle" fill="rgba(255,255,255,0.4)" font-size="9">15°</text>
<text x="208.4" y="408.9" text-anchor="middle" fill="rgba(255,255,255,0.4)" font-size="9">15°</text>
<text x="477.0" y="373.6" text-anchor="middle" fill="rgba(255,255,255,0.6)" font-size="9">30°</text>
<text x="123.0" y="373.6" text-anchor="middle" fill="rgba(255,255,255,0.6)" font-size="9">30°</text>
<text x="550.3" y="317.3" text-anchor="middle" fill="rgba(255,255,255,0.4)" font-size="9">45°</text>
<text x="49.7" y="317.3" text-anchor="middle" fill="rgba(255,255,255,0.4)" font-size="9">45°</text>
<text x="606.6" y="244.0" text-anchor="middle" fill="rgba(255,255,255,0.6)" font-size="9">60°</text>
<text x="-6.6" y="244.0" text-anchor="middle" fill="rgba(255,255,255,0.6)" font-size="9">60°</text>
<text x="641.9" y="158.6" text-anchor="middle" fill="rgba(255,255,255,0.4)" font-size="9">75°</text>
<text x="-41.9" y="158.6" text-anchor="middle" fill="rgba(255,255,255,0.4)" font-size="9">75°</text>
<text x="654.0" y="67.0" text-anchor="middle" fill="rgba(255,255,255,0.6)" font-size="9">90°</text>
<text x="-54.0" y="67.0" text-anchor="middle" fill="rgba(255,255,255,0.6)" font-size="9">90°</text>
<text x="300" y="426" text-anchor="middle" fill="rgba(255,255,255,0.6)" font-size="9">0°</text>
<path d="M 300.0 334.8 L 304.7 334.8 L 309.4 334.6 L 314.2 334.2 L 318.9 333.6 L 323.5 332.9 L 328.2 332.2 L 332.8 331.2 L 337.4 329.9 L 341.9 328.8 L 346.4 327.3 L 350.8 325.6 L 355.2 323.8 L 359.6 322.2 L 363.8 320.0 L 368.0 317.7 L 372.1 315.4 L 376.1 313.0 L 380.1 310.5 L 383.9 307.6 L 387.6 304.6 L 391.3 301.8 L 394.8 298.6 L 398.2 295.3 L 401.5 291.9 L 404.7 288.4 L 407.7 284.9 L 410.5 280.9 L 413.4 277.2 L 416.0 273.2 L 418.5 269.3 L 420.8 265.0 L 423.0 260.8 L 425.0 256.5 L 426.9 252.1 L 428.5 247.5 L 430.0 242.9 L 431.4 238.3 L 432.6 233.7 L 433.4 228.8 L 434.3 224.0 L 434.8 219.1 L 435.3 214.3 L 435.4 209.2 L 435.5 204.3 L 435.1 199.1 L 434.9 194.3 L 434.1 189.1 L 433.3 184.1 L 432.3 179.0 L 431.1 174.0 L 429.5 168.9 L 427.6 163.7 L 424.9 158.1 L 421.6 152.4 L 417.7 146.4 L 413.9 140.8 L 409.7 135.2 L 405.5 129.9 L 401.1 124.7 L 396.3 119.6 L 391.4 114.7 L 386.4 109.9 L 381.3 105.4 L 375.9 101.0 L 370.5 96.9 L 365.0 92.9 L 359.6 89.3 L 354.1 85.9 L 348.4 82.6 L 342.8 79.6 L 337.4 76.9 L 332.2 74.5 L 327.1 72.3 L 322.3 70.4 L 317.6 68.7 L 313.5 67.4 L 309.8 66.3 L 306.1 65.3 L 303.5 64.7 L 302.9 64.5 L 302.5 64.4 L 302.2 64.3 L 301.9 64.2 L 301.8 64.2 L 301.8 64.2 L 301.7 64.1 L 301.7 64.1 L 301.6 64.1 L 301.6 64.0 L 301.6 64.0 L 298.5 64.0 L 298.5 64.0 L 298.5 64.1 L 298.5 64.1 L 298.5 64.1 L 298.5 64.1 L 298.5 64.2 L 298.5 64.2 L 298.5 64.2 L 298.4 64.3 L 298.1 64.3 L 297.6 64.5 L 296.8 64.7 L 296.0 64.9 L 292.7 65.8 L 288.9 67.0 L 284.8 68.4 L 280.2 70.0 L 275.6 71.9 L 270.6 74.1 L 265.3 76.6 L 260.1 79.3 L 254.7 82.3 L 249.2 85.6 L 243.5 89.1 L 237.9 92.9 L 232.4 97.0 L 227.1 101.1 L 221.8 105.6 L 216.6 110.2 L 211.5 115.1 L 206.7 120.1 L 202.2 125.1 L 197.8 130.4 L 193.3 135.9 L 189.3 141.5 L 185.5 147.2 L 181.8 153.1 L 178.2 159.1 L 175.1 165.2 L 172.7 170.8 L 170.8 176.3 L 169.2 181.7 L 168.3 186.9 L 167.5 191.9 L 167.0 197.0 L 166.5 202.3 L 166.4 207.2 L 166.5 212.2 L 166.9 217.2 L 167.2 222.2 L 168.0 227.0 L 168.8 231.9 L 169.9 236.6 L 171.1 241.4 L 172.6 246.0 L 174.2 250.6 L 176.0 255.0 L 177.9 259.5 L 180.0 263.7 L 182.3 267.9 L 184.8 271.9 L 187.2 276.1 L 190.0 279.9 L 192.8 283.7 L 195.9 287.2 L 198.9 291.1 L 202.3 294.3 L 205.6 297.6 L 209.2 300.7 L 212.7 303.9 L 216.4 306.8 L 220.2 309.5 L 224.1 312.2 L 228.1 314.8 L 232.2 317.1 L 236.3 319.3 L 240.6 321.3 L 244.9 323.3 L 249.2 325.1 L 253.7 326.8 L 258.2 328.1 L 262.7 329.6 L 267.2 330.9 L 271.9 331.8 L 276.5 332.6 L 281.2 333.5 L 285.8 334.0 L 290.6 334.5 L 295.3 334.6 L 300.0 334.8 Z" fill="none" stroke="#3FA9F5" stroke-width="1.7" stroke-linejoin="round" stroke-linecap="round"/>
<path d="M 300.0 334.8 L 304.7 334.3 L 309.4 334.0 L 314.1 333.5 L 318.8 332.9 L 323.4 331.9 L 328.1 330.9 L 332.6 329.7 L 337.2 328.7 L 341.6 326.9 L 346.1 325.4 L 350.4 323.5 L 354.7 321.4 L 358.8 318.8 L 362.9 316.4 L 366.8 313.4 L 370.8 310.8 L 374.4 307.5 L 378.1 304.3 L 381.5 300.8 L 384.9 297.3 L 388.1 293.5 L 391.2 289.8 L 394.4 286.3 L 397.5 282.9 L 400.3 279.0 L 403.0 275.1 L 404.2 268.5 L 399.7 251.6 L 396.9 238.8 L 398.3 234.2 L 400.0 230.4 L 401.7 226.7 L 403.1 222.8 L 404.3 218.7 L 405.5 214.7 L 403.9 207.1 L 394.8 189.8 L 392.4 182.2 L 392.7 178.5 L 393.1 174.9 L 393.2 171.2 L 393.1 167.4 L 391.4 162.0 L 379.2 146.0 L 376.3 140.3 L 375.8 137.2 L 375.1 134.0 L 374.2 130.8 L 368.3 123.4 L 357.5 112.2 L 356.4 109.6 L 355.3 107.2 L 354.0 104.7 L 340.8 93.6 L 337.8 90.5 L 336.7 88.7 L 331.6 84.5 L 326.3 80.5 L 321.0 76.6 L 319.6 75.3 L 308.1 68.5 L 307.5 68.0 L 307.0 67.6 L 306.5 67.2 L 305.8 66.7 L 305.1 66.3 L 304.4 65.9 L 303.8 65.5 L 303.1 65.2 L 302.4 64.9 L 301.9 64.6 L 301.5 64.5 L 301.4 64.4 L 301.5 64.4 L 301.5 64.4 L 301.5 64.4 L 301.5 64.3 L 301.5 64.3 L 301.5 64.3 L 301.6 64.3 L 301.6 64.2 L 301.6 64.2 L 301.6 64.2 L 301.6 64.2 L 301.6 64.1 L 301.6 64.1 L 301.6 64.1 L 301.5 64.1 L 301.5 64.0 L 301.6 64.0 L 298.7 64.0 L 298.6 64.0 L 298.5 64.1 L 298.5 64.1 L 298.4 64.1 L 298.3 64.2 L 298.2 64.2 L 298.1 64.2 L 298.1 64.3 L 298.1 64.3 L 298.1 64.3 L 297.5 64.5 L 296.6 64.7 L 295.6 65.0 L 294.4 65.4 L 293.1 65.8 L 289.4 67.0 L 285.6 68.4 L 281.9 69.9 L 273.0 73.3 L 264.2 77.0 L 259.3 79.6 L 247.9 85.0 L 243.6 87.9 L 232.4 94.1 L 226.2 98.4 L 220.9 102.6 L 212.1 108.8 L 203.5 115.3 L 197.3 120.9 L 184.3 130.8 L 179.8 136.2 L 177.0 140.9 L 174.4 145.5 L 172.1 150.3 L 169.9 155.1 L 168.0 159.9 L 166.4 164.7 L 164.9 169.5 L 163.6 174.5 L 162.5 179.4 L 161.7 184.3 L 161.0 189.2 L 160.4 194.2 L 160.0 199.2 L 160.0 204.0 L 160.0 209.0 L 160.2 214.0 L 160.5 218.9 L 161.2 223.7 L 162.0 228.4 L 162.9 233.3 L 164.0 238.1 L 165.3 242.7 L 166.9 247.2 L 168.5 251.8 L 170.4 256.2 L 172.4 260.5 L 174.6 264.7 L 176.8 269.0 L 179.4 272.9 L 182.0 277.0 L 184.8 280.6 L 187.6 284.6 L 190.7 288.2 L 193.8 291.8 L 197.2 295.0 L 200.6 298.3 L 204.1 301.5 L 207.7 304.5 L 211.5 307.1 L 215.3 310.1 L 219.2 312.7 L 223.2 315.1 L 227.4 317.3 L 231.5 319.6 L 235.8 321.6 L 240.1 323.4 L 244.5 325.1 L 248.9 326.8 L 253.4 328.2 L 257.9 329.7 L 262.5 330.9 L 267.1 331.8 L 271.8 332.7 L 276.4 333.3 L 281.1 333.9 L 285.8 334.3 L 290.6 334.6 L 295.3 334.6 L 300.0 334.8 Z" fill="none" stroke="#F32740" stroke-width="2.0" stroke-linejoin="round" stroke-linecap="round"/>
<text x="338" y="132" fill="#F32740" font-size="9.5" font-weight="700">100</text>
<text x="335" y="200" fill="#F32740" font-size="9.5" font-weight="700">200</text>
<text x="335" y="268" fill="#F32740" font-size="9.5" font-weight="700">300</text>
<text x="335" y="336" fill="#F32740" font-size="9.5" font-weight="700">400</text>
<rect x="274.0" y="58" width="52" height="11" rx="1.5" fill="#fafbfc" stroke="rgba(255,255,255,0.4)" stroke-width="0.5"/>
<line x1="272.0" y1="69.8" x2="328.0" y2="69.8" stroke="#F32740" stroke-width="0.7" stroke-dasharray="1.5 2"/>
<text x="300" y="66" text-anchor="middle" fill="#F32740" font-size="8" font-weight="700" letter-spacing="0.5">cd/klm SCALE</text>
<g transform="translate(22, 434)">
<text x="0" y="-8" fill="rgba(255,255,255,0.55)" font-size="8" letter-spacing="1.4">cd/klm</text>
<line x1="0" y1="6" x2="22" y2="6" stroke="#F32740" stroke-width="2.2"/>
<text x="28" y="9" fill="rgba(255,255,255,0.7)" font-size="9.5">C0 – C180</text>
<line x1="120" y1="6" x2="142" y2="6" stroke="#3FA9F5" stroke-width="1.7"/>
<text x="148" y="9" fill="rgba(255,255,255,0.7)" font-size="9.5">C90 – C270</text>
</g>
<text x="578" y="402" fill="rgba(255,255,255,0.45)" font-size="9" text-anchor="end">η = 129 lm/W</text>
<text x="578" y="418" fill="rgba(255,255,255,0.45)" font-size="9" text-anchor="end">18,979 lm · 146.9W</text>
<text x="578" y="434" fill="rgba(255,255,255,0.55)" font-size="8" letter-spacing="1.4" text-anchor="end">PEAK INTENSITY</text>
<text x="578" y="451" fill="#fff" font-weight="700" font-size="14" text-anchor="end">7,560 cd</text>
</svg>