<svg viewBox="0 0 600 460" xmlns="http://www.w3.org/2000/svg" font-family="JetBrains Mono, monospace" font-size="9.5">
<rect width="100%" height="100%" fill="#14171b"/>
<text x="22" y="26" fill="#F32740" font-weight="700" letter-spacing="2">LFLD3W150-3E1-UD-PS-100W-40K_IESNA2002 · 100W · 4000K · FLOOD</text>
<text x="22" y="42" fill="rgba(255,255,255,0.55)" font-size="8" letter-spacing="1.4">LUMINOUS INTENSITY DISTRIBUTION (cd/klm)</text>
<path d="M 232.0 64.0 A 68.0 68.0 0 0 0 368.0 64.0" fill="none" stroke="rgba(120,200,200,0.18)" stroke-width="0.7"/>
<path d="M 164.0 64.0 A 136.0 136.0 0 0 0 436.0 64.0" fill="none" stroke="rgba(120,200,200,0.18)" stroke-width="0.7"/>
<path d="M 96.0 64.0 A 204.0 204.0 0 0 0 504.0 64.0" fill="none" stroke="rgba(120,200,200,0.18)" stroke-width="0.7"/>
<path d="M 28.0 64.0 A 272.0 272.0 0 0 0 572.0 64.0" fill="none" stroke="rgba(120,200,200,0.18)" stroke-width="0.7"/>
<path d="M -40.0 64.0 A 340.0 340.0 0 0 0 640.0 64.0" fill="none" stroke="rgba(120,200,200,0.18)" stroke-width="0.7"/>
<line x1="300.0" y1="64" x2="388.0" y2="392.4" stroke="rgba(120,200,200,0.10)" stroke-width="0.5"/>
<line x1="300.0" y1="64" x2="212.0" y2="392.4" stroke="rgba(120,200,200,0.10)" stroke-width="0.5"/>
<line x1="300.0" y1="64" x2="470.0" y2="358.4" stroke="rgba(120,200,200,0.10)" stroke-width="0.5"/>
<line x1="300.0" y1="64" x2="130.0" y2="358.4" stroke="rgba(120,200,200,0.10)" stroke-width="0.5"/>
<line x1="300.0" y1="64" x2="540.4" y2="304.4" stroke="rgba(120,200,200,0.10)" stroke-width="0.5"/>
<line x1="300.0" y1="64" x2="59.6" y2="304.4" stroke="rgba(120,200,200,0.10)" stroke-width="0.5"/>
<line x1="300.0" y1="64" x2="594.4" y2="234.0" stroke="rgba(120,200,200,0.10)" stroke-width="0.5"/>
<line x1="300.0" y1="64" x2="5.6" y2="234.0" stroke="rgba(120,200,200,0.10)" stroke-width="0.5"/>
<line x1="300.0" y1="64" x2="628.4" y2="152.0" stroke="rgba(120,200,200,0.10)" stroke-width="0.5"/>
<line x1="300.0" y1="64" x2="-28.4" y2="152.0" stroke="rgba(120,200,200,0.10)" stroke-width="0.5"/>
<line x1="300.0" y1="64" x2="640.0" y2="64.0" stroke="rgba(120,200,200,0.10)" stroke-width="0.5"/>
<line x1="300.0" y1="64" x2="-40.0" y2="64.0" stroke="rgba(120,200,200,0.10)" stroke-width="0.5"/>
<line x1="300.0" y1="64" x2="300.0" y2="408" stroke="rgba(120,200,200,0.14)" stroke-width="0.5"/>
<line x1="-40.0" y1="64" x2="640.0" y2="64" stroke="rgba(120,200,200,0.14)" stroke-width="0.5"/>
<text x="391.6" y="408.9" text-anchor="middle" fill="rgba(255,255,255,0.4)" font-size="9">15°</text>
<text x="208.4" y="408.9" text-anchor="middle" fill="rgba(255,255,255,0.4)" font-size="9">15°</text>
<text x="477.0" y="373.6" text-anchor="middle" fill="rgba(255,255,255,0.6)" font-size="9">30°</text>
<text x="123.0" y="373.6" text-anchor="middle" fill="rgba(255,255,255,0.6)" font-size="9">30°</text>
<text x="550.3" y="317.3" text-anchor="middle" fill="rgba(255,255,255,0.4)" font-size="9">45°</text>
<text x="49.7" y="317.3" text-anchor="middle" fill="rgba(255,255,255,0.4)" font-size="9">45°</text>
<text x="606.6" y="244.0" text-anchor="middle" fill="rgba(255,255,255,0.6)" font-size="9">60°</text>
<text x="-6.6" y="244.0" text-anchor="middle" fill="rgba(255,255,255,0.6)" font-size="9">60°</text>
<text x="641.9" y="158.6" text-anchor="middle" fill="rgba(255,255,255,0.4)" font-size="9">75°</text>
<text x="-41.9" y="158.6" text-anchor="middle" fill="rgba(255,255,255,0.4)" font-size="9">75°</text>
<text x="654.0" y="67.0" text-anchor="middle" fill="rgba(255,255,255,0.6)" font-size="9">90°</text>
<text x="-54.0" y="67.0" text-anchor="middle" fill="rgba(255,255,255,0.6)" font-size="9">90°</text>
<text x="300" y="426" text-anchor="middle" fill="rgba(255,255,255,0.6)" font-size="9">0°</text>
<path d="M 300.0 335.2 L 304.7 335.5 L 309.5 335.3 L 314.2 335.4 L 319.0 335.1 L 323.6 334.0 L 328.2 332.8 L 332.9 331.7 L 337.5 330.6 L 342.0 329.2 L 346.5 327.9 L 351.0 326.6 L 355.5 325.2 L 359.8 323.1 L 364.0 320.6 L 368.1 318.1 L 372.3 316.0 L 376.2 313.3 L 380.3 311.0 L 384.1 308.1 L 388.0 305.7 L 391.5 302.4 L 394.9 298.9 L 398.3 295.5 L 401.5 292.0 L 404.6 288.3 L 407.7 284.8 L 410.6 281.1 L 413.6 277.7 L 416.1 273.5 L 418.6 269.4 L 420.8 265.0 L 422.9 260.7 L 424.7 256.1 L 426.7 251.8 L 428.3 247.2 L 430.0 243.0 L 431.4 238.4 L 432.4 233.5 L 433.3 228.6 L 433.9 223.6 L 434.4 218.7 L 434.8 213.8 L 435.0 208.7 L 435.2 204.0 L 435.1 199.1 L 434.7 194.0 L 433.9 188.8 L 432.9 183.7 L 431.8 178.6 L 430.4 173.5 L 429.0 168.5 L 427.2 163.4 L 424.6 157.9 L 421.3 152.1 L 417.4 146.2 L 413.4 140.5 L 409.1 134.9 L 404.8 129.5 L 400.4 124.4 L 395.9 119.4 L 391.0 114.4 L 386.0 109.7 L 380.9 105.2 L 375.4 100.8 L 369.9 96.6 L 364.4 92.7 L 359.0 89.0 L 353.6 85.7 L 348.1 82.4 L 342.5 79.5 L 337.2 76.8 L 331.9 74.4 L 326.9 72.2 L 322.1 70.3 L 317.5 68.7 L 313.5 67.4 L 309.5 66.2 L 306.1 65.3 L 303.5 64.7 L 303.0 64.5 L 302.6 64.4 L 302.2 64.3 L 301.9 64.2 L 301.8 64.2 L 301.8 64.2 L 301.7 64.1 L 301.6 64.1 L 301.6 64.1 L 301.6 64.0 L 301.6 64.0 L 298.5 64.0 L 298.5 64.0 L 298.5 64.1 L 298.5 64.1 L 298.5 64.1 L 298.5 64.1 L 298.5 64.2 L 298.5 64.2 L 298.5 64.2 L 298.4 64.3 L 298.1 64.3 L 297.6 64.5 L 297.1 64.6 L 295.0 65.2 L 292.9 65.8 L 289.2 66.9 L 285.1 68.3 L 280.7 69.9 L 276.0 71.8 L 271.1 73.9 L 265.9 76.4 L 260.5 79.1 L 254.9 82.2 L 249.4 85.5 L 244.3 88.8 L 238.7 92.6 L 232.9 96.7 L 227.6 100.9 L 222.4 105.3 L 217.3 109.8 L 212.1 114.7 L 207.5 119.6 L 203.0 124.6 L 198.4 130.0 L 193.9 135.5 L 189.8 141.2 L 186.1 146.7 L 182.4 152.7 L 179.0 158.5 L 175.8 164.6 L 173.5 170.1 L 171.5 175.7 L 169.8 181.2 L 168.6 186.5 L 167.9 191.6 L 167.3 196.7 L 167.1 201.6 L 167.0 206.6 L 167.2 211.5 L 167.4 216.6 L 167.9 221.5 L 168.4 226.5 L 169.1 231.5 L 170.1 236.4 L 171.4 241.0 L 173.1 245.3 L 174.7 249.8 L 176.2 254.6 L 178.2 258.9 L 180.2 263.4 L 182.4 267.7 L 184.8 271.9 L 187.3 276.0 L 190.2 279.5 L 193.1 283.1 L 196.0 286.9 L 199.0 290.8 L 202.2 294.3 L 205.5 297.9 L 208.9 301.3 L 212.5 304.4 L 216.3 307.1 L 220.2 309.5 L 224.1 312.3 L 228.0 315.0 L 232.0 317.6 L 236.1 320.1 L 240.4 322.4 L 244.7 324.3 L 249.1 325.9 L 253.6 327.2 L 258.1 328.7 L 262.6 330.3 L 267.1 331.6 L 271.7 332.8 L 276.4 334.0 L 281.1 334.5 L 285.8 335.1 L 290.5 335.1 L 295.3 335.5 L 300.0 335.2 Z" fill="none" stroke="#3FA9F5" stroke-width="1.7" stroke-linejoin="round" stroke-linecap="round"/>
<path d="M 300.0 335.2 L 304.7 334.8 L 309.5 335.4 L 314.2 335.2 L 319.0 335.0 L 323.6 334.1 L 328.3 333.6 L 332.9 332.2 L 337.6 331.3 L 342.2 330.3 L 346.8 329.4 L 351.3 327.9 L 355.7 326.0 L 359.9 323.7 L 364.3 321.9 L 368.6 319.9 L 372.9 318.1 L 376.9 315.6 L 381.0 313.2 L 384.8 310.3 L 388.5 307.2 L 392.3 304.3 L 396.0 301.7 L 399.6 298.7 L 403.1 295.6 L 406.1 291.6 L 409.2 288.0 L 412.2 284.3 L 415.3 280.8 L 418.1 277.0 L 420.8 273.2 L 423.1 268.9 L 425.3 264.5 L 427.3 260.1 L 429.4 255.9 L 431.4 251.7 L 433.2 247.3 L 434.5 242.4 L 435.5 237.4 L 436.5 232.6 L 437.5 227.9 L 438.3 223.1 L 438.8 218.2 L 439.2 213.3 L 439.1 208.1 L 438.8 202.8 L 438.4 197.6 L 438.1 192.8 L 437.7 187.9 L 436.9 183.0 L 436.0 178.1 L 434.6 173.0 L 433.2 168.1 L 431.9 163.4 L 429.5 158.1 L 424.8 151.4 L 420.0 144.9 L 416.4 139.6 L 413.8 135.1 L 410.8 130.6 L 407.7 126.2 L 399.8 119.3 L 392.8 113.4 L 384.8 107.2 L 376.9 101.5 L 369.7 96.5 L 361.9 91.6 L 353.9 86.9 L 346.5 82.8 L 338.6 78.8 L 331.3 75.4 L 324.2 72.3 L 318.7 70.1 L 313.1 68.0 L 307.5 66.1 L 306.4 65.7 L 305.3 65.3 L 304.3 65.0 L 303.3 64.7 L 302.4 64.5 L 301.9 64.3 L 301.9 64.3 L 301.9 64.3 L 301.8 64.2 L 301.8 64.2 L 301.7 64.1 L 301.6 64.1 L 301.5 64.1 L 301.5 64.1 L 301.4 64.0 L 301.3 64.0 L 298.5 64.0 L 298.5 64.0 L 298.5 64.1 L 298.5 64.1 L 298.4 64.1 L 298.4 64.1 L 298.4 64.2 L 298.4 64.2 L 298.4 64.2 L 298.5 64.2 L 298.5 64.3 L 298.5 64.3 L 298.5 64.3 L 298.5 64.3 L 298.5 64.4 L 298.6 64.4 L 298.6 64.4 L 298.6 64.4 L 298.5 64.5 L 298.1 64.6 L 297.5 64.9 L 296.9 65.2 L 296.2 65.5 L 295.5 65.9 L 294.7 66.4 L 293.9 66.8 L 293.2 67.3 L 292.5 67.8 L 291.9 68.3 L 286.3 71.6 L 279.8 75.7 L 277.3 77.6 L 271.9 81.5 L 264.8 86.9 L 262.8 89.1 L 258.0 93.4 L 253.4 97.9 L 245.8 104.8 L 244.1 107.6 L 236.7 115.3 L 235.4 118.2 L 229.5 125.2 L 225.6 131.0 L 224.2 134.7 L 217.1 144.0 L 216.2 147.8 L 214.6 152.4 L 208.0 162.6 L 206.8 167.5 L 206.5 171.5 L 201.9 180.9 L 199.6 188.0 L 200.1 191.8 L 199.6 197.2 L 195.0 208.5 L 194.3 215.0 L 195.4 219.1 L 196.0 224.1 L 193.3 234.8 L 193.0 242.1 L 194.8 246.3 L 196.5 250.7 L 196.4 258.9 L 195.0 270.0 L 196.8 275.6 L 199.6 279.2 L 202.5 282.9 L 205.4 286.8 L 208.5 290.6 L 211.6 294.2 L 214.9 297.7 L 218.4 301.0 L 221.9 304.3 L 225.5 307.7 L 229.2 310.9 L 233.0 314.1 L 236.9 316.9 L 241.1 319.0 L 245.3 321.1 L 249.6 323.5 L 253.8 326.0 L 258.2 327.8 L 262.7 329.3 L 267.3 330.4 L 271.9 331.3 L 276.5 332.1 L 281.2 333.3 L 285.8 334.3 L 290.5 335.1 L 295.3 335.2 L 300.0 335.2 Z" fill="none" stroke="#F32740" stroke-width="2.0" stroke-linejoin="round" stroke-linecap="round"/>
<text x="338" y="132" fill="#F32740" font-size="9.5" font-weight="700">100</text>
<text x="335" y="200" fill="#F32740" font-size="9.5" font-weight="700">200</text>
<text x="335" y="268" fill="#F32740" font-size="9.5" font-weight="700">300</text>
<text x="335" y="336" fill="#F32740" font-size="9.5" font-weight="700">400</text>
<rect x="274.0" y="58" width="52" height="11" rx="1.5" fill="#fafbfc" stroke="rgba(255,255,255,0.4)" stroke-width="0.5"/>
<line x1="272.0" y1="69.8" x2="328.0" y2="69.8" stroke="#F32740" stroke-width="0.7" stroke-dasharray="1.5 2"/>
<text x="300" y="66" text-anchor="middle" fill="#F32740" font-size="8" font-weight="700" letter-spacing="0.5">cd/klm SCALE</text>
<g transform="translate(22, 434)">
<text x="0" y="-8" fill="rgba(255,255,255,0.55)" font-size="8" letter-spacing="1.4">cd/klm</text>
<line x1="0" y1="6" x2="22" y2="6" stroke="#F32740" stroke-width="2.2"/>
<text x="28" y="9" fill="rgba(255,255,255,0.7)" font-size="9.5">C0 – C180</text>
<line x1="120" y1="6" x2="142" y2="6" stroke="#3FA9F5" stroke-width="1.7"/>
<text x="148" y="9" fill="rgba(255,255,255,0.7)" font-size="9.5">C90 – C270</text>
</g>
<text x="578" y="402" fill="rgba(255,255,255,0.45)" font-size="9" text-anchor="end">η = 146 lm/W</text>
<text x="578" y="418" fill="rgba(255,255,255,0.45)" font-size="9" text-anchor="end">14,045 lm · 96.1W</text>
<text x="578" y="434" fill="rgba(255,255,255,0.55)" font-size="8" letter-spacing="1.4" text-anchor="end">PEAK INTENSITY</text>
<text x="578" y="451" fill="#fff" font-weight="700" font-size="14" text-anchor="end">5,614 cd</text>
</svg>