<svg viewBox="0 0 600 460" xmlns="http://www.w3.org/2000/svg" font-family="JetBrains Mono, monospace" font-size="9.5">
<rect width="100%" height="100%" fill="#14171b"/>
<text x="22" y="26" fill="#F32740" font-weight="700" letter-spacing="2">LFLD3W35-3E1-UD-PS-15W-50K_IESNA2002 · 15W · 5000K · FLOOD</text>
<text x="22" y="42" fill="rgba(255,255,255,0.55)" font-size="8" letter-spacing="1.4">LUMINOUS INTENSITY DISTRIBUTION (cd/klm)</text>
<path d="M 232.0 64.0 A 68.0 68.0 0 0 0 368.0 64.0" fill="none" stroke="rgba(120,200,200,0.18)" stroke-width="0.7"/>
<path d="M 164.0 64.0 A 136.0 136.0 0 0 0 436.0 64.0" fill="none" stroke="rgba(120,200,200,0.18)" stroke-width="0.7"/>
<path d="M 96.0 64.0 A 204.0 204.0 0 0 0 504.0 64.0" fill="none" stroke="rgba(120,200,200,0.18)" stroke-width="0.7"/>
<path d="M 28.0 64.0 A 272.0 272.0 0 0 0 572.0 64.0" fill="none" stroke="rgba(120,200,200,0.18)" stroke-width="0.7"/>
<path d="M -40.0 64.0 A 340.0 340.0 0 0 0 640.0 64.0" fill="none" stroke="rgba(120,200,200,0.18)" stroke-width="0.7"/>
<line x1="300.0" y1="64" x2="388.0" y2="392.4" stroke="rgba(120,200,200,0.10)" stroke-width="0.5"/>
<line x1="300.0" y1="64" x2="212.0" y2="392.4" stroke="rgba(120,200,200,0.10)" stroke-width="0.5"/>
<line x1="300.0" y1="64" x2="470.0" y2="358.4" stroke="rgba(120,200,200,0.10)" stroke-width="0.5"/>
<line x1="300.0" y1="64" x2="130.0" y2="358.4" stroke="rgba(120,200,200,0.10)" stroke-width="0.5"/>
<line x1="300.0" y1="64" x2="540.4" y2="304.4" stroke="rgba(120,200,200,0.10)" stroke-width="0.5"/>
<line x1="300.0" y1="64" x2="59.6" y2="304.4" stroke="rgba(120,200,200,0.10)" stroke-width="0.5"/>
<line x1="300.0" y1="64" x2="594.4" y2="234.0" stroke="rgba(120,200,200,0.10)" stroke-width="0.5"/>
<line x1="300.0" y1="64" x2="5.6" y2="234.0" stroke="rgba(120,200,200,0.10)" stroke-width="0.5"/>
<line x1="300.0" y1="64" x2="628.4" y2="152.0" stroke="rgba(120,200,200,0.10)" stroke-width="0.5"/>
<line x1="300.0" y1="64" x2="-28.4" y2="152.0" stroke="rgba(120,200,200,0.10)" stroke-width="0.5"/>
<line x1="300.0" y1="64" x2="640.0" y2="64.0" stroke="rgba(120,200,200,0.10)" stroke-width="0.5"/>
<line x1="300.0" y1="64" x2="-40.0" y2="64.0" stroke="rgba(120,200,200,0.10)" stroke-width="0.5"/>
<line x1="300.0" y1="64" x2="300.0" y2="408" stroke="rgba(120,200,200,0.14)" stroke-width="0.5"/>
<line x1="-40.0" y1="64" x2="640.0" y2="64" stroke="rgba(120,200,200,0.14)" stroke-width="0.5"/>
<text x="391.6" y="408.9" text-anchor="middle" fill="rgba(255,255,255,0.4)" font-size="9">15°</text>
<text x="208.4" y="408.9" text-anchor="middle" fill="rgba(255,255,255,0.4)" font-size="9">15°</text>
<text x="477.0" y="373.6" text-anchor="middle" fill="rgba(255,255,255,0.6)" font-size="9">30°</text>
<text x="123.0" y="373.6" text-anchor="middle" fill="rgba(255,255,255,0.6)" font-size="9">30°</text>
<text x="550.3" y="317.3" text-anchor="middle" fill="rgba(255,255,255,0.4)" font-size="9">45°</text>
<text x="49.7" y="317.3" text-anchor="middle" fill="rgba(255,255,255,0.4)" font-size="9">45°</text>
<text x="606.6" y="244.0" text-anchor="middle" fill="rgba(255,255,255,0.6)" font-size="9">60°</text>
<text x="-6.6" y="244.0" text-anchor="middle" fill="rgba(255,255,255,0.6)" font-size="9">60°</text>
<text x="641.9" y="158.6" text-anchor="middle" fill="rgba(255,255,255,0.4)" font-size="9">75°</text>
<text x="-41.9" y="158.6" text-anchor="middle" fill="rgba(255,255,255,0.4)" font-size="9">75°</text>
<text x="654.0" y="67.0" text-anchor="middle" fill="rgba(255,255,255,0.6)" font-size="9">90°</text>
<text x="-54.0" y="67.0" text-anchor="middle" fill="rgba(255,255,255,0.6)" font-size="9">90°</text>
<text x="300" y="426" text-anchor="middle" fill="rgba(255,255,255,0.6)" font-size="9">0°</text>
<path d="M 300.0 294.1 L 304.0 294.3 L 308.0 294.1 L 312.1 294.0 L 316.1 293.7 L 320.1 293.2 L 324.0 292.2 L 327.9 291.5 L 331.8 290.4 L 335.6 289.0 L 339.4 287.7 L 343.2 286.2 L 346.9 284.6 L 350.5 282.9 L 354.1 281.0 L 357.6 279.1 L 361.2 277.4 L 364.6 275.2 L 367.9 273.0 L 371.1 270.5 L 374.3 268.1 L 377.4 265.6 L 380.3 262.7 L 383.0 259.6 L 385.7 256.5 L 388.3 253.4 L 390.8 250.1 L 393.0 246.5 L 395.4 243.4 L 397.7 240.3 L 399.8 236.8 L 401.7 233.2 L 403.4 229.5 L 405.2 226.1 L 406.6 222.1 L 407.9 218.1 L 408.9 213.9 L 410.0 209.9 L 410.6 205.6 L 411.2 201.3 L 411.9 197.4 L 412.4 193.3 L 412.7 189.1 L 412.7 184.9 L 412.4 180.4 L 412.1 176.1 L 411.2 171.3 L 410.3 166.8 L 409.2 162.3 L 408.3 158.1 L 407.0 153.8 L 405.5 149.4 L 403.6 144.9 L 401.6 140.5 L 398.5 135.5 L 395.3 130.7 L 392.5 126.4 L 390.3 122.6 L 387.6 118.8 L 383.9 114.4 L 379.3 109.8 L 375.8 106.0 L 372.8 102.7 L 369.3 99.3 L 364.4 95.4 L 360.2 92.1 L 356.8 89.3 L 352.2 86.2 L 347.9 83.4 L 344.5 81.1 L 339.8 78.5 L 336.3 76.5 L 332.3 74.5 L 328.3 72.7 L 324.5 71.0 L 320.6 69.5 L 316.4 68.1 L 311.9 66.8 L 308.0 65.7 L 304.9 64.9 L 303.6 64.6 L 302.7 64.4 L 301.9 64.3 L 301.4 64.2 L 301.2 64.1 L 301.2 64.1 L 301.2 64.1 L 301.2 64.1 L 301.2 64.0 L 301.2 64.0 L 301.2 64.0 L 298.7 64.0 L 298.5 64.0 L 298.7 64.0 L 298.6 64.1 L 298.1 64.1 L 297.4 64.2 L 296.9 64.3 L 296.4 64.4 L 295.0 64.7 L 292.7 65.2 L 290.2 65.7 L 287.2 66.5 L 284.1 67.4 L 280.7 68.5 L 277.1 69.7 L 273.5 71.1 L 269.3 72.8 L 265.2 74.6 L 261.4 76.5 L 257.1 78.8 L 253.0 81.1 L 248.7 83.7 L 243.9 86.7 L 240.5 89.3 L 236.1 92.4 L 231.8 95.8 L 227.7 99.3 L 224.2 102.6 L 219.6 106.7 L 215.7 110.7 L 212.7 114.4 L 210.1 118.0 L 206.8 122.2 L 203.1 127.0 L 199.7 131.7 L 197.3 135.9 L 195.4 140.0 L 193.9 143.9 L 192.3 148.1 L 191.0 152.2 L 189.9 156.4 L 189.0 160.5 L 188.1 164.8 L 187.4 169.0 L 186.6 173.5 L 186.3 177.7 L 186.0 182.0 L 186.0 186.2 L 186.1 190.5 L 186.4 194.7 L 186.9 198.8 L 187.4 203.0 L 188.0 207.3 L 188.8 211.6 L 189.8 215.6 L 191.1 219.5 L 192.5 223.4 L 194.0 227.3 L 195.5 231.3 L 197.4 234.7 L 199.2 238.7 L 201.2 242.2 L 203.4 245.7 L 205.8 249.0 L 208.0 252.6 L 210.6 255.7 L 213.2 258.9 L 216.0 261.9 L 218.9 264.8 L 221.9 267.5 L 225.0 270.0 L 228.2 272.5 L 231.5 274.7 L 234.9 277.0 L 238.3 279.1 L 241.8 281.2 L 245.4 283.1 L 249.0 284.9 L 252.7 286.6 L 256.5 288.0 L 260.3 289.0 L 264.1 290.5 L 268.0 291.5 L 272.0 292.3 L 275.9 292.9 L 279.9 293.4 L 284.0 293.5 L 288.0 293.9 L 292.0 293.9 L 296.0 294.0 L 300.0 294.1 Z" fill="none" stroke="#3FA9F5" stroke-width="1.7" stroke-linejoin="round" stroke-linecap="round"/>
<path d="M 300.0 294.1 L 304.0 294.3 L 308.0 294.3 L 312.1 294.3 L 316.1 293.8 L 320.1 293.5 L 324.0 292.5 L 328.0 291.9 L 331.9 290.9 L 335.8 289.9 L 339.6 288.7 L 343.4 287.5 L 347.1 285.7 L 350.8 284.0 L 354.5 282.4 L 358.0 280.5 L 361.4 278.2 L 364.8 275.9 L 368.1 273.7 L 371.5 271.6 L 374.6 269.0 L 377.7 266.4 L 380.8 264.0 L 383.6 261.0 L 386.4 258.0 L 389.1 255.0 L 391.8 252.1 L 394.2 248.9 L 396.4 245.3 L 398.5 241.7 L 400.5 238.1 L 402.6 234.7 L 404.4 231.0 L 405.9 227.1 L 407.3 223.0 L 408.5 219.0 L 409.6 214.8 L 410.5 210.6 L 411.3 206.4 L 412.0 202.3 L 412.5 198.1 L 413.1 194.1 L 413.5 190.0 L 413.5 185.8 L 413.5 181.6 L 413.1 177.1 L 412.5 172.6 L 411.7 168.2 L 410.9 163.8 L 410.0 159.6 L 408.8 155.3 L 407.5 151.1 L 406.0 146.8 L 402.7 141.4 L 396.6 134.2 L 387.9 125.5 L 378.4 116.9 L 371.9 110.7 L 368.2 106.6 L 366.2 103.8 L 364.0 101.0 L 361.7 98.2 L 359.1 95.4 L 355.2 92.1 L 337.6 82.4 L 333.1 79.5 L 330.2 77.4 L 314.3 70.1 L 311.1 68.5 L 309.5 67.7 L 308.2 67.0 L 306.8 66.3 L 305.4 65.8 L 304.3 65.3 L 303.2 64.9 L 302.3 64.6 L 301.6 64.4 L 301.3 64.3 L 301.3 64.3 L 301.3 64.3 L 301.3 64.2 L 301.3 64.2 L 301.2 64.2 L 301.1 64.1 L 301.0 64.1 L 301.0 64.1 L 300.9 64.1 L 300.9 64.0 L 300.9 64.0 L 300.9 64.0 L 300.9 64.0 L 298.8 64.0 L 298.8 64.0 L 298.9 64.0 L 298.9 64.1 L 298.9 64.1 L 298.9 64.1 L 298.9 64.1 L 298.9 64.1 L 298.9 64.2 L 298.9 64.2 L 299.0 64.2 L 299.0 64.2 L 299.0 64.2 L 299.0 64.2 L 299.0 64.2 L 299.0 64.3 L 299.0 64.3 L 299.0 64.3 L 299.0 64.3 L 298.8 64.4 L 298.3 64.6 L 297.6 64.9 L 297.0 65.2 L 296.3 65.6 L 295.6 66.0 L 294.9 66.4 L 294.1 66.9 L 293.4 67.4 L 292.7 67.9 L 292.0 68.5 L 291.3 69.0 L 290.6 69.6 L 290.1 70.2 L 289.6 70.7 L 289.2 71.3 L 288.7 71.9 L 288.3 72.5 L 287.5 73.4 L 277.5 81.6 L 267.9 90.0 L 263.8 94.4 L 259.3 99.4 L 255.3 104.3 L 254.5 106.5 L 254.0 108.4 L 253.7 110.3 L 253.3 112.3 L 249.8 117.8 L 241.0 129.5 L 233.0 141.0 L 230.0 147.4 L 226.6 154.6 L 224.6 160.5 L 224.4 164.3 L 224.9 167.3 L 225.7 170.1 L 226.6 172.9 L 227.4 175.8 L 228.4 178.6 L 229.3 181.7 L 228.6 187.7 L 225.1 199.1 L 220.3 214.0 L 215.9 229.0 L 214.2 239.9 L 213.9 248.6 L 215.5 253.7 L 218.1 257.0 L 220.8 260.1 L 223.6 263.1 L 226.4 266.1 L 229.4 269.0 L 232.5 271.6 L 235.7 274.2 L 239.0 276.7 L 242.3 279.3 L 245.8 281.4 L 249.3 283.4 L 253.0 285.3 L 256.7 287.0 L 260.4 288.4 L 264.2 289.8 L 268.1 290.7 L 272.0 291.8 L 276.0 292.3 L 280.0 292.6 L 284.0 293.0 L 288.0 293.7 L 292.0 293.7 L 296.0 294.2 L 300.0 294.1 Z" fill="none" stroke="#F32740" stroke-width="2.0" stroke-linejoin="round" stroke-linecap="round"/>
<text x="338" y="132" fill="#F32740" font-size="9.5" font-weight="700">125</text>
<text x="335" y="200" fill="#F32740" font-size="9.5" font-weight="700">250</text>
<text x="335" y="268" fill="#F32740" font-size="9.5" font-weight="700">375</text>
<text x="335" y="336" fill="#F32740" font-size="9.5" font-weight="700">500</text>
<rect x="274.0" y="58" width="52" height="11" rx="1.5" fill="#fafbfc" stroke="rgba(255,255,255,0.4)" stroke-width="0.5"/>
<line x1="272.0" y1="69.8" x2="328.0" y2="69.8" stroke="#F32740" stroke-width="0.7" stroke-dasharray="1.5 2"/>
<text x="300" y="66" text-anchor="middle" fill="#F32740" font-size="8" font-weight="700" letter-spacing="0.5">cd/klm SCALE</text>
<g transform="translate(22, 434)">
<text x="0" y="-8" fill="rgba(255,255,255,0.55)" font-size="8" letter-spacing="1.4">cd/klm</text>
<line x1="0" y1="6" x2="22" y2="6" stroke="#F32740" stroke-width="2.2"/>
<text x="28" y="9" fill="rgba(255,255,255,0.7)" font-size="9.5">C0 – C180</text>
<line x1="120" y1="6" x2="142" y2="6" stroke="#3FA9F5" stroke-width="1.7"/>
<text x="148" y="9" fill="rgba(255,255,255,0.7)" font-size="9.5">C90 – C270</text>
</g>
<text x="578" y="402" fill="rgba(255,255,255,0.45)" font-size="9" text-anchor="end">η = 145 lm/W</text>
<text x="578" y="418" fill="rgba(255,255,255,0.45)" font-size="9" text-anchor="end">1,998 lm · 13.8W</text>
<text x="578" y="434" fill="rgba(255,255,255,0.55)" font-size="8" letter-spacing="1.4" text-anchor="end">PEAK INTENSITY</text>
<text x="578" y="451" fill="#fff" font-weight="700" font-size="14" text-anchor="end">847 cd</text>
</svg>