<svg viewBox="0 0 600 460" xmlns="http://www.w3.org/2000/svg" font-family="JetBrains Mono, monospace" font-size="9.5">
<rect width="100%" height="100%" fill="#14171b"/>
<text x="22" y="26" fill="#F32740" font-weight="700" letter-spacing="2">LFLD3W80-3E1-UD-PS-60W-30K_IESNA2002 · 60W · 3000K · FLOOD</text>
<text x="22" y="42" fill="rgba(255,255,255,0.55)" font-size="8" letter-spacing="1.4">LUMINOUS INTENSITY DISTRIBUTION (cd/klm)</text>
<path d="M 232.0 64.0 A 68.0 68.0 0 0 0 368.0 64.0" fill="none" stroke="rgba(120,200,200,0.18)" stroke-width="0.7"/>
<path d="M 164.0 64.0 A 136.0 136.0 0 0 0 436.0 64.0" fill="none" stroke="rgba(120,200,200,0.18)" stroke-width="0.7"/>
<path d="M 96.0 64.0 A 204.0 204.0 0 0 0 504.0 64.0" fill="none" stroke="rgba(120,200,200,0.18)" stroke-width="0.7"/>
<path d="M 28.0 64.0 A 272.0 272.0 0 0 0 572.0 64.0" fill="none" stroke="rgba(120,200,200,0.18)" stroke-width="0.7"/>
<path d="M -40.0 64.0 A 340.0 340.0 0 0 0 640.0 64.0" fill="none" stroke="rgba(120,200,200,0.18)" stroke-width="0.7"/>
<line x1="300.0" y1="64" x2="388.0" y2="392.4" stroke="rgba(120,200,200,0.10)" stroke-width="0.5"/>
<line x1="300.0" y1="64" x2="212.0" y2="392.4" stroke="rgba(120,200,200,0.10)" stroke-width="0.5"/>
<line x1="300.0" y1="64" x2="470.0" y2="358.4" stroke="rgba(120,200,200,0.10)" stroke-width="0.5"/>
<line x1="300.0" y1="64" x2="130.0" y2="358.4" stroke="rgba(120,200,200,0.10)" stroke-width="0.5"/>
<line x1="300.0" y1="64" x2="540.4" y2="304.4" stroke="rgba(120,200,200,0.10)" stroke-width="0.5"/>
<line x1="300.0" y1="64" x2="59.6" y2="304.4" stroke="rgba(120,200,200,0.10)" stroke-width="0.5"/>
<line x1="300.0" y1="64" x2="594.4" y2="234.0" stroke="rgba(120,200,200,0.10)" stroke-width="0.5"/>
<line x1="300.0" y1="64" x2="5.6" y2="234.0" stroke="rgba(120,200,200,0.10)" stroke-width="0.5"/>
<line x1="300.0" y1="64" x2="628.4" y2="152.0" stroke="rgba(120,200,200,0.10)" stroke-width="0.5"/>
<line x1="300.0" y1="64" x2="-28.4" y2="152.0" stroke="rgba(120,200,200,0.10)" stroke-width="0.5"/>
<line x1="300.0" y1="64" x2="640.0" y2="64.0" stroke="rgba(120,200,200,0.10)" stroke-width="0.5"/>
<line x1="300.0" y1="64" x2="-40.0" y2="64.0" stroke="rgba(120,200,200,0.10)" stroke-width="0.5"/>
<line x1="300.0" y1="64" x2="300.0" y2="408" stroke="rgba(120,200,200,0.14)" stroke-width="0.5"/>
<line x1="-40.0" y1="64" x2="640.0" y2="64" stroke="rgba(120,200,200,0.14)" stroke-width="0.5"/>
<text x="391.6" y="408.9" text-anchor="middle" fill="rgba(255,255,255,0.4)" font-size="9">15°</text>
<text x="208.4" y="408.9" text-anchor="middle" fill="rgba(255,255,255,0.4)" font-size="9">15°</text>
<text x="477.0" y="373.6" text-anchor="middle" fill="rgba(255,255,255,0.6)" font-size="9">30°</text>
<text x="123.0" y="373.6" text-anchor="middle" fill="rgba(255,255,255,0.6)" font-size="9">30°</text>
<text x="550.3" y="317.3" text-anchor="middle" fill="rgba(255,255,255,0.4)" font-size="9">45°</text>
<text x="49.7" y="317.3" text-anchor="middle" fill="rgba(255,255,255,0.4)" font-size="9">45°</text>
<text x="606.6" y="244.0" text-anchor="middle" fill="rgba(255,255,255,0.6)" font-size="9">60°</text>
<text x="-6.6" y="244.0" text-anchor="middle" fill="rgba(255,255,255,0.6)" font-size="9">60°</text>
<text x="641.9" y="158.6" text-anchor="middle" fill="rgba(255,255,255,0.4)" font-size="9">75°</text>
<text x="-41.9" y="158.6" text-anchor="middle" fill="rgba(255,255,255,0.4)" font-size="9">75°</text>
<text x="654.0" y="67.0" text-anchor="middle" fill="rgba(255,255,255,0.6)" font-size="9">90°</text>
<text x="-54.0" y="67.0" text-anchor="middle" fill="rgba(255,255,255,0.6)" font-size="9">90°</text>
<text x="300" y="426" text-anchor="middle" fill="rgba(255,255,255,0.6)" font-size="9">0°</text>
<path d="M 300.0 290.9 L 304.0 290.7 L 307.9 290.7 L 311.8 290.0 L 315.8 289.7 L 319.7 289.4 L 323.6 288.5 L 327.5 287.9 L 331.3 286.9 L 335.1 285.9 L 338.9 284.4 L 342.6 283.1 L 346.2 281.4 L 349.9 280.0 L 353.4 278.1 L 356.8 276.2 L 360.3 274.3 L 363.6 272.1 L 366.9 270.0 L 370.1 267.5 L 373.2 265.0 L 376.2 262.5 L 379.1 259.7 L 381.9 257.0 L 384.5 253.9 L 387.2 251.1 L 389.7 248.0 L 392.0 244.6 L 394.3 241.3 L 396.6 238.2 L 398.5 234.6 L 400.4 231.1 L 402.2 227.6 L 403.8 223.8 L 405.3 220.1 L 406.6 216.2 L 407.8 212.3 L 408.9 208.5 L 409.7 204.4 L 410.5 200.4 L 411.1 196.4 L 411.6 192.3 L 411.8 188.1 L 411.9 184.0 L 411.8 179.8 L 411.6 175.6 L 411.2 171.4 L 410.6 167.1 L 409.9 163.0 L 409.0 158.8 L 408.0 154.6 L 406.7 150.4 L 405.5 146.4 L 403.8 142.3 L 402.2 138.3 L 400.3 134.3 L 398.3 130.3 L 396.0 126.3 L 392.9 122.1 L 389.5 117.8 L 386.7 114.1 L 383.7 110.4 L 379.9 106.5 L 376.3 102.9 L 373.0 99.6 L 368.4 95.9 L 363.6 92.3 L 358.4 88.8 L 352.9 85.4 L 347.3 82.2 L 341.9 79.3 L 336.6 76.6 L 331.4 74.2 L 326.4 72.1 L 321.7 70.2 L 317.0 68.6 L 312.9 67.2 L 309.1 66.1 L 305.7 65.2 L 303.3 64.6 L 302.6 64.5 L 302.0 64.3 L 301.5 64.2 L 301.3 64.2 L 301.3 64.1 L 301.4 64.1 L 301.3 64.1 L 301.3 64.1 L 301.3 64.0 L 301.3 64.0 L 301.3 64.0 L 298.8 64.0 L 298.8 64.0 L 298.8 64.0 L 298.8 64.1 L 298.8 64.1 L 298.8 64.1 L 298.8 64.1 L 298.8 64.1 L 298.8 64.2 L 298.7 64.2 L 298.4 64.3 L 297.9 64.4 L 297.3 64.6 L 296.5 64.8 L 293.2 65.7 L 290.0 66.7 L 286.1 68.0 L 281.9 69.5 L 277.7 71.3 L 272.8 73.4 L 268.0 75.7 L 262.9 78.2 L 257.7 81.1 L 252.7 84.1 L 247.2 87.5 L 242.2 91.0 L 236.6 94.9 L 231.4 99.0 L 226.5 103.1 L 221.6 107.5 L 217.9 111.4 L 214.3 115.5 L 211.6 119.2 L 208.8 123.2 L 205.5 127.7 L 202.7 132.1 L 200.7 136.2 L 198.9 140.2 L 197.3 144.3 L 195.8 148.4 L 194.6 152.5 L 193.5 156.6 L 192.4 160.8 L 191.6 165.1 L 191.0 169.3 L 190.5 173.5 L 190.2 177.7 L 190.0 181.9 L 190.0 186.2 L 190.2 190.3 L 190.5 194.5 L 191.1 198.5 L 191.8 202.5 L 192.5 206.7 L 193.5 210.6 L 194.6 214.6 L 195.9 218.3 L 197.3 222.2 L 198.9 225.8 L 200.6 229.4 L 202.5 232.9 L 204.4 236.5 L 206.5 239.8 L 208.7 243.3 L 211.1 246.2 L 213.4 249.6 L 216.0 252.7 L 218.6 255.7 L 221.5 258.2 L 224.3 261.1 L 227.3 263.8 L 230.3 266.4 L 233.4 268.8 L 236.7 271.1 L 240.0 273.4 L 243.3 275.5 L 246.8 277.3 L 250.4 279.0 L 253.9 280.7 L 257.6 282.3 L 261.2 283.8 L 265.0 285.0 L 268.8 286.2 L 272.6 287.5 L 276.4 288.3 L 280.3 288.8 L 284.2 289.6 L 288.2 290.1 L 292.1 290.4 L 296.0 290.8 L 300.0 290.9 Z" fill="none" stroke="#3FA9F5" stroke-width="1.7" stroke-linejoin="round" stroke-linecap="round"/>
<path d="M 300.0 290.9 L 304.0 291.0 L 307.9 290.9 L 311.9 290.5 L 315.8 290.3 L 319.8 289.8 L 323.7 289.5 L 327.6 288.7 L 331.5 287.9 L 335.3 286.9 L 339.1 285.8 L 342.8 284.3 L 346.5 282.8 L 350.2 281.3 L 353.8 280.0 L 357.3 278.0 L 360.8 276.0 L 364.2 274.0 L 367.5 271.9 L 370.8 269.6 L 373.9 267.1 L 377.0 264.5 L 380.0 262.1 L 382.9 259.3 L 385.7 256.4 L 388.4 253.5 L 391.0 250.5 L 393.4 247.3 L 395.7 244.1 L 398.0 240.7 L 400.0 237.2 L 402.0 233.8 L 403.9 230.2 L 405.5 226.5 L 407.2 222.9 L 408.5 219.0 L 409.7 215.1 L 410.9 211.2 L 411.8 207.0 L 412.6 203.0 L 413.2 198.9 L 413.7 194.9 L 414.0 190.7 L 414.2 186.5 L 414.1 182.2 L 414.0 178.0 L 413.6 173.7 L 413.1 169.4 L 412.3 165.2 L 411.6 161.0 L 409.2 155.6 L 402.6 147.1 L 394.9 138.1 L 391.7 133.1 L 389.3 128.9 L 379.9 119.9 L 372.8 113.1 L 370.5 109.8 L 362.8 103.2 L 354.1 96.5 L 351.7 93.9 L 342.0 87.3 L 335.9 83.1 L 332.2 80.4 L 324.7 76.1 L 317.1 72.0 L 309.4 68.2 L 308.4 67.6 L 307.6 67.1 L 306.7 66.6 L 305.7 66.1 L 304.8 65.6 L 303.9 65.3 L 303.0 64.9 L 302.1 64.6 L 301.4 64.4 L 301.3 64.3 L 301.3 64.3 L 301.3 64.3 L 301.3 64.3 L 301.3 64.2 L 301.3 64.2 L 301.2 64.2 L 301.2 64.1 L 301.1 64.1 L 301.0 64.1 L 301.0 64.1 L 301.0 64.1 L 301.0 64.0 L 301.0 64.0 L 301.0 64.0 L 298.8 64.0 L 298.9 64.0 L 298.9 64.0 L 298.8 64.1 L 298.8 64.1 L 298.8 64.1 L 298.8 64.1 L 298.8 64.1 L 298.8 64.2 L 298.8 64.2 L 298.8 64.2 L 298.9 64.2 L 298.9 64.2 L 298.9 64.3 L 298.9 64.3 L 298.9 64.3 L 298.9 64.3 L 299.0 64.3 L 299.0 64.3 L 299.0 64.4 L 299.0 64.4 L 299.0 64.4 L 298.9 64.5 L 298.5 64.6 L 298.0 64.9 L 297.4 65.2 L 296.8 65.6 L 296.2 66.0 L 295.5 66.4 L 294.8 66.9 L 294.0 67.4 L 293.3 68.0 L 290.8 69.7 L 288.4 71.5 L 286.0 73.4 L 281.2 77.2 L 278.7 79.5 L 273.2 84.2 L 267.1 89.7 L 264.1 93.1 L 261.9 96.0 L 254.9 103.2 L 249.8 109.2 L 246.9 113.5 L 245.1 117.0 L 242.8 121.2 L 236.9 129.4 L 231.3 137.7 L 229.1 142.7 L 228.0 146.8 L 227.6 150.2 L 223.4 158.6 L 218.5 168.3 L 215.7 175.8 L 214.8 181.3 L 214.8 185.6 L 215.6 189.2 L 215.9 193.5 L 212.9 203.5 L 210.0 213.8 L 208.4 222.6 L 208.8 228.5 L 210.2 233.0 L 212.2 236.4 L 214.2 239.9 L 216.5 243.1 L 218.8 246.4 L 221.2 249.5 L 223.9 252.5 L 226.5 255.4 L 229.2 258.5 L 232.0 261.5 L 234.9 264.4 L 237.9 267.0 L 241.0 269.7 L 244.2 272.3 L 247.5 274.6 L 250.9 276.7 L 254.3 278.9 L 257.8 280.9 L 261.4 282.8 L 265.1 284.1 L 268.9 285.6 L 272.6 286.9 L 276.5 287.7 L 280.4 288.6 L 284.2 289.3 L 288.2 289.9 L 292.1 290.4 L 296.0 290.8 L 300.0 290.9 Z" fill="none" stroke="#F32740" stroke-width="2.0" stroke-linejoin="round" stroke-linecap="round"/>
<text x="338" y="132" fill="#F32740" font-size="9.5" font-weight="700">125</text>
<text x="335" y="200" fill="#F32740" font-size="9.5" font-weight="700">250</text>
<text x="335" y="268" fill="#F32740" font-size="9.5" font-weight="700">375</text>
<text x="335" y="336" fill="#F32740" font-size="9.5" font-weight="700">500</text>
<rect x="274.0" y="58" width="52" height="11" rx="1.5" fill="#fafbfc" stroke="rgba(255,255,255,0.4)" stroke-width="0.5"/>
<line x1="272.0" y1="69.8" x2="328.0" y2="69.8" stroke="#F32740" stroke-width="0.7" stroke-dasharray="1.5 2"/>
<text x="300" y="66" text-anchor="middle" fill="#F32740" font-size="8" font-weight="700" letter-spacing="0.5">cd/klm SCALE</text>
<g transform="translate(22, 434)">
<text x="0" y="-8" fill="rgba(255,255,255,0.55)" font-size="8" letter-spacing="1.4">cd/klm</text>
<line x1="0" y1="6" x2="22" y2="6" stroke="#F32740" stroke-width="2.2"/>
<text x="28" y="9" fill="rgba(255,255,255,0.7)" font-size="9.5">C0 – C180</text>
<line x1="120" y1="6" x2="142" y2="6" stroke="#3FA9F5" stroke-width="1.7"/>
<text x="148" y="9" fill="rgba(255,255,255,0.7)" font-size="9.5">C90 – C270</text>
</g>
<text x="578" y="402" fill="rgba(255,255,255,0.45)" font-size="9" text-anchor="end">η = 134 lm/W</text>
<text x="578" y="418" fill="rgba(255,255,255,0.45)" font-size="9" text-anchor="end">7,487 lm · 56.0W</text>
<text x="578" y="434" fill="rgba(255,255,255,0.55)" font-size="8" letter-spacing="1.4" text-anchor="end">PEAK INTENSITY</text>
<text x="578" y="451" fill="#fff" font-weight="700" font-size="14" text-anchor="end">3,125 cd</text>
</svg>