<svg viewBox="0 0 600 460" xmlns="http://www.w3.org/2000/svg" font-family="JetBrains Mono, monospace" font-size="9.5">
<rect width="100%" height="100%" fill="#14171b"/>
<text x="22" y="26" fill="#F32740" font-weight="700" letter-spacing="2">LFLD3W80-3E1-UD-PS-80W-50K_IESNA2002 · 80W · 5000K · FLOOD</text>
<text x="22" y="42" fill="rgba(255,255,255,0.55)" font-size="8" letter-spacing="1.4">LUMINOUS INTENSITY DISTRIBUTION (cd/klm)</text>
<path d="M 232.0 64.0 A 68.0 68.0 0 0 0 368.0 64.0" fill="none" stroke="rgba(120,200,200,0.18)" stroke-width="0.7"/>
<path d="M 164.0 64.0 A 136.0 136.0 0 0 0 436.0 64.0" fill="none" stroke="rgba(120,200,200,0.18)" stroke-width="0.7"/>
<path d="M 96.0 64.0 A 204.0 204.0 0 0 0 504.0 64.0" fill="none" stroke="rgba(120,200,200,0.18)" stroke-width="0.7"/>
<path d="M 28.0 64.0 A 272.0 272.0 0 0 0 572.0 64.0" fill="none" stroke="rgba(120,200,200,0.18)" stroke-width="0.7"/>
<path d="M -40.0 64.0 A 340.0 340.0 0 0 0 640.0 64.0" fill="none" stroke="rgba(120,200,200,0.18)" stroke-width="0.7"/>
<line x1="300.0" y1="64" x2="388.0" y2="392.4" stroke="rgba(120,200,200,0.10)" stroke-width="0.5"/>
<line x1="300.0" y1="64" x2="212.0" y2="392.4" stroke="rgba(120,200,200,0.10)" stroke-width="0.5"/>
<line x1="300.0" y1="64" x2="470.0" y2="358.4" stroke="rgba(120,200,200,0.10)" stroke-width="0.5"/>
<line x1="300.0" y1="64" x2="130.0" y2="358.4" stroke="rgba(120,200,200,0.10)" stroke-width="0.5"/>
<line x1="300.0" y1="64" x2="540.4" y2="304.4" stroke="rgba(120,200,200,0.10)" stroke-width="0.5"/>
<line x1="300.0" y1="64" x2="59.6" y2="304.4" stroke="rgba(120,200,200,0.10)" stroke-width="0.5"/>
<line x1="300.0" y1="64" x2="594.4" y2="234.0" stroke="rgba(120,200,200,0.10)" stroke-width="0.5"/>
<line x1="300.0" y1="64" x2="5.6" y2="234.0" stroke="rgba(120,200,200,0.10)" stroke-width="0.5"/>
<line x1="300.0" y1="64" x2="628.4" y2="152.0" stroke="rgba(120,200,200,0.10)" stroke-width="0.5"/>
<line x1="300.0" y1="64" x2="-28.4" y2="152.0" stroke="rgba(120,200,200,0.10)" stroke-width="0.5"/>
<line x1="300.0" y1="64" x2="640.0" y2="64.0" stroke="rgba(120,200,200,0.10)" stroke-width="0.5"/>
<line x1="300.0" y1="64" x2="-40.0" y2="64.0" stroke="rgba(120,200,200,0.10)" stroke-width="0.5"/>
<line x1="300.0" y1="64" x2="300.0" y2="408" stroke="rgba(120,200,200,0.14)" stroke-width="0.5"/>
<line x1="-40.0" y1="64" x2="640.0" y2="64" stroke="rgba(120,200,200,0.14)" stroke-width="0.5"/>
<text x="391.6" y="408.9" text-anchor="middle" fill="rgba(255,255,255,0.4)" font-size="9">15°</text>
<text x="208.4" y="408.9" text-anchor="middle" fill="rgba(255,255,255,0.4)" font-size="9">15°</text>
<text x="477.0" y="373.6" text-anchor="middle" fill="rgba(255,255,255,0.6)" font-size="9">30°</text>
<text x="123.0" y="373.6" text-anchor="middle" fill="rgba(255,255,255,0.6)" font-size="9">30°</text>
<text x="550.3" y="317.3" text-anchor="middle" fill="rgba(255,255,255,0.4)" font-size="9">45°</text>
<text x="49.7" y="317.3" text-anchor="middle" fill="rgba(255,255,255,0.4)" font-size="9">45°</text>
<text x="606.6" y="244.0" text-anchor="middle" fill="rgba(255,255,255,0.6)" font-size="9">60°</text>
<text x="-6.6" y="244.0" text-anchor="middle" fill="rgba(255,255,255,0.6)" font-size="9">60°</text>
<text x="641.9" y="158.6" text-anchor="middle" fill="rgba(255,255,255,0.4)" font-size="9">75°</text>
<text x="-41.9" y="158.6" text-anchor="middle" fill="rgba(255,255,255,0.4)" font-size="9">75°</text>
<text x="654.0" y="67.0" text-anchor="middle" fill="rgba(255,255,255,0.6)" font-size="9">90°</text>
<text x="-54.0" y="67.0" text-anchor="middle" fill="rgba(255,255,255,0.6)" font-size="9">90°</text>
<text x="300" y="426" text-anchor="middle" fill="rgba(255,255,255,0.6)" font-size="9">0°</text>
<path d="M 300.0 290.7 L 304.0 290.5 L 307.9 290.5 L 311.9 290.2 L 315.8 290.0 L 319.7 289.4 L 323.6 288.7 L 327.5 288.0 L 331.4 287.1 L 335.2 286.1 L 339.0 284.9 L 342.7 283.6 L 346.4 282.2 L 350.0 280.7 L 353.6 279.0 L 357.1 277.3 L 360.6 275.3 L 364.0 273.4 L 367.3 271.1 L 370.5 268.9 L 373.8 266.7 L 376.9 264.2 L 379.8 261.6 L 382.7 258.9 L 385.6 256.2 L 388.2 253.2 L 390.8 250.2 L 393.3 247.2 L 395.7 244.0 L 397.9 240.6 L 400.0 237.3 L 402.2 234.0 L 404.0 230.5 L 405.7 226.8 L 407.4 223.2 L 408.7 219.3 L 410.1 215.5 L 411.3 211.7 L 412.2 207.6 L 413.1 203.7 L 413.9 199.8 L 414.4 195.6 L 414.8 191.5 L 415.0 187.4 L 415.0 183.1 L 414.9 178.9 L 414.6 174.7 L 414.1 170.4 L 413.4 166.1 L 412.6 161.9 L 411.5 157.6 L 410.3 153.3 L 409.0 149.2 L 407.5 145.0 L 405.8 140.9 L 403.9 136.8 L 401.8 132.7 L 399.5 128.6 L 396.3 124.2 L 393.1 119.9 L 390.1 116.0 L 387.2 112.3 L 383.4 108.3 L 379.5 104.5 L 376.4 101.2 L 372.0 97.6 L 367.7 94.1 L 363.0 90.7 L 357.5 87.2 L 351.8 83.9 L 346.0 80.7 L 340.4 77.9 L 335.0 75.4 L 329.7 73.1 L 324.5 71.0 L 320.0 69.4 L 315.5 67.9 L 311.0 66.5 L 307.2 65.5 L 303.9 64.8 L 302.8 64.5 L 302.1 64.3 L 301.6 64.2 L 301.3 64.2 L 301.2 64.1 L 301.3 64.1 L 301.3 64.1 L 301.3 64.1 L 301.3 64.0 L 301.3 64.0 L 301.3 64.0 L 298.7 64.0 L 298.8 64.0 L 298.8 64.0 L 298.8 64.1 L 298.8 64.1 L 298.8 64.1 L 298.8 64.1 L 298.8 64.1 L 298.8 64.2 L 298.7 64.2 L 298.3 64.3 L 297.8 64.4 L 297.2 64.6 L 294.8 65.2 L 292.4 65.9 L 290.0 66.7 L 286.1 68.0 L 282.0 69.5 L 277.7 71.2 L 273.0 73.3 L 268.2 75.6 L 263.2 78.1 L 258.0 81.0 L 253.1 83.9 L 247.6 87.3 L 242.3 90.9 L 237.1 94.7 L 232.0 98.6 L 227.1 102.7 L 222.3 107.1 L 218.3 111.2 L 214.7 115.2 L 212.3 118.8 L 209.3 122.9 L 206.2 127.3 L 203.4 131.6 L 201.5 135.6 L 199.7 139.6 L 197.8 143.8 L 196.5 147.8 L 195.2 151.9 L 194.2 156.0 L 193.0 160.3 L 192.2 164.6 L 191.5 168.8 L 191.2 172.8 L 190.7 177.2 L 190.6 181.3 L 190.6 185.5 L 190.7 189.7 L 191.0 193.9 L 191.6 197.8 L 192.2 202.0 L 192.9 206.1 L 193.9 210.1 L 195.0 213.9 L 196.2 217.9 L 197.6 221.7 L 199.2 225.4 L 200.9 228.9 L 202.7 232.5 L 204.7 236.0 L 206.8 239.3 L 208.9 242.8 L 211.3 245.9 L 213.7 249.0 L 216.2 252.1 L 218.9 255.1 L 221.7 257.8 L 224.6 260.5 L 227.5 263.2 L 230.6 265.6 L 233.7 268.0 L 237.0 270.2 L 240.2 272.6 L 243.6 274.5 L 247.0 276.5 L 250.5 278.3 L 254.1 280.2 L 257.7 281.6 L 261.4 283.1 L 265.1 284.2 L 268.9 285.5 L 272.7 286.7 L 276.5 287.6 L 280.4 288.4 L 284.2 289.3 L 288.2 289.6 L 292.1 290.1 L 296.0 290.4 L 300.0 290.7 Z" fill="none" stroke="#3FA9F5" stroke-width="1.7" stroke-linejoin="round" stroke-linecap="round"/>
<path d="M 300.0 290.7 L 304.0 290.9 L 307.9 290.6 L 311.9 290.6 L 315.8 290.1 L 319.8 289.8 L 323.7 289.1 L 327.6 288.6 L 331.4 287.6 L 335.3 286.7 L 339.1 285.5 L 342.8 284.4 L 346.5 282.9 L 350.2 281.5 L 353.8 279.8 L 357.4 278.2 L 360.9 276.4 L 364.3 274.3 L 367.7 272.3 L 371.0 270.2 L 374.2 267.8 L 377.4 265.5 L 380.4 262.9 L 383.4 260.4 L 386.2 257.6 L 389.0 254.8 L 391.7 252.0 L 394.2 248.9 L 396.6 245.6 L 398.9 242.5 L 401.1 239.1 L 403.2 235.7 L 405.2 232.3 L 407.0 228.7 L 408.6 225.1 L 410.2 221.3 L 411.6 217.6 L 412.9 213.9 L 414.0 209.9 L 414.9 205.9 L 415.7 201.9 L 416.4 197.9 L 416.9 193.8 L 417.3 189.8 L 417.5 185.7 L 417.5 181.5 L 417.4 177.3 L 417.0 173.1 L 416.4 168.8 L 415.8 164.7 L 414.8 160.4 L 413.8 156.1 L 411.6 151.2 L 404.0 142.4 L 395.7 133.5 L 392.5 128.8 L 389.0 124.0 L 377.8 114.5 L 372.8 109.5 L 370.1 106.1 L 357.8 97.3 L 353.3 93.6 L 347.0 89.0 L 337.5 83.1 L 334.4 80.8 L 323.2 74.8 L 318.6 72.3 L 313.8 69.9 L 309.0 67.7 L 307.8 67.0 L 306.5 66.4 L 305.3 65.8 L 304.2 65.4 L 303.2 65.0 L 302.3 64.6 L 301.5 64.4 L 301.3 64.3 L 301.3 64.3 L 301.3 64.3 L 301.3 64.3 L 301.3 64.2 L 301.3 64.2 L 301.2 64.2 L 301.2 64.1 L 301.1 64.1 L 301.0 64.1 L 301.0 64.1 L 300.9 64.0 L 300.9 64.0 L 300.9 64.0 L 301.0 64.0 L 298.8 64.0 L 298.8 64.0 L 298.8 64.0 L 298.8 64.1 L 298.8 64.1 L 298.8 64.1 L 298.8 64.1 L 298.8 64.2 L 298.8 64.2 L 298.8 64.2 L 298.8 64.2 L 298.8 64.2 L 298.8 64.2 L 298.9 64.3 L 298.9 64.3 L 298.9 64.3 L 298.9 64.3 L 298.9 64.3 L 298.9 64.3 L 299.0 64.4 L 299.0 64.4 L 299.0 64.4 L 298.9 64.5 L 298.5 64.6 L 298.0 64.9 L 297.5 65.2 L 296.9 65.5 L 296.3 65.9 L 295.7 66.3 L 295.1 66.7 L 294.5 67.2 L 294.0 67.6 L 293.5 68.1 L 293.0 68.6 L 292.5 69.0 L 290.8 70.4 L 283.6 75.9 L 280.3 78.8 L 278.0 81.2 L 271.2 87.3 L 266.2 92.4 L 263.6 95.6 L 261.8 98.4 L 256.7 104.4 L 251.8 110.6 L 247.1 116.9 L 245.3 120.7 L 244.2 123.8 L 240.1 130.6 L 234.3 139.6 L 231.0 146.2 L 229.4 151.2 L 229.0 154.8 L 229.2 158.0 L 227.0 164.5 L 222.0 175.3 L 219.2 183.7 L 218.2 190.0 L 218.5 194.4 L 219.6 197.8 L 220.8 201.1 L 221.2 206.1 L 219.3 215.7 L 217.2 226.5 L 216.3 235.5 L 217.3 241.4 L 219.3 245.2 L 221.8 248.3 L 224.3 251.2 L 226.9 254.3 L 229.5 257.6 L 232.3 260.7 L 235.1 263.6 L 238.1 266.4 L 241.2 269.2 L 244.3 271.8 L 247.6 274.1 L 251.0 276.4 L 254.4 278.6 L 257.9 280.6 L 261.5 282.3 L 265.2 284.0 L 268.9 285.3 L 272.7 286.7 L 276.5 287.5 L 280.4 288.3 L 284.3 288.9 L 288.2 289.8 L 292.1 290.3 L 296.0 290.6 L 300.0 290.7 Z" fill="none" stroke="#F32740" stroke-width="2.0" stroke-linejoin="round" stroke-linecap="round"/>
<text x="338" y="132" fill="#F32740" font-size="9.5" font-weight="700">125</text>
<text x="335" y="200" fill="#F32740" font-size="9.5" font-weight="700">250</text>
<text x="335" y="268" fill="#F32740" font-size="9.5" font-weight="700">375</text>
<text x="335" y="336" fill="#F32740" font-size="9.5" font-weight="700">500</text>
<rect x="274.0" y="58" width="52" height="11" rx="1.5" fill="#fafbfc" stroke="rgba(255,255,255,0.4)" stroke-width="0.5"/>
<line x1="272.0" y1="69.8" x2="328.0" y2="69.8" stroke="#F32740" stroke-width="0.7" stroke-dasharray="1.5 2"/>
<text x="300" y="66" text-anchor="middle" fill="#F32740" font-size="8" font-weight="700" letter-spacing="0.5">cd/klm SCALE</text>
<g transform="translate(22, 434)">
<text x="0" y="-8" fill="rgba(255,255,255,0.55)" font-size="8" letter-spacing="1.4">cd/klm</text>
<line x1="0" y1="6" x2="22" y2="6" stroke="#F32740" stroke-width="2.2"/>
<text x="28" y="9" fill="rgba(255,255,255,0.7)" font-size="9.5">C0 – C180</text>
<line x1="120" y1="6" x2="142" y2="6" stroke="#3FA9F5" stroke-width="1.7"/>
<text x="148" y="9" fill="rgba(255,255,255,0.7)" font-size="9.5">C90 – C270</text>
</g>
<text x="578" y="402" fill="rgba(255,255,255,0.45)" font-size="9" text-anchor="end">η = 132 lm/W</text>
<text x="578" y="418" fill="rgba(255,255,255,0.45)" font-size="9" text-anchor="end">10,189 lm · 77.2W</text>
<text x="578" y="434" fill="rgba(255,255,255,0.55)" font-size="8" letter-spacing="1.4" text-anchor="end">PEAK INTENSITY</text>
<text x="578" y="451" fill="#fff" font-weight="700" font-size="14" text-anchor="end">4,251 cd</text>
</svg>