<svg viewBox="0 0 600 460" xmlns="http://www.w3.org/2000/svg" font-family="JetBrains Mono, monospace" font-size="9.5">
<rect width="100%" height="100%" fill="#14171b"/>
<text x="22" y="26" fill="#F32740" font-weight="700" letter-spacing="2">LFLD3W35-3E1-UD-PS-35W-50K_IESNA2002 · 35W · 5000K · FLOOD</text>
<text x="22" y="42" fill="rgba(255,255,255,0.55)" font-size="8" letter-spacing="1.4">LUMINOUS INTENSITY DISTRIBUTION (cd/klm)</text>
<path d="M 232.0 64.0 A 68.0 68.0 0 0 0 368.0 64.0" fill="none" stroke="rgba(120,200,200,0.18)" stroke-width="0.7"/>
<path d="M 164.0 64.0 A 136.0 136.0 0 0 0 436.0 64.0" fill="none" stroke="rgba(120,200,200,0.18)" stroke-width="0.7"/>
<path d="M 96.0 64.0 A 204.0 204.0 0 0 0 504.0 64.0" fill="none" stroke="rgba(120,200,200,0.18)" stroke-width="0.7"/>
<path d="M 28.0 64.0 A 272.0 272.0 0 0 0 572.0 64.0" fill="none" stroke="rgba(120,200,200,0.18)" stroke-width="0.7"/>
<path d="M -40.0 64.0 A 340.0 340.0 0 0 0 640.0 64.0" fill="none" stroke="rgba(120,200,200,0.18)" stroke-width="0.7"/>
<line x1="300.0" y1="64" x2="388.0" y2="392.4" stroke="rgba(120,200,200,0.10)" stroke-width="0.5"/>
<line x1="300.0" y1="64" x2="212.0" y2="392.4" stroke="rgba(120,200,200,0.10)" stroke-width="0.5"/>
<line x1="300.0" y1="64" x2="470.0" y2="358.4" stroke="rgba(120,200,200,0.10)" stroke-width="0.5"/>
<line x1="300.0" y1="64" x2="130.0" y2="358.4" stroke="rgba(120,200,200,0.10)" stroke-width="0.5"/>
<line x1="300.0" y1="64" x2="540.4" y2="304.4" stroke="rgba(120,200,200,0.10)" stroke-width="0.5"/>
<line x1="300.0" y1="64" x2="59.6" y2="304.4" stroke="rgba(120,200,200,0.10)" stroke-width="0.5"/>
<line x1="300.0" y1="64" x2="594.4" y2="234.0" stroke="rgba(120,200,200,0.10)" stroke-width="0.5"/>
<line x1="300.0" y1="64" x2="5.6" y2="234.0" stroke="rgba(120,200,200,0.10)" stroke-width="0.5"/>
<line x1="300.0" y1="64" x2="628.4" y2="152.0" stroke="rgba(120,200,200,0.10)" stroke-width="0.5"/>
<line x1="300.0" y1="64" x2="-28.4" y2="152.0" stroke="rgba(120,200,200,0.10)" stroke-width="0.5"/>
<line x1="300.0" y1="64" x2="640.0" y2="64.0" stroke="rgba(120,200,200,0.10)" stroke-width="0.5"/>
<line x1="300.0" y1="64" x2="-40.0" y2="64.0" stroke="rgba(120,200,200,0.10)" stroke-width="0.5"/>
<line x1="300.0" y1="64" x2="300.0" y2="408" stroke="rgba(120,200,200,0.14)" stroke-width="0.5"/>
<line x1="-40.0" y1="64" x2="640.0" y2="64" stroke="rgba(120,200,200,0.14)" stroke-width="0.5"/>
<text x="391.6" y="408.9" text-anchor="middle" fill="rgba(255,255,255,0.4)" font-size="9">15°</text>
<text x="208.4" y="408.9" text-anchor="middle" fill="rgba(255,255,255,0.4)" font-size="9">15°</text>
<text x="477.0" y="373.6" text-anchor="middle" fill="rgba(255,255,255,0.6)" font-size="9">30°</text>
<text x="123.0" y="373.6" text-anchor="middle" fill="rgba(255,255,255,0.6)" font-size="9">30°</text>
<text x="550.3" y="317.3" text-anchor="middle" fill="rgba(255,255,255,0.4)" font-size="9">45°</text>
<text x="49.7" y="317.3" text-anchor="middle" fill="rgba(255,255,255,0.4)" font-size="9">45°</text>
<text x="606.6" y="244.0" text-anchor="middle" fill="rgba(255,255,255,0.6)" font-size="9">60°</text>
<text x="-6.6" y="244.0" text-anchor="middle" fill="rgba(255,255,255,0.6)" font-size="9">60°</text>
<text x="641.9" y="158.6" text-anchor="middle" fill="rgba(255,255,255,0.4)" font-size="9">75°</text>
<text x="-41.9" y="158.6" text-anchor="middle" fill="rgba(255,255,255,0.4)" font-size="9">75°</text>
<text x="654.0" y="67.0" text-anchor="middle" fill="rgba(255,255,255,0.6)" font-size="9">90°</text>
<text x="-54.0" y="67.0" text-anchor="middle" fill="rgba(255,255,255,0.6)" font-size="9">90°</text>
<text x="300" y="426" text-anchor="middle" fill="rgba(255,255,255,0.6)" font-size="9">0°</text>
<path d="M 300.0 291.5 L 304.0 291.6 L 307.9 291.5 L 311.9 291.3 L 315.9 290.9 L 319.8 290.4 L 323.7 289.5 L 327.6 288.7 L 331.4 287.4 L 335.2 286.0 L 338.9 284.6 L 342.6 283.1 L 346.2 281.4 L 349.8 279.7 L 353.3 277.9 L 356.8 275.9 L 360.2 273.9 L 363.6 272.0 L 366.8 269.7 L 370.0 267.4 L 373.1 264.9 L 376.1 262.4 L 379.0 259.6 L 381.9 256.9 L 384.5 253.7 L 387.1 250.7 L 389.4 247.3 L 391.7 244.0 L 393.9 240.5 L 396.0 237.1 L 397.9 233.6 L 399.9 230.2 L 401.6 226.6 L 403.3 223.0 L 404.8 219.3 L 406.1 215.5 L 407.2 211.6 L 408.1 207.5 L 409.0 203.5 L 409.6 199.3 L 409.7 194.8 L 410.0 190.6 L 410.2 186.4 L 410.3 182.3 L 410.2 178.1 L 409.8 173.8 L 409.5 169.7 L 408.8 165.4 L 407.8 161.0 L 406.4 156.5 L 405.1 152.2 L 403.8 148.0 L 402.2 143.9 L 400.3 139.6 L 398.1 135.3 L 394.8 130.4 L 391.1 125.4 L 387.7 121.0 L 385.0 117.1 L 382.4 113.5 L 379.3 109.8 L 374.7 105.4 L 370.3 101.4 L 367.1 98.2 L 363.7 95.1 L 359.3 91.7 L 354.5 88.3 L 351.0 85.7 L 347.0 83.0 L 342.4 80.3 L 338.9 78.2 L 334.5 75.9 L 330.9 74.0 L 326.9 72.2 L 323.6 70.8 L 320.1 69.4 L 316.7 68.2 L 313.2 67.0 L 309.6 66.0 L 306.0 65.2 L 303.7 64.7 L 302.7 64.4 L 301.9 64.3 L 301.4 64.2 L 301.2 64.1 L 301.2 64.1 L 301.2 64.1 L 301.2 64.1 L 301.2 64.0 L 301.2 64.0 L 301.3 64.0 L 298.7 64.0 L 298.8 64.0 L 298.8 64.0 L 298.8 64.1 L 298.8 64.1 L 298.5 64.1 L 298.0 64.2 L 297.1 64.4 L 295.9 64.6 L 292.3 65.2 L 287.9 66.1 L 284.1 67.1 L 280.5 68.1 L 276.8 69.4 L 272.8 70.8 L 268.9 72.3 L 265.0 74.0 L 261.0 75.9 L 256.2 78.2 L 252.1 80.5 L 248.2 82.9 L 242.8 85.9 L 239.1 88.6 L 235.3 91.4 L 230.2 95.1 L 225.9 98.5 L 222.7 101.7 L 219.4 105.1 L 215.0 109.2 L 210.4 113.6 L 207.4 117.5 L 204.8 121.2 L 202.4 125.0 L 199.4 129.3 L 195.8 134.3 L 192.3 139.4 L 189.9 144.0 L 188.4 148.1 L 187.0 152.3 L 185.7 156.5 L 184.6 160.8 L 183.7 165.1 L 182.8 169.5 L 182.2 173.8 L 182.0 178.0 L 181.8 182.2 L 181.9 186.3 L 182.0 190.5 L 182.4 194.6 L 182.7 198.9 L 183.3 203.1 L 184.1 207.1 L 185.2 211.0 L 186.3 215.0 L 187.6 218.7 L 189.0 222.6 L 190.6 226.2 L 192.3 229.8 L 194.2 233.4 L 196.1 236.9 L 198.2 240.3 L 200.4 243.6 L 202.7 247.1 L 205.1 250.2 L 207.7 253.2 L 210.4 256.2 L 213.2 259.0 L 216.1 261.7 L 219.1 264.2 L 222.2 266.6 L 225.4 269.1 L 228.6 271.3 L 231.9 273.5 L 235.3 275.5 L 238.7 277.7 L 242.2 279.7 L 245.8 281.5 L 249.4 283.1 L 253.1 284.7 L 256.8 286.0 L 260.7 287.1 L 264.5 288.0 L 268.4 288.9 L 272.3 289.6 L 276.2 290.4 L 280.2 290.7 L 284.1 290.9 L 288.1 291.2 L 292.1 291.4 L 296.0 291.4 L 300.0 291.5 Z" fill="none" stroke="#3FA9F5" stroke-width="1.7" stroke-linejoin="round" stroke-linecap="round"/>
<path d="M 300.0 291.5 L 304.0 291.2 L 307.9 291.3 L 311.9 291.0 L 315.9 290.8 L 319.8 290.2 L 323.7 289.8 L 327.6 289.1 L 331.5 288.4 L 335.3 287.0 L 339.1 285.7 L 342.8 284.2 L 346.5 282.6 L 350.0 280.6 L 353.5 278.7 L 357.0 276.6 L 360.3 274.1 L 363.4 271.5 L 366.5 268.7 L 369.5 265.7 L 372.3 262.7 L 375.0 259.4 L 377.7 256.4 L 380.3 253.3 L 382.9 250.2 L 385.3 246.8 L 386.2 240.7 L 384.8 230.4 L 380.8 215.9 L 375.4 200.0 L 371.6 188.0 L 370.1 180.7 L 370.6 177.0 L 371.5 174.2 L 372.5 171.4 L 373.3 168.7 L 374.1 166.0 L 374.7 163.1 L 375.1 160.2 L 374.4 155.9 L 371.5 149.2 L 367.8 142.0 L 360.9 131.6 L 351.6 119.3 L 346.4 112.1 L 345.7 109.7 L 345.4 107.8 L 345.0 106.0 L 344.4 104.0 L 342.2 100.7 L 337.3 95.3 L 333.7 91.3 L 322.3 81.4 L 313.0 73.8 L 312.0 72.7 L 311.1 71.7 L 310.6 71.1 L 310.1 70.6 L 309.7 70.0 L 309.1 69.5 L 308.6 68.9 L 307.9 68.4 L 307.2 67.8 L 306.5 67.3 L 305.8 66.8 L 305.0 66.3 L 304.3 65.9 L 303.5 65.5 L 302.8 65.1 L 302.1 64.8 L 301.5 64.6 L 301.1 64.4 L 301.0 64.3 L 301.0 64.3 L 301.0 64.3 L 301.0 64.3 L 301.0 64.2 L 301.0 64.2 L 301.0 64.2 L 301.0 64.2 L 301.0 64.2 L 301.1 64.2 L 301.1 64.2 L 301.1 64.1 L 301.1 64.1 L 301.1 64.1 L 301.1 64.1 L 301.1 64.1 L 301.1 64.0 L 301.2 64.0 L 301.2 64.0 L 299.1 64.0 L 299.1 64.0 L 299.1 64.0 L 299.1 64.0 L 299.1 64.1 L 299.0 64.1 L 299.0 64.1 L 298.9 64.1 L 298.8 64.2 L 298.7 64.2 L 298.7 64.2 L 298.6 64.3 L 298.6 64.3 L 298.6 64.3 L 298.6 64.3 L 298.4 64.4 L 297.6 64.7 L 296.6 65.0 L 295.5 65.5 L 294.1 66.0 L 292.4 66.8 L 290.6 67.6 L 288.7 68.6 L 284.4 70.6 L 276.3 74.6 L 268.3 78.8 L 261.5 82.8 L 247.6 90.7 L 243.2 94.2 L 240.5 97.0 L 237.9 99.8 L 235.3 102.9 L 230.1 107.7 L 220.9 115.4 L 211.1 123.9 L 204.0 131.2 L 200.4 136.3 L 198.5 140.5 L 196.7 144.7 L 195.1 148.9 L 193.5 153.3 L 192.1 157.8 L 191.0 162.1 L 190.2 166.4 L 189.3 170.9 L 188.8 175.2 L 188.6 179.3 L 188.7 183.4 L 188.7 187.6 L 189.1 191.6 L 189.5 195.7 L 190.0 199.9 L 190.5 204.2 L 191.3 208.3 L 192.1 212.6 L 193.2 216.5 L 194.4 220.6 L 195.9 224.3 L 197.4 228.2 L 199.2 231.7 L 201.0 235.5 L 203.1 238.9 L 205.2 242.3 L 207.6 245.4 L 210.0 248.5 L 212.5 251.7 L 215.1 254.6 L 217.9 257.4 L 220.7 260.2 L 223.6 262.9 L 226.6 265.6 L 229.7 268.0 L 232.9 270.5 L 236.1 272.9 L 239.5 275.0 L 243.0 276.9 L 246.4 278.9 L 249.9 280.8 L 253.6 282.5 L 257.3 283.9 L 261.0 285.4 L 264.7 286.6 L 268.5 287.8 L 272.4 288.6 L 276.3 289.6 L 280.2 290.4 L 284.1 290.8 L 288.1 291.0 L 292.1 291.3 L 296.0 291.3 L 300.0 291.5 Z" fill="none" stroke="#F32740" stroke-width="2.0" stroke-linejoin="round" stroke-linecap="round"/>
<text x="338" y="132" fill="#F32740" font-size="9.5" font-weight="700">125</text>
<text x="335" y="200" fill="#F32740" font-size="9.5" font-weight="700">250</text>
<text x="335" y="268" fill="#F32740" font-size="9.5" font-weight="700">375</text>
<text x="335" y="336" fill="#F32740" font-size="9.5" font-weight="700">500</text>
<rect x="274.0" y="58" width="52" height="11" rx="1.5" fill="#fafbfc" stroke="rgba(255,255,255,0.4)" stroke-width="0.5"/>
<line x1="272.0" y1="69.8" x2="328.0" y2="69.8" stroke="#F32740" stroke-width="0.7" stroke-dasharray="1.5 2"/>
<text x="300" y="66" text-anchor="middle" fill="#F32740" font-size="8" font-weight="700" letter-spacing="0.5">cd/klm SCALE</text>
<g transform="translate(22, 434)">
<text x="0" y="-8" fill="rgba(255,255,255,0.55)" font-size="8" letter-spacing="1.4">cd/klm</text>
<line x1="0" y1="6" x2="22" y2="6" stroke="#F32740" stroke-width="2.2"/>
<text x="28" y="9" fill="rgba(255,255,255,0.7)" font-size="9.5">C0 – C180</text>
<line x1="120" y1="6" x2="142" y2="6" stroke="#3FA9F5" stroke-width="1.7"/>
<text x="148" y="9" fill="rgba(255,255,255,0.7)" font-size="9.5">C90 – C270</text>
</g>
<text x="578" y="402" fill="rgba(255,255,255,0.45)" font-size="9" text-anchor="end">η = 130 lm/W</text>
<text x="578" y="418" fill="rgba(255,255,255,0.45)" font-size="9" text-anchor="end">4,776 lm · 36.7W</text>
<text x="578" y="434" fill="rgba(255,255,255,0.55)" font-size="8" letter-spacing="1.4" text-anchor="end">PEAK INTENSITY</text>
<text x="578" y="451" fill="#fff" font-weight="700" font-size="14" text-anchor="end">1,999 cd</text>
</svg>