<svg viewBox="0 0 600 460" xmlns="http://www.w3.org/2000/svg" font-family="JetBrains Mono, monospace" font-size="9.5">
<rect width="100%" height="100%" fill="#14171b"/>
<text x="22" y="26" fill="#F32740" font-weight="700" letter-spacing="2">LFLD3W150-3E1-UD-PS-120W-40K_IESNA2002 · 120W · 4000K · FLOOD</text>
<text x="22" y="42" fill="rgba(255,255,255,0.55)" font-size="8" letter-spacing="1.4">LUMINOUS INTENSITY DISTRIBUTION (cd/klm)</text>
<path d="M 232.0 64.0 A 68.0 68.0 0 0 0 368.0 64.0" fill="none" stroke="rgba(120,200,200,0.18)" stroke-width="0.7"/>
<path d="M 164.0 64.0 A 136.0 136.0 0 0 0 436.0 64.0" fill="none" stroke="rgba(120,200,200,0.18)" stroke-width="0.7"/>
<path d="M 96.0 64.0 A 204.0 204.0 0 0 0 504.0 64.0" fill="none" stroke="rgba(120,200,200,0.18)" stroke-width="0.7"/>
<path d="M 28.0 64.0 A 272.0 272.0 0 0 0 572.0 64.0" fill="none" stroke="rgba(120,200,200,0.18)" stroke-width="0.7"/>
<path d="M -40.0 64.0 A 340.0 340.0 0 0 0 640.0 64.0" fill="none" stroke="rgba(120,200,200,0.18)" stroke-width="0.7"/>
<line x1="300.0" y1="64" x2="388.0" y2="392.4" stroke="rgba(120,200,200,0.10)" stroke-width="0.5"/>
<line x1="300.0" y1="64" x2="212.0" y2="392.4" stroke="rgba(120,200,200,0.10)" stroke-width="0.5"/>
<line x1="300.0" y1="64" x2="470.0" y2="358.4" stroke="rgba(120,200,200,0.10)" stroke-width="0.5"/>
<line x1="300.0" y1="64" x2="130.0" y2="358.4" stroke="rgba(120,200,200,0.10)" stroke-width="0.5"/>
<line x1="300.0" y1="64" x2="540.4" y2="304.4" stroke="rgba(120,200,200,0.10)" stroke-width="0.5"/>
<line x1="300.0" y1="64" x2="59.6" y2="304.4" stroke="rgba(120,200,200,0.10)" stroke-width="0.5"/>
<line x1="300.0" y1="64" x2="594.4" y2="234.0" stroke="rgba(120,200,200,0.10)" stroke-width="0.5"/>
<line x1="300.0" y1="64" x2="5.6" y2="234.0" stroke="rgba(120,200,200,0.10)" stroke-width="0.5"/>
<line x1="300.0" y1="64" x2="628.4" y2="152.0" stroke="rgba(120,200,200,0.10)" stroke-width="0.5"/>
<line x1="300.0" y1="64" x2="-28.4" y2="152.0" stroke="rgba(120,200,200,0.10)" stroke-width="0.5"/>
<line x1="300.0" y1="64" x2="640.0" y2="64.0" stroke="rgba(120,200,200,0.10)" stroke-width="0.5"/>
<line x1="300.0" y1="64" x2="-40.0" y2="64.0" stroke="rgba(120,200,200,0.10)" stroke-width="0.5"/>
<line x1="300.0" y1="64" x2="300.0" y2="408" stroke="rgba(120,200,200,0.14)" stroke-width="0.5"/>
<line x1="-40.0" y1="64" x2="640.0" y2="64" stroke="rgba(120,200,200,0.14)" stroke-width="0.5"/>
<text x="391.6" y="408.9" text-anchor="middle" fill="rgba(255,255,255,0.4)" font-size="9">15°</text>
<text x="208.4" y="408.9" text-anchor="middle" fill="rgba(255,255,255,0.4)" font-size="9">15°</text>
<text x="477.0" y="373.6" text-anchor="middle" fill="rgba(255,255,255,0.6)" font-size="9">30°</text>
<text x="123.0" y="373.6" text-anchor="middle" fill="rgba(255,255,255,0.6)" font-size="9">30°</text>
<text x="550.3" y="317.3" text-anchor="middle" fill="rgba(255,255,255,0.4)" font-size="9">45°</text>
<text x="49.7" y="317.3" text-anchor="middle" fill="rgba(255,255,255,0.4)" font-size="9">45°</text>
<text x="606.6" y="244.0" text-anchor="middle" fill="rgba(255,255,255,0.6)" font-size="9">60°</text>
<text x="-6.6" y="244.0" text-anchor="middle" fill="rgba(255,255,255,0.6)" font-size="9">60°</text>
<text x="641.9" y="158.6" text-anchor="middle" fill="rgba(255,255,255,0.4)" font-size="9">75°</text>
<text x="-41.9" y="158.6" text-anchor="middle" fill="rgba(255,255,255,0.4)" font-size="9">75°</text>
<text x="654.0" y="67.0" text-anchor="middle" fill="rgba(255,255,255,0.6)" font-size="9">90°</text>
<text x="-54.0" y="67.0" text-anchor="middle" fill="rgba(255,255,255,0.6)" font-size="9">90°</text>
<text x="300" y="426" text-anchor="middle" fill="rgba(255,255,255,0.6)" font-size="9">0°</text>
<path d="M 300.0 335.3 L 304.7 335.0 L 309.5 334.6 L 314.2 334.5 L 318.9 333.9 L 323.5 333.1 L 328.2 332.2 L 332.8 331.3 L 337.4 330.3 L 341.9 328.7 L 346.4 327.0 L 350.9 325.8 L 355.2 323.9 L 359.6 322.0 L 363.8 319.9 L 367.9 317.5 L 372.1 315.5 L 376.1 312.8 L 380.0 310.1 L 383.8 307.4 L 387.6 304.6 L 391.1 301.4 L 394.7 298.4 L 398.0 294.9 L 401.4 291.7 L 404.4 288.0 L 407.4 284.2 L 410.4 280.7 L 413.1 276.7 L 415.7 272.8 L 418.2 268.7 L 420.4 264.3 L 422.7 260.3 L 424.6 255.9 L 426.4 251.4 L 428.0 246.9 L 429.5 242.3 L 430.8 237.6 L 431.9 232.9 L 432.8 228.0 L 433.7 223.4 L 434.3 218.5 L 434.6 213.4 L 434.7 208.5 L 434.8 203.6 L 434.6 198.6 L 434.1 193.5 L 433.3 188.3 L 432.6 183.4 L 431.6 178.4 L 430.2 173.3 L 428.7 168.3 L 426.8 163.1 L 424.2 157.6 L 420.7 151.7 L 416.9 145.9 L 413.1 140.3 L 409.0 134.8 L 404.7 129.4 L 400.2 124.2 L 395.5 119.2 L 390.7 114.3 L 385.7 109.6 L 380.6 105.1 L 375.3 100.7 L 369.9 96.6 L 364.4 92.7 L 359.0 89.0 L 353.6 85.7 L 348.0 82.4 L 342.4 79.4 L 337.0 76.8 L 331.8 74.3 L 326.9 72.2 L 322.0 70.3 L 317.5 68.7 L 313.8 67.4 L 310.0 66.3 L 306.2 65.3 L 303.5 64.7 L 303.0 64.5 L 302.6 64.4 L 302.2 64.3 L 301.9 64.2 L 301.8 64.2 L 301.8 64.2 L 301.7 64.1 L 301.6 64.1 L 301.6 64.1 L 301.6 64.0 L 301.6 64.0 L 298.5 64.0 L 298.5 64.0 L 298.5 64.1 L 298.5 64.1 L 298.5 64.1 L 298.5 64.1 L 298.5 64.2 L 298.5 64.2 L 298.5 64.2 L 298.4 64.3 L 298.1 64.3 L 297.6 64.5 L 296.1 64.8 L 294.5 65.3 L 292.9 65.8 L 289.2 66.9 L 285.2 68.3 L 280.8 69.9 L 276.2 71.7 L 271.3 73.9 L 266.1 76.3 L 260.8 79.1 L 255.5 82.0 L 250.0 85.2 L 244.4 88.8 L 238.8 92.5 L 233.2 96.6 L 228.1 100.7 L 222.8 105.1 L 217.6 109.7 L 212.4 114.6 L 207.7 119.5 L 203.2 124.5 L 198.7 129.8 L 194.3 135.3 L 190.4 140.8 L 186.4 146.5 L 182.9 152.3 L 179.4 158.2 L 176.1 164.3 L 173.8 169.9 L 171.7 175.6 L 170.2 180.9 L 169.3 185.9 L 168.4 191.1 L 167.8 196.2 L 167.5 201.2 L 167.3 206.3 L 167.4 211.3 L 167.5 216.4 L 168.1 221.2 L 168.8 226.0 L 169.5 231.0 L 170.6 235.8 L 171.9 240.3 L 173.2 245.0 L 174.8 249.6 L 176.5 254.2 L 178.4 258.5 L 180.6 262.8 L 182.7 267.1 L 185.1 271.3 L 187.7 275.2 L 190.3 279.4 L 193.2 283.0 L 196.1 286.8 L 199.3 290.3 L 202.5 293.8 L 205.8 297.1 L 209.2 300.5 L 212.9 303.4 L 216.5 306.6 L 220.3 309.2 L 224.1 312.1 L 228.1 314.6 L 232.2 317.0 L 236.4 319.1 L 240.6 321.4 L 244.9 323.3 L 249.2 325.4 L 253.7 326.8 L 258.1 328.4 L 262.6 329.9 L 267.2 331.0 L 271.8 332.0 L 276.5 333.1 L 281.1 333.6 L 285.8 334.4 L 290.5 334.6 L 295.3 335.0 L 300.0 335.3 Z" fill="none" stroke="#3FA9F5" stroke-width="1.7" stroke-linejoin="round" stroke-linecap="round"/>
<path d="M 300.0 335.3 L 304.7 335.1 L 309.5 335.6 L 314.2 335.0 L 318.9 334.6 L 323.6 334.0 L 328.3 333.6 L 333.0 332.5 L 337.6 331.7 L 342.2 330.3 L 346.8 329.2 L 351.2 327.6 L 355.7 325.8 L 360.0 324.0 L 364.4 322.3 L 368.6 319.9 L 372.8 318.0 L 376.9 315.5 L 380.9 313.0 L 384.9 310.5 L 388.6 307.4 L 392.3 304.5 L 396.0 301.6 L 399.5 298.4 L 402.8 294.9 L 406.2 291.7 L 409.4 288.2 L 412.4 284.5 L 415.3 280.8 L 417.9 276.8 L 420.6 272.9 L 423.1 268.9 L 425.3 264.5 L 427.5 260.3 L 429.5 256.0 L 431.2 251.4 L 433.0 247.0 L 434.3 242.2 L 435.6 237.6 L 436.7 232.8 L 437.6 227.9 L 438.2 222.9 L 438.8 218.2 L 438.9 213.0 L 439.1 208.0 L 439.0 203.0 L 438.6 197.9 L 438.1 192.8 L 437.6 187.9 L 436.8 182.9 L 435.9 178.1 L 434.7 173.1 L 433.4 168.2 L 431.9 163.4 L 429.5 158.1 L 424.8 151.4 L 419.7 144.7 L 416.4 139.6 L 413.9 135.2 L 411.4 130.9 L 407.7 126.2 L 400.4 119.7 L 392.9 113.4 L 385.0 107.3 L 377.1 101.6 L 370.0 96.7 L 362.1 91.6 L 354.1 87.0 L 346.5 82.8 L 338.7 78.9 L 331.5 75.5 L 324.4 72.4 L 317.2 69.6 L 312.4 67.8 L 307.5 66.2 L 306.5 65.7 L 305.3 65.3 L 304.3 65.0 L 303.3 64.7 L 302.4 64.5 L 301.9 64.3 L 301.9 64.3 L 301.9 64.3 L 301.8 64.2 L 301.8 64.2 L 301.7 64.1 L 301.6 64.1 L 301.5 64.1 L 301.5 64.1 L 301.4 64.0 L 301.3 64.0 L 298.5 64.0 L 298.5 64.0 L 298.5 64.1 L 298.5 64.1 L 298.4 64.1 L 298.4 64.1 L 298.4 64.2 L 298.4 64.2 L 298.4 64.2 L 298.5 64.2 L 298.5 64.3 L 298.5 64.3 L 298.5 64.3 L 298.5 64.3 L 298.5 64.4 L 298.6 64.4 L 298.6 64.4 L 298.6 64.4 L 298.5 64.5 L 298.1 64.6 L 297.5 64.9 L 296.9 65.2 L 296.2 65.5 L 295.4 65.9 L 294.7 66.4 L 293.9 66.8 L 293.1 67.3 L 292.5 67.8 L 291.9 68.3 L 286.3 71.6 L 279.8 75.7 L 277.0 77.8 L 271.9 81.5 L 266.3 85.9 L 260.8 90.4 L 255.5 95.1 L 253.3 98.0 L 245.9 104.8 L 244.2 107.6 L 236.7 115.3 L 235.4 118.2 L 229.1 125.6 L 225.8 130.8 L 224.2 134.7 L 217.1 144.0 L 216.2 147.8 L 214.4 152.6 L 207.8 162.8 L 206.9 167.4 L 206.6 171.5 L 201.8 181.1 L 199.7 187.8 L 200.0 192.0 L 199.3 197.7 L 194.8 208.7 L 194.5 214.7 L 195.4 219.0 L 196.0 224.2 L 192.9 235.4 L 192.9 242.2 L 194.6 246.6 L 196.5 250.8 L 196.3 259.1 L 195.1 269.9 L 196.7 275.9 L 199.6 279.4 L 202.3 283.4 L 205.4 286.8 L 208.5 290.5 L 211.7 294.0 L 214.9 297.8 L 218.3 301.2 L 221.8 304.7 L 225.5 307.8 L 229.2 310.8 L 233.1 313.8 L 237.0 316.6 L 241.0 319.4 L 245.2 321.6 L 249.5 323.7 L 253.8 325.9 L 258.2 327.6 L 262.8 328.8 L 267.3 330.2 L 271.9 331.6 L 276.5 332.4 L 281.2 333.3 L 285.8 334.1 L 290.5 334.8 L 295.3 335.1 L 300.0 335.3 Z" fill="none" stroke="#F32740" stroke-width="2.0" stroke-linejoin="round" stroke-linecap="round"/>
<text x="338" y="132" fill="#F32740" font-size="9.5" font-weight="700">100</text>
<text x="335" y="200" fill="#F32740" font-size="9.5" font-weight="700">200</text>
<text x="335" y="268" fill="#F32740" font-size="9.5" font-weight="700">300</text>
<text x="335" y="336" fill="#F32740" font-size="9.5" font-weight="700">400</text>
<rect x="274.0" y="58" width="52" height="11" rx="1.5" fill="#fafbfc" stroke="rgba(255,255,255,0.4)" stroke-width="0.5"/>
<line x1="272.0" y1="69.8" x2="328.0" y2="69.8" stroke="#F32740" stroke-width="0.7" stroke-dasharray="1.5 2"/>
<text x="300" y="66" text-anchor="middle" fill="#F32740" font-size="8" font-weight="700" letter-spacing="0.5">cd/klm SCALE</text>
<g transform="translate(22, 434)">
<text x="0" y="-8" fill="rgba(255,255,255,0.55)" font-size="8" letter-spacing="1.4">cd/klm</text>
<line x1="0" y1="6" x2="22" y2="6" stroke="#F32740" stroke-width="2.2"/>
<text x="28" y="9" fill="rgba(255,255,255,0.7)" font-size="9.5">C0 – C180</text>
<line x1="120" y1="6" x2="142" y2="6" stroke="#3FA9F5" stroke-width="1.7"/>
<text x="148" y="9" fill="rgba(255,255,255,0.7)" font-size="9.5">C90 – C270</text>
</g>
<text x="578" y="402" fill="rgba(255,255,255,0.45)" font-size="9" text-anchor="end">η = 142 lm/W</text>
<text x="578" y="418" fill="rgba(255,255,255,0.45)" font-size="9" text-anchor="end">16,092 lm · 113.5W</text>
<text x="578" y="434" fill="rgba(255,255,255,0.55)" font-size="8" letter-spacing="1.4" text-anchor="end">PEAK INTENSITY</text>
<text x="578" y="451" fill="#fff" font-weight="700" font-size="14" text-anchor="end">6,431 cd</text>
</svg>