<svg viewBox="0 0 600 460" xmlns="http://www.w3.org/2000/svg" font-family="JetBrains Mono, monospace" font-size="9.5">
<rect width="100%" height="100%" fill="#14171b"/>
<text x="22" y="26" fill="#F32740" font-weight="700" letter-spacing="2">LFLD3W80-3E1-UDPS-50K_IESNA2002 · 0W · 5000K · FLOOD</text>
<text x="22" y="42" fill="rgba(255,255,255,0.55)" font-size="8" letter-spacing="1.4">LUMINOUS INTENSITY DISTRIBUTION (cd/klm)</text>
<path d="M 232.0 64.0 A 68.0 68.0 0 0 0 368.0 64.0" fill="none" stroke="rgba(120,200,200,0.18)" stroke-width="0.7"/>
<path d="M 164.0 64.0 A 136.0 136.0 0 0 0 436.0 64.0" fill="none" stroke="rgba(120,200,200,0.18)" stroke-width="0.7"/>
<path d="M 96.0 64.0 A 204.0 204.0 0 0 0 504.0 64.0" fill="none" stroke="rgba(120,200,200,0.18)" stroke-width="0.7"/>
<path d="M 28.0 64.0 A 272.0 272.0 0 0 0 572.0 64.0" fill="none" stroke="rgba(120,200,200,0.18)" stroke-width="0.7"/>
<path d="M -40.0 64.0 A 340.0 340.0 0 0 0 640.0 64.0" fill="none" stroke="rgba(120,200,200,0.18)" stroke-width="0.7"/>
<line x1="300.0" y1="64" x2="388.0" y2="392.4" stroke="rgba(120,200,200,0.10)" stroke-width="0.5"/>
<line x1="300.0" y1="64" x2="212.0" y2="392.4" stroke="rgba(120,200,200,0.10)" stroke-width="0.5"/>
<line x1="300.0" y1="64" x2="470.0" y2="358.4" stroke="rgba(120,200,200,0.10)" stroke-width="0.5"/>
<line x1="300.0" y1="64" x2="130.0" y2="358.4" stroke="rgba(120,200,200,0.10)" stroke-width="0.5"/>
<line x1="300.0" y1="64" x2="540.4" y2="304.4" stroke="rgba(120,200,200,0.10)" stroke-width="0.5"/>
<line x1="300.0" y1="64" x2="59.6" y2="304.4" stroke="rgba(120,200,200,0.10)" stroke-width="0.5"/>
<line x1="300.0" y1="64" x2="594.4" y2="234.0" stroke="rgba(120,200,200,0.10)" stroke-width="0.5"/>
<line x1="300.0" y1="64" x2="5.6" y2="234.0" stroke="rgba(120,200,200,0.10)" stroke-width="0.5"/>
<line x1="300.0" y1="64" x2="628.4" y2="152.0" stroke="rgba(120,200,200,0.10)" stroke-width="0.5"/>
<line x1="300.0" y1="64" x2="-28.4" y2="152.0" stroke="rgba(120,200,200,0.10)" stroke-width="0.5"/>
<line x1="300.0" y1="64" x2="640.0" y2="64.0" stroke="rgba(120,200,200,0.10)" stroke-width="0.5"/>
<line x1="300.0" y1="64" x2="-40.0" y2="64.0" stroke="rgba(120,200,200,0.10)" stroke-width="0.5"/>
<line x1="300.0" y1="64" x2="300.0" y2="408" stroke="rgba(120,200,200,0.14)" stroke-width="0.5"/>
<line x1="-40.0" y1="64" x2="640.0" y2="64" stroke="rgba(120,200,200,0.14)" stroke-width="0.5"/>
<text x="391.6" y="408.9" text-anchor="middle" fill="rgba(255,255,255,0.4)" font-size="9">15°</text>
<text x="208.4" y="408.9" text-anchor="middle" fill="rgba(255,255,255,0.4)" font-size="9">15°</text>
<text x="477.0" y="373.6" text-anchor="middle" fill="rgba(255,255,255,0.6)" font-size="9">30°</text>
<text x="123.0" y="373.6" text-anchor="middle" fill="rgba(255,255,255,0.6)" font-size="9">30°</text>
<text x="550.3" y="317.3" text-anchor="middle" fill="rgba(255,255,255,0.4)" font-size="9">45°</text>
<text x="49.7" y="317.3" text-anchor="middle" fill="rgba(255,255,255,0.4)" font-size="9">45°</text>
<text x="606.6" y="244.0" text-anchor="middle" fill="rgba(255,255,255,0.6)" font-size="9">60°</text>
<text x="-6.6" y="244.0" text-anchor="middle" fill="rgba(255,255,255,0.6)" font-size="9">60°</text>
<text x="641.9" y="158.6" text-anchor="middle" fill="rgba(255,255,255,0.4)" font-size="9">75°</text>
<text x="-41.9" y="158.6" text-anchor="middle" fill="rgba(255,255,255,0.4)" font-size="9">75°</text>
<text x="654.0" y="67.0" text-anchor="middle" fill="rgba(255,255,255,0.6)" font-size="9">90°</text>
<text x="-54.0" y="67.0" text-anchor="middle" fill="rgba(255,255,255,0.6)" font-size="9">90°</text>
<text x="300" y="426" text-anchor="middle" fill="rgba(255,255,255,0.6)" font-size="9">0°</text>
<path d="M 300.0 283.8 L 303.8 283.8 L 307.7 283.7 L 311.5 283.5 L 315.3 283.1 L 319.1 282.6 L 322.9 282.0 L 326.6 281.0 L 330.4 280.4 L 334.1 279.3 L 337.8 278.3 L 341.4 276.9 L 345.0 275.6 L 348.5 274.0 L 352.0 272.4 L 355.3 270.6 L 358.7 268.9 L 362.0 266.9 L 365.3 264.8 L 368.4 262.5 L 371.5 260.3 L 374.4 257.9 L 377.3 255.4 L 380.1 252.7 L 382.8 250.1 L 385.4 247.2 L 388.0 244.4 L 390.3 241.3 L 392.6 238.2 L 394.8 235.0 L 396.8 231.7 L 398.7 228.3 L 400.6 225.0 L 402.2 221.4 L 403.8 217.9 L 405.1 214.1 L 406.5 210.6 L 407.5 206.6 L 408.4 202.8 L 409.1 198.8 L 409.8 194.9 L 410.3 190.9 L 410.6 186.9 L 410.8 182.8 L 410.8 178.7 L 410.6 174.6 L 410.2 170.5 L 409.6 166.3 L 408.9 162.1 L 408.1 157.9 L 407.1 153.9 L 405.8 149.7 L 404.4 145.6 L 402.9 141.5 L 401.3 137.6 L 399.5 133.7 L 397.5 129.8 L 395.4 125.9 L 392.5 121.8 L 389.2 117.6 L 386.2 113.8 L 383.4 110.2 L 379.8 106.4 L 376.0 102.7 L 371.5 98.9 L 366.2 94.9 L 361.1 91.2 L 355.5 87.6 L 350.3 84.3 L 344.7 81.2 L 339.4 78.3 L 334.1 75.8 L 329.1 73.5 L 324.2 71.4 L 319.6 69.6 L 315.5 68.1 L 311.3 66.8 L 307.5 65.7 L 304.3 64.9 L 303.1 64.6 L 302.4 64.4 L 301.9 64.3 L 301.5 64.2 L 301.3 64.2 L 301.3 64.1 L 301.3 64.1 L 301.3 64.1 L 301.3 64.1 L 301.3 64.0 L 301.3 64.0 L 301.3 64.0 L 298.7 64.0 L 298.8 64.0 L 298.8 64.0 L 298.8 64.1 L 298.8 64.1 L 298.7 64.1 L 298.7 64.1 L 298.7 64.2 L 298.6 64.2 L 298.4 64.3 L 297.9 64.4 L 297.3 64.5 L 296.6 64.7 L 294.0 65.4 L 291.4 66.1 L 288.1 67.2 L 284.4 68.5 L 280.3 70.0 L 276.0 71.8 L 271.5 73.8 L 266.8 76.1 L 262.0 78.6 L 257.2 81.3 L 252.3 84.3 L 247.4 87.4 L 242.7 90.7 L 238.1 94.2 L 234.3 97.5 L 230.4 101.0 L 227.0 104.5 L 223.9 108.0 L 220.4 111.8 L 217.2 115.7 L 214.8 119.3 L 212.0 123.3 L 209.2 127.6 L 206.6 131.8 L 204.8 135.7 L 203.2 139.6 L 201.7 143.6 L 200.3 147.6 L 199.2 151.6 L 198.1 155.7 L 197.2 159.8 L 196.5 164.0 L 195.9 168.1 L 195.5 172.2 L 195.3 176.3 L 195.1 180.6 L 195.2 184.6 L 195.4 188.7 L 195.8 192.7 L 196.3 196.7 L 197.0 200.6 L 197.8 204.6 L 198.9 208.4 L 200.0 212.3 L 201.3 215.9 L 202.8 219.6 L 204.4 223.1 L 206.0 226.7 L 208.0 230.1 L 209.9 233.5 L 212.1 236.6 L 214.2 239.9 L 216.6 242.9 L 219.0 245.9 L 221.6 248.7 L 224.2 251.6 L 227.0 254.1 L 229.8 256.8 L 232.8 259.2 L 235.8 261.6 L 238.9 263.8 L 242.1 266.0 L 245.3 268.0 L 248.7 270.0 L 252.1 271.7 L 255.5 273.4 L 259.0 274.9 L 262.5 276.4 L 266.2 277.6 L 269.8 278.9 L 273.5 279.9 L 277.2 280.9 L 281.0 281.7 L 284.7 282.3 L 288.5 283.0 L 292.3 283.4 L 296.2 283.7 L 300.0 283.8 Z" fill="none" stroke="#3FA9F5" stroke-width="1.7" stroke-linejoin="round" stroke-linecap="round"/>
<path d="M 300.0 283.8 L 303.8 283.9 L 307.7 283.6 L 311.5 283.4 L 315.3 283.0 L 319.1 282.5 L 322.9 281.9 L 326.6 281.0 L 330.4 280.1 L 334.1 279.1 L 337.7 278.0 L 341.3 276.6 L 344.9 275.3 L 348.4 273.8 L 351.9 272.2 L 355.3 270.5 L 358.7 268.5 L 361.9 266.4 L 365.1 264.4 L 368.2 262.1 L 371.3 259.8 L 374.2 257.2 L 377.1 254.8 L 379.8 252.0 L 382.5 249.2 L 385.0 246.2 L 387.5 243.4 L 389.8 240.2 L 392.0 237.1 L 394.1 233.8 L 396.2 230.6 L 398.0 227.1 L 399.8 223.7 L 401.3 220.0 L 402.8 216.4 L 404.1 212.7 L 405.3 208.9 L 406.3 205.1 L 407.2 201.2 L 407.9 197.3 L 408.5 193.3 L 409.0 189.4 L 409.2 185.2 L 409.3 181.2 L 409.3 177.1 L 409.1 173.1 L 408.8 169.0 L 408.4 165.0 L 407.7 161.0 L 407.0 157.0 L 406.0 153.0 L 405.0 149.0 L 403.7 145.0 L 402.3 141.1 L 400.7 137.2 L 399.0 133.3 L 395.4 128.4 L 391.9 123.7 L 389.1 119.7 L 384.1 114.5 L 376.3 108.0 L 371.1 103.4 L 367.3 99.8 L 360.3 94.7 L 353.6 90.1 L 349.3 87.0 L 341.3 82.4 L 336.3 79.4 L 329.8 76.0 L 324.6 73.4 L 319.5 71.1 L 314.3 68.9 L 309.2 67.0 L 307.7 66.3 L 306.3 65.8 L 305.0 65.3 L 303.9 65.0 L 302.9 64.7 L 302.1 64.4 L 301.6 64.3 L 301.5 64.3 L 301.5 64.2 L 301.5 64.2 L 301.5 64.2 L 301.4 64.2 L 301.4 64.1 L 301.3 64.1 L 301.2 64.1 L 301.1 64.0 L 301.1 64.0 L 301.0 64.0 L 298.8 64.0 L 298.8 64.0 L 298.8 64.0 L 298.8 64.1 L 298.8 64.1 L 298.8 64.1 L 298.7 64.1 L 298.5 64.2 L 298.4 64.2 L 298.4 64.3 L 298.3 64.3 L 298.3 64.3 L 298.3 64.4 L 298.3 64.4 L 298.3 64.4 L 298.3 64.5 L 298.3 64.5 L 298.3 64.5 L 298.2 64.6 L 298.2 64.6 L 297.8 64.8 L 297.3 65.0 L 296.8 65.3 L 296.2 65.6 L 295.7 65.9 L 295.1 66.3 L 294.5 66.7 L 293.9 67.1 L 293.3 67.5 L 292.8 68.0 L 292.3 68.4 L 291.9 68.9 L 291.4 69.4 L 284.1 74.3 L 279.0 78.1 L 278.2 79.3 L 274.9 82.2 L 264.6 90.7 L 263.1 92.8 L 262.2 94.6 L 255.2 101.6 L 248.5 108.8 L 246.1 112.6 L 245.4 115.0 L 244.7 117.4 L 241.7 122.3 L 231.7 134.7 L 228.7 140.4 L 228.5 143.4 L 228.4 146.4 L 228.4 149.3 L 226.3 155.0 L 218.2 168.7 L 214.6 177.3 L 215.2 180.7 L 216.0 184.0 L 216.8 187.3 L 217.8 190.6 L 218.2 195.0 L 214.5 206.3 L 209.4 220.9 L 209.9 226.5 L 211.8 229.8 L 213.8 233.1 L 215.9 236.4 L 217.9 240.1 L 220.0 243.7 L 222.2 247.2 L 224.7 250.4 L 227.2 253.7 L 229.9 256.7 L 232.7 259.6 L 235.6 262.2 L 238.6 264.9 L 241.8 267.1 L 245.0 269.2 L 248.4 271.1 L 251.8 272.9 L 255.3 274.4 L 258.8 275.9 L 262.4 277.2 L 266.0 278.6 L 269.7 279.4 L 273.4 280.5 L 277.2 281.2 L 280.9 282.0 L 284.7 282.6 L 288.5 283.2 L 292.3 283.5 L 296.2 283.8 L 300.0 283.8 Z" fill="none" stroke="#F32740" stroke-width="2.0" stroke-linejoin="round" stroke-linecap="round"/>
<text x="338" y="132" fill="#F32740" font-size="9.5" font-weight="700">125</text>
<text x="335" y="200" fill="#F32740" font-size="9.5" font-weight="700">250</text>
<text x="335" y="268" fill="#F32740" font-size="9.5" font-weight="700">375</text>
<text x="335" y="336" fill="#F32740" font-size="9.5" font-weight="700">500</text>
<rect x="274.0" y="58" width="52" height="11" rx="1.5" fill="#fafbfc" stroke="rgba(255,255,255,0.4)" stroke-width="0.5"/>
<line x1="272.0" y1="69.8" x2="328.0" y2="69.8" stroke="#F32740" stroke-width="0.7" stroke-dasharray="1.5 2"/>
<text x="300" y="66" text-anchor="middle" fill="#F32740" font-size="8" font-weight="700" letter-spacing="0.5">cd/klm SCALE</text>
<g transform="translate(22, 434)">
<text x="0" y="-8" fill="rgba(255,255,255,0.55)" font-size="8" letter-spacing="1.4">cd/klm</text>
<line x1="0" y1="6" x2="22" y2="6" stroke="#F32740" stroke-width="2.2"/>
<text x="28" y="9" fill="rgba(255,255,255,0.7)" font-size="9.5">C0 – C180</text>
<line x1="120" y1="6" x2="142" y2="6" stroke="#3FA9F5" stroke-width="1.7"/>
<text x="148" y="9" fill="rgba(255,255,255,0.7)" font-size="9.5">C90 – C270</text>
</g>
<text x="578" y="402" fill="rgba(255,255,255,0.45)" font-size="9" text-anchor="end">η = 126 lm/W</text>
<text x="578" y="418" fill="rgba(255,255,255,0.45)" font-size="9" text-anchor="end">9,647 lm · 76.6W</text>
<text x="578" y="434" fill="rgba(255,255,255,0.55)" font-size="8" letter-spacing="1.4" text-anchor="end">PEAK INTENSITY</text>
<text x="578" y="451" fill="#fff" font-weight="700" font-size="14" text-anchor="end">3,901 cd</text>
</svg>