<svg viewBox="0 0 600 460" xmlns="http://www.w3.org/2000/svg" font-family="JetBrains Mono, monospace" font-size="9.5">
<rect width="100%" height="100%" fill="#14171b"/>
<text x="22" y="26" fill="#F32740" font-weight="700" letter-spacing="2">LFLD3W150-3E1-UDPS-50K_IESNA2002 · 0W · 5000K · FLOOD</text>
<text x="22" y="42" fill="rgba(255,255,255,0.55)" font-size="8" letter-spacing="1.4">LUMINOUS INTENSITY DISTRIBUTION (cd/klm)</text>
<path d="M 232.0 64.0 A 68.0 68.0 0 0 0 368.0 64.0" fill="none" stroke="rgba(120,200,200,0.18)" stroke-width="0.7"/>
<path d="M 164.0 64.0 A 136.0 136.0 0 0 0 436.0 64.0" fill="none" stroke="rgba(120,200,200,0.18)" stroke-width="0.7"/>
<path d="M 96.0 64.0 A 204.0 204.0 0 0 0 504.0 64.0" fill="none" stroke="rgba(120,200,200,0.18)" stroke-width="0.7"/>
<path d="M 28.0 64.0 A 272.0 272.0 0 0 0 572.0 64.0" fill="none" stroke="rgba(120,200,200,0.18)" stroke-width="0.7"/>
<path d="M -40.0 64.0 A 340.0 340.0 0 0 0 640.0 64.0" fill="none" stroke="rgba(120,200,200,0.18)" stroke-width="0.7"/>
<line x1="300.0" y1="64" x2="388.0" y2="392.4" stroke="rgba(120,200,200,0.10)" stroke-width="0.5"/>
<line x1="300.0" y1="64" x2="212.0" y2="392.4" stroke="rgba(120,200,200,0.10)" stroke-width="0.5"/>
<line x1="300.0" y1="64" x2="470.0" y2="358.4" stroke="rgba(120,200,200,0.10)" stroke-width="0.5"/>
<line x1="300.0" y1="64" x2="130.0" y2="358.4" stroke="rgba(120,200,200,0.10)" stroke-width="0.5"/>
<line x1="300.0" y1="64" x2="540.4" y2="304.4" stroke="rgba(120,200,200,0.10)" stroke-width="0.5"/>
<line x1="300.0" y1="64" x2="59.6" y2="304.4" stroke="rgba(120,200,200,0.10)" stroke-width="0.5"/>
<line x1="300.0" y1="64" x2="594.4" y2="234.0" stroke="rgba(120,200,200,0.10)" stroke-width="0.5"/>
<line x1="300.0" y1="64" x2="5.6" y2="234.0" stroke="rgba(120,200,200,0.10)" stroke-width="0.5"/>
<line x1="300.0" y1="64" x2="628.4" y2="152.0" stroke="rgba(120,200,200,0.10)" stroke-width="0.5"/>
<line x1="300.0" y1="64" x2="-28.4" y2="152.0" stroke="rgba(120,200,200,0.10)" stroke-width="0.5"/>
<line x1="300.0" y1="64" x2="640.0" y2="64.0" stroke="rgba(120,200,200,0.10)" stroke-width="0.5"/>
<line x1="300.0" y1="64" x2="-40.0" y2="64.0" stroke="rgba(120,200,200,0.10)" stroke-width="0.5"/>
<line x1="300.0" y1="64" x2="300.0" y2="408" stroke="rgba(120,200,200,0.14)" stroke-width="0.5"/>
<line x1="-40.0" y1="64" x2="640.0" y2="64" stroke="rgba(120,200,200,0.14)" stroke-width="0.5"/>
<text x="391.6" y="408.9" text-anchor="middle" fill="rgba(255,255,255,0.4)" font-size="9">15°</text>
<text x="208.4" y="408.9" text-anchor="middle" fill="rgba(255,255,255,0.4)" font-size="9">15°</text>
<text x="477.0" y="373.6" text-anchor="middle" fill="rgba(255,255,255,0.6)" font-size="9">30°</text>
<text x="123.0" y="373.6" text-anchor="middle" fill="rgba(255,255,255,0.6)" font-size="9">30°</text>
<text x="550.3" y="317.3" text-anchor="middle" fill="rgba(255,255,255,0.4)" font-size="9">45°</text>
<text x="49.7" y="317.3" text-anchor="middle" fill="rgba(255,255,255,0.4)" font-size="9">45°</text>
<text x="606.6" y="244.0" text-anchor="middle" fill="rgba(255,255,255,0.6)" font-size="9">60°</text>
<text x="-6.6" y="244.0" text-anchor="middle" fill="rgba(255,255,255,0.6)" font-size="9">60°</text>
<text x="641.9" y="158.6" text-anchor="middle" fill="rgba(255,255,255,0.4)" font-size="9">75°</text>
<text x="-41.9" y="158.6" text-anchor="middle" fill="rgba(255,255,255,0.4)" font-size="9">75°</text>
<text x="654.0" y="67.0" text-anchor="middle" fill="rgba(255,255,255,0.6)" font-size="9">90°</text>
<text x="-54.0" y="67.0" text-anchor="middle" fill="rgba(255,255,255,0.6)" font-size="9">90°</text>
<text x="300" y="426" text-anchor="middle" fill="rgba(255,255,255,0.6)" font-size="9">0°</text>
<path d="M 300.0 335.3 L 304.7 335.2 L 309.5 335.2 L 314.2 334.8 L 318.9 334.6 L 323.6 333.8 L 328.3 333.1 L 332.9 332.1 L 337.5 331.2 L 342.1 329.9 L 346.6 328.4 L 351.1 326.9 L 355.5 325.3 L 359.9 323.5 L 364.2 321.4 L 368.4 319.3 L 372.5 317.0 L 376.6 314.6 L 380.5 311.9 L 384.5 309.3 L 388.2 306.3 L 391.9 303.5 L 395.5 300.3 L 399.0 297.1 L 402.3 293.8 L 405.5 290.3 L 408.6 286.6 L 411.6 283.1 L 414.4 279.1 L 417.1 275.3 L 419.6 271.2 L 422.1 267.1 L 424.3 262.9 L 426.3 258.5 L 428.3 254.1 L 430.0 249.6 L 431.6 245.1 L 433.0 240.5 L 434.1 235.7 L 435.1 230.9 L 436.0 226.1 L 436.6 221.1 L 437.1 216.2 L 437.2 211.2 L 437.3 206.2 L 437.1 201.1 L 436.6 195.9 L 435.6 190.5 L 434.9 185.5 L 433.8 180.3 L 431.9 174.7 L 429.2 168.6 L 426.1 162.5 L 422.9 156.6 L 419.6 150.9 L 416.1 145.3 L 412.2 139.7 L 408.1 134.2 L 403.9 128.9 L 399.5 123.8 L 394.7 118.7 L 389.9 113.8 L 384.9 109.2 L 379.8 104.7 L 374.7 100.4 L 369.2 96.3 L 363.8 92.4 L 358.4 88.8 L 352.9 85.4 L 347.4 82.2 L 342.0 79.3 L 336.6 76.6 L 331.7 74.3 L 326.8 72.2 L 322.1 70.3 L 317.8 68.8 L 313.7 67.4 L 310.1 66.3 L 306.5 65.4 L 303.7 64.7 L 303.0 64.5 L 302.5 64.4 L 302.0 64.3 L 301.7 64.2 L 301.7 64.2 L 301.6 64.1 L 301.6 64.1 L 301.6 64.1 L 301.6 64.1 L 301.6 64.0 L 301.6 64.0 L 298.5 64.0 L 298.5 64.0 L 298.5 64.1 L 298.4 64.1 L 298.4 64.1 L 298.4 64.1 L 298.4 64.2 L 298.3 64.2 L 298.3 64.2 L 298.2 64.3 L 297.9 64.4 L 297.4 64.5 L 296.5 64.7 L 295.7 65.0 L 292.7 65.8 L 289.5 66.8 L 285.8 68.1 L 281.8 69.6 L 277.6 71.3 L 272.9 73.3 L 267.9 75.7 L 262.8 78.3 L 257.9 81.0 L 252.5 84.2 L 247.2 87.5 L 241.8 91.1 L 236.5 95.0 L 231.5 98.9 L 226.2 103.3 L 221.3 107.6 L 216.3 112.3 L 211.5 117.2 L 206.8 122.2 L 202.2 127.5 L 198.0 132.8 L 193.9 138.3 L 190.1 143.8 L 186.5 149.5 L 182.8 155.5 L 179.5 161.5 L 176.7 167.4 L 174.3 173.3 L 172.9 178.4 L 171.6 183.7 L 170.6 188.9 L 170.0 194.0 L 169.5 199.1 L 169.2 204.2 L 169.1 209.4 L 169.2 214.4 L 169.5 219.5 L 170.2 224.3 L 170.8 229.3 L 171.8 234.2 L 172.9 238.9 L 174.2 243.7 L 175.7 248.3 L 177.4 252.9 L 179.2 257.3 L 181.2 261.7 L 183.4 266.0 L 185.7 270.2 L 188.2 274.2 L 190.9 278.2 L 193.7 281.9 L 196.6 285.7 L 199.7 289.4 L 202.8 292.9 L 206.2 296.1 L 209.5 299.6 L 213.2 302.6 L 216.8 305.7 L 220.6 308.4 L 224.4 311.2 L 228.4 313.7 L 232.4 316.3 L 236.5 318.5 L 240.7 320.8 L 245.0 322.6 L 249.3 324.7 L 253.7 326.4 L 258.2 327.9 L 262.7 329.3 L 267.3 330.6 L 271.9 331.8 L 276.5 332.7 L 281.2 333.5 L 285.8 334.3 L 290.5 334.8 L 295.3 335.2 L 300.0 335.3 Z" fill="none" stroke="#3FA9F5" stroke-width="1.7" stroke-linejoin="round" stroke-linecap="round"/>
<path d="M 300.0 335.3 L 304.7 335.4 L 309.5 335.2 L 314.2 334.8 L 318.9 334.4 L 323.6 333.8 L 328.3 332.9 L 332.9 332.0 L 337.5 330.7 L 342.0 329.5 L 346.6 328.0 L 351.0 326.4 L 355.4 324.8 L 359.8 323.0 L 364.1 321.0 L 368.2 318.4 L 372.2 315.9 L 376.1 312.8 L 379.9 309.9 L 383.5 306.5 L 387.1 303.3 L 390.4 299.6 L 393.7 295.9 L 396.7 291.9 L 399.8 288.1 L 402.6 284.1 L 405.5 280.4 L 408.3 276.5 L 410.9 272.6 L 412.3 266.7 L 408.4 251.8 L 404.2 237.4 L 404.8 231.7 L 406.4 227.9 L 407.9 223.9 L 409.2 219.9 L 410.3 215.8 L 411.4 211.8 L 409.8 204.5 L 401.5 189.3 L 396.9 179.5 L 397.0 175.6 L 397.2 171.9 L 397.0 168.1 L 396.9 164.3 L 394.6 158.6 L 385.1 146.2 L 379.3 137.9 L 378.5 134.7 L 377.6 131.5 L 376.6 128.3 L 371.5 121.9 L 360.4 111.2 L 357.7 107.5 L 356.5 105.0 L 354.8 102.4 L 345.9 94.9 L 338.7 89.1 L 337.3 87.3 L 330.6 82.4 L 323.7 77.7 L 321.3 75.8 L 319.0 74.1 L 309.2 68.7 L 307.9 67.8 L 307.3 67.4 L 306.7 67.0 L 306.0 66.6 L 305.3 66.1 L 304.6 65.8 L 303.9 65.4 L 303.3 65.1 L 302.6 64.9 L 302.1 64.6 L 301.6 64.5 L 301.5 64.4 L 301.5 64.4 L 301.5 64.4 L 301.5 64.3 L 301.6 64.3 L 301.6 64.3 L 301.6 64.2 L 301.6 64.2 L 301.6 64.2 L 301.6 64.2 L 301.5 64.1 L 301.5 64.1 L 301.5 64.1 L 301.5 64.1 L 301.5 64.0 L 301.5 64.0 L 298.7 64.0 L 298.6 64.0 L 298.5 64.1 L 298.4 64.1 L 298.3 64.1 L 298.2 64.2 L 298.1 64.2 L 298.0 64.2 L 298.0 64.3 L 298.0 64.3 L 297.8 64.4 L 297.1 64.6 L 296.2 64.8 L 295.0 65.2 L 293.7 65.6 L 289.7 66.8 L 285.7 68.1 L 281.8 69.6 L 274.7 72.2 L 267.3 75.3 L 260.2 78.5 L 252.2 82.3 L 246.2 85.7 L 237.6 90.5 L 230.1 95.1 L 226.1 98.4 L 222.3 101.9 L 218.9 105.3 L 215.5 108.9 L 211.4 113.1 L 207.4 117.5 L 198.9 124.7 L 190.5 132.4 L 187.2 137.3 L 184.3 142.0 L 181.8 146.8 L 179.3 151.7 L 177.3 156.4 L 175.4 161.4 L 173.7 166.3 L 172.1 171.4 L 170.9 176.2 L 169.8 181.2 L 169.0 186.2 L 168.3 191.2 L 167.9 196.1 L 167.6 201.1 L 167.5 206.0 L 167.6 211.0 L 167.9 216.0 L 168.4 220.9 L 169.0 225.7 L 169.8 230.6 L 170.8 235.5 L 171.9 240.3 L 173.3 245.0 L 174.8 249.7 L 176.4 254.3 L 178.3 258.8 L 180.3 263.2 L 182.6 267.4 L 185.0 271.6 L 187.4 275.7 L 190.1 279.7 L 192.9 283.5 L 195.8 287.4 L 198.9 291.0 L 202.1 294.6 L 205.5 298.0 L 209.0 301.1 L 212.6 304.2 L 216.3 307.2 L 220.1 310.0 L 224.0 312.6 L 227.9 315.3 L 232.0 317.7 L 236.1 320.1 L 240.4 322.0 L 244.7 324.0 L 249.2 325.5 L 253.6 327.3 L 258.1 328.6 L 262.6 330.1 L 267.2 331.1 L 271.8 332.4 L 276.4 333.3 L 281.1 334.1 L 285.8 334.6 L 290.5 335.0 L 295.3 335.3 L 300.0 335.3 Z" fill="none" stroke="#F32740" stroke-width="2.0" stroke-linejoin="round" stroke-linecap="round"/>
<text x="338" y="132" fill="#F32740" font-size="9.5" font-weight="700">100</text>
<text x="335" y="200" fill="#F32740" font-size="9.5" font-weight="700">200</text>
<text x="335" y="268" fill="#F32740" font-size="9.5" font-weight="700">300</text>
<text x="335" y="336" fill="#F32740" font-size="9.5" font-weight="700">400</text>
<rect x="274.0" y="58" width="52" height="11" rx="1.5" fill="#fafbfc" stroke="rgba(255,255,255,0.4)" stroke-width="0.5"/>
<line x1="272.0" y1="69.8" x2="328.0" y2="69.8" stroke="#F32740" stroke-width="0.7" stroke-dasharray="1.5 2"/>
<text x="300" y="66" text-anchor="middle" fill="#F32740" font-size="8" font-weight="700" letter-spacing="0.5">cd/klm SCALE</text>
<g transform="translate(22, 434)">
<text x="0" y="-8" fill="rgba(255,255,255,0.55)" font-size="8" letter-spacing="1.4">cd/klm</text>
<line x1="0" y1="6" x2="22" y2="6" stroke="#F32740" stroke-width="2.2"/>
<text x="28" y="9" fill="rgba(255,255,255,0.7)" font-size="9.5">C0 – C180</text>
<line x1="120" y1="6" x2="142" y2="6" stroke="#3FA9F5" stroke-width="1.7"/>
<text x="148" y="9" fill="rgba(255,255,255,0.7)" font-size="9.5">C90 – C270</text>
</g>
<text x="578" y="402" fill="rgba(255,255,255,0.45)" font-size="9" text-anchor="end">η = 124 lm/W</text>
<text x="578" y="418" fill="rgba(255,255,255,0.45)" font-size="9" text-anchor="end">18,609 lm · 149.7W</text>
<text x="578" y="434" fill="rgba(255,255,255,0.55)" font-size="8" letter-spacing="1.4" text-anchor="end">PEAK INTENSITY</text>
<text x="578" y="451" fill="#fff" font-weight="700" font-size="14" text-anchor="end">7,429 cd</text>
</svg>