<svg viewBox="0 0 600 460" xmlns="http://www.w3.org/2000/svg" font-family="JetBrains Mono, monospace" font-size="9.5">
<rect width="100%" height="100%" fill="#14171b"/>
<text x="22" y="26" fill="#F32740" font-weight="700" letter-spacing="2">LFLD3W35-3E1-UD-PS-20W-50K_IESNA2002 · 20W · 5000K · FLOOD</text>
<text x="22" y="42" fill="rgba(255,255,255,0.55)" font-size="8" letter-spacing="1.4">LUMINOUS INTENSITY DISTRIBUTION (cd/klm)</text>
<path d="M 232.0 64.0 A 68.0 68.0 0 0 0 368.0 64.0" fill="none" stroke="rgba(120,200,200,0.18)" stroke-width="0.7"/>
<path d="M 164.0 64.0 A 136.0 136.0 0 0 0 436.0 64.0" fill="none" stroke="rgba(120,200,200,0.18)" stroke-width="0.7"/>
<path d="M 96.0 64.0 A 204.0 204.0 0 0 0 504.0 64.0" fill="none" stroke="rgba(120,200,200,0.18)" stroke-width="0.7"/>
<path d="M 28.0 64.0 A 272.0 272.0 0 0 0 572.0 64.0" fill="none" stroke="rgba(120,200,200,0.18)" stroke-width="0.7"/>
<path d="M -40.0 64.0 A 340.0 340.0 0 0 0 640.0 64.0" fill="none" stroke="rgba(120,200,200,0.18)" stroke-width="0.7"/>
<line x1="300.0" y1="64" x2="388.0" y2="392.4" stroke="rgba(120,200,200,0.10)" stroke-width="0.5"/>
<line x1="300.0" y1="64" x2="212.0" y2="392.4" stroke="rgba(120,200,200,0.10)" stroke-width="0.5"/>
<line x1="300.0" y1="64" x2="470.0" y2="358.4" stroke="rgba(120,200,200,0.10)" stroke-width="0.5"/>
<line x1="300.0" y1="64" x2="130.0" y2="358.4" stroke="rgba(120,200,200,0.10)" stroke-width="0.5"/>
<line x1="300.0" y1="64" x2="540.4" y2="304.4" stroke="rgba(120,200,200,0.10)" stroke-width="0.5"/>
<line x1="300.0" y1="64" x2="59.6" y2="304.4" stroke="rgba(120,200,200,0.10)" stroke-width="0.5"/>
<line x1="300.0" y1="64" x2="594.4" y2="234.0" stroke="rgba(120,200,200,0.10)" stroke-width="0.5"/>
<line x1="300.0" y1="64" x2="5.6" y2="234.0" stroke="rgba(120,200,200,0.10)" stroke-width="0.5"/>
<line x1="300.0" y1="64" x2="628.4" y2="152.0" stroke="rgba(120,200,200,0.10)" stroke-width="0.5"/>
<line x1="300.0" y1="64" x2="-28.4" y2="152.0" stroke="rgba(120,200,200,0.10)" stroke-width="0.5"/>
<line x1="300.0" y1="64" x2="640.0" y2="64.0" stroke="rgba(120,200,200,0.10)" stroke-width="0.5"/>
<line x1="300.0" y1="64" x2="-40.0" y2="64.0" stroke="rgba(120,200,200,0.10)" stroke-width="0.5"/>
<line x1="300.0" y1="64" x2="300.0" y2="408" stroke="rgba(120,200,200,0.14)" stroke-width="0.5"/>
<line x1="-40.0" y1="64" x2="640.0" y2="64" stroke="rgba(120,200,200,0.14)" stroke-width="0.5"/>
<text x="391.6" y="408.9" text-anchor="middle" fill="rgba(255,255,255,0.4)" font-size="9">15°</text>
<text x="208.4" y="408.9" text-anchor="middle" fill="rgba(255,255,255,0.4)" font-size="9">15°</text>
<text x="477.0" y="373.6" text-anchor="middle" fill="rgba(255,255,255,0.6)" font-size="9">30°</text>
<text x="123.0" y="373.6" text-anchor="middle" fill="rgba(255,255,255,0.6)" font-size="9">30°</text>
<text x="550.3" y="317.3" text-anchor="middle" fill="rgba(255,255,255,0.4)" font-size="9">45°</text>
<text x="49.7" y="317.3" text-anchor="middle" fill="rgba(255,255,255,0.4)" font-size="9">45°</text>
<text x="606.6" y="244.0" text-anchor="middle" fill="rgba(255,255,255,0.6)" font-size="9">60°</text>
<text x="-6.6" y="244.0" text-anchor="middle" fill="rgba(255,255,255,0.6)" font-size="9">60°</text>
<text x="641.9" y="158.6" text-anchor="middle" fill="rgba(255,255,255,0.4)" font-size="9">75°</text>
<text x="-41.9" y="158.6" text-anchor="middle" fill="rgba(255,255,255,0.4)" font-size="9">75°</text>
<text x="654.0" y="67.0" text-anchor="middle" fill="rgba(255,255,255,0.6)" font-size="9">90°</text>
<text x="-54.0" y="67.0" text-anchor="middle" fill="rgba(255,255,255,0.6)" font-size="9">90°</text>
<text x="300" y="426" text-anchor="middle" fill="rgba(255,255,255,0.6)" font-size="9">0°</text>
<path d="M 300.0 293.8 L 304.0 294.2 L 308.0 294.0 L 312.1 293.9 L 316.1 293.8 L 320.0 292.9 L 324.0 292.2 L 327.9 291.3 L 331.8 290.1 L 335.6 288.9 L 339.4 287.2 L 343.1 285.8 L 346.8 284.2 L 350.5 282.7 L 354.0 280.7 L 357.6 278.8 L 361.1 277.1 L 364.5 274.8 L 367.8 272.5 L 371.0 270.3 L 374.2 268.0 L 377.2 265.0 L 380.1 262.3 L 382.9 259.3 L 385.6 256.4 L 388.1 253.0 L 390.6 249.8 L 392.9 246.4 L 395.4 243.4 L 397.5 239.9 L 399.6 236.5 L 401.6 233.2 L 403.5 229.7 L 405.1 225.8 L 406.5 221.9 L 407.7 217.9 L 408.8 213.7 L 409.5 209.2 L 410.1 205.0 L 410.7 200.7 L 411.4 196.8 L 411.7 192.5 L 412.0 188.4 L 412.0 184.1 L 411.7 179.7 L 411.0 175.0 L 410.2 170.4 L 409.2 165.8 L 408.3 161.5 L 407.1 157.1 L 405.9 152.8 L 404.3 148.5 L 402.5 144.1 L 400.3 139.6 L 397.0 134.5 L 394.4 130.1 L 392.4 126.3 L 389.8 122.3 L 386.9 118.3 L 382.4 113.5 L 378.4 109.2 L 375.4 105.8 L 372.4 102.5 L 368.0 98.7 L 363.3 94.9 L 359.9 92.0 L 356.0 89.0 L 351.2 85.7 L 347.6 83.2 L 343.6 80.7 L 339.1 78.2 L 335.4 76.2 L 331.3 74.2 L 327.6 72.4 L 324.0 70.9 L 320.4 69.5 L 316.2 68.0 L 311.9 66.7 L 308.0 65.7 L 304.8 64.9 L 303.6 64.6 L 302.6 64.4 L 301.9 64.3 L 301.4 64.2 L 301.2 64.1 L 301.2 64.1 L 301.2 64.1 L 301.2 64.1 L 301.2 64.0 L 301.2 64.0 L 301.2 64.0 L 298.7 64.0 L 298.5 64.0 L 298.7 64.0 L 298.6 64.1 L 298.0 64.1 L 297.4 64.2 L 296.9 64.3 L 296.3 64.5 L 294.8 64.7 L 292.5 65.2 L 289.9 65.8 L 286.9 66.5 L 283.8 67.4 L 280.4 68.5 L 276.8 69.8 L 273.1 71.2 L 269.1 72.9 L 264.8 74.8 L 261.0 76.7 L 256.7 78.9 L 252.7 81.2 L 248.0 84.0 L 243.4 86.9 L 240.0 89.5 L 235.2 92.9 L 230.9 96.2 L 227.4 99.4 L 223.7 102.9 L 219.0 107.1 L 215.4 110.9 L 212.4 114.6 L 209.7 118.2 L 206.2 122.6 L 202.4 127.4 L 199.3 131.9 L 197.1 136.0 L 195.3 140.0 L 193.6 144.2 L 191.9 148.5 L 190.7 152.5 L 189.6 156.6 L 188.7 160.7 L 187.8 165.0 L 187.0 169.4 L 186.5 173.6 L 185.8 178.2 L 185.7 182.3 L 185.5 186.7 L 185.8 190.9 L 185.9 195.2 L 186.5 199.3 L 186.9 203.6 L 187.8 207.6 L 188.3 212.2 L 189.5 216.0 L 190.6 220.2 L 192.1 224.0 L 193.4 228.2 L 195.2 231.7 L 196.9 235.5 L 198.9 239.1 L 201.0 242.6 L 203.2 246.1 L 205.3 249.8 L 207.9 252.8 L 210.4 256.2 L 213.1 259.2 L 215.7 262.5 L 218.8 265.1 L 221.8 267.8 L 224.9 270.3 L 228.1 272.7 L 231.5 274.8 L 234.9 276.9 L 238.3 279.0 L 241.8 281.2 L 245.4 283.1 L 249.0 285.0 L 252.7 286.5 L 256.4 288.2 L 260.3 288.9 L 264.1 290.4 L 268.1 291.1 L 272.0 291.9 L 276.0 292.3 L 280.0 293.2 L 284.0 293.3 L 288.0 293.6 L 292.0 293.6 L 296.0 293.9 L 300.0 293.8 Z" fill="none" stroke="#3FA9F5" stroke-width="1.7" stroke-linejoin="round" stroke-linecap="round"/>
<path d="M 300.0 293.8 L 304.0 293.5 L 308.0 294.1 L 312.0 293.9 L 316.1 293.8 L 320.0 293.1 L 324.0 292.4 L 328.0 291.6 L 331.9 290.7 L 335.7 289.5 L 339.5 288.2 L 343.4 287.3 L 347.1 285.4 L 350.7 283.8 L 354.4 282.0 L 357.9 280.2 L 361.4 278.1 L 364.7 275.5 L 368.1 273.7 L 371.3 271.1 L 374.6 268.9 L 377.6 266.1 L 380.6 263.6 L 383.5 260.7 L 386.3 257.8 L 389.0 254.8 L 391.6 251.7 L 394.0 248.6 L 396.3 245.1 L 398.5 241.7 L 400.5 238.1 L 402.4 234.5 L 404.2 230.7 L 405.5 226.5 L 407.0 222.6 L 408.2 218.5 L 409.4 214.5 L 410.2 210.2 L 411.2 206.3 L 411.9 202.2 L 412.6 198.2 L 412.9 193.9 L 413.3 189.9 L 413.3 185.5 L 413.1 181.2 L 412.8 176.8 L 412.2 172.4 L 411.5 168.0 L 410.7 163.7 L 409.7 159.3 L 408.8 155.3 L 407.4 151.0 L 406.1 146.9 L 402.8 141.4 L 397.0 134.5 L 387.6 125.3 L 378.0 116.6 L 371.1 110.2 L 368.0 106.5 L 366.0 103.7 L 363.9 100.9 L 361.7 98.2 L 359.2 95.5 L 350.7 89.8 L 342.0 84.5 L 333.1 79.5 L 330.2 77.5 L 314.3 70.1 L 311.1 68.5 L 309.5 67.6 L 308.2 67.0 L 306.8 66.3 L 305.5 65.8 L 304.3 65.3 L 303.3 64.9 L 302.3 64.6 L 301.6 64.4 L 301.3 64.3 L 301.3 64.3 L 301.3 64.3 L 301.3 64.2 L 301.3 64.2 L 301.2 64.2 L 301.1 64.1 L 301.0 64.1 L 301.0 64.1 L 300.9 64.1 L 300.9 64.0 L 300.9 64.0 L 300.9 64.0 L 300.9 64.0 L 298.8 64.0 L 298.8 64.0 L 298.9 64.0 L 298.9 64.1 L 298.9 64.1 L 298.9 64.1 L 298.9 64.1 L 298.9 64.1 L 298.9 64.2 L 298.9 64.2 L 299.0 64.2 L 299.0 64.2 L 299.0 64.2 L 299.0 64.2 L 299.0 64.2 L 299.0 64.3 L 299.0 64.3 L 299.0 64.3 L 299.0 64.3 L 298.7 64.4 L 298.2 64.6 L 297.6 64.9 L 297.0 65.2 L 296.3 65.6 L 295.6 66.0 L 294.8 66.4 L 294.1 66.9 L 293.4 67.4 L 292.7 67.9 L 292.0 68.5 L 291.3 69.0 L 290.6 69.6 L 290.1 70.2 L 289.6 70.7 L 289.2 71.3 L 288.7 71.9 L 288.2 72.6 L 284.1 76.0 L 280.0 79.6 L 267.3 90.5 L 263.6 94.6 L 258.9 99.7 L 255.1 104.4 L 254.5 106.4 L 254.1 108.4 L 253.8 110.2 L 253.4 112.3 L 249.5 118.2 L 240.4 130.2 L 232.7 141.4 L 229.8 147.7 L 226.5 154.8 L 224.5 160.7 L 224.6 164.1 L 225.0 167.2 L 225.9 169.9 L 226.6 172.8 L 227.5 175.7 L 228.5 178.5 L 229.4 181.5 L 228.4 188.0 L 224.7 199.8 L 219.8 214.8 L 215.6 229.6 L 213.9 240.5 L 213.7 249.0 L 215.6 253.6 L 218.1 256.9 L 220.9 259.7 L 223.6 263.0 L 226.5 265.9 L 229.6 268.4 L 232.6 271.5 L 235.8 274.0 L 239.0 276.9 L 242.4 278.9 L 245.8 281.3 L 249.4 283.2 L 253.1 284.9 L 256.8 286.3 L 260.5 287.9 L 264.3 289.3 L 268.2 290.6 L 272.1 291.2 L 276.0 292.2 L 280.0 292.8 L 284.0 293.0 L 288.0 293.1 L 292.0 293.4 L 296.0 293.5 L 300.0 293.8 Z" fill="none" stroke="#F32740" stroke-width="2.0" stroke-linejoin="round" stroke-linecap="round"/>
<text x="338" y="132" fill="#F32740" font-size="9.5" font-weight="700">125</text>
<text x="335" y="200" fill="#F32740" font-size="9.5" font-weight="700">250</text>
<text x="335" y="268" fill="#F32740" font-size="9.5" font-weight="700">375</text>
<text x="335" y="336" fill="#F32740" font-size="9.5" font-weight="700">500</text>
<rect x="274.0" y="58" width="52" height="11" rx="1.5" fill="#fafbfc" stroke="rgba(255,255,255,0.4)" stroke-width="0.5"/>
<line x1="272.0" y1="69.8" x2="328.0" y2="69.8" stroke="#F32740" stroke-width="0.7" stroke-dasharray="1.5 2"/>
<text x="300" y="66" text-anchor="middle" fill="#F32740" font-size="8" font-weight="700" letter-spacing="0.5">cd/klm SCALE</text>
<g transform="translate(22, 434)">
<text x="0" y="-8" fill="rgba(255,255,255,0.55)" font-size="8" letter-spacing="1.4">cd/klm</text>
<line x1="0" y1="6" x2="22" y2="6" stroke="#F32740" stroke-width="2.2"/>
<text x="28" y="9" fill="rgba(255,255,255,0.7)" font-size="9.5">C0 – C180</text>
<line x1="120" y1="6" x2="142" y2="6" stroke="#3FA9F5" stroke-width="1.7"/>
<text x="148" y="9" fill="rgba(255,255,255,0.7)" font-size="9.5">C90 – C270</text>
</g>
<text x="578" y="402" fill="rgba(255,255,255,0.45)" font-size="9" text-anchor="end">η = 139 lm/W</text>
<text x="578" y="418" fill="rgba(255,255,255,0.45)" font-size="9" text-anchor="end">2,700 lm · 19.5W</text>
<text x="578" y="434" fill="rgba(255,255,255,0.55)" font-size="8" letter-spacing="1.4" text-anchor="end">PEAK INTENSITY</text>
<text x="578" y="451" fill="#fff" font-weight="700" font-size="14" text-anchor="end">1,143 cd</text>
</svg>