<svg viewBox="0 0 600 460" xmlns="http://www.w3.org/2000/svg" font-family="JetBrains Mono, monospace" font-size="9.5">
<rect width="100%" height="100%" fill="#14171b"/>
<text x="22" y="26" fill="#F32740" font-weight="700" letter-spacing="2">LFLD3W80-3E1-UD-PS-35W-50K_IESNA2002 · 35W · 5000K · FLOOD</text>
<text x="22" y="42" fill="rgba(255,255,255,0.55)" font-size="8" letter-spacing="1.4">LUMINOUS INTENSITY DISTRIBUTION (cd/klm)</text>
<path d="M 232.0 64.0 A 68.0 68.0 0 0 0 368.0 64.0" fill="none" stroke="rgba(120,200,200,0.18)" stroke-width="0.7"/>
<path d="M 164.0 64.0 A 136.0 136.0 0 0 0 436.0 64.0" fill="none" stroke="rgba(120,200,200,0.18)" stroke-width="0.7"/>
<path d="M 96.0 64.0 A 204.0 204.0 0 0 0 504.0 64.0" fill="none" stroke="rgba(120,200,200,0.18)" stroke-width="0.7"/>
<path d="M 28.0 64.0 A 272.0 272.0 0 0 0 572.0 64.0" fill="none" stroke="rgba(120,200,200,0.18)" stroke-width="0.7"/>
<path d="M -40.0 64.0 A 340.0 340.0 0 0 0 640.0 64.0" fill="none" stroke="rgba(120,200,200,0.18)" stroke-width="0.7"/>
<line x1="300.0" y1="64" x2="388.0" y2="392.4" stroke="rgba(120,200,200,0.10)" stroke-width="0.5"/>
<line x1="300.0" y1="64" x2="212.0" y2="392.4" stroke="rgba(120,200,200,0.10)" stroke-width="0.5"/>
<line x1="300.0" y1="64" x2="470.0" y2="358.4" stroke="rgba(120,200,200,0.10)" stroke-width="0.5"/>
<line x1="300.0" y1="64" x2="130.0" y2="358.4" stroke="rgba(120,200,200,0.10)" stroke-width="0.5"/>
<line x1="300.0" y1="64" x2="540.4" y2="304.4" stroke="rgba(120,200,200,0.10)" stroke-width="0.5"/>
<line x1="300.0" y1="64" x2="59.6" y2="304.4" stroke="rgba(120,200,200,0.10)" stroke-width="0.5"/>
<line x1="300.0" y1="64" x2="594.4" y2="234.0" stroke="rgba(120,200,200,0.10)" stroke-width="0.5"/>
<line x1="300.0" y1="64" x2="5.6" y2="234.0" stroke="rgba(120,200,200,0.10)" stroke-width="0.5"/>
<line x1="300.0" y1="64" x2="628.4" y2="152.0" stroke="rgba(120,200,200,0.10)" stroke-width="0.5"/>
<line x1="300.0" y1="64" x2="-28.4" y2="152.0" stroke="rgba(120,200,200,0.10)" stroke-width="0.5"/>
<line x1="300.0" y1="64" x2="640.0" y2="64.0" stroke="rgba(120,200,200,0.10)" stroke-width="0.5"/>
<line x1="300.0" y1="64" x2="-40.0" y2="64.0" stroke="rgba(120,200,200,0.10)" stroke-width="0.5"/>
<line x1="300.0" y1="64" x2="300.0" y2="408" stroke="rgba(120,200,200,0.14)" stroke-width="0.5"/>
<line x1="-40.0" y1="64" x2="640.0" y2="64" stroke="rgba(120,200,200,0.14)" stroke-width="0.5"/>
<text x="391.6" y="408.9" text-anchor="middle" fill="rgba(255,255,255,0.4)" font-size="9">15°</text>
<text x="208.4" y="408.9" text-anchor="middle" fill="rgba(255,255,255,0.4)" font-size="9">15°</text>
<text x="477.0" y="373.6" text-anchor="middle" fill="rgba(255,255,255,0.6)" font-size="9">30°</text>
<text x="123.0" y="373.6" text-anchor="middle" fill="rgba(255,255,255,0.6)" font-size="9">30°</text>
<text x="550.3" y="317.3" text-anchor="middle" fill="rgba(255,255,255,0.4)" font-size="9">45°</text>
<text x="49.7" y="317.3" text-anchor="middle" fill="rgba(255,255,255,0.4)" font-size="9">45°</text>
<text x="606.6" y="244.0" text-anchor="middle" fill="rgba(255,255,255,0.6)" font-size="9">60°</text>
<text x="-6.6" y="244.0" text-anchor="middle" fill="rgba(255,255,255,0.6)" font-size="9">60°</text>
<text x="641.9" y="158.6" text-anchor="middle" fill="rgba(255,255,255,0.4)" font-size="9">75°</text>
<text x="-41.9" y="158.6" text-anchor="middle" fill="rgba(255,255,255,0.4)" font-size="9">75°</text>
<text x="654.0" y="67.0" text-anchor="middle" fill="rgba(255,255,255,0.6)" font-size="9">90°</text>
<text x="-54.0" y="67.0" text-anchor="middle" fill="rgba(255,255,255,0.6)" font-size="9">90°</text>
<text x="300" y="426" text-anchor="middle" fill="rgba(255,255,255,0.6)" font-size="9">0°</text>
<path d="M 300.0 290.4 L 304.0 290.4 L 307.9 290.4 L 311.9 290.2 L 315.8 289.9 L 319.7 289.2 L 323.6 288.5 L 327.5 287.9 L 331.3 287.0 L 335.1 285.9 L 338.9 284.7 L 342.6 283.4 L 346.3 282.1 L 349.9 280.4 L 353.6 278.8 L 357.1 277.2 L 360.6 275.2 L 363.9 273.0 L 367.2 270.9 L 370.5 268.9 L 373.7 266.4 L 376.8 264.0 L 379.8 261.5 L 382.7 258.8 L 385.5 256.0 L 388.1 253.0 L 390.7 249.9 L 393.2 247.0 L 395.6 243.8 L 397.8 240.4 L 400.0 237.2 L 401.9 233.7 L 403.9 230.2 L 405.7 226.7 L 407.2 223.0 L 408.6 219.1 L 410.0 215.4 L 411.0 211.4 L 412.2 207.6 L 413.0 203.5 L 413.8 199.6 L 414.3 195.4 L 414.7 191.4 L 414.8 187.1 L 414.8 182.9 L 414.7 178.7 L 414.4 174.5 L 413.9 170.2 L 413.3 166.0 L 412.3 161.6 L 411.4 157.5 L 410.2 153.2 L 408.8 149.0 L 407.2 144.8 L 405.7 140.8 L 403.8 136.7 L 401.7 132.6 L 399.5 128.6 L 396.3 124.2 L 393.1 119.9 L 390.0 116.0 L 387.2 112.3 L 383.3 108.3 L 379.6 104.6 L 376.5 101.3 L 372.2 97.7 L 368.1 94.3 L 364.5 91.4 L 360.0 88.2 L 356.2 85.6 L 351.1 82.6 L 346.3 79.9 L 340.8 77.3 L 335.3 74.8 L 330.1 72.6 L 324.8 70.6 L 320.1 69.0 L 315.7 67.6 L 311.6 66.5 L 308.0 65.5 L 304.8 64.8 L 303.0 64.5 L 302.3 64.3 L 301.7 64.2 L 301.4 64.1 L 301.2 64.1 L 301.3 64.1 L 301.3 64.1 L 301.3 64.0 L 301.3 64.0 L 301.3 64.0 L 298.7 64.0 L 298.8 64.0 L 298.8 64.0 L 298.8 64.1 L 298.8 64.1 L 298.8 64.1 L 298.8 64.1 L 298.8 64.1 L 298.8 64.2 L 298.7 64.2 L 298.3 64.3 L 297.8 64.4 L 297.2 64.6 L 296.3 64.8 L 293.4 65.6 L 289.7 66.7 L 286.1 68.0 L 282.0 69.5 L 277.7 71.2 L 273.0 73.3 L 268.2 75.6 L 263.2 78.1 L 258.0 81.0 L 253.1 83.9 L 247.6 87.3 L 242.5 90.8 L 237.0 94.7 L 232.0 98.7 L 227.0 102.8 L 222.3 107.0 L 218.3 111.2 L 214.8 115.2 L 212.3 118.8 L 209.4 122.8 L 206.1 127.3 L 203.4 131.6 L 201.4 135.6 L 199.6 139.7 L 198.0 143.7 L 196.5 147.8 L 195.3 151.8 L 194.2 156.0 L 193.2 160.2 L 192.2 164.5 L 191.6 168.6 L 191.2 172.8 L 190.9 177.0 L 190.7 181.2 L 190.7 185.4 L 190.8 189.6 L 191.1 193.8 L 191.6 197.9 L 192.2 202.0 L 193.0 206.0 L 194.0 209.9 L 195.1 213.8 L 196.3 217.7 L 197.7 221.6 L 199.3 225.2 L 201.0 228.8 L 202.7 232.5 L 204.7 235.9 L 206.8 239.3 L 209.0 242.5 L 211.3 245.8 L 213.8 248.9 L 216.3 252.0 L 218.9 255.0 L 221.8 257.6 L 224.6 260.5 L 227.6 262.9 L 230.6 265.4 L 233.7 267.9 L 236.9 270.4 L 240.2 272.5 L 243.5 274.7 L 247.0 276.5 L 250.5 278.3 L 254.1 279.8 L 257.7 281.7 L 261.4 283.0 L 265.1 284.3 L 268.9 285.5 L 272.7 286.4 L 276.5 287.6 L 280.4 288.5 L 284.3 289.1 L 288.2 289.8 L 292.1 290.1 L 296.0 290.3 L 300.0 290.4 Z" fill="none" stroke="#3FA9F5" stroke-width="1.7" stroke-linejoin="round" stroke-linecap="round"/>
<path d="M 300.0 290.4 L 304.0 290.5 L 307.9 290.3 L 311.8 290.1 L 315.8 289.6 L 319.7 289.3 L 323.6 288.5 L 327.5 288.0 L 331.4 287.3 L 335.2 286.3 L 339.0 285.1 L 342.7 283.7 L 346.5 282.5 L 350.1 281.1 L 353.7 279.4 L 357.2 277.5 L 360.8 275.9 L 364.2 274.0 L 367.6 271.9 L 370.8 269.6 L 374.1 267.5 L 377.1 264.9 L 380.3 262.7 L 383.2 260.0 L 386.1 257.4 L 388.8 254.5 L 391.3 251.3 L 394.0 248.4 L 396.4 245.3 L 398.7 242.0 L 400.8 238.7 L 403.0 235.5 L 404.9 231.9 L 406.7 228.3 L 408.3 224.5 L 409.9 221.0 L 411.3 217.2 L 412.5 213.3 L 413.6 209.4 L 414.7 205.7 L 415.4 201.6 L 416.0 197.4 L 416.5 193.4 L 416.7 189.2 L 417.0 185.2 L 417.0 181.0 L 416.8 176.8 L 416.4 172.6 L 416.0 168.4 L 415.3 164.3 L 414.5 160.1 L 413.3 155.7 L 411.1 150.8 L 403.3 141.8 L 395.1 133.1 L 392.1 128.5 L 388.4 123.6 L 377.2 114.2 L 372.4 109.3 L 369.5 105.8 L 357.4 97.1 L 353.0 93.4 L 346.4 88.7 L 337.2 82.9 L 331.3 79.3 L 325.4 75.8 L 319.3 72.6 L 310.2 68.3 L 309.0 67.6 L 307.8 67.0 L 306.5 66.4 L 305.3 65.8 L 304.2 65.4 L 303.2 65.0 L 302.2 64.6 L 301.5 64.4 L 301.3 64.3 L 301.3 64.3 L 301.3 64.3 L 301.3 64.3 L 301.3 64.2 L 301.3 64.2 L 301.2 64.2 L 301.2 64.1 L 301.1 64.1 L 301.0 64.1 L 301.0 64.1 L 301.0 64.0 L 300.9 64.0 L 300.9 64.0 L 301.0 64.0 L 298.8 64.0 L 298.8 64.0 L 298.8 64.0 L 298.8 64.1 L 298.8 64.1 L 298.8 64.1 L 298.8 64.1 L 298.8 64.2 L 298.8 64.2 L 298.8 64.2 L 298.8 64.2 L 298.8 64.2 L 298.8 64.2 L 298.9 64.3 L 298.9 64.3 L 298.9 64.3 L 298.9 64.3 L 298.9 64.3 L 298.9 64.3 L 299.0 64.4 L 299.0 64.4 L 299.0 64.4 L 298.9 64.5 L 298.5 64.6 L 298.0 64.9 L 297.5 65.2 L 296.9 65.5 L 296.3 65.9 L 295.7 66.3 L 295.1 66.7 L 294.5 67.2 L 293.9 67.7 L 293.4 68.1 L 292.9 68.6 L 289.7 70.9 L 286.6 73.4 L 283.6 75.9 L 280.2 78.9 L 278.0 81.2 L 271.3 87.2 L 266.2 92.4 L 263.5 95.7 L 261.6 98.6 L 256.4 104.7 L 250.3 112.0 L 247.0 117.0 L 245.1 120.8 L 244.1 123.9 L 240.1 130.6 L 234.2 139.7 L 231.0 146.2 L 229.4 151.2 L 229.0 154.9 L 229.1 158.1 L 227.0 164.5 L 222.2 175.2 L 219.4 183.5 L 218.2 190.0 L 218.6 194.2 L 219.6 197.8 L 220.9 201.0 L 221.3 205.9 L 219.5 215.5 L 217.4 226.2 L 216.6 235.0 L 217.4 241.1 L 219.5 244.8 L 222.0 247.9 L 224.5 251.0 L 227.0 254.1 L 229.7 257.3 L 232.4 260.3 L 235.3 263.1 L 238.2 266.1 L 241.2 269.2 L 244.4 271.5 L 247.7 273.6 L 251.0 276.0 L 254.5 278.1 L 257.9 280.3 L 261.6 282.0 L 265.3 283.4 L 268.9 284.9 L 272.7 286.2 L 276.6 286.9 L 280.4 288.0 L 284.3 288.4 L 288.2 289.2 L 292.1 289.8 L 296.1 290.2 L 300.0 290.4 Z" fill="none" stroke="#F32740" stroke-width="2.0" stroke-linejoin="round" stroke-linecap="round"/>
<text x="338" y="132" fill="#F32740" font-size="9.5" font-weight="700">125</text>
<text x="335" y="200" fill="#F32740" font-size="9.5" font-weight="700">250</text>
<text x="335" y="268" fill="#F32740" font-size="9.5" font-weight="700">375</text>
<text x="335" y="336" fill="#F32740" font-size="9.5" font-weight="700">500</text>
<rect x="274.0" y="58" width="52" height="11" rx="1.5" fill="#fafbfc" stroke="rgba(255,255,255,0.4)" stroke-width="0.5"/>
<line x1="272.0" y1="69.8" x2="328.0" y2="69.8" stroke="#F32740" stroke-width="0.7" stroke-dasharray="1.5 2"/>
<text x="300" y="66" text-anchor="middle" fill="#F32740" font-size="8" font-weight="700" letter-spacing="0.5">cd/klm SCALE</text>
<g transform="translate(22, 434)">
<text x="0" y="-8" fill="rgba(255,255,255,0.55)" font-size="8" letter-spacing="1.4">cd/klm</text>
<line x1="0" y1="6" x2="22" y2="6" stroke="#F32740" stroke-width="2.2"/>
<text x="28" y="9" fill="rgba(255,255,255,0.7)" font-size="9.5">C0 – C180</text>
<line x1="120" y1="6" x2="142" y2="6" stroke="#3FA9F5" stroke-width="1.7"/>
<text x="148" y="9" fill="rgba(255,255,255,0.7)" font-size="9.5">C90 – C270</text>
</g>
<text x="578" y="402" fill="rgba(255,255,255,0.45)" font-size="9" text-anchor="end">η = 154 lm/W</text>
<text x="578" y="418" fill="rgba(255,255,255,0.45)" font-size="9" text-anchor="end">5,578 lm · 36.3W</text>
<text x="578" y="434" fill="rgba(255,255,255,0.55)" font-size="8" letter-spacing="1.4" text-anchor="end">PEAK INTENSITY</text>
<text x="578" y="451" fill="#fff" font-weight="700" font-size="14" text-anchor="end">2,323 cd</text>
</svg>