<svg viewBox="0 0 600 460" xmlns="http://www.w3.org/2000/svg" font-family="JetBrains Mono, monospace" font-size="9.5">
<rect width="100%" height="100%" fill="#14171b"/>
<text x="22" y="26" fill="#F32740" font-weight="700" letter-spacing="2">LFLD3W35-3E1-UD-PS-15W-30K_IESNA2002 · 15W · 3000K · FLOOD</text>
<text x="22" y="42" fill="rgba(255,255,255,0.55)" font-size="8" letter-spacing="1.4">LUMINOUS INTENSITY DISTRIBUTION (cd/klm)</text>
<path d="M 232.0 64.0 A 68.0 68.0 0 0 0 368.0 64.0" fill="none" stroke="rgba(120,200,200,0.18)" stroke-width="0.7"/>
<path d="M 164.0 64.0 A 136.0 136.0 0 0 0 436.0 64.0" fill="none" stroke="rgba(120,200,200,0.18)" stroke-width="0.7"/>
<path d="M 96.0 64.0 A 204.0 204.0 0 0 0 504.0 64.0" fill="none" stroke="rgba(120,200,200,0.18)" stroke-width="0.7"/>
<path d="M 28.0 64.0 A 272.0 272.0 0 0 0 572.0 64.0" fill="none" stroke="rgba(120,200,200,0.18)" stroke-width="0.7"/>
<path d="M -40.0 64.0 A 340.0 340.0 0 0 0 640.0 64.0" fill="none" stroke="rgba(120,200,200,0.18)" stroke-width="0.7"/>
<line x1="300.0" y1="64" x2="388.0" y2="392.4" stroke="rgba(120,200,200,0.10)" stroke-width="0.5"/>
<line x1="300.0" y1="64" x2="212.0" y2="392.4" stroke="rgba(120,200,200,0.10)" stroke-width="0.5"/>
<line x1="300.0" y1="64" x2="470.0" y2="358.4" stroke="rgba(120,200,200,0.10)" stroke-width="0.5"/>
<line x1="300.0" y1="64" x2="130.0" y2="358.4" stroke="rgba(120,200,200,0.10)" stroke-width="0.5"/>
<line x1="300.0" y1="64" x2="540.4" y2="304.4" stroke="rgba(120,200,200,0.10)" stroke-width="0.5"/>
<line x1="300.0" y1="64" x2="59.6" y2="304.4" stroke="rgba(120,200,200,0.10)" stroke-width="0.5"/>
<line x1="300.0" y1="64" x2="594.4" y2="234.0" stroke="rgba(120,200,200,0.10)" stroke-width="0.5"/>
<line x1="300.0" y1="64" x2="5.6" y2="234.0" stroke="rgba(120,200,200,0.10)" stroke-width="0.5"/>
<line x1="300.0" y1="64" x2="628.4" y2="152.0" stroke="rgba(120,200,200,0.10)" stroke-width="0.5"/>
<line x1="300.0" y1="64" x2="-28.4" y2="152.0" stroke="rgba(120,200,200,0.10)" stroke-width="0.5"/>
<line x1="300.0" y1="64" x2="640.0" y2="64.0" stroke="rgba(120,200,200,0.10)" stroke-width="0.5"/>
<line x1="300.0" y1="64" x2="-40.0" y2="64.0" stroke="rgba(120,200,200,0.10)" stroke-width="0.5"/>
<line x1="300.0" y1="64" x2="300.0" y2="408" stroke="rgba(120,200,200,0.14)" stroke-width="0.5"/>
<line x1="-40.0" y1="64" x2="640.0" y2="64" stroke="rgba(120,200,200,0.14)" stroke-width="0.5"/>
<text x="391.6" y="408.9" text-anchor="middle" fill="rgba(255,255,255,0.4)" font-size="9">15°</text>
<text x="208.4" y="408.9" text-anchor="middle" fill="rgba(255,255,255,0.4)" font-size="9">15°</text>
<text x="477.0" y="373.6" text-anchor="middle" fill="rgba(255,255,255,0.6)" font-size="9">30°</text>
<text x="123.0" y="373.6" text-anchor="middle" fill="rgba(255,255,255,0.6)" font-size="9">30°</text>
<text x="550.3" y="317.3" text-anchor="middle" fill="rgba(255,255,255,0.4)" font-size="9">45°</text>
<text x="49.7" y="317.3" text-anchor="middle" fill="rgba(255,255,255,0.4)" font-size="9">45°</text>
<text x="606.6" y="244.0" text-anchor="middle" fill="rgba(255,255,255,0.6)" font-size="9">60°</text>
<text x="-6.6" y="244.0" text-anchor="middle" fill="rgba(255,255,255,0.6)" font-size="9">60°</text>
<text x="641.9" y="158.6" text-anchor="middle" fill="rgba(255,255,255,0.4)" font-size="9">75°</text>
<text x="-41.9" y="158.6" text-anchor="middle" fill="rgba(255,255,255,0.4)" font-size="9">75°</text>
<text x="654.0" y="67.0" text-anchor="middle" fill="rgba(255,255,255,0.6)" font-size="9">90°</text>
<text x="-54.0" y="67.0" text-anchor="middle" fill="rgba(255,255,255,0.6)" font-size="9">90°</text>
<text x="300" y="426" text-anchor="middle" fill="rgba(255,255,255,0.6)" font-size="9">0°</text>
<path d="M 300.0 295.0 L 304.0 295.2 L 308.1 295.2 L 312.1 294.8 L 316.1 294.2 L 320.1 293.7 L 324.0 292.6 L 328.0 291.7 L 331.8 290.3 L 335.7 289.3 L 339.5 287.9 L 343.2 286.3 L 346.9 284.6 L 350.5 282.9 L 354.1 281.0 L 357.7 279.2 L 361.0 276.8 L 364.5 275.0 L 367.7 272.5 L 371.0 270.3 L 374.0 267.4 L 377.1 264.8 L 379.9 261.9 L 382.8 259.1 L 385.4 255.8 L 388.0 252.7 L 390.5 249.5 L 392.9 246.3 L 395.0 242.7 L 397.2 239.4 L 399.2 235.8 L 401.1 232.3 L 402.7 228.3 L 404.4 224.7 L 405.7 220.7 L 407.1 216.9 L 408.0 212.7 L 409.0 208.6 L 409.7 204.5 L 410.4 200.4 L 410.8 196.0 L 411.2 191.9 L 411.2 187.5 L 411.0 183.0 L 410.5 178.4 L 410.4 174.4 L 409.5 169.8 L 408.9 165.6 L 407.7 161.0 L 406.9 156.9 L 405.1 152.2 L 403.8 148.0 L 401.7 143.4 L 400.1 139.4 L 397.1 134.5 L 394.3 130.1 L 391.6 125.8 L 389.3 122.0 L 386.6 118.1 L 383.6 114.2 L 378.8 109.5 L 375.2 105.7 L 371.9 102.2 L 368.9 99.1 L 364.0 95.2 L 359.9 91.9 L 356.5 89.2 L 352.3 86.2 L 347.7 83.3 L 344.4 81.1 L 339.6 78.4 L 335.9 76.4 L 332.2 74.5 L 328.4 72.7 L 324.5 71.0 L 320.8 69.6 L 316.8 68.2 L 312.5 66.9 L 308.4 65.8 L 305.0 65.0 L 303.5 64.6 L 302.6 64.4 L 301.9 64.3 L 301.4 64.2 L 301.2 64.1 L 301.1 64.1 L 301.1 64.1 L 301.2 64.1 L 301.2 64.0 L 301.2 64.0 L 301.2 64.0 L 298.7 64.0 L 298.7 64.0 L 298.8 64.0 L 298.5 64.1 L 298.0 64.1 L 297.4 64.2 L 297.0 64.3 L 296.4 64.4 L 295.1 64.7 L 293.0 65.1 L 290.6 65.6 L 287.9 66.3 L 285.1 67.2 L 281.9 68.2 L 278.7 69.3 L 275.2 70.6 L 271.3 72.2 L 267.3 74.0 L 263.3 75.9 L 259.1 78.1 L 255.1 80.3 L 251.0 82.8 L 246.5 85.6 L 243.1 88.1 L 238.8 91.2 L 234.2 94.7 L 230.7 97.8 L 227.3 101.1 L 222.7 105.1 L 218.8 109.0 L 216.1 112.4 L 213.5 116.0 L 210.3 120.1 L 206.3 124.8 L 202.8 129.6 L 200.6 133.6 L 198.7 137.6 L 197.1 141.6 L 195.5 145.6 L 194.2 149.7 L 192.8 154.0 L 191.8 158.0 L 190.8 162.4 L 190.0 166.6 L 189.1 171.1 L 188.9 175.1 L 188.4 179.6 L 188.5 183.6 L 188.0 188.4 L 188.4 192.4 L 188.4 196.9 L 189.3 200.7 L 189.4 205.6 L 190.4 209.4 L 191.2 213.8 L 192.6 217.3 L 193.4 222.0 L 195.3 225.2 L 196.6 229.5 L 198.4 233.1 L 199.9 237.3 L 202.1 240.6 L 203.9 244.8 L 206.4 247.8 L 208.5 251.7 L 211.2 254.4 L 213.6 258.0 L 216.5 260.7 L 219.2 264.1 L 222.4 266.2 L 225.2 269.5 L 228.6 271.5 L 231.7 274.3 L 235.1 276.2 L 238.4 278.9 L 242.0 280.4 L 245.4 283.1 L 249.1 284.5 L 252.7 286.5 L 256.5 287.6 L 260.2 289.6 L 264.2 290.2 L 268.0 291.6 L 272.0 291.8 L 275.9 293.5 L 279.9 293.8 L 283.9 294.4 L 287.9 294.6 L 291.9 295.0 L 296.0 295.1 L 300.0 295.0 Z" fill="none" stroke="#3FA9F5" stroke-width="1.7" stroke-linejoin="round" stroke-linecap="round"/>
<path d="M 300.0 295.0 L 304.0 295.9 L 308.1 294.6 L 312.1 295.0 L 316.1 294.3 L 320.1 294.1 L 324.1 293.4 L 328.0 292.2 L 332.0 291.4 L 335.8 290.0 L 339.7 289.1 L 343.3 286.8 L 347.1 285.6 L 350.7 283.5 L 354.3 281.8 L 357.9 280.0 L 361.2 277.3 L 364.6 275.4 L 367.8 272.7 L 371.1 270.6 L 374.0 267.3 L 377.3 265.3 L 380.0 262.0 L 382.9 259.4 L 385.6 256.3 L 388.1 253.0 L 390.6 249.7 L 392.8 246.0 L 394.9 242.4 L 396.5 238.1 L 398.6 234.7 L 400.0 230.4 L 401.5 226.4 L 402.7 222.1 L 403.6 217.6 L 404.6 213.4 L 404.8 208.3 L 405.5 204.0 L 405.4 198.9 L 405.9 194.7 L 405.5 189.7 L 405.6 185.5 L 405.0 180.6 L 403.7 175.2 L 399.7 167.2 L 393.4 157.4 L 387.1 148.1 L 381.8 140.3 L 378.3 134.5 L 376.1 130.2 L 375.3 127.2 L 374.3 124.2 L 373.3 121.3 L 372.1 118.3 L 370.8 115.4 L 369.5 112.7 L 367.9 109.8 L 366.1 106.9 L 364.3 104.2 L 362.4 101.5 L 358.7 97.9 L 351.8 92.7 L 340.2 85.4 L 334.4 81.5 L 332.1 79.7 L 324.3 75.3 L 311.6 69.2 L 310.5 68.5 L 309.7 67.9 L 308.6 67.3 L 307.4 66.7 L 306.2 66.1 L 305.0 65.6 L 304.0 65.2 L 303.0 64.9 L 302.2 64.6 L 301.5 64.4 L 301.3 64.3 L 301.3 64.3 L 301.3 64.2 L 301.3 64.2 L 301.3 64.2 L 301.2 64.2 L 301.1 64.1 L 301.1 64.1 L 301.0 64.1 L 301.0 64.1 L 301.0 64.1 L 301.0 64.0 L 301.0 64.0 L 301.0 64.0 L 298.9 64.0 L 298.9 64.0 L 298.9 64.0 L 298.9 64.1 L 298.9 64.1 L 298.9 64.1 L 299.0 64.1 L 299.0 64.1 L 299.0 64.1 L 299.0 64.2 L 299.0 64.2 L 299.0 64.2 L 299.0 64.2 L 299.0 64.2 L 299.1 64.2 L 299.1 64.3 L 299.1 64.3 L 299.1 64.3 L 299.0 64.3 L 298.8 64.4 L 298.3 64.6 L 297.7 64.9 L 297.0 65.2 L 296.3 65.6 L 295.6 66.0 L 294.9 66.4 L 294.1 66.9 L 293.3 67.4 L 292.5 68.0 L 291.6 68.7 L 290.7 69.3 L 290.0 70.0 L 289.2 70.7 L 288.1 71.7 L 280.5 77.2 L 273.0 82.9 L 265.7 88.9 L 261.4 93.1 L 256.6 97.9 L 255.6 99.9 L 255.0 101.8 L 254.2 103.8 L 250.3 108.7 L 238.8 121.1 L 231.3 130.3 L 228.2 135.8 L 223.7 143.0 L 221.7 148.0 L 221.5 151.2 L 221.5 154.3 L 221.9 157.1 L 222.1 160.2 L 222.4 163.3 L 220.2 169.9 L 213.9 182.5 L 206.3 197.8 L 202.3 208.9 L 199.8 218.2 L 198.9 225.9 L 199.9 230.6 L 201.6 234.4 L 203.7 237.8 L 205.5 241.7 L 208.0 244.5 L 210.2 248.1 L 212.9 250.8 L 215.3 254.2 L 218.0 257.2 L 220.9 259.7 L 223.6 263.0 L 226.6 265.6 L 229.4 269.1 L 232.7 271.2 L 235.6 274.6 L 239.1 276.5 L 242.2 279.5 L 245.8 281.5 L 249.3 283.4 L 252.9 285.4 L 256.6 287.0 L 260.4 288.8 L 264.3 289.6 L 268.0 291.5 L 272.0 291.8 L 275.9 293.1 L 279.9 293.8 L 283.9 294.5 L 287.9 295.3 L 291.9 294.7 L 296.0 295.5 L 300.0 295.0 Z" fill="none" stroke="#F32740" stroke-width="2.0" stroke-linejoin="round" stroke-linecap="round"/>
<text x="338" y="132" fill="#F32740" font-size="9.5" font-weight="700">125</text>
<text x="335" y="200" fill="#F32740" font-size="9.5" font-weight="700">250</text>
<text x="335" y="268" fill="#F32740" font-size="9.5" font-weight="700">375</text>
<text x="335" y="336" fill="#F32740" font-size="9.5" font-weight="700">500</text>
<rect x="274.0" y="58" width="52" height="11" rx="1.5" fill="#fafbfc" stroke="rgba(255,255,255,0.4)" stroke-width="0.5"/>
<line x1="272.0" y1="69.8" x2="328.0" y2="69.8" stroke="#F32740" stroke-width="0.7" stroke-dasharray="1.5 2"/>
<text x="300" y="66" text-anchor="middle" fill="#F32740" font-size="8" font-weight="700" letter-spacing="0.5">cd/klm SCALE</text>
<g transform="translate(22, 434)">
<text x="0" y="-8" fill="rgba(255,255,255,0.55)" font-size="8" letter-spacing="1.4">cd/klm</text>
<line x1="0" y1="6" x2="22" y2="6" stroke="#F32740" stroke-width="2.2"/>
<text x="28" y="9" fill="rgba(255,255,255,0.7)" font-size="9.5">C0 – C180</text>
<line x1="120" y1="6" x2="142" y2="6" stroke="#3FA9F5" stroke-width="1.7"/>
<text x="148" y="9" fill="rgba(255,255,255,0.7)" font-size="9.5">C90 – C270</text>
</g>
<text x="578" y="402" fill="rgba(255,255,255,0.45)" font-size="9" text-anchor="end">η = 138 lm/W</text>
<text x="578" y="418" fill="rgba(255,255,255,0.45)" font-size="9" text-anchor="end">1,919 lm · 13.9W</text>
<text x="578" y="434" fill="rgba(255,255,255,0.55)" font-size="8" letter-spacing="1.4" text-anchor="end">PEAK INTENSITY</text>
<text x="578" y="451" fill="#fff" font-weight="700" font-size="14" text-anchor="end">818 cd</text>
</svg>