<svg viewBox="0 0 600 460" xmlns="http://www.w3.org/2000/svg" font-family="JetBrains Mono, monospace" font-size="9.5">
<rect width="100%" height="100%" fill="#14171b"/>
<text x="22" y="26" fill="#F32740" font-weight="700" letter-spacing="2">LFLD3W35-3E1-UDPS-30K_IESNA2002 · 0W · 3000K · FLOOD</text>
<text x="22" y="42" fill="rgba(255,255,255,0.55)" font-size="8" letter-spacing="1.4">LUMINOUS INTENSITY DISTRIBUTION (cd/klm)</text>
<path d="M 232.0 64.0 A 68.0 68.0 0 0 0 368.0 64.0" fill="none" stroke="rgba(120,200,200,0.18)" stroke-width="0.7"/>
<path d="M 164.0 64.0 A 136.0 136.0 0 0 0 436.0 64.0" fill="none" stroke="rgba(120,200,200,0.18)" stroke-width="0.7"/>
<path d="M 96.0 64.0 A 204.0 204.0 0 0 0 504.0 64.0" fill="none" stroke="rgba(120,200,200,0.18)" stroke-width="0.7"/>
<path d="M 28.0 64.0 A 272.0 272.0 0 0 0 572.0 64.0" fill="none" stroke="rgba(120,200,200,0.18)" stroke-width="0.7"/>
<path d="M -40.0 64.0 A 340.0 340.0 0 0 0 640.0 64.0" fill="none" stroke="rgba(120,200,200,0.18)" stroke-width="0.7"/>
<line x1="300.0" y1="64" x2="388.0" y2="392.4" stroke="rgba(120,200,200,0.10)" stroke-width="0.5"/>
<line x1="300.0" y1="64" x2="212.0" y2="392.4" stroke="rgba(120,200,200,0.10)" stroke-width="0.5"/>
<line x1="300.0" y1="64" x2="470.0" y2="358.4" stroke="rgba(120,200,200,0.10)" stroke-width="0.5"/>
<line x1="300.0" y1="64" x2="130.0" y2="358.4" stroke="rgba(120,200,200,0.10)" stroke-width="0.5"/>
<line x1="300.0" y1="64" x2="540.4" y2="304.4" stroke="rgba(120,200,200,0.10)" stroke-width="0.5"/>
<line x1="300.0" y1="64" x2="59.6" y2="304.4" stroke="rgba(120,200,200,0.10)" stroke-width="0.5"/>
<line x1="300.0" y1="64" x2="594.4" y2="234.0" stroke="rgba(120,200,200,0.10)" stroke-width="0.5"/>
<line x1="300.0" y1="64" x2="5.6" y2="234.0" stroke="rgba(120,200,200,0.10)" stroke-width="0.5"/>
<line x1="300.0" y1="64" x2="628.4" y2="152.0" stroke="rgba(120,200,200,0.10)" stroke-width="0.5"/>
<line x1="300.0" y1="64" x2="-28.4" y2="152.0" stroke="rgba(120,200,200,0.10)" stroke-width="0.5"/>
<line x1="300.0" y1="64" x2="640.0" y2="64.0" stroke="rgba(120,200,200,0.10)" stroke-width="0.5"/>
<line x1="300.0" y1="64" x2="-40.0" y2="64.0" stroke="rgba(120,200,200,0.10)" stroke-width="0.5"/>
<line x1="300.0" y1="64" x2="300.0" y2="408" stroke="rgba(120,200,200,0.14)" stroke-width="0.5"/>
<line x1="-40.0" y1="64" x2="640.0" y2="64" stroke="rgba(120,200,200,0.14)" stroke-width="0.5"/>
<text x="391.6" y="408.9" text-anchor="middle" fill="rgba(255,255,255,0.4)" font-size="9">15°</text>
<text x="208.4" y="408.9" text-anchor="middle" fill="rgba(255,255,255,0.4)" font-size="9">15°</text>
<text x="477.0" y="373.6" text-anchor="middle" fill="rgba(255,255,255,0.6)" font-size="9">30°</text>
<text x="123.0" y="373.6" text-anchor="middle" fill="rgba(255,255,255,0.6)" font-size="9">30°</text>
<text x="550.3" y="317.3" text-anchor="middle" fill="rgba(255,255,255,0.4)" font-size="9">45°</text>
<text x="49.7" y="317.3" text-anchor="middle" fill="rgba(255,255,255,0.4)" font-size="9">45°</text>
<text x="606.6" y="244.0" text-anchor="middle" fill="rgba(255,255,255,0.6)" font-size="9">60°</text>
<text x="-6.6" y="244.0" text-anchor="middle" fill="rgba(255,255,255,0.6)" font-size="9">60°</text>
<text x="641.9" y="158.6" text-anchor="middle" fill="rgba(255,255,255,0.4)" font-size="9">75°</text>
<text x="-41.9" y="158.6" text-anchor="middle" fill="rgba(255,255,255,0.4)" font-size="9">75°</text>
<text x="654.0" y="67.0" text-anchor="middle" fill="rgba(255,255,255,0.6)" font-size="9">90°</text>
<text x="-54.0" y="67.0" text-anchor="middle" fill="rgba(255,255,255,0.6)" font-size="9">90°</text>
<text x="300" y="426" text-anchor="middle" fill="rgba(255,255,255,0.6)" font-size="9">0°</text>
<path d="M 300.0 292.2 L 304.0 292.2 L 308.0 292.2 L 311.9 292.0 L 315.9 291.6 L 319.9 290.9 L 323.8 290.4 L 327.7 289.6 L 331.6 288.6 L 335.4 287.6 L 339.2 286.5 L 343.0 285.1 L 346.7 283.7 L 350.4 282.1 L 354.0 280.4 L 357.5 278.6 L 361.0 276.6 L 364.4 274.5 L 367.7 272.4 L 370.9 270.0 L 374.1 267.6 L 377.2 265.0 L 380.2 262.5 L 383.1 259.7 L 385.9 256.9 L 388.5 253.8 L 391.1 250.8 L 393.6 247.6 L 395.9 244.4 L 398.1 241.0 L 400.2 237.5 L 402.2 234.0 L 404.0 230.4 L 405.7 226.8 L 407.3 223.1 L 408.7 219.3 L 410.0 215.3 L 411.1 211.5 L 412.0 207.3 L 412.8 203.3 L 413.4 199.2 L 413.9 195.1 L 414.2 190.9 L 414.4 186.7 L 414.4 182.4 L 414.2 178.2 L 413.8 173.9 L 413.3 169.6 L 412.5 165.3 L 411.7 161.1 L 410.6 156.8 L 409.4 152.6 L 407.9 148.3 L 406.5 144.2 L 404.8 140.1 L 402.9 136.1 L 400.4 131.7 L 397.2 127.1 L 394.0 122.7 L 391.2 118.8 L 388.3 115.0 L 384.5 110.8 L 380.7 106.9 L 377.5 103.5 L 373.5 99.9 L 369.1 96.2 L 365.5 93.2 L 361.4 90.1 L 357.2 87.1 L 353.0 84.3 L 348.5 81.6 L 344.5 79.3 L 340.5 77.2 L 336.5 75.1 L 332.4 73.3 L 328.2 71.6 L 324.5 70.1 L 320.8 68.8 L 317.4 67.7 L 314.3 66.8 L 311.4 66.0 L 308.7 65.4 L 306.4 64.9 L 304.4 64.5 L 303.2 64.3 L 302.6 64.2 L 302.2 64.2 L 301.8 64.1 L 301.5 64.1 L 301.4 64.0 L 301.3 64.0 L 298.7 64.0 L 298.7 64.0 L 298.7 64.0 L 298.7 64.1 L 298.6 64.1 L 298.3 64.1 L 298.0 64.2 L 297.6 64.3 L 297.1 64.4 L 296.1 64.6 L 294.4 65.0 L 292.3 65.5 L 290.0 66.1 L 287.0 67.0 L 284.1 68.0 L 281.1 69.1 L 277.7 70.4 L 274.2 71.9 L 270.7 73.5 L 267.1 75.3 L 263.0 77.5 L 259.0 79.7 L 255.3 82.1 L 250.9 84.8 L 247.1 87.6 L 242.7 90.7 L 238.8 93.9 L 235.0 97.1 L 230.8 100.8 L 227.4 104.2 L 223.9 107.9 L 219.9 112.1 L 216.8 116.0 L 213.9 119.9 L 210.8 124.2 L 207.3 128.9 L 204.6 133.3 L 202.6 137.4 L 200.9 141.5 L 199.1 145.7 L 197.7 149.8 L 196.5 154.0 L 195.4 158.2 L 194.3 162.5 L 193.5 166.8 L 192.8 171.2 L 192.4 175.5 L 192.1 179.7 L 192.0 183.9 L 192.1 188.1 L 192.3 192.3 L 192.6 196.6 L 193.2 200.7 L 193.9 204.8 L 194.7 208.9 L 195.8 212.9 L 197.0 216.7 L 198.3 220.6 L 199.8 224.4 L 201.4 228.2 L 203.1 231.8 L 205.0 235.4 L 207.0 238.9 L 209.2 242.3 L 211.4 245.6 L 213.9 248.7 L 216.3 251.9 L 219.0 254.9 L 221.6 258.0 L 224.4 260.8 L 227.3 263.6 L 230.4 266.2 L 233.5 268.7 L 236.7 271.0 L 240.0 273.2 L 243.4 275.3 L 246.8 277.3 L 250.3 279.2 L 253.8 281.1 L 257.5 282.7 L 261.2 284.3 L 264.9 285.7 L 268.7 287.0 L 272.5 288.0 L 276.3 289.1 L 280.2 289.9 L 284.2 290.6 L 288.1 291.1 L 292.1 291.6 L 296.0 292.0 L 300.0 292.2 Z" fill="none" stroke="#3FA9F5" stroke-width="1.7" stroke-linejoin="round" stroke-linecap="round"/>
<path d="M 300.0 292.2 L 304.0 292.5 L 308.0 292.3 L 312.0 292.3 L 315.9 292.0 L 319.9 291.8 L 323.9 291.2 L 327.8 290.7 L 331.8 290.0 L 335.7 289.1 L 339.5 287.8 L 343.3 286.8 L 347.0 285.3 L 350.8 284.0 L 354.4 282.3 L 358.0 280.6 L 361.6 278.7 L 365.1 276.8 L 368.4 274.7 L 371.8 272.6 L 375.0 270.1 L 378.2 267.8 L 381.3 265.3 L 384.4 262.7 L 387.2 259.8 L 390.0 257.0 L 392.6 253.9 L 395.2 250.9 L 397.6 247.5 L 399.8 244.1 L 401.9 240.5 L 403.9 236.8 L 405.6 233.0 L 407.3 229.2 L 408.7 225.1 L 410.0 221.1 L 411.2 217.0 L 412.2 212.9 L 413.0 208.6 L 413.9 204.6 L 414.4 200.3 L 414.8 196.1 L 415.1 191.8 L 415.3 187.7 L 415.4 183.5 L 415.4 179.4 L 415.2 175.3 L 414.8 171.1 L 414.3 166.9 L 413.7 162.8 L 412.8 158.6 L 411.4 154.2 L 407.0 147.6 L 398.2 138.0 L 386.9 127.2 L 379.9 119.9 L 375.9 115.2 L 374.2 112.2 L 372.7 109.4 L 371.1 106.7 L 369.3 104.0 L 367.4 101.4 L 365.3 98.7 L 362.7 95.9 L 358.4 92.5 L 342.5 83.8 L 336.1 80.1 L 329.6 76.6 L 322.9 73.2 L 310.0 67.8 L 309.0 67.3 L 308.1 66.8 L 307.2 66.3 L 306.1 65.9 L 305.0 65.4 L 304.0 65.1 L 303.0 64.7 L 302.1 64.5 L 301.5 64.3 L 301.4 64.3 L 301.4 64.3 L 301.4 64.2 L 301.4 64.2 L 301.4 64.2 L 301.4 64.1 L 301.3 64.1 L 301.3 64.1 L 301.2 64.1 L 301.1 64.0 L 301.0 64.0 L 301.0 64.0 L 298.8 64.0 L 298.8 64.0 L 298.8 64.0 L 298.8 64.1 L 298.8 64.1 L 298.8 64.1 L 298.8 64.1 L 298.8 64.1 L 298.8 64.2 L 298.8 64.2 L 298.8 64.2 L 298.9 64.2 L 298.9 64.2 L 298.9 64.3 L 298.9 64.3 L 298.9 64.3 L 298.9 64.3 L 298.9 64.3 L 298.9 64.3 L 298.9 64.4 L 298.9 64.4 L 298.9 64.4 L 299.0 64.4 L 298.9 64.5 L 298.9 64.5 L 298.5 64.7 L 297.8 65.1 L 297.2 65.4 L 296.4 65.9 L 295.6 66.4 L 294.8 67.0 L 294.0 67.6 L 293.1 68.3 L 292.2 69.1 L 291.3 69.9 L 290.3 70.8 L 289.5 71.6 L 288.9 72.4 L 286.1 74.9 L 283.1 77.7 L 262.5 95.5 L 261.3 97.6 L 260.5 99.6 L 259.7 101.6 L 259.1 103.5 L 258.5 105.5 L 257.8 107.7 L 247.8 119.9 L 230.5 141.2 L 229.4 145.2 L 229.3 148.3 L 229.2 151.5 L 229.3 154.5 L 229.5 157.5 L 229.9 160.5 L 230.4 163.4 L 230.9 166.5 L 230.1 171.7 L 220.6 191.1 L 209.0 215.5 L 208.2 222.9 L 209.7 226.9 L 211.4 230.6 L 213.3 234.2 L 215.3 237.6 L 217.4 241.1 L 219.7 244.4 L 222.1 247.5 L 224.7 250.5 L 227.3 253.5 L 230.0 256.4 L 232.8 259.2 L 235.7 261.9 L 238.6 264.7 L 241.7 267.3 L 244.8 270.0 L 248.0 272.6 L 251.3 275.0 L 254.6 277.5 L 258.0 279.9 L 261.6 282.0 L 265.2 283.9 L 268.9 285.4 L 272.6 286.8 L 276.5 288.1 L 280.3 289.2 L 284.2 290.1 L 288.1 290.9 L 292.1 291.5 L 296.0 292.0 L 300.0 292.2 Z" fill="none" stroke="#F32740" stroke-width="2.0" stroke-linejoin="round" stroke-linecap="round"/>
<text x="338" y="132" fill="#F32740" font-size="9.5" font-weight="700">125</text>
<text x="335" y="200" fill="#F32740" font-size="9.5" font-weight="700">250</text>
<text x="335" y="268" fill="#F32740" font-size="9.5" font-weight="700">375</text>
<text x="335" y="336" fill="#F32740" font-size="9.5" font-weight="700">500</text>
<rect x="274.0" y="58" width="52" height="11" rx="1.5" fill="#fafbfc" stroke="rgba(255,255,255,0.4)" stroke-width="0.5"/>
<line x1="272.0" y1="69.8" x2="328.0" y2="69.8" stroke="#F32740" stroke-width="0.7" stroke-dasharray="1.5 2"/>
<text x="300" y="66" text-anchor="middle" fill="#F32740" font-size="8" font-weight="700" letter-spacing="0.5">cd/klm SCALE</text>
<g transform="translate(22, 434)">
<text x="0" y="-8" fill="rgba(255,255,255,0.55)" font-size="8" letter-spacing="1.4">cd/klm</text>
<line x1="0" y1="6" x2="22" y2="6" stroke="#F32740" stroke-width="2.2"/>
<text x="28" y="9" fill="rgba(255,255,255,0.7)" font-size="9.5">C0 – C180</text>
<line x1="120" y1="6" x2="142" y2="6" stroke="#3FA9F5" stroke-width="1.7"/>
<text x="148" y="9" fill="rgba(255,255,255,0.7)" font-size="9.5">C90 – C270</text>
</g>
<text x="578" y="402" fill="rgba(255,255,255,0.45)" font-size="9" text-anchor="end">η = 111 lm/W</text>
<text x="578" y="418" fill="rgba(255,255,255,0.45)" font-size="9" text-anchor="end">4,086 lm · 36.7W</text>
<text x="578" y="434" fill="rgba(255,255,255,0.55)" font-size="8" letter-spacing="1.4" text-anchor="end">PEAK INTENSITY</text>
<text x="578" y="451" fill="#fff" font-weight="700" font-size="14" text-anchor="end">1,718 cd</text>
</svg>