<svg viewBox="0 0 600 460" xmlns="http://www.w3.org/2000/svg" font-family="JetBrains Mono, monospace" font-size="9.5">
<rect width="100%" height="100%" fill="#14171b"/>
<text x="22" y="26" fill="#F32740" font-weight="700" letter-spacing="2">LFLD3W35-3E1-UDPS-50K_IESNA2002 · 0W · 5000K · FLOOD</text>
<text x="22" y="42" fill="rgba(255,255,255,0.55)" font-size="8" letter-spacing="1.4">LUMINOUS INTENSITY DISTRIBUTION (cd/klm)</text>
<path d="M 232.0 64.0 A 68.0 68.0 0 0 0 368.0 64.0" fill="none" stroke="rgba(120,200,200,0.18)" stroke-width="0.7"/>
<path d="M 164.0 64.0 A 136.0 136.0 0 0 0 436.0 64.0" fill="none" stroke="rgba(120,200,200,0.18)" stroke-width="0.7"/>
<path d="M 96.0 64.0 A 204.0 204.0 0 0 0 504.0 64.0" fill="none" stroke="rgba(120,200,200,0.18)" stroke-width="0.7"/>
<path d="M 28.0 64.0 A 272.0 272.0 0 0 0 572.0 64.0" fill="none" stroke="rgba(120,200,200,0.18)" stroke-width="0.7"/>
<path d="M -40.0 64.0 A 340.0 340.0 0 0 0 640.0 64.0" fill="none" stroke="rgba(120,200,200,0.18)" stroke-width="0.7"/>
<line x1="300.0" y1="64" x2="388.0" y2="392.4" stroke="rgba(120,200,200,0.10)" stroke-width="0.5"/>
<line x1="300.0" y1="64" x2="212.0" y2="392.4" stroke="rgba(120,200,200,0.10)" stroke-width="0.5"/>
<line x1="300.0" y1="64" x2="470.0" y2="358.4" stroke="rgba(120,200,200,0.10)" stroke-width="0.5"/>
<line x1="300.0" y1="64" x2="130.0" y2="358.4" stroke="rgba(120,200,200,0.10)" stroke-width="0.5"/>
<line x1="300.0" y1="64" x2="540.4" y2="304.4" stroke="rgba(120,200,200,0.10)" stroke-width="0.5"/>
<line x1="300.0" y1="64" x2="59.6" y2="304.4" stroke="rgba(120,200,200,0.10)" stroke-width="0.5"/>
<line x1="300.0" y1="64" x2="594.4" y2="234.0" stroke="rgba(120,200,200,0.10)" stroke-width="0.5"/>
<line x1="300.0" y1="64" x2="5.6" y2="234.0" stroke="rgba(120,200,200,0.10)" stroke-width="0.5"/>
<line x1="300.0" y1="64" x2="628.4" y2="152.0" stroke="rgba(120,200,200,0.10)" stroke-width="0.5"/>
<line x1="300.0" y1="64" x2="-28.4" y2="152.0" stroke="rgba(120,200,200,0.10)" stroke-width="0.5"/>
<line x1="300.0" y1="64" x2="640.0" y2="64.0" stroke="rgba(120,200,200,0.10)" stroke-width="0.5"/>
<line x1="300.0" y1="64" x2="-40.0" y2="64.0" stroke="rgba(120,200,200,0.10)" stroke-width="0.5"/>
<line x1="300.0" y1="64" x2="300.0" y2="408" stroke="rgba(120,200,200,0.14)" stroke-width="0.5"/>
<line x1="-40.0" y1="64" x2="640.0" y2="64" stroke="rgba(120,200,200,0.14)" stroke-width="0.5"/>
<text x="391.6" y="408.9" text-anchor="middle" fill="rgba(255,255,255,0.4)" font-size="9">15°</text>
<text x="208.4" y="408.9" text-anchor="middle" fill="rgba(255,255,255,0.4)" font-size="9">15°</text>
<text x="477.0" y="373.6" text-anchor="middle" fill="rgba(255,255,255,0.6)" font-size="9">30°</text>
<text x="123.0" y="373.6" text-anchor="middle" fill="rgba(255,255,255,0.6)" font-size="9">30°</text>
<text x="550.3" y="317.3" text-anchor="middle" fill="rgba(255,255,255,0.4)" font-size="9">45°</text>
<text x="49.7" y="317.3" text-anchor="middle" fill="rgba(255,255,255,0.4)" font-size="9">45°</text>
<text x="606.6" y="244.0" text-anchor="middle" fill="rgba(255,255,255,0.6)" font-size="9">60°</text>
<text x="-6.6" y="244.0" text-anchor="middle" fill="rgba(255,255,255,0.6)" font-size="9">60°</text>
<text x="641.9" y="158.6" text-anchor="middle" fill="rgba(255,255,255,0.4)" font-size="9">75°</text>
<text x="-41.9" y="158.6" text-anchor="middle" fill="rgba(255,255,255,0.4)" font-size="9">75°</text>
<text x="654.0" y="67.0" text-anchor="middle" fill="rgba(255,255,255,0.6)" font-size="9">90°</text>
<text x="-54.0" y="67.0" text-anchor="middle" fill="rgba(255,255,255,0.6)" font-size="9">90°</text>
<text x="300" y="426" text-anchor="middle" fill="rgba(255,255,255,0.6)" font-size="9">0°</text>
<path d="M 300.0 294.3 L 304.0 294.2 L 308.0 294.3 L 312.0 293.9 L 316.0 293.5 L 320.0 292.9 L 324.0 292.3 L 327.9 291.5 L 331.8 290.5 L 335.7 289.5 L 339.6 288.4 L 343.3 287.0 L 347.1 285.7 L 350.8 284.1 L 354.5 282.5 L 358.0 280.6 L 361.6 278.7 L 365.0 276.6 L 368.4 274.5 L 371.6 272.1 L 374.9 269.7 L 378.0 267.2 L 381.1 264.7 L 384.0 262.0 L 386.9 259.2 L 389.6 256.1 L 392.2 253.1 L 394.7 249.8 L 397.1 246.7 L 399.4 243.3 L 401.5 239.9 L 403.6 236.4 L 405.6 232.9 L 407.3 229.2 L 408.9 225.5 L 410.3 221.6 L 411.6 217.7 L 412.8 213.7 L 413.7 209.6 L 414.6 205.5 L 415.4 201.5 L 415.9 197.3 L 416.2 193.0 L 416.2 188.6 L 416.2 184.4 L 416.0 180.0 L 415.7 175.8 L 415.1 171.3 L 414.4 167.0 L 413.5 162.6 L 412.3 158.2 L 411.0 153.9 L 409.7 149.7 L 408.2 145.5 L 406.4 141.3 L 404.3 137.1 L 401.8 132.6 L 398.6 128.0 L 395.4 123.6 L 392.3 119.5 L 389.4 115.6 L 385.6 111.5 L 381.7 107.4 L 378.2 103.9 L 374.2 100.2 L 369.8 96.5 L 366.1 93.4 L 361.9 90.3 L 357.6 87.3 L 353.4 84.5 L 348.9 81.8 L 344.7 79.4 L 340.6 77.2 L 336.2 75.1 L 332.3 73.3 L 328.4 71.6 L 324.4 70.1 L 320.7 68.8 L 317.2 67.6 L 313.9 66.7 L 311.0 65.9 L 308.4 65.3 L 306.2 64.9 L 304.3 64.5 L 303.2 64.3 L 302.6 64.2 L 302.2 64.2 L 301.8 64.1 L 301.5 64.1 L 301.4 64.0 L 301.3 64.0 L 298.7 64.0 L 298.7 64.0 L 298.7 64.0 L 298.7 64.1 L 298.6 64.1 L 298.4 64.1 L 298.0 64.2 L 297.6 64.3 L 297.1 64.4 L 296.2 64.6 L 294.7 64.9 L 292.5 65.5 L 290.1 66.1 L 287.1 67.0 L 284.2 68.0 L 280.8 69.1 L 277.2 70.5 L 273.5 72.1 L 269.8 73.8 L 265.8 75.8 L 261.5 78.0 L 257.4 80.3 L 253.3 82.9 L 249.0 85.7 L 244.8 88.6 L 240.5 91.8 L 236.1 95.2 L 232.4 98.4 L 228.1 102.2 L 224.4 105.9 L 221.0 109.6 L 217.0 113.8 L 213.6 118.0 L 210.8 121.9 L 207.7 126.3 L 204.3 131.0 L 201.2 135.8 L 199.2 140.0 L 197.4 144.1 L 195.7 148.4 L 194.2 152.8 L 192.9 157.1 L 191.7 161.5 L 190.9 165.8 L 190.0 170.2 L 189.4 174.6 L 189.0 179.0 L 188.7 183.4 L 188.6 187.7 L 188.8 191.9 L 189.0 196.2 L 189.5 200.4 L 190.0 204.8 L 190.8 208.9 L 191.8 212.9 L 193.0 216.8 L 194.2 220.8 L 195.7 224.6 L 197.2 228.5 L 199.0 232.2 L 200.8 235.9 L 202.8 239.4 L 204.9 242.8 L 207.2 246.1 L 209.6 249.4 L 212.1 252.5 L 214.7 255.6 L 217.4 258.5 L 220.2 261.4 L 223.2 264.2 L 226.2 266.8 L 229.3 269.3 L 232.5 271.9 L 235.8 274.0 L 239.1 276.2 L 242.6 278.3 L 246.1 280.2 L 249.7 281.9 L 253.3 283.8 L 257.0 285.4 L 260.7 286.9 L 264.5 288.2 L 268.3 289.4 L 272.2 290.4 L 276.1 291.4 L 280.1 292.0 L 284.0 292.8 L 288.0 293.2 L 292.0 293.9 L 296.0 294.0 L 300.0 294.3 Z" fill="none" stroke="#3FA9F5" stroke-width="1.7" stroke-linejoin="round" stroke-linecap="round"/>
<path d="M 300.0 294.3 L 304.0 294.3 L 308.0 294.3 L 312.1 294.1 L 316.1 293.8 L 320.1 293.4 L 324.0 292.7 L 328.0 292.1 L 331.9 291.3 L 335.8 290.3 L 339.7 289.2 L 343.5 288.0 L 347.3 286.5 L 351.1 285.2 L 354.7 283.5 L 358.3 281.7 L 361.9 279.9 L 365.4 277.9 L 368.8 275.8 L 372.2 273.7 L 375.5 271.4 L 378.7 268.9 L 381.7 266.3 L 384.7 263.6 L 387.6 260.8 L 390.4 257.8 L 393.1 254.8 L 395.6 251.7 L 398.1 248.5 L 400.4 245.1 L 402.6 241.8 L 404.8 238.4 L 406.8 234.9 L 408.6 231.2 L 410.4 227.6 L 411.9 223.8 L 413.4 220.1 L 414.6 216.1 L 415.8 212.3 L 416.8 208.3 L 417.7 204.3 L 418.4 200.2 L 419.0 196.2 L 419.5 192.1 L 419.8 188.1 L 420.0 184.0 L 420.0 179.9 L 419.8 175.7 L 419.6 171.7 L 419.0 167.5 L 418.5 163.4 L 417.6 159.2 L 416.6 155.1 L 415.4 150.9 L 414.0 146.8 L 412.3 142.6 L 410.4 138.5 L 408.3 134.3 L 406.1 130.3 L 403.8 126.4 L 401.2 122.4 L 398.3 118.5 L 391.8 112.8 L 374.8 102.1 L 365.3 95.9 L 362.3 93.0 L 356.8 89.3 L 339.7 80.9 L 333.7 77.6 L 324.1 73.2 L 314.4 69.2 L 311.2 67.8 L 309.4 67.1 L 307.7 66.3 L 306.0 65.7 L 304.6 65.2 L 303.4 64.8 L 302.3 64.5 L 301.6 64.3 L 301.5 64.3 L 301.5 64.3 L 301.5 64.2 L 301.5 64.2 L 301.5 64.2 L 301.5 64.2 L 301.4 64.1 L 301.3 64.1 L 301.2 64.1 L 301.1 64.0 L 301.0 64.0 L 300.9 64.0 L 298.7 64.0 L 298.8 64.0 L 298.8 64.0 L 298.8 64.1 L 298.7 64.1 L 298.7 64.1 L 298.7 64.1 L 298.7 64.2 L 298.7 64.2 L 298.8 64.2 L 298.8 64.2 L 298.8 64.2 L 298.8 64.3 L 298.8 64.3 L 298.8 64.3 L 298.8 64.3 L 298.8 64.3 L 298.8 64.4 L 298.9 64.4 L 298.9 64.4 L 298.9 64.4 L 298.9 64.4 L 298.9 64.4 L 298.9 64.5 L 298.8 64.5 L 298.5 64.7 L 297.9 65.0 L 297.3 65.4 L 296.6 65.8 L 296.0 66.2 L 295.3 66.7 L 294.6 67.2 L 294.0 67.8 L 293.4 68.3 L 292.8 68.9 L 292.2 69.4 L 291.8 70.0 L 291.4 70.5 L 291.1 71.0 L 290.8 71.5 L 290.4 72.0 L 289.8 72.8 L 289.1 73.8 L 274.2 88.1 L 261.2 101.5 L 260.6 103.4 L 260.2 105.2 L 259.8 107.1 L 259.5 109.0 L 259.2 110.9 L 259.0 112.8 L 258.2 115.6 L 248.8 129.5 L 233.0 152.9 L 230.7 159.4 L 231.0 162.5 L 231.5 165.5 L 232.3 168.3 L 233.0 171.1 L 233.9 173.9 L 234.9 176.7 L 236.1 179.4 L 237.2 182.1 L 238.4 184.9 L 236.9 193.4 L 230.3 213.5 L 222.9 237.2 L 222.4 246.8 L 224.7 250.3 L 227.4 253.2 L 230.1 256.1 L 232.9 259.0 L 235.6 262.1 L 238.4 265.3 L 241.2 269.0 L 244.1 272.5 L 247.3 275.4 L 250.6 278.1 L 254.0 280.5 L 257.5 282.8 L 261.1 284.8 L 264.7 286.6 L 268.5 288.0 L 272.3 289.4 L 276.2 290.4 L 280.1 291.4 L 284.0 292.3 L 288.0 293.0 L 292.0 293.6 L 296.0 294.0 L 300.0 294.3 Z" fill="none" stroke="#F32740" stroke-width="2.0" stroke-linejoin="round" stroke-linecap="round"/>
<text x="338" y="132" fill="#F32740" font-size="9.5" font-weight="700">125</text>
<text x="335" y="200" fill="#F32740" font-size="9.5" font-weight="700">250</text>
<text x="335" y="268" fill="#F32740" font-size="9.5" font-weight="700">375</text>
<text x="335" y="336" fill="#F32740" font-size="9.5" font-weight="700">500</text>
<rect x="274.0" y="58" width="52" height="11" rx="1.5" fill="#fafbfc" stroke="rgba(255,255,255,0.4)" stroke-width="0.5"/>
<line x1="272.0" y1="69.8" x2="328.0" y2="69.8" stroke="#F32740" stroke-width="0.7" stroke-dasharray="1.5 2"/>
<text x="300" y="66" text-anchor="middle" fill="#F32740" font-size="8" font-weight="700" letter-spacing="0.5">cd/klm SCALE</text>
<g transform="translate(22, 434)">
<text x="0" y="-8" fill="rgba(255,255,255,0.55)" font-size="8" letter-spacing="1.4">cd/klm</text>
<line x1="0" y1="6" x2="22" y2="6" stroke="#F32740" stroke-width="2.2"/>
<text x="28" y="9" fill="rgba(255,255,255,0.7)" font-size="9.5">C0 – C180</text>
<line x1="120" y1="6" x2="142" y2="6" stroke="#3FA9F5" stroke-width="1.7"/>
<text x="148" y="9" fill="rgba(255,255,255,0.7)" font-size="9.5">C90 – C270</text>
</g>
<text x="578" y="402" fill="rgba(255,255,255,0.45)" font-size="9" text-anchor="end">η = 122 lm/W</text>
<text x="578" y="418" fill="rgba(255,255,255,0.45)" font-size="9" text-anchor="end">4,498 lm · 36.7W</text>
<text x="578" y="434" fill="rgba(255,255,255,0.55)" font-size="8" letter-spacing="1.4" text-anchor="end">PEAK INTENSITY</text>
<text x="578" y="451" fill="#fff" font-weight="700" font-size="14" text-anchor="end">1,905 cd</text>
</svg>