<svg viewBox="0 0 600 460" xmlns="http://www.w3.org/2000/svg" font-family="JetBrains Mono, monospace" font-size="9.5">
<rect width="100%" height="100%" fill="#14171b"/>
<text x="22" y="26" fill="#F32740" font-weight="700" letter-spacing="2">LFLD3W80-3E1-UD-PS-80W-30K_IESNA2002 · 80W · 3000K · FLOOD</text>
<text x="22" y="42" fill="rgba(255,255,255,0.55)" font-size="8" letter-spacing="1.4">LUMINOUS INTENSITY DISTRIBUTION (cd/klm)</text>
<path d="M 232.0 64.0 A 68.0 68.0 0 0 0 368.0 64.0" fill="none" stroke="rgba(120,200,200,0.18)" stroke-width="0.7"/>
<path d="M 164.0 64.0 A 136.0 136.0 0 0 0 436.0 64.0" fill="none" stroke="rgba(120,200,200,0.18)" stroke-width="0.7"/>
<path d="M 96.0 64.0 A 204.0 204.0 0 0 0 504.0 64.0" fill="none" stroke="rgba(120,200,200,0.18)" stroke-width="0.7"/>
<path d="M 28.0 64.0 A 272.0 272.0 0 0 0 572.0 64.0" fill="none" stroke="rgba(120,200,200,0.18)" stroke-width="0.7"/>
<path d="M -40.0 64.0 A 340.0 340.0 0 0 0 640.0 64.0" fill="none" stroke="rgba(120,200,200,0.18)" stroke-width="0.7"/>
<line x1="300.0" y1="64" x2="388.0" y2="392.4" stroke="rgba(120,200,200,0.10)" stroke-width="0.5"/>
<line x1="300.0" y1="64" x2="212.0" y2="392.4" stroke="rgba(120,200,200,0.10)" stroke-width="0.5"/>
<line x1="300.0" y1="64" x2="470.0" y2="358.4" stroke="rgba(120,200,200,0.10)" stroke-width="0.5"/>
<line x1="300.0" y1="64" x2="130.0" y2="358.4" stroke="rgba(120,200,200,0.10)" stroke-width="0.5"/>
<line x1="300.0" y1="64" x2="540.4" y2="304.4" stroke="rgba(120,200,200,0.10)" stroke-width="0.5"/>
<line x1="300.0" y1="64" x2="59.6" y2="304.4" stroke="rgba(120,200,200,0.10)" stroke-width="0.5"/>
<line x1="300.0" y1="64" x2="594.4" y2="234.0" stroke="rgba(120,200,200,0.10)" stroke-width="0.5"/>
<line x1="300.0" y1="64" x2="5.6" y2="234.0" stroke="rgba(120,200,200,0.10)" stroke-width="0.5"/>
<line x1="300.0" y1="64" x2="628.4" y2="152.0" stroke="rgba(120,200,200,0.10)" stroke-width="0.5"/>
<line x1="300.0" y1="64" x2="-28.4" y2="152.0" stroke="rgba(120,200,200,0.10)" stroke-width="0.5"/>
<line x1="300.0" y1="64" x2="640.0" y2="64.0" stroke="rgba(120,200,200,0.10)" stroke-width="0.5"/>
<line x1="300.0" y1="64" x2="-40.0" y2="64.0" stroke="rgba(120,200,200,0.10)" stroke-width="0.5"/>
<line x1="300.0" y1="64" x2="300.0" y2="408" stroke="rgba(120,200,200,0.14)" stroke-width="0.5"/>
<line x1="-40.0" y1="64" x2="640.0" y2="64" stroke="rgba(120,200,200,0.14)" stroke-width="0.5"/>
<text x="391.6" y="408.9" text-anchor="middle" fill="rgba(255,255,255,0.4)" font-size="9">15°</text>
<text x="208.4" y="408.9" text-anchor="middle" fill="rgba(255,255,255,0.4)" font-size="9">15°</text>
<text x="477.0" y="373.6" text-anchor="middle" fill="rgba(255,255,255,0.6)" font-size="9">30°</text>
<text x="123.0" y="373.6" text-anchor="middle" fill="rgba(255,255,255,0.6)" font-size="9">30°</text>
<text x="550.3" y="317.3" text-anchor="middle" fill="rgba(255,255,255,0.4)" font-size="9">45°</text>
<text x="49.7" y="317.3" text-anchor="middle" fill="rgba(255,255,255,0.4)" font-size="9">45°</text>
<text x="606.6" y="244.0" text-anchor="middle" fill="rgba(255,255,255,0.6)" font-size="9">60°</text>
<text x="-6.6" y="244.0" text-anchor="middle" fill="rgba(255,255,255,0.6)" font-size="9">60°</text>
<text x="641.9" y="158.6" text-anchor="middle" fill="rgba(255,255,255,0.4)" font-size="9">75°</text>
<text x="-41.9" y="158.6" text-anchor="middle" fill="rgba(255,255,255,0.4)" font-size="9">75°</text>
<text x="654.0" y="67.0" text-anchor="middle" fill="rgba(255,255,255,0.6)" font-size="9">90°</text>
<text x="-54.0" y="67.0" text-anchor="middle" fill="rgba(255,255,255,0.6)" font-size="9">90°</text>
<text x="300" y="426" text-anchor="middle" fill="rgba(255,255,255,0.6)" font-size="9">0°</text>
<path d="M 300.0 291.0 L 304.0 291.0 L 307.9 291.0 L 311.9 290.5 L 315.8 290.1 L 319.7 289.6 L 323.6 288.8 L 327.5 288.1 L 331.3 287.0 L 335.2 285.9 L 338.9 284.4 L 342.6 283.1 L 346.2 281.6 L 349.9 280.0 L 353.4 278.1 L 356.9 276.2 L 360.3 274.1 L 363.6 272.1 L 366.9 269.9 L 370.1 267.6 L 373.1 265.0 L 376.2 262.5 L 379.1 259.7 L 381.9 256.9 L 384.6 253.9 L 387.2 251.0 L 389.7 248.0 L 392.0 244.6 L 394.4 241.5 L 396.5 238.1 L 398.5 234.6 L 400.5 231.2 L 402.2 227.6 L 403.8 223.9 L 405.3 220.1 L 406.6 216.3 L 407.9 212.5 L 409.1 208.7 L 409.9 204.6 L 410.6 200.6 L 411.2 196.6 L 411.7 192.5 L 411.9 188.3 L 412.1 184.2 L 412.0 180.0 L 411.8 175.8 L 411.4 171.6 L 410.8 167.3 L 410.1 163.1 L 409.2 158.9 L 408.1 154.7 L 406.9 150.6 L 405.5 146.4 L 403.9 142.3 L 402.3 138.3 L 400.5 134.3 L 398.3 130.3 L 396.1 126.4 L 392.9 122.1 L 389.7 117.9 L 386.8 114.1 L 383.9 110.5 L 380.1 106.6 L 376.3 102.9 L 373.1 99.7 L 368.8 96.1 L 364.1 92.6 L 359.1 89.1 L 353.7 85.7 L 348.0 82.4 L 342.6 79.5 L 337.2 76.8 L 332.0 74.4 L 327.0 72.3 L 322.2 70.4 L 317.8 68.8 L 313.4 67.3 L 309.5 66.2 L 306.1 65.3 L 303.4 64.7 L 302.7 64.5 L 302.0 64.3 L 301.6 64.2 L 301.3 64.2 L 301.3 64.1 L 301.4 64.1 L 301.3 64.1 L 301.3 64.1 L 301.3 64.0 L 301.3 64.0 L 301.3 64.0 L 298.8 64.0 L 298.8 64.0 L 298.8 64.0 L 298.8 64.1 L 298.8 64.1 L 298.8 64.1 L 298.8 64.1 L 298.8 64.1 L 298.8 64.2 L 298.7 64.2 L 298.4 64.3 L 297.9 64.4 L 297.3 64.6 L 296.5 64.8 L 293.2 65.7 L 290.0 66.7 L 286.2 68.0 L 282.0 69.5 L 277.7 71.2 L 272.9 73.3 L 268.1 75.6 L 263.0 78.2 L 257.8 81.1 L 252.8 84.0 L 247.2 87.5 L 242.2 91.0 L 236.9 94.8 L 231.8 98.8 L 226.7 103.0 L 221.7 107.4 L 217.6 111.6 L 214.2 115.6 L 211.6 119.3 L 208.7 123.3 L 205.5 127.8 L 202.6 132.2 L 200.6 136.2 L 198.8 140.3 L 197.2 144.3 L 195.8 148.4 L 194.5 152.5 L 193.3 156.8 L 192.3 161.0 L 191.5 165.2 L 190.9 169.3 L 190.4 173.6 L 190.2 177.7 L 189.9 182.0 L 189.8 186.4 L 190.2 190.4 L 190.4 194.6 L 191.0 198.6 L 191.6 202.7 L 192.5 206.7 L 193.4 210.7 L 194.6 214.6 L 195.8 218.5 L 197.3 222.2 L 198.8 225.9 L 200.5 229.6 L 202.3 233.2 L 204.2 236.8 L 206.3 240.2 L 208.5 243.6 L 210.9 246.7 L 213.3 249.9 L 215.9 253.0 L 218.6 255.9 L 221.3 258.7 L 224.2 261.5 L 227.2 264.1 L 230.2 266.7 L 233.4 269.1 L 236.6 271.5 L 239.9 273.6 L 243.3 275.6 L 246.8 277.5 L 250.3 279.3 L 253.9 280.9 L 257.5 282.5 L 261.2 284.0 L 264.9 285.4 L 268.7 286.4 L 272.6 287.5 L 276.4 288.6 L 280.3 289.2 L 284.2 289.8 L 288.1 290.4 L 292.1 290.7 L 296.0 290.9 L 300.0 291.0 Z" fill="none" stroke="#3FA9F5" stroke-width="1.7" stroke-linejoin="round" stroke-linecap="round"/>
<path d="M 300.0 291.0 L 304.0 291.0 L 307.9 290.8 L 311.9 290.8 L 315.8 290.4 L 319.8 290.0 L 323.7 289.1 L 327.6 288.6 L 331.4 287.8 L 335.3 286.8 L 339.1 285.6 L 342.8 284.3 L 346.5 282.8 L 350.2 281.2 L 353.8 279.6 L 357.3 277.9 L 360.8 276.0 L 364.2 273.9 L 367.4 271.5 L 370.7 269.4 L 373.9 267.0 L 377.0 264.5 L 379.9 261.7 L 382.8 259.0 L 385.6 256.3 L 388.3 253.3 L 390.8 250.1 L 393.3 247.1 L 395.7 243.9 L 397.9 240.6 L 399.9 237.1 L 401.9 233.6 L 403.8 230.1 L 405.5 226.4 L 407.0 222.6 L 408.4 218.9 L 409.8 215.1 L 410.8 211.1 L 411.8 207.1 L 412.6 203.1 L 413.3 199.1 L 413.8 194.9 L 414.1 190.7 L 414.2 186.5 L 414.3 182.3 L 414.0 178.0 L 413.7 173.8 L 413.1 169.5 L 412.4 165.2 L 411.6 161.0 L 409.3 155.7 L 402.8 147.2 L 395.0 138.2 L 391.8 133.2 L 389.5 129.0 L 380.0 120.0 L 372.9 113.1 L 370.6 109.9 L 363.1 103.4 L 354.2 96.5 L 351.8 93.9 L 342.2 87.4 L 335.9 83.1 L 332.3 80.5 L 321.9 74.7 L 315.7 71.3 L 309.5 68.2 L 308.4 67.6 L 307.6 67.1 L 306.7 66.6 L 305.7 66.1 L 304.8 65.7 L 303.9 65.3 L 303.0 64.9 L 302.1 64.6 L 301.4 64.4 L 301.3 64.3 L 301.3 64.3 L 301.3 64.3 L 301.3 64.3 L 301.3 64.2 L 301.3 64.2 L 301.2 64.2 L 301.2 64.1 L 301.1 64.1 L 301.0 64.1 L 301.0 64.1 L 301.0 64.1 L 301.0 64.0 L 301.0 64.0 L 301.0 64.0 L 298.8 64.0 L 298.9 64.0 L 298.9 64.0 L 298.8 64.1 L 298.8 64.1 L 298.8 64.1 L 298.8 64.1 L 298.8 64.1 L 298.8 64.2 L 298.8 64.2 L 298.8 64.2 L 298.9 64.2 L 298.9 64.2 L 298.9 64.3 L 298.9 64.3 L 298.9 64.3 L 298.9 64.3 L 299.0 64.3 L 299.0 64.3 L 299.0 64.4 L 299.0 64.4 L 299.0 64.4 L 298.9 64.5 L 298.5 64.6 L 298.0 64.9 L 297.4 65.2 L 296.8 65.6 L 296.2 66.0 L 295.5 66.4 L 294.8 66.9 L 294.1 67.4 L 293.3 68.0 L 292.6 68.6 L 291.9 69.2 L 285.9 73.5 L 281.2 77.1 L 278.7 79.5 L 273.2 84.2 L 267.1 89.7 L 264.2 93.0 L 262.0 95.9 L 254.9 103.2 L 249.8 109.2 L 247.0 113.4 L 244.9 117.2 L 242.9 121.1 L 235.4 130.9 L 231.3 137.7 L 229.2 142.6 L 228.2 146.6 L 227.7 150.1 L 223.4 158.6 L 218.5 168.3 L 215.7 175.8 L 214.8 181.3 L 215.0 185.4 L 215.7 189.0 L 216.0 193.4 L 212.7 203.7 L 210.1 213.6 L 208.4 222.7 L 208.8 228.6 L 210.3 232.8 L 212.2 236.3 L 214.3 239.8 L 216.5 243.1 L 218.8 246.4 L 221.3 249.4 L 223.8 252.5 L 226.5 255.5 L 229.2 258.6 L 232.0 261.5 L 234.9 264.3 L 237.9 267.2 L 241.0 269.9 L 244.2 272.3 L 247.5 274.5 L 250.8 276.9 L 254.3 278.9 L 257.8 280.9 L 261.4 282.8 L 265.1 284.4 L 268.9 285.6 L 272.6 286.8 L 276.5 287.8 L 280.3 288.7 L 284.2 289.3 L 288.2 290.0 L 292.1 290.4 L 296.0 290.8 L 300.0 291.0 Z" fill="none" stroke="#F32740" stroke-width="2.0" stroke-linejoin="round" stroke-linecap="round"/>
<text x="338" y="132" fill="#F32740" font-size="9.5" font-weight="700">125</text>
<text x="335" y="200" fill="#F32740" font-size="9.5" font-weight="700">250</text>
<text x="335" y="268" fill="#F32740" font-size="9.5" font-weight="700">375</text>
<text x="335" y="336" fill="#F32740" font-size="9.5" font-weight="700">500</text>
<rect x="274.0" y="58" width="52" height="11" rx="1.5" fill="#fafbfc" stroke="rgba(255,255,255,0.4)" stroke-width="0.5"/>
<line x1="272.0" y1="69.8" x2="328.0" y2="69.8" stroke="#F32740" stroke-width="0.7" stroke-dasharray="1.5 2"/>
<text x="300" y="66" text-anchor="middle" fill="#F32740" font-size="8" font-weight="700" letter-spacing="0.5">cd/klm SCALE</text>
<g transform="translate(22, 434)">
<text x="0" y="-8" fill="rgba(255,255,255,0.55)" font-size="8" letter-spacing="1.4">cd/klm</text>
<line x1="0" y1="6" x2="22" y2="6" stroke="#F32740" stroke-width="2.2"/>
<text x="28" y="9" fill="rgba(255,255,255,0.7)" font-size="9.5">C0 – C180</text>
<line x1="120" y1="6" x2="142" y2="6" stroke="#3FA9F5" stroke-width="1.7"/>
<text x="148" y="9" fill="rgba(255,255,255,0.7)" font-size="9.5">C90 – C270</text>
</g>
<text x="578" y="402" fill="rgba(255,255,255,0.45)" font-size="9" text-anchor="end">η = 123 lm/W</text>
<text x="578" y="418" fill="rgba(255,255,255,0.45)" font-size="9" text-anchor="end">9,428 lm · 76.5W</text>
<text x="578" y="434" fill="rgba(255,255,255,0.55)" font-size="8" letter-spacing="1.4" text-anchor="end">PEAK INTENSITY</text>
<text x="578" y="451" fill="#fff" font-weight="700" font-size="14" text-anchor="end">3,937 cd</text>
</svg>