<svg viewBox="0 0 600 460" xmlns="http://www.w3.org/2000/svg" font-family="JetBrains Mono, monospace" font-size="9.5">
<rect width="100%" height="100%" fill="#14171b"/>
<text x="22" y="26" fill="#F32740" font-weight="700" letter-spacing="2">LFLD3W35-3E1-UD-PS-35W-30K_IESNA2002 · 35W · 3000K · FLOOD</text>
<text x="22" y="42" fill="rgba(255,255,255,0.55)" font-size="8" letter-spacing="1.4">LUMINOUS INTENSITY DISTRIBUTION (cd/klm)</text>
<path d="M 232.0 64.0 A 68.0 68.0 0 0 0 368.0 64.0" fill="none" stroke="rgba(120,200,200,0.18)" stroke-width="0.7"/>
<path d="M 164.0 64.0 A 136.0 136.0 0 0 0 436.0 64.0" fill="none" stroke="rgba(120,200,200,0.18)" stroke-width="0.7"/>
<path d="M 96.0 64.0 A 204.0 204.0 0 0 0 504.0 64.0" fill="none" stroke="rgba(120,200,200,0.18)" stroke-width="0.7"/>
<path d="M 28.0 64.0 A 272.0 272.0 0 0 0 572.0 64.0" fill="none" stroke="rgba(120,200,200,0.18)" stroke-width="0.7"/>
<path d="M -40.0 64.0 A 340.0 340.0 0 0 0 640.0 64.0" fill="none" stroke="rgba(120,200,200,0.18)" stroke-width="0.7"/>
<line x1="300.0" y1="64" x2="388.0" y2="392.4" stroke="rgba(120,200,200,0.10)" stroke-width="0.5"/>
<line x1="300.0" y1="64" x2="212.0" y2="392.4" stroke="rgba(120,200,200,0.10)" stroke-width="0.5"/>
<line x1="300.0" y1="64" x2="470.0" y2="358.4" stroke="rgba(120,200,200,0.10)" stroke-width="0.5"/>
<line x1="300.0" y1="64" x2="130.0" y2="358.4" stroke="rgba(120,200,200,0.10)" stroke-width="0.5"/>
<line x1="300.0" y1="64" x2="540.4" y2="304.4" stroke="rgba(120,200,200,0.10)" stroke-width="0.5"/>
<line x1="300.0" y1="64" x2="59.6" y2="304.4" stroke="rgba(120,200,200,0.10)" stroke-width="0.5"/>
<line x1="300.0" y1="64" x2="594.4" y2="234.0" stroke="rgba(120,200,200,0.10)" stroke-width="0.5"/>
<line x1="300.0" y1="64" x2="5.6" y2="234.0" stroke="rgba(120,200,200,0.10)" stroke-width="0.5"/>
<line x1="300.0" y1="64" x2="628.4" y2="152.0" stroke="rgba(120,200,200,0.10)" stroke-width="0.5"/>
<line x1="300.0" y1="64" x2="-28.4" y2="152.0" stroke="rgba(120,200,200,0.10)" stroke-width="0.5"/>
<line x1="300.0" y1="64" x2="640.0" y2="64.0" stroke="rgba(120,200,200,0.10)" stroke-width="0.5"/>
<line x1="300.0" y1="64" x2="-40.0" y2="64.0" stroke="rgba(120,200,200,0.10)" stroke-width="0.5"/>
<line x1="300.0" y1="64" x2="300.0" y2="408" stroke="rgba(120,200,200,0.14)" stroke-width="0.5"/>
<line x1="-40.0" y1="64" x2="640.0" y2="64" stroke="rgba(120,200,200,0.14)" stroke-width="0.5"/>
<text x="391.6" y="408.9" text-anchor="middle" fill="rgba(255,255,255,0.4)" font-size="9">15°</text>
<text x="208.4" y="408.9" text-anchor="middle" fill="rgba(255,255,255,0.4)" font-size="9">15°</text>
<text x="477.0" y="373.6" text-anchor="middle" fill="rgba(255,255,255,0.6)" font-size="9">30°</text>
<text x="123.0" y="373.6" text-anchor="middle" fill="rgba(255,255,255,0.6)" font-size="9">30°</text>
<text x="550.3" y="317.3" text-anchor="middle" fill="rgba(255,255,255,0.4)" font-size="9">45°</text>
<text x="49.7" y="317.3" text-anchor="middle" fill="rgba(255,255,255,0.4)" font-size="9">45°</text>
<text x="606.6" y="244.0" text-anchor="middle" fill="rgba(255,255,255,0.6)" font-size="9">60°</text>
<text x="-6.6" y="244.0" text-anchor="middle" fill="rgba(255,255,255,0.6)" font-size="9">60°</text>
<text x="641.9" y="158.6" text-anchor="middle" fill="rgba(255,255,255,0.4)" font-size="9">75°</text>
<text x="-41.9" y="158.6" text-anchor="middle" fill="rgba(255,255,255,0.4)" font-size="9">75°</text>
<text x="654.0" y="67.0" text-anchor="middle" fill="rgba(255,255,255,0.6)" font-size="9">90°</text>
<text x="-54.0" y="67.0" text-anchor="middle" fill="rgba(255,255,255,0.6)" font-size="9">90°</text>
<text x="300" y="426" text-anchor="middle" fill="rgba(255,255,255,0.6)" font-size="9">0°</text>
<path d="M 300.0 293.4 L 304.0 293.3 L 308.0 293.2 L 312.0 293.0 L 316.0 292.7 L 320.0 292.2 L 323.9 291.4 L 327.8 290.8 L 331.7 289.7 L 335.6 288.7 L 339.4 287.6 L 343.2 286.5 L 347.0 285.1 L 350.6 283.4 L 354.3 281.6 L 357.8 279.8 L 361.3 277.7 L 364.6 275.4 L 368.0 273.2 L 371.3 271.0 L 374.4 268.5 L 377.6 266.0 L 380.5 263.4 L 383.5 260.7 L 386.3 257.8 L 389.0 254.9 L 391.6 251.7 L 394.1 248.7 L 396.4 245.2 L 398.5 241.8 L 400.6 238.3 L 402.6 234.7 L 404.4 231.0 L 406.0 227.3 L 407.5 223.4 L 409.0 219.7 L 410.4 215.9 L 411.5 212.0 L 412.5 207.9 L 413.3 203.9 L 413.8 199.7 L 414.3 195.5 L 414.6 191.3 L 414.7 187.0 L 414.5 182.6 L 414.3 178.3 L 413.9 174.0 L 413.5 169.8 L 412.7 165.5 L 411.6 161.0 L 410.4 156.6 L 409.2 152.4 L 407.5 148.0 L 405.9 143.8 L 403.4 139.1 L 400.3 134.2 L 397.6 129.8 L 395.5 126.0 L 393.2 122.2 L 390.5 118.4 L 386.4 113.9 L 382.1 109.5 L 378.9 105.9 L 376.0 102.7 L 372.7 99.4 L 367.7 95.6 L 363.8 92.4 L 360.5 89.7 L 356.1 86.7 L 351.4 83.7 L 347.9 81.4 L 343.4 78.9 L 339.6 76.9 L 335.5 74.9 L 331.4 73.0 L 327.2 71.3 L 323.7 69.9 L 320.2 68.7 L 316.9 67.6 L 313.8 66.7 L 311.1 66.0 L 308.5 65.3 L 306.2 64.9 L 304.3 64.5 L 303.3 64.4 L 302.7 64.2 L 302.0 64.1 L 301.4 64.1 L 301.2 64.0 L 301.3 64.0 L 301.3 64.0 L 298.8 64.0 L 298.8 64.0 L 298.8 64.0 L 298.8 64.1 L 298.8 64.1 L 298.8 64.1 L 298.8 64.1 L 298.7 64.2 L 298.2 64.2 L 297.6 64.4 L 296.7 64.6 L 295.2 64.9 L 291.9 65.7 L 287.9 66.8 L 283.9 68.0 L 280.1 69.3 L 276.6 70.7 L 273.0 72.2 L 269.4 73.9 L 265.5 75.9 L 261.7 78.0 L 257.4 80.4 L 253.5 82.8 L 249.9 85.3 L 245.2 88.4 L 241.4 91.3 L 238.0 94.2 L 233.7 97.8 L 229.5 101.5 L 226.2 104.9 L 223.2 108.4 L 219.6 112.3 L 215.3 117.0 L 212.2 121.0 L 209.6 124.9 L 207.6 128.7 L 205.4 132.8 L 202.4 137.5 L 200.2 142.0 L 198.4 146.3 L 196.7 150.7 L 195.3 155.0 L 194.1 159.3 L 193.1 163.7 L 192.2 168.1 L 191.7 172.3 L 191.3 176.6 L 190.9 181.0 L 190.6 185.5 L 190.6 189.8 L 190.9 194.0 L 191.3 198.2 L 191.8 202.5 L 192.4 206.8 L 193.4 210.8 L 194.5 214.7 L 195.7 218.7 L 196.9 222.7 L 198.4 226.5 L 200.2 230.2 L 202.0 233.8 L 203.8 237.6 L 205.9 240.9 L 208.1 244.3 L 210.4 247.7 L 212.8 251.1 L 215.4 254.1 L 218.0 257.1 L 220.8 260.0 L 223.6 263.0 L 226.6 265.7 L 229.7 268.2 L 232.9 270.6 L 236.1 273.0 L 239.5 274.9 L 242.9 277.1 L 246.4 279.0 L 249.9 281.0 L 253.5 282.8 L 257.1 284.4 L 260.9 285.8 L 264.6 287.3 L 268.4 288.6 L 272.3 289.7 L 276.2 290.6 L 280.1 291.7 L 284.0 292.4 L 288.0 292.9 L 292.0 293.0 L 296.0 293.3 L 300.0 293.4 Z" fill="none" stroke="#3FA9F5" stroke-width="1.7" stroke-linejoin="round" stroke-linecap="round"/>
<path d="M 300.0 293.4 L 304.0 293.4 L 308.0 293.2 L 312.0 292.7 L 316.0 292.4 L 319.9 291.8 L 323.9 291.1 L 327.8 290.1 L 331.6 289.1 L 335.5 288.0 L 339.3 286.7 L 342.9 284.9 L 346.6 283.2 L 350.2 281.4 L 353.7 279.6 L 357.1 277.2 L 360.5 274.8 L 363.7 272.4 L 366.8 269.7 L 369.8 266.7 L 372.7 263.8 L 375.6 260.9 L 378.5 258.2 L 381.2 255.2 L 383.9 252.4 L 386.5 249.5 L 389.0 246.5 L 391.3 243.3 L 393.6 240.0 L 395.7 236.6 L 397.6 233.0 L 399.3 229.3 L 400.4 224.7 L 399.8 217.6 L 397.6 208.6 L 393.7 197.9 L 386.5 183.1 L 379.8 169.9 L 377.3 162.9 L 377.4 159.6 L 377.6 156.5 L 377.9 153.6 L 378.0 150.7 L 377.9 147.5 L 376.2 142.9 L 371.9 135.9 L 368.5 130.2 L 362.3 122.1 L 350.5 109.4 L 345.8 103.8 L 345.1 101.8 L 344.4 99.9 L 343.5 98.0 L 339.3 93.6 L 334.7 89.2 L 329.9 84.9 L 316.0 74.8 L 313.7 72.9 L 311.4 71.1 L 310.6 70.4 L 309.7 69.6 L 308.7 68.8 L 307.7 68.1 L 306.8 67.5 L 306.0 66.9 L 305.1 66.4 L 304.3 65.9 L 303.6 65.5 L 302.9 65.2 L 302.2 64.9 L 301.6 64.6 L 301.2 64.4 L 301.0 64.3 L 301.0 64.3 L 300.9 64.3 L 300.9 64.3 L 301.0 64.2 L 301.0 64.2 L 301.0 64.2 L 301.0 64.2 L 301.0 64.2 L 301.0 64.2 L 301.0 64.1 L 301.0 64.1 L 301.1 64.1 L 301.1 64.1 L 301.1 64.1 L 301.1 64.1 L 301.1 64.0 L 301.1 64.0 L 301.1 64.0 L 299.0 64.0 L 299.0 64.0 L 299.0 64.0 L 299.0 64.1 L 299.0 64.1 L 299.0 64.1 L 298.9 64.1 L 298.9 64.1 L 298.8 64.2 L 298.7 64.2 L 298.7 64.2 L 298.7 64.2 L 298.7 64.3 L 298.7 64.3 L 298.5 64.4 L 297.9 64.6 L 297.0 64.9 L 296.1 65.2 L 295.0 65.6 L 293.9 66.1 L 292.7 66.7 L 291.5 67.3 L 290.4 67.9 L 289.5 68.4 L 288.4 69.1 L 280.8 72.9 L 273.3 77.0 L 265.9 81.4 L 258.5 86.1 L 242.7 95.8 L 240.1 98.6 L 238.1 101.2 L 236.3 103.8 L 234.5 106.5 L 232.8 109.3 L 231.4 112.1 L 230.0 114.8 L 228.7 117.7 L 227.5 120.7 L 226.4 123.6 L 225.5 126.5 L 224.2 129.9 L 220.5 135.6 L 214.1 144.1 L 206.9 153.9 L 200.2 163.8 L 194.9 172.8 L 192.2 179.6 L 191.6 184.4 L 191.6 188.7 L 191.9 192.8 L 192.4 196.9 L 192.9 201.1 L 193.4 205.4 L 194.1 209.8 L 195.0 214.0 L 196.0 218.2 L 197.2 222.2 L 198.6 226.3 L 200.1 230.2 L 201.9 233.9 L 203.8 237.5 L 205.7 241.3 L 207.9 244.8 L 210.2 248.1 L 212.7 251.3 L 215.1 254.6 L 217.8 257.6 L 220.6 260.5 L 223.5 263.2 L 226.5 266.0 L 229.6 268.6 L 232.7 271.0 L 236.0 273.3 L 239.3 275.7 L 242.7 277.9 L 246.2 279.9 L 249.7 281.7 L 253.3 283.6 L 257.0 285.3 L 260.7 286.9 L 264.5 288.0 L 268.3 289.3 L 272.2 290.2 L 276.1 291.2 L 280.1 291.7 L 284.0 292.4 L 288.0 292.9 L 292.0 293.2 L 296.0 293.2 L 300.0 293.4 Z" fill="none" stroke="#F32740" stroke-width="2.0" stroke-linejoin="round" stroke-linecap="round"/>
<text x="338" y="132" fill="#F32740" font-size="9.5" font-weight="700">125</text>
<text x="335" y="200" fill="#F32740" font-size="9.5" font-weight="700">250</text>
<text x="335" y="268" fill="#F32740" font-size="9.5" font-weight="700">375</text>
<text x="335" y="336" fill="#F32740" font-size="9.5" font-weight="700">500</text>
<rect x="274.0" y="58" width="52" height="11" rx="1.5" fill="#fafbfc" stroke="rgba(255,255,255,0.4)" stroke-width="0.5"/>
<line x1="272.0" y1="69.8" x2="328.0" y2="69.8" stroke="#F32740" stroke-width="0.7" stroke-dasharray="1.5 2"/>
<text x="300" y="66" text-anchor="middle" fill="#F32740" font-size="8" font-weight="700" letter-spacing="0.5">cd/klm SCALE</text>
<g transform="translate(22, 434)">
<text x="0" y="-8" fill="rgba(255,255,255,0.55)" font-size="8" letter-spacing="1.4">cd/klm</text>
<line x1="0" y1="6" x2="22" y2="6" stroke="#F32740" stroke-width="2.2"/>
<text x="28" y="9" fill="rgba(255,255,255,0.7)" font-size="9.5">C0 – C180</text>
<line x1="120" y1="6" x2="142" y2="6" stroke="#3FA9F5" stroke-width="1.7"/>
<text x="148" y="9" fill="rgba(255,255,255,0.7)" font-size="9.5">C90 – C270</text>
</g>
<text x="578" y="402" fill="rgba(255,255,255,0.45)" font-size="9" text-anchor="end">η = 119 lm/W</text>
<text x="578" y="418" fill="rgba(255,255,255,0.45)" font-size="9" text-anchor="end">4,358 lm · 36.6W</text>
<text x="578" y="434" fill="rgba(255,255,255,0.55)" font-size="8" letter-spacing="1.4" text-anchor="end">PEAK INTENSITY</text>
<text x="578" y="451" fill="#fff" font-weight="700" font-size="14" text-anchor="end">1,838 cd</text>
</svg>