<svg viewBox="0 0 600 460" xmlns="http://www.w3.org/2000/svg" font-family="JetBrains Mono, monospace" font-size="9.5">
<rect width="100%" height="100%" fill="#14171b"/>
<text x="22" y="26" fill="#F32740" font-weight="700" letter-spacing="2">LFLD3W80-3E1-UD-PS-35W-40K_IESNA2002 · 35W · 4000K · FLOOD</text>
<text x="22" y="42" fill="rgba(255,255,255,0.55)" font-size="8" letter-spacing="1.4">LUMINOUS INTENSITY DISTRIBUTION (cd/klm)</text>
<path d="M 232.0 64.0 A 68.0 68.0 0 0 0 368.0 64.0" fill="none" stroke="rgba(120,200,200,0.18)" stroke-width="0.7"/>
<path d="M 164.0 64.0 A 136.0 136.0 0 0 0 436.0 64.0" fill="none" stroke="rgba(120,200,200,0.18)" stroke-width="0.7"/>
<path d="M 96.0 64.0 A 204.0 204.0 0 0 0 504.0 64.0" fill="none" stroke="rgba(120,200,200,0.18)" stroke-width="0.7"/>
<path d="M 28.0 64.0 A 272.0 272.0 0 0 0 572.0 64.0" fill="none" stroke="rgba(120,200,200,0.18)" stroke-width="0.7"/>
<path d="M -40.0 64.0 A 340.0 340.0 0 0 0 640.0 64.0" fill="none" stroke="rgba(120,200,200,0.18)" stroke-width="0.7"/>
<line x1="300.0" y1="64" x2="388.0" y2="392.4" stroke="rgba(120,200,200,0.10)" stroke-width="0.5"/>
<line x1="300.0" y1="64" x2="212.0" y2="392.4" stroke="rgba(120,200,200,0.10)" stroke-width="0.5"/>
<line x1="300.0" y1="64" x2="470.0" y2="358.4" stroke="rgba(120,200,200,0.10)" stroke-width="0.5"/>
<line x1="300.0" y1="64" x2="130.0" y2="358.4" stroke="rgba(120,200,200,0.10)" stroke-width="0.5"/>
<line x1="300.0" y1="64" x2="540.4" y2="304.4" stroke="rgba(120,200,200,0.10)" stroke-width="0.5"/>
<line x1="300.0" y1="64" x2="59.6" y2="304.4" stroke="rgba(120,200,200,0.10)" stroke-width="0.5"/>
<line x1="300.0" y1="64" x2="594.4" y2="234.0" stroke="rgba(120,200,200,0.10)" stroke-width="0.5"/>
<line x1="300.0" y1="64" x2="5.6" y2="234.0" stroke="rgba(120,200,200,0.10)" stroke-width="0.5"/>
<line x1="300.0" y1="64" x2="628.4" y2="152.0" stroke="rgba(120,200,200,0.10)" stroke-width="0.5"/>
<line x1="300.0" y1="64" x2="-28.4" y2="152.0" stroke="rgba(120,200,200,0.10)" stroke-width="0.5"/>
<line x1="300.0" y1="64" x2="640.0" y2="64.0" stroke="rgba(120,200,200,0.10)" stroke-width="0.5"/>
<line x1="300.0" y1="64" x2="-40.0" y2="64.0" stroke="rgba(120,200,200,0.10)" stroke-width="0.5"/>
<line x1="300.0" y1="64" x2="300.0" y2="408" stroke="rgba(120,200,200,0.14)" stroke-width="0.5"/>
<line x1="-40.0" y1="64" x2="640.0" y2="64" stroke="rgba(120,200,200,0.14)" stroke-width="0.5"/>
<text x="391.6" y="408.9" text-anchor="middle" fill="rgba(255,255,255,0.4)" font-size="9">15°</text>
<text x="208.4" y="408.9" text-anchor="middle" fill="rgba(255,255,255,0.4)" font-size="9">15°</text>
<text x="477.0" y="373.6" text-anchor="middle" fill="rgba(255,255,255,0.6)" font-size="9">30°</text>
<text x="123.0" y="373.6" text-anchor="middle" fill="rgba(255,255,255,0.6)" font-size="9">30°</text>
<text x="550.3" y="317.3" text-anchor="middle" fill="rgba(255,255,255,0.4)" font-size="9">45°</text>
<text x="49.7" y="317.3" text-anchor="middle" fill="rgba(255,255,255,0.4)" font-size="9">45°</text>
<text x="606.6" y="244.0" text-anchor="middle" fill="rgba(255,255,255,0.6)" font-size="9">60°</text>
<text x="-6.6" y="244.0" text-anchor="middle" fill="rgba(255,255,255,0.6)" font-size="9">60°</text>
<text x="641.9" y="158.6" text-anchor="middle" fill="rgba(255,255,255,0.4)" font-size="9">75°</text>
<text x="-41.9" y="158.6" text-anchor="middle" fill="rgba(255,255,255,0.4)" font-size="9">75°</text>
<text x="654.0" y="67.0" text-anchor="middle" fill="rgba(255,255,255,0.6)" font-size="9">90°</text>
<text x="-54.0" y="67.0" text-anchor="middle" fill="rgba(255,255,255,0.6)" font-size="9">90°</text>
<text x="300" y="426" text-anchor="middle" fill="rgba(255,255,255,0.6)" font-size="9">0°</text>
<path d="M 300.0 290.5 L 304.0 290.4 L 307.9 290.3 L 311.8 289.9 L 315.8 289.6 L 319.7 289.0 L 323.6 288.4 L 327.5 287.7 L 331.3 286.7 L 335.1 285.5 L 338.9 284.4 L 342.6 283.2 L 346.2 281.6 L 349.8 279.7 L 353.4 278.3 L 356.9 276.5 L 360.4 274.5 L 363.7 272.3 L 367.0 270.4 L 370.2 268.0 L 373.3 265.5 L 376.4 262.9 L 379.3 260.3 L 382.2 257.6 L 385.0 254.9 L 387.7 252.1 L 390.1 248.8 L 392.6 245.7 L 395.0 242.7 L 397.2 239.3 L 399.2 235.9 L 401.2 232.4 L 403.0 228.9 L 404.7 225.2 L 406.1 221.3 L 407.5 217.5 L 408.9 213.8 L 410.0 209.9 L 410.8 205.9 L 411.6 201.8 L 412.3 197.9 L 412.9 193.9 L 413.0 189.5 L 413.3 185.5 L 413.2 181.2 L 413.1 177.1 L 412.7 172.8 L 412.1 168.6 L 411.5 164.4 L 410.7 160.2 L 409.6 156.0 L 408.4 151.8 L 407.0 147.6 L 405.6 143.6 L 403.9 139.5 L 402.0 135.4 L 400.0 131.4 L 397.7 127.5 L 394.6 123.1 L 391.2 118.8 L 388.5 115.1 L 385.6 111.5 L 381.8 107.5 L 378.0 103.7 L 374.8 100.5 L 370.7 97.0 L 366.7 93.7 L 363.1 90.8 L 358.6 87.7 L 354.7 85.0 L 349.7 82.1 L 344.6 79.4 L 339.2 76.8 L 333.9 74.4 L 328.8 72.3 L 323.7 70.3 L 319.1 68.8 L 314.9 67.4 L 311.0 66.3 L 307.5 65.5 L 304.5 64.8 L 302.9 64.5 L 302.2 64.3 L 301.7 64.2 L 301.4 64.1 L 301.2 64.1 L 301.3 64.1 L 301.3 64.1 L 301.3 64.0 L 301.3 64.0 L 301.3 64.0 L 298.7 64.0 L 298.8 64.0 L 298.8 64.0 L 298.8 64.1 L 298.8 64.1 L 298.8 64.1 L 298.8 64.1 L 298.8 64.1 L 298.8 64.2 L 298.7 64.2 L 298.4 64.3 L 297.9 64.4 L 297.3 64.6 L 296.4 64.8 L 293.5 65.6 L 289.8 66.7 L 286.1 68.0 L 282.0 69.5 L 277.7 71.2 L 272.9 73.3 L 268.1 75.6 L 263.1 78.2 L 257.9 81.0 L 252.9 84.0 L 247.5 87.4 L 242.3 90.9 L 236.9 94.8 L 231.7 98.8 L 226.8 102.9 L 222.0 107.2 L 218.0 111.3 L 214.5 115.4 L 211.9 119.1 L 209.2 123.0 L 206.0 127.4 L 203.1 131.8 L 201.1 135.8 L 199.3 139.9 L 197.8 143.9 L 196.2 148.1 L 195.0 152.1 L 193.8 156.3 L 193.0 160.4 L 192.1 164.7 L 191.5 168.8 L 190.9 173.1 L 190.7 177.2 L 190.4 181.6 L 190.5 185.6 L 190.6 189.8 L 190.9 194.1 L 191.5 198.0 L 192.0 202.2 L 192.8 206.3 L 193.9 210.0 L 195.0 214.0 L 196.1 218.1 L 197.5 221.8 L 199.1 225.4 L 200.9 229.0 L 202.6 232.7 L 204.5 236.2 L 206.7 239.5 L 208.9 242.8 L 211.2 246.0 L 213.6 249.2 L 216.2 252.2 L 218.9 255.1 L 221.7 257.8 L 224.5 260.7 L 227.4 263.4 L 230.6 265.7 L 233.7 268.2 L 236.9 270.5 L 240.2 272.6 L 243.5 274.8 L 247.0 276.5 L 250.4 278.6 L 254.0 280.3 L 257.7 281.7 L 261.4 283.1 L 265.1 284.6 L 268.9 285.6 L 272.7 286.7 L 276.5 287.6 L 280.4 288.5 L 284.3 289.1 L 288.2 289.8 L 292.1 289.9 L 296.1 290.2 L 300.0 290.5 Z" fill="none" stroke="#3FA9F5" stroke-width="1.7" stroke-linejoin="round" stroke-linecap="round"/>
<path d="M 300.0 290.5 L 304.0 290.6 L 307.9 290.3 L 311.9 290.2 L 315.8 289.6 L 319.7 289.5 L 323.6 288.9 L 327.5 288.1 L 331.4 287.3 L 335.2 286.3 L 339.0 285.1 L 342.7 283.8 L 346.4 282.4 L 350.1 281.1 L 353.7 279.3 L 357.2 277.6 L 360.6 275.5 L 364.1 273.7 L 367.5 271.7 L 370.8 269.6 L 373.9 267.1 L 377.0 264.6 L 380.0 262.0 L 382.9 259.3 L 385.7 256.5 L 388.4 253.7 L 391.1 250.7 L 393.6 247.8 L 396.0 244.5 L 398.2 241.1 L 400.3 237.8 L 402.3 234.3 L 404.2 230.8 L 405.9 227.1 L 407.5 223.4 L 409.0 219.6 L 410.3 215.8 L 411.5 211.9 L 412.6 208.1 L 413.5 204.2 L 414.1 200.0 L 414.7 195.9 L 415.1 191.8 L 415.4 187.8 L 415.5 183.6 L 415.3 179.3 L 415.1 175.2 L 414.7 171.0 L 413.9 166.6 L 413.3 162.5 L 411.6 157.7 L 408.0 151.4 L 403.2 144.6 L 397.7 137.6 L 392.5 131.2 L 386.3 124.5 L 381.0 118.6 L 374.0 112.1 L 368.0 106.5 L 362.3 101.4 L 354.8 95.6 L 347.8 90.5 L 341.5 86.0 L 334.7 81.7 L 327.9 77.6 L 321.0 73.8 L 314.6 70.5 L 309.4 68.0 L 308.4 67.4 L 307.3 66.8 L 306.1 66.2 L 305.1 65.7 L 304.0 65.3 L 303.1 64.9 L 302.2 64.6 L 301.5 64.4 L 301.3 64.3 L 301.3 64.3 L 301.3 64.3 L 301.3 64.3 L 301.3 64.2 L 301.3 64.2 L 301.2 64.2 L 301.2 64.1 L 301.1 64.1 L 301.0 64.1 L 301.0 64.1 L 301.0 64.1 L 301.0 64.0 L 301.0 64.0 L 301.0 64.0 L 298.8 64.0 L 298.8 64.0 L 298.8 64.0 L 298.8 64.1 L 298.8 64.1 L 298.8 64.1 L 298.8 64.1 L 298.8 64.1 L 298.8 64.2 L 298.8 64.2 L 298.8 64.2 L 298.8 64.2 L 298.9 64.2 L 298.9 64.3 L 298.9 64.3 L 298.9 64.3 L 298.9 64.3 L 298.9 64.3 L 299.0 64.3 L 299.0 64.4 L 299.0 64.4 L 299.0 64.4 L 298.9 64.5 L 298.5 64.6 L 298.0 64.9 L 297.4 65.2 L 296.9 65.5 L 296.3 65.9 L 295.6 66.3 L 295.0 66.8 L 294.3 67.3 L 293.6 67.8 L 293.0 68.4 L 290.7 70.0 L 288.5 71.7 L 286.3 73.6 L 281.4 77.5 L 277.1 81.2 L 273.0 85.1 L 268.1 89.9 L 264.4 93.9 L 259.8 99.0 L 256.3 103.4 L 252.1 108.6 L 248.1 114.1 L 245.2 118.8 L 240.7 125.4 L 238.2 130.3 L 235.0 136.2 L 231.5 142.8 L 229.5 148.0 L 226.7 154.5 L 224.1 161.2 L 222.8 166.4 L 221.4 172.2 L 218.8 180.0 L 217.6 186.2 L 217.2 191.5 L 215.9 198.6 L 215.1 205.4 L 215.0 211.2 L 215.4 216.6 L 215.1 223.6 L 215.0 230.8 L 215.5 237.2 L 217.0 242.0 L 219.2 245.5 L 221.7 248.6 L 224.2 251.7 L 226.8 254.7 L 229.5 257.6 L 232.2 260.8 L 235.1 263.8 L 238.1 266.6 L 241.2 269.2 L 244.3 271.7 L 247.6 274.0 L 251.0 276.4 L 254.4 278.4 L 257.9 280.3 L 261.5 282.4 L 265.2 283.8 L 268.9 285.3 L 272.7 286.2 L 276.5 287.2 L 280.4 288.1 L 284.3 288.7 L 288.2 289.5 L 292.1 290.2 L 296.1 290.2 L 300.0 290.5 Z" fill="none" stroke="#F32740" stroke-width="2.0" stroke-linejoin="round" stroke-linecap="round"/>
<text x="338" y="132" fill="#F32740" font-size="9.5" font-weight="700">125</text>
<text x="335" y="200" fill="#F32740" font-size="9.5" font-weight="700">250</text>
<text x="335" y="268" fill="#F32740" font-size="9.5" font-weight="700">375</text>
<text x="335" y="336" fill="#F32740" font-size="9.5" font-weight="700">500</text>
<rect x="274.0" y="58" width="52" height="11" rx="1.5" fill="#fafbfc" stroke="rgba(255,255,255,0.4)" stroke-width="0.5"/>
<line x1="272.0" y1="69.8" x2="328.0" y2="69.8" stroke="#F32740" stroke-width="0.7" stroke-dasharray="1.5 2"/>
<text x="300" y="66" text-anchor="middle" fill="#F32740" font-size="8" font-weight="700" letter-spacing="0.5">cd/klm SCALE</text>
<g transform="translate(22, 434)">
<text x="0" y="-8" fill="rgba(255,255,255,0.55)" font-size="8" letter-spacing="1.4">cd/klm</text>
<line x1="0" y1="6" x2="22" y2="6" stroke="#F32740" stroke-width="2.2"/>
<text x="28" y="9" fill="rgba(255,255,255,0.7)" font-size="9.5">C0 – C180</text>
<line x1="120" y1="6" x2="142" y2="6" stroke="#3FA9F5" stroke-width="1.7"/>
<text x="148" y="9" fill="rgba(255,255,255,0.7)" font-size="9.5">C90 – C270</text>
</g>
<text x="578" y="402" fill="rgba(255,255,255,0.45)" font-size="9" text-anchor="end">η = 157 lm/W</text>
<text x="578" y="418" fill="rgba(255,255,255,0.45)" font-size="9" text-anchor="end">5,621 lm · 35.8W</text>
<text x="578" y="434" fill="rgba(255,255,255,0.55)" font-size="8" letter-spacing="1.4" text-anchor="end">PEAK INTENSITY</text>
<text x="578" y="451" fill="#fff" font-weight="700" font-size="14" text-anchor="end">2,342 cd</text>
</svg>