<svg viewBox="0 0 600 460" xmlns="http://www.w3.org/2000/svg" font-family="JetBrains Mono, monospace" font-size="9.5">
<rect width="100%" height="100%" fill="#14171b"/>
<text x="22" y="26" fill="#F32740" font-weight="700" letter-spacing="2">LWPC60-S3N2-UD-BA-PSB_BA45_LV1-60W_4000K · 0W · — · FULL CUTOFF</text>
<text x="22" y="42" fill="rgba(255,255,255,0.55)" font-size="8" letter-spacing="1.4">LUMINOUS INTENSITY DISTRIBUTION (cd/klm)</text>
<path d="M 232.0 64.0 A 68.0 68.0 0 0 0 368.0 64.0" fill="none" stroke="rgba(120,200,200,0.18)" stroke-width="0.7"/>
<path d="M 164.0 64.0 A 136.0 136.0 0 0 0 436.0 64.0" fill="none" stroke="rgba(120,200,200,0.18)" stroke-width="0.7"/>
<path d="M 96.0 64.0 A 204.0 204.0 0 0 0 504.0 64.0" fill="none" stroke="rgba(120,200,200,0.18)" stroke-width="0.7"/>
<path d="M 28.0 64.0 A 272.0 272.0 0 0 0 572.0 64.0" fill="none" stroke="rgba(120,200,200,0.18)" stroke-width="0.7"/>
<path d="M -40.0 64.0 A 340.0 340.0 0 0 0 640.0 64.0" fill="none" stroke="rgba(120,200,200,0.18)" stroke-width="0.7"/>
<line x1="300.0" y1="64" x2="388.0" y2="392.4" stroke="rgba(120,200,200,0.10)" stroke-width="0.5"/>
<line x1="300.0" y1="64" x2="212.0" y2="392.4" stroke="rgba(120,200,200,0.10)" stroke-width="0.5"/>
<line x1="300.0" y1="64" x2="470.0" y2="358.4" stroke="rgba(120,200,200,0.10)" stroke-width="0.5"/>
<line x1="300.0" y1="64" x2="130.0" y2="358.4" stroke="rgba(120,200,200,0.10)" stroke-width="0.5"/>
<line x1="300.0" y1="64" x2="540.4" y2="304.4" stroke="rgba(120,200,200,0.10)" stroke-width="0.5"/>
<line x1="300.0" y1="64" x2="59.6" y2="304.4" stroke="rgba(120,200,200,0.10)" stroke-width="0.5"/>
<line x1="300.0" y1="64" x2="594.4" y2="234.0" stroke="rgba(120,200,200,0.10)" stroke-width="0.5"/>
<line x1="300.0" y1="64" x2="5.6" y2="234.0" stroke="rgba(120,200,200,0.10)" stroke-width="0.5"/>
<line x1="300.0" y1="64" x2="628.4" y2="152.0" stroke="rgba(120,200,200,0.10)" stroke-width="0.5"/>
<line x1="300.0" y1="64" x2="-28.4" y2="152.0" stroke="rgba(120,200,200,0.10)" stroke-width="0.5"/>
<line x1="300.0" y1="64" x2="640.0" y2="64.0" stroke="rgba(120,200,200,0.10)" stroke-width="0.5"/>
<line x1="300.0" y1="64" x2="-40.0" y2="64.0" stroke="rgba(120,200,200,0.10)" stroke-width="0.5"/>
<line x1="300.0" y1="64" x2="300.0" y2="408" stroke="rgba(120,200,200,0.14)" stroke-width="0.5"/>
<line x1="-40.0" y1="64" x2="640.0" y2="64" stroke="rgba(120,200,200,0.14)" stroke-width="0.5"/>
<text x="391.6" y="408.9" text-anchor="middle" fill="rgba(255,255,255,0.4)" font-size="9">15°</text>
<text x="208.4" y="408.9" text-anchor="middle" fill="rgba(255,255,255,0.4)" font-size="9">15°</text>
<text x="477.0" y="373.6" text-anchor="middle" fill="rgba(255,255,255,0.6)" font-size="9">30°</text>
<text x="123.0" y="373.6" text-anchor="middle" fill="rgba(255,255,255,0.6)" font-size="9">30°</text>
<text x="550.3" y="317.3" text-anchor="middle" fill="rgba(255,255,255,0.4)" font-size="9">45°</text>
<text x="49.7" y="317.3" text-anchor="middle" fill="rgba(255,255,255,0.4)" font-size="9">45°</text>
<text x="606.6" y="244.0" text-anchor="middle" fill="rgba(255,255,255,0.6)" font-size="9">60°</text>
<text x="-6.6" y="244.0" text-anchor="middle" fill="rgba(255,255,255,0.6)" font-size="9">60°</text>
<text x="641.9" y="158.6" text-anchor="middle" fill="rgba(255,255,255,0.4)" font-size="9">75°</text>
<text x="-41.9" y="158.6" text-anchor="middle" fill="rgba(255,255,255,0.4)" font-size="9">75°</text>
<text x="654.0" y="67.0" text-anchor="middle" fill="rgba(255,255,255,0.6)" font-size="9">90°</text>
<text x="-54.0" y="67.0" text-anchor="middle" fill="rgba(255,255,255,0.6)" font-size="9">90°</text>
<text x="300" y="426" text-anchor="middle" fill="rgba(255,255,255,0.6)" font-size="9">0°</text>
<path d="M 300.0 145.7 L 301.4 145.5 L 302.8 145.2 L 304.2 145.0 L 305.7 144.8 L 307.1 144.6 L 308.4 144.3 L 309.8 143.9 L 311.2 143.4 L 312.5 142.9 L 313.8 142.4 L 315.1 141.8 L 316.4 141.1 L 317.7 140.5 L 318.9 139.9 L 320.1 139.2 L 321.3 138.2 L 322.4 137.4 L 323.6 136.5 L 324.6 135.5 L 325.6 134.5 L 326.7 133.5 L 327.6 132.4 L 328.6 131.3 L 329.4 130.1 L 330.3 128.9 L 331.1 127.7 L 331.8 126.5 L 332.5 125.1 L 333.1 123.8 L 333.7 122.4 L 334.3 121.2 L 334.9 119.8 L 335.4 118.5 L 335.8 117.1 L 336.1 115.6 L 336.5 114.2 L 336.8 112.8 L 337.0 111.4 L 337.2 109.9 L 337.4 108.6 L 337.5 107.1 L 337.6 105.7 L 337.7 104.4 L 337.7 103.0 L 337.7 101.7 L 337.7 100.4 L 337.4 98.9 L 337.2 97.5 L 337.0 96.2 L 336.7 94.8 L 336.4 93.5 L 336.0 92.1 L 335.5 90.7 L 335.0 89.4 L 334.2 88.0 L 333.6 86.7 L 333.0 85.4 L 332.1 84.1 L 331.3 82.8 L 330.5 81.6 L 329.6 80.4 L 328.7 79.3 L 327.7 78.1 L 326.6 77.0 L 325.6 75.9 L 324.6 74.9 L 323.3 73.9 L 322.3 73.0 L 321.1 72.1 L 319.9 71.2 L 318.7 70.4 L 317.5 69.7 L 316.3 69.0 L 315.0 68.3 L 313.7 67.7 L 312.6 67.1 L 311.3 66.6 L 310.1 66.2 L 308.9 65.7 L 307.7 65.4 L 306.6 65.0 L 305.5 64.8 L 304.5 64.5 L 303.5 64.4 L 302.6 64.2 L 301.8 64.1 L 301.1 64.1 L 300.6 64.0 L 300.3 64.0 L 300.1 64.0 L 299.9 64.0 L 299.7 64.0 L 299.3 64.0 L 298.7 64.1 L 298.1 64.1 L 297.2 64.2 L 296.3 64.4 L 295.3 64.6 L 294.3 64.8 L 293.1 65.1 L 291.9 65.4 L 290.8 65.8 L 289.6 66.2 L 288.2 66.7 L 287.0 67.2 L 285.8 67.8 L 284.5 68.4 L 283.3 69.1 L 282.0 69.8 L 280.9 70.6 L 279.7 71.4 L 278.4 72.3 L 277.2 73.2 L 276.1 74.1 L 275.0 75.1 L 273.8 76.2 L 272.9 77.2 L 271.9 78.3 L 270.8 79.5 L 269.9 80.7 L 269.0 81.9 L 268.3 83.1 L 267.3 84.4 L 266.6 85.7 L 265.9 87.0 L 265.2 88.4 L 264.6 89.7 L 264.1 91.1 L 263.6 92.4 L 263.2 93.8 L 262.8 95.2 L 262.5 96.6 L 262.2 98.0 L 262.1 99.4 L 262.0 100.7 L 261.8 102.2 L 261.9 103.5 L 261.9 104.9 L 262.0 106.2 L 262.1 107.5 L 262.3 108.9 L 262.6 110.2 L 262.7 111.7 L 263.0 113.1 L 263.2 114.6 L 263.6 116.0 L 264.0 117.4 L 264.5 118.6 L 265.0 120.1 L 265.5 121.4 L 266.0 122.8 L 266.7 124.0 L 267.4 125.3 L 268.0 126.7 L 268.8 127.9 L 269.6 129.1 L 270.5 130.3 L 271.4 131.5 L 272.3 132.7 L 273.2 133.7 L 274.3 134.7 L 275.3 135.8 L 276.4 136.7 L 277.5 137.6 L 278.7 138.4 L 279.8 139.2 L 281.1 140.0 L 282.3 140.8 L 283.5 141.6 L 284.8 142.1 L 286.1 142.7 L 287.5 143.2 L 288.8 143.5 L 290.2 144.0 L 291.6 144.3 L 292.9 144.6 L 294.3 144.9 L 295.7 145.1 L 297.2 145.2 L 298.6 145.4 L 300.0 145.7 Z" fill="none" stroke="#3FA9F5" stroke-width="1.7" stroke-linejoin="round" stroke-linecap="round"/>
<path d="M 300.0 145.7 L 301.5 148.7 L 303.0 150.9 L 304.7 153.1 L 306.4 155.3 L 308.2 157.4 L 310.0 159.6 L 312.0 161.6 L 314.0 163.5 L 316.1 165.7 L 318.3 167.7 L 320.5 169.6 L 322.8 171.4 L 325.3 173.5 L 327.6 174.7 L 330.3 177.1 L 332.9 178.8 L 335.6 180.5 L 338.4 182.3 L 341.3 183.9 L 344.2 185.4 L 347.2 187.0 L 350.6 189.2 L 353.8 190.7 L 357.2 192.4 L 360.6 193.9 L 364.1 195.5 L 367.7 196.9 L 371.4 198.3 L 375.2 199.6 L 379.0 200.8 L 382.9 201.9 L 386.6 202.6 L 390.4 203.2 L 394.6 204.3 L 398.6 204.8 L 402.6 205.3 L 406.6 205.5 L 410.8 205.8 L 415.2 206.3 L 419.4 206.3 L 423.7 206.3 L 428.5 206.7 L 432.9 206.5 L 437.2 206.1 L 441.8 205.8 L 445.7 204.7 L 449.8 203.7 L 453.8 202.5 L 457.8 201.2 L 462.0 200.0 L 466.2 198.6 L 470.3 197.0 L 474.4 195.4 L 478.6 193.7 L 482.6 191.9 L 486.3 189.6 L 489.6 187.1 L 492.2 184.1 L 494.8 181.0 L 496.6 177.5 L 498.2 173.9 L 498.6 169.6 L 498.8 165.3 L 498.3 160.7 L 497.2 155.9 L 495.1 150.9 L 493.0 145.9 L 490.3 140.9 L 487.5 136.0 L 483.7 130.9 L 480.2 126.0 L 476.3 121.3 L 472.1 116.6 L 467.8 112.1 L 463.5 107.8 L 459.1 103.7 L 454.4 99.6 L 449.7 95.8 L 444.3 92.0 L 439.4 88.6 L 434.6 85.3 L 429.9 82.3 L 424.8 79.3 L 420.3 76.6 L 415.8 74.1 L 410.6 71.7 L 405.8 69.5 L 400.9 67.5 L 396.4 65.7 L 391.6 64.0 L 299.3 64.0 L 299.4 64.0 L 299.4 64.0 L 299.4 64.0 L 299.4 64.0 L 299.4 64.0 L 299.5 64.1 L 299.5 64.1 L 299.5 64.1 L 299.5 64.1 L 299.6 64.1 L 299.6 64.1 L 299.6 64.1 L 299.6 64.1 L 299.7 64.1 L 299.7 64.1 L 299.7 64.1 L 299.7 64.1 L 299.7 64.1 L 299.7 64.1 L 299.8 64.1 L 299.8 64.1 L 299.8 64.1 L 299.8 64.1 L 299.8 64.1 L 299.8 64.1 L 299.9 64.1 L 299.9 64.1 L 299.9 64.1 L 299.9 64.1 L 299.9 64.1 L 299.9 64.1 L 299.9 64.0 L 299.9 64.0 L 299.9 64.0 L 299.9 64.0 L 300.0 64.0 L 300.0 64.0 L 300.0 64.0 L 300.0 64.0 L 300.0 64.0 L 300.0 64.0 L 300.0 64.0 L 300.0 64.0 L 300.0 64.0 L 299.7 64.3 L 299.3 64.7 L 298.8 65.2 L 298.3 65.8 L 297.8 66.5 L 297.1 67.5 L 296.4 68.4 L 295.7 69.5 L 294.9 70.8 L 294.3 71.9 L 293.6 73.1 L 293.0 74.3 L 292.4 75.7 L 291.8 77.2 L 291.2 78.6 L 290.7 80.2 L 290.1 81.8 L 289.6 83.6 L 289.2 85.2 L 288.9 86.9 L 288.5 88.6 L 288.2 90.6 L 287.9 92.4 L 287.8 94.3 L 287.6 96.3 L 287.5 98.4 L 287.5 100.4 L 287.5 102.4 L 287.6 104.5 L 287.7 106.7 L 288.0 109.0 L 288.2 111.5 L 288.5 113.7 L 288.9 116.1 L 289.4 118.8 L 289.9 121.2 L 290.5 123.7 L 291.3 126.2 L 292.0 128.8 L 292.9 131.3 L 293.9 133.9 L 294.9 136.3 L 296.1 138.8 L 297.3 141.2 L 298.6 144.0 L 300.0 145.7 Z" fill="none" stroke="#F32740" stroke-width="2.0" stroke-linejoin="round" stroke-linecap="round"/>
<text x="338" y="132" fill="#F32740" font-size="9.5" font-weight="700">150</text>
<text x="335" y="200" fill="#F32740" font-size="9.5" font-weight="700">300</text>
<text x="335" y="268" fill="#F32740" font-size="9.5" font-weight="700">450</text>
<text x="335" y="336" fill="#F32740" font-size="9.5" font-weight="700">600</text>
<rect x="274.0" y="58" width="52" height="11" rx="1.5" fill="#fafbfc" stroke="rgba(255,255,255,0.4)" stroke-width="0.5"/>
<line x1="272.0" y1="69.8" x2="328.0" y2="69.8" stroke="#F32740" stroke-width="0.7" stroke-dasharray="1.5 2"/>
<text x="300" y="66" text-anchor="middle" fill="#F32740" font-size="8" font-weight="700" letter-spacing="0.5">cd/klm SCALE</text>
<g transform="translate(22, 434)">
<text x="0" y="-8" fill="rgba(255,255,255,0.55)" font-size="8" letter-spacing="1.4">cd/klm</text>
<line x1="0" y1="6" x2="22" y2="6" stroke="#F32740" stroke-width="2.2"/>
<text x="28" y="9" fill="rgba(255,255,255,0.7)" font-size="9.5">C0 – C180</text>
<line x1="120" y1="6" x2="142" y2="6" stroke="#3FA9F5" stroke-width="1.7"/>
<text x="148" y="9" fill="rgba(255,255,255,0.7)" font-size="9.5">C90 – C270</text>
</g>
<text x="578" y="402" fill="rgba(255,255,255,0.45)" font-size="9" text-anchor="end">η = 150 lm/W</text>
<text x="578" y="418" fill="rgba(255,255,255,0.45)" font-size="9" text-anchor="end">8,633 lm · 57.5W</text>
<text x="578" y="434" fill="rgba(255,255,255,0.55)" font-size="8" letter-spacing="1.4" text-anchor="end">PEAK INTENSITY</text>
<text x="578" y="451" fill="#fff" font-weight="700" font-size="14" text-anchor="end">4,327 cd</text>
</svg>