<svg viewBox="0 0 600 460" xmlns="http://www.w3.org/2000/svg" font-family="JetBrains Mono, monospace" font-size="9.5">
<rect width="100%" height="100%" fill="#14171b"/>
<text x="22" y="26" fill="#F32740" font-weight="700" letter-spacing="2">LWPC60-S3N2-UD-BA-PSB_BA45_LV2-48W_3000K · 0W · — · FULL CUTOFF</text>
<text x="22" y="42" fill="rgba(255,255,255,0.55)" font-size="8" letter-spacing="1.4">LUMINOUS INTENSITY DISTRIBUTION (cd/klm)</text>
<path d="M 232.0 64.0 A 68.0 68.0 0 0 0 368.0 64.0" fill="none" stroke="rgba(120,200,200,0.18)" stroke-width="0.7"/>
<path d="M 164.0 64.0 A 136.0 136.0 0 0 0 436.0 64.0" fill="none" stroke="rgba(120,200,200,0.18)" stroke-width="0.7"/>
<path d="M 96.0 64.0 A 204.0 204.0 0 0 0 504.0 64.0" fill="none" stroke="rgba(120,200,200,0.18)" stroke-width="0.7"/>
<path d="M 28.0 64.0 A 272.0 272.0 0 0 0 572.0 64.0" fill="none" stroke="rgba(120,200,200,0.18)" stroke-width="0.7"/>
<path d="M -40.0 64.0 A 340.0 340.0 0 0 0 640.0 64.0" fill="none" stroke="rgba(120,200,200,0.18)" stroke-width="0.7"/>
<line x1="300.0" y1="64" x2="388.0" y2="392.4" stroke="rgba(120,200,200,0.10)" stroke-width="0.5"/>
<line x1="300.0" y1="64" x2="212.0" y2="392.4" stroke="rgba(120,200,200,0.10)" stroke-width="0.5"/>
<line x1="300.0" y1="64" x2="470.0" y2="358.4" stroke="rgba(120,200,200,0.10)" stroke-width="0.5"/>
<line x1="300.0" y1="64" x2="130.0" y2="358.4" stroke="rgba(120,200,200,0.10)" stroke-width="0.5"/>
<line x1="300.0" y1="64" x2="540.4" y2="304.4" stroke="rgba(120,200,200,0.10)" stroke-width="0.5"/>
<line x1="300.0" y1="64" x2="59.6" y2="304.4" stroke="rgba(120,200,200,0.10)" stroke-width="0.5"/>
<line x1="300.0" y1="64" x2="594.4" y2="234.0" stroke="rgba(120,200,200,0.10)" stroke-width="0.5"/>
<line x1="300.0" y1="64" x2="5.6" y2="234.0" stroke="rgba(120,200,200,0.10)" stroke-width="0.5"/>
<line x1="300.0" y1="64" x2="628.4" y2="152.0" stroke="rgba(120,200,200,0.10)" stroke-width="0.5"/>
<line x1="300.0" y1="64" x2="-28.4" y2="152.0" stroke="rgba(120,200,200,0.10)" stroke-width="0.5"/>
<line x1="300.0" y1="64" x2="640.0" y2="64.0" stroke="rgba(120,200,200,0.10)" stroke-width="0.5"/>
<line x1="300.0" y1="64" x2="-40.0" y2="64.0" stroke="rgba(120,200,200,0.10)" stroke-width="0.5"/>
<line x1="300.0" y1="64" x2="300.0" y2="408" stroke="rgba(120,200,200,0.14)" stroke-width="0.5"/>
<line x1="-40.0" y1="64" x2="640.0" y2="64" stroke="rgba(120,200,200,0.14)" stroke-width="0.5"/>
<text x="391.6" y="408.9" text-anchor="middle" fill="rgba(255,255,255,0.4)" font-size="9">15°</text>
<text x="208.4" y="408.9" text-anchor="middle" fill="rgba(255,255,255,0.4)" font-size="9">15°</text>
<text x="477.0" y="373.6" text-anchor="middle" fill="rgba(255,255,255,0.6)" font-size="9">30°</text>
<text x="123.0" y="373.6" text-anchor="middle" fill="rgba(255,255,255,0.6)" font-size="9">30°</text>
<text x="550.3" y="317.3" text-anchor="middle" fill="rgba(255,255,255,0.4)" font-size="9">45°</text>
<text x="49.7" y="317.3" text-anchor="middle" fill="rgba(255,255,255,0.4)" font-size="9">45°</text>
<text x="606.6" y="244.0" text-anchor="middle" fill="rgba(255,255,255,0.6)" font-size="9">60°</text>
<text x="-6.6" y="244.0" text-anchor="middle" fill="rgba(255,255,255,0.6)" font-size="9">60°</text>
<text x="641.9" y="158.6" text-anchor="middle" fill="rgba(255,255,255,0.4)" font-size="9">75°</text>
<text x="-41.9" y="158.6" text-anchor="middle" fill="rgba(255,255,255,0.4)" font-size="9">75°</text>
<text x="654.0" y="67.0" text-anchor="middle" fill="rgba(255,255,255,0.6)" font-size="9">90°</text>
<text x="-54.0" y="67.0" text-anchor="middle" fill="rgba(255,255,255,0.6)" font-size="9">90°</text>
<text x="300" y="426" text-anchor="middle" fill="rgba(255,255,255,0.6)" font-size="9">0°</text>
<path d="M 300.0 162.5 L 301.7 162.3 L 303.4 162.3 L 305.1 162.1 L 306.8 161.8 L 308.5 161.6 L 310.2 161.2 L 311.9 160.8 L 313.5 160.1 L 315.1 159.5 L 316.8 159.0 L 318.3 158.2 L 319.9 157.5 L 321.4 156.8 L 322.9 156.0 L 324.4 155.0 L 325.8 154.1 L 327.2 153.0 L 328.5 151.8 L 329.9 150.7 L 331.1 149.6 L 332.3 148.2 L 333.5 146.9 L 334.6 145.6 L 335.7 144.2 L 336.7 142.7 L 337.7 141.3 L 338.6 139.8 L 339.5 138.3 L 340.2 136.5 L 341.0 134.9 L 341.6 133.3 L 342.3 131.7 L 342.9 130.1 L 343.5 128.5 L 344.0 126.8 L 344.3 125.0 L 344.6 123.2 L 345.0 121.6 L 345.2 119.9 L 345.4 118.2 L 345.5 116.4 L 345.7 114.7 L 345.8 113.1 L 345.8 111.5 L 345.8 109.8 L 345.7 108.2 L 345.7 106.6 L 345.4 104.9 L 345.1 103.2 L 344.7 101.5 L 344.3 99.9 L 343.8 98.2 L 343.3 96.6 L 342.6 94.9 L 341.9 93.3 L 341.1 91.7 L 340.1 90.1 L 339.3 88.6 L 338.3 87.0 L 337.3 85.5 L 336.1 84.0 L 335.0 82.6 L 333.8 81.2 L 332.6 79.9 L 331.3 78.6 L 330.0 77.4 L 328.6 76.2 L 327.3 75.0 L 325.8 73.9 L 324.4 72.9 L 322.9 71.9 L 321.5 71.0 L 319.9 70.1 L 318.4 69.3 L 316.9 68.5 L 315.5 67.9 L 313.9 67.2 L 312.4 66.6 L 311.0 66.1 L 309.5 65.7 L 308.1 65.3 L 306.8 65.0 L 305.6 64.7 L 304.4 64.5 L 303.3 64.3 L 302.3 64.2 L 301.5 64.1 L 300.9 64.0 L 300.4 64.0 L 300.0 64.0 L 300.0 64.0 L 299.7 64.0 L 299.3 64.0 L 298.6 64.1 L 297.8 64.2 L 296.9 64.3 L 295.8 64.4 L 294.6 64.7 L 293.3 64.9 L 292.0 65.3 L 290.6 65.7 L 289.3 66.1 L 287.7 66.6 L 286.2 67.2 L 284.8 67.8 L 283.2 68.5 L 281.7 69.2 L 280.2 70.0 L 278.8 70.9 L 277.3 71.8 L 275.8 72.8 L 274.5 73.8 L 273.1 74.9 L 271.6 76.1 L 270.3 77.2 L 269.0 78.4 L 267.8 79.7 L 266.5 81.1 L 265.3 82.4 L 264.2 83.8 L 263.2 85.2 L 262.1 86.8 L 261.2 88.3 L 260.3 89.8 L 259.4 91.4 L 258.4 93.1 L 257.8 94.7 L 257.1 96.4 L 256.5 98.0 L 256.0 99.6 L 255.6 101.3 L 255.2 102.9 L 254.9 104.6 L 254.6 106.3 L 254.5 107.9 L 254.4 109.6 L 254.4 111.2 L 254.5 112.8 L 254.4 114.6 L 254.6 116.2 L 254.8 117.9 L 255.0 119.6 L 255.3 121.2 L 255.6 123.0 L 255.9 124.6 L 256.3 126.3 L 256.7 128.2 L 257.2 129.9 L 257.8 131.5 L 258.5 133.1 L 259.2 134.7 L 259.9 136.3 L 260.7 137.9 L 261.6 139.3 L 262.5 140.9 L 263.5 142.4 L 264.5 143.8 L 265.6 145.1 L 266.7 146.5 L 267.8 147.8 L 269.0 149.2 L 270.2 150.4 L 271.5 151.6 L 272.9 152.7 L 274.3 153.7 L 275.7 154.7 L 277.2 155.6 L 278.6 156.6 L 280.2 157.3 L 281.7 158.3 L 283.3 159.0 L 284.8 159.7 L 286.5 160.1 L 288.1 160.6 L 289.8 161.1 L 291.5 161.5 L 293.2 161.9 L 294.9 162.0 L 296.6 162.1 L 298.3 162.2 L 300.0 162.5 Z" fill="none" stroke="#3FA9F5" stroke-width="1.7" stroke-linejoin="round" stroke-linecap="round"/>
<path d="M 300.0 162.5 L 301.8 165.3 L 303.6 168.4 L 305.6 171.1 L 307.7 173.5 L 309.8 176.1 L 312.1 178.9 L 314.4 181.2 L 316.8 183.6 L 319.4 186.6 L 321.9 188.3 L 324.7 190.8 L 327.5 193.3 L 330.3 195.4 L 333.3 197.6 L 336.5 200.1 L 339.6 202.0 L 342.9 204.3 L 346.2 206.3 L 349.7 208.3 L 353.3 210.3 L 356.9 212.4 L 360.6 214.0 L 364.6 216.1 L 368.8 218.4 L 372.8 220.2 L 377.2 222.2 L 381.5 223.9 L 385.9 225.5 L 390.4 227.1 L 394.9 228.3 L 399.4 229.5 L 404.1 230.6 L 408.6 231.3 L 413.3 232.0 L 418.1 232.7 L 422.6 232.8 L 427.7 233.4 L 432.6 233.7 L 437.4 233.6 L 442.7 234.0 L 447.8 234.1 L 453.1 234.0 L 458.3 233.7 L 463.3 233.1 L 468.8 232.8 L 473.5 231.6 L 478.3 230.3 L 482.9 228.7 L 487.7 227.2 L 492.6 225.6 L 497.5 224.0 L 502.6 222.3 L 507.4 220.3 L 512.1 218.1 L 517.0 216.0 L 521.7 213.6 L 525.8 210.6 L 529.4 207.3 L 532.6 203.8 L 534.5 199.4 L 536.1 194.9 L 537.1 190.1 L 537.1 184.8 L 536.5 179.4 L 535.2 173.7 L 533.3 167.9 L 529.9 161.6 L 526.8 155.6 L 523.3 149.7 L 519.4 143.9 L 514.6 137.9 L 509.9 132.2 L 505.4 126.8 L 500.2 121.4 L 494.8 116.2 L 489.3 111.2 L 483.7 106.4 L 477.9 101.8 L 471.4 97.3 L 465.6 93.2 L 459.9 89.3 L 454.1 85.7 L 448.2 82.2 L 442.8 79.0 L 437.3 76.0 L 431.9 73.2 L 425.6 70.6 L 419.9 68.2 L 414.3 66.0 L 409.2 64.0 L 299.2 64.0 L 299.2 64.0 L 299.2 64.0 L 299.3 64.0 L 299.3 64.0 L 299.4 64.1 L 299.4 64.1 L 299.4 64.1 L 299.4 64.1 L 299.5 64.1 L 299.5 64.1 L 299.5 64.1 L 299.5 64.1 L 299.5 64.1 L 299.6 64.1 L 299.6 64.1 L 299.6 64.1 L 299.6 64.1 L 299.7 64.1 L 299.7 64.1 L 299.7 64.1 L 299.7 64.1 L 299.8 64.1 L 299.8 64.1 L 299.8 64.1 L 299.8 64.1 L 299.8 64.1 L 299.8 64.1 L 299.9 64.1 L 299.9 64.1 L 299.9 64.1 L 299.9 64.1 L 299.9 64.1 L 299.9 64.1 L 299.9 64.1 L 299.9 64.1 L 300.0 64.0 L 300.0 64.0 L 300.0 64.0 L 300.0 64.0 L 300.0 64.0 L 300.0 64.0 L 300.0 64.0 L 300.0 64.0 L 299.9 64.1 L 299.7 64.3 L 299.2 64.9 L 298.6 65.5 L 298.0 66.2 L 297.4 67.0 L 296.5 68.2 L 295.7 69.3 L 294.8 70.6 L 294.0 72.0 L 293.2 73.4 L 292.4 74.9 L 291.6 76.4 L 290.9 78.0 L 290.2 79.6 L 289.5 81.4 L 288.8 83.4 L 288.2 85.3 L 287.6 87.3 L 287.1 89.3 L 286.6 91.4 L 286.3 93.5 L 285.9 95.6 L 285.5 98.1 L 285.3 100.3 L 285.1 102.7 L 285.1 105.0 L 285.0 107.5 L 285.1 110.0 L 285.1 112.7 L 285.3 115.3 L 285.5 118.0 L 285.9 120.7 L 286.2 123.8 L 286.7 126.7 L 287.3 129.5 L 287.9 132.5 L 288.7 135.5 L 289.5 138.7 L 290.4 141.8 L 291.5 144.9 L 292.7 147.9 L 293.9 150.9 L 295.3 153.9 L 296.8 156.8 L 298.3 159.6 L 300.0 162.5 Z" fill="none" stroke="#F32740" stroke-width="2.0" stroke-linejoin="round" stroke-linecap="round"/>
<text x="338" y="132" fill="#F32740" font-size="9.5" font-weight="700">125</text>
<text x="335" y="200" fill="#F32740" font-size="9.5" font-weight="700">250</text>
<text x="335" y="268" fill="#F32740" font-size="9.5" font-weight="700">375</text>
<text x="335" y="336" fill="#F32740" font-size="9.5" font-weight="700">500</text>
<rect x="274.0" y="58" width="52" height="11" rx="1.5" fill="#fafbfc" stroke="rgba(255,255,255,0.4)" stroke-width="0.5"/>
<line x1="272.0" y1="69.8" x2="328.0" y2="69.8" stroke="#F32740" stroke-width="0.7" stroke-dasharray="1.5 2"/>
<text x="300" y="66" text-anchor="middle" fill="#F32740" font-size="8" font-weight="700" letter-spacing="0.5">cd/klm SCALE</text>
<g transform="translate(22, 434)">
<text x="0" y="-8" fill="rgba(255,255,255,0.55)" font-size="8" letter-spacing="1.4">cd/klm</text>
<line x1="0" y1="6" x2="22" y2="6" stroke="#F32740" stroke-width="2.2"/>
<text x="28" y="9" fill="rgba(255,255,255,0.7)" font-size="9.5">C0 – C180</text>
<line x1="120" y1="6" x2="142" y2="6" stroke="#3FA9F5" stroke-width="1.7"/>
<text x="148" y="9" fill="rgba(255,255,255,0.7)" font-size="9.5">C90 – C270</text>
</g>
<text x="578" y="402" fill="rgba(255,255,255,0.45)" font-size="9" text-anchor="end">η = 139 lm/W</text>
<text x="578" y="418" fill="rgba(255,255,255,0.45)" font-size="9" text-anchor="end">6,674 lm · 48.1W</text>
<text x="578" y="434" fill="rgba(255,255,255,0.55)" font-size="8" letter-spacing="1.4" text-anchor="end">PEAK INTENSITY</text>
<text x="578" y="451" fill="#fff" font-weight="700" font-size="14" text-anchor="end">3,330 cd</text>
</svg>