<svg viewBox="0 0 600 460" xmlns="http://www.w3.org/2000/svg" font-family="JetBrains Mono, monospace" font-size="9.5">
<rect width="100%" height="100%" fill="#14171b"/>
<text x="22" y="26" fill="#F32740" font-weight="700" letter-spacing="2">LWPC60-S3N2-UD-BA-PSB_BA0_LV1-60W_5000K · 0W · — · FULL CUTOFF</text>
<text x="22" y="42" fill="rgba(255,255,255,0.55)" font-size="8" letter-spacing="1.4">LUMINOUS INTENSITY DISTRIBUTION (cd/klm)</text>
<path d="M 232.0 64.0 A 68.0 68.0 0 0 0 368.0 64.0" fill="none" stroke="rgba(120,200,200,0.18)" stroke-width="0.7"/>
<path d="M 164.0 64.0 A 136.0 136.0 0 0 0 436.0 64.0" fill="none" stroke="rgba(120,200,200,0.18)" stroke-width="0.7"/>
<path d="M 96.0 64.0 A 204.0 204.0 0 0 0 504.0 64.0" fill="none" stroke="rgba(120,200,200,0.18)" stroke-width="0.7"/>
<path d="M 28.0 64.0 A 272.0 272.0 0 0 0 572.0 64.0" fill="none" stroke="rgba(120,200,200,0.18)" stroke-width="0.7"/>
<path d="M -40.0 64.0 A 340.0 340.0 0 0 0 640.0 64.0" fill="none" stroke="rgba(120,200,200,0.18)" stroke-width="0.7"/>
<line x1="300.0" y1="64" x2="388.0" y2="392.4" stroke="rgba(120,200,200,0.10)" stroke-width="0.5"/>
<line x1="300.0" y1="64" x2="212.0" y2="392.4" stroke="rgba(120,200,200,0.10)" stroke-width="0.5"/>
<line x1="300.0" y1="64" x2="470.0" y2="358.4" stroke="rgba(120,200,200,0.10)" stroke-width="0.5"/>
<line x1="300.0" y1="64" x2="130.0" y2="358.4" stroke="rgba(120,200,200,0.10)" stroke-width="0.5"/>
<line x1="300.0" y1="64" x2="540.4" y2="304.4" stroke="rgba(120,200,200,0.10)" stroke-width="0.5"/>
<line x1="300.0" y1="64" x2="59.6" y2="304.4" stroke="rgba(120,200,200,0.10)" stroke-width="0.5"/>
<line x1="300.0" y1="64" x2="594.4" y2="234.0" stroke="rgba(120,200,200,0.10)" stroke-width="0.5"/>
<line x1="300.0" y1="64" x2="5.6" y2="234.0" stroke="rgba(120,200,200,0.10)" stroke-width="0.5"/>
<line x1="300.0" y1="64" x2="628.4" y2="152.0" stroke="rgba(120,200,200,0.10)" stroke-width="0.5"/>
<line x1="300.0" y1="64" x2="-28.4" y2="152.0" stroke="rgba(120,200,200,0.10)" stroke-width="0.5"/>
<line x1="300.0" y1="64" x2="640.0" y2="64.0" stroke="rgba(120,200,200,0.10)" stroke-width="0.5"/>
<line x1="300.0" y1="64" x2="-40.0" y2="64.0" stroke="rgba(120,200,200,0.10)" stroke-width="0.5"/>
<line x1="300.0" y1="64" x2="300.0" y2="408" stroke="rgba(120,200,200,0.14)" stroke-width="0.5"/>
<line x1="-40.0" y1="64" x2="640.0" y2="64" stroke="rgba(120,200,200,0.14)" stroke-width="0.5"/>
<text x="391.6" y="408.9" text-anchor="middle" fill="rgba(255,255,255,0.4)" font-size="9">15°</text>
<text x="208.4" y="408.9" text-anchor="middle" fill="rgba(255,255,255,0.4)" font-size="9">15°</text>
<text x="477.0" y="373.6" text-anchor="middle" fill="rgba(255,255,255,0.6)" font-size="9">30°</text>
<text x="123.0" y="373.6" text-anchor="middle" fill="rgba(255,255,255,0.6)" font-size="9">30°</text>
<text x="550.3" y="317.3" text-anchor="middle" fill="rgba(255,255,255,0.4)" font-size="9">45°</text>
<text x="49.7" y="317.3" text-anchor="middle" fill="rgba(255,255,255,0.4)" font-size="9">45°</text>
<text x="606.6" y="244.0" text-anchor="middle" fill="rgba(255,255,255,0.6)" font-size="9">60°</text>
<text x="-6.6" y="244.0" text-anchor="middle" fill="rgba(255,255,255,0.6)" font-size="9">60°</text>
<text x="641.9" y="158.6" text-anchor="middle" fill="rgba(255,255,255,0.4)" font-size="9">75°</text>
<text x="-41.9" y="158.6" text-anchor="middle" fill="rgba(255,255,255,0.4)" font-size="9">75°</text>
<text x="654.0" y="67.0" text-anchor="middle" fill="rgba(255,255,255,0.6)" font-size="9">90°</text>
<text x="-54.0" y="67.0" text-anchor="middle" fill="rgba(255,255,255,0.6)" font-size="9">90°</text>
<text x="300" y="426" text-anchor="middle" fill="rgba(255,255,255,0.6)" font-size="9">0°</text>
<path d="M 300.0 303.0 L 304.2 302.5 L 308.3 302.2 L 312.5 301.8 L 316.6 301.2 L 320.7 300.6 L 324.8 299.6 L 328.8 298.5 L 332.8 297.3 L 336.7 295.5 L 340.5 293.9 L 344.3 292.0 L 348.1 290.1 L 351.8 288.2 L 355.3 285.9 L 358.8 283.5 L 362.2 280.9 L 365.5 278.1 L 368.7 275.4 L 371.8 272.5 L 374.8 269.5 L 377.7 266.4 L 380.3 262.7 L 382.8 259.2 L 385.3 255.7 L 387.7 252.1 L 390.0 248.6 L 392.1 244.8 L 394.0 240.8 L 395.8 236.9 L 397.5 232.8 L 398.6 228.2 L 400.0 224.1 L 401.3 220.0 L 402.1 215.3 L 403.0 211.1 L 403.7 206.7 L 404.3 202.4 L 404.5 197.8 L 404.9 193.5 L 404.7 188.8 L 404.7 184.4 L 404.4 179.9 L 403.9 175.4 L 403.0 170.6 L 402.4 166.4 L 401.5 162.0 L 400.4 157.6 L 399.3 153.4 L 397.9 149.1 L 396.5 145.0 L 394.4 140.4 L 392.7 136.4 L 390.8 132.5 L 388.8 128.5 L 386.6 124.7 L 384.5 121.0 L 382.2 117.4 L 379.7 113.8 L 377.3 110.4 L 374.8 107.2 L 372.3 104.1 L 369.6 101.0 L 366.6 97.9 L 363.9 95.1 L 361.1 92.5 L 358.3 90.0 L 355.3 87.5 L 352.5 85.2 L 349.7 83.1 L 346.5 80.9 L 343.7 79.0 L 340.9 77.3 L 337.7 75.5 L 334.9 74.0 L 332.2 72.6 L 329.4 71.3 L 326.6 70.1 L 324.0 69.1 L 321.1 68.1 L 318.6 67.3 L 316.1 66.5 L 313.7 65.9 L 311.2 65.4 L 309.0 65.0 L 307.0 64.6 L 305.0 64.4 L 303.4 64.2 L 302.1 64.1 L 301.1 64.0 L 300.0 64.0 L 300.0 64.0 L 300.0 64.0 L 298.9 64.0 L 297.8 64.1 L 296.3 64.3 L 294.7 64.5 L 292.8 64.8 L 290.8 65.1 L 288.6 65.6 L 286.0 66.2 L 283.6 66.9 L 281.0 67.7 L 278.4 68.6 L 275.5 69.7 L 272.8 70.8 L 270.0 72.0 L 266.8 73.5 L 264.0 75.0 L 261.1 76.6 L 258.2 78.4 L 255.3 80.3 L 252.1 82.4 L 249.2 84.5 L 246.3 86.8 L 243.5 89.2 L 240.3 91.8 L 237.6 94.4 L 234.8 97.2 L 231.7 100.3 L 229.1 103.3 L 226.5 106.4 L 223.9 109.7 L 221.2 113.3 L 218.8 116.8 L 216.4 120.4 L 214.1 124.1 L 211.7 128.2 L 209.5 132.2 L 207.7 136.1 L 206.0 140.2 L 204.3 144.3 L 202.6 148.6 L 201.1 153.0 L 200.0 157.3 L 198.9 161.6 L 197.7 166.3 L 197.0 170.7 L 196.2 175.3 L 195.7 179.8 L 195.3 184.5 L 195.1 189.0 L 195.2 193.5 L 195.2 198.1 L 195.6 202.6 L 196.1 207.0 L 196.8 211.4 L 197.7 215.7 L 198.4 220.5 L 199.6 224.7 L 200.9 228.9 L 202.4 233.0 L 204.0 237.1 L 205.7 241.3 L 207.7 245.2 L 209.8 248.9 L 212.0 252.6 L 214.3 256.5 L 216.8 260.1 L 219.4 263.5 L 222.2 266.7 L 225.1 269.7 L 228.1 272.8 L 231.1 275.9 L 234.3 278.9 L 237.5 282.0 L 241.1 283.9 L 244.6 286.3 L 248.2 288.4 L 251.9 290.4 L 255.6 292.4 L 259.4 294.5 L 263.2 296.1 L 267.2 297.3 L 271.2 298.6 L 275.2 299.7 L 279.3 300.7 L 283.4 301.5 L 287.5 301.7 L 291.7 302.3 L 295.8 302.6 L 300.0 303.0 Z" fill="none" stroke="#3FA9F5" stroke-width="1.7" stroke-linejoin="round" stroke-linecap="round"/>
<path d="M 300.0 303.0 L 304.2 306.9 L 308.6 309.4 L 313.0 311.9 L 317.5 314.1 L 322.1 316.4 L 326.8 318.8 L 331.5 320.9 L 336.3 322.5 L 341.2 324.4 L 346.1 325.5 L 351.0 326.1 L 355.8 326.3 L 360.5 326.1 L 365.1 324.9 L 369.4 323.1 L 373.6 320.5 L 377.4 317.0 L 380.9 313.0 L 384.1 308.1 L 387.1 303.2 L 389.5 297.1 L 391.8 291.1 L 393.7 284.7 L 395.1 277.6 L 396.5 271.0 L 397.4 263.6 L 398.1 256.6 L 398.5 249.3 L 398.7 242.0 L 398.7 235.0 L 398.6 228.1 L 397.9 220.7 L 397.3 213.8 L 396.1 206.5 L 394.9 199.6 L 393.7 193.0 L 392.4 186.6 L 390.4 179.7 L 388.9 173.8 L 387.3 168.0 L 385.3 162.1 L 383.0 156.2 L 380.6 150.5 L 378.4 145.2 L 376.2 140.2 L 374.1 135.6 L 371.7 130.9 L 369.7 126.8 L 367.6 122.7 L 365.0 118.6 L 362.6 114.7 L 360.4 111.2 L 358.3 107.9 L 356.0 104.7 L 354.0 101.8 L 352.0 99.1 L 350.0 96.4 L 347.8 93.9 L 345.9 91.6 L 343.9 89.3 L 341.8 87.2 L 339.9 85.2 L 338.0 83.4 L 336.2 81.6 L 334.4 80.0 L 332.3 78.4 L 330.5 76.9 L 328.7 75.6 L 326.9 74.3 L 325.0 73.1 L 323.2 72.0 L 321.5 71.0 L 319.6 70.0 L 317.9 69.1 L 316.2 68.3 L 314.5 67.6 L 312.8 67.0 L 311.0 66.3 L 309.5 65.8 L 308.0 65.4 L 306.5 65.0 L 305.1 64.7 L 303.9 64.5 L 302.9 64.3 L 301.9 64.2 L 301.1 64.1 L 300.6 64.0 L 300.3 64.0 L 300.2 64.0 L 300.0 64.0 L 300.0 64.0 L 298.5 64.0 L 297.6 64.1 L 296.6 64.2 L 295.4 64.3 L 293.9 64.5 L 292.4 64.8 L 290.8 65.1 L 289.1 65.5 L 287.5 66.0 L 285.9 66.5 L 284.3 67.1 L 282.4 67.7 L 280.7 68.5 L 278.9 69.3 L 277.1 70.1 L 275.0 71.2 L 273.2 72.2 L 271.4 73.3 L 269.5 74.5 L 267.7 75.8 L 265.9 77.1 L 264.2 78.5 L 262.3 80.0 L 260.3 81.7 L 258.6 83.3 L 256.8 85.1 L 255.0 86.9 L 253.1 88.9 L 251.4 90.9 L 249.7 93.0 L 247.7 95.4 L 246.0 97.8 L 244.3 100.2 L 242.7 102.6 L 241.1 105.2 L 239.4 108.0 L 237.9 110.8 L 236.5 113.6 L 235.2 116.5 L 233.8 119.6 L 232.5 122.7 L 231.5 125.6 L 230.6 128.8 L 229.4 132.1 L 228.7 135.3 L 228.0 138.5 L 227.4 141.8 L 227.1 145.0 L 226.7 148.4 L 226.5 151.6 L 226.4 154.9 L 226.1 158.6 L 226.1 162.0 L 226.3 165.4 L 226.6 168.9 L 226.9 172.4 L 227.1 176.2 L 227.7 179.8 L 228.2 183.5 L 228.9 187.1 L 229.7 190.8 L 230.6 194.5 L 231.6 198.2 L 232.8 201.8 L 233.9 205.8 L 234.9 210.2 L 236.2 214.2 L 237.6 218.5 L 239.0 222.9 L 240.7 227.0 L 242.6 230.8 L 244.3 235.3 L 246.3 239.6 L 248.5 243.6 L 250.8 247.7 L 253.2 251.8 L 255.8 255.5 L 258.5 259.5 L 261.2 263.7 L 264.1 267.5 L 267.2 271.1 L 270.4 274.9 L 273.6 278.6 L 277.1 282.3 L 280.5 286.4 L 284.2 290.1 L 288.0 293.7 L 291.9 297.1 L 295.9 300.5 L 300.0 303.0 Z" fill="none" stroke="#F32740" stroke-width="2.0" stroke-linejoin="round" stroke-linecap="round"/>
<text x="338" y="132" fill="#F32740" font-size="9.5" font-weight="700">125</text>
<text x="335" y="200" fill="#F32740" font-size="9.5" font-weight="700">250</text>
<text x="335" y="268" fill="#F32740" font-size="9.5" font-weight="700">375</text>
<text x="335" y="336" fill="#F32740" font-size="9.5" font-weight="700">500</text>
<rect x="274.0" y="58" width="52" height="11" rx="1.5" fill="#fafbfc" stroke="rgba(255,255,255,0.4)" stroke-width="0.5"/>
<line x1="272.0" y1="69.8" x2="328.0" y2="69.8" stroke="#F32740" stroke-width="0.7" stroke-dasharray="1.5 2"/>
<text x="300" y="66" text-anchor="middle" fill="#F32740" font-size="8" font-weight="700" letter-spacing="0.5">cd/klm SCALE</text>
<g transform="translate(22, 434)">
<text x="0" y="-8" fill="rgba(255,255,255,0.55)" font-size="8" letter-spacing="1.4">cd/klm</text>
<line x1="0" y1="6" x2="22" y2="6" stroke="#F32740" stroke-width="2.2"/>
<text x="28" y="9" fill="rgba(255,255,255,0.7)" font-size="9.5">C0 – C180</text>
<line x1="120" y1="6" x2="142" y2="6" stroke="#3FA9F5" stroke-width="1.7"/>
<text x="148" y="9" fill="rgba(255,255,255,0.7)" font-size="9.5">C90 – C270</text>
</g>
<text x="578" y="402" fill="rgba(255,255,255,0.45)" font-size="9" text-anchor="end">η = 137 lm/W</text>
<text x="578" y="418" fill="rgba(255,255,255,0.45)" font-size="9" text-anchor="end">8,239 lm · 60.3W</text>
<text x="578" y="434" fill="rgba(255,255,255,0.55)" font-size="8" letter-spacing="1.4" text-anchor="end">PEAK INTENSITY</text>
<text x="578" y="451" fill="#fff" font-weight="700" font-size="14" text-anchor="end">4,074 cd</text>
</svg>