<svg viewBox="0 0 600 460" xmlns="http://www.w3.org/2000/svg" font-family="JetBrains Mono, monospace" font-size="9.5">
<rect width="100%" height="100%" fill="#14171b"/>
<text x="22" y="26" fill="#F32740" font-weight="700" letter-spacing="2">LWPC60-S3N2-UD-BA-PSB_BA15_LV2-48W_5000K · 0W · — · FULL CUTOFF</text>
<text x="22" y="42" fill="rgba(255,255,255,0.55)" font-size="8" letter-spacing="1.4">LUMINOUS INTENSITY DISTRIBUTION (cd/klm)</text>
<path d="M 232.0 64.0 A 68.0 68.0 0 0 0 368.0 64.0" fill="none" stroke="rgba(120,200,200,0.18)" stroke-width="0.7"/>
<path d="M 164.0 64.0 A 136.0 136.0 0 0 0 436.0 64.0" fill="none" stroke="rgba(120,200,200,0.18)" stroke-width="0.7"/>
<path d="M 96.0 64.0 A 204.0 204.0 0 0 0 504.0 64.0" fill="none" stroke="rgba(120,200,200,0.18)" stroke-width="0.7"/>
<path d="M 28.0 64.0 A 272.0 272.0 0 0 0 572.0 64.0" fill="none" stroke="rgba(120,200,200,0.18)" stroke-width="0.7"/>
<path d="M -40.0 64.0 A 340.0 340.0 0 0 0 640.0 64.0" fill="none" stroke="rgba(120,200,200,0.18)" stroke-width="0.7"/>
<line x1="300.0" y1="64" x2="388.0" y2="392.4" stroke="rgba(120,200,200,0.10)" stroke-width="0.5"/>
<line x1="300.0" y1="64" x2="212.0" y2="392.4" stroke="rgba(120,200,200,0.10)" stroke-width="0.5"/>
<line x1="300.0" y1="64" x2="470.0" y2="358.4" stroke="rgba(120,200,200,0.10)" stroke-width="0.5"/>
<line x1="300.0" y1="64" x2="130.0" y2="358.4" stroke="rgba(120,200,200,0.10)" stroke-width="0.5"/>
<line x1="300.0" y1="64" x2="540.4" y2="304.4" stroke="rgba(120,200,200,0.10)" stroke-width="0.5"/>
<line x1="300.0" y1="64" x2="59.6" y2="304.4" stroke="rgba(120,200,200,0.10)" stroke-width="0.5"/>
<line x1="300.0" y1="64" x2="594.4" y2="234.0" stroke="rgba(120,200,200,0.10)" stroke-width="0.5"/>
<line x1="300.0" y1="64" x2="5.6" y2="234.0" stroke="rgba(120,200,200,0.10)" stroke-width="0.5"/>
<line x1="300.0" y1="64" x2="628.4" y2="152.0" stroke="rgba(120,200,200,0.10)" stroke-width="0.5"/>
<line x1="300.0" y1="64" x2="-28.4" y2="152.0" stroke="rgba(120,200,200,0.10)" stroke-width="0.5"/>
<line x1="300.0" y1="64" x2="640.0" y2="64.0" stroke="rgba(120,200,200,0.10)" stroke-width="0.5"/>
<line x1="300.0" y1="64" x2="-40.0" y2="64.0" stroke="rgba(120,200,200,0.10)" stroke-width="0.5"/>
<line x1="300.0" y1="64" x2="300.0" y2="408" stroke="rgba(120,200,200,0.14)" stroke-width="0.5"/>
<line x1="-40.0" y1="64" x2="640.0" y2="64" stroke="rgba(120,200,200,0.14)" stroke-width="0.5"/>
<text x="391.6" y="408.9" text-anchor="middle" fill="rgba(255,255,255,0.4)" font-size="9">15°</text>
<text x="208.4" y="408.9" text-anchor="middle" fill="rgba(255,255,255,0.4)" font-size="9">15°</text>
<text x="477.0" y="373.6" text-anchor="middle" fill="rgba(255,255,255,0.6)" font-size="9">30°</text>
<text x="123.0" y="373.6" text-anchor="middle" fill="rgba(255,255,255,0.6)" font-size="9">30°</text>
<text x="550.3" y="317.3" text-anchor="middle" fill="rgba(255,255,255,0.4)" font-size="9">45°</text>
<text x="49.7" y="317.3" text-anchor="middle" fill="rgba(255,255,255,0.4)" font-size="9">45°</text>
<text x="606.6" y="244.0" text-anchor="middle" fill="rgba(255,255,255,0.6)" font-size="9">60°</text>
<text x="-6.6" y="244.0" text-anchor="middle" fill="rgba(255,255,255,0.6)" font-size="9">60°</text>
<text x="641.9" y="158.6" text-anchor="middle" fill="rgba(255,255,255,0.4)" font-size="9">75°</text>
<text x="-41.9" y="158.6" text-anchor="middle" fill="rgba(255,255,255,0.4)" font-size="9">75°</text>
<text x="654.0" y="67.0" text-anchor="middle" fill="rgba(255,255,255,0.6)" font-size="9">90°</text>
<text x="-54.0" y="67.0" text-anchor="middle" fill="rgba(255,255,255,0.6)" font-size="9">90°</text>
<text x="300" y="426" text-anchor="middle" fill="rgba(255,255,255,0.6)" font-size="9">0°</text>
<path d="M 300.0 261.3 L 303.4 261.1 L 306.9 261.0 L 310.3 260.6 L 313.7 260.2 L 317.1 259.5 L 320.5 258.9 L 323.8 258.1 L 327.2 257.2 L 330.4 256.0 L 333.6 254.8 L 336.8 253.4 L 340.0 252.0 L 343.0 250.1 L 346.0 248.4 L 348.9 246.5 L 351.8 244.8 L 354.6 242.5 L 357.4 240.5 L 360.0 238.4 L 362.5 235.6 L 364.9 233.2 L 367.4 230.7 L 369.6 228.0 L 371.8 225.2 L 373.7 222.1 L 375.8 219.3 L 377.6 216.3 L 379.3 213.1 L 380.9 210.0 L 382.4 206.6 L 383.6 203.2 L 384.8 199.7 L 385.9 196.3 L 386.8 192.7 L 387.8 189.3 L 388.4 185.7 L 389.0 182.1 L 389.4 178.5 L 389.7 174.8 L 390.0 171.2 L 389.8 167.3 L 389.8 163.7 L 389.6 160.0 L 389.1 156.3 L 388.6 152.6 L 387.9 148.9 L 387.3 145.4 L 386.3 141.7 L 385.5 138.3 L 384.4 134.8 L 383.1 131.3 L 381.9 128.0 L 380.4 124.6 L 378.5 121.0 L 377.0 117.9 L 375.2 114.7 L 373.2 111.5 L 371.4 108.6 L 369.4 105.7 L 367.1 102.8 L 365.0 100.0 L 362.8 97.4 L 360.6 94.9 L 357.9 92.3 L 355.5 89.9 L 353.2 87.7 L 350.8 85.5 L 348.1 83.4 L 345.6 81.5 L 343.1 79.7 L 340.2 77.9 L 337.7 76.2 L 335.1 74.7 L 332.5 73.3 L 330.0 72.0 L 327.2 70.8 L 324.6 69.7 L 322.2 68.7 L 319.7 67.8 L 317.2 67.0 L 314.8 66.3 L 312.6 65.8 L 310.4 65.3 L 308.2 64.9 L 306.4 64.6 L 304.7 64.3 L 303.2 64.2 L 301.8 64.1 L 300.9 64.0 L 300.3 64.0 L 299.9 64.0 L 299.5 64.0 L 298.8 64.0 L 297.7 64.1 L 296.4 64.3 L 294.9 64.5 L 292.9 64.7 L 291.0 65.1 L 288.9 65.6 L 286.7 66.1 L 284.5 66.7 L 281.9 67.5 L 279.5 68.4 L 277.0 69.3 L 274.6 70.3 L 271.8 71.5 L 269.3 72.8 L 266.8 74.2 L 263.9 75.7 L 261.3 77.3 L 258.8 79.0 L 256.4 80.7 L 253.7 82.7 L 251.2 84.7 L 248.8 86.8 L 246.4 89.0 L 243.8 91.4 L 241.5 93.8 L 239.3 96.3 L 237.1 98.9 L 234.9 101.6 L 232.7 104.5 L 230.6 107.4 L 228.7 110.3 L 226.9 113.3 L 224.9 116.6 L 223.4 119.7 L 221.8 123.0 L 220.0 126.5 L 218.7 129.8 L 217.7 133.1 L 216.1 136.9 L 215.1 140.4 L 214.3 143.9 L 213.5 147.5 L 212.8 151.2 L 212.4 154.7 L 212.0 158.3 L 211.4 162.4 L 211.4 165.9 L 211.3 169.7 L 211.5 173.3 L 211.7 177.0 L 212.1 180.6 L 212.8 184.1 L 213.3 187.8 L 214.1 191.3 L 215.1 194.8 L 216.1 198.3 L 217.3 201.6 L 218.4 205.3 L 219.9 208.5 L 221.5 211.7 L 223.1 215.0 L 224.9 217.9 L 226.7 221.1 L 228.8 223.9 L 231.0 226.7 L 233.1 229.7 L 235.4 232.2 L 237.8 234.8 L 240.4 237.2 L 242.9 239.6 L 245.6 241.9 L 248.4 243.8 L 251.2 246.0 L 254.2 247.9 L 257.1 249.6 L 260.2 251.1 L 263.3 252.8 L 266.5 254.2 L 269.7 255.5 L 272.9 256.5 L 276.2 257.9 L 279.5 258.8 L 282.9 259.6 L 286.3 260.1 L 289.7 260.6 L 293.1 260.8 L 296.6 261.0 L 300.0 261.3 Z" fill="none" stroke="#3FA9F5" stroke-width="1.7" stroke-linejoin="round" stroke-linecap="round"/>
<path d="M 300.0 261.3 L 303.5 264.3 L 307.1 267.3 L 310.8 270.4 L 314.6 273.0 L 318.5 275.9 L 322.5 278.4 L 326.7 281.2 L 331.0 284.3 L 335.3 287.0 L 339.8 289.5 L 344.3 292.0 L 348.8 293.8 L 353.5 295.5 L 358.1 297.0 L 362.8 298.3 L 367.5 299.5 L 372.4 300.7 L 377.4 302.1 L 382.5 303.5 L 387.5 304.3 L 392.7 305.4 L 397.8 306.1 L 402.9 306.4 L 407.9 306.3 L 412.7 305.6 L 417.2 304.3 L 421.5 302.5 L 425.3 299.7 L 428.8 296.4 L 431.8 292.3 L 434.5 287.8 L 436.6 282.6 L 438.3 277.0 L 439.0 270.1 L 439.9 263.8 L 440.3 257.1 L 440.4 250.4 L 439.8 242.9 L 439.2 235.9 L 438.2 228.7 L 437.0 221.6 L 435.3 214.3 L 433.6 207.3 L 431.8 200.5 L 429.1 193.1 L 426.6 186.3 L 424.2 179.8 L 421.5 173.4 L 418.4 167.0 L 415.7 161.1 L 412.8 155.4 L 410.1 150.0 L 407.0 144.7 L 403.4 139.1 L 399.9 133.9 L 396.5 129.1 L 392.9 124.4 L 389.8 120.1 L 386.7 116.1 L 383.6 112.3 L 380.3 108.5 L 377.4 105.1 L 374.3 101.9 L 371.3 98.8 L 368.4 95.9 L 365.3 93.1 L 362.7 90.6 L 360.1 88.3 L 357.3 86.0 L 354.8 84.0 L 352.4 82.0 L 350.0 80.2 L 347.4 78.5 L 345.1 76.9 L 342.9 75.5 L 340.7 74.1 L 338.5 72.9 L 336.1 71.7 L 334.0 70.6 L 332.0 69.6 L 330.0 68.7 L 327.8 67.9 L 325.8 67.2 L 323.9 66.5 L 322.0 65.9 L 319.9 65.4 L 318.1 64.9 L 316.3 64.6 L 314.5 64.3 L 312.6 64.0 L 299.9 64.0 L 299.9 64.0 L 299.9 64.0 L 299.9 64.0 L 300.0 64.0 L 300.0 64.0 L 300.0 64.0 L 300.0 64.0 L 300.0 64.0 L 300.0 64.0 L 300.0 64.0 L 300.0 64.0 L 299.8 64.0 L 299.3 64.2 L 298.5 64.4 L 297.5 64.7 L 296.6 65.0 L 295.5 65.4 L 294.1 65.9 L 292.6 66.5 L 291.1 67.2 L 289.7 67.9 L 288.3 68.7 L 286.9 69.6 L 285.2 70.6 L 283.8 71.6 L 282.3 72.6 L 280.7 73.8 L 279.0 75.1 L 277.4 76.5 L 275.9 77.9 L 274.3 79.5 L 272.8 81.0 L 271.4 82.6 L 269.9 84.3 L 268.5 86.1 L 267.0 88.0 L 265.5 90.0 L 264.2 91.9 L 262.9 94.0 L 261.3 96.4 L 260.1 98.7 L 258.8 101.1 L 257.6 103.5 L 256.3 106.2 L 255.1 108.9 L 254.0 111.6 L 252.9 114.5 L 251.9 117.4 L 250.9 120.5 L 250.0 123.6 L 249.1 126.9 L 248.4 130.0 L 247.9 133.2 L 247.4 136.4 L 247.0 139.7 L 246.8 142.8 L 246.5 146.3 L 246.6 149.5 L 246.7 152.8 L 246.9 156.0 L 247.0 159.7 L 247.4 163.0 L 247.9 166.2 L 248.5 169.5 L 249.2 173.0 L 250.1 176.2 L 250.9 179.6 L 251.9 183.1 L 253.0 186.5 L 254.1 190.0 L 255.4 193.5 L 256.9 196.7 L 258.4 200.2 L 259.9 203.7 L 261.5 207.5 L 263.4 211.0 L 265.3 214.4 L 267.3 217.9 L 269.4 221.6 L 271.6 225.3 L 273.9 229.1 L 276.3 232.7 L 278.8 236.5 L 281.5 240.5 L 284.2 244.2 L 287.1 248.2 L 290.2 251.5 L 293.3 254.9 L 296.6 258.3 L 300.0 261.3 Z" fill="none" stroke="#F32740" stroke-width="2.0" stroke-linejoin="round" stroke-linecap="round"/>
<text x="338" y="132" fill="#F32740" font-size="9.5" font-weight="700">125</text>
<text x="335" y="200" fill="#F32740" font-size="9.5" font-weight="700">250</text>
<text x="335" y="268" fill="#F32740" font-size="9.5" font-weight="700">375</text>
<text x="335" y="336" fill="#F32740" font-size="9.5" font-weight="700">500</text>
<rect x="274.0" y="58" width="52" height="11" rx="1.5" fill="#fafbfc" stroke="rgba(255,255,255,0.4)" stroke-width="0.5"/>
<line x1="272.0" y1="69.8" x2="328.0" y2="69.8" stroke="#F32740" stroke-width="0.7" stroke-dasharray="1.5 2"/>
<text x="300" y="66" text-anchor="middle" fill="#F32740" font-size="8" font-weight="700" letter-spacing="0.5">cd/klm SCALE</text>
<g transform="translate(22, 434)">
<text x="0" y="-8" fill="rgba(255,255,255,0.55)" font-size="8" letter-spacing="1.4">cd/klm</text>
<line x1="0" y1="6" x2="22" y2="6" stroke="#F32740" stroke-width="2.2"/>
<text x="28" y="9" fill="rgba(255,255,255,0.7)" font-size="9.5">C0 – C180</text>
<line x1="120" y1="6" x2="142" y2="6" stroke="#3FA9F5" stroke-width="1.7"/>
<text x="148" y="9" fill="rgba(255,255,255,0.7)" font-size="9.5">C90 – C270</text>
</g>
<text x="578" y="402" fill="rgba(255,255,255,0.45)" font-size="9" text-anchor="end">η = 143 lm/W</text>
<text x="578" y="418" fill="rgba(255,255,255,0.45)" font-size="9" text-anchor="end">6,902 lm · 48.2W</text>
<text x="578" y="434" fill="rgba(255,255,255,0.55)" font-size="8" letter-spacing="1.4" text-anchor="end">PEAK INTENSITY</text>
<text x="578" y="451" fill="#fff" font-weight="700" font-size="14" text-anchor="end">3,396 cd</text>
</svg>