<svg viewBox="0 0 600 460" xmlns="http://www.w3.org/2000/svg" font-family="JetBrains Mono, monospace" font-size="9.5">
<rect width="100%" height="100%" fill="#14171b"/>
<text x="22" y="26" fill="#F32740" font-weight="700" letter-spacing="2">LWPC60-S3N2-UD-BA-PSB_BA15_LV3-36W_3000K · 0W · — · FULL CUTOFF</text>
<text x="22" y="42" fill="rgba(255,255,255,0.55)" font-size="8" letter-spacing="1.4">LUMINOUS INTENSITY DISTRIBUTION (cd/klm)</text>
<path d="M 232.0 64.0 A 68.0 68.0 0 0 0 368.0 64.0" fill="none" stroke="rgba(120,200,200,0.18)" stroke-width="0.7"/>
<path d="M 164.0 64.0 A 136.0 136.0 0 0 0 436.0 64.0" fill="none" stroke="rgba(120,200,200,0.18)" stroke-width="0.7"/>
<path d="M 96.0 64.0 A 204.0 204.0 0 0 0 504.0 64.0" fill="none" stroke="rgba(120,200,200,0.18)" stroke-width="0.7"/>
<path d="M 28.0 64.0 A 272.0 272.0 0 0 0 572.0 64.0" fill="none" stroke="rgba(120,200,200,0.18)" stroke-width="0.7"/>
<path d="M -40.0 64.0 A 340.0 340.0 0 0 0 640.0 64.0" fill="none" stroke="rgba(120,200,200,0.18)" stroke-width="0.7"/>
<line x1="300.0" y1="64" x2="388.0" y2="392.4" stroke="rgba(120,200,200,0.10)" stroke-width="0.5"/>
<line x1="300.0" y1="64" x2="212.0" y2="392.4" stroke="rgba(120,200,200,0.10)" stroke-width="0.5"/>
<line x1="300.0" y1="64" x2="470.0" y2="358.4" stroke="rgba(120,200,200,0.10)" stroke-width="0.5"/>
<line x1="300.0" y1="64" x2="130.0" y2="358.4" stroke="rgba(120,200,200,0.10)" stroke-width="0.5"/>
<line x1="300.0" y1="64" x2="540.4" y2="304.4" stroke="rgba(120,200,200,0.10)" stroke-width="0.5"/>
<line x1="300.0" y1="64" x2="59.6" y2="304.4" stroke="rgba(120,200,200,0.10)" stroke-width="0.5"/>
<line x1="300.0" y1="64" x2="594.4" y2="234.0" stroke="rgba(120,200,200,0.10)" stroke-width="0.5"/>
<line x1="300.0" y1="64" x2="5.6" y2="234.0" stroke="rgba(120,200,200,0.10)" stroke-width="0.5"/>
<line x1="300.0" y1="64" x2="628.4" y2="152.0" stroke="rgba(120,200,200,0.10)" stroke-width="0.5"/>
<line x1="300.0" y1="64" x2="-28.4" y2="152.0" stroke="rgba(120,200,200,0.10)" stroke-width="0.5"/>
<line x1="300.0" y1="64" x2="640.0" y2="64.0" stroke="rgba(120,200,200,0.10)" stroke-width="0.5"/>
<line x1="300.0" y1="64" x2="-40.0" y2="64.0" stroke="rgba(120,200,200,0.10)" stroke-width="0.5"/>
<line x1="300.0" y1="64" x2="300.0" y2="408" stroke="rgba(120,200,200,0.14)" stroke-width="0.5"/>
<line x1="-40.0" y1="64" x2="640.0" y2="64" stroke="rgba(120,200,200,0.14)" stroke-width="0.5"/>
<text x="391.6" y="408.9" text-anchor="middle" fill="rgba(255,255,255,0.4)" font-size="9">15°</text>
<text x="208.4" y="408.9" text-anchor="middle" fill="rgba(255,255,255,0.4)" font-size="9">15°</text>
<text x="477.0" y="373.6" text-anchor="middle" fill="rgba(255,255,255,0.6)" font-size="9">30°</text>
<text x="123.0" y="373.6" text-anchor="middle" fill="rgba(255,255,255,0.6)" font-size="9">30°</text>
<text x="550.3" y="317.3" text-anchor="middle" fill="rgba(255,255,255,0.4)" font-size="9">45°</text>
<text x="49.7" y="317.3" text-anchor="middle" fill="rgba(255,255,255,0.4)" font-size="9">45°</text>
<text x="606.6" y="244.0" text-anchor="middle" fill="rgba(255,255,255,0.6)" font-size="9">60°</text>
<text x="-6.6" y="244.0" text-anchor="middle" fill="rgba(255,255,255,0.6)" font-size="9">60°</text>
<text x="641.9" y="158.6" text-anchor="middle" fill="rgba(255,255,255,0.4)" font-size="9">75°</text>
<text x="-41.9" y="158.6" text-anchor="middle" fill="rgba(255,255,255,0.4)" font-size="9">75°</text>
<text x="654.0" y="67.0" text-anchor="middle" fill="rgba(255,255,255,0.6)" font-size="9">90°</text>
<text x="-54.0" y="67.0" text-anchor="middle" fill="rgba(255,255,255,0.6)" font-size="9">90°</text>
<text x="300" y="426" text-anchor="middle" fill="rgba(255,255,255,0.6)" font-size="9">0°</text>
<path d="M 300.0 263.0 L 303.5 262.7 L 306.9 262.6 L 310.4 262.2 L 313.8 261.8 L 317.2 261.1 L 320.7 260.5 L 324.0 259.7 L 327.4 258.8 L 330.7 257.6 L 333.9 256.4 L 337.1 255.0 L 340.3 253.5 L 343.3 251.7 L 346.4 250.0 L 349.3 248.0 L 352.3 246.2 L 355.0 244.0 L 357.8 242.0 L 360.5 239.8 L 363.0 237.1 L 365.5 234.6 L 367.9 232.1 L 370.2 229.4 L 372.4 226.5 L 374.3 223.4 L 376.4 220.6 L 378.2 217.5 L 379.9 214.4 L 381.6 211.2 L 383.0 207.8 L 384.3 204.4 L 385.5 200.8 L 386.6 197.4 L 387.6 193.8 L 388.5 190.4 L 389.2 186.7 L 389.7 183.1 L 390.2 179.4 L 390.5 175.7 L 390.7 172.1 L 390.6 168.2 L 390.5 164.5 L 390.3 160.8 L 389.8 157.0 L 389.3 153.3 L 388.7 149.6 L 388.0 146.1 L 387.0 142.4 L 386.2 138.9 L 385.1 135.4 L 383.8 131.9 L 382.5 128.5 L 381.0 125.1 L 379.2 121.5 L 377.7 118.4 L 375.8 115.1 L 373.8 111.9 L 372.0 109.0 L 370.0 106.1 L 367.7 103.1 L 365.6 100.3 L 363.4 97.7 L 361.1 95.1 L 358.4 92.5 L 356.0 90.1 L 353.7 87.9 L 351.2 85.7 L 348.5 83.6 L 346.0 81.6 L 343.4 79.8 L 340.6 78.0 L 338.0 76.3 L 335.4 74.8 L 332.8 73.4 L 330.2 72.1 L 327.4 70.8 L 324.8 69.7 L 322.4 68.8 L 319.9 67.9 L 317.3 67.1 L 314.9 66.4 L 312.7 65.8 L 310.5 65.3 L 308.3 64.9 L 306.4 64.6 L 304.7 64.3 L 303.2 64.2 L 301.8 64.1 L 300.9 64.0 L 300.3 64.0 L 299.9 64.0 L 299.5 64.0 L 298.8 64.0 L 297.7 64.1 L 296.4 64.3 L 294.8 64.5 L 292.8 64.8 L 290.9 65.1 L 288.8 65.6 L 286.6 66.1 L 284.3 66.8 L 281.7 67.6 L 279.3 68.4 L 276.8 69.3 L 274.3 70.4 L 271.6 71.6 L 269.1 72.9 L 266.5 74.2 L 263.7 75.8 L 261.0 77.4 L 258.4 79.1 L 256.0 80.9 L 253.3 82.9 L 250.8 84.9 L 248.4 87.0 L 246.0 89.2 L 243.4 91.6 L 241.0 94.0 L 238.8 96.5 L 236.6 99.2 L 234.4 101.9 L 232.1 104.8 L 230.0 107.7 L 228.1 110.7 L 226.3 113.7 L 224.3 117.0 L 222.7 120.1 L 221.1 123.4 L 219.3 127.0 L 218.0 130.4 L 217.0 133.7 L 215.4 137.5 L 214.4 141.0 L 213.6 144.6 L 212.8 148.2 L 212.1 151.9 L 211.7 155.5 L 211.3 159.1 L 210.7 163.2 L 210.7 166.8 L 210.6 170.6 L 210.7 174.2 L 210.9 178.0 L 211.4 181.6 L 212.0 185.1 L 212.6 188.8 L 213.4 192.4 L 214.4 195.9 L 215.4 199.4 L 216.6 202.8 L 217.7 206.5 L 219.2 209.7 L 220.8 212.9 L 222.4 216.2 L 224.3 219.2 L 226.1 222.4 L 228.2 225.2 L 230.4 228.0 L 232.5 231.1 L 234.9 233.6 L 237.3 236.2 L 239.9 238.7 L 242.5 241.1 L 245.2 243.4 L 248.0 245.3 L 250.8 247.5 L 253.8 249.4 L 256.8 251.2 L 259.9 252.7 L 263.0 254.4 L 266.2 255.7 L 269.4 257.1 L 272.7 258.1 L 276.0 259.5 L 279.4 260.4 L 282.7 261.2 L 286.2 261.8 L 289.6 262.2 L 293.1 262.4 L 296.5 262.6 L 300.0 263.0 Z" fill="none" stroke="#3FA9F5" stroke-width="1.7" stroke-linejoin="round" stroke-linecap="round"/>
<path d="M 300.0 263.0 L 303.5 265.9 L 307.2 269.0 L 310.9 272.1 L 314.7 274.7 L 318.7 277.6 L 322.7 280.2 L 326.9 283.0 L 331.2 286.1 L 335.6 288.9 L 340.1 291.4 L 344.7 293.9 L 349.2 295.7 L 353.9 297.5 L 358.6 298.9 L 363.3 300.3 L 368.1 301.5 L 373.0 302.7 L 378.0 304.1 L 383.2 305.5 L 388.2 306.3 L 393.4 307.4 L 398.6 308.1 L 403.8 308.5 L 408.8 308.3 L 413.6 307.6 L 418.2 306.3 L 422.5 304.5 L 426.3 301.6 L 429.9 298.3 L 432.9 294.2 L 435.6 289.7 L 437.7 284.4 L 439.5 278.7 L 440.1 271.8 L 441.1 265.5 L 441.5 258.7 L 441.6 251.9 L 440.9 244.4 L 440.4 237.4 L 439.4 230.1 L 438.1 222.9 L 436.5 215.6 L 434.7 208.5 L 432.9 201.6 L 430.2 194.2 L 427.7 187.3 L 425.3 180.8 L 422.5 174.3 L 419.4 167.8 L 416.7 161.9 L 413.8 156.1 L 411.0 150.7 L 407.9 145.3 L 404.3 139.7 L 400.7 134.5 L 397.3 129.6 L 393.7 124.9 L 390.5 120.6 L 387.4 116.5 L 384.3 112.7 L 381.0 108.9 L 378.0 105.5 L 374.9 102.2 L 371.9 99.1 L 369.0 96.2 L 365.9 93.3 L 363.2 90.8 L 360.6 88.5 L 357.8 86.2 L 355.3 84.1 L 352.8 82.2 L 350.4 80.4 L 347.8 78.6 L 345.5 77.0 L 343.3 75.6 L 341.0 74.2 L 338.8 73.0 L 336.4 71.7 L 334.3 70.7 L 332.3 69.7 L 330.2 68.8 L 328.0 67.9 L 326.0 67.2 L 324.1 66.5 L 322.2 65.9 L 320.1 65.4 L 318.2 65.0 L 316.4 64.6 L 314.6 64.3 L 312.7 64.0 L 299.9 64.0 L 299.9 64.0 L 299.9 64.0 L 299.9 64.0 L 300.0 64.0 L 300.0 64.0 L 300.0 64.0 L 300.0 64.0 L 300.0 64.0 L 300.0 64.0 L 300.0 64.0 L 300.0 64.0 L 299.8 64.1 L 299.3 64.2 L 298.4 64.4 L 297.5 64.7 L 296.6 65.0 L 295.5 65.4 L 294.1 65.9 L 292.6 66.6 L 291.1 67.3 L 289.6 68.0 L 288.2 68.8 L 286.8 69.6 L 285.1 70.6 L 283.7 71.6 L 282.1 72.7 L 280.6 73.9 L 278.9 75.2 L 277.2 76.6 L 275.7 78.1 L 274.1 79.6 L 272.5 81.2 L 271.1 82.8 L 269.7 84.5 L 268.2 86.3 L 266.7 88.2 L 265.3 90.2 L 263.9 92.2 L 262.6 94.3 L 261.0 96.7 L 259.8 99.0 L 258.4 101.4 L 257.3 103.9 L 255.9 106.6 L 254.7 109.3 L 253.6 112.0 L 252.5 114.9 L 251.5 117.8 L 250.5 120.9 L 249.6 124.1 L 248.7 127.4 L 248.0 130.6 L 247.5 133.7 L 247.0 137.0 L 246.6 140.3 L 246.4 143.5 L 246.1 147.0 L 246.1 150.2 L 246.2 153.5 L 246.4 156.8 L 246.5 160.4 L 247.0 163.8 L 247.5 167.0 L 248.1 170.4 L 248.8 173.9 L 249.7 177.1 L 250.5 180.5 L 251.5 184.1 L 252.6 187.5 L 253.7 191.1 L 255.0 194.6 L 256.5 197.8 L 258.0 201.3 L 259.6 204.9 L 261.2 208.7 L 263.0 212.2 L 265.0 215.6 L 267.0 219.2 L 269.1 222.9 L 271.3 226.6 L 273.6 230.5 L 276.1 234.1 L 278.6 238.0 L 281.3 241.9 L 284.1 245.7 L 287.0 249.7 L 290.1 253.1 L 293.3 256.5 L 296.6 259.9 L 300.0 263.0 Z" fill="none" stroke="#F32740" stroke-width="2.0" stroke-linejoin="round" stroke-linecap="round"/>
<text x="338" y="132" fill="#F32740" font-size="9.5" font-weight="700">125</text>
<text x="335" y="200" fill="#F32740" font-size="9.5" font-weight="700">250</text>
<text x="335" y="268" fill="#F32740" font-size="9.5" font-weight="700">375</text>
<text x="335" y="336" fill="#F32740" font-size="9.5" font-weight="700">500</text>
<rect x="274.0" y="58" width="52" height="11" rx="1.5" fill="#fafbfc" stroke="rgba(255,255,255,0.4)" stroke-width="0.5"/>
<line x1="272.0" y1="69.8" x2="328.0" y2="69.8" stroke="#F32740" stroke-width="0.7" stroke-dasharray="1.5 2"/>
<text x="300" y="66" text-anchor="middle" fill="#F32740" font-size="8" font-weight="700" letter-spacing="0.5">cd/klm SCALE</text>
<g transform="translate(22, 434)">
<text x="0" y="-8" fill="rgba(255,255,255,0.55)" font-size="8" letter-spacing="1.4">cd/klm</text>
<line x1="0" y1="6" x2="22" y2="6" stroke="#F32740" stroke-width="2.2"/>
<text x="28" y="9" fill="rgba(255,255,255,0.7)" font-size="9.5">C0 – C180</text>
<line x1="120" y1="6" x2="142" y2="6" stroke="#3FA9F5" stroke-width="1.7"/>
<text x="148" y="9" fill="rgba(255,255,255,0.7)" font-size="9.5">C90 – C270</text>
</g>
<text x="578" y="402" fill="rgba(255,255,255,0.45)" font-size="9" text-anchor="end">η = 146 lm/W</text>
<text x="578" y="418" fill="rgba(255,255,255,0.45)" font-size="9" text-anchor="end">5,265 lm · 36.1W</text>
<text x="578" y="434" fill="rgba(255,255,255,0.55)" font-size="8" letter-spacing="1.4" text-anchor="end">PEAK INTENSITY</text>
<text x="578" y="451" fill="#fff" font-weight="700" font-size="14" text-anchor="end">2,612 cd</text>
</svg>