<svg viewBox="0 0 600 460" xmlns="http://www.w3.org/2000/svg" font-family="JetBrains Mono, monospace" font-size="9.5">
<rect width="100%" height="100%" fill="#14171b"/>
<text x="22" y="26" fill="#F32740" font-weight="700" letter-spacing="2">LWPC60-S3N2-UD-BA-PSB_BA45_LV4-24W_5000K · 0W · — · FULL CUTOFF</text>
<text x="22" y="42" fill="rgba(255,255,255,0.55)" font-size="8" letter-spacing="1.4">LUMINOUS INTENSITY DISTRIBUTION (cd/klm)</text>
<path d="M 232.0 64.0 A 68.0 68.0 0 0 0 368.0 64.0" fill="none" stroke="rgba(120,200,200,0.18)" stroke-width="0.7"/>
<path d="M 164.0 64.0 A 136.0 136.0 0 0 0 436.0 64.0" fill="none" stroke="rgba(120,200,200,0.18)" stroke-width="0.7"/>
<path d="M 96.0 64.0 A 204.0 204.0 0 0 0 504.0 64.0" fill="none" stroke="rgba(120,200,200,0.18)" stroke-width="0.7"/>
<path d="M 28.0 64.0 A 272.0 272.0 0 0 0 572.0 64.0" fill="none" stroke="rgba(120,200,200,0.18)" stroke-width="0.7"/>
<path d="M -40.0 64.0 A 340.0 340.0 0 0 0 640.0 64.0" fill="none" stroke="rgba(120,200,200,0.18)" stroke-width="0.7"/>
<line x1="300.0" y1="64" x2="388.0" y2="392.4" stroke="rgba(120,200,200,0.10)" stroke-width="0.5"/>
<line x1="300.0" y1="64" x2="212.0" y2="392.4" stroke="rgba(120,200,200,0.10)" stroke-width="0.5"/>
<line x1="300.0" y1="64" x2="470.0" y2="358.4" stroke="rgba(120,200,200,0.10)" stroke-width="0.5"/>
<line x1="300.0" y1="64" x2="130.0" y2="358.4" stroke="rgba(120,200,200,0.10)" stroke-width="0.5"/>
<line x1="300.0" y1="64" x2="540.4" y2="304.4" stroke="rgba(120,200,200,0.10)" stroke-width="0.5"/>
<line x1="300.0" y1="64" x2="59.6" y2="304.4" stroke="rgba(120,200,200,0.10)" stroke-width="0.5"/>
<line x1="300.0" y1="64" x2="594.4" y2="234.0" stroke="rgba(120,200,200,0.10)" stroke-width="0.5"/>
<line x1="300.0" y1="64" x2="5.6" y2="234.0" stroke="rgba(120,200,200,0.10)" stroke-width="0.5"/>
<line x1="300.0" y1="64" x2="628.4" y2="152.0" stroke="rgba(120,200,200,0.10)" stroke-width="0.5"/>
<line x1="300.0" y1="64" x2="-28.4" y2="152.0" stroke="rgba(120,200,200,0.10)" stroke-width="0.5"/>
<line x1="300.0" y1="64" x2="640.0" y2="64.0" stroke="rgba(120,200,200,0.10)" stroke-width="0.5"/>
<line x1="300.0" y1="64" x2="-40.0" y2="64.0" stroke="rgba(120,200,200,0.10)" stroke-width="0.5"/>
<line x1="300.0" y1="64" x2="300.0" y2="408" stroke="rgba(120,200,200,0.14)" stroke-width="0.5"/>
<line x1="-40.0" y1="64" x2="640.0" y2="64" stroke="rgba(120,200,200,0.14)" stroke-width="0.5"/>
<text x="391.6" y="408.9" text-anchor="middle" fill="rgba(255,255,255,0.4)" font-size="9">15°</text>
<text x="208.4" y="408.9" text-anchor="middle" fill="rgba(255,255,255,0.4)" font-size="9">15°</text>
<text x="477.0" y="373.6" text-anchor="middle" fill="rgba(255,255,255,0.6)" font-size="9">30°</text>
<text x="123.0" y="373.6" text-anchor="middle" fill="rgba(255,255,255,0.6)" font-size="9">30°</text>
<text x="550.3" y="317.3" text-anchor="middle" fill="rgba(255,255,255,0.4)" font-size="9">45°</text>
<text x="49.7" y="317.3" text-anchor="middle" fill="rgba(255,255,255,0.4)" font-size="9">45°</text>
<text x="606.6" y="244.0" text-anchor="middle" fill="rgba(255,255,255,0.6)" font-size="9">60°</text>
<text x="-6.6" y="244.0" text-anchor="middle" fill="rgba(255,255,255,0.6)" font-size="9">60°</text>
<text x="641.9" y="158.6" text-anchor="middle" fill="rgba(255,255,255,0.4)" font-size="9">75°</text>
<text x="-41.9" y="158.6" text-anchor="middle" fill="rgba(255,255,255,0.4)" font-size="9">75°</text>
<text x="654.0" y="67.0" text-anchor="middle" fill="rgba(255,255,255,0.6)" font-size="9">90°</text>
<text x="-54.0" y="67.0" text-anchor="middle" fill="rgba(255,255,255,0.6)" font-size="9">90°</text>
<text x="300" y="426" text-anchor="middle" fill="rgba(255,255,255,0.6)" font-size="9">0°</text>
<path d="M 300.0 160.1 L 301.7 159.8 L 303.3 159.8 L 305.0 159.6 L 306.7 159.3 L 308.3 158.9 L 309.9 158.6 L 311.5 158.0 L 313.1 157.5 L 314.7 156.9 L 316.3 156.3 L 317.8 155.6 L 319.3 154.8 L 320.8 154.0 L 322.2 153.1 L 323.6 152.2 L 325.0 151.2 L 326.3 150.2 L 327.7 149.1 L 328.9 147.9 L 330.1 146.6 L 331.2 145.3 L 332.3 144.1 L 333.4 142.8 L 334.5 141.5 L 335.4 139.9 L 336.3 138.5 L 337.2 137.1 L 338.0 135.4 L 338.7 133.9 L 339.4 132.3 L 340.1 130.8 L 340.7 129.1 L 341.2 127.5 L 341.7 125.9 L 342.2 124.2 L 342.6 122.6 L 342.8 120.8 L 343.1 119.2 L 343.4 117.5 L 343.5 115.9 L 343.6 114.1 L 343.6 112.5 L 343.7 110.9 L 343.7 109.2 L 343.7 107.7 L 343.6 106.1 L 343.4 104.5 L 343.1 102.8 L 342.8 101.2 L 342.5 99.7 L 342.1 98.1 L 341.6 96.5 L 341.0 94.9 L 340.3 93.3 L 339.6 91.7 L 338.8 90.2 L 338.0 88.7 L 337.1 87.2 L 336.1 85.7 L 335.0 84.2 L 334.0 82.8 L 332.9 81.5 L 331.8 80.2 L 330.6 78.9 L 329.3 77.6 L 328.1 76.5 L 326.8 75.4 L 325.3 74.2 L 324.0 73.2 L 322.7 72.3 L 321.3 71.3 L 319.7 70.4 L 318.3 69.6 L 316.9 68.9 L 315.5 68.2 L 314.0 67.5 L 312.6 66.9 L 311.2 66.4 L 309.8 65.9 L 308.4 65.5 L 307.1 65.1 L 305.9 64.8 L 304.7 64.6 L 303.5 64.4 L 302.6 64.2 L 301.7 64.1 L 301.0 64.1 L 300.5 64.0 L 300.2 64.0 L 300.0 64.0 L 299.8 64.0 L 299.4 64.0 L 298.8 64.0 L 298.1 64.1 L 297.2 64.2 L 296.2 64.3 L 295.0 64.5 L 293.8 64.8 L 292.5 65.1 L 291.2 65.4 L 289.7 65.8 L 288.2 66.3 L 286.8 66.8 L 285.4 67.4 L 283.7 68.1 L 282.3 68.7 L 280.8 69.5 L 279.3 70.3 L 277.7 71.2 L 276.3 72.2 L 274.9 73.1 L 273.5 74.2 L 272.0 75.3 L 270.7 76.5 L 269.4 77.6 L 268.2 78.9 L 266.8 80.2 L 265.6 81.5 L 264.5 82.9 L 263.4 84.3 L 262.4 85.7 L 261.4 87.2 L 260.4 88.7 L 259.6 90.2 L 258.6 91.9 L 257.8 93.5 L 257.2 95.1 L 256.5 96.8 L 255.9 98.4 L 255.5 100.0 L 255.1 101.7 L 254.8 103.3 L 254.5 104.9 L 254.3 106.6 L 254.3 108.2 L 254.3 109.7 L 254.3 111.3 L 254.4 112.9 L 254.4 114.7 L 254.6 116.2 L 254.8 117.8 L 255.1 119.5 L 255.4 121.1 L 255.8 122.7 L 256.2 124.3 L 256.5 126.1 L 257.0 127.7 L 257.6 129.4 L 258.2 130.9 L 258.9 132.5 L 259.6 134.1 L 260.3 135.6 L 261.1 137.1 L 262.0 138.5 L 262.9 140.0 L 263.9 141.4 L 264.9 142.8 L 266.0 144.1 L 267.1 145.4 L 268.3 146.6 L 269.4 148.0 L 270.7 149.1 L 272.0 150.2 L 273.3 151.3 L 274.7 152.2 L 276.1 153.1 L 277.6 154.0 L 279.0 154.9 L 280.5 155.7 L 282.0 156.4 L 283.6 157.0 L 285.2 157.6 L 286.8 158.1 L 288.4 158.6 L 290.0 159.0 L 291.7 159.4 L 293.3 159.6 L 295.0 159.7 L 296.7 159.8 L 298.3 159.9 L 300.0 160.1 Z" fill="none" stroke="#3FA9F5" stroke-width="1.7" stroke-linejoin="round" stroke-linecap="round"/>
<path d="M 300.0 160.1 L 301.7 163.2 L 303.6 166.2 L 305.5 168.8 L 307.5 171.3 L 309.6 173.9 L 311.8 176.5 L 314.1 178.9 L 316.5 181.3 L 319.0 184.0 L 321.5 186.2 L 324.2 188.6 L 326.9 190.7 L 329.8 193.0 L 332.7 195.1 L 335.8 197.4 L 338.9 199.5 L 342.0 201.4 L 345.3 203.4 L 348.7 205.4 L 352.1 207.2 L 355.7 209.1 L 359.5 211.4 L 363.4 213.4 L 367.3 215.1 L 371.4 217.0 L 375.5 218.9 L 379.8 220.7 L 384.1 222.2 L 388.5 223.7 L 393.0 225.1 L 397.8 226.7 L 402.4 227.8 L 406.9 228.6 L 411.6 229.4 L 416.4 230.2 L 421.1 230.7 L 425.9 231.1 L 430.9 231.6 L 436.0 231.9 L 441.3 232.4 L 446.3 232.3 L 451.9 232.7 L 456.9 232.3 L 462.7 232.5 L 467.9 231.9 L 473.1 231.1 L 477.8 229.8 L 484.5 230.2 L 487.9 227.3 L 492.7 225.7 L 497.8 224.1 L 502.9 222.5 L 507.9 220.7 L 512.6 218.5 L 517.4 216.2 L 521.8 213.6 L 525.8 210.6 L 529.4 207.4 L 532.5 203.7 L 534.9 199.6 L 536.7 195.2 L 537.7 190.4 L 538.0 185.3 L 537.5 179.8 L 536.4 174.2 L 534.8 168.6 L 532.1 162.5 L 529.3 156.7 L 526.0 150.8 L 521.9 144.8 L 518.0 139.1 L 513.6 133.4 L 509.3 128.0 L 504.4 122.6 L 498.9 117.3 L 493.7 112.3 L 488.2 107.4 L 482.8 102.9 L 476.3 98.3 L 470.7 94.1 L 464.9 90.1 L 459.3 86.4 L 453.2 82.8 L 447.8 79.5 L 442.3 76.4 L 436.1 73.5 L 430.4 70.8 L 424.6 68.3 L 419.0 66.1 L 413.7 64.0 L 299.2 64.0 L 299.2 64.0 L 299.3 64.0 L 299.3 64.0 L 299.3 64.0 L 299.3 64.1 L 299.4 64.1 L 299.4 64.1 L 299.4 64.1 L 299.4 64.1 L 299.5 64.1 L 299.5 64.1 L 299.5 64.1 L 299.6 64.1 L 299.6 64.1 L 299.6 64.1 L 299.6 64.1 L 299.6 64.1 L 299.7 64.1 L 299.7 64.1 L 299.7 64.1 L 299.7 64.1 L 299.7 64.1 L 299.8 64.1 L 299.8 64.1 L 299.8 64.1 L 299.8 64.1 L 299.8 64.1 L 299.9 64.1 L 299.9 64.1 L 299.9 64.1 L 299.9 64.1 L 299.9 64.1 L 299.9 64.1 L 299.9 64.0 L 299.9 64.0 L 300.0 64.0 L 300.0 64.0 L 300.0 64.0 L 300.0 64.0 L 300.0 64.0 L 300.0 64.0 L 300.0 64.0 L 300.0 64.0 L 300.0 64.0 L 299.9 64.1 L 299.5 64.5 L 298.9 65.1 L 298.4 65.8 L 297.8 66.5 L 297.0 67.5 L 296.2 68.7 L 295.3 70.0 L 294.5 71.4 L 293.6 72.8 L 292.9 74.2 L 292.1 75.7 L 291.3 77.4 L 290.7 78.9 L 290.0 80.6 L 289.3 82.5 L 288.7 84.4 L 288.1 86.4 L 287.5 88.4 L 287.1 90.5 L 286.7 92.6 L 286.3 94.7 L 285.9 97.1 L 285.7 99.3 L 285.6 101.6 L 285.5 103.9 L 285.4 106.3 L 285.5 108.8 L 285.5 111.4 L 285.7 114.0 L 285.9 116.7 L 286.2 119.4 L 286.5 122.4 L 287.0 125.1 L 287.6 127.9 L 288.2 130.8 L 289.0 133.7 L 289.8 136.9 L 290.7 139.9 L 291.7 142.8 L 292.8 145.9 L 294.1 148.8 L 295.4 151.9 L 296.8 154.7 L 298.4 157.5 L 300.0 160.1 Z" fill="none" stroke="#F32740" stroke-width="2.0" stroke-linejoin="round" stroke-linecap="round"/>
<text x="338" y="132" fill="#F32740" font-size="9.5" font-weight="700">125</text>
<text x="335" y="200" fill="#F32740" font-size="9.5" font-weight="700">250</text>
<text x="335" y="268" fill="#F32740" font-size="9.5" font-weight="700">375</text>
<text x="335" y="336" fill="#F32740" font-size="9.5" font-weight="700">500</text>
<rect x="274.0" y="58" width="52" height="11" rx="1.5" fill="#fafbfc" stroke="rgba(255,255,255,0.4)" stroke-width="0.5"/>
<line x1="272.0" y1="69.8" x2="328.0" y2="69.8" stroke="#F32740" stroke-width="0.7" stroke-dasharray="1.5 2"/>
<text x="300" y="66" text-anchor="middle" fill="#F32740" font-size="8" font-weight="700" letter-spacing="0.5">cd/klm SCALE</text>
<g transform="translate(22, 434)">
<text x="0" y="-8" fill="rgba(255,255,255,0.55)" font-size="8" letter-spacing="1.4">cd/klm</text>
<line x1="0" y1="6" x2="22" y2="6" stroke="#F32740" stroke-width="2.2"/>
<text x="28" y="9" fill="rgba(255,255,255,0.7)" font-size="9.5">C0 – C180</text>
<line x1="120" y1="6" x2="142" y2="6" stroke="#3FA9F5" stroke-width="1.7"/>
<text x="148" y="9" fill="rgba(255,255,255,0.7)" font-size="9.5">C90 – C270</text>
</g>
<text x="578" y="402" fill="rgba(255,255,255,0.45)" font-size="9" text-anchor="end">η = 157 lm/W</text>
<text x="578" y="418" fill="rgba(255,255,255,0.45)" font-size="9" text-anchor="end">3,789 lm · 24.2W</text>
<text x="578" y="434" fill="rgba(255,255,255,0.55)" font-size="8" letter-spacing="1.4" text-anchor="end">PEAK INTENSITY</text>
<text x="578" y="451" fill="#fff" font-weight="700" font-size="14" text-anchor="end">1,889 cd</text>
</svg>