<svg viewBox="0 0 600 460" xmlns="http://www.w3.org/2000/svg" font-family="JetBrains Mono, monospace" font-size="9.5">
<rect width="100%" height="100%" fill="#14171b"/>
<text x="22" y="26" fill="#F32740" font-weight="700" letter-spacing="2">LWPC60-S3N2-UD-BA-PSB_BA45_LV1-60W_3000K · 0W · — · FULL CUTOFF</text>
<text x="22" y="42" fill="rgba(255,255,255,0.55)" font-size="8" letter-spacing="1.4">LUMINOUS INTENSITY DISTRIBUTION (cd/klm)</text>
<path d="M 232.0 64.0 A 68.0 68.0 0 0 0 368.0 64.0" fill="none" stroke="rgba(120,200,200,0.18)" stroke-width="0.7"/>
<path d="M 164.0 64.0 A 136.0 136.0 0 0 0 436.0 64.0" fill="none" stroke="rgba(120,200,200,0.18)" stroke-width="0.7"/>
<path d="M 96.0 64.0 A 204.0 204.0 0 0 0 504.0 64.0" fill="none" stroke="rgba(120,200,200,0.18)" stroke-width="0.7"/>
<path d="M 28.0 64.0 A 272.0 272.0 0 0 0 572.0 64.0" fill="none" stroke="rgba(120,200,200,0.18)" stroke-width="0.7"/>
<path d="M -40.0 64.0 A 340.0 340.0 0 0 0 640.0 64.0" fill="none" stroke="rgba(120,200,200,0.18)" stroke-width="0.7"/>
<line x1="300.0" y1="64" x2="388.0" y2="392.4" stroke="rgba(120,200,200,0.10)" stroke-width="0.5"/>
<line x1="300.0" y1="64" x2="212.0" y2="392.4" stroke="rgba(120,200,200,0.10)" stroke-width="0.5"/>
<line x1="300.0" y1="64" x2="470.0" y2="358.4" stroke="rgba(120,200,200,0.10)" stroke-width="0.5"/>
<line x1="300.0" y1="64" x2="130.0" y2="358.4" stroke="rgba(120,200,200,0.10)" stroke-width="0.5"/>
<line x1="300.0" y1="64" x2="540.4" y2="304.4" stroke="rgba(120,200,200,0.10)" stroke-width="0.5"/>
<line x1="300.0" y1="64" x2="59.6" y2="304.4" stroke="rgba(120,200,200,0.10)" stroke-width="0.5"/>
<line x1="300.0" y1="64" x2="594.4" y2="234.0" stroke="rgba(120,200,200,0.10)" stroke-width="0.5"/>
<line x1="300.0" y1="64" x2="5.6" y2="234.0" stroke="rgba(120,200,200,0.10)" stroke-width="0.5"/>
<line x1="300.0" y1="64" x2="628.4" y2="152.0" stroke="rgba(120,200,200,0.10)" stroke-width="0.5"/>
<line x1="300.0" y1="64" x2="-28.4" y2="152.0" stroke="rgba(120,200,200,0.10)" stroke-width="0.5"/>
<line x1="300.0" y1="64" x2="640.0" y2="64.0" stroke="rgba(120,200,200,0.10)" stroke-width="0.5"/>
<line x1="300.0" y1="64" x2="-40.0" y2="64.0" stroke="rgba(120,200,200,0.10)" stroke-width="0.5"/>
<line x1="300.0" y1="64" x2="300.0" y2="408" stroke="rgba(120,200,200,0.14)" stroke-width="0.5"/>
<line x1="-40.0" y1="64" x2="640.0" y2="64" stroke="rgba(120,200,200,0.14)" stroke-width="0.5"/>
<text x="391.6" y="408.9" text-anchor="middle" fill="rgba(255,255,255,0.4)" font-size="9">15°</text>
<text x="208.4" y="408.9" text-anchor="middle" fill="rgba(255,255,255,0.4)" font-size="9">15°</text>
<text x="477.0" y="373.6" text-anchor="middle" fill="rgba(255,255,255,0.6)" font-size="9">30°</text>
<text x="123.0" y="373.6" text-anchor="middle" fill="rgba(255,255,255,0.6)" font-size="9">30°</text>
<text x="550.3" y="317.3" text-anchor="middle" fill="rgba(255,255,255,0.4)" font-size="9">45°</text>
<text x="49.7" y="317.3" text-anchor="middle" fill="rgba(255,255,255,0.4)" font-size="9">45°</text>
<text x="606.6" y="244.0" text-anchor="middle" fill="rgba(255,255,255,0.6)" font-size="9">60°</text>
<text x="-6.6" y="244.0" text-anchor="middle" fill="rgba(255,255,255,0.6)" font-size="9">60°</text>
<text x="641.9" y="158.6" text-anchor="middle" fill="rgba(255,255,255,0.4)" font-size="9">75°</text>
<text x="-41.9" y="158.6" text-anchor="middle" fill="rgba(255,255,255,0.4)" font-size="9">75°</text>
<text x="654.0" y="67.0" text-anchor="middle" fill="rgba(255,255,255,0.6)" font-size="9">90°</text>
<text x="-54.0" y="67.0" text-anchor="middle" fill="rgba(255,255,255,0.6)" font-size="9">90°</text>
<text x="300" y="426" text-anchor="middle" fill="rgba(255,255,255,0.6)" font-size="9">0°</text>
<path d="M 300.0 162.6 L 301.7 162.3 L 303.4 162.2 L 305.1 161.9 L 306.8 161.7 L 308.5 161.6 L 310.2 161.3 L 311.9 160.8 L 313.5 160.3 L 315.1 159.6 L 316.7 158.8 L 318.3 158.2 L 319.9 157.5 L 321.4 156.8 L 322.9 155.9 L 324.4 155.0 L 325.8 154.0 L 327.2 153.0 L 328.6 151.9 L 329.8 150.7 L 331.1 149.5 L 332.4 148.3 L 333.5 146.8 L 334.6 145.5 L 335.7 144.1 L 336.7 142.7 L 337.7 141.3 L 338.6 139.7 L 339.5 138.2 L 340.3 136.7 L 341.1 135.1 L 341.7 133.4 L 342.3 131.7 L 342.9 130.1 L 343.4 128.3 L 343.9 126.7 L 344.4 125.0 L 344.7 123.3 L 345.0 121.6 L 345.2 119.8 L 345.5 118.2 L 345.6 116.5 L 345.8 114.8 L 345.8 113.2 L 345.7 111.4 L 345.8 109.8 L 345.7 108.2 L 345.6 106.5 L 345.4 104.9 L 345.2 103.3 L 344.8 101.6 L 344.3 99.8 L 343.8 98.2 L 343.2 96.6 L 342.6 95.0 L 341.8 93.3 L 341.0 91.7 L 340.2 90.1 L 339.2 88.5 L 338.3 87.0 L 337.2 85.5 L 336.0 84.0 L 335.1 82.7 L 333.8 81.2 L 332.6 79.9 L 331.3 78.6 L 329.9 77.3 L 328.6 76.1 L 327.3 75.0 L 325.9 73.9 L 324.3 72.9 L 322.9 71.9 L 321.4 71.0 L 319.8 70.1 L 318.4 69.3 L 316.9 68.5 L 315.4 67.9 L 314.0 67.2 L 312.4 66.6 L 311.0 66.1 L 309.6 65.7 L 308.2 65.3 L 306.8 65.0 L 305.6 64.7 L 304.5 64.5 L 303.4 64.3 L 302.3 64.2 L 301.5 64.1 L 300.9 64.0 L 300.4 64.0 L 300.1 64.0 L 299.9 64.0 L 299.6 64.0 L 299.3 64.0 L 298.6 64.1 L 297.7 64.2 L 296.8 64.3 L 295.8 64.4 L 294.6 64.7 L 293.4 64.9 L 292.0 65.3 L 290.6 65.7 L 289.2 66.1 L 287.7 66.6 L 286.2 67.2 L 284.8 67.8 L 283.3 68.5 L 281.7 69.3 L 280.2 70.0 L 278.8 70.9 L 277.4 71.8 L 275.9 72.8 L 274.4 73.8 L 273.1 74.9 L 271.7 76.0 L 270.4 77.2 L 269.0 78.4 L 267.8 79.7 L 266.7 81.0 L 265.3 82.4 L 264.2 83.8 L 263.2 85.3 L 262.2 86.7 L 261.2 88.2 L 260.2 89.8 L 259.4 91.4 L 258.6 93.0 L 257.9 94.6 L 257.3 96.2 L 256.5 98.0 L 256.0 99.7 L 255.6 101.2 L 255.6 102.6 L 254.9 104.6 L 254.7 106.2 L 254.6 107.8 L 254.5 109.5 L 254.4 111.2 L 254.5 112.8 L 254.6 114.4 L 254.6 116.2 L 254.8 117.9 L 255.1 119.5 L 255.3 121.2 L 255.6 122.9 L 255.9 124.6 L 256.4 126.3 L 256.9 128.0 L 257.3 129.8 L 257.9 131.4 L 258.5 133.1 L 259.2 134.6 L 260.0 136.2 L 260.7 137.8 L 261.6 139.4 L 262.5 140.9 L 263.5 142.3 L 264.5 143.8 L 265.5 145.2 L 266.7 146.5 L 267.8 147.8 L 269.0 149.1 L 270.3 150.4 L 271.6 151.5 L 272.9 152.6 L 274.3 153.7 L 275.7 154.8 L 277.1 155.7 L 278.6 156.5 L 280.2 157.3 L 281.7 158.1 L 283.3 158.9 L 284.9 159.5 L 286.5 160.2 L 288.1 160.7 L 289.8 161.0 L 291.5 161.5 L 293.2 161.8 L 294.9 162.0 L 296.6 162.2 L 298.3 162.3 L 300.0 162.6 Z" fill="none" stroke="#3FA9F5" stroke-width="1.7" stroke-linejoin="round" stroke-linecap="round"/>
<path d="M 300.0 162.6 L 301.8 165.8 L 303.6 168.5 L 305.6 171.0 L 307.7 173.7 L 309.8 176.3 L 312.1 179.2 L 314.4 181.6 L 316.9 183.9 L 319.4 186.6 L 322.0 188.9 L 324.7 191.2 L 327.5 193.4 L 330.4 195.7 L 333.4 198.0 L 336.5 200.3 L 339.6 202.3 L 342.9 204.4 L 346.3 206.4 L 349.7 208.3 L 353.5 210.9 L 357.1 212.7 L 360.9 214.7 L 364.8 216.7 L 368.9 218.7 L 373.0 220.6 L 377.3 222.5 L 381.6 224.2 L 386.2 226.0 L 390.6 227.4 L 395.1 228.7 L 399.6 229.8 L 404.4 231.0 L 409.0 231.8 L 413.5 232.3 L 418.3 232.9 L 422.9 233.2 L 427.7 233.5 L 433.0 234.3 L 438.0 234.5 L 443.1 234.5 L 448.2 234.5 L 453.3 234.3 L 458.5 234.0 L 463.7 233.5 L 468.6 232.6 L 473.4 231.4 L 478.3 230.3 L 483.2 228.9 L 487.9 227.3 L 492.7 225.7 L 498.0 224.4 L 503.1 222.7 L 507.9 220.6 L 512.7 218.5 L 517.2 216.1 L 521.7 213.5 L 525.7 210.6 L 529.9 207.7 L 532.8 203.9 L 535.2 199.8 L 536.7 195.2 L 537.5 190.3 L 537.1 184.8 L 536.5 179.3 L 535.0 173.6 L 533.1 167.8 L 530.3 161.7 L 527.2 155.8 L 523.7 149.9 L 519.4 143.9 L 515.0 138.0 L 510.6 132.4 L 505.9 126.9 L 500.8 121.6 L 495.4 116.4 L 489.5 111.3 L 483.7 106.4 L 477.9 101.8 L 472.0 97.4 L 466.1 93.3 L 460.4 89.4 L 454.8 85.7 L 448.5 82.2 L 443.2 79.0 L 437.8 76.1 L 432.3 73.2 L 425.9 70.6 L 420.0 68.2 L 414.7 66.0 L 409.6 64.0 L 299.2 64.0 L 299.2 64.0 L 299.3 64.0 L 299.3 64.0 L 299.3 64.0 L 299.3 64.1 L 299.3 64.1 L 299.4 64.1 L 299.4 64.1 L 299.4 64.1 L 299.5 64.1 L 299.5 64.1 L 299.5 64.1 L 299.5 64.1 L 299.6 64.1 L 299.6 64.1 L 299.6 64.1 L 299.6 64.1 L 299.7 64.1 L 299.7 64.1 L 299.7 64.1 L 299.7 64.1 L 299.8 64.1 L 299.8 64.1 L 299.8 64.1 L 299.8 64.1 L 299.8 64.1 L 299.8 64.1 L 299.8 64.1 L 299.9 64.1 L 299.9 64.1 L 299.9 64.1 L 299.9 64.1 L 299.9 64.1 L 299.9 64.1 L 299.9 64.1 L 299.9 64.0 L 299.9 64.0 L 300.0 64.0 L 300.0 64.0 L 300.0 64.0 L 300.0 64.0 L 300.0 64.0 L 300.0 64.0 L 299.9 64.1 L 299.7 64.3 L 299.2 64.8 L 298.6 65.5 L 298.0 66.2 L 297.4 67.0 L 296.6 68.1 L 295.7 69.3 L 294.8 70.6 L 293.9 72.1 L 293.1 73.5 L 292.4 74.9 L 291.6 76.4 L 290.9 78.0 L 290.2 79.7 L 289.4 81.6 L 288.8 83.4 L 288.2 85.4 L 287.6 87.4 L 287.0 89.5 L 286.6 91.5 L 286.2 93.6 L 285.9 95.8 L 285.5 98.1 L 285.3 100.4 L 285.1 102.8 L 285.0 105.2 L 284.9 107.8 L 285.0 110.3 L 285.1 112.9 L 285.2 115.5 L 285.5 118.2 L 285.8 121.1 L 286.2 123.9 L 286.6 126.8 L 287.2 129.7 L 287.9 132.7 L 288.6 135.9 L 289.5 138.9 L 290.4 141.9 L 291.5 145.1 L 292.6 148.2 L 293.9 151.1 L 295.3 154.3 L 296.7 157.1 L 298.3 160.0 L 300.0 162.6 Z" fill="none" stroke="#F32740" stroke-width="2.0" stroke-linejoin="round" stroke-linecap="round"/>
<text x="338" y="132" fill="#F32740" font-size="9.5" font-weight="700">125</text>
<text x="335" y="200" fill="#F32740" font-size="9.5" font-weight="700">250</text>
<text x="335" y="268" fill="#F32740" font-size="9.5" font-weight="700">375</text>
<text x="335" y="336" fill="#F32740" font-size="9.5" font-weight="700">500</text>
<rect x="274.0" y="58" width="52" height="11" rx="1.5" fill="#fafbfc" stroke="rgba(255,255,255,0.4)" stroke-width="0.5"/>
<line x1="272.0" y1="69.8" x2="328.0" y2="69.8" stroke="#F32740" stroke-width="0.7" stroke-dasharray="1.5 2"/>
<text x="300" y="66" text-anchor="middle" fill="#F32740" font-size="8" font-weight="700" letter-spacing="0.5">cd/klm SCALE</text>
<g transform="translate(22, 434)">
<text x="0" y="-8" fill="rgba(255,255,255,0.55)" font-size="8" letter-spacing="1.4">cd/klm</text>
<line x1="0" y1="6" x2="22" y2="6" stroke="#F32740" stroke-width="2.2"/>
<text x="28" y="9" fill="rgba(255,255,255,0.7)" font-size="9.5">C0 – C180</text>
<line x1="120" y1="6" x2="142" y2="6" stroke="#3FA9F5" stroke-width="1.7"/>
<text x="148" y="9" fill="rgba(255,255,255,0.7)" font-size="9.5">C90 – C270</text>
</g>
<text x="578" y="402" fill="rgba(255,255,255,0.45)" font-size="9" text-anchor="end">η = 133 lm/W</text>
<text x="578" y="418" fill="rgba(255,255,255,0.45)" font-size="9" text-anchor="end">7,964 lm · 60.1W</text>
<text x="578" y="434" fill="rgba(255,255,255,0.55)" font-size="8" letter-spacing="1.4" text-anchor="end">PEAK INTENSITY</text>
<text x="578" y="451" fill="#fff" font-weight="700" font-size="14" text-anchor="end">3,976 cd</text>
</svg>