<svg viewBox="0 0 600 460" xmlns="http://www.w3.org/2000/svg" font-family="JetBrains Mono, monospace" font-size="9.5">
<rect width="100%" height="100%" fill="#14171b"/>
<text x="22" y="26" fill="#F32740" font-weight="700" letter-spacing="2">LWPC60-S3N2-UD-BA-PSB_BA0_LV1-60W_3000K · 0W · — · FULL CUTOFF</text>
<text x="22" y="42" fill="rgba(255,255,255,0.55)" font-size="8" letter-spacing="1.4">LUMINOUS INTENSITY DISTRIBUTION (cd/klm)</text>
<path d="M 232.0 64.0 A 68.0 68.0 0 0 0 368.0 64.0" fill="none" stroke="rgba(120,200,200,0.18)" stroke-width="0.7"/>
<path d="M 164.0 64.0 A 136.0 136.0 0 0 0 436.0 64.0" fill="none" stroke="rgba(120,200,200,0.18)" stroke-width="0.7"/>
<path d="M 96.0 64.0 A 204.0 204.0 0 0 0 504.0 64.0" fill="none" stroke="rgba(120,200,200,0.18)" stroke-width="0.7"/>
<path d="M 28.0 64.0 A 272.0 272.0 0 0 0 572.0 64.0" fill="none" stroke="rgba(120,200,200,0.18)" stroke-width="0.7"/>
<path d="M -40.0 64.0 A 340.0 340.0 0 0 0 640.0 64.0" fill="none" stroke="rgba(120,200,200,0.18)" stroke-width="0.7"/>
<line x1="300.0" y1="64" x2="388.0" y2="392.4" stroke="rgba(120,200,200,0.10)" stroke-width="0.5"/>
<line x1="300.0" y1="64" x2="212.0" y2="392.4" stroke="rgba(120,200,200,0.10)" stroke-width="0.5"/>
<line x1="300.0" y1="64" x2="470.0" y2="358.4" stroke="rgba(120,200,200,0.10)" stroke-width="0.5"/>
<line x1="300.0" y1="64" x2="130.0" y2="358.4" stroke="rgba(120,200,200,0.10)" stroke-width="0.5"/>
<line x1="300.0" y1="64" x2="540.4" y2="304.4" stroke="rgba(120,200,200,0.10)" stroke-width="0.5"/>
<line x1="300.0" y1="64" x2="59.6" y2="304.4" stroke="rgba(120,200,200,0.10)" stroke-width="0.5"/>
<line x1="300.0" y1="64" x2="594.4" y2="234.0" stroke="rgba(120,200,200,0.10)" stroke-width="0.5"/>
<line x1="300.0" y1="64" x2="5.6" y2="234.0" stroke="rgba(120,200,200,0.10)" stroke-width="0.5"/>
<line x1="300.0" y1="64" x2="628.4" y2="152.0" stroke="rgba(120,200,200,0.10)" stroke-width="0.5"/>
<line x1="300.0" y1="64" x2="-28.4" y2="152.0" stroke="rgba(120,200,200,0.10)" stroke-width="0.5"/>
<line x1="300.0" y1="64" x2="640.0" y2="64.0" stroke="rgba(120,200,200,0.10)" stroke-width="0.5"/>
<line x1="300.0" y1="64" x2="-40.0" y2="64.0" stroke="rgba(120,200,200,0.10)" stroke-width="0.5"/>
<line x1="300.0" y1="64" x2="300.0" y2="408" stroke="rgba(120,200,200,0.14)" stroke-width="0.5"/>
<line x1="-40.0" y1="64" x2="640.0" y2="64" stroke="rgba(120,200,200,0.14)" stroke-width="0.5"/>
<text x="391.6" y="408.9" text-anchor="middle" fill="rgba(255,255,255,0.4)" font-size="9">15°</text>
<text x="208.4" y="408.9" text-anchor="middle" fill="rgba(255,255,255,0.4)" font-size="9">15°</text>
<text x="477.0" y="373.6" text-anchor="middle" fill="rgba(255,255,255,0.6)" font-size="9">30°</text>
<text x="123.0" y="373.6" text-anchor="middle" fill="rgba(255,255,255,0.6)" font-size="9">30°</text>
<text x="550.3" y="317.3" text-anchor="middle" fill="rgba(255,255,255,0.4)" font-size="9">45°</text>
<text x="49.7" y="317.3" text-anchor="middle" fill="rgba(255,255,255,0.4)" font-size="9">45°</text>
<text x="606.6" y="244.0" text-anchor="middle" fill="rgba(255,255,255,0.6)" font-size="9">60°</text>
<text x="-6.6" y="244.0" text-anchor="middle" fill="rgba(255,255,255,0.6)" font-size="9">60°</text>
<text x="641.9" y="158.6" text-anchor="middle" fill="rgba(255,255,255,0.4)" font-size="9">75°</text>
<text x="-41.9" y="158.6" text-anchor="middle" fill="rgba(255,255,255,0.4)" font-size="9">75°</text>
<text x="654.0" y="67.0" text-anchor="middle" fill="rgba(255,255,255,0.6)" font-size="9">90°</text>
<text x="-54.0" y="67.0" text-anchor="middle" fill="rgba(255,255,255,0.6)" font-size="9">90°</text>
<text x="300" y="426" text-anchor="middle" fill="rgba(255,255,255,0.6)" font-size="9">0°</text>
<path d="M 300.0 270.1 L 303.6 269.4 L 307.2 269.0 L 310.7 268.5 L 314.3 268.1 L 317.8 267.3 L 321.3 266.7 L 324.8 265.7 L 328.2 265.0 L 331.6 263.7 L 335.0 262.4 L 338.3 260.9 L 341.4 258.9 L 344.6 257.1 L 347.7 255.2 L 350.7 253.2 L 353.7 251.1 L 356.5 248.8 L 359.2 246.3 L 362.0 244.0 L 364.5 241.3 L 367.0 238.5 L 369.4 235.8 L 371.7 232.8 L 373.7 229.6 L 375.7 226.3 L 377.6 223.1 L 379.4 219.8 L 381.1 216.6 L 382.6 213.0 L 384.0 209.5 L 385.3 206.0 L 386.5 202.5 L 387.2 198.3 L 388.1 194.7 L 388.9 191.0 L 389.5 187.2 L 389.8 183.2 L 390.2 179.4 L 390.3 175.6 L 390.3 171.6 L 390.1 167.6 L 389.8 163.8 L 389.5 160.0 L 389.0 156.2 L 388.1 152.1 L 387.3 148.3 L 386.4 144.6 L 385.3 140.8 L 384.1 137.1 L 382.8 133.5 L 381.4 129.9 L 379.9 126.5 L 378.2 122.9 L 376.3 119.4 L 374.6 116.2 L 372.6 113.0 L 370.5 109.8 L 368.5 106.8 L 366.4 103.9 L 364.0 100.9 L 361.8 98.2 L 359.5 95.6 L 357.1 93.1 L 354.7 90.7 L 352.4 88.4 L 349.6 86.1 L 347.3 84.1 L 344.9 82.1 L 342.2 80.2 L 339.8 78.5 L 337.3 76.8 L 334.9 75.3 L 332.2 73.8 L 329.8 72.5 L 327.4 71.3 L 325.0 70.2 L 322.4 69.2 L 320.1 68.3 L 317.9 67.5 L 315.7 66.8 L 313.4 66.1 L 311.4 65.6 L 309.4 65.2 L 307.5 64.8 L 305.8 64.5 L 304.3 64.3 L 302.9 64.2 L 301.8 64.1 L 300.9 64.0 L 300.0 64.0 L 300.0 64.0 L 299.7 64.0 L 299.2 64.0 L 298.3 64.1 L 297.2 64.2 L 295.9 64.4 L 294.4 64.6 L 292.6 64.9 L 290.7 65.3 L 288.8 65.8 L 286.8 66.3 L 284.5 67.0 L 282.3 67.8 L 280.1 68.6 L 277.9 69.5 L 275.3 70.6 L 273.1 71.7 L 270.7 73.0 L 268.3 74.3 L 265.6 75.8 L 263.2 77.4 L 260.8 79.0 L 258.4 80.8 L 255.8 82.8 L 253.4 84.7 L 251.0 86.8 L 248.4 89.2 L 246.1 91.4 L 243.9 93.8 L 241.6 96.4 L 239.4 99.0 L 237.0 101.9 L 234.8 104.8 L 232.8 107.7 L 230.7 110.7 L 228.9 113.8 L 226.8 117.2 L 225.0 120.5 L 223.3 123.9 L 221.6 127.5 L 220.3 130.9 L 218.7 134.7 L 218.1 137.8 L 216.3 142.1 L 215.3 145.8 L 214.4 149.6 L 213.6 153.5 L 212.9 157.4 L 212.4 161.3 L 212.1 165.1 L 211.9 169.0 L 211.6 173.2 L 211.7 177.1 L 212.0 180.8 L 212.3 184.7 L 212.8 188.6 L 213.4 192.4 L 214.2 196.1 L 215.2 199.7 L 216.2 203.5 L 217.2 207.4 L 218.6 210.9 L 220.1 214.3 L 221.6 217.9 L 223.2 221.4 L 225.1 224.7 L 227.1 227.8 L 229.2 230.8 L 231.3 234.0 L 233.7 236.8 L 236.0 239.7 L 238.6 242.4 L 241.3 244.8 L 244.0 247.3 L 246.8 249.6 L 249.6 252.0 L 252.5 254.5 L 255.6 256.4 L 258.8 257.9 L 262.0 259.7 L 265.2 261.4 L 268.5 262.8 L 271.9 264.0 L 275.3 265.3 L 278.7 266.2 L 282.2 267.2 L 285.7 267.8 L 289.3 268.4 L 292.8 268.9 L 296.4 269.3 L 300.0 270.1 Z" fill="none" stroke="#3FA9F5" stroke-width="1.7" stroke-linejoin="round" stroke-linecap="round"/>
<path d="M 300.0 270.1 L 303.7 275.3 L 307.5 277.7 L 311.3 279.8 L 315.2 281.9 L 319.2 283.8 L 323.3 285.3 L 327.3 286.5 L 331.4 287.3 L 335.4 287.6 L 339.4 287.3 L 343.2 286.4 L 346.9 284.6 L 350.4 282.4 L 353.8 279.8 L 356.8 275.9 L 359.6 271.9 L 362.2 267.4 L 364.3 261.9 L 366.4 256.9 L 368.2 251.4 L 369.7 245.6 L 371.0 239.8 L 372.0 233.6 L 372.8 227.6 L 373.5 221.6 L 373.7 215.1 L 374.1 209.4 L 374.1 203.3 L 373.7 197.0 L 373.4 191.1 L 372.5 184.7 L 371.9 179.0 L 371.0 173.3 L 370.1 168.0 L 369.1 162.8 L 368.2 157.8 L 367.0 152.9 L 365.3 147.6 L 363.6 142.6 L 362.0 137.9 L 360.4 133.5 L 358.6 129.1 L 357.1 125.2 L 355.6 121.6 L 353.9 117.9 L 352.3 114.5 L 350.6 111.2 L 348.7 107.9 L 347.1 104.9 L 345.5 102.2 L 343.8 99.5 L 342.4 97.1 L 340.8 94.7 L 339.1 92.4 L 337.7 90.4 L 336.1 88.4 L 334.6 86.5 L 333.0 84.7 L 331.6 83.0 L 330.0 81.3 L 328.4 79.8 L 327.0 78.4 L 325.5 77.0 L 324.1 75.7 L 322.7 74.6 L 321.1 73.4 L 319.7 72.4 L 318.3 71.4 L 316.7 70.4 L 315.4 69.6 L 314.0 68.8 L 312.6 68.1 L 311.1 67.4 L 309.8 66.8 L 308.5 66.3 L 307.3 65.8 L 305.9 65.4 L 304.8 65.0 L 303.7 64.7 L 302.8 64.5 L 301.9 64.3 L 301.2 64.2 L 300.7 64.1 L 300.3 64.0 L 300.2 64.0 L 300.1 64.0 L 300.1 64.0 L 300.1 64.0 L 300.1 64.0 L 300.0 64.0 L 300.0 64.0 L 295.4 64.1 L 294.2 64.2 L 292.7 64.4 L 291.3 64.6 L 290.0 64.9 L 288.6 65.2 L 287.0 65.6 L 285.6 66.0 L 284.1 66.5 L 282.6 67.1 L 281.0 67.7 L 279.2 68.4 L 277.5 69.2 L 276.0 70.0 L 274.2 70.9 L 272.7 71.8 L 271.1 72.8 L 269.5 73.9 L 267.8 75.1 L 266.1 76.3 L 264.6 77.6 L 262.9 79.0 L 261.3 80.4 L 259.5 82.0 L 257.8 83.7 L 256.3 85.3 L 254.6 87.2 L 252.9 89.0 L 251.3 91.0 L 249.7 93.0 L 248.1 95.2 L 246.6 97.4 L 245.2 99.6 L 243.8 101.9 L 242.4 104.3 L 241.0 106.9 L 239.7 109.4 L 238.7 111.9 L 237.6 114.5 L 236.7 117.1 L 235.7 119.9 L 235.1 122.5 L 234.2 125.4 L 233.6 128.1 L 233.1 130.9 L 232.7 133.7 L 232.3 136.6 L 232.0 139.5 L 231.8 142.5 L 231.8 145.3 L 231.7 148.3 L 231.7 151.4 L 231.9 154.4 L 232.0 157.6 L 232.3 160.7 L 232.5 164.0 L 232.9 167.3 L 233.4 170.5 L 234.1 173.8 L 234.7 177.0 L 235.5 180.4 L 236.3 183.9 L 237.2 187.2 L 238.0 191.2 L 239.0 194.8 L 240.2 198.2 L 241.3 202.2 L 242.7 205.9 L 244.1 209.6 L 245.7 213.2 L 247.4 216.8 L 249.2 220.2 L 251.2 223.6 L 253.3 226.8 L 255.5 230.1 L 257.8 233.2 L 260.2 236.3 L 262.7 239.6 L 265.1 243.3 L 267.8 246.5 L 270.6 249.6 L 273.5 252.8 L 276.4 256.0 L 279.5 259.0 L 282.7 261.8 L 286.0 264.5 L 289.4 266.8 L 292.8 269.0 L 296.4 271.0 L 300.0 270.1 Z" fill="none" stroke="#F32740" stroke-width="2.0" stroke-linejoin="round" stroke-linecap="round"/>
<text x="338" y="132" fill="#F32740" font-size="9.5" font-weight="700">150</text>
<text x="335" y="200" fill="#F32740" font-size="9.5" font-weight="700">300</text>
<text x="335" y="268" fill="#F32740" font-size="9.5" font-weight="700">450</text>
<text x="335" y="336" fill="#F32740" font-size="9.5" font-weight="700">600</text>
<rect x="274.0" y="58" width="52" height="11" rx="1.5" fill="#fafbfc" stroke="rgba(255,255,255,0.4)" stroke-width="0.5"/>
<line x1="272.0" y1="69.8" x2="328.0" y2="69.8" stroke="#F32740" stroke-width="0.7" stroke-dasharray="1.5 2"/>
<text x="300" y="66" text-anchor="middle" fill="#F32740" font-size="8" font-weight="700" letter-spacing="0.5">cd/klm SCALE</text>
<g transform="translate(22, 434)">
<text x="0" y="-8" fill="rgba(255,255,255,0.55)" font-size="8" letter-spacing="1.4">cd/klm</text>
<line x1="0" y1="6" x2="22" y2="6" stroke="#F32740" stroke-width="2.2"/>
<text x="28" y="9" fill="rgba(255,255,255,0.7)" font-size="9.5">C0 – C180</text>
<line x1="120" y1="6" x2="142" y2="6" stroke="#3FA9F5" stroke-width="1.7"/>
<text x="148" y="9" fill="rgba(255,255,255,0.7)" font-size="9.5">C90 – C270</text>
</g>
<text x="578" y="402" fill="rgba(255,255,255,0.45)" font-size="9" text-anchor="end">η = 133 lm/W</text>
<text x="578" y="418" fill="rgba(255,255,255,0.45)" font-size="9" text-anchor="end">7,973 lm · 60.1W</text>
<text x="578" y="434" fill="rgba(255,255,255,0.55)" font-size="8" letter-spacing="1.4" text-anchor="end">PEAK INTENSITY</text>
<text x="578" y="451" fill="#fff" font-weight="700" font-size="14" text-anchor="end">3,988 cd</text>
</svg>