<svg viewBox="0 0 600 460" xmlns="http://www.w3.org/2000/svg" font-family="JetBrains Mono, monospace" font-size="9.5">
<rect width="100%" height="100%" fill="#14171b"/>
<text x="22" y="26" fill="#F32740" font-weight="700" letter-spacing="2">LWPC60-S3N2-UD-BA-PSB_BA0_LV2-48W_4000K · 0W · — · FULL CUTOFF</text>
<text x="22" y="42" fill="rgba(255,255,255,0.55)" font-size="8" letter-spacing="1.4">LUMINOUS INTENSITY DISTRIBUTION (cd/klm)</text>
<path d="M 232.0 64.0 A 68.0 68.0 0 0 0 368.0 64.0" fill="none" stroke="rgba(120,200,200,0.18)" stroke-width="0.7"/>
<path d="M 164.0 64.0 A 136.0 136.0 0 0 0 436.0 64.0" fill="none" stroke="rgba(120,200,200,0.18)" stroke-width="0.7"/>
<path d="M 96.0 64.0 A 204.0 204.0 0 0 0 504.0 64.0" fill="none" stroke="rgba(120,200,200,0.18)" stroke-width="0.7"/>
<path d="M 28.0 64.0 A 272.0 272.0 0 0 0 572.0 64.0" fill="none" stroke="rgba(120,200,200,0.18)" stroke-width="0.7"/>
<path d="M -40.0 64.0 A 340.0 340.0 0 0 0 640.0 64.0" fill="none" stroke="rgba(120,200,200,0.18)" stroke-width="0.7"/>
<line x1="300.0" y1="64" x2="388.0" y2="392.4" stroke="rgba(120,200,200,0.10)" stroke-width="0.5"/>
<line x1="300.0" y1="64" x2="212.0" y2="392.4" stroke="rgba(120,200,200,0.10)" stroke-width="0.5"/>
<line x1="300.0" y1="64" x2="470.0" y2="358.4" stroke="rgba(120,200,200,0.10)" stroke-width="0.5"/>
<line x1="300.0" y1="64" x2="130.0" y2="358.4" stroke="rgba(120,200,200,0.10)" stroke-width="0.5"/>
<line x1="300.0" y1="64" x2="540.4" y2="304.4" stroke="rgba(120,200,200,0.10)" stroke-width="0.5"/>
<line x1="300.0" y1="64" x2="59.6" y2="304.4" stroke="rgba(120,200,200,0.10)" stroke-width="0.5"/>
<line x1="300.0" y1="64" x2="594.4" y2="234.0" stroke="rgba(120,200,200,0.10)" stroke-width="0.5"/>
<line x1="300.0" y1="64" x2="5.6" y2="234.0" stroke="rgba(120,200,200,0.10)" stroke-width="0.5"/>
<line x1="300.0" y1="64" x2="628.4" y2="152.0" stroke="rgba(120,200,200,0.10)" stroke-width="0.5"/>
<line x1="300.0" y1="64" x2="-28.4" y2="152.0" stroke="rgba(120,200,200,0.10)" stroke-width="0.5"/>
<line x1="300.0" y1="64" x2="640.0" y2="64.0" stroke="rgba(120,200,200,0.10)" stroke-width="0.5"/>
<line x1="300.0" y1="64" x2="-40.0" y2="64.0" stroke="rgba(120,200,200,0.10)" stroke-width="0.5"/>
<line x1="300.0" y1="64" x2="300.0" y2="408" stroke="rgba(120,200,200,0.14)" stroke-width="0.5"/>
<line x1="-40.0" y1="64" x2="640.0" y2="64" stroke="rgba(120,200,200,0.14)" stroke-width="0.5"/>
<text x="391.6" y="408.9" text-anchor="middle" fill="rgba(255,255,255,0.4)" font-size="9">15°</text>
<text x="208.4" y="408.9" text-anchor="middle" fill="rgba(255,255,255,0.4)" font-size="9">15°</text>
<text x="477.0" y="373.6" text-anchor="middle" fill="rgba(255,255,255,0.6)" font-size="9">30°</text>
<text x="123.0" y="373.6" text-anchor="middle" fill="rgba(255,255,255,0.6)" font-size="9">30°</text>
<text x="550.3" y="317.3" text-anchor="middle" fill="rgba(255,255,255,0.4)" font-size="9">45°</text>
<text x="49.7" y="317.3" text-anchor="middle" fill="rgba(255,255,255,0.4)" font-size="9">45°</text>
<text x="606.6" y="244.0" text-anchor="middle" fill="rgba(255,255,255,0.6)" font-size="9">60°</text>
<text x="-6.6" y="244.0" text-anchor="middle" fill="rgba(255,255,255,0.6)" font-size="9">60°</text>
<text x="641.9" y="158.6" text-anchor="middle" fill="rgba(255,255,255,0.4)" font-size="9">75°</text>
<text x="-41.9" y="158.6" text-anchor="middle" fill="rgba(255,255,255,0.4)" font-size="9">75°</text>
<text x="654.0" y="67.0" text-anchor="middle" fill="rgba(255,255,255,0.6)" font-size="9">90°</text>
<text x="-54.0" y="67.0" text-anchor="middle" fill="rgba(255,255,255,0.6)" font-size="9">90°</text>
<text x="300" y="426" text-anchor="middle" fill="rgba(255,255,255,0.6)" font-size="9">0°</text>
<path d="M 300.0 303.2 L 304.2 302.9 L 308.3 302.4 L 312.5 302.2 L 316.6 301.6 L 320.7 300.8 L 324.8 299.6 L 328.8 298.6 L 332.8 297.5 L 336.8 296.1 L 340.7 294.6 L 344.5 292.9 L 348.2 291.0 L 351.9 288.8 L 355.4 286.1 L 358.9 283.8 L 362.3 281.2 L 365.6 278.6 L 368.9 275.9 L 372.0 273.1 L 375.0 270.2 L 377.9 267.0 L 380.5 263.4 L 383.2 260.0 L 385.8 256.6 L 388.1 252.9 L 390.3 249.2 L 392.3 245.1 L 394.2 241.2 L 396.1 237.3 L 397.8 233.3 L 399.3 229.2 L 400.5 224.8 L 401.8 220.8 L 402.8 216.5 L 403.3 211.6 L 404.1 207.3 L 404.6 202.9 L 405.1 198.5 L 405.3 194.0 L 405.3 189.5 L 405.2 185.1 L 405.0 180.6 L 404.6 176.2 L 403.8 171.5 L 403.2 167.2 L 402.3 162.7 L 400.9 158.1 L 399.8 153.8 L 398.5 149.6 L 397.0 145.4 L 395.3 141.2 L 393.5 137.0 L 391.7 133.1 L 389.3 128.9 L 387.2 125.1 L 385.0 121.3 L 382.8 117.8 L 380.2 114.1 L 377.8 110.7 L 375.4 107.5 L 372.8 104.3 L 370.1 101.3 L 367.1 98.2 L 364.4 95.4 L 361.6 92.7 L 358.9 90.2 L 355.7 87.6 L 352.8 85.3 L 350.0 83.2 L 347.0 81.1 L 344.1 79.2 L 341.3 77.4 L 338.4 75.7 L 335.1 74.1 L 332.3 72.7 L 329.6 71.4 L 326.8 70.2 L 324.1 69.1 L 321.2 68.1 L 318.7 67.3 L 316.2 66.6 L 313.8 65.9 L 311.2 65.4 L 309.1 65.0 L 307.1 64.6 L 305.1 64.4 L 303.5 64.2 L 302.2 64.1 L 301.1 64.0 L 300.0 64.0 L 300.0 64.0 L 300.0 64.0 L 298.9 64.0 L 297.8 64.1 L 296.5 64.2 L 294.7 64.5 L 292.8 64.8 L 290.9 65.1 L 288.7 65.6 L 286.1 66.2 L 283.7 66.9 L 281.1 67.7 L 278.6 68.6 L 275.6 69.6 L 272.9 70.8 L 270.1 72.0 L 267.1 73.4 L 264.3 74.9 L 261.5 76.5 L 258.6 78.2 L 255.7 80.1 L 252.4 82.3 L 249.6 84.4 L 246.7 86.6 L 243.9 89.0 L 240.9 91.6 L 238.1 94.2 L 235.4 96.9 L 232.3 100.0 L 229.7 103.0 L 227.0 106.1 L 224.5 109.3 L 221.7 112.9 L 219.3 116.4 L 217.1 119.9 L 214.7 123.7 L 212.7 127.4 L 210.7 131.3 L 208.6 135.4 L 206.8 139.5 L 205.1 143.6 L 203.2 148.2 L 201.8 152.4 L 200.6 156.7 L 199.5 161.1 L 198.3 165.7 L 197.6 170.0 L 196.9 174.5 L 196.5 178.9 L 196.2 183.5 L 195.7 188.3 L 195.8 192.6 L 195.9 197.2 L 196.3 201.6 L 196.6 206.4 L 197.2 210.8 L 198.0 215.2 L 199.0 219.5 L 200.2 223.8 L 201.4 228.1 L 202.9 232.2 L 204.5 236.2 L 206.2 240.3 L 207.9 244.8 L 210.0 248.5 L 212.2 252.2 L 214.5 255.9 L 217.0 259.5 L 219.7 262.9 L 222.4 266.2 L 225.2 269.4 L 228.2 272.5 L 231.3 275.5 L 234.5 278.3 L 237.8 281.1 L 241.2 283.5 L 244.6 286.3 L 248.2 288.4 L 251.8 290.7 L 255.5 292.7 L 259.5 294.0 L 263.3 295.5 L 267.3 297.0 L 271.2 298.3 L 275.3 299.4 L 279.3 300.3 L 283.4 301.2 L 287.5 302.3 L 291.7 302.8 L 295.8 302.9 L 300.0 303.2 Z" fill="none" stroke="#3FA9F5" stroke-width="1.7" stroke-linejoin="round" stroke-linecap="round"/>
<path d="M 300.0 303.2 L 304.2 306.1 L 308.5 308.7 L 312.9 310.9 L 317.4 313.2 L 322.0 316.0 L 326.7 318.0 L 331.5 320.3 L 336.3 322.2 L 341.1 323.4 L 345.9 324.5 L 350.9 325.6 L 355.7 325.9 L 360.6 326.4 L 365.2 325.4 L 369.5 323.5 L 373.7 321.0 L 377.5 317.6 L 381.0 313.2 L 384.2 308.6 L 387.2 303.5 L 389.7 297.7 L 391.7 290.9 L 393.6 284.5 L 395.3 278.0 L 396.4 270.8 L 397.3 263.6 L 398.1 256.6 L 398.6 249.4 L 398.8 242.3 L 398.8 235.1 L 398.0 227.1 L 397.6 220.1 L 396.6 212.7 L 395.7 205.9 L 394.5 199.0 L 393.3 192.4 L 391.5 185.5 L 390.1 179.3 L 388.5 173.3 L 386.7 167.4 L 384.8 161.5 L 382.1 155.2 L 379.9 149.7 L 377.8 144.6 L 375.5 139.5 L 374.0 135.4 L 371.2 130.4 L 369.2 126.3 L 366.6 121.9 L 364.3 118.0 L 362.1 114.3 L 359.8 110.7 L 357.7 107.4 L 355.5 104.3 L 353.4 101.4 L 351.4 98.7 L 349.2 96.0 L 347.4 93.6 L 345.4 91.3 L 343.5 89.1 L 341.3 86.9 L 339.4 85.0 L 337.6 83.2 L 335.7 81.4 L 333.9 79.8 L 332.0 78.2 L 330.2 76.8 L 328.4 75.5 L 326.5 74.2 L 324.7 73.0 L 323.0 71.9 L 321.3 70.9 L 319.4 69.9 L 317.7 69.1 L 316.0 68.3 L 314.3 67.6 L 312.7 66.9 L 311.0 66.3 L 309.4 65.8 L 307.8 65.4 L 306.5 65.0 L 305.0 64.7 L 303.9 64.5 L 302.8 64.3 L 301.8 64.2 L 301.1 64.1 L 300.6 64.0 L 300.3 64.0 L 300.2 64.0 L 300.0 64.0 L 300.0 64.0 L 298.5 64.0 L 297.6 64.1 L 296.6 64.2 L 295.4 64.3 L 293.9 64.5 L 292.5 64.8 L 290.7 65.1 L 289.1 65.5 L 287.6 66.0 L 286.0 66.5 L 284.3 67.1 L 282.5 67.7 L 280.8 68.4 L 279.0 69.2 L 276.9 70.2 L 275.0 71.2 L 273.2 72.2 L 271.5 73.3 L 269.6 74.5 L 267.8 75.7 L 266.0 77.0 L 264.2 78.5 L 262.4 79.9 L 260.4 81.6 L 258.7 83.3 L 257.0 85.0 L 254.9 87.0 L 253.1 88.9 L 251.4 90.9 L 250.1 92.8 L 247.7 95.4 L 246.1 97.7 L 244.5 100.1 L 242.8 102.6 L 241.1 105.2 L 239.2 108.1 L 237.8 110.9 L 236.2 113.9 L 235.0 116.7 L 233.5 119.8 L 232.4 122.7 L 231.3 125.8 L 230.2 129.1 L 229.2 132.3 L 228.4 135.6 L 227.9 138.7 L 227.3 142.0 L 226.6 145.5 L 226.3 148.8 L 226.1 152.0 L 226.0 155.4 L 225.9 158.8 L 226.0 162.2 L 226.1 165.7 L 226.4 169.1 L 226.7 172.6 L 226.8 176.6 L 227.4 180.2 L 227.9 183.9 L 228.6 187.6 L 229.4 191.3 L 230.3 195.0 L 231.3 198.8 L 232.4 202.7 L 233.5 206.6 L 234.7 210.6 L 236.0 214.8 L 237.4 219.0 L 238.9 223.1 L 240.4 227.8 L 242.1 232.1 L 244.1 236.2 L 246.1 240.4 L 248.2 244.7 L 250.5 248.6 L 253.0 252.4 L 255.6 256.2 L 258.4 259.9 L 261.1 264.3 L 264.0 267.9 L 267.1 271.8 L 270.3 275.4 L 273.6 279.1 L 277.0 282.7 L 280.5 286.6 L 284.2 290.3 L 288.0 293.9 L 291.9 297.3 L 295.9 300.8 L 300.0 303.2 Z" fill="none" stroke="#F32740" stroke-width="2.0" stroke-linejoin="round" stroke-linecap="round"/>
<text x="338" y="132" fill="#F32740" font-size="9.5" font-weight="700">125</text>
<text x="335" y="200" fill="#F32740" font-size="9.5" font-weight="700">250</text>
<text x="335" y="268" fill="#F32740" font-size="9.5" font-weight="700">375</text>
<text x="335" y="336" fill="#F32740" font-size="9.5" font-weight="700">500</text>
<rect x="274.0" y="58" width="52" height="11" rx="1.5" fill="#fafbfc" stroke="rgba(255,255,255,0.4)" stroke-width="0.5"/>
<line x1="272.0" y1="69.8" x2="328.0" y2="69.8" stroke="#F32740" stroke-width="0.7" stroke-dasharray="1.5 2"/>
<text x="300" y="66" text-anchor="middle" fill="#F32740" font-size="8" font-weight="700" letter-spacing="0.5">cd/klm SCALE</text>
<g transform="translate(22, 434)">
<text x="0" y="-8" fill="rgba(255,255,255,0.55)" font-size="8" letter-spacing="1.4">cd/klm</text>
<line x1="0" y1="6" x2="22" y2="6" stroke="#F32740" stroke-width="2.2"/>
<text x="28" y="9" fill="rgba(255,255,255,0.7)" font-size="9.5">C0 – C180</text>
<line x1="120" y1="6" x2="142" y2="6" stroke="#3FA9F5" stroke-width="1.7"/>
<text x="148" y="9" fill="rgba(255,255,255,0.7)" font-size="9.5">C90 – C270</text>
</g>
<text x="578" y="402" fill="rgba(255,255,255,0.45)" font-size="9" text-anchor="end">η = 156 lm/W</text>
<text x="578" y="418" fill="rgba(255,255,255,0.45)" font-size="9" text-anchor="end">7,163 lm · 46.0W</text>
<text x="578" y="434" fill="rgba(255,255,255,0.55)" font-size="8" letter-spacing="1.4" text-anchor="end">PEAK INTENSITY</text>
<text x="578" y="451" fill="#fff" font-weight="700" font-size="14" text-anchor="end">3,546 cd</text>
</svg>