<svg viewBox="0 0 600 460" xmlns="http://www.w3.org/2000/svg" font-family="JetBrains Mono, monospace" font-size="9.5">
<rect width="100%" height="100%" fill="#14171b"/>
<text x="22" y="26" fill="#F32740" font-weight="700" letter-spacing="2">LWPC60-S3N2-UD-BA-PSB_BA30_LV4-24W_5000K · 0W · — · FULL CUTOFF</text>
<text x="22" y="42" fill="rgba(255,255,255,0.55)" font-size="8" letter-spacing="1.4">LUMINOUS INTENSITY DISTRIBUTION (cd/klm)</text>
<path d="M 232.0 64.0 A 68.0 68.0 0 0 0 368.0 64.0" fill="none" stroke="rgba(120,200,200,0.18)" stroke-width="0.7"/>
<path d="M 164.0 64.0 A 136.0 136.0 0 0 0 436.0 64.0" fill="none" stroke="rgba(120,200,200,0.18)" stroke-width="0.7"/>
<path d="M 96.0 64.0 A 204.0 204.0 0 0 0 504.0 64.0" fill="none" stroke="rgba(120,200,200,0.18)" stroke-width="0.7"/>
<path d="M 28.0 64.0 A 272.0 272.0 0 0 0 572.0 64.0" fill="none" stroke="rgba(120,200,200,0.18)" stroke-width="0.7"/>
<path d="M -40.0 64.0 A 340.0 340.0 0 0 0 640.0 64.0" fill="none" stroke="rgba(120,200,200,0.18)" stroke-width="0.7"/>
<line x1="300.0" y1="64" x2="388.0" y2="392.4" stroke="rgba(120,200,200,0.10)" stroke-width="0.5"/>
<line x1="300.0" y1="64" x2="212.0" y2="392.4" stroke="rgba(120,200,200,0.10)" stroke-width="0.5"/>
<line x1="300.0" y1="64" x2="470.0" y2="358.4" stroke="rgba(120,200,200,0.10)" stroke-width="0.5"/>
<line x1="300.0" y1="64" x2="130.0" y2="358.4" stroke="rgba(120,200,200,0.10)" stroke-width="0.5"/>
<line x1="300.0" y1="64" x2="540.4" y2="304.4" stroke="rgba(120,200,200,0.10)" stroke-width="0.5"/>
<line x1="300.0" y1="64" x2="59.6" y2="304.4" stroke="rgba(120,200,200,0.10)" stroke-width="0.5"/>
<line x1="300.0" y1="64" x2="594.4" y2="234.0" stroke="rgba(120,200,200,0.10)" stroke-width="0.5"/>
<line x1="300.0" y1="64" x2="5.6" y2="234.0" stroke="rgba(120,200,200,0.10)" stroke-width="0.5"/>
<line x1="300.0" y1="64" x2="628.4" y2="152.0" stroke="rgba(120,200,200,0.10)" stroke-width="0.5"/>
<line x1="300.0" y1="64" x2="-28.4" y2="152.0" stroke="rgba(120,200,200,0.10)" stroke-width="0.5"/>
<line x1="300.0" y1="64" x2="640.0" y2="64.0" stroke="rgba(120,200,200,0.10)" stroke-width="0.5"/>
<line x1="300.0" y1="64" x2="-40.0" y2="64.0" stroke="rgba(120,200,200,0.10)" stroke-width="0.5"/>
<line x1="300.0" y1="64" x2="300.0" y2="408" stroke="rgba(120,200,200,0.14)" stroke-width="0.5"/>
<line x1="-40.0" y1="64" x2="640.0" y2="64" stroke="rgba(120,200,200,0.14)" stroke-width="0.5"/>
<text x="391.6" y="408.9" text-anchor="middle" fill="rgba(255,255,255,0.4)" font-size="9">15°</text>
<text x="208.4" y="408.9" text-anchor="middle" fill="rgba(255,255,255,0.4)" font-size="9">15°</text>
<text x="477.0" y="373.6" text-anchor="middle" fill="rgba(255,255,255,0.6)" font-size="9">30°</text>
<text x="123.0" y="373.6" text-anchor="middle" fill="rgba(255,255,255,0.6)" font-size="9">30°</text>
<text x="550.3" y="317.3" text-anchor="middle" fill="rgba(255,255,255,0.4)" font-size="9">45°</text>
<text x="49.7" y="317.3" text-anchor="middle" fill="rgba(255,255,255,0.4)" font-size="9">45°</text>
<text x="606.6" y="244.0" text-anchor="middle" fill="rgba(255,255,255,0.6)" font-size="9">60°</text>
<text x="-6.6" y="244.0" text-anchor="middle" fill="rgba(255,255,255,0.6)" font-size="9">60°</text>
<text x="641.9" y="158.6" text-anchor="middle" fill="rgba(255,255,255,0.4)" font-size="9">75°</text>
<text x="-41.9" y="158.6" text-anchor="middle" fill="rgba(255,255,255,0.4)" font-size="9">75°</text>
<text x="654.0" y="67.0" text-anchor="middle" fill="rgba(255,255,255,0.6)" font-size="9">90°</text>
<text x="-54.0" y="67.0" text-anchor="middle" fill="rgba(255,255,255,0.6)" font-size="9">90°</text>
<text x="300" y="426" text-anchor="middle" fill="rgba(255,255,255,0.6)" font-size="9">0°</text>
<path d="M 300.0 207.7 L 302.5 207.5 L 305.0 207.5 L 307.5 207.1 L 310.0 206.8 L 312.5 206.4 L 314.9 205.9 L 317.4 205.4 L 319.7 204.4 L 322.2 203.9 L 324.5 202.9 L 326.8 201.7 L 329.1 200.8 L 331.3 199.6 L 333.5 198.3 L 335.6 196.9 L 337.7 195.6 L 339.8 194.2 L 341.8 192.6 L 343.7 190.9 L 345.5 189.0 L 347.3 187.3 L 349.1 185.5 L 350.8 183.6 L 352.4 181.7 L 353.9 179.5 L 355.3 177.4 L 356.8 175.5 L 358.1 173.2 L 359.3 171.1 L 360.6 168.9 L 361.7 166.6 L 362.6 164.1 L 363.5 161.8 L 364.4 159.5 L 365.2 157.1 L 365.9 154.8 L 366.5 152.3 L 367.1 149.9 L 367.5 147.3 L 367.7 144.6 L 367.8 142.0 L 367.9 139.4 L 367.9 136.8 L 367.7 134.1 L 367.5 131.5 L 367.2 128.9 L 366.7 126.2 L 366.2 123.6 L 365.6 121.0 L 364.9 118.5 L 364.1 115.9 L 363.0 113.2 L 362.0 110.7 L 361.0 108.3 L 359.9 106.0 L 358.7 103.6 L 357.4 101.2 L 356.1 99.0 L 354.6 96.8 L 353.0 94.6 L 351.4 92.5 L 349.8 90.5 L 348.1 88.5 L 346.2 86.5 L 344.4 84.7 L 342.6 83.0 L 340.6 81.2 L 338.7 79.6 L 336.7 78.1 L 334.8 76.7 L 332.5 75.2 L 330.5 73.9 L 328.5 72.7 L 326.4 71.6 L 324.2 70.5 L 322.1 69.5 L 320.1 68.6 L 318.0 67.8 L 315.8 67.1 L 313.9 66.5 L 312.0 65.9 L 310.2 65.4 L 308.2 65.0 L 306.6 64.7 L 305.1 64.4 L 303.7 64.3 L 302.4 64.1 L 301.4 64.0 L 300.7 64.0 L 300.2 64.0 L 299.9 64.0 L 299.6 64.0 L 299.0 64.0 L 298.1 64.1 L 297.0 64.2 L 295.6 64.4 L 294.0 64.6 L 292.4 64.9 L 290.7 65.3 L 288.7 65.8 L 286.8 66.3 L 284.9 66.9 L 282.9 67.6 L 280.9 68.4 L 278.7 69.3 L 276.7 70.3 L 274.7 71.3 L 272.6 72.4 L 270.4 73.6 L 268.4 74.9 L 266.4 76.2 L 264.4 77.7 L 262.3 79.2 L 260.4 80.8 L 258.6 82.5 L 256.5 84.3 L 254.8 86.0 L 253.1 87.9 L 251.5 89.8 L 249.7 91.9 L 248.2 93.9 L 246.7 96.0 L 245.3 98.2 L 243.9 100.4 L 242.5 102.8 L 241.2 105.2 L 240.1 107.5 L 239.2 109.9 L 238.2 112.3 L 237.1 114.9 L 236.3 117.4 L 235.5 120.1 L 234.8 122.7 L 234.4 125.2 L 233.9 127.8 L 233.3 130.7 L 233.3 133.1 L 233.1 135.8 L 232.9 138.5 L 233.0 141.1 L 233.1 143.8 L 233.4 146.3 L 233.7 148.9 L 234.2 151.3 L 234.7 153.9 L 235.4 156.3 L 236.1 158.7 L 237.0 161.0 L 238.0 163.3 L 238.8 165.8 L 239.9 168.1 L 241.1 170.3 L 242.3 172.4 L 243.6 174.8 L 245.1 176.7 L 246.5 178.7 L 248.0 180.7 L 249.6 182.7 L 251.3 184.6 L 253.0 186.5 L 254.7 188.4 L 256.6 190.1 L 258.5 191.9 L 260.4 193.6 L 262.4 195.1 L 264.5 196.6 L 266.6 197.8 L 268.8 199.0 L 271.0 200.3 L 273.3 201.4 L 275.6 202.4 L 277.9 203.3 L 280.3 204.1 L 282.7 205.2 L 285.1 205.7 L 287.5 206.3 L 290.0 206.8 L 292.5 207.1 L 295.0 207.2 L 297.5 207.2 L 300.0 207.7 Z" fill="none" stroke="#3FA9F5" stroke-width="1.7" stroke-linejoin="round" stroke-linecap="round"/>
<path d="M 300.0 207.7 L 302.6 210.6 L 305.2 213.8 L 308.0 216.7 L 310.9 219.4 L 313.8 222.2 L 317.0 225.5 L 320.2 228.7 L 323.5 231.4 L 327.0 234.4 L 330.5 237.3 L 334.2 240.2 L 338.1 243.0 L 341.9 245.6 L 345.9 248.1 L 349.9 250.4 L 354.0 252.4 L 358.2 254.3 L 362.6 256.6 L 366.9 258.3 L 371.3 259.9 L 375.8 261.5 L 380.5 263.1 L 385.2 264.7 L 390.1 266.3 L 395.0 267.7 L 400.0 269.0 L 405.0 270.1 L 410.2 271.3 L 415.1 271.7 L 420.1 272.0 L 424.9 271.9 L 429.8 271.8 L 434.8 271.6 L 439.9 271.4 L 444.9 270.9 L 450.5 271.2 L 455.7 270.7 L 460.9 269.9 L 465.8 268.7 L 470.8 267.6 L 475.5 265.9 L 479.8 263.6 L 483.8 261.1 L 487.1 257.7 L 489.8 253.8 L 491.7 249.1 L 493.4 244.4 L 494.0 238.7 L 494.3 232.9 L 493.9 226.7 L 493.1 220.3 L 491.8 213.9 L 490.0 207.2 L 487.5 200.2 L 485.1 193.6 L 482.1 186.9 L 478.8 180.1 L 475.5 173.7 L 472.3 167.5 L 467.8 160.9 L 463.9 154.9 L 459.7 148.9 L 455.4 143.2 L 450.4 137.4 L 445.8 132.0 L 441.6 127.0 L 437.3 122.3 L 432.5 117.5 L 428.1 113.2 L 423.8 109.1 L 419.0 105.0 L 413.5 100.9 L 409.0 97.3 L 404.6 94.0 L 400.4 90.9 L 395.9 87.9 L 392.0 85.2 L 388.1 82.7 L 384.4 80.4 L 380.1 78.1 L 376.4 76.1 L 372.9 74.2 L 369.5 72.5 L 366.0 70.9 L 362.9 69.5 L 359.9 68.2 L 356.9 67.0 L 354.1 65.9 L 351.1 64.9 L 348.4 64.0 L 299.6 64.0 L 299.7 64.0 L 299.7 64.0 L 299.7 64.0 L 299.7 64.0 L 299.7 64.0 L 299.8 64.0 L 299.8 64.0 L 299.8 64.0 L 299.8 64.0 L 299.8 64.0 L 299.8 64.0 L 299.9 64.0 L 299.9 64.0 L 299.9 64.0 L 299.9 64.0 L 299.9 64.0 L 299.9 64.0 L 299.9 64.0 L 299.9 64.0 L 300.0 64.0 L 300.0 64.0 L 300.0 64.0 L 300.0 64.0 L 300.0 64.0 L 300.0 64.0 L 300.0 64.0 L 300.0 64.0 L 300.0 64.0 L 299.6 64.2 L 298.9 64.6 L 298.2 65.1 L 297.5 65.6 L 296.6 66.2 L 295.5 67.0 L 294.3 68.0 L 293.1 69.0 L 291.9 70.1 L 290.6 71.3 L 289.5 72.5 L 288.5 73.7 L 287.2 75.2 L 286.0 76.6 L 284.9 78.1 L 283.7 79.7 L 282.5 81.5 L 281.4 83.2 L 280.4 85.0 L 279.3 87.0 L 278.4 88.9 L 277.5 90.9 L 276.5 93.0 L 275.6 95.2 L 274.9 97.4 L 274.0 99.8 L 273.3 102.2 L 272.6 104.6 L 272.0 107.1 L 271.4 109.7 L 270.9 112.4 L 270.3 115.4 L 270.0 118.2 L 269.6 121.1 L 269.3 124.3 L 269.2 127.2 L 269.1 130.2 L 269.1 133.4 L 269.2 136.6 L 269.3 140.0 L 269.6 143.2 L 270.0 146.5 L 270.5 149.7 L 271.1 152.9 L 271.8 156.3 L 272.6 159.5 L 273.6 162.6 L 274.7 165.6 L 275.8 168.9 L 277.1 171.9 L 278.4 174.9 L 279.9 178.0 L 281.5 181.0 L 283.1 184.3 L 284.8 187.4 L 286.8 189.9 L 288.7 193.3 L 290.7 196.3 L 292.9 199.2 L 295.2 202.1 L 297.5 205.0 L 300.0 207.7 Z" fill="none" stroke="#F32740" stroke-width="2.0" stroke-linejoin="round" stroke-linecap="round"/>
<text x="338" y="132" fill="#F32740" font-size="9.5" font-weight="700">125</text>
<text x="335" y="200" fill="#F32740" font-size="9.5" font-weight="700">250</text>
<text x="335" y="268" fill="#F32740" font-size="9.5" font-weight="700">375</text>
<text x="335" y="336" fill="#F32740" font-size="9.5" font-weight="700">500</text>
<rect x="274.0" y="58" width="52" height="11" rx="1.5" fill="#fafbfc" stroke="rgba(255,255,255,0.4)" stroke-width="0.5"/>
<line x1="272.0" y1="69.8" x2="328.0" y2="69.8" stroke="#F32740" stroke-width="0.7" stroke-dasharray="1.5 2"/>
<text x="300" y="66" text-anchor="middle" fill="#F32740" font-size="8" font-weight="700" letter-spacing="0.5">cd/klm SCALE</text>
<g transform="translate(22, 434)">
<text x="0" y="-8" fill="rgba(255,255,255,0.55)" font-size="8" letter-spacing="1.4">cd/klm</text>
<line x1="0" y1="6" x2="22" y2="6" stroke="#F32740" stroke-width="2.2"/>
<text x="28" y="9" fill="rgba(255,255,255,0.7)" font-size="9.5">C0 – C180</text>
<line x1="120" y1="6" x2="142" y2="6" stroke="#3FA9F5" stroke-width="1.7"/>
<text x="148" y="9" fill="rgba(255,255,255,0.7)" font-size="9.5">C90 – C270</text>
</g>
<text x="578" y="402" fill="rgba(255,255,255,0.45)" font-size="9" text-anchor="end">η = 157 lm/W</text>
<text x="578" y="418" fill="rgba(255,255,255,0.45)" font-size="9" text-anchor="end">3,794 lm · 24.2W</text>
<text x="578" y="434" fill="rgba(255,255,255,0.55)" font-size="8" letter-spacing="1.4" text-anchor="end">PEAK INTENSITY</text>
<text x="578" y="451" fill="#fff" font-weight="700" font-size="14" text-anchor="end">1,879 cd</text>
</svg>