<svg viewBox="0 0 600 460" xmlns="http://www.w3.org/2000/svg" font-family="JetBrains Mono, monospace" font-size="9.5">
<rect width="100%" height="100%" fill="#14171b"/>
<text x="22" y="26" fill="#F32740" font-weight="700" letter-spacing="2">LWPC60-S3N2-UD-BA-PSB_BA45_LV4-24W_3000K · 0W · — · FULL CUTOFF</text>
<text x="22" y="42" fill="rgba(255,255,255,0.55)" font-size="8" letter-spacing="1.4">LUMINOUS INTENSITY DISTRIBUTION (cd/klm)</text>
<path d="M 232.0 64.0 A 68.0 68.0 0 0 0 368.0 64.0" fill="none" stroke="rgba(120,200,200,0.18)" stroke-width="0.7"/>
<path d="M 164.0 64.0 A 136.0 136.0 0 0 0 436.0 64.0" fill="none" stroke="rgba(120,200,200,0.18)" stroke-width="0.7"/>
<path d="M 96.0 64.0 A 204.0 204.0 0 0 0 504.0 64.0" fill="none" stroke="rgba(120,200,200,0.18)" stroke-width="0.7"/>
<path d="M 28.0 64.0 A 272.0 272.0 0 0 0 572.0 64.0" fill="none" stroke="rgba(120,200,200,0.18)" stroke-width="0.7"/>
<path d="M -40.0 64.0 A 340.0 340.0 0 0 0 640.0 64.0" fill="none" stroke="rgba(120,200,200,0.18)" stroke-width="0.7"/>
<line x1="300.0" y1="64" x2="388.0" y2="392.4" stroke="rgba(120,200,200,0.10)" stroke-width="0.5"/>
<line x1="300.0" y1="64" x2="212.0" y2="392.4" stroke="rgba(120,200,200,0.10)" stroke-width="0.5"/>
<line x1="300.0" y1="64" x2="470.0" y2="358.4" stroke="rgba(120,200,200,0.10)" stroke-width="0.5"/>
<line x1="300.0" y1="64" x2="130.0" y2="358.4" stroke="rgba(120,200,200,0.10)" stroke-width="0.5"/>
<line x1="300.0" y1="64" x2="540.4" y2="304.4" stroke="rgba(120,200,200,0.10)" stroke-width="0.5"/>
<line x1="300.0" y1="64" x2="59.6" y2="304.4" stroke="rgba(120,200,200,0.10)" stroke-width="0.5"/>
<line x1="300.0" y1="64" x2="594.4" y2="234.0" stroke="rgba(120,200,200,0.10)" stroke-width="0.5"/>
<line x1="300.0" y1="64" x2="5.6" y2="234.0" stroke="rgba(120,200,200,0.10)" stroke-width="0.5"/>
<line x1="300.0" y1="64" x2="628.4" y2="152.0" stroke="rgba(120,200,200,0.10)" stroke-width="0.5"/>
<line x1="300.0" y1="64" x2="-28.4" y2="152.0" stroke="rgba(120,200,200,0.10)" stroke-width="0.5"/>
<line x1="300.0" y1="64" x2="640.0" y2="64.0" stroke="rgba(120,200,200,0.10)" stroke-width="0.5"/>
<line x1="300.0" y1="64" x2="-40.0" y2="64.0" stroke="rgba(120,200,200,0.10)" stroke-width="0.5"/>
<line x1="300.0" y1="64" x2="300.0" y2="408" stroke="rgba(120,200,200,0.14)" stroke-width="0.5"/>
<line x1="-40.0" y1="64" x2="640.0" y2="64" stroke="rgba(120,200,200,0.14)" stroke-width="0.5"/>
<text x="391.6" y="408.9" text-anchor="middle" fill="rgba(255,255,255,0.4)" font-size="9">15°</text>
<text x="208.4" y="408.9" text-anchor="middle" fill="rgba(255,255,255,0.4)" font-size="9">15°</text>
<text x="477.0" y="373.6" text-anchor="middle" fill="rgba(255,255,255,0.6)" font-size="9">30°</text>
<text x="123.0" y="373.6" text-anchor="middle" fill="rgba(255,255,255,0.6)" font-size="9">30°</text>
<text x="550.3" y="317.3" text-anchor="middle" fill="rgba(255,255,255,0.4)" font-size="9">45°</text>
<text x="49.7" y="317.3" text-anchor="middle" fill="rgba(255,255,255,0.4)" font-size="9">45°</text>
<text x="606.6" y="244.0" text-anchor="middle" fill="rgba(255,255,255,0.6)" font-size="9">60°</text>
<text x="-6.6" y="244.0" text-anchor="middle" fill="rgba(255,255,255,0.6)" font-size="9">60°</text>
<text x="641.9" y="158.6" text-anchor="middle" fill="rgba(255,255,255,0.4)" font-size="9">75°</text>
<text x="-41.9" y="158.6" text-anchor="middle" fill="rgba(255,255,255,0.4)" font-size="9">75°</text>
<text x="654.0" y="67.0" text-anchor="middle" fill="rgba(255,255,255,0.6)" font-size="9">90°</text>
<text x="-54.0" y="67.0" text-anchor="middle" fill="rgba(255,255,255,0.6)" font-size="9">90°</text>
<text x="300" y="426" text-anchor="middle" fill="rgba(255,255,255,0.6)" font-size="9">0°</text>
<path d="M 300.0 145.9 L 301.4 145.9 L 302.9 145.8 L 304.3 145.6 L 305.7 145.3 L 307.1 145.1 L 308.5 144.9 L 309.9 144.4 L 311.2 143.9 L 312.6 143.4 L 313.9 143.0 L 315.2 142.3 L 316.5 141.8 L 317.8 141.2 L 319.1 140.5 L 320.3 139.6 L 321.5 138.8 L 322.6 138.0 L 323.7 137.0 L 324.9 136.2 L 325.9 135.1 L 326.9 134.0 L 327.8 132.9 L 328.8 131.7 L 329.6 130.6 L 330.5 129.3 L 331.3 128.1 L 332.1 126.9 L 332.8 125.6 L 333.4 124.3 L 334.0 122.9 L 334.6 121.7 L 335.2 120.3 L 335.5 118.7 L 336.0 117.4 L 336.4 116.0 L 336.7 114.6 L 337.1 113.2 L 337.3 111.7 L 337.5 110.3 L 337.7 108.9 L 337.8 107.5 L 337.9 106.0 L 337.9 104.7 L 338.0 103.3 L 338.0 102.0 L 337.9 100.6 L 337.8 99.2 L 337.6 97.9 L 337.4 96.5 L 337.0 95.1 L 336.7 93.7 L 336.3 92.4 L 335.8 91.0 L 335.2 89.5 L 334.6 88.2 L 333.9 86.9 L 333.2 85.6 L 332.4 84.3 L 331.7 83.0 L 330.8 81.8 L 329.9 80.6 L 328.9 79.4 L 328.0 78.2 L 326.9 77.1 L 325.9 76.1 L 324.7 75.0 L 323.6 74.0 L 322.5 73.1 L 321.3 72.2 L 319.8 71.2 L 318.9 70.5 L 317.7 69.7 L 316.3 69.0 L 315.1 68.3 L 313.9 67.7 L 312.6 67.1 L 311.3 66.6 L 310.1 66.2 L 308.9 65.7 L 307.7 65.4 L 306.5 65.0 L 305.5 64.8 L 304.4 64.5 L 303.4 64.4 L 302.5 64.2 L 301.8 64.1 L 301.1 64.1 L 300.5 64.0 L 300.2 64.0 L 300.0 64.0 L 300.0 64.0 L 299.8 64.0 L 299.4 64.0 L 298.8 64.1 L 298.1 64.1 L 297.4 64.2 L 296.5 64.4 L 295.4 64.6 L 294.3 64.8 L 293.2 65.1 L 292.1 65.4 L 290.8 65.8 L 289.6 66.2 L 288.4 66.7 L 287.2 67.2 L 285.9 67.8 L 284.7 68.4 L 283.4 69.1 L 282.2 69.8 L 280.9 70.6 L 279.7 71.4 L 278.5 72.2 L 277.4 73.1 L 276.2 74.1 L 275.1 75.1 L 274.1 76.1 L 273.0 77.2 L 272.0 78.3 L 271.0 79.4 L 270.1 80.6 L 269.3 81.7 L 268.3 83.1 L 267.5 84.3 L 266.7 85.6 L 266.1 86.9 L 265.3 88.3 L 264.7 89.6 L 264.1 91.0 L 263.6 92.5 L 263.3 93.8 L 262.8 95.2 L 262.5 96.6 L 262.2 98.0 L 262.1 99.3 L 261.9 100.8 L 261.9 102.1 L 261.9 103.5 L 261.9 104.8 L 262.0 106.2 L 262.1 107.6 L 262.3 108.9 L 262.4 110.4 L 262.6 111.9 L 262.9 113.2 L 263.2 114.6 L 263.5 116.1 L 264.0 117.4 L 264.4 118.8 L 265.5 119.3 L 265.4 121.6 L 265.9 123.1 L 266.5 124.4 L 267.2 125.7 L 268.0 126.9 L 268.7 128.1 L 269.5 129.4 L 270.4 130.5 L 271.3 131.7 L 272.2 132.7 L 273.2 133.9 L 274.2 135.0 L 275.2 136.0 L 276.3 137.0 L 277.4 137.8 L 278.5 138.8 L 279.7 139.7 L 281.0 140.4 L 282.2 141.2 L 283.5 141.7 L 284.8 142.4 L 286.1 143.0 L 287.4 143.5 L 288.8 144.0 L 290.1 144.4 L 291.5 144.9 L 292.9 145.2 L 294.3 145.4 L 295.7 145.7 L 297.1 145.6 L 298.6 145.8 L 300.0 145.9 Z" fill="none" stroke="#3FA9F5" stroke-width="1.7" stroke-linejoin="round" stroke-linecap="round"/>
<path d="M 300.0 145.9 L 301.5 148.6 L 303.0 151.0 L 304.7 153.2 L 306.4 155.4 L 308.2 157.4 L 310.0 159.5 L 312.0 161.5 L 314.0 163.7 L 316.1 165.7 L 318.2 167.5 L 320.5 169.7 L 322.9 171.6 L 325.2 173.3 L 327.8 175.3 L 330.3 177.1 L 333.0 179.1 L 335.7 180.7 L 338.4 182.2 L 341.3 183.9 L 344.4 185.9 L 347.4 187.4 L 350.4 188.9 L 353.7 190.5 L 357.3 192.6 L 360.7 194.2 L 364.2 195.7 L 367.9 197.3 L 371.6 198.6 L 375.3 199.9 L 378.9 200.7 L 382.9 202.0 L 387.0 203.2 L 390.8 203.8 L 394.5 204.1 L 398.7 205.0 L 402.4 204.9 L 406.6 205.4 L 410.7 205.7 L 415.2 206.2 L 419.2 206.1 L 423.7 206.2 L 428.0 206.2 L 432.6 206.2 L 437.1 206.0 L 441.5 205.5 L 445.4 204.4 L 449.3 203.3 L 453.0 201.7 L 456.9 200.3 L 461.3 199.3 L 465.5 198.0 L 469.8 196.7 L 474.0 195.1 L 477.8 193.2 L 481.5 191.1 L 485.3 189.0 L 488.7 186.5 L 492.0 184.0 L 494.3 180.7 L 496.7 177.6 L 497.8 173.7 L 498.6 169.6 L 498.3 165.0 L 498.0 160.6 L 497.2 156.0 L 495.8 151.2 L 492.4 145.7 L 490.1 140.8 L 486.8 135.7 L 483.4 130.8 L 479.6 125.8 L 475.7 121.1 L 471.8 116.5 L 467.6 112.1 L 462.4 107.5 L 458.2 103.4 L 453.5 99.4 L 448.8 95.6 L 444.0 92.0 L 438.4 88.4 L 433.5 85.1 L 428.8 82.1 L 423.9 79.2 L 419.3 76.5 L 414.7 74.0 L 410.3 71.7 L 404.6 69.5 L 399.8 67.5 L 395.2 65.7 L 390.9 64.0 L 299.5 64.0 L 299.5 64.0 L 299.5 64.0 L 299.5 64.0 L 299.5 64.0 L 299.6 64.0 L 299.6 64.0 L 299.6 64.1 L 299.6 64.1 L 299.6 64.1 L 299.7 64.1 L 299.7 64.1 L 299.7 64.1 L 299.7 64.1 L 299.7 64.1 L 299.8 64.1 L 299.8 64.1 L 299.8 64.1 L 299.8 64.1 L 299.8 64.1 L 299.9 64.1 L 299.9 64.1 L 300.0 64.0 L 300.0 64.0 L 300.0 64.0 L 300.0 64.0 L 300.0 64.0 L 300.0 64.0 L 300.0 64.0 L 300.0 64.0 L 300.0 64.0 L 300.0 64.0 L 300.0 64.0 L 300.0 64.0 L 300.0 64.0 L 300.0 64.0 L 300.0 64.0 L 300.0 64.0 L 300.0 64.0 L 300.0 64.0 L 300.0 64.0 L 300.0 64.0 L 300.0 64.0 L 300.0 64.0 L 300.0 64.0 L 299.8 64.2 L 299.4 64.7 L 298.9 65.2 L 298.4 65.7 L 297.9 66.4 L 297.2 67.4 L 296.4 68.4 L 295.7 69.5 L 295.1 70.6 L 294.4 71.7 L 293.6 73.1 L 293.1 74.3 L 292.5 75.6 L 291.9 77.0 L 291.3 78.5 L 290.7 80.1 L 290.2 81.7 L 289.7 83.3 L 289.2 85.1 L 288.9 86.8 L 288.6 88.4 L 288.3 90.2 L 288.1 92.1 L 287.8 94.1 L 287.7 96.1 L 287.6 98.0 L 287.6 100.1 L 287.6 102.1 L 287.6 104.4 L 287.8 106.6 L 288.0 108.9 L 288.2 111.1 L 288.5 113.6 L 288.9 116.0 L 289.4 118.6 L 290.0 120.9 L 290.6 123.4 L 291.3 126.1 L 292.1 128.6 L 292.9 131.3 L 293.9 133.7 L 294.9 136.2 L 296.1 138.9 L 297.3 141.3 L 298.6 143.7 L 300.0 145.9 Z" fill="none" stroke="#F32740" stroke-width="2.0" stroke-linejoin="round" stroke-linecap="round"/>
<text x="338" y="132" fill="#F32740" font-size="9.5" font-weight="700">150</text>
<text x="335" y="200" fill="#F32740" font-size="9.5" font-weight="700">300</text>
<text x="335" y="268" fill="#F32740" font-size="9.5" font-weight="700">450</text>
<text x="335" y="336" fill="#F32740" font-size="9.5" font-weight="700">600</text>
<rect x="274.0" y="58" width="52" height="11" rx="1.5" fill="#fafbfc" stroke="rgba(255,255,255,0.4)" stroke-width="0.5"/>
<line x1="272.0" y1="69.8" x2="328.0" y2="69.8" stroke="#F32740" stroke-width="0.7" stroke-dasharray="1.5 2"/>
<text x="300" y="66" text-anchor="middle" fill="#F32740" font-size="8" font-weight="700" letter-spacing="0.5">cd/klm SCALE</text>
<g transform="translate(22, 434)">
<text x="0" y="-8" fill="rgba(255,255,255,0.55)" font-size="8" letter-spacing="1.4">cd/klm</text>
<line x1="0" y1="6" x2="22" y2="6" stroke="#F32740" stroke-width="2.2"/>
<text x="28" y="9" fill="rgba(255,255,255,0.7)" font-size="9.5">C0 – C180</text>
<line x1="120" y1="6" x2="142" y2="6" stroke="#3FA9F5" stroke-width="1.7"/>
<text x="148" y="9" fill="rgba(255,255,255,0.7)" font-size="9.5">C90 – C270</text>
</g>
<text x="578" y="402" fill="rgba(255,255,255,0.45)" font-size="9" text-anchor="end">η = 152 lm/W</text>
<text x="578" y="418" fill="rgba(255,255,255,0.45)" font-size="9" text-anchor="end">3,668 lm · 24.1W</text>
<text x="578" y="434" fill="rgba(255,255,255,0.55)" font-size="8" letter-spacing="1.4" text-anchor="end">PEAK INTENSITY</text>
<text x="578" y="451" fill="#fff" font-weight="700" font-size="14" text-anchor="end">1,838 cd</text>
</svg>