<svg viewBox="0 0 600 460" xmlns="http://www.w3.org/2000/svg" font-family="JetBrains Mono, monospace" font-size="9.5">
<rect width="100%" height="100%" fill="#14171b"/>
<text x="22" y="26" fill="#F32740" font-weight="700" letter-spacing="2">LWPC60-S3N2-UD-BA-PSB_BA45_LV3-36W_3000K · 0W · — · FULL CUTOFF</text>
<text x="22" y="42" fill="rgba(255,255,255,0.55)" font-size="8" letter-spacing="1.4">LUMINOUS INTENSITY DISTRIBUTION (cd/klm)</text>
<path d="M 232.0 64.0 A 68.0 68.0 0 0 0 368.0 64.0" fill="none" stroke="rgba(120,200,200,0.18)" stroke-width="0.7"/>
<path d="M 164.0 64.0 A 136.0 136.0 0 0 0 436.0 64.0" fill="none" stroke="rgba(120,200,200,0.18)" stroke-width="0.7"/>
<path d="M 96.0 64.0 A 204.0 204.0 0 0 0 504.0 64.0" fill="none" stroke="rgba(120,200,200,0.18)" stroke-width="0.7"/>
<path d="M 28.0 64.0 A 272.0 272.0 0 0 0 572.0 64.0" fill="none" stroke="rgba(120,200,200,0.18)" stroke-width="0.7"/>
<path d="M -40.0 64.0 A 340.0 340.0 0 0 0 640.0 64.0" fill="none" stroke="rgba(120,200,200,0.18)" stroke-width="0.7"/>
<line x1="300.0" y1="64" x2="388.0" y2="392.4" stroke="rgba(120,200,200,0.10)" stroke-width="0.5"/>
<line x1="300.0" y1="64" x2="212.0" y2="392.4" stroke="rgba(120,200,200,0.10)" stroke-width="0.5"/>
<line x1="300.0" y1="64" x2="470.0" y2="358.4" stroke="rgba(120,200,200,0.10)" stroke-width="0.5"/>
<line x1="300.0" y1="64" x2="130.0" y2="358.4" stroke="rgba(120,200,200,0.10)" stroke-width="0.5"/>
<line x1="300.0" y1="64" x2="540.4" y2="304.4" stroke="rgba(120,200,200,0.10)" stroke-width="0.5"/>
<line x1="300.0" y1="64" x2="59.6" y2="304.4" stroke="rgba(120,200,200,0.10)" stroke-width="0.5"/>
<line x1="300.0" y1="64" x2="594.4" y2="234.0" stroke="rgba(120,200,200,0.10)" stroke-width="0.5"/>
<line x1="300.0" y1="64" x2="5.6" y2="234.0" stroke="rgba(120,200,200,0.10)" stroke-width="0.5"/>
<line x1="300.0" y1="64" x2="628.4" y2="152.0" stroke="rgba(120,200,200,0.10)" stroke-width="0.5"/>
<line x1="300.0" y1="64" x2="-28.4" y2="152.0" stroke="rgba(120,200,200,0.10)" stroke-width="0.5"/>
<line x1="300.0" y1="64" x2="640.0" y2="64.0" stroke="rgba(120,200,200,0.10)" stroke-width="0.5"/>
<line x1="300.0" y1="64" x2="-40.0" y2="64.0" stroke="rgba(120,200,200,0.10)" stroke-width="0.5"/>
<line x1="300.0" y1="64" x2="300.0" y2="408" stroke="rgba(120,200,200,0.14)" stroke-width="0.5"/>
<line x1="-40.0" y1="64" x2="640.0" y2="64" stroke="rgba(120,200,200,0.14)" stroke-width="0.5"/>
<text x="391.6" y="408.9" text-anchor="middle" fill="rgba(255,255,255,0.4)" font-size="9">15°</text>
<text x="208.4" y="408.9" text-anchor="middle" fill="rgba(255,255,255,0.4)" font-size="9">15°</text>
<text x="477.0" y="373.6" text-anchor="middle" fill="rgba(255,255,255,0.6)" font-size="9">30°</text>
<text x="123.0" y="373.6" text-anchor="middle" fill="rgba(255,255,255,0.6)" font-size="9">30°</text>
<text x="550.3" y="317.3" text-anchor="middle" fill="rgba(255,255,255,0.4)" font-size="9">45°</text>
<text x="49.7" y="317.3" text-anchor="middle" fill="rgba(255,255,255,0.4)" font-size="9">45°</text>
<text x="606.6" y="244.0" text-anchor="middle" fill="rgba(255,255,255,0.6)" font-size="9">60°</text>
<text x="-6.6" y="244.0" text-anchor="middle" fill="rgba(255,255,255,0.6)" font-size="9">60°</text>
<text x="641.9" y="158.6" text-anchor="middle" fill="rgba(255,255,255,0.4)" font-size="9">75°</text>
<text x="-41.9" y="158.6" text-anchor="middle" fill="rgba(255,255,255,0.4)" font-size="9">75°</text>
<text x="654.0" y="67.0" text-anchor="middle" fill="rgba(255,255,255,0.6)" font-size="9">90°</text>
<text x="-54.0" y="67.0" text-anchor="middle" fill="rgba(255,255,255,0.6)" font-size="9">90°</text>
<text x="300" y="426" text-anchor="middle" fill="rgba(255,255,255,0.6)" font-size="9">0°</text>
<path d="M 300.0 162.4 L 301.7 162.3 L 303.4 162.1 L 305.1 162.0 L 306.8 161.7 L 308.5 161.4 L 310.2 161.1 L 311.9 160.7 L 313.5 160.1 L 315.1 159.5 L 316.7 158.9 L 318.3 158.2 L 319.9 157.5 L 321.4 156.7 L 322.9 155.9 L 324.4 155.0 L 325.8 153.8 L 327.2 152.8 L 328.5 151.7 L 329.8 150.6 L 331.1 149.4 L 332.3 148.1 L 333.5 146.8 L 334.6 145.5 L 335.7 144.2 L 336.7 142.8 L 337.7 141.2 L 338.5 139.6 L 339.4 138.0 L 340.2 136.5 L 340.9 134.9 L 341.7 133.3 L 342.3 131.7 L 342.9 130.1 L 343.4 128.4 L 343.9 126.7 L 344.2 124.8 L 344.6 123.2 L 344.9 121.5 L 345.2 119.8 L 345.4 118.1 L 345.5 116.3 L 345.7 114.8 L 345.8 113.1 L 345.9 111.5 L 345.7 109.7 L 345.7 108.1 L 345.6 106.5 L 345.3 104.8 L 345.0 103.1 L 344.7 101.5 L 344.2 99.8 L 343.8 98.2 L 343.2 96.5 L 342.5 94.9 L 341.8 93.3 L 341.1 91.7 L 340.1 90.0 L 339.2 88.5 L 338.2 87.0 L 337.2 85.5 L 336.1 84.0 L 334.9 82.6 L 333.8 81.2 L 332.6 79.9 L 331.2 78.6 L 329.9 77.3 L 328.6 76.2 L 327.1 75.0 L 325.8 73.9 L 324.4 72.9 L 322.9 71.9 L 321.4 70.9 L 319.9 70.1 L 318.4 69.3 L 316.9 68.5 L 315.3 67.8 L 313.8 67.2 L 312.4 66.6 L 311.0 66.1 L 309.5 65.7 L 308.2 65.3 L 306.8 65.0 L 305.6 64.7 L 304.3 64.5 L 303.3 64.3 L 302.3 64.2 L 301.5 64.1 L 300.9 64.0 L 300.4 64.0 L 300.0 64.0 L 300.0 64.0 L 299.7 64.0 L 299.3 64.0 L 298.6 64.1 L 297.8 64.2 L 296.9 64.3 L 295.7 64.4 L 294.6 64.7 L 293.3 64.9 L 292.0 65.3 L 290.7 65.6 L 289.1 66.1 L 287.7 66.6 L 286.2 67.2 L 284.7 67.8 L 283.2 68.5 L 281.7 69.2 L 280.3 70.0 L 278.6 70.9 L 277.2 71.8 L 275.8 72.8 L 274.4 73.8 L 272.9 74.9 L 271.5 76.1 L 270.3 77.2 L 269.0 78.5 L 267.7 79.7 L 266.5 81.1 L 265.4 82.4 L 264.3 83.8 L 263.1 85.3 L 262.1 86.8 L 261.1 88.3 L 260.2 89.8 L 259.3 91.5 L 258.5 93.0 L 257.8 94.6 L 257.2 96.3 L 256.5 98.0 L 256.0 99.6 L 255.6 101.3 L 255.2 102.9 L 254.8 104.7 L 254.6 106.3 L 254.5 108.0 L 254.4 109.6 L 254.5 111.2 L 254.4 112.9 L 254.5 114.5 L 254.7 116.1 L 254.8 117.8 L 255.0 119.6 L 255.2 121.3 L 255.6 123.0 L 256.0 124.6 L 256.3 126.4 L 256.8 128.0 L 257.3 129.7 L 257.9 131.4 L 258.5 133.0 L 259.3 134.5 L 260.0 136.2 L 260.8 137.8 L 261.7 139.2 L 262.5 140.9 L 263.4 142.4 L 264.5 143.8 L 265.5 145.2 L 266.6 146.6 L 267.8 147.9 L 269.0 149.1 L 270.3 150.3 L 271.6 151.4 L 272.9 152.5 L 274.3 153.7 L 275.7 154.7 L 277.2 155.6 L 278.6 156.6 L 280.2 157.3 L 281.7 158.2 L 283.3 158.9 L 284.9 159.6 L 286.5 160.1 L 288.1 160.5 L 289.8 160.9 L 291.5 161.3 L 293.2 161.7 L 294.9 162.1 L 296.6 162.2 L 298.3 162.3 L 300.0 162.4 Z" fill="none" stroke="#3FA9F5" stroke-width="1.7" stroke-linejoin="round" stroke-linecap="round"/>
<path d="M 300.0 162.4 L 301.8 165.3 L 303.6 168.0 L 305.6 170.7 L 307.7 173.7 L 309.8 176.1 L 312.0 178.5 L 314.4 181.1 L 316.8 183.4 L 319.3 185.9 L 321.9 188.1 L 324.6 190.5 L 327.3 192.6 L 330.3 195.4 L 333.3 197.5 L 336.3 199.5 L 339.5 201.6 L 342.7 203.7 L 346.1 206.0 L 349.5 207.8 L 353.2 210.2 L 356.8 212.0 L 360.7 214.2 L 364.6 216.2 L 368.7 218.2 L 372.7 219.9 L 376.9 221.7 L 381.3 223.5 L 385.7 225.1 L 390.2 226.8 L 394.9 228.4 L 399.4 229.4 L 404.1 230.6 L 408.7 231.4 L 413.3 232.0 L 418.0 232.6 L 422.7 232.9 L 427.6 233.3 L 432.5 233.7 L 437.4 233.7 L 443.0 234.4 L 448.2 234.5 L 453.4 234.4 L 458.7 234.1 L 463.7 233.5 L 468.9 232.9 L 473.8 231.8 L 478.1 230.1 L 483.3 229.0 L 487.9 227.4 L 492.7 225.7 L 497.7 224.1 L 502.8 222.5 L 507.9 220.7 L 512.7 218.5 L 517.4 216.2 L 521.9 213.7 L 525.8 210.6 L 529.3 207.3 L 532.4 203.7 L 535.0 199.7 L 536.8 195.2 L 537.9 190.5 L 537.8 185.1 L 536.9 179.5 L 535.5 173.8 L 533.5 168.0 L 530.2 161.7 L 527.1 155.7 L 523.6 149.8 L 519.6 143.9 L 515.1 138.1 L 510.4 132.3 L 505.6 126.9 L 500.4 121.5 L 495.5 116.4 L 489.1 111.1 L 483.5 106.4 L 478.0 101.8 L 472.1 97.5 L 465.8 93.2 L 459.9 89.3 L 454.4 85.7 L 448.2 82.2 L 442.7 79.0 L 437.3 76.0 L 431.6 73.2 L 425.4 70.6 L 419.5 68.2 L 414.1 66.0 L 408.9 64.0 L 299.3 64.0 L 299.3 64.0 L 299.3 64.0 L 299.4 64.0 L 299.4 64.0 L 299.4 64.1 L 299.4 64.1 L 299.5 64.1 L 299.5 64.1 L 299.5 64.1 L 299.5 64.1 L 299.6 64.1 L 299.6 64.1 L 299.6 64.1 L 299.7 64.1 L 299.7 64.1 L 299.7 64.1 L 299.7 64.1 L 299.7 64.1 L 299.8 64.1 L 299.8 64.1 L 299.8 64.1 L 299.8 64.1 L 299.8 64.1 L 299.8 64.1 L 299.9 64.1 L 299.9 64.1 L 299.9 64.1 L 299.9 64.1 L 300.0 64.0 L 300.0 64.0 L 300.0 64.0 L 300.0 64.0 L 300.0 64.0 L 300.0 64.0 L 300.0 64.0 L 300.0 64.0 L 300.0 64.0 L 300.0 64.0 L 300.0 64.0 L 300.0 64.0 L 300.0 64.0 L 300.0 64.0 L 300.0 64.0 L 300.0 64.0 L 299.7 64.3 L 299.2 64.8 L 298.6 65.5 L 298.0 66.2 L 297.4 67.0 L 296.6 68.1 L 295.7 69.3 L 294.8 70.6 L 294.0 72.0 L 293.2 73.4 L 292.4 74.9 L 291.7 76.3 L 290.9 78.0 L 290.2 79.6 L 289.6 81.3 L 288.9 83.3 L 288.2 85.3 L 287.6 87.3 L 287.2 89.2 L 286.7 91.3 L 286.3 93.4 L 286.0 95.6 L 285.7 97.8 L 285.4 100.1 L 285.2 102.5 L 285.1 104.8 L 285.1 107.2 L 285.1 109.8 L 285.1 112.6 L 285.3 115.2 L 285.6 117.8 L 285.9 120.5 L 286.2 123.6 L 286.7 126.4 L 287.3 129.3 L 287.9 132.3 L 288.7 135.3 L 289.5 138.5 L 290.5 141.5 L 291.5 144.6 L 292.7 147.5 L 293.9 150.5 L 295.3 153.8 L 296.8 156.7 L 298.3 159.6 L 300.0 162.4 Z" fill="none" stroke="#F32740" stroke-width="2.0" stroke-linejoin="round" stroke-linecap="round"/>
<text x="338" y="132" fill="#F32740" font-size="9.5" font-weight="700">125</text>
<text x="335" y="200" fill="#F32740" font-size="9.5" font-weight="700">250</text>
<text x="335" y="268" fill="#F32740" font-size="9.5" font-weight="700">375</text>
<text x="335" y="336" fill="#F32740" font-size="9.5" font-weight="700">500</text>
<rect x="274.0" y="58" width="52" height="11" rx="1.5" fill="#fafbfc" stroke="rgba(255,255,255,0.4)" stroke-width="0.5"/>
<line x1="272.0" y1="69.8" x2="328.0" y2="69.8" stroke="#F32740" stroke-width="0.7" stroke-dasharray="1.5 2"/>
<text x="300" y="66" text-anchor="middle" fill="#F32740" font-size="8" font-weight="700" letter-spacing="0.5">cd/klm SCALE</text>
<g transform="translate(22, 434)">
<text x="0" y="-8" fill="rgba(255,255,255,0.55)" font-size="8" letter-spacing="1.4">cd/klm</text>
<line x1="0" y1="6" x2="22" y2="6" stroke="#F32740" stroke-width="2.2"/>
<text x="28" y="9" fill="rgba(255,255,255,0.7)" font-size="9.5">C0 – C180</text>
<line x1="120" y1="6" x2="142" y2="6" stroke="#3FA9F5" stroke-width="1.7"/>
<text x="148" y="9" fill="rgba(255,255,255,0.7)" font-size="9.5">C90 – C270</text>
</g>
<text x="578" y="402" fill="rgba(255,255,255,0.45)" font-size="9" text-anchor="end">η = 146 lm/W</text>
<text x="578" y="418" fill="rgba(255,255,255,0.45)" font-size="9" text-anchor="end">5,259 lm · 36.1W</text>
<text x="578" y="434" fill="rgba(255,255,255,0.55)" font-size="8" letter-spacing="1.4" text-anchor="end">PEAK INTENSITY</text>
<text x="578" y="451" fill="#fff" font-weight="700" font-size="14" text-anchor="end">2,623 cd</text>
</svg>