<svg viewBox="0 0 600 460" xmlns="http://www.w3.org/2000/svg" font-family="JetBrains Mono, monospace" font-size="9.5">
<rect width="100%" height="100%" fill="#14171b"/>
<text x="22" y="26" fill="#F32740" font-weight="700" letter-spacing="2">LWPF812 · 120W · 3000K · CLASSIC FORWARD-THROW</text>
<text x="22" y="42" fill="rgba(255,255,255,0.55)" font-size="8" letter-spacing="1.4">LUMINOUS INTENSITY DISTRIBUTION (cd/klm)</text>
<path d="M 232.0 64.0 A 68.0 68.0 0 0 0 368.0 64.0" fill="none" stroke="rgba(120,200,200,0.18)" stroke-width="0.7"/>
<path d="M 164.0 64.0 A 136.0 136.0 0 0 0 436.0 64.0" fill="none" stroke="rgba(120,200,200,0.18)" stroke-width="0.7"/>
<path d="M 96.0 64.0 A 204.0 204.0 0 0 0 504.0 64.0" fill="none" stroke="rgba(120,200,200,0.18)" stroke-width="0.7"/>
<path d="M 28.0 64.0 A 272.0 272.0 0 0 0 572.0 64.0" fill="none" stroke="rgba(120,200,200,0.18)" stroke-width="0.7"/>
<path d="M -40.0 64.0 A 340.0 340.0 0 0 0 640.0 64.0" fill="none" stroke="rgba(120,200,200,0.18)" stroke-width="0.7"/>
<line x1="300.0" y1="64" x2="388.0" y2="392.4" stroke="rgba(120,200,200,0.10)" stroke-width="0.5"/>
<line x1="300.0" y1="64" x2="212.0" y2="392.4" stroke="rgba(120,200,200,0.10)" stroke-width="0.5"/>
<line x1="300.0" y1="64" x2="470.0" y2="358.4" stroke="rgba(120,200,200,0.10)" stroke-width="0.5"/>
<line x1="300.0" y1="64" x2="130.0" y2="358.4" stroke="rgba(120,200,200,0.10)" stroke-width="0.5"/>
<line x1="300.0" y1="64" x2="540.4" y2="304.4" stroke="rgba(120,200,200,0.10)" stroke-width="0.5"/>
<line x1="300.0" y1="64" x2="59.6" y2="304.4" stroke="rgba(120,200,200,0.10)" stroke-width="0.5"/>
<line x1="300.0" y1="64" x2="594.4" y2="234.0" stroke="rgba(120,200,200,0.10)" stroke-width="0.5"/>
<line x1="300.0" y1="64" x2="5.6" y2="234.0" stroke="rgba(120,200,200,0.10)" stroke-width="0.5"/>
<line x1="300.0" y1="64" x2="628.4" y2="152.0" stroke="rgba(120,200,200,0.10)" stroke-width="0.5"/>
<line x1="300.0" y1="64" x2="-28.4" y2="152.0" stroke="rgba(120,200,200,0.10)" stroke-width="0.5"/>
<line x1="300.0" y1="64" x2="640.0" y2="64.0" stroke="rgba(120,200,200,0.10)" stroke-width="0.5"/>
<line x1="300.0" y1="64" x2="-40.0" y2="64.0" stroke="rgba(120,200,200,0.10)" stroke-width="0.5"/>
<line x1="300.0" y1="64" x2="300.0" y2="408" stroke="rgba(120,200,200,0.14)" stroke-width="0.5"/>
<line x1="-40.0" y1="64" x2="640.0" y2="64" stroke="rgba(120,200,200,0.14)" stroke-width="0.5"/>
<text x="391.6" y="408.9" text-anchor="middle" fill="rgba(255,255,255,0.4)" font-size="9">15°</text>
<text x="208.4" y="408.9" text-anchor="middle" fill="rgba(255,255,255,0.4)" font-size="9">15°</text>
<text x="477.0" y="373.6" text-anchor="middle" fill="rgba(255,255,255,0.6)" font-size="9">30°</text>
<text x="123.0" y="373.6" text-anchor="middle" fill="rgba(255,255,255,0.6)" font-size="9">30°</text>
<text x="550.3" y="317.3" text-anchor="middle" fill="rgba(255,255,255,0.4)" font-size="9">45°</text>
<text x="49.7" y="317.3" text-anchor="middle" fill="rgba(255,255,255,0.4)" font-size="9">45°</text>
<text x="606.6" y="244.0" text-anchor="middle" fill="rgba(255,255,255,0.6)" font-size="9">60°</text>
<text x="-6.6" y="244.0" text-anchor="middle" fill="rgba(255,255,255,0.6)" font-size="9">60°</text>
<text x="641.9" y="158.6" text-anchor="middle" fill="rgba(255,255,255,0.4)" font-size="9">75°</text>
<text x="-41.9" y="158.6" text-anchor="middle" fill="rgba(255,255,255,0.4)" font-size="9">75°</text>
<text x="654.0" y="67.0" text-anchor="middle" fill="rgba(255,255,255,0.6)" font-size="9">90°</text>
<text x="-54.0" y="67.0" text-anchor="middle" fill="rgba(255,255,255,0.6)" font-size="9">90°</text>
<text x="300" y="426" text-anchor="middle" fill="rgba(255,255,255,0.6)" font-size="9">0°</text>
<path d="M 300.0 229.1 L 305.8 230.2 L 311.5 228.3 L 317.3 228.2 L 322.9 226.9 L 328.7 226.6 L 334.2 224.9 L 339.3 221.8 L 344.7 219.9 L 349.8 217.2 L 354.4 213.5 L 358.6 209.0 L 362.2 203.7 L 365.3 198.0 L 368.0 191.8 L 370.3 185.7 L 372.3 179.6 L 373.7 173.3 L 374.5 166.6 L 374.8 159.7 L 374.8 153.1 L 374.3 146.5 L 373.6 140.2 L 372.5 134.1 L 370.9 127.8 L 368.9 121.8 L 366.1 115.6 L 363.0 109.8 L 360.0 104.5 L 356.5 99.3 L 352.6 94.4 L 348.4 89.7 L 344.5 85.7 L 340.4 82.0 L 336.2 78.6 L 332.2 75.7 L 328.3 73.2 L 324.5 71.0 L 321.1 69.3 L 317.9 67.8 L 314.6 66.6 L 311.3 65.6 L 307.8 64.8 L 305.6 64.4 L 304.3 64.2 L 303.7 64.0 L 295.9 64.0 L 294.8 64.2 L 293.8 64.4 L 291.5 64.9 L 288.8 65.6 L 286.3 66.4 L 283.8 67.5 L 281.1 68.7 L 278.1 70.3 L 275.0 72.1 L 271.7 74.3 L 268.3 76.8 L 264.7 79.7 L 261.2 82.9 L 258.0 86.3 L 254.5 90.3 L 251.1 94.6 L 247.4 99.5 L 243.9 104.8 L 240.9 110.2 L 238.2 115.8 L 236.0 121.6 L 234.2 127.5 L 232.5 133.9 L 231.6 139.9 L 230.7 146.5 L 230.3 153.3 L 230.8 159.3 L 231.3 165.9 L 232.1 172.6 L 233.1 179.9 L 234.8 186.7 L 236.5 194.2 L 239.1 200.8 L 242.5 206.3 L 246.3 211.5 L 250.6 216.0 L 255.5 219.3 L 260.4 222.8 L 265.6 225.7 L 271.2 227.1 L 276.9 228.1 L 282.8 227.7 L 288.5 228.6 L 294.2 229.1 L 300.0 229.1 Z" fill="none" stroke="#3FA9F5" stroke-width="1.7" stroke-linejoin="round" stroke-linecap="round"/>
<path d="M 300.0 229.1 L 306.2 240.7 L 312.9 248.6 L 321.5 268.8 L 328.7 268.5 L 331.9 244.6 L 347.6 287.8 L 353.3 277.9 L 362.4 281.6 L 370.5 280.9 L 381.4 287.8 L 395.6 300.6 L 396.8 281.4 L 410.2 289.9 L 420.0 289.8 L 426.9 283.8 L 436.4 282.3 L 443.0 276.1 L 448.3 268.1 L 449.0 254.7 L 443.7 235.2 L 442.3 222.1 L 436.1 204.9 L 426.8 186.4 L 425.3 176.8 L 427.0 170.5 L 426.3 162.7 L 426.5 155.9 L 436.1 155.8 L 439.4 151.1 L 443.2 146.7 L 449.1 143.3 L 455.0 139.6 L 459.4 135.0 L 455.8 127.0 L 453.2 119.8 L 439.5 109.3 L 418.2 97.9 L 400.0 88.9 L 381.4 81.3 L 369.8 76.3 L 358.6 72.2 L 347.8 69.0 L 337.4 66.6 L 331.8 65.1 L 330.6 64.0 L 296.9 64.0 L 296.5 64.1 L 296.0 64.3 L 295.4 64.5 L 294.8 64.7 L 294.0 65.1 L 293.1 65.5 L 292.2 65.9 L 291.1 66.6 L 289.7 67.4 L 288.1 68.3 L 286.4 69.5 L 284.6 70.8 L 282.9 72.4 L 281.2 74.0 L 279.5 75.8 L 277.8 77.8 L 276.2 80.1 L 274.6 82.5 L 273.0 85.1 L 271.5 87.9 L 270.0 91.0 L 268.7 94.3 L 267.5 97.6 L 266.4 101.3 L 265.5 105.1 L 264.7 109.2 L 264.0 113.5 L 263.7 117.8 L 263.5 122.4 L 263.9 126.6 L 264.9 129.9 L 266.3 133.1 L 267.7 136.5 L 269.1 140.5 L 269.8 146.8 L 271.2 152.6 L 272.5 159.8 L 274.4 166.5 L 276.4 175.0 L 278.7 184.9 L 281.1 198.4 L 284.9 208.1 L 289.3 217.7 L 294.3 226.9 L 300.0 229.1 Z" fill="none" stroke="#F32740" stroke-width="2.0" stroke-linejoin="round" stroke-linecap="round"/>
<text x="338" y="132" fill="#F32740" font-size="9.5" font-weight="700">125</text>
<text x="335" y="200" fill="#F32740" font-size="9.5" font-weight="700">250</text>
<text x="335" y="268" fill="#F32740" font-size="9.5" font-weight="700">375</text>
<text x="335" y="336" fill="#F32740" font-size="9.5" font-weight="700">500</text>
<rect x="274.0" y="58" width="52" height="11" rx="1.5" fill="#fafbfc" stroke="rgba(255,255,255,0.4)" stroke-width="0.5"/>
<line x1="272.0" y1="69.8" x2="328.0" y2="69.8" stroke="#F32740" stroke-width="0.7" stroke-dasharray="1.5 2"/>
<text x="300" y="66" text-anchor="middle" fill="#F32740" font-size="8" font-weight="700" letter-spacing="0.5">cd/klm SCALE</text>
<g transform="translate(22, 434)">
<text x="0" y="-8" fill="rgba(255,255,255,0.55)" font-size="8" letter-spacing="1.4">cd/klm</text>
<line x1="0" y1="6" x2="22" y2="6" stroke="#F32740" stroke-width="2.2"/>
<text x="28" y="9" fill="rgba(255,255,255,0.7)" font-size="9.5">C0 – C180</text>
<line x1="120" y1="6" x2="142" y2="6" stroke="#3FA9F5" stroke-width="1.7"/>
<text x="148" y="9" fill="rgba(255,255,255,0.7)" font-size="9.5">C90 – C270</text>
</g>
<text x="578" y="402" fill="rgba(255,255,255,0.45)" font-size="9" text-anchor="end">η = 117 lm/W</text>
<text x="578" y="418" fill="rgba(255,255,255,0.45)" font-size="9" text-anchor="end">13,841 lm · 118.4W</text>
<text x="578" y="434" fill="rgba(255,255,255,0.55)" font-size="8" letter-spacing="1.4" text-anchor="end">PEAK INTENSITY</text>
<text x="578" y="451" fill="#fff" font-weight="700" font-size="14" text-anchor="end">6,550 cd</text>
</svg>