<svg viewBox="0 0 600 460" xmlns="http://www.w3.org/2000/svg" font-family="JetBrains Mono, monospace" font-size="9.5">
<rect width="100%" height="100%" fill="#14171b"/>
<text x="22" y="26" fill="#F32740" font-weight="700" letter-spacing="2">LWPF48 · 80W · 5000K · CLASSIC FORWARD-THROW</text>
<text x="22" y="42" fill="rgba(255,255,255,0.55)" font-size="8" letter-spacing="1.4">LUMINOUS INTENSITY DISTRIBUTION (cd/klm)</text>
<path d="M 232.0 64.0 A 68.0 68.0 0 0 0 368.0 64.0" fill="none" stroke="rgba(120,200,200,0.18)" stroke-width="0.7"/>
<path d="M 164.0 64.0 A 136.0 136.0 0 0 0 436.0 64.0" fill="none" stroke="rgba(120,200,200,0.18)" stroke-width="0.7"/>
<path d="M 96.0 64.0 A 204.0 204.0 0 0 0 504.0 64.0" fill="none" stroke="rgba(120,200,200,0.18)" stroke-width="0.7"/>
<path d="M 28.0 64.0 A 272.0 272.0 0 0 0 572.0 64.0" fill="none" stroke="rgba(120,200,200,0.18)" stroke-width="0.7"/>
<path d="M -40.0 64.0 A 340.0 340.0 0 0 0 640.0 64.0" fill="none" stroke="rgba(120,200,200,0.18)" stroke-width="0.7"/>
<line x1="300.0" y1="64" x2="388.0" y2="392.4" stroke="rgba(120,200,200,0.10)" stroke-width="0.5"/>
<line x1="300.0" y1="64" x2="212.0" y2="392.4" stroke="rgba(120,200,200,0.10)" stroke-width="0.5"/>
<line x1="300.0" y1="64" x2="470.0" y2="358.4" stroke="rgba(120,200,200,0.10)" stroke-width="0.5"/>
<line x1="300.0" y1="64" x2="130.0" y2="358.4" stroke="rgba(120,200,200,0.10)" stroke-width="0.5"/>
<line x1="300.0" y1="64" x2="540.4" y2="304.4" stroke="rgba(120,200,200,0.10)" stroke-width="0.5"/>
<line x1="300.0" y1="64" x2="59.6" y2="304.4" stroke="rgba(120,200,200,0.10)" stroke-width="0.5"/>
<line x1="300.0" y1="64" x2="594.4" y2="234.0" stroke="rgba(120,200,200,0.10)" stroke-width="0.5"/>
<line x1="300.0" y1="64" x2="5.6" y2="234.0" stroke="rgba(120,200,200,0.10)" stroke-width="0.5"/>
<line x1="300.0" y1="64" x2="628.4" y2="152.0" stroke="rgba(120,200,200,0.10)" stroke-width="0.5"/>
<line x1="300.0" y1="64" x2="-28.4" y2="152.0" stroke="rgba(120,200,200,0.10)" stroke-width="0.5"/>
<line x1="300.0" y1="64" x2="640.0" y2="64.0" stroke="rgba(120,200,200,0.10)" stroke-width="0.5"/>
<line x1="300.0" y1="64" x2="-40.0" y2="64.0" stroke="rgba(120,200,200,0.10)" stroke-width="0.5"/>
<line x1="300.0" y1="64" x2="300.0" y2="408" stroke="rgba(120,200,200,0.14)" stroke-width="0.5"/>
<line x1="-40.0" y1="64" x2="640.0" y2="64" stroke="rgba(120,200,200,0.14)" stroke-width="0.5"/>
<text x="391.6" y="408.9" text-anchor="middle" fill="rgba(255,255,255,0.4)" font-size="9">15°</text>
<text x="208.4" y="408.9" text-anchor="middle" fill="rgba(255,255,255,0.4)" font-size="9">15°</text>
<text x="477.0" y="373.6" text-anchor="middle" fill="rgba(255,255,255,0.6)" font-size="9">30°</text>
<text x="123.0" y="373.6" text-anchor="middle" fill="rgba(255,255,255,0.6)" font-size="9">30°</text>
<text x="550.3" y="317.3" text-anchor="middle" fill="rgba(255,255,255,0.4)" font-size="9">45°</text>
<text x="49.7" y="317.3" text-anchor="middle" fill="rgba(255,255,255,0.4)" font-size="9">45°</text>
<text x="606.6" y="244.0" text-anchor="middle" fill="rgba(255,255,255,0.6)" font-size="9">60°</text>
<text x="-6.6" y="244.0" text-anchor="middle" fill="rgba(255,255,255,0.6)" font-size="9">60°</text>
<text x="641.9" y="158.6" text-anchor="middle" fill="rgba(255,255,255,0.4)" font-size="9">75°</text>
<text x="-41.9" y="158.6" text-anchor="middle" fill="rgba(255,255,255,0.4)" font-size="9">75°</text>
<text x="654.0" y="67.0" text-anchor="middle" fill="rgba(255,255,255,0.6)" font-size="9">90°</text>
<text x="-54.0" y="67.0" text-anchor="middle" fill="rgba(255,255,255,0.6)" font-size="9">90°</text>
<text x="300" y="426" text-anchor="middle" fill="rgba(255,255,255,0.6)" font-size="9">0°</text>
<path d="M 300.0 234.1 L 306.0 234.7 L 311.9 234.5 L 317.9 234.1 L 323.7 232.9 L 329.6 232.0 L 335.5 230.8 L 341.1 228.9 L 346.3 225.5 L 351.6 222.9 L 357.0 220.7 L 361.7 216.7 L 366.2 212.8 L 370.0 207.5 L 373.4 202.0 L 376.3 196.1 L 378.6 189.8 L 379.8 182.4 L 381.0 175.5 L 380.7 167.3 L 380.1 159.5 L 378.8 151.5 L 377.4 144.2 L 375.8 137.2 L 373.7 130.3 L 371.8 124.2 L 369.1 118.0 L 365.2 111.3 L 361.2 105.3 L 357.6 100.0 L 353.4 94.8 L 349.4 90.2 L 345.0 85.9 L 340.5 82.0 L 336.1 78.6 L 331.7 75.5 L 327.2 72.8 L 322.9 70.6 L 319.2 68.8 L 315.9 67.4 L 312.6 66.2 L 309.2 65.3 L 306.3 64.7 L 304.5 64.3 L 303.4 64.1 L 303.0 64.0 L 297.3 64.0 L 296.8 64.1 L 295.5 64.3 L 293.3 64.7 L 291.1 65.3 L 288.4 66.0 L 285.7 67.0 L 282.7 68.3 L 279.4 69.9 L 276.0 71.8 L 272.4 74.1 L 268.6 76.7 L 264.6 79.8 L 260.5 83.2 L 256.4 87.2 L 252.1 91.7 L 247.9 96.5 L 244.1 101.7 L 240.7 107.1 L 237.5 112.8 L 235.2 118.4 L 233.3 124.0 L 231.2 130.5 L 230.0 136.5 L 228.9 143.0 L 228.1 149.7 L 227.6 156.7 L 228.5 162.4 L 229.8 168.1 L 230.6 175.0 L 231.6 182.4 L 233.3 189.5 L 235.5 196.3 L 238.6 201.9 L 242.0 207.5 L 245.7 213.2 L 250.2 217.4 L 255.3 219.9 L 260.6 222.1 L 265.8 225.0 L 271.4 226.0 L 277.1 226.8 L 282.5 230.3 L 288.1 233.7 L 294.1 233.2 L 300.0 234.1 Z" fill="none" stroke="#3FA9F5" stroke-width="1.7" stroke-linejoin="round" stroke-linecap="round"/>
<path d="M 300.0 234.1 L 307.3 274.2 L 312.6 244.8 L 321.3 266.6 L 329.3 272.8 L 337.6 277.5 L 344.6 273.9 L 352.9 276.3 L 366.9 297.3 L 372.0 285.6 L 383.8 294.2 L 393.1 294.3 L 400.0 288.6 L 410.0 289.6 L 417.6 285.2 L 428.2 286.1 L 435.8 281.3 L 440.8 272.7 L 442.3 259.9 L 439.2 242.2 L 436.4 226.5 L 432.4 211.1 L 424.3 192.7 L 421.0 180.9 L 422.3 174.1 L 423.1 167.3 L 425.3 161.9 L 426.2 155.7 L 435.6 155.5 L 440.0 151.5 L 446.7 148.7 L 450.0 143.8 L 456.6 140.4 L 453.7 132.4 L 448.7 124.1 L 434.3 112.9 L 419.3 102.8 L 402.8 93.5 L 387.7 85.9 L 372.5 79.4 L 363.2 75.1 L 352.0 71.3 L 341.6 68.4 L 333.3 66.3 L 331.3 65.1 L 329.5 64.0 L 297.0 64.0 L 296.6 64.1 L 296.1 64.3 L 295.6 64.5 L 294.9 64.7 L 294.2 65.0 L 293.3 65.4 L 292.4 65.9 L 291.2 66.5 L 289.7 67.4 L 288.1 68.3 L 286.4 69.5 L 284.7 70.8 L 283.1 72.3 L 281.4 73.9 L 279.8 75.7 L 278.2 77.6 L 276.6 79.8 L 275.1 82.1 L 273.5 84.7 L 272.0 87.5 L 270.6 90.4 L 269.3 93.7 L 268.2 97.0 L 267.0 100.6 L 266.1 104.4 L 265.2 108.5 L 264.6 112.8 L 264.1 117.3 L 263.8 121.9 L 264.2 126.0 L 265.1 129.7 L 266.3 133.2 L 267.3 137.4 L 267.8 143.7 L 268.9 149.5 L 269.5 157.7 L 271.8 162.3 L 272.8 173.2 L 274.7 183.1 L 277.2 193.5 L 279.8 207.7 L 283.8 218.5 L 288.6 227.5 L 294.2 229.9 L 300.0 234.1 Z" fill="none" stroke="#F32740" stroke-width="2.0" stroke-linejoin="round" stroke-linecap="round"/>
<text x="338" y="132" fill="#F32740" font-size="9.5" font-weight="700">125</text>
<text x="335" y="200" fill="#F32740" font-size="9.5" font-weight="700">250</text>
<text x="335" y="268" fill="#F32740" font-size="9.5" font-weight="700">375</text>
<text x="335" y="336" fill="#F32740" font-size="9.5" font-weight="700">500</text>
<rect x="274.0" y="58" width="52" height="11" rx="1.5" fill="#fafbfc" stroke="rgba(255,255,255,0.4)" stroke-width="0.5"/>
<line x1="272.0" y1="69.8" x2="328.0" y2="69.8" stroke="#F32740" stroke-width="0.7" stroke-dasharray="1.5 2"/>
<text x="300" y="66" text-anchor="middle" fill="#F32740" font-size="8" font-weight="700" letter-spacing="0.5">cd/klm SCALE</text>
<g transform="translate(22, 434)">
<text x="0" y="-8" fill="rgba(255,255,255,0.55)" font-size="8" letter-spacing="1.4">cd/klm</text>
<line x1="0" y1="6" x2="22" y2="6" stroke="#F32740" stroke-width="2.2"/>
<text x="28" y="9" fill="rgba(255,255,255,0.7)" font-size="9.5">C0 – C180</text>
<line x1="120" y1="6" x2="142" y2="6" stroke="#3FA9F5" stroke-width="1.7"/>
<text x="148" y="9" fill="rgba(255,255,255,0.7)" font-size="9.5">C90 – C270</text>
</g>
<text x="578" y="402" fill="rgba(255,255,255,0.45)" font-size="9" text-anchor="end">η = 121 lm/W</text>
<text x="578" y="418" fill="rgba(255,255,255,0.45)" font-size="9" text-anchor="end">9,401 lm · 77.9W</text>
<text x="578" y="434" fill="rgba(255,255,255,0.55)" font-size="8" letter-spacing="1.4" text-anchor="end">PEAK INTENSITY</text>
<text x="578" y="451" fill="#fff" font-weight="700" font-size="14" text-anchor="end">4,432 cd</text>
</svg>