<svg viewBox="0 0 600 460" xmlns="http://www.w3.org/2000/svg" font-family="JetBrains Mono, monospace" font-size="9.5">
<rect width="100%" height="100%" fill="#14171b"/>
<text x="22" y="26" fill="#F32740" font-weight="700" letter-spacing="2">LWPF812 · 80W · 4000K (est.) · CLASSIC FORWARD-THROW</text>
<text x="22" y="42" fill="rgba(255,255,255,0.55)" font-size="8" letter-spacing="1.4">LUMINOUS INTENSITY DISTRIBUTION (cd/klm)</text>
<path d="M 232.0 64.0 A 68.0 68.0 0 0 0 368.0 64.0" fill="none" stroke="rgba(120,200,200,0.18)" stroke-width="0.7"/>
<path d="M 164.0 64.0 A 136.0 136.0 0 0 0 436.0 64.0" fill="none" stroke="rgba(120,200,200,0.18)" stroke-width="0.7"/>
<path d="M 96.0 64.0 A 204.0 204.0 0 0 0 504.0 64.0" fill="none" stroke="rgba(120,200,200,0.18)" stroke-width="0.7"/>
<path d="M 28.0 64.0 A 272.0 272.0 0 0 0 572.0 64.0" fill="none" stroke="rgba(120,200,200,0.18)" stroke-width="0.7"/>
<path d="M -40.0 64.0 A 340.0 340.0 0 0 0 640.0 64.0" fill="none" stroke="rgba(120,200,200,0.18)" stroke-width="0.7"/>
<line x1="300.0" y1="64" x2="388.0" y2="392.4" stroke="rgba(120,200,200,0.10)" stroke-width="0.5"/>
<line x1="300.0" y1="64" x2="212.0" y2="392.4" stroke="rgba(120,200,200,0.10)" stroke-width="0.5"/>
<line x1="300.0" y1="64" x2="470.0" y2="358.4" stroke="rgba(120,200,200,0.10)" stroke-width="0.5"/>
<line x1="300.0" y1="64" x2="130.0" y2="358.4" stroke="rgba(120,200,200,0.10)" stroke-width="0.5"/>
<line x1="300.0" y1="64" x2="540.4" y2="304.4" stroke="rgba(120,200,200,0.10)" stroke-width="0.5"/>
<line x1="300.0" y1="64" x2="59.6" y2="304.4" stroke="rgba(120,200,200,0.10)" stroke-width="0.5"/>
<line x1="300.0" y1="64" x2="594.4" y2="234.0" stroke="rgba(120,200,200,0.10)" stroke-width="0.5"/>
<line x1="300.0" y1="64" x2="5.6" y2="234.0" stroke="rgba(120,200,200,0.10)" stroke-width="0.5"/>
<line x1="300.0" y1="64" x2="628.4" y2="152.0" stroke="rgba(120,200,200,0.10)" stroke-width="0.5"/>
<line x1="300.0" y1="64" x2="-28.4" y2="152.0" stroke="rgba(120,200,200,0.10)" stroke-width="0.5"/>
<line x1="300.0" y1="64" x2="640.0" y2="64.0" stroke="rgba(120,200,200,0.10)" stroke-width="0.5"/>
<line x1="300.0" y1="64" x2="-40.0" y2="64.0" stroke="rgba(120,200,200,0.10)" stroke-width="0.5"/>
<line x1="300.0" y1="64" x2="300.0" y2="408" stroke="rgba(120,200,200,0.14)" stroke-width="0.5"/>
<line x1="-40.0" y1="64" x2="640.0" y2="64" stroke="rgba(120,200,200,0.14)" stroke-width="0.5"/>
<text x="391.6" y="408.9" text-anchor="middle" fill="rgba(255,255,255,0.4)" font-size="9">15°</text>
<text x="208.4" y="408.9" text-anchor="middle" fill="rgba(255,255,255,0.4)" font-size="9">15°</text>
<text x="477.0" y="373.6" text-anchor="middle" fill="rgba(255,255,255,0.6)" font-size="9">30°</text>
<text x="123.0" y="373.6" text-anchor="middle" fill="rgba(255,255,255,0.6)" font-size="9">30°</text>
<text x="550.3" y="317.3" text-anchor="middle" fill="rgba(255,255,255,0.4)" font-size="9">45°</text>
<text x="49.7" y="317.3" text-anchor="middle" fill="rgba(255,255,255,0.4)" font-size="9">45°</text>
<text x="606.6" y="244.0" text-anchor="middle" fill="rgba(255,255,255,0.6)" font-size="9">60°</text>
<text x="-6.6" y="244.0" text-anchor="middle" fill="rgba(255,255,255,0.6)" font-size="9">60°</text>
<text x="641.9" y="158.6" text-anchor="middle" fill="rgba(255,255,255,0.4)" font-size="9">75°</text>
<text x="-41.9" y="158.6" text-anchor="middle" fill="rgba(255,255,255,0.4)" font-size="9">75°</text>
<text x="654.0" y="67.0" text-anchor="middle" fill="rgba(255,255,255,0.6)" font-size="9">90°</text>
<text x="-54.0" y="67.0" text-anchor="middle" fill="rgba(255,255,255,0.6)" font-size="9">90°</text>
<text x="300" y="426" text-anchor="middle" fill="rgba(255,255,255,0.6)" font-size="9">0°</text>
<path d="M 300.0 229.4 L 305.8 228.8 L 311.5 228.5 L 317.3 228.2 L 323.1 228.4 L 328.8 227.2 L 334.3 225.5 L 339.6 223.0 L 344.7 219.8 L 349.5 216.2 L 353.9 212.1 L 357.7 206.8 L 361.0 201.0 L 363.6 194.4 L 365.6 187.3 L 367.4 180.7 L 368.4 173.5 L 369.2 166.6 L 369.9 160.2 L 370.2 153.8 L 369.8 147.1 L 369.1 140.7 L 368.0 134.4 L 366.4 128.2 L 364.5 122.1 L 362.5 116.4 L 359.7 110.7 L 356.7 105.2 L 353.3 99.9 L 349.8 95.1 L 346.2 90.7 L 342.7 86.7 L 339.4 83.2 L 335.8 79.9 L 332.2 77.0 L 328.7 74.5 L 325.3 72.2 L 322.2 70.4 L 319.2 68.8 L 316.4 67.5 L 313.9 66.4 L 311.3 65.6 L 308.6 64.9 L 306.7 64.5 L 304.9 64.2 L 304.2 64.0 L 296.2 64.0 L 295.7 64.2 L 294.4 64.4 L 292.1 64.8 L 288.7 65.6 L 285.4 66.6 L 282.2 67.8 L 279.1 69.2 L 275.7 71.0 L 271.9 73.1 L 268.1 75.6 L 264.0 78.5 L 259.9 81.8 L 255.8 85.6 L 251.8 89.6 L 247.8 94.1 L 244.0 99.0 L 240.5 104.2 L 237.4 109.5 L 234.1 115.5 L 231.4 121.6 L 229.4 127.6 L 227.8 133.7 L 226.7 139.9 L 225.8 146.4 L 225.3 153.0 L 225.3 159.6 L 225.7 166.3 L 226.6 172.9 L 227.9 179.4 L 229.7 185.8 L 232.0 192.0 L 234.6 198.1 L 237.6 204.1 L 241.5 208.9 L 245.6 213.5 L 250.4 216.7 L 255.3 219.7 L 260.6 221.8 L 265.9 224.6 L 271.4 225.9 L 277.1 227.1 L 282.7 228.7 L 288.5 228.8 L 294.2 229.8 L 300.0 229.4 Z" fill="none" stroke="#3FA9F5" stroke-width="1.7" stroke-linejoin="round" stroke-linecap="round"/>
<path d="M 300.0 229.4 L 306.2 241.6 L 312.9 249.1 L 321.6 269.4 L 328.8 269.2 L 332.0 245.5 L 347.6 288.1 L 353.6 279.0 L 362.6 282.5 L 370.6 281.3 L 381.7 288.5 L 396.0 301.5 L 397.0 281.9 L 410.2 289.9 L 420.0 289.7 L 427.1 284.2 L 436.4 282.2 L 443.1 276.1 L 447.9 267.6 L 448.7 254.3 L 443.2 234.7 L 442.0 221.7 L 435.7 204.5 L 426.3 185.9 L 424.6 176.2 L 426.1 169.8 L 425.8 162.3 L 426.2 155.7 L 435.4 155.3 L 438.4 150.5 L 442.4 146.2 L 448.1 142.8 L 454.1 139.1 L 458.5 134.6 L 454.9 126.6 L 449.8 118.5 L 436.8 108.4 L 417.2 97.6 L 400.2 89.0 L 380.7 81.2 L 369.3 76.2 L 358.3 72.2 L 347.6 69.0 L 337.2 66.6 L 331.7 65.1 L 330.5 64.0 L 296.9 64.0 L 296.5 64.1 L 295.9 64.3 L 295.4 64.5 L 294.7 64.7 L 294.0 65.1 L 293.1 65.5 L 292.2 65.9 L 291.1 66.6 L 289.7 67.4 L 288.0 68.4 L 286.4 69.5 L 284.6 70.8 L 282.9 72.4 L 281.2 74.0 L 279.5 75.8 L 277.8 77.8 L 276.2 80.1 L 274.6 82.5 L 273.0 85.1 L 271.5 87.9 L 270.0 91.0 L 268.6 94.3 L 267.4 97.8 L 266.3 101.5 L 265.4 105.3 L 264.5 109.4 L 263.9 113.6 L 263.6 118.0 L 263.5 122.5 L 263.7 126.8 L 264.8 130.1 L 266.2 133.4 L 267.6 136.8 L 269.0 140.8 L 269.8 147.1 L 271.2 152.7 L 272.4 160.1 L 274.4 166.7 L 276.4 175.3 L 278.6 185.2 L 281.1 198.8 L 284.8 208.4 L 289.2 218.0 L 294.3 227.3 L 300.0 229.4 Z" fill="none" stroke="#F32740" stroke-width="2.0" stroke-linejoin="round" stroke-linecap="round"/>
<text x="338" y="132" fill="#F32740" font-size="9.5" font-weight="700">125</text>
<text x="335" y="200" fill="#F32740" font-size="9.5" font-weight="700">250</text>
<text x="335" y="268" fill="#F32740" font-size="9.5" font-weight="700">375</text>
<text x="335" y="336" fill="#F32740" font-size="9.5" font-weight="700">500</text>
<rect x="274.0" y="58" width="52" height="11" rx="1.5" fill="#fafbfc" stroke="rgba(255,255,255,0.4)" stroke-width="0.5"/>
<line x1="272.0" y1="69.8" x2="328.0" y2="69.8" stroke="#F32740" stroke-width="0.7" stroke-dasharray="1.5 2"/>
<text x="300" y="66" text-anchor="middle" fill="#F32740" font-size="8" font-weight="700" letter-spacing="0.5">cd/klm SCALE</text>
<g transform="translate(22, 434)">
<text x="0" y="-8" fill="rgba(255,255,255,0.55)" font-size="8" letter-spacing="1.4">cd/klm</text>
<line x1="0" y1="6" x2="22" y2="6" stroke="#F32740" stroke-width="2.2"/>
<text x="28" y="9" fill="rgba(255,255,255,0.7)" font-size="9.5">C0 – C180</text>
<line x1="120" y1="6" x2="142" y2="6" stroke="#3FA9F5" stroke-width="1.7"/>
<text x="148" y="9" fill="rgba(255,255,255,0.7)" font-size="9.5">C90 – C270</text>
</g>
<text x="578" y="402" fill="rgba(255,255,255,0.45)" font-size="9" text-anchor="end">η = 130 lm/W</text>
<text x="578" y="418" fill="rgba(255,255,255,0.45)" font-size="9" text-anchor="end">9,635 lm · 74.1W</text>
<text x="578" y="434" fill="rgba(255,255,255,0.55)" font-size="8" letter-spacing="1.4" text-anchor="end">PEAK INTENSITY</text>
<text x="578" y="451" fill="#fff" font-weight="700" font-size="14" text-anchor="end">4,557 cd</text>
</svg>