<svg viewBox="0 0 600 460" xmlns="http://www.w3.org/2000/svg" font-family="JetBrains Mono, monospace" font-size="9.5">
<rect width="100%" height="100%" fill="#14171b"/>
<text x="22" y="26" fill="#F32740" font-weight="700" letter-spacing="2">LWPF812 · 120W · 4000K (est.) · CLASSIC FORWARD-THROW</text>
<text x="22" y="42" fill="rgba(255,255,255,0.55)" font-size="8" letter-spacing="1.4">LUMINOUS INTENSITY DISTRIBUTION (cd/klm)</text>
<path d="M 232.0 64.0 A 68.0 68.0 0 0 0 368.0 64.0" fill="none" stroke="rgba(120,200,200,0.18)" stroke-width="0.7"/>
<path d="M 164.0 64.0 A 136.0 136.0 0 0 0 436.0 64.0" fill="none" stroke="rgba(120,200,200,0.18)" stroke-width="0.7"/>
<path d="M 96.0 64.0 A 204.0 204.0 0 0 0 504.0 64.0" fill="none" stroke="rgba(120,200,200,0.18)" stroke-width="0.7"/>
<path d="M 28.0 64.0 A 272.0 272.0 0 0 0 572.0 64.0" fill="none" stroke="rgba(120,200,200,0.18)" stroke-width="0.7"/>
<path d="M -40.0 64.0 A 340.0 340.0 0 0 0 640.0 64.0" fill="none" stroke="rgba(120,200,200,0.18)" stroke-width="0.7"/>
<line x1="300.0" y1="64" x2="388.0" y2="392.4" stroke="rgba(120,200,200,0.10)" stroke-width="0.5"/>
<line x1="300.0" y1="64" x2="212.0" y2="392.4" stroke="rgba(120,200,200,0.10)" stroke-width="0.5"/>
<line x1="300.0" y1="64" x2="470.0" y2="358.4" stroke="rgba(120,200,200,0.10)" stroke-width="0.5"/>
<line x1="300.0" y1="64" x2="130.0" y2="358.4" stroke="rgba(120,200,200,0.10)" stroke-width="0.5"/>
<line x1="300.0" y1="64" x2="540.4" y2="304.4" stroke="rgba(120,200,200,0.10)" stroke-width="0.5"/>
<line x1="300.0" y1="64" x2="59.6" y2="304.4" stroke="rgba(120,200,200,0.10)" stroke-width="0.5"/>
<line x1="300.0" y1="64" x2="594.4" y2="234.0" stroke="rgba(120,200,200,0.10)" stroke-width="0.5"/>
<line x1="300.0" y1="64" x2="5.6" y2="234.0" stroke="rgba(120,200,200,0.10)" stroke-width="0.5"/>
<line x1="300.0" y1="64" x2="628.4" y2="152.0" stroke="rgba(120,200,200,0.10)" stroke-width="0.5"/>
<line x1="300.0" y1="64" x2="-28.4" y2="152.0" stroke="rgba(120,200,200,0.10)" stroke-width="0.5"/>
<line x1="300.0" y1="64" x2="640.0" y2="64.0" stroke="rgba(120,200,200,0.10)" stroke-width="0.5"/>
<line x1="300.0" y1="64" x2="-40.0" y2="64.0" stroke="rgba(120,200,200,0.10)" stroke-width="0.5"/>
<line x1="300.0" y1="64" x2="300.0" y2="408" stroke="rgba(120,200,200,0.14)" stroke-width="0.5"/>
<line x1="-40.0" y1="64" x2="640.0" y2="64" stroke="rgba(120,200,200,0.14)" stroke-width="0.5"/>
<text x="391.6" y="408.9" text-anchor="middle" fill="rgba(255,255,255,0.4)" font-size="9">15°</text>
<text x="208.4" y="408.9" text-anchor="middle" fill="rgba(255,255,255,0.4)" font-size="9">15°</text>
<text x="477.0" y="373.6" text-anchor="middle" fill="rgba(255,255,255,0.6)" font-size="9">30°</text>
<text x="123.0" y="373.6" text-anchor="middle" fill="rgba(255,255,255,0.6)" font-size="9">30°</text>
<text x="550.3" y="317.3" text-anchor="middle" fill="rgba(255,255,255,0.4)" font-size="9">45°</text>
<text x="49.7" y="317.3" text-anchor="middle" fill="rgba(255,255,255,0.4)" font-size="9">45°</text>
<text x="606.6" y="244.0" text-anchor="middle" fill="rgba(255,255,255,0.6)" font-size="9">60°</text>
<text x="-6.6" y="244.0" text-anchor="middle" fill="rgba(255,255,255,0.6)" font-size="9">60°</text>
<text x="641.9" y="158.6" text-anchor="middle" fill="rgba(255,255,255,0.4)" font-size="9">75°</text>
<text x="-41.9" y="158.6" text-anchor="middle" fill="rgba(255,255,255,0.4)" font-size="9">75°</text>
<text x="654.0" y="67.0" text-anchor="middle" fill="rgba(255,255,255,0.6)" font-size="9">90°</text>
<text x="-54.0" y="67.0" text-anchor="middle" fill="rgba(255,255,255,0.6)" font-size="9">90°</text>
<text x="300" y="426" text-anchor="middle" fill="rgba(255,255,255,0.6)" font-size="9">0°</text>
<path d="M 300.0 229.4 L 305.8 229.8 L 311.5 228.9 L 317.3 229.0 L 322.9 227.3 L 328.6 226.1 L 334.1 224.7 L 339.4 221.9 L 344.7 219.9 L 349.7 216.9 L 354.5 213.6 L 358.6 209.1 L 362.3 204.0 L 365.4 198.0 L 368.0 191.9 L 370.3 185.7 L 372.1 179.3 L 373.5 172.9 L 374.4 166.4 L 374.8 159.7 L 374.8 153.2 L 374.4 146.6 L 373.5 140.1 L 372.4 133.9 L 370.8 127.7 L 368.8 121.8 L 366.1 115.6 L 362.9 109.7 L 359.7 104.3 L 356.2 99.1 L 352.3 94.2 L 348.4 89.7 L 344.4 85.6 L 340.3 81.9 L 336.1 78.6 L 332.1 75.7 L 328.2 73.2 L 324.5 71.0 L 321.0 69.2 L 317.8 67.8 L 314.5 66.6 L 311.2 65.6 L 307.8 64.8 L 305.6 64.4 L 304.3 64.1 L 303.7 64.0 L 295.7 64.0 L 295.0 64.2 L 293.8 64.4 L 291.4 64.9 L 288.7 65.6 L 286.1 66.4 L 283.6 67.5 L 280.8 68.8 L 277.9 70.3 L 274.7 72.2 L 271.3 74.4 L 267.9 77.0 L 264.3 79.9 L 260.8 83.1 L 257.5 86.6 L 254.0 90.5 L 250.6 94.9 L 246.9 99.8 L 243.4 105.1 L 240.3 110.6 L 237.6 116.4 L 235.5 122.1 L 233.7 128.1 L 232.0 134.4 L 231.0 140.7 L 230.3 147.1 L 229.9 153.8 L 230.2 160.1 L 230.8 166.6 L 231.7 173.3 L 232.7 180.6 L 234.5 187.2 L 236.4 194.3 L 239.0 201.1 L 242.3 206.8 L 246.1 212.1 L 250.5 216.3 L 255.3 219.9 L 260.4 223.0 L 265.7 225.5 L 271.2 227.1 L 276.9 228.3 L 282.7 228.3 L 288.5 228.5 L 294.2 228.7 L 300.0 229.4 Z" fill="none" stroke="#3FA9F5" stroke-width="1.7" stroke-linejoin="round" stroke-linecap="round"/>
<path d="M 300.0 229.4 L 306.2 241.6 L 312.9 249.1 L 321.6 269.6 L 328.9 269.4 L 332.0 245.5 L 347.7 288.4 L 353.6 279.2 L 362.7 282.7 L 370.7 281.4 L 381.8 288.7 L 396.0 301.6 L 397.2 282.3 L 410.4 290.3 L 420.1 289.9 L 427.2 284.3 L 436.5 282.5 L 443.2 276.2 L 448.1 267.8 L 448.8 254.5 L 443.6 235.1 L 442.1 221.8 L 435.9 204.7 L 426.4 186.1 L 424.9 176.5 L 426.4 170.0 L 425.9 162.4 L 426.3 155.8 L 435.6 155.5 L 438.8 150.8 L 442.7 146.4 L 448.3 142.9 L 454.4 139.3 L 458.6 134.6 L 455.1 126.7 L 452.3 119.5 L 439.0 109.2 L 417.5 97.7 L 400.0 88.9 L 380.9 81.2 L 369.3 76.2 L 358.4 72.2 L 347.7 69.0 L 337.3 66.6 L 331.8 65.1 L 330.6 64.0 L 296.9 64.0 L 296.5 64.1 L 296.0 64.3 L 295.4 64.5 L 294.8 64.7 L 294.0 65.1 L 293.1 65.5 L 292.2 65.9 L 291.1 66.6 L 289.7 67.4 L 288.0 68.4 L 286.4 69.5 L 284.6 70.8 L 282.9 72.4 L 281.2 74.0 L 279.5 75.9 L 277.8 77.9 L 276.2 80.1 L 274.5 82.5 L 273.0 85.1 L 271.4 88.0 L 269.9 91.1 L 268.6 94.3 L 267.4 97.7 L 266.3 101.4 L 265.4 105.2 L 264.6 109.4 L 263.9 113.6 L 263.5 118.0 L 263.4 122.6 L 263.7 126.9 L 264.8 130.2 L 266.2 133.4 L 267.6 136.8 L 268.9 140.9 L 269.7 147.2 L 271.2 152.7 L 272.4 160.2 L 274.4 166.8 L 276.3 175.3 L 278.7 185.1 L 281.1 198.7 L 284.8 208.5 L 289.2 218.0 L 294.3 227.2 L 300.0 229.4 Z" fill="none" stroke="#F32740" stroke-width="2.0" stroke-linejoin="round" stroke-linecap="round"/>
<text x="338" y="132" fill="#F32740" font-size="9.5" font-weight="700">125</text>
<text x="335" y="200" fill="#F32740" font-size="9.5" font-weight="700">250</text>
<text x="335" y="268" fill="#F32740" font-size="9.5" font-weight="700">375</text>
<text x="335" y="336" fill="#F32740" font-size="9.5" font-weight="700">500</text>
<rect x="274.0" y="58" width="52" height="11" rx="1.5" fill="#fafbfc" stroke="rgba(255,255,255,0.4)" stroke-width="0.5"/>
<line x1="272.0" y1="69.8" x2="328.0" y2="69.8" stroke="#F32740" stroke-width="0.7" stroke-dasharray="1.5 2"/>
<text x="300" y="66" text-anchor="middle" fill="#F32740" font-size="8" font-weight="700" letter-spacing="0.5">cd/klm SCALE</text>
<g transform="translate(22, 434)">
<text x="0" y="-8" fill="rgba(255,255,255,0.55)" font-size="8" letter-spacing="1.4">cd/klm</text>
<line x1="0" y1="6" x2="22" y2="6" stroke="#F32740" stroke-width="2.2"/>
<text x="28" y="9" fill="rgba(255,255,255,0.7)" font-size="9.5">C0 – C180</text>
<line x1="120" y1="6" x2="142" y2="6" stroke="#3FA9F5" stroke-width="1.7"/>
<text x="148" y="9" fill="rgba(255,255,255,0.7)" font-size="9.5">C90 – C270</text>
</g>
<text x="578" y="402" fill="rgba(255,255,255,0.45)" font-size="9" text-anchor="end">η = 122 lm/W</text>
<text x="578" y="418" fill="rgba(255,255,255,0.45)" font-size="9" text-anchor="end">14,461 lm · 118.3W</text>
<text x="578" y="434" fill="rgba(255,255,255,0.55)" font-size="8" letter-spacing="1.4" text-anchor="end">PEAK INTENSITY</text>
<text x="578" y="451" fill="#fff" font-weight="700" font-size="14" text-anchor="end">6,849 cd</text>
</svg>