<svg viewBox="0 0 600 460" xmlns="http://www.w3.org/2000/svg" font-family="JetBrains Mono, monospace" font-size="9.5">
<rect width="100%" height="100%" fill="#14171b"/>
<text x="22" y="26" fill="#F32740" font-weight="700" letter-spacing="2">LWPF48 · 60W · 5000K · CLASSIC FORWARD-THROW</text>
<text x="22" y="42" fill="rgba(255,255,255,0.55)" font-size="8" letter-spacing="1.4">LUMINOUS INTENSITY DISTRIBUTION (cd/klm)</text>
<path d="M 232.0 64.0 A 68.0 68.0 0 0 0 368.0 64.0" fill="none" stroke="rgba(120,200,200,0.18)" stroke-width="0.7"/>
<path d="M 164.0 64.0 A 136.0 136.0 0 0 0 436.0 64.0" fill="none" stroke="rgba(120,200,200,0.18)" stroke-width="0.7"/>
<path d="M 96.0 64.0 A 204.0 204.0 0 0 0 504.0 64.0" fill="none" stroke="rgba(120,200,200,0.18)" stroke-width="0.7"/>
<path d="M 28.0 64.0 A 272.0 272.0 0 0 0 572.0 64.0" fill="none" stroke="rgba(120,200,200,0.18)" stroke-width="0.7"/>
<path d="M -40.0 64.0 A 340.0 340.0 0 0 0 640.0 64.0" fill="none" stroke="rgba(120,200,200,0.18)" stroke-width="0.7"/>
<line x1="300.0" y1="64" x2="388.0" y2="392.4" stroke="rgba(120,200,200,0.10)" stroke-width="0.5"/>
<line x1="300.0" y1="64" x2="212.0" y2="392.4" stroke="rgba(120,200,200,0.10)" stroke-width="0.5"/>
<line x1="300.0" y1="64" x2="470.0" y2="358.4" stroke="rgba(120,200,200,0.10)" stroke-width="0.5"/>
<line x1="300.0" y1="64" x2="130.0" y2="358.4" stroke="rgba(120,200,200,0.10)" stroke-width="0.5"/>
<line x1="300.0" y1="64" x2="540.4" y2="304.4" stroke="rgba(120,200,200,0.10)" stroke-width="0.5"/>
<line x1="300.0" y1="64" x2="59.6" y2="304.4" stroke="rgba(120,200,200,0.10)" stroke-width="0.5"/>
<line x1="300.0" y1="64" x2="594.4" y2="234.0" stroke="rgba(120,200,200,0.10)" stroke-width="0.5"/>
<line x1="300.0" y1="64" x2="5.6" y2="234.0" stroke="rgba(120,200,200,0.10)" stroke-width="0.5"/>
<line x1="300.0" y1="64" x2="628.4" y2="152.0" stroke="rgba(120,200,200,0.10)" stroke-width="0.5"/>
<line x1="300.0" y1="64" x2="-28.4" y2="152.0" stroke="rgba(120,200,200,0.10)" stroke-width="0.5"/>
<line x1="300.0" y1="64" x2="640.0" y2="64.0" stroke="rgba(120,200,200,0.10)" stroke-width="0.5"/>
<line x1="300.0" y1="64" x2="-40.0" y2="64.0" stroke="rgba(120,200,200,0.10)" stroke-width="0.5"/>
<line x1="300.0" y1="64" x2="300.0" y2="408" stroke="rgba(120,200,200,0.14)" stroke-width="0.5"/>
<line x1="-40.0" y1="64" x2="640.0" y2="64" stroke="rgba(120,200,200,0.14)" stroke-width="0.5"/>
<text x="391.6" y="408.9" text-anchor="middle" fill="rgba(255,255,255,0.4)" font-size="9">15°</text>
<text x="208.4" y="408.9" text-anchor="middle" fill="rgba(255,255,255,0.4)" font-size="9">15°</text>
<text x="477.0" y="373.6" text-anchor="middle" fill="rgba(255,255,255,0.6)" font-size="9">30°</text>
<text x="123.0" y="373.6" text-anchor="middle" fill="rgba(255,255,255,0.6)" font-size="9">30°</text>
<text x="550.3" y="317.3" text-anchor="middle" fill="rgba(255,255,255,0.4)" font-size="9">45°</text>
<text x="49.7" y="317.3" text-anchor="middle" fill="rgba(255,255,255,0.4)" font-size="9">45°</text>
<text x="606.6" y="244.0" text-anchor="middle" fill="rgba(255,255,255,0.6)" font-size="9">60°</text>
<text x="-6.6" y="244.0" text-anchor="middle" fill="rgba(255,255,255,0.6)" font-size="9">60°</text>
<text x="641.9" y="158.6" text-anchor="middle" fill="rgba(255,255,255,0.4)" font-size="9">75°</text>
<text x="-41.9" y="158.6" text-anchor="middle" fill="rgba(255,255,255,0.4)" font-size="9">75°</text>
<text x="654.0" y="67.0" text-anchor="middle" fill="rgba(255,255,255,0.6)" font-size="9">90°</text>
<text x="-54.0" y="67.0" text-anchor="middle" fill="rgba(255,255,255,0.6)" font-size="9">90°</text>
<text x="300" y="426" text-anchor="middle" fill="rgba(255,255,255,0.6)" font-size="9">0°</text>
<path d="M 300.0 240.4 L 306.2 242.3 L 312.3 240.4 L 318.7 242.2 L 324.8 240.3 L 330.7 238.2 L 336.7 236.7 L 342.4 234.0 L 347.4 229.4 L 351.9 223.7 L 356.1 218.2 L 360.2 212.9 L 363.1 205.7 L 365.2 197.8 L 366.6 189.3 L 367.5 180.9 L 367.8 172.4 L 368.3 165.2 L 367.6 157.1 L 367.7 150.6 L 367.5 144.4 L 367.0 138.4 L 364.8 131.1 L 362.9 124.7 L 361.1 119.0 L 359.1 113.6 L 356.8 108.4 L 353.8 103.1 L 350.8 98.3 L 347.5 93.7 L 344.1 89.5 L 340.9 85.7 L 337.6 82.3 L 334.0 79.1 L 330.3 76.3 L 326.7 73.7 L 323.5 71.6 L 320.3 69.8 L 317.3 68.3 L 314.5 67.1 L 311.8 66.1 L 309.2 65.3 L 306.6 64.7 L 304.8 64.3 L 303.6 64.1 L 303.1 64.0 L 297.0 64.0 L 296.5 64.1 L 295.3 64.3 L 293.4 64.7 L 290.5 65.3 L 287.2 66.3 L 284.0 67.4 L 280.7 68.8 L 277.1 70.6 L 273.3 72.7 L 269.4 75.1 L 265.3 78.0 L 261.0 81.3 L 256.8 85.1 L 252.7 89.1 L 248.8 93.6 L 245.0 98.4 L 241.1 103.7 L 237.2 109.6 L 234.3 115.3 L 232.3 120.8 L 230.0 127.0 L 227.6 133.9 L 225.8 140.8 L 224.4 148.0 L 223.6 155.0 L 223.4 162.1 L 225.0 167.3 L 225.6 174.3 L 226.9 180.9 L 228.8 187.4 L 231.1 193.5 L 233.8 199.6 L 237.2 205.0 L 240.7 210.8 L 244.7 216.0 L 249.7 218.8 L 254.5 222.8 L 259.9 224.7 L 265.5 226.2 L 270.2 233.2 L 276.0 234.7 L 282.1 234.6 L 287.9 237.4 L 293.9 238.8 L 300.0 240.4 Z" fill="none" stroke="#3FA9F5" stroke-width="1.7" stroke-linejoin="round" stroke-linecap="round"/>
<path d="M 300.0 240.4 L 306.2 242.9 L 313.2 252.8 L 321.6 269.6 L 326.8 255.0 L 334.0 256.8 L 344.7 274.3 L 355.2 285.6 L 361.3 277.8 L 372.8 288.1 L 382.7 291.2 L 390.4 287.8 L 398.6 285.4 L 407.9 285.3 L 418.8 287.4 L 430.8 290.6 L 437.2 283.6 L 439.2 270.3 L 447.0 266.4 L 447.2 252.4 L 441.8 233.0 L 442.5 222.2 L 434.4 203.2 L 425.2 184.9 L 422.3 174.1 L 426.6 170.2 L 425.2 161.9 L 423.8 154.0 L 439.2 157.9 L 441.2 152.3 L 445.6 148.1 L 447.0 142.1 L 455.5 139.8 L 460.7 135.6 L 456.4 127.2 L 441.8 115.6 L 434.7 107.8 L 408.6 95.2 L 411.2 91.7 L 378.5 80.7 L 373.5 77.0 L 355.1 71.7 L 350.4 69.3 L 337.3 66.6 L 331.4 65.1 L 330.2 64.0 L 296.8 64.0 L 296.3 64.1 L 295.9 64.3 L 295.3 64.5 L 294.7 64.7 L 294.0 65.1 L 293.1 65.5 L 292.2 65.9 L 291.1 66.6 L 289.7 67.3 L 288.1 68.3 L 286.5 69.5 L 284.8 70.8 L 283.1 72.2 L 281.5 73.9 L 279.8 75.7 L 278.2 77.6 L 276.6 79.8 L 275.1 82.1 L 273.6 84.6 L 272.1 87.4 L 270.7 90.4 L 269.4 93.5 L 268.2 96.9 L 267.2 100.4 L 266.3 104.1 L 265.6 108.0 L 265.0 112.1 L 264.7 116.4 L 264.6 120.7 L 264.8 125.0 L 265.9 128.1 L 267.1 131.4 L 268.3 135.1 L 269.6 139.1 L 270.4 145.2 L 271.5 151.8 L 272.3 160.7 L 274.3 167.1 L 276.3 175.3 L 277.9 189.2 L 282.1 191.2 L 283.6 219.7 L 289.6 212.7 L 294.8 214.1 L 300.0 240.4 Z" fill="none" stroke="#F32740" stroke-width="2.0" stroke-linejoin="round" stroke-linecap="round"/>
<text x="338" y="132" fill="#F32740" font-size="9.5" font-weight="700">125</text>
<text x="335" y="200" fill="#F32740" font-size="9.5" font-weight="700">250</text>
<text x="335" y="268" fill="#F32740" font-size="9.5" font-weight="700">375</text>
<text x="335" y="336" fill="#F32740" font-size="9.5" font-weight="700">500</text>
<rect x="274.0" y="58" width="52" height="11" rx="1.5" fill="#fafbfc" stroke="rgba(255,255,255,0.4)" stroke-width="0.5"/>
<line x1="272.0" y1="69.8" x2="328.0" y2="69.8" stroke="#F32740" stroke-width="0.7" stroke-dasharray="1.5 2"/>
<text x="300" y="66" text-anchor="middle" fill="#F32740" font-size="8" font-weight="700" letter-spacing="0.5">cd/klm SCALE</text>
<g transform="translate(22, 434)">
<text x="0" y="-8" fill="rgba(255,255,255,0.55)" font-size="8" letter-spacing="1.4">cd/klm</text>
<line x1="0" y1="6" x2="22" y2="6" stroke="#F32740" stroke-width="2.2"/>
<text x="28" y="9" fill="rgba(255,255,255,0.7)" font-size="9.5">C0 – C180</text>
<line x1="120" y1="6" x2="142" y2="6" stroke="#3FA9F5" stroke-width="1.7"/>
<text x="148" y="9" fill="rgba(255,255,255,0.7)" font-size="9.5">C90 – C270</text>
</g>
<text x="578" y="402" fill="rgba(255,255,255,0.45)" font-size="9" text-anchor="end">η = 123 lm/W</text>
<text x="578" y="418" fill="rgba(255,255,255,0.45)" font-size="9" text-anchor="end">7,522 lm · 61.3W</text>
<text x="578" y="434" fill="rgba(255,255,255,0.55)" font-size="8" letter-spacing="1.4" text-anchor="end">PEAK INTENSITY</text>
<text x="578" y="451" fill="#fff" font-weight="700" font-size="14" text-anchor="end">3,617 cd</text>
</svg>