<svg viewBox="0 0 600 460" xmlns="http://www.w3.org/2000/svg" font-family="JetBrains Mono, monospace" font-size="9.5">
<rect width="100%" height="100%" fill="#14171b"/>
<text x="22" y="26" fill="#F32740" font-weight="700" letter-spacing="2">LWPF812 · 120W · 5000K · CLASSIC FORWARD-THROW</text>
<text x="22" y="42" fill="rgba(255,255,255,0.55)" font-size="8" letter-spacing="1.4">LUMINOUS INTENSITY DISTRIBUTION (cd/klm)</text>
<path d="M 232.0 64.0 A 68.0 68.0 0 0 0 368.0 64.0" fill="none" stroke="rgba(120,200,200,0.18)" stroke-width="0.7"/>
<path d="M 164.0 64.0 A 136.0 136.0 0 0 0 436.0 64.0" fill="none" stroke="rgba(120,200,200,0.18)" stroke-width="0.7"/>
<path d="M 96.0 64.0 A 204.0 204.0 0 0 0 504.0 64.0" fill="none" stroke="rgba(120,200,200,0.18)" stroke-width="0.7"/>
<path d="M 28.0 64.0 A 272.0 272.0 0 0 0 572.0 64.0" fill="none" stroke="rgba(120,200,200,0.18)" stroke-width="0.7"/>
<path d="M -40.0 64.0 A 340.0 340.0 0 0 0 640.0 64.0" fill="none" stroke="rgba(120,200,200,0.18)" stroke-width="0.7"/>
<line x1="300.0" y1="64" x2="388.0" y2="392.4" stroke="rgba(120,200,200,0.10)" stroke-width="0.5"/>
<line x1="300.0" y1="64" x2="212.0" y2="392.4" stroke="rgba(120,200,200,0.10)" stroke-width="0.5"/>
<line x1="300.0" y1="64" x2="470.0" y2="358.4" stroke="rgba(120,200,200,0.10)" stroke-width="0.5"/>
<line x1="300.0" y1="64" x2="130.0" y2="358.4" stroke="rgba(120,200,200,0.10)" stroke-width="0.5"/>
<line x1="300.0" y1="64" x2="540.4" y2="304.4" stroke="rgba(120,200,200,0.10)" stroke-width="0.5"/>
<line x1="300.0" y1="64" x2="59.6" y2="304.4" stroke="rgba(120,200,200,0.10)" stroke-width="0.5"/>
<line x1="300.0" y1="64" x2="594.4" y2="234.0" stroke="rgba(120,200,200,0.10)" stroke-width="0.5"/>
<line x1="300.0" y1="64" x2="5.6" y2="234.0" stroke="rgba(120,200,200,0.10)" stroke-width="0.5"/>
<line x1="300.0" y1="64" x2="628.4" y2="152.0" stroke="rgba(120,200,200,0.10)" stroke-width="0.5"/>
<line x1="300.0" y1="64" x2="-28.4" y2="152.0" stroke="rgba(120,200,200,0.10)" stroke-width="0.5"/>
<line x1="300.0" y1="64" x2="640.0" y2="64.0" stroke="rgba(120,200,200,0.10)" stroke-width="0.5"/>
<line x1="300.0" y1="64" x2="-40.0" y2="64.0" stroke="rgba(120,200,200,0.10)" stroke-width="0.5"/>
<line x1="300.0" y1="64" x2="300.0" y2="408" stroke="rgba(120,200,200,0.14)" stroke-width="0.5"/>
<line x1="-40.0" y1="64" x2="640.0" y2="64" stroke="rgba(120,200,200,0.14)" stroke-width="0.5"/>
<text x="391.6" y="408.9" text-anchor="middle" fill="rgba(255,255,255,0.4)" font-size="9">15°</text>
<text x="208.4" y="408.9" text-anchor="middle" fill="rgba(255,255,255,0.4)" font-size="9">15°</text>
<text x="477.0" y="373.6" text-anchor="middle" fill="rgba(255,255,255,0.6)" font-size="9">30°</text>
<text x="123.0" y="373.6" text-anchor="middle" fill="rgba(255,255,255,0.6)" font-size="9">30°</text>
<text x="550.3" y="317.3" text-anchor="middle" fill="rgba(255,255,255,0.4)" font-size="9">45°</text>
<text x="49.7" y="317.3" text-anchor="middle" fill="rgba(255,255,255,0.4)" font-size="9">45°</text>
<text x="606.6" y="244.0" text-anchor="middle" fill="rgba(255,255,255,0.6)" font-size="9">60°</text>
<text x="-6.6" y="244.0" text-anchor="middle" fill="rgba(255,255,255,0.6)" font-size="9">60°</text>
<text x="641.9" y="158.6" text-anchor="middle" fill="rgba(255,255,255,0.4)" font-size="9">75°</text>
<text x="-41.9" y="158.6" text-anchor="middle" fill="rgba(255,255,255,0.4)" font-size="9">75°</text>
<text x="654.0" y="67.0" text-anchor="middle" fill="rgba(255,255,255,0.6)" font-size="9">90°</text>
<text x="-54.0" y="67.0" text-anchor="middle" fill="rgba(255,255,255,0.6)" font-size="9">90°</text>
<text x="300" y="426" text-anchor="middle" fill="rgba(255,255,255,0.6)" font-size="9">0°</text>
<path d="M 300.0 229.7 L 305.8 229.5 L 311.6 229.6 L 317.4 229.7 L 323.0 227.6 L 328.5 225.7 L 334.1 224.4 L 339.4 221.9 L 344.7 219.8 L 349.6 216.7 L 354.5 213.7 L 358.7 209.2 L 362.5 204.3 L 365.4 198.1 L 368.0 192.0 L 370.3 185.8 L 371.9 179.0 L 373.2 172.6 L 374.2 166.2 L 374.8 159.7 L 374.9 153.2 L 374.5 146.7 L 373.3 139.9 L 372.3 133.8 L 370.7 127.7 L 368.8 121.7 L 366.1 115.7 L 362.7 109.6 L 359.4 104.1 L 355.9 99.0 L 352.1 94.1 L 348.3 89.7 L 344.2 85.6 L 340.2 81.9 L 336.0 78.6 L 332.0 75.6 L 328.2 73.1 L 324.4 71.0 L 320.9 69.2 L 317.7 67.8 L 314.5 66.6 L 311.1 65.6 L 307.8 64.8 L 305.6 64.4 L 304.3 64.1 L 303.7 64.0 L 295.6 64.0 L 295.1 64.2 L 293.7 64.4 L 291.4 64.9 L 288.6 65.6 L 286.0 66.5 L 283.4 67.5 L 280.6 68.8 L 277.6 70.4 L 274.4 72.3 L 271.0 74.5 L 267.5 77.1 L 263.9 80.1 L 260.4 83.3 L 257.0 86.9 L 253.6 90.8 L 250.1 95.2 L 246.4 100.1 L 243.0 105.4 L 239.8 111.0 L 237.0 116.9 L 234.9 122.6 L 233.1 128.6 L 231.5 134.9 L 230.4 141.3 L 229.8 147.7 L 229.5 154.2 L 229.6 160.9 L 230.4 167.2 L 231.2 174.0 L 232.3 181.2 L 234.2 187.7 L 236.4 194.5 L 238.9 201.3 L 242.1 207.3 L 245.9 212.7 L 250.4 216.6 L 255.1 220.4 L 260.3 223.2 L 265.7 225.3 L 271.2 227.1 L 276.9 228.4 L 282.7 228.8 L 288.5 228.5 L 294.3 228.3 L 300.0 229.7 Z" fill="none" stroke="#3FA9F5" stroke-width="1.7" stroke-linejoin="round" stroke-linecap="round"/>
<path d="M 300.0 229.7 L 306.2 242.4 L 313.0 249.7 L 321.7 270.3 L 329.0 270.2 L 332.1 246.3 L 347.8 288.9 L 353.9 280.4 L 363.0 283.7 L 370.8 282.0 L 382.1 289.6 L 396.4 302.5 L 397.5 283.0 L 410.5 290.6 L 420.2 290.1 L 427.5 284.8 L 436.6 282.7 L 443.2 276.4 L 447.9 267.5 L 448.7 254.3 L 443.5 235.0 L 441.9 221.6 L 435.6 204.4 L 426.1 185.8 L 424.6 176.2 L 425.8 169.6 L 425.6 162.1 L 426.1 155.6 L 435.2 155.2 L 438.3 150.4 L 442.3 146.2 L 447.6 142.5 L 453.8 139.0 L 457.9 134.3 L 454.4 126.4 L 451.5 119.2 L 438.5 109.0 L 416.9 97.5 L 400.0 88.9 L 380.4 81.1 L 368.9 76.2 L 358.2 72.2 L 347.7 69.0 L 337.3 66.6 L 331.7 65.1 L 330.5 64.0 L 296.9 64.0 L 296.5 64.1 L 296.0 64.3 L 295.4 64.5 L 294.7 64.7 L 294.0 65.1 L 293.1 65.5 L 292.2 65.9 L 291.1 66.6 L 289.7 67.4 L 288.0 68.4 L 286.3 69.5 L 284.6 70.8 L 282.9 72.4 L 281.2 74.0 L 279.4 75.9 L 277.8 77.9 L 276.1 80.1 L 274.5 82.5 L 272.9 85.1 L 271.4 88.0 L 269.9 91.1 L 268.6 94.3 L 267.4 97.8 L 266.3 101.5 L 265.3 105.3 L 264.4 109.5 L 263.9 113.7 L 263.4 118.2 L 263.3 122.8 L 263.6 127.1 L 264.7 130.4 L 266.0 133.7 L 267.5 137.1 L 268.8 141.2 L 269.6 147.4 L 271.1 152.8 L 272.3 160.5 L 274.3 167.1 L 276.3 175.5 L 278.6 185.2 L 281.0 199.0 L 284.8 208.8 L 289.2 218.3 L 294.3 227.5 L 300.0 229.7 Z" fill="none" stroke="#F32740" stroke-width="2.0" stroke-linejoin="round" stroke-linecap="round"/>
<text x="338" y="132" fill="#F32740" font-size="9.5" font-weight="700">125</text>
<text x="335" y="200" fill="#F32740" font-size="9.5" font-weight="700">250</text>
<text x="335" y="268" fill="#F32740" font-size="9.5" font-weight="700">375</text>
<text x="335" y="336" fill="#F32740" font-size="9.5" font-weight="700">500</text>
<rect x="274.0" y="58" width="52" height="11" rx="1.5" fill="#fafbfc" stroke="rgba(255,255,255,0.4)" stroke-width="0.5"/>
<line x1="272.0" y1="69.8" x2="328.0" y2="69.8" stroke="#F32740" stroke-width="0.7" stroke-dasharray="1.5 2"/>
<text x="300" y="66" text-anchor="middle" fill="#F32740" font-size="8" font-weight="700" letter-spacing="0.5">cd/klm SCALE</text>
<g transform="translate(22, 434)">
<text x="0" y="-8" fill="rgba(255,255,255,0.55)" font-size="8" letter-spacing="1.4">cd/klm</text>
<line x1="0" y1="6" x2="22" y2="6" stroke="#F32740" stroke-width="2.2"/>
<text x="28" y="9" fill="rgba(255,255,255,0.7)" font-size="9.5">C0 – C180</text>
<line x1="120" y1="6" x2="142" y2="6" stroke="#3FA9F5" stroke-width="1.7"/>
<text x="148" y="9" fill="rgba(255,255,255,0.7)" font-size="9.5">C90 – C270</text>
</g>
<text x="578" y="402" fill="rgba(255,255,255,0.45)" font-size="9" text-anchor="end">η = 128 lm/W</text>
<text x="578" y="418" fill="rgba(255,255,255,0.45)" font-size="9" text-anchor="end">15,081 lm · 118.2W</text>
<text x="578" y="434" fill="rgba(255,255,255,0.55)" font-size="8" letter-spacing="1.4" text-anchor="end">PEAK INTENSITY</text>
<text x="578" y="451" fill="#fff" font-weight="700" font-size="14" text-anchor="end">7,148 cd</text>
</svg>