<svg viewBox="0 0 600 460" xmlns="http://www.w3.org/2000/svg" font-family="JetBrains Mono, monospace" font-size="9.5">
<rect width="100%" height="100%" fill="#14171b"/>
<text x="22" y="26" fill="#F32740" font-weight="700" letter-spacing="2">LWPF812 · 80W · 5000K · CLASSIC FORWARD-THROW</text>
<text x="22" y="42" fill="rgba(255,255,255,0.55)" font-size="8" letter-spacing="1.4">LUMINOUS INTENSITY DISTRIBUTION (cd/klm)</text>
<path d="M 232.0 64.0 A 68.0 68.0 0 0 0 368.0 64.0" fill="none" stroke="rgba(120,200,200,0.18)" stroke-width="0.7"/>
<path d="M 164.0 64.0 A 136.0 136.0 0 0 0 436.0 64.0" fill="none" stroke="rgba(120,200,200,0.18)" stroke-width="0.7"/>
<path d="M 96.0 64.0 A 204.0 204.0 0 0 0 504.0 64.0" fill="none" stroke="rgba(120,200,200,0.18)" stroke-width="0.7"/>
<path d="M 28.0 64.0 A 272.0 272.0 0 0 0 572.0 64.0" fill="none" stroke="rgba(120,200,200,0.18)" stroke-width="0.7"/>
<path d="M -40.0 64.0 A 340.0 340.0 0 0 0 640.0 64.0" fill="none" stroke="rgba(120,200,200,0.18)" stroke-width="0.7"/>
<line x1="300.0" y1="64" x2="388.0" y2="392.4" stroke="rgba(120,200,200,0.10)" stroke-width="0.5"/>
<line x1="300.0" y1="64" x2="212.0" y2="392.4" stroke="rgba(120,200,200,0.10)" stroke-width="0.5"/>
<line x1="300.0" y1="64" x2="470.0" y2="358.4" stroke="rgba(120,200,200,0.10)" stroke-width="0.5"/>
<line x1="300.0" y1="64" x2="130.0" y2="358.4" stroke="rgba(120,200,200,0.10)" stroke-width="0.5"/>
<line x1="300.0" y1="64" x2="540.4" y2="304.4" stroke="rgba(120,200,200,0.10)" stroke-width="0.5"/>
<line x1="300.0" y1="64" x2="59.6" y2="304.4" stroke="rgba(120,200,200,0.10)" stroke-width="0.5"/>
<line x1="300.0" y1="64" x2="594.4" y2="234.0" stroke="rgba(120,200,200,0.10)" stroke-width="0.5"/>
<line x1="300.0" y1="64" x2="5.6" y2="234.0" stroke="rgba(120,200,200,0.10)" stroke-width="0.5"/>
<line x1="300.0" y1="64" x2="628.4" y2="152.0" stroke="rgba(120,200,200,0.10)" stroke-width="0.5"/>
<line x1="300.0" y1="64" x2="-28.4" y2="152.0" stroke="rgba(120,200,200,0.10)" stroke-width="0.5"/>
<line x1="300.0" y1="64" x2="640.0" y2="64.0" stroke="rgba(120,200,200,0.10)" stroke-width="0.5"/>
<line x1="300.0" y1="64" x2="-40.0" y2="64.0" stroke="rgba(120,200,200,0.10)" stroke-width="0.5"/>
<line x1="300.0" y1="64" x2="300.0" y2="408" stroke="rgba(120,200,200,0.14)" stroke-width="0.5"/>
<line x1="-40.0" y1="64" x2="640.0" y2="64" stroke="rgba(120,200,200,0.14)" stroke-width="0.5"/>
<text x="391.6" y="408.9" text-anchor="middle" fill="rgba(255,255,255,0.4)" font-size="9">15°</text>
<text x="208.4" y="408.9" text-anchor="middle" fill="rgba(255,255,255,0.4)" font-size="9">15°</text>
<text x="477.0" y="373.6" text-anchor="middle" fill="rgba(255,255,255,0.6)" font-size="9">30°</text>
<text x="123.0" y="373.6" text-anchor="middle" fill="rgba(255,255,255,0.6)" font-size="9">30°</text>
<text x="550.3" y="317.3" text-anchor="middle" fill="rgba(255,255,255,0.4)" font-size="9">45°</text>
<text x="49.7" y="317.3" text-anchor="middle" fill="rgba(255,255,255,0.4)" font-size="9">45°</text>
<text x="606.6" y="244.0" text-anchor="middle" fill="rgba(255,255,255,0.6)" font-size="9">60°</text>
<text x="-6.6" y="244.0" text-anchor="middle" fill="rgba(255,255,255,0.6)" font-size="9">60°</text>
<text x="641.9" y="158.6" text-anchor="middle" fill="rgba(255,255,255,0.4)" font-size="9">75°</text>
<text x="-41.9" y="158.6" text-anchor="middle" fill="rgba(255,255,255,0.4)" font-size="9">75°</text>
<text x="654.0" y="67.0" text-anchor="middle" fill="rgba(255,255,255,0.6)" font-size="9">90°</text>
<text x="-54.0" y="67.0" text-anchor="middle" fill="rgba(255,255,255,0.6)" font-size="9">90°</text>
<text x="300" y="426" text-anchor="middle" fill="rgba(255,255,255,0.6)" font-size="9">0°</text>
<path d="M 300.0 229.7 L 305.8 229.6 L 311.6 229.5 L 317.4 229.4 L 323.0 227.4 L 328.5 225.5 L 334.1 224.2 L 339.4 221.9 L 344.6 219.6 L 349.5 216.4 L 354.4 213.5 L 358.6 209.0 L 362.4 204.2 L 365.4 198.0 L 368.0 191.9 L 370.3 185.7 L 371.8 179.0 L 373.2 172.5 L 374.1 166.0 L 374.6 159.5 L 374.6 152.9 L 374.0 146.2 L 373.0 139.6 L 371.9 133.4 L 370.4 127.4 L 368.4 121.4 L 365.7 115.3 L 362.3 109.2 L 359.1 103.9 L 355.6 98.7 L 351.8 93.9 L 348.0 89.5 L 344.0 85.4 L 339.9 81.8 L 335.8 78.5 L 331.8 75.6 L 327.9 73.1 L 324.2 70.9 L 320.7 69.2 L 317.7 67.8 L 314.4 66.5 L 311.2 65.6 L 307.8 64.8 L 305.6 64.4 L 304.3 64.2 L 303.7 64.0 L 295.8 64.0 L 295.1 64.2 L 293.2 64.5 L 291.3 64.9 L 288.6 65.6 L 285.9 66.5 L 283.3 67.5 L 280.5 68.9 L 277.5 70.5 L 274.3 72.4 L 270.9 74.6 L 267.3 77.2 L 263.7 80.2 L 260.1 83.5 L 256.7 87.0 L 253.2 91.0 L 249.6 95.5 L 246.2 100.3 L 242.7 105.6 L 239.6 111.2 L 236.8 117.0 L 234.8 122.7 L 232.9 128.8 L 231.4 135.0 L 230.3 141.5 L 229.7 147.8 L 229.4 154.4 L 229.5 161.1 L 230.3 167.4 L 231.1 174.3 L 232.2 181.5 L 234.2 187.8 L 236.3 194.6 L 238.9 201.2 L 242.1 207.4 L 245.9 212.7 L 250.4 216.7 L 255.2 220.4 L 260.3 223.2 L 265.7 225.3 L 271.2 227.3 L 276.9 228.4 L 282.7 228.8 L 288.5 228.5 L 294.3 228.5 L 300.0 229.7 Z" fill="none" stroke="#3FA9F5" stroke-width="1.7" stroke-linejoin="round" stroke-linecap="round"/>
<path d="M 300.0 229.7 L 306.2 242.3 L 313.0 249.6 L 321.7 270.1 L 329.0 270.2 L 332.2 246.3 L 347.7 288.6 L 353.9 280.0 L 363.0 283.6 L 370.8 281.9 L 382.1 289.5 L 396.3 302.3 L 397.3 282.5 L 410.3 290.2 L 420.0 289.8 L 427.3 284.5 L 436.4 282.3 L 443.2 276.3 L 447.7 267.2 L 448.5 254.0 L 443.0 234.5 L 441.8 221.5 L 435.3 204.1 L 425.9 185.6 L 424.2 175.8 L 425.5 169.3 L 425.4 162.0 L 426.0 155.5 L 435.0 155.0 L 437.8 150.1 L 441.9 145.9 L 447.3 142.3 L 453.4 138.8 L 457.5 134.1 L 454.2 126.3 L 451.5 119.1 L 434.1 107.6 L 416.2 97.3 L 399.5 88.8 L 380.2 81.0 L 368.8 76.1 L 358.0 72.2 L 347.5 69.0 L 337.1 66.6 L 331.7 65.1 L 330.4 64.0 L 296.9 64.0 L 296.5 64.1 L 295.9 64.3 L 295.4 64.5 L 294.7 64.7 L 294.0 65.1 L 293.1 65.5 L 292.2 65.9 L 291.1 66.6 L 289.6 67.4 L 288.0 68.4 L 286.4 69.5 L 284.6 70.9 L 282.8 72.4 L 281.2 74.0 L 279.5 75.9 L 277.8 77.9 L 276.1 80.1 L 274.5 82.5 L 273.0 85.1 L 271.4 88.0 L 269.9 91.1 L 268.6 94.4 L 267.3 97.9 L 266.2 101.6 L 265.3 105.4 L 264.4 109.6 L 263.8 113.8 L 263.5 118.1 L 263.3 122.7 L 263.6 127.1 L 264.7 130.4 L 266.0 133.7 L 267.4 137.1 L 268.8 141.2 L 269.6 147.4 L 271.1 152.8 L 272.3 160.5 L 274.3 167.0 L 276.3 175.6 L 278.6 185.3 L 281.0 199.1 L 284.8 208.7 L 289.2 218.3 L 294.3 227.6 L 300.0 229.7 Z" fill="none" stroke="#F32740" stroke-width="2.0" stroke-linejoin="round" stroke-linecap="round"/>
<text x="338" y="132" fill="#F32740" font-size="9.5" font-weight="700">125</text>
<text x="335" y="200" fill="#F32740" font-size="9.5" font-weight="700">250</text>
<text x="335" y="268" fill="#F32740" font-size="9.5" font-weight="700">375</text>
<text x="335" y="336" fill="#F32740" font-size="9.5" font-weight="700">500</text>
<rect x="274.0" y="58" width="52" height="11" rx="1.5" fill="#fafbfc" stroke="rgba(255,255,255,0.4)" stroke-width="0.5"/>
<line x1="272.0" y1="69.8" x2="328.0" y2="69.8" stroke="#F32740" stroke-width="0.7" stroke-dasharray="1.5 2"/>
<text x="300" y="66" text-anchor="middle" fill="#F32740" font-size="8" font-weight="700" letter-spacing="0.5">cd/klm SCALE</text>
<g transform="translate(22, 434)">
<text x="0" y="-8" fill="rgba(255,255,255,0.55)" font-size="8" letter-spacing="1.4">cd/klm</text>
<line x1="0" y1="6" x2="22" y2="6" stroke="#F32740" stroke-width="2.2"/>
<text x="28" y="9" fill="rgba(255,255,255,0.7)" font-size="9.5">C0 – C180</text>
<line x1="120" y1="6" x2="142" y2="6" stroke="#3FA9F5" stroke-width="1.7"/>
<text x="148" y="9" fill="rgba(255,255,255,0.7)" font-size="9.5">C90 – C270</text>
</g>
<text x="578" y="402" fill="rgba(255,255,255,0.45)" font-size="9" text-anchor="end">η = 134 lm/W</text>
<text x="578" y="418" fill="rgba(255,255,255,0.45)" font-size="9" text-anchor="end">9,977 lm · 74.2W</text>
<text x="578" y="434" fill="rgba(255,255,255,0.55)" font-size="8" letter-spacing="1.4" text-anchor="end">PEAK INTENSITY</text>
<text x="578" y="451" fill="#fff" font-weight="700" font-size="14" text-anchor="end">4,721 cd</text>
</svg>