<?xml version="1.0" encoding="utf-8"?>
<!-- Generator: Adobe Illustrator 27.10.0, SVG Export Plug-In . SVG Version: 6.00 Build 0)  -->
<svg version="1.1" id="Layer_1" xmlns="http://www.w3.org/2000/svg" xmlns:xlink="http://www.w3.org/1999/xlink" x="0px" y="0px"
	 viewBox="0 0 922.26 274.82" style="enable-background:new 0 0 922.26 274.82;" xml:space="preserve">
<style type="text/css">
	.st0{fill:#F32740;}
	.st1{fill:#232930;}
	.st2{fill:#1E2837;}
</style>
<g>
	<g>
		<g id="Group_511_00000118380081833674478650000000573620218220270012_">
			<path id="Path_1298_00000094614773342221849510000014018137953072670629_" class="st0" d="M148.21,172.47h7v-61.7l-0.08-36.46
				c0.04-2.93-0.14-5.86-0.55-8.76c-0.2-1.84-0.85-3.59-1.89-5.12c-1.03-1.25-2.46-2.11-4.04-2.43c-2.21-0.49-4.48-0.72-6.74-0.68
				c-0.37,0-66.74,0-67.09,0c-1.86,0.01-3.72,0.24-5.53,0.66c-1.57,0.36-2.98,1.21-4.04,2.43c-1.11,1.49-1.77,3.27-1.89,5.12
				c-0.3,2.91-0.43,5.83-0.4,8.76v98.18H148.21z"/>
			<path id="Path_1299_00000173849381643231460850000012048344382304717726_" class="st0" d="M186.14,81.65l0.08,136.68h69.06V23.41
				C255.27,10.48,244.79,0,231.86,0H23.41C10.48,0,0,10.48,0,23.41v228c0,12.93,10.48,23.41,23.41,23.41c0,0,0,0,0,0h208.44
				c12.93,0,23.41-10.48,23.41-23.41c0,0,0,0,0,0v-6.11H155.19v-47.48H88.3l-25.35-25.35v72.8h-30.2V74.32
				c-0.16-7.9,0.42-15.8,1.75-23.6c0.78-5.06,3.09-9.76,6.61-13.47c3.71-3.38,8.36-5.55,13.34-6.23C61.1,30,67.82,29.5,74.54,29.55
				h67.63c7.27-0.12,14.54,0.42,21.71,1.61c5.04,0.77,9.73,3.03,13.48,6.48c3.59,3.75,5.99,8.49,6.88,13.61
				c1.41,7.6,2.05,15.33,1.89,23.06L186.14,81.65L186.14,81.65z"/>
		</g>
	</g>
	<g>
		<g>
			<path id="Path_1300_00000127023860864916995930000002823061527983363500_" class="st1" d="M355.73,63.71
				c10.22,0,15.33,5.44,15.33,16.32v64.91h-17.31v-26.83h-12.47v26.83h-17.31V80.03c0-10.88,5.11-16.32,15.33-16.32H355.73z
				 M341.29,104.76h12.49V77.92c0.01-0.64-0.24-1.26-0.68-1.73c-0.42-0.48-1.03-0.75-1.67-0.74h-7.79
				c-0.64-0.01-1.25,0.26-1.67,0.74c-0.44,0.47-0.69,1.09-0.68,1.73L341.29,104.76z"/>
			<path id="Path_1301_00000051384176767825285240000008217525595564395199_" class="st1" d="M403.7,112.17v32.79H386.4V64.94h30.79
				c10.22,0,15.33,5.44,15.33,16.32v9.27c0.75,5.31-2.13,10.47-7.05,12.61c4.17,1.53,6.73,5.73,6.18,10.14v31.67h-17.31v-30.32
				c0-1.65-0.79-2.47-2.36-2.47H403.7z M403.7,76.69v23.37h9.15c0.64,0.01,1.25-0.26,1.67-0.74c0.44-0.47,0.69-1.09,0.68-1.73V79.17
				c0.01-0.64-0.24-1.26-0.68-1.73c-0.42-0.48-1.03-0.75-1.67-0.74L403.7,76.69z"/>
			<path id="Path_1302_00000179615099330132521080000014884209716557698440_" class="st1" d="M475.91,131.84v-12.37h16.44v10.38
				c0,10.88-5.11,16.32-15.33,16.32h-15.58c-10.22,0-15.33-5.44-15.33-16.32V80.03c0-10.88,5.11-16.32,15.33-16.32h15.58
				c10.22,0,15.33,5.44,15.33,16.32v7.55h-16.44v-9.66c0.01-0.64-0.24-1.26-0.68-1.73c-0.42-0.48-1.04-0.76-1.68-0.75h-7.79
				c-0.64-0.01-1.25,0.26-1.67,0.74c-0.44,0.47-0.69,1.09-0.68,1.73v53.92c-0.01,0.64,0.24,1.27,0.68,1.73
				c0.42,0.48,1.03,0.75,1.67,0.74h7.79c0.64,0.01,1.25-0.26,1.67-0.74C475.66,133.1,475.9,132.48,475.91,131.84"/>
			<path id="Path_1303_00000107546573645671074790000000601286587203022509_" class="st1" d="M522.52,113.54v31.41h-17.31v-80h17.31
				v33.51h13.73V64.95h17.31v80h-17.31v-31.41H522.52z"/>
			
				<rect id="Rectangle_237_00000063618153045698084820000005403852661237397174_" x="568.4" y="64.94" class="st1" width="17.31" height="80"/>
			<path id="Path_1304_00000145043797640295599190000006512033232480673937_" class="st1" d="M632.19,64.94
				c10.22,0,15.33,5.44,15.33,16.32v15.95c0,10.88-5.11,16.32-15.33,16.32h-13.97v31.4h-17.31v-80H632.19z M630.22,99.19v-19.9
				c0.01-0.64-0.24-1.26-0.68-1.73c-0.42-0.48-1.03-0.75-1.67-0.74h-9.64v24.85h9.64c0.64,0.01,1.25-0.26,1.67-0.74
				C629.98,100.46,630.22,99.84,630.22,99.19"/>
			<path id="Path_1305_00000063625918805718319790000014101317415038163607_" class="st1" d="M675.96,130.6h19.16v14.34h-36.48v-80
				h36.48v14.09h-19.16v18.79h17.94v13.62h-17.94V130.6z"/>
			<path id="Path_1306_00000153663501080353761180000011517826105452774317_" class="st1" d="M724.92,130.33h18.92v14.59h-36.23
				V64.94h17.31L724.92,130.33z"/>
			<path id="Path_1307_00000115495143813122348090000008397898509123896234_" class="st1" d="M786.25,63.71
				c10.22,0,15.33,5.44,15.33,16.32v64.91h-17.31v-26.83h-12.49v26.83H754.5V80.03c0-10.88,5.11-16.32,15.33-16.32H786.25z
				 M771.79,104.77h12.49V77.92c0.01-0.64-0.24-1.26-0.68-1.73c-0.42-0.48-1.03-0.75-1.67-0.74h-7.79
				c-0.64-0.01-1.25,0.26-1.67,0.74c-0.44,0.47-0.69,1.09-0.68,1.73V104.77z"/>
			<path id="Path_1308_00000149377116000244846710000003909313054660265091_" class="st1" d="M840.28,113.17v-12.74h22.87v29.42
				c0,10.88-5.11,16.32-15.33,16.32h-15.58c-10.22,0-15.33-5.44-15.33-16.32V80.03c0-10.88,5.11-16.32,15.33-16.32h15.58
				c10.22,0,15.33,5.44,15.33,16.32v7.55h-16.44v-9.66c0.01-0.64-0.24-1.26-0.68-1.73c-0.42-0.48-1.03-0.75-1.67-0.74h-7.79
				c-0.64-0.01-1.25,0.26-1.67,0.74c-0.44,0.47-0.69,1.09-0.68,1.73v53.91c-0.01,0.64,0.24,1.27,0.68,1.73
				c0.42,0.48,1.03,0.75,1.67,0.74h7.79c0.64,0.01,1.25-0.26,1.67-0.74c0.44-0.47,0.69-1.09,0.68-1.73v-18.67H840.28z"/>
			<path id="Path_1309_00000034780815888598536560000012694475087430405055_" class="st1" d="M922.26,80.03v49.83
				c0,10.88-5.11,16.32-15.33,16.32h-16.44c-10.22,0-15.33-5.44-15.33-16.32V80.03c0-10.88,5.11-16.32,15.33-16.32h16.44
				C917.15,63.71,922.26,69.15,922.26,80.03 M904.94,131.84V77.92c0.01-0.64-0.24-1.26-0.68-1.73c-0.42-0.48-1.03-0.75-1.67-0.74
				h-7.79c-0.64-0.01-1.25,0.26-1.67,0.74c-0.44,0.47-0.69,1.09-0.68,1.73v53.91c-0.01,0.64,0.24,1.27,0.68,1.73
				c0.42,0.48,1.03,0.75,1.67,0.74h7.79c0.64,0.01,1.25-0.26,1.67-0.74C904.71,133.1,904.95,132.48,904.94,131.84"/>
		</g>
		<g>
			<g>
				<path class="st2" d="M323.98,210.73v-33.12h4.14v29.46h15.45v3.66H323.98z"/>
				<path class="st2" d="M362.39,210.73v-33.12h4.14v33.12H362.39z"/>
				<path class="st2" d="M401.57,211.12c-2.34,0-4.33-0.14-5.97-0.41s-2.98-0.76-4.02-1.47c-1.04-0.71-1.86-1.69-2.46-2.96
					c-0.59-1.27-1.01-2.89-1.25-4.86c-0.24-1.97-0.36-4.39-0.36-7.24c0-2.86,0.12-5.27,0.36-7.24c0.24-1.97,0.67-3.59,1.28-4.86
					c0.61-1.27,1.44-2.25,2.5-2.96c1.06-0.71,2.4-1.2,4.02-1.47c1.62-0.27,3.59-0.41,5.9-0.41c1.09,0,2.26,0.05,3.51,0.14
					c1.25,0.1,2.48,0.21,3.68,0.34c1.2,0.13,2.29,0.29,3.25,0.48v3.37c-1.03-0.16-2.07-0.3-3.13-0.41c-1.06-0.11-2.05-0.2-2.96-0.26
					c-0.92-0.06-1.69-0.1-2.34-0.1c-1.99,0-3.68,0.05-5.08,0.14c-1.4,0.1-2.54,0.35-3.44,0.77c-0.9,0.42-1.59,1.1-2.07,2.05
					c-0.48,0.95-0.83,2.25-1.03,3.92c-0.21,1.67-0.31,3.84-0.31,6.5c0,2.34,0.06,4.31,0.19,5.9c0.13,1.59,0.39,2.88,0.79,3.87
					c0.4,1,0.96,1.77,1.68,2.31c0.72,0.55,1.68,0.91,2.89,1.08c1.2,0.18,2.69,0.27,4.45,0.27c0.67,0,1.41-0.02,2.21-0.05
					c0.8-0.03,1.59-0.08,2.36-0.14c0.77-0.06,1.41-0.13,1.93-0.19v-10.78h-7.51v-3.51h11.51v17.23c-1.06,0.19-2.22,0.36-3.49,0.51
					c-1.27,0.14-2.52,0.26-3.75,0.34C403.68,211.08,402.57,211.12,401.57,211.12z"/>
				<path class="st2" d="M433.73,210.73v-33.12h4.14v14.59h17.33v-14.59h4.14v33.12h-4.14v-14.87h-17.33v14.87H433.73z"/>
				<path class="st2" d="M488.51,210.73v-29.46h-10.45v-3.66h25.08v3.66h-10.49v29.46H488.51z"/>
				<path class="st2" d="M521.91,210.73v-33.12h4.14v33.12H521.91z"/>
				<path class="st2" d="M548.2,210.73v-33.12h4.24l17.18,25.37h0.19v-25.37h4v33.12h-4l-17.42-25.85h-0.19v25.85H548.2z"/>
				<path class="st2" d="M608.8,211.12c-2.34,0-4.33-0.14-5.97-0.41c-1.64-0.27-2.98-0.76-4.02-1.47c-1.04-0.71-1.86-1.69-2.46-2.96
					c-0.59-1.27-1.01-2.89-1.25-4.86c-0.24-1.97-0.36-4.39-0.36-7.24c0-2.86,0.12-5.27,0.36-7.24c0.24-1.97,0.67-3.59,1.28-4.86
					c0.61-1.27,1.44-2.25,2.5-2.96c1.06-0.71,2.4-1.2,4.02-1.47c1.62-0.27,3.59-0.41,5.9-0.41c1.09,0,2.26,0.05,3.51,0.14
					c1.25,0.1,2.48,0.21,3.68,0.34c1.2,0.13,2.29,0.29,3.25,0.48v3.37c-1.03-0.16-2.07-0.3-3.13-0.41c-1.06-0.11-2.05-0.2-2.96-0.26
					c-0.92-0.06-1.69-0.1-2.34-0.1c-1.99,0-3.68,0.05-5.08,0.14c-1.4,0.1-2.54,0.35-3.44,0.77c-0.9,0.42-1.59,1.1-2.07,2.05
					c-0.48,0.95-0.83,2.25-1.03,3.92c-0.21,1.67-0.31,3.84-0.31,6.5c0,2.34,0.06,4.31,0.19,5.9c0.13,1.59,0.39,2.88,0.79,3.87
					c0.4,1,0.96,1.77,1.68,2.31c0.72,0.55,1.68,0.91,2.89,1.08c1.2,0.18,2.69,0.27,4.45,0.27c0.67,0,1.41-0.02,2.21-0.05
					c0.8-0.03,1.59-0.08,2.36-0.14c0.77-0.06,1.41-0.13,1.93-0.19v-10.78h-7.51v-3.51h11.51v17.23c-1.06,0.19-2.22,0.36-3.49,0.51
					c-1.27,0.14-2.52,0.26-3.75,0.34C610.91,211.08,609.79,211.12,608.8,211.12z"/>
				<path class="st2" d="M668.06,211.12c-2.34,0-4.33-0.14-5.97-0.41c-1.64-0.27-2.98-0.76-4.02-1.47
					c-1.04-0.71-1.86-1.69-2.46-2.96c-0.59-1.27-1.01-2.89-1.25-4.86c-0.24-1.97-0.36-4.39-0.36-7.24c0-2.86,0.12-5.27,0.36-7.24
					c0.24-1.97,0.67-3.59,1.28-4.86c0.61-1.27,1.44-2.25,2.5-2.96c1.06-0.71,2.4-1.2,4.02-1.47c1.62-0.27,3.59-0.41,5.9-0.41
					c1.09,0,2.26,0.05,3.51,0.14c1.25,0.1,2.48,0.21,3.68,0.34c1.2,0.13,2.29,0.29,3.25,0.48v3.37c-1.03-0.16-2.07-0.3-3.13-0.41
					c-1.06-0.11-2.05-0.2-2.96-0.26c-0.92-0.06-1.69-0.1-2.34-0.1c-1.99,0-3.68,0.05-5.08,0.14c-1.4,0.1-2.54,0.35-3.44,0.77
					c-0.9,0.42-1.59,1.1-2.07,2.05c-0.48,0.95-0.83,2.25-1.03,3.92c-0.21,1.67-0.31,3.84-0.31,6.5c0,2.34,0.06,4.31,0.19,5.9
					c0.13,1.59,0.39,2.88,0.79,3.87c0.4,1,0.96,1.77,1.68,2.31c0.72,0.55,1.68,0.91,2.89,1.08c1.2,0.18,2.69,0.27,4.45,0.27
					c0.67,0,1.41-0.02,2.21-0.05c0.8-0.03,1.59-0.08,2.36-0.14c0.77-0.06,1.41-0.13,1.93-0.19v-10.78h-7.51v-3.51h11.51v17.23
					c-1.06,0.19-2.22,0.36-3.49,0.51c-1.27,0.14-2.52,0.26-3.75,0.34C670.17,211.08,669.06,211.12,668.06,211.12z"/>
				<path class="st2" d="M700.22,210.73v-33.12h15.21c2.09,0,3.75,0.25,4.98,0.75c1.23,0.5,2.15,1.2,2.74,2.12
					c0.59,0.91,0.99,1.98,1.18,3.2c0.19,1.22,0.29,2.52,0.29,3.9c0,1.19-0.1,2.42-0.31,3.68c-0.21,1.27-0.67,2.42-1.4,3.44
					c-0.72,1.03-1.85,1.78-3.39,2.26l5.58,13.77h-4.43l-5.49-13.91l1.16,0.58c-0.22,0.06-0.5,0.11-0.82,0.14
					c-0.32,0.03-0.75,0.05-1.3,0.05h-9.87v13.14H700.22z M704.36,193.98h9.29c1.6,0,2.86-0.13,3.78-0.39
					c0.91-0.26,1.59-0.66,2.02-1.2c0.43-0.55,0.71-1.21,0.84-2c0.13-0.79,0.19-1.72,0.19-2.82c0-1.09-0.06-2.03-0.17-2.82
					c-0.11-0.79-0.37-1.44-0.77-1.97c-0.4-0.53-1.04-0.93-1.93-1.2c-0.88-0.27-2.09-0.41-3.63-0.41h-9.63V193.98z"/>
				<path class="st2" d="M757.93,211.12c-2.57,0-4.69-0.14-6.38-0.41s-3.02-0.76-4-1.47c-0.98-0.71-1.69-1.69-2.14-2.96
					c-0.45-1.27-0.74-2.89-0.87-4.86c-0.13-1.97-0.19-4.39-0.19-7.24c0-2.86,0.06-5.27,0.19-7.24c0.13-1.97,0.42-3.59,0.87-4.86
					c0.45-1.27,1.16-2.25,2.14-2.96c0.98-0.71,2.31-1.2,4-1.47c1.68-0.27,3.81-0.41,6.38-0.41c2.57,0,4.69,0.14,6.38,0.41
					c1.68,0.27,3.02,0.76,4,1.47c0.98,0.71,1.69,1.69,2.14,2.96c0.45,1.27,0.74,2.89,0.87,4.86c0.13,1.97,0.19,4.39,0.19,7.24
					c0,2.86-0.06,5.27-0.19,7.24c-0.13,1.97-0.42,3.59-0.87,4.86c-0.45,1.27-1.16,2.25-2.14,2.96c-0.98,0.71-2.31,1.2-4,1.47
					S760.5,211.12,757.93,211.12z M757.93,207.56c1.77,0,3.23-0.06,4.38-0.17c1.16-0.11,2.07-0.38,2.74-0.79
					c0.67-0.42,1.19-1.1,1.54-2.05c0.35-0.95,0.57-2.25,0.65-3.92c0.08-1.67,0.12-3.82,0.12-6.45c0-2.63-0.04-4.78-0.12-6.45
					c-0.08-1.67-0.3-2.98-0.65-3.92c-0.35-0.95-0.87-1.63-1.54-2.05c-0.67-0.42-1.59-0.68-2.74-0.79c-1.15-0.11-2.62-0.17-4.38-0.17
					c-1.76,0-3.22,0.06-4.36,0.17c-1.14,0.11-2.05,0.38-2.74,0.79c-0.69,0.42-1.2,1.1-1.54,2.05c-0.34,0.95-0.55,2.26-0.65,3.92
					c-0.1,1.67-0.14,3.82-0.14,6.45c0,2.63,0.05,4.78,0.14,6.45c0.1,1.67,0.31,2.98,0.65,3.92c0.34,0.95,0.85,1.63,1.54,2.05
					c0.69,0.42,1.6,0.68,2.74,0.79C754.71,207.5,756.17,207.56,757.93,207.56z"/>
				<path class="st2" d="M804.82,211.12c-2.28,0-4.18-0.14-5.7-0.41c-1.52-0.27-2.75-0.73-3.68-1.37c-0.93-0.64-1.64-1.53-2.12-2.67
					c-0.48-1.14-0.8-2.56-0.96-4.26c-0.16-1.7-0.24-3.75-0.24-6.16v-18.63h4.14v20.27c0,2.02,0.08,3.66,0.24,4.91
					c0.16,1.25,0.51,2.23,1.03,2.94c0.53,0.71,1.37,1.19,2.53,1.44c1.16,0.26,2.74,0.39,4.77,0.39c2.02,0,3.6-0.13,4.74-0.39
					c1.14-0.26,1.97-0.74,2.5-1.44c0.53-0.71,0.86-1.68,0.99-2.94c0.13-1.25,0.19-2.89,0.19-4.91v-20.27h4.14v18.63
					c0,2.41-0.07,4.46-0.22,6.16c-0.14,1.7-0.45,3.12-0.91,4.26c-0.47,1.14-1.16,2.03-2.09,2.67c-0.93,0.64-2.16,1.1-3.68,1.37
					C808.95,210.98,807.06,211.12,804.82,211.12z"/>
				<path class="st2" d="M839.14,210.73v-33.12h14.49c2.12,0,3.81,0.27,5.08,0.79c1.27,0.53,2.21,1.26,2.84,2.19
					c0.63,0.93,1.05,2.03,1.28,3.3c0.22,1.27,0.34,2.66,0.34,4.16c0,1.44-0.1,2.8-0.31,4.07c-0.21,1.27-0.63,2.38-1.28,3.35
					c-0.64,0.96-1.6,1.72-2.89,2.26c-1.28,0.55-3,0.82-5.15,0.82h-10.25v12.18H839.14z M843.28,194.94h8.91
					c1.57,0,2.82-0.13,3.73-0.39c0.92-0.26,1.6-0.67,2.05-1.23c0.45-0.56,0.74-1.28,0.87-2.14c0.13-0.87,0.19-1.91,0.19-3.13
					c0-1.22-0.06-2.26-0.17-3.13c-0.11-0.87-0.39-1.57-0.82-2.12c-0.43-0.55-1.11-0.95-2.02-1.23c-0.91-0.27-2.16-0.41-3.73-0.41h-9
					V194.94z"/>
			</g>
		</g>
	</g>
</g>
</svg>
