<svg viewBox="0 0 600 460" xmlns="http://www.w3.org/2000/svg" font-family="JetBrains Mono, monospace" font-size="9.5">
<rect width="100%" height="100%" fill="#14171b"/>
<text x="22" y="26" fill="#F32740" font-weight="700" letter-spacing="2">LWPC38 · 38W · 3000K · FULL-CUTOFF FORWARD-THROW</text>
<text x="22" y="42" fill="rgba(255,255,255,0.55)" font-size="8" letter-spacing="1.4">LUMINOUS INTENSITY DISTRIBUTION (cd/klm)</text>
<path d="M 215.0 64.0 A 85.0 85.0 0 0 0 385.0 64.0" fill="none" stroke="rgba(120,200,200,0.18)" stroke-width="0.7"/>
<path d="M 130.0 64.0 A 170.0 170.0 0 0 0 470.0 64.0" fill="none" stroke="rgba(120,200,200,0.18)" stroke-width="0.7"/>
<path d="M 45.0 64.0 A 255.0 255.0 0 0 0 555.0 64.0" fill="none" stroke="rgba(120,200,200,0.18)" stroke-width="0.7"/>
<path d="M -40.0 64.0 A 340.0 340.0 0 0 0 640.0 64.0" fill="none" stroke="rgba(120,200,200,0.18)" stroke-width="0.7"/>
<line x1="300" y1="64" x2="212.0" y2="392.4" stroke="rgba(120,200,200,0.1)" stroke-width="0.5"/>
<line x1="300" y1="64" x2="388.0" y2="392.4" stroke="rgba(120,200,200,0.1)" stroke-width="0.5"/>
<line x1="300" y1="64" x2="130.0" y2="358.4" stroke="rgba(120,200,200,0.14)" stroke-width="0.5"/>
<line x1="300" y1="64" x2="470.0" y2="358.4" stroke="rgba(120,200,200,0.14)" stroke-width="0.5"/>
<line x1="300" y1="64" x2="59.6" y2="304.4" stroke="rgba(120,200,200,0.1)" stroke-width="0.5"/>
<line x1="300" y1="64" x2="540.4" y2="304.4" stroke="rgba(120,200,200,0.1)" stroke-width="0.5"/>
<line x1="300" y1="64" x2="5.6" y2="234.0" stroke="rgba(120,200,200,0.14)" stroke-width="0.5"/>
<line x1="300" y1="64" x2="594.4" y2="234.0" stroke="rgba(120,200,200,0.14)" stroke-width="0.5"/>
<line x1="300" y1="64" x2="-28.4" y2="152.0" stroke="rgba(120,200,200,0.1)" stroke-width="0.5"/>
<line x1="300" y1="64" x2="628.4" y2="152.0" stroke="rgba(120,200,200,0.1)" stroke-width="0.5"/>
<line x1="300" y1="64" x2="-40.0" y2="64.0" stroke="rgba(120,200,200,0.14)" stroke-width="0.5"/>
<line x1="300" y1="64" x2="640.0" y2="64.0" stroke="rgba(120,200,200,0.14)" stroke-width="0.5"/>
<line x1="300" y1="64" x2="300" y2="412" stroke="rgba(120,200,200,0.14)" stroke-width="0.5"/>
<line x1="-40" y1="64" x2="640" y2="64" stroke="rgba(120,200,200,0.14)" stroke-width="0.5"/>
<text x="209.4" y="406.1" text-anchor="middle" fill="rgba(255,255,255,0.4)" font-size="9">15°</text>
<text x="390.6" y="406.1" text-anchor="middle" fill="rgba(255,255,255,0.4)" font-size="9">15°</text>
<text x="125.0" y="371.1" text-anchor="middle" fill="rgba(255,255,255,0.6)" font-size="9">30°</text>
<text x="475.0" y="371.1" text-anchor="middle" fill="rgba(255,255,255,0.6)" font-size="9">30°</text>
<text x="52.5" y="315.5" text-anchor="middle" fill="rgba(255,255,255,0.4)" font-size="9">45°</text>
<text x="547.5" y="315.5" text-anchor="middle" fill="rgba(255,255,255,0.4)" font-size="9">45°</text>
<text x="-3.1" y="243.0" text-anchor="middle" fill="rgba(255,255,255,0.6)" font-size="9">60°</text>
<text x="603.1" y="243.0" text-anchor="middle" fill="rgba(255,255,255,0.6)" font-size="9">60°</text>
<text x="-38.1" y="158.6" text-anchor="middle" fill="rgba(255,255,255,0.4)" font-size="9">75°</text>
<text x="638.1" y="158.6" text-anchor="middle" fill="rgba(255,255,255,0.4)" font-size="9">75°</text>
<text x="-50.0" y="68.0" text-anchor="middle" fill="rgba(255,255,255,0.6)" font-size="9">90°</text>
<text x="650.0" y="68.0" text-anchor="middle" fill="rgba(255,255,255,0.6)" font-size="9">90°</text>
<text x="300" y="422" text-anchor="middle" fill="rgba(255,255,255,0.6)" font-size="9">0°</text>
<path d="M 300.2 64.0 L 300.4 64.0 L 300.7 64.0 L 301.1 64.1 L 301.7 64.1 L 302.4 64.2 L 303.1 64.3 L 304.2 64.5 L 305.6 64.8 L 307.4 65.2 L 309.2 65.6 L 310.9 66.1 L 312.1 66.6 L 312.9 67.0 L 313.3 67.3 L 313.2 67.5 L 313.4 67.9 L 313.8 68.2 L 315.5 69.0 L 321.9 71.5 L 335.5 76.9 L 358.2 86.3 L 386.8 99.1 L 417.1 113.7 L 439.7 126.2 L 457.0 137.2 L 474.2 149.0 L 487.1 159.4 L 495.3 167.8 L 502.7 176.4 L 510.7 185.7 L 516.5 194.1 L 520.3 201.6 L 523.3 209.0 L 525.1 215.8 L 526.3 222.5 L 527.1 229.0 L 526.8 234.9 L 526.7 241.2 L 525.4 246.5 L 523.7 251.7 L 522.2 257.1 L 519.7 261.9 L 517.8 267.1 L 515.3 271.9 L 512.1 276.1 L 509.4 280.9 L 505.9 284.8 L 502.2 288.6 L 498.3 292.1 L 494.4 295.6 L 490.4 299.2 L 485.6 301.6 L 481.3 304.6 L 476.9 307.5 L 471.8 309.4 L 467.3 312.1 L 462.9 314.8 L 458.5 317.6 L 454.0 320.2 L 449.0 322.1 L 444.5 324.7 L 439.9 327.1 L 434.9 328.7 L 429.7 329.9 L 424.7 331.5 L 420.0 333.5 L 415.1 335.2 L 410.0 336.3 L 405.4 338.5 L 400.7 340.7 L 395.9 342.5 L 390.8 343.5 L 385.9 344.9 L 380.8 345.7 L 375.7 346.6 L 370.7 347.7 L 365.6 348.4 L 360.5 348.6 L 355.5 349.8 L 350.4 349.9 L 345.3 349.7 L 340.1 349.2 L 335.0 349.2 L 329.8 347.7 L 324.7 346.9 L 319.7 346.2 L 314.8 345.6 L 309.8 344.5 L 304.9 342.8 L 300.0 341.2 L 300.0 341.2 L 295.2 338.9 L 290.5 337.5 L 285.8 335.6 L 281.1 334.9 L 276.4 333.5 L 271.7 333.4 L 267.2 331.4 L 262.5 330.8 L 258.0 329.0 L 253.6 327.3 L 249.1 325.6 L 244.9 323.1 L 240.5 321.5 L 236.1 320.4 L 231.7 318.9 L 227.3 317.5 L 223.2 315.3 L 219.1 313.0 L 215.3 310.1 L 211.6 306.8 L 207.9 303.9 L 204.4 300.6 L 201.2 296.9 L 197.8 293.4 L 194.5 290.3 L 190.7 288.2 L 187.1 285.5 L 183.4 283.2 L 180.1 280.4 L 176.6 277.7 L 173.5 274.4 L 170.2 271.7 L 167.3 268.3 L 164.2 265.3 L 161.3 262.1 L 157.7 259.9 L 155.0 256.5 L 151.9 253.6 L 149.4 250.0 L 146.5 246.9 L 143.8 243.7 L 141.6 240.0 L 139.5 236.2 L 138.2 231.6 L 136.1 227.9 L 134.8 223.5 L 133.5 219.3 L 132.4 214.9 L 131.2 210.8 L 129.9 206.7 L 129.3 202.2 L 130.0 196.9 L 130.2 192.0 L 130.0 187.5 L 131.4 182.0 L 133.9 176.0 L 137.6 169.5 L 141.4 163.1 L 149.4 154.5 L 159.4 145.2 L 173.5 134.1 L 190.6 122.2 L 211.8 108.9 L 230.5 97.9 L 247.9 88.3 L 263.3 80.3 L 276.0 74.2 L 284.4 70.3 L 287.3 68.9 L 288.4 68.2 L 289.2 67.7 L 289.8 67.3 L 290.3 67.0 L 290.9 66.6 L 291.5 66.3 L 292.1 66.0 L 292.7 65.7 L 293.3 65.4 L 294.0 65.2 L 294.6 65.0 L 295.1 64.8 L 295.7 64.6 L 296.6 64.4 L 297.3 64.3 L 297.9 64.2 L 298.6 64.1 L 299.1 64.0 L 299.4 64.0 L 299.7 64.0 L 299.8 64.0 Z" fill="none" stroke="#F32740" stroke-width="2.0" stroke-linejoin="round" stroke-linecap="round"/>
<path d="M 301.7 64.0 L 302.6 64.0 L 303.5 64.1 L 304.5 64.2 L 305.8 64.4 L 307.2 64.6 L 308.6 64.9 L 310.3 65.3 L 312.2 65.7 L 314.2 66.3 L 316.6 66.9 L 319.2 67.7 L 322.0 68.7 L 325.5 69.9 L 328.7 71.2 L 331.9 72.6 L 335.1 74.1 L 338.8 75.9 L 342.1 77.7 L 345.6 79.7 L 349.6 82.1 L 353.5 84.5 L 357.1 87.1 L 361.1 90.0 L 365.5 93.2 L 369.3 96.3 L 373.0 99.6 L 376.7 103.1 L 380.7 106.9 L 384.9 111.1 L 388.5 115.1 L 392.3 119.5 L 395.7 123.8 L 399.7 128.7 L 403.3 133.7 L 406.9 138.8 L 410.7 144.4 L 414.0 149.9 L 416.8 155.3 L 419.7 160.9 L 422.9 167.1 L 425.1 172.8 L 427.5 178.8 L 428.4 183.7 L 430.1 189.6 L 431.4 195.4 L 432.0 200.7 L 432.4 205.9 L 432.7 211.3 L 432.4 216.3 L 432.2 221.5 L 431.5 226.4 L 430.8 231.4 L 430.4 237.1 L 429.4 242.2 L 428.2 247.1 L 426.9 252.2 L 425.2 256.8 L 423.4 261.4 L 421.5 266.1 L 419.4 270.7 L 417.2 275.5 L 414.7 279.8 L 412.1 284.0 L 409.2 287.8 L 406.6 292.7 L 403.1 295.6 L 400.1 299.8 L 396.9 303.8 L 393.1 306.5 L 389.6 310.1 L 385.7 312.8 L 381.8 315.7 L 378.1 319.5 L 374.0 322.1 L 369.8 324.3 L 365.6 327.0 L 361.1 328.8 L 356.7 330.7 L 352.3 333.0 L 347.7 334.7 L 343.1 336.2 L 338.3 336.4 L 333.6 337.6 L 328.9 339.0 L 324.1 339.7 L 319.3 340.6 L 314.5 341.0 L 309.7 341.3 L 304.8 341.6 L 300.0 341.2 L 300.0 341.2 L 295.2 341.6 L 290.3 341.3 L 285.5 341.0 L 280.7 340.6 L 275.9 339.7 L 271.1 339.0 L 266.4 337.6 L 261.7 336.4 L 256.9 336.2 L 252.3 334.7 L 247.7 333.0 L 243.3 330.7 L 238.9 328.8 L 234.4 327.0 L 230.2 324.3 L 226.0 322.1 L 221.9 319.5 L 218.2 315.7 L 214.3 312.8 L 210.4 310.1 L 206.9 306.5 L 203.1 303.8 L 199.9 299.8 L 196.9 295.6 L 193.4 292.7 L 190.8 287.8 L 187.9 284.0 L 185.3 279.8 L 182.8 275.5 L 180.6 270.7 L 178.5 266.1 L 176.6 261.4 L 174.8 256.8 L 173.1 252.2 L 171.8 247.1 L 170.6 242.2 L 169.6 237.1 L 169.2 231.4 L 168.5 226.4 L 167.8 221.5 L 167.6 216.3 L 167.3 211.3 L 167.6 205.9 L 168.0 200.7 L 168.6 195.4 L 169.9 189.6 L 171.6 183.7 L 172.5 178.8 L 174.9 172.8 L 177.1 167.1 L 180.3 160.9 L 183.2 155.3 L 186.0 149.9 L 189.3 144.4 L 193.1 138.8 L 196.7 133.7 L 200.3 128.7 L 204.3 123.8 L 207.7 119.5 L 211.5 115.1 L 215.1 111.1 L 219.3 106.9 L 223.3 103.1 L 227.0 99.6 L 230.7 96.3 L 234.5 93.2 L 238.9 90.0 L 242.9 87.1 L 246.5 84.5 L 250.4 82.1 L 254.4 79.7 L 257.9 77.7 L 261.2 75.9 L 264.9 74.1 L 268.1 72.6 L 271.3 71.2 L 274.5 69.9 L 278.0 68.7 L 280.8 67.7 L 283.4 66.9 L 285.8 66.3 L 287.8 65.7 L 289.7 65.3 L 291.4 64.9 L 292.8 64.6 L 294.2 64.4 L 295.5 64.2 L 296.5 64.1 L 297.4 64.0 L 298.3 64.0 Z" fill="none" stroke="#3FA9F5" stroke-width="1.7" stroke-linejoin="round" stroke-linecap="round"/>
<text x="335" y="145.0" fill="#F32740" font-size="9.5" font-weight="700">93</text>
<text x="335" y="230.0" fill="#F32740" font-size="9.5" font-weight="700">186</text>
<text x="335" y="315.0" fill="#F32740" font-size="9.5" font-weight="700">279</text>
<text x="335" y="400.0" fill="#F32740" font-size="9.5" font-weight="700">375</text>
<rect x="274" y="58" width="52" height="11" rx="1.5" fill="#fafbfc" stroke="rgba(255,255,255,0.4)" stroke-width="0.5"/>
<line x1="272" y1="69.8" x2="328" y2="69.8" stroke="#F32740" stroke-width="0.7" stroke-dasharray="1.5 2"/>
<text x="300" y="66" text-anchor="middle" fill="#F32740" font-size="8" font-weight="700" letter-spacing="0.5">cd/klm SCALE</text>
<g transform="translate(22, 434)">
<text x="0" y="-8" fill="rgba(255,255,255,0.55)" font-size="8" letter-spacing="1.4">cd/klm</text>
<line x1="0" y1="6" x2="22" y2="6" stroke="#F32740" stroke-width="2.2"/>
<text x="28" y="9" fill="rgba(255,255,255,0.7)" font-size="9.5">C0 – C180</text>
<line x1="120" y1="6" x2="142" y2="6" stroke="#3FA9F5" stroke-width="1.7"/>
<text x="148" y="9" fill="rgba(255,255,255,0.7)" font-size="9.5">C90 – C270</text>
</g>
<text x="578" y="402" fill="rgba(255,255,255,0.45)" font-size="9" text-anchor="end">η = 149 lm/W</text>
<text x="578" y="418" fill="rgba(255,255,255,0.45)" font-size="9" text-anchor="end">5,665 lm · 38.0W</text>
<text x="578" y="434" fill="rgba(255,255,255,0.55)" font-size="8" letter-spacing="1.4" text-anchor="end">PEAK INTENSITY</text>
<text x="578" y="451" fill="#fff" font-weight="700" font-size="14" text-anchor="end">1,891 cd</text>
</svg>