<svg viewBox="0 0 600 460" xmlns="http://www.w3.org/2000/svg" font-family="JetBrains Mono, monospace" font-size="9.5">
<rect width="100%" height="100%" fill="#14171b"/>
<text x="22" y="26" fill="#F32740" font-weight="700" letter-spacing="2">LWPC65 · 65W · 3000K · FULL-CUTOFF FORWARD-THROW</text>
<text x="22" y="42" fill="rgba(255,255,255,0.55)" font-size="8" letter-spacing="1.4">LUMINOUS INTENSITY DISTRIBUTION (cd/klm)</text>
<path d="M 215.0 64.0 A 85.0 85.0 0 0 0 385.0 64.0" fill="none" stroke="rgba(120,200,200,0.18)" stroke-width="0.7"/>
<path d="M 130.0 64.0 A 170.0 170.0 0 0 0 470.0 64.0" fill="none" stroke="rgba(120,200,200,0.18)" stroke-width="0.7"/>
<path d="M 45.0 64.0 A 255.0 255.0 0 0 0 555.0 64.0" fill="none" stroke="rgba(120,200,200,0.18)" stroke-width="0.7"/>
<path d="M -40.0 64.0 A 340.0 340.0 0 0 0 640.0 64.0" fill="none" stroke="rgba(120,200,200,0.18)" stroke-width="0.7"/>
<line x1="300" y1="64" x2="212.0" y2="392.4" stroke="rgba(120,200,200,0.1)" stroke-width="0.5"/>
<line x1="300" y1="64" x2="388.0" y2="392.4" stroke="rgba(120,200,200,0.1)" stroke-width="0.5"/>
<line x1="300" y1="64" x2="130.0" y2="358.4" stroke="rgba(120,200,200,0.14)" stroke-width="0.5"/>
<line x1="300" y1="64" x2="470.0" y2="358.4" stroke="rgba(120,200,200,0.14)" stroke-width="0.5"/>
<line x1="300" y1="64" x2="59.6" y2="304.4" stroke="rgba(120,200,200,0.1)" stroke-width="0.5"/>
<line x1="300" y1="64" x2="540.4" y2="304.4" stroke="rgba(120,200,200,0.1)" stroke-width="0.5"/>
<line x1="300" y1="64" x2="5.6" y2="234.0" stroke="rgba(120,200,200,0.14)" stroke-width="0.5"/>
<line x1="300" y1="64" x2="594.4" y2="234.0" stroke="rgba(120,200,200,0.14)" stroke-width="0.5"/>
<line x1="300" y1="64" x2="-28.4" y2="152.0" stroke="rgba(120,200,200,0.1)" stroke-width="0.5"/>
<line x1="300" y1="64" x2="628.4" y2="152.0" stroke="rgba(120,200,200,0.1)" stroke-width="0.5"/>
<line x1="300" y1="64" x2="-40.0" y2="64.0" stroke="rgba(120,200,200,0.14)" stroke-width="0.5"/>
<line x1="300" y1="64" x2="640.0" y2="64.0" stroke="rgba(120,200,200,0.14)" stroke-width="0.5"/>
<line x1="300" y1="64" x2="300" y2="412" stroke="rgba(120,200,200,0.14)" stroke-width="0.5"/>
<line x1="-40" y1="64" x2="640" y2="64" stroke="rgba(120,200,200,0.14)" stroke-width="0.5"/>
<text x="209.4" y="406.1" text-anchor="middle" fill="rgba(255,255,255,0.4)" font-size="9">15°</text>
<text x="390.6" y="406.1" text-anchor="middle" fill="rgba(255,255,255,0.4)" font-size="9">15°</text>
<text x="125.0" y="371.1" text-anchor="middle" fill="rgba(255,255,255,0.6)" font-size="9">30°</text>
<text x="475.0" y="371.1" text-anchor="middle" fill="rgba(255,255,255,0.6)" font-size="9">30°</text>
<text x="52.5" y="315.5" text-anchor="middle" fill="rgba(255,255,255,0.4)" font-size="9">45°</text>
<text x="547.5" y="315.5" text-anchor="middle" fill="rgba(255,255,255,0.4)" font-size="9">45°</text>
<text x="-3.1" y="243.0" text-anchor="middle" fill="rgba(255,255,255,0.6)" font-size="9">60°</text>
<text x="603.1" y="243.0" text-anchor="middle" fill="rgba(255,255,255,0.6)" font-size="9">60°</text>
<text x="-38.1" y="158.6" text-anchor="middle" fill="rgba(255,255,255,0.4)" font-size="9">75°</text>
<text x="638.1" y="158.6" text-anchor="middle" fill="rgba(255,255,255,0.4)" font-size="9">75°</text>
<text x="-50.0" y="68.0" text-anchor="middle" fill="rgba(255,255,255,0.6)" font-size="9">90°</text>
<text x="650.0" y="68.0" text-anchor="middle" fill="rgba(255,255,255,0.6)" font-size="9">90°</text>
<text x="300" y="422" text-anchor="middle" fill="rgba(255,255,255,0.6)" font-size="9">0°</text>
<path d="M 300.1 64.0 L 300.1 64.0 L 300.3 64.0 L 300.5 64.0 L 300.8 64.1 L 301.3 64.1 L 302.0 64.2 L 302.7 64.3 L 303.6 64.5 L 304.6 64.7 L 306.2 65.1 L 308.0 65.5 L 309.7 66.1 L 311.2 66.6 L 312.3 67.1 L 313.1 67.5 L 313.2 67.8 L 313.2 68.0 L 313.4 68.4 L 314.0 68.8 L 317.1 70.2 L 326.2 74.0 L 344.4 81.9 L 372.7 94.8 L 400.5 108.8 L 425.7 122.6 L 447.0 135.7 L 461.2 146.1 L 475.5 157.3 L 486.4 167.3 L 494.7 176.4 L 501.1 184.8 L 506.5 193.0 L 510.6 200.8 L 513.4 208.0 L 515.1 214.6 L 516.2 221.1 L 517.0 227.5 L 517.2 233.7 L 516.4 239.3 L 515.5 244.8 L 513.9 250.0 L 511.7 254.7 L 509.8 259.7 L 507.4 264.3 L 504.7 268.7 L 501.8 273.0 L 498.9 277.3 L 495.8 281.4 L 492.5 285.4 L 488.8 289.0 L 484.7 292.1 L 480.6 295.2 L 476.5 298.3 L 472.3 301.2 L 468.0 304.0 L 463.5 306.4 L 458.9 308.7 L 454.5 311.2 L 450.1 313.8 L 445.4 315.9 L 440.9 318.3 L 436.4 320.6 L 431.7 322.5 L 426.9 324.1 L 422.1 325.9 L 417.4 327.8 L 412.5 329.1 L 407.9 331.1 L 403.4 333.4 L 398.9 335.7 L 394.3 337.9 L 389.6 339.6 L 384.7 341.0 L 379.8 342.2 L 374.8 343.1 L 369.8 344.1 L 364.8 344.5 L 359.7 344.8 L 354.7 345.4 L 349.6 345.4 L 344.6 345.6 L 339.6 345.5 L 334.5 345.2 L 329.5 344.9 L 324.5 344.0 L 319.5 342.9 L 314.6 342.1 L 309.7 340.6 L 304.8 340.7 L 300.0 340.8 L 300.0 340.8 L 295.2 338.7 L 290.4 337.7 L 285.7 336.5 L 281.0 335.2 L 276.4 333.7 L 271.8 332.3 L 267.2 331.2 L 262.6 330.4 L 258.0 329.1 L 253.5 327.6 L 249.0 326.4 L 244.6 324.5 L 240.3 322.4 L 236.1 320.5 L 231.8 318.6 L 227.5 317.0 L 223.0 315.8 L 218.6 314.5 L 214.4 312.6 L 210.5 310.0 L 206.6 307.4 L 202.9 304.4 L 199.5 300.9 L 196.0 297.6 L 192.6 294.4 L 189.0 291.5 L 185.4 288.8 L 181.8 286.3 L 178.1 283.9 L 174.5 281.4 L 171.1 278.5 L 167.7 275.7 L 164.6 272.5 L 161.6 269.2 L 158.7 265.9 L 155.5 262.9 L 152.1 260.3 L 148.5 257.9 L 145.2 255.2 L 142.1 252.2 L 139.2 249.0 L 136.4 245.7 L 134.0 242.0 L 131.5 238.5 L 129.5 234.5 L 127.7 230.4 L 126.0 226.3 L 124.4 222.1 L 123.0 217.9 L 121.8 213.5 L 120.5 209.3 L 119.9 204.7 L 119.5 200.0 L 119.7 195.0 L 119.8 190.2 L 121.0 184.7 L 124.0 178.3 L 127.2 172.0 L 132.1 164.9 L 138.3 157.3 L 148.0 148.3 L 160.8 138.0 L 179.6 125.4 L 199.2 113.2 L 218.8 101.8 L 237.1 92.0 L 254.7 83.2 L 270.9 75.7 L 280.7 71.4 L 285.8 69.2 L 288.0 68.1 L 288.8 67.7 L 289.4 67.3 L 290.0 66.9 L 290.5 66.5 L 291.1 66.2 L 291.7 65.9 L 292.3 65.6 L 293.1 65.3 L 293.7 65.1 L 294.3 64.9 L 294.9 64.7 L 295.4 64.6 L 296.1 64.4 L 296.8 64.3 L 297.5 64.2 L 298.1 64.1 L 298.9 64.0 L 299.3 64.0 L 299.6 64.0 Z" fill="none" stroke="#F32740" stroke-width="2.0" stroke-linejoin="round" stroke-linecap="round"/>
<path d="M 301.6 64.0 L 302.3 64.0 L 303.1 64.1 L 304.1 64.2 L 305.2 64.4 L 306.5 64.6 L 307.9 64.8 L 309.4 65.2 L 311.4 65.6 L 313.4 66.1 L 315.7 66.8 L 318.3 67.5 L 321.4 68.5 L 324.4 69.6 L 327.6 70.9 L 330.9 72.3 L 334.2 73.8 L 338.1 75.6 L 341.7 77.5 L 345.2 79.6 L 349.0 81.8 L 353.2 84.4 L 357.1 87.1 L 361.1 89.9 L 365.5 93.2 L 369.5 96.4 L 373.7 100.0 L 377.9 103.7 L 382.1 107.6 L 386.8 112.1 L 390.9 116.5 L 395.0 121.1 L 399.1 125.9 L 403.3 131.1 L 407.1 136.2 L 410.7 141.5 L 414.7 147.4 L 417.9 152.9 L 420.9 158.4 L 423.5 164.0 L 426.0 169.7 L 427.8 175.1 L 429.4 180.5 L 430.7 185.9 L 431.7 191.2 L 432.7 196.7 L 433.3 202.0 L 433.6 207.3 L 433.8 212.7 L 434.5 218.8 L 434.0 223.7 L 433.6 229.0 L 432.9 234.2 L 432.1 239.3 L 431.2 244.5 L 429.9 249.5 L 428.4 254.3 L 426.9 259.4 L 425.0 264.0 L 422.8 268.4 L 420.7 273.0 L 418.5 277.7 L 415.8 281.9 L 413.1 286.0 L 410.2 289.9 L 407.1 293.7 L 403.9 297.3 L 400.6 300.9 L 397.1 304.3 L 393.7 308.2 L 390.0 311.3 L 386.1 314.2 L 382.2 317.1 L 378.2 319.9 L 374.1 322.5 L 369.9 324.7 L 365.6 327.0 L 361.3 329.3 L 356.9 331.5 L 352.3 333.1 L 347.8 334.8 L 343.1 336.2 L 338.5 337.6 L 333.7 338.8 L 329.0 339.6 L 324.1 340.0 L 319.3 340.6 L 314.5 340.7 L 309.7 341.0 L 304.8 341.1 L 300.0 340.8 L 300.0 340.8 L 295.2 341.1 L 290.3 341.0 L 285.5 340.7 L 280.7 340.6 L 275.9 340.0 L 271.0 339.6 L 266.3 338.8 L 261.5 337.6 L 256.9 336.2 L 252.2 334.8 L 247.7 333.1 L 243.1 331.5 L 238.7 329.3 L 234.4 327.0 L 230.1 324.7 L 225.9 322.5 L 221.8 319.9 L 217.8 317.1 L 213.9 314.2 L 210.0 311.3 L 206.3 308.2 L 202.9 304.3 L 199.4 300.9 L 196.1 297.3 L 192.9 293.7 L 189.8 289.9 L 186.9 286.0 L 184.2 281.9 L 181.5 277.7 L 179.3 273.0 L 177.2 268.4 L 175.0 264.0 L 173.1 259.4 L 171.6 254.3 L 170.1 249.5 L 168.8 244.5 L 167.9 239.3 L 167.1 234.2 L 166.4 229.0 L 166.0 223.7 L 165.5 218.8 L 166.2 212.7 L 166.4 207.3 L 166.7 202.0 L 167.3 196.7 L 168.3 191.2 L 169.3 185.9 L 170.6 180.5 L 172.2 175.1 L 174.0 169.7 L 176.5 164.0 L 179.1 158.4 L 182.1 152.9 L 185.3 147.4 L 189.3 141.5 L 192.9 136.2 L 196.7 131.1 L 200.9 125.9 L 205.0 121.1 L 209.1 116.5 L 213.2 112.1 L 217.9 107.6 L 222.1 103.7 L 226.3 100.0 L 230.5 96.4 L 234.5 93.2 L 238.9 89.9 L 242.9 87.1 L 246.8 84.4 L 251.0 81.8 L 254.8 79.6 L 258.3 77.5 L 261.9 75.6 L 265.8 73.8 L 269.1 72.3 L 272.4 70.9 L 275.6 69.6 L 278.6 68.5 L 281.7 67.5 L 284.3 66.8 L 286.6 66.1 L 288.6 65.6 L 290.6 65.2 L 292.1 64.8 L 293.5 64.6 L 294.8 64.4 L 295.9 64.2 L 296.9 64.1 L 297.7 64.0 L 298.4 64.0 Z" fill="none" stroke="#3FA9F5" stroke-width="1.7" stroke-linejoin="round" stroke-linecap="round"/>
<text x="335" y="145.0" fill="#F32740" font-size="9.5" font-weight="700">93</text>
<text x="335" y="230.0" fill="#F32740" font-size="9.5" font-weight="700">186</text>
<text x="335" y="315.0" fill="#F32740" font-size="9.5" font-weight="700">279</text>
<text x="335" y="400.0" fill="#F32740" font-size="9.5" font-weight="700">375</text>
<rect x="274" y="58" width="52" height="11" rx="1.5" fill="#fafbfc" stroke="rgba(255,255,255,0.4)" stroke-width="0.5"/>
<line x1="272" y1="69.8" x2="328" y2="69.8" stroke="#F32740" stroke-width="0.7" stroke-dasharray="1.5 2"/>
<text x="300" y="66" text-anchor="middle" fill="#F32740" font-size="8" font-weight="700" letter-spacing="0.5">cd/klm SCALE</text>
<g transform="translate(22, 434)">
<text x="0" y="-8" fill="rgba(255,255,255,0.55)" font-size="8" letter-spacing="1.4">cd/klm</text>
<line x1="0" y1="6" x2="22" y2="6" stroke="#F32740" stroke-width="2.2"/>
<text x="28" y="9" fill="rgba(255,255,255,0.7)" font-size="9.5">C0 – C180</text>
<line x1="120" y1="6" x2="142" y2="6" stroke="#3FA9F5" stroke-width="1.7"/>
<text x="148" y="9" fill="rgba(255,255,255,0.7)" font-size="9.5">C90 – C270</text>
</g>
<text x="578" y="402" fill="rgba(255,255,255,0.45)" font-size="9" text-anchor="end">η = 148 lm/W</text>
<text x="578" y="418" fill="rgba(255,255,255,0.45)" font-size="9" text-anchor="end">9,584 lm · 64.6W</text>
<text x="578" y="434" fill="rgba(255,255,255,0.55)" font-size="8" letter-spacing="1.4" text-anchor="end">PEAK INTENSITY</text>
<text x="578" y="451" fill="#fff" font-weight="700" font-size="14" text-anchor="end">3,105 cd</text>
</svg>