<svg viewBox="0 0 600 460" xmlns="http://www.w3.org/2000/svg" font-family="JetBrains Mono, monospace" font-size="9.5">
<rect width="100%" height="100%" fill="#14171b"/>
<text x="22" y="26" fill="#F32740" font-weight="700" letter-spacing="2">LWPC65 · 65W · 4000K · FULL-CUTOFF FORWARD-THROW</text>
<text x="22" y="42" fill="rgba(255,255,255,0.55)" font-size="8" letter-spacing="1.4">LUMINOUS INTENSITY DISTRIBUTION (cd/klm)</text>
<path d="M 215.0 64.0 A 85.0 85.0 0 0 0 385.0 64.0" fill="none" stroke="rgba(120,200,200,0.18)" stroke-width="0.7"/>
<path d="M 130.0 64.0 A 170.0 170.0 0 0 0 470.0 64.0" fill="none" stroke="rgba(120,200,200,0.18)" stroke-width="0.7"/>
<path d="M 45.0 64.0 A 255.0 255.0 0 0 0 555.0 64.0" fill="none" stroke="rgba(120,200,200,0.18)" stroke-width="0.7"/>
<path d="M -40.0 64.0 A 340.0 340.0 0 0 0 640.0 64.0" fill="none" stroke="rgba(120,200,200,0.18)" stroke-width="0.7"/>
<line x1="300" y1="64" x2="212.0" y2="392.4" stroke="rgba(120,200,200,0.1)" stroke-width="0.5"/>
<line x1="300" y1="64" x2="388.0" y2="392.4" stroke="rgba(120,200,200,0.1)" stroke-width="0.5"/>
<line x1="300" y1="64" x2="130.0" y2="358.4" stroke="rgba(120,200,200,0.14)" stroke-width="0.5"/>
<line x1="300" y1="64" x2="470.0" y2="358.4" stroke="rgba(120,200,200,0.14)" stroke-width="0.5"/>
<line x1="300" y1="64" x2="59.6" y2="304.4" stroke="rgba(120,200,200,0.1)" stroke-width="0.5"/>
<line x1="300" y1="64" x2="540.4" y2="304.4" stroke="rgba(120,200,200,0.1)" stroke-width="0.5"/>
<line x1="300" y1="64" x2="5.6" y2="234.0" stroke="rgba(120,200,200,0.14)" stroke-width="0.5"/>
<line x1="300" y1="64" x2="594.4" y2="234.0" stroke="rgba(120,200,200,0.14)" stroke-width="0.5"/>
<line x1="300" y1="64" x2="-28.4" y2="152.0" stroke="rgba(120,200,200,0.1)" stroke-width="0.5"/>
<line x1="300" y1="64" x2="628.4" y2="152.0" stroke="rgba(120,200,200,0.1)" stroke-width="0.5"/>
<line x1="300" y1="64" x2="-40.0" y2="64.0" stroke="rgba(120,200,200,0.14)" stroke-width="0.5"/>
<line x1="300" y1="64" x2="640.0" y2="64.0" stroke="rgba(120,200,200,0.14)" stroke-width="0.5"/>
<line x1="300" y1="64" x2="300" y2="412" stroke="rgba(120,200,200,0.14)" stroke-width="0.5"/>
<line x1="-40" y1="64" x2="640" y2="64" stroke="rgba(120,200,200,0.14)" stroke-width="0.5"/>
<text x="209.4" y="406.1" text-anchor="middle" fill="rgba(255,255,255,0.4)" font-size="9">15°</text>
<text x="390.6" y="406.1" text-anchor="middle" fill="rgba(255,255,255,0.4)" font-size="9">15°</text>
<text x="125.0" y="371.1" text-anchor="middle" fill="rgba(255,255,255,0.6)" font-size="9">30°</text>
<text x="475.0" y="371.1" text-anchor="middle" fill="rgba(255,255,255,0.6)" font-size="9">30°</text>
<text x="52.5" y="315.5" text-anchor="middle" fill="rgba(255,255,255,0.4)" font-size="9">45°</text>
<text x="547.5" y="315.5" text-anchor="middle" fill="rgba(255,255,255,0.4)" font-size="9">45°</text>
<text x="-3.1" y="243.0" text-anchor="middle" fill="rgba(255,255,255,0.6)" font-size="9">60°</text>
<text x="603.1" y="243.0" text-anchor="middle" fill="rgba(255,255,255,0.6)" font-size="9">60°</text>
<text x="-38.1" y="158.6" text-anchor="middle" fill="rgba(255,255,255,0.4)" font-size="9">75°</text>
<text x="638.1" y="158.6" text-anchor="middle" fill="rgba(255,255,255,0.4)" font-size="9">75°</text>
<text x="-50.0" y="68.0" text-anchor="middle" fill="rgba(255,255,255,0.6)" font-size="9">90°</text>
<text x="650.0" y="68.0" text-anchor="middle" fill="rgba(255,255,255,0.6)" font-size="9">90°</text>
<text x="300" y="422" text-anchor="middle" fill="rgba(255,255,255,0.6)" font-size="9">0°</text>
<path d="M 300.2 64.0 L 300.1 64.0 L 300.1 64.0 L 300.1 64.0 L 300.1 64.0 L 300.3 64.0 L 300.5 64.1 L 300.9 64.1 L 301.4 64.2 L 302.1 64.3 L 302.9 64.5 L 303.8 64.7 L 304.8 65.0 L 306.5 65.5 L 308.2 66.1 L 309.8 66.6 L 311.3 67.2 L 312.2 67.7 L 312.9 68.2 L 313.0 68.5 L 313.1 68.8 L 313.4 69.1 L 314.4 69.8 L 319.2 72.2 L 330.5 77.6 L 352.7 88.6 L 378.5 102.3 L 404.9 117.5 L 427.9 132.0 L 445.9 144.8 L 461.5 157.3 L 475.3 169.3 L 484.5 179.3 L 491.3 188.2 L 496.9 196.8 L 501.1 204.8 L 504.2 212.4 L 506.4 219.6 L 507.5 226.1 L 508.2 232.6 L 508.4 238.9 L 507.9 244.7 L 507.0 250.4 L 505.7 255.8 L 503.8 260.8 L 501.5 265.5 L 499.1 270.1 L 496.3 274.6 L 493.5 278.9 L 491.2 284.0 L 487.6 287.6 L 484.0 291.3 L 480.2 294.6 L 475.7 297.1 L 471.5 300.0 L 467.3 302.9 L 462.7 305.2 L 458.5 308.1 L 454.3 310.9 L 449.8 313.3 L 445.3 315.7 L 440.8 318.0 L 436.3 320.3 L 431.8 322.6 L 427.2 324.7 L 422.3 326.3 L 417.3 327.5 L 412.4 328.9 L 407.5 330.2 L 402.8 331.8 L 398.2 333.7 L 393.4 335.3 L 388.8 337.2 L 384.1 339.1 L 379.2 340.4 L 374.4 341.5 L 369.6 343.0 L 364.6 344.0 L 359.6 344.2 L 354.6 345.1 L 349.6 345.4 L 344.5 345.3 L 339.6 345.5 L 334.6 345.4 L 329.6 345.5 L 324.6 345.3 L 319.6 344.9 L 314.7 343.8 L 309.7 342.5 L 304.8 341.1 L 300.0 340.7 L 300.0 340.7 L 295.2 339.4 L 290.4 339.4 L 285.6 338.0 L 280.9 336.7 L 276.3 335.0 L 271.7 333.4 L 267.1 331.8 L 262.6 329.9 L 258.1 328.5 L 253.5 327.6 L 249.1 325.8 L 244.6 324.5 L 240.1 323.5 L 235.7 321.9 L 231.5 319.7 L 227.2 317.9 L 223.3 315.0 L 219.1 313.0 L 214.8 311.3 L 210.5 309.9 L 206.2 308.3 L 202.3 305.9 L 198.5 303.1 L 194.8 300.4 L 191.4 296.9 L 188.1 293.5 L 184.9 289.9 L 181.6 286.7 L 178.0 284.1 L 175.0 280.5 L 171.4 278.1 L 167.8 275.6 L 164.3 273.0 L 160.4 270.9 L 157.3 267.7 L 154.3 264.5 L 151.6 260.9 L 148.6 257.7 L 145.6 254.7 L 142.3 251.9 L 139.1 249.1 L 136.0 246.1 L 133.1 243.0 L 130.3 239.7 L 128.0 236.0 L 125.5 232.5 L 123.4 228.7 L 121.7 224.5 L 120.1 220.3 L 119.1 215.8 L 117.8 211.5 L 116.2 207.6 L 115.1 203.3 L 114.1 199.1 L 113.4 194.7 L 113.4 189.9 L 113.6 185.1 L 114.1 180.2 L 115.8 174.7 L 119.4 168.3 L 123.5 161.8 L 129.7 154.5 L 137.6 146.7 L 149.3 137.5 L 163.9 127.5 L 182.6 116.3 L 201.8 105.7 L 220.7 96.1 L 238.6 87.6 L 257.6 79.4 L 271.7 73.7 L 280.9 70.2 L 285.7 68.4 L 287.7 67.5 L 288.5 67.1 L 289.2 66.7 L 289.8 66.3 L 290.5 66.0 L 291.1 65.7 L 291.6 65.5 L 292.3 65.2 L 293.1 65.0 L 293.8 64.8 L 294.3 64.6 L 295.0 64.4 L 295.5 64.3 L 296.2 64.2 L 297.0 64.1 L 297.6 64.0 L 298.3 64.0 Z" fill="none" stroke="#F32740" stroke-width="2.0" stroke-linejoin="round" stroke-linecap="round"/>
<path d="M 301.6 64.0 L 302.4 64.0 L 303.2 64.1 L 304.2 64.2 L 305.3 64.4 L 306.7 64.6 L 308.1 64.8 L 309.6 65.2 L 311.4 65.6 L 313.4 66.1 L 316.0 66.8 L 318.5 67.6 L 321.3 68.5 L 324.7 69.7 L 327.9 70.9 L 331.1 72.3 L 334.5 73.9 L 338.0 75.6 L 342.1 77.7 L 345.8 79.8 L 349.6 82.1 L 353.4 84.5 L 357.5 87.2 L 361.5 90.1 L 365.5 93.1 L 370.1 96.7 L 374.2 100.2 L 378.4 103.9 L 382.5 107.9 L 386.8 112.1 L 391.5 116.8 L 395.6 121.4 L 399.6 126.2 L 403.9 131.5 L 407.8 136.7 L 411.6 142.2 L 415.1 147.6 L 419.0 153.7 L 422.1 159.4 L 424.7 165.0 L 427.0 170.6 L 428.9 176.1 L 430.5 181.5 L 431.8 186.9 L 432.8 192.3 L 433.6 197.6 L 434.7 203.5 L 434.9 208.7 L 435.1 214.0 L 435.4 219.7 L 435.0 224.9 L 434.7 230.3 L 433.9 235.3 L 433.0 240.6 L 431.7 245.3 L 430.4 250.3 L 428.9 255.1 L 427.1 259.8 L 425.6 265.0 L 423.4 269.3 L 421.1 273.8 L 418.6 278.0 L 416.0 282.2 L 413.2 286.2 L 410.1 289.8 L 407.1 293.8 L 404.1 297.8 L 400.7 301.3 L 397.1 304.3 L 393.5 307.6 L 390.0 311.3 L 386.3 314.5 L 382.2 317.1 L 378.2 319.7 L 374.0 322.1 L 369.8 324.4 L 365.5 326.6 L 361.1 328.7 L 356.7 330.8 L 352.3 332.8 L 347.7 334.5 L 343.1 335.8 L 338.4 337.2 L 333.6 338.0 L 328.9 338.9 L 324.1 339.4 L 319.3 339.9 L 314.5 340.2 L 309.6 340.1 L 304.8 340.6 L 300.0 340.7 L 300.0 340.7 L 295.2 340.6 L 290.4 340.1 L 285.5 340.2 L 280.7 339.9 L 275.9 339.4 L 271.1 338.9 L 266.4 338.0 L 261.6 337.2 L 256.9 335.8 L 252.3 334.5 L 247.7 332.8 L 243.3 330.8 L 238.9 328.7 L 234.5 326.6 L 230.2 324.4 L 226.0 322.1 L 221.8 319.7 L 217.8 317.1 L 213.7 314.5 L 210.0 311.3 L 206.5 307.6 L 202.9 304.3 L 199.3 301.3 L 195.9 297.8 L 192.9 293.8 L 189.9 289.8 L 186.8 286.2 L 184.0 282.2 L 181.4 278.0 L 178.9 273.8 L 176.6 269.3 L 174.4 265.0 L 172.9 259.8 L 171.1 255.1 L 169.6 250.3 L 168.3 245.3 L 167.0 240.6 L 166.1 235.3 L 165.3 230.3 L 165.0 224.9 L 164.6 219.7 L 164.9 214.0 L 165.1 208.7 L 165.3 203.5 L 166.4 197.6 L 167.2 192.3 L 168.2 186.9 L 169.5 181.5 L 171.1 176.1 L 173.0 170.6 L 175.3 165.0 L 177.9 159.4 L 181.0 153.7 L 184.9 147.6 L 188.4 142.2 L 192.2 136.7 L 196.1 131.5 L 200.4 126.2 L 204.4 121.4 L 208.5 116.8 L 213.2 112.1 L 217.5 107.9 L 221.6 103.9 L 225.8 100.2 L 229.9 96.7 L 234.5 93.1 L 238.5 90.1 L 242.5 87.2 L 246.6 84.5 L 250.4 82.1 L 254.2 79.8 L 257.9 77.7 L 262.0 75.6 L 265.5 73.9 L 268.9 72.3 L 272.1 70.9 L 275.3 69.7 L 278.7 68.5 L 281.5 67.6 L 284.0 66.8 L 286.6 66.1 L 288.6 65.6 L 290.4 65.2 L 291.9 64.8 L 293.3 64.6 L 294.7 64.4 L 295.8 64.2 L 296.8 64.1 L 297.6 64.0 L 298.4 64.0 Z" fill="none" stroke="#3FA9F5" stroke-width="1.7" stroke-linejoin="round" stroke-linecap="round"/>
<text x="335" y="145.0" fill="#F32740" font-size="9.5" font-weight="700">93</text>
<text x="335" y="230.0" fill="#F32740" font-size="9.5" font-weight="700">186</text>
<text x="335" y="315.0" fill="#F32740" font-size="9.5" font-weight="700">279</text>
<text x="335" y="400.0" fill="#F32740" font-size="9.5" font-weight="700">375</text>
<rect x="274" y="58" width="52" height="11" rx="1.5" fill="#fafbfc" stroke="rgba(255,255,255,0.4)" stroke-width="0.5"/>
<line x1="272" y1="69.8" x2="328" y2="69.8" stroke="#F32740" stroke-width="0.7" stroke-dasharray="1.5 2"/>
<text x="300" y="66" text-anchor="middle" fill="#F32740" font-size="8" font-weight="700" letter-spacing="0.5">cd/klm SCALE</text>
<g transform="translate(22, 434)">
<text x="0" y="-8" fill="rgba(255,255,255,0.55)" font-size="8" letter-spacing="1.4">cd/klm</text>
<line x1="0" y1="6" x2="22" y2="6" stroke="#F32740" stroke-width="2.2"/>
<text x="28" y="9" fill="rgba(255,255,255,0.7)" font-size="9.5">C0 – C180</text>
<line x1="120" y1="6" x2="142" y2="6" stroke="#3FA9F5" stroke-width="1.7"/>
<text x="148" y="9" fill="rgba(255,255,255,0.7)" font-size="9.5">C90 – C270</text>
</g>
<text x="578" y="402" fill="rgba(255,255,255,0.45)" font-size="9" text-anchor="end">η = 164 lm/W</text>
<text x="578" y="418" fill="rgba(255,255,255,0.45)" font-size="9" text-anchor="end">10,242 lm · 62.4W</text>
<text x="578" y="434" fill="rgba(255,255,255,0.55)" font-size="8" letter-spacing="1.4" text-anchor="end">PEAK INTENSITY</text>
<text x="578" y="451" fill="#fff" font-weight="700" font-size="14" text-anchor="end">3,306 cd</text>
</svg>