<svg viewBox="0 0 600 460" xmlns="http://www.w3.org/2000/svg" font-family="JetBrains Mono, monospace" font-size="9.5">
<rect width="100%" height="100%" fill="#14171b"/>
<text x="22" y="26" fill="#F32740" font-weight="700" letter-spacing="2">LWPC65 · 65W · 5000K · FULL-CUTOFF FORWARD-THROW</text>
<text x="22" y="42" fill="rgba(255,255,255,0.55)" font-size="8" letter-spacing="1.4">LUMINOUS INTENSITY DISTRIBUTION (cd/klm)</text>
<path d="M 215.0 64.0 A 85.0 85.0 0 0 0 385.0 64.0" fill="none" stroke="rgba(120,200,200,0.18)" stroke-width="0.7"/>
<path d="M 130.0 64.0 A 170.0 170.0 0 0 0 470.0 64.0" fill="none" stroke="rgba(120,200,200,0.18)" stroke-width="0.7"/>
<path d="M 45.0 64.0 A 255.0 255.0 0 0 0 555.0 64.0" fill="none" stroke="rgba(120,200,200,0.18)" stroke-width="0.7"/>
<path d="M -40.0 64.0 A 340.0 340.0 0 0 0 640.0 64.0" fill="none" stroke="rgba(120,200,200,0.18)" stroke-width="0.7"/>
<line x1="300" y1="64" x2="212.0" y2="392.4" stroke="rgba(120,200,200,0.1)" stroke-width="0.5"/>
<line x1="300" y1="64" x2="388.0" y2="392.4" stroke="rgba(120,200,200,0.1)" stroke-width="0.5"/>
<line x1="300" y1="64" x2="130.0" y2="358.4" stroke="rgba(120,200,200,0.14)" stroke-width="0.5"/>
<line x1="300" y1="64" x2="470.0" y2="358.4" stroke="rgba(120,200,200,0.14)" stroke-width="0.5"/>
<line x1="300" y1="64" x2="59.6" y2="304.4" stroke="rgba(120,200,200,0.1)" stroke-width="0.5"/>
<line x1="300" y1="64" x2="540.4" y2="304.4" stroke="rgba(120,200,200,0.1)" stroke-width="0.5"/>
<line x1="300" y1="64" x2="5.6" y2="234.0" stroke="rgba(120,200,200,0.14)" stroke-width="0.5"/>
<line x1="300" y1="64" x2="594.4" y2="234.0" stroke="rgba(120,200,200,0.14)" stroke-width="0.5"/>
<line x1="300" y1="64" x2="-28.4" y2="152.0" stroke="rgba(120,200,200,0.1)" stroke-width="0.5"/>
<line x1="300" y1="64" x2="628.4" y2="152.0" stroke="rgba(120,200,200,0.1)" stroke-width="0.5"/>
<line x1="300" y1="64" x2="-40.0" y2="64.0" stroke="rgba(120,200,200,0.14)" stroke-width="0.5"/>
<line x1="300" y1="64" x2="640.0" y2="64.0" stroke="rgba(120,200,200,0.14)" stroke-width="0.5"/>
<line x1="300" y1="64" x2="300" y2="412" stroke="rgba(120,200,200,0.14)" stroke-width="0.5"/>
<line x1="-40" y1="64" x2="640" y2="64" stroke="rgba(120,200,200,0.14)" stroke-width="0.5"/>
<text x="209.4" y="406.1" text-anchor="middle" fill="rgba(255,255,255,0.4)" font-size="9">15°</text>
<text x="390.6" y="406.1" text-anchor="middle" fill="rgba(255,255,255,0.4)" font-size="9">15°</text>
<text x="125.0" y="371.1" text-anchor="middle" fill="rgba(255,255,255,0.6)" font-size="9">30°</text>
<text x="475.0" y="371.1" text-anchor="middle" fill="rgba(255,255,255,0.6)" font-size="9">30°</text>
<text x="52.5" y="315.5" text-anchor="middle" fill="rgba(255,255,255,0.4)" font-size="9">45°</text>
<text x="547.5" y="315.5" text-anchor="middle" fill="rgba(255,255,255,0.4)" font-size="9">45°</text>
<text x="-3.1" y="243.0" text-anchor="middle" fill="rgba(255,255,255,0.6)" font-size="9">60°</text>
<text x="603.1" y="243.0" text-anchor="middle" fill="rgba(255,255,255,0.6)" font-size="9">60°</text>
<text x="-38.1" y="158.6" text-anchor="middle" fill="rgba(255,255,255,0.4)" font-size="9">75°</text>
<text x="638.1" y="158.6" text-anchor="middle" fill="rgba(255,255,255,0.4)" font-size="9">75°</text>
<text x="-50.0" y="68.0" text-anchor="middle" fill="rgba(255,255,255,0.6)" font-size="9">90°</text>
<text x="650.0" y="68.0" text-anchor="middle" fill="rgba(255,255,255,0.6)" font-size="9">90°</text>
<text x="300" y="422" text-anchor="middle" fill="rgba(255,255,255,0.6)" font-size="9">0°</text>
<path d="M 300.2 64.0 L 300.1 64.0 L 300.1 64.0 L 300.1 64.0 L 300.1 64.0 L 300.2 64.0 L 300.4 64.0 L 300.7 64.1 L 301.2 64.2 L 301.8 64.3 L 302.5 64.4 L 303.4 64.7 L 304.3 64.9 L 305.6 65.3 L 307.3 65.8 L 309.0 66.4 L 310.6 67.0 L 311.7 67.6 L 312.5 68.1 L 313.0 68.5 L 313.2 68.8 L 313.4 69.1 L 313.9 69.6 L 316.5 71.0 L 325.8 75.5 L 342.3 83.7 L 365.3 95.8 L 394.0 111.9 L 418.3 126.9 L 439.2 141.1 L 454.5 153.2 L 469.1 165.6 L 481.8 177.6 L 489.0 186.7 L 494.9 195.5 L 499.4 203.6 L 503.0 211.5 L 504.7 218.3 L 505.8 224.8 L 506.7 231.4 L 507.7 238.3 L 507.4 244.3 L 506.2 249.7 L 505.1 255.3 L 503.5 260.5 L 501.2 265.2 L 498.8 269.9 L 496.2 274.4 L 493.8 279.2 L 490.8 283.5 L 487.5 287.4 L 483.9 291.1 L 480.0 294.4 L 475.8 297.2 L 471.4 299.9 L 467.1 302.6 L 462.5 304.9 L 458.1 307.5 L 453.8 310.1 L 449.4 312.6 L 444.9 315.1 L 440.7 317.8 L 436.2 320.1 L 431.7 322.4 L 427.0 324.5 L 422.3 326.2 L 417.5 327.8 L 412.6 329.4 L 407.6 330.4 L 402.8 331.9 L 397.9 333.0 L 393.0 334.1 L 388.3 335.9 L 383.7 337.7 L 379.0 339.5 L 374.2 341.0 L 369.3 342.0 L 364.4 342.8 L 359.3 343.1 L 354.3 343.5 L 349.4 344.0 L 344.4 344.5 L 339.4 344.3 L 334.4 344.2 L 329.5 344.3 L 324.5 343.6 L 319.6 343.6 L 314.6 343.0 L 309.7 342.3 L 304.8 340.7 L 300.0 339.5 L 300.0 339.5 L 295.2 339.1 L 290.4 338.3 L 285.7 337.3 L 281.0 335.6 L 276.4 334.3 L 271.7 333.1 L 267.2 331.4 L 262.7 329.2 L 258.3 327.5 L 253.8 326.1 L 249.3 324.9 L 244.8 323.8 L 240.4 322.3 L 235.9 321.1 L 231.6 319.4 L 227.5 316.8 L 223.5 314.3 L 219.4 312.1 L 215.2 310.3 L 210.9 308.9 L 206.6 307.4 L 202.5 305.3 L 198.7 302.7 L 195.1 299.6 L 191.7 296.1 L 188.4 292.8 L 185.4 289.0 L 182.1 285.7 L 179.0 282.3 L 175.5 279.6 L 171.9 277.3 L 168.1 275.1 L 164.5 272.6 L 160.8 270.3 L 157.6 267.3 L 154.5 264.3 L 151.4 261.2 L 148.6 257.7 L 145.5 254.8 L 142.1 252.2 L 139.2 249.0 L 136.1 246.0 L 133.1 242.9 L 130.2 239.8 L 127.6 236.4 L 125.4 232.6 L 123.5 228.6 L 121.8 224.4 L 120.6 220.0 L 118.9 216.0 L 117.2 212.0 L 115.7 208.0 L 114.4 203.8 L 113.3 199.6 L 112.5 195.3 L 112.0 190.8 L 112.0 186.1 L 112.0 181.5 L 112.8 176.5 L 115.7 170.4 L 120.9 163.3 L 126.1 156.5 L 133.2 149.0 L 143.9 140.2 L 158.8 129.8 L 174.9 119.7 L 192.5 109.6 L 210.5 100.2 L 229.8 90.9 L 247.3 83.2 L 263.2 76.7 L 276.0 71.8 L 283.3 69.1 L 286.5 67.9 L 287.7 67.3 L 288.5 66.9 L 289.3 66.5 L 289.9 66.1 L 290.6 65.8 L 291.2 65.6 L 291.8 65.3 L 292.5 65.0 L 293.3 64.8 L 293.9 64.6 L 294.5 64.5 L 295.0 64.3 L 295.6 64.2 L 296.6 64.1 L 297.3 64.0 L 297.9 64.0 Z" fill="none" stroke="#F32740" stroke-width="2.0" stroke-linejoin="round" stroke-linecap="round"/>
<path d="M 301.6 64.0 L 302.4 64.0 L 303.4 64.1 L 304.4 64.2 L 305.5 64.4 L 306.8 64.6 L 308.2 64.9 L 309.9 65.2 L 311.7 65.6 L 313.8 66.2 L 316.1 66.8 L 318.9 67.7 L 321.7 68.6 L 324.8 69.7 L 328.3 71.0 L 331.5 72.4 L 335.0 74.0 L 338.6 75.8 L 342.4 77.8 L 346.5 80.0 L 350.2 82.3 L 354.0 84.7 L 357.8 87.4 L 362.1 90.4 L 366.1 93.4 L 370.1 96.7 L 374.2 100.2 L 378.8 104.2 L 383.1 108.2 L 387.2 112.4 L 391.5 116.8 L 396.0 121.7 L 400.1 126.6 L 404.2 131.7 L 408.3 137.0 L 412.7 142.9 L 416.3 148.5 L 419.6 154.1 L 422.6 159.8 L 425.5 165.6 L 427.8 171.2 L 429.7 176.8 L 431.4 182.3 L 433.2 188.2 L 434.1 193.5 L 434.8 198.8 L 435.2 204.0 L 435.9 209.7 L 436.0 215.0 L 435.8 220.2 L 435.4 225.4 L 435.0 230.7 L 434.3 235.9 L 433.2 240.8 L 432.0 245.7 L 430.6 250.5 L 429.3 255.7 L 427.6 260.4 L 425.6 265.0 L 423.3 269.3 L 421.0 273.6 L 418.5 277.8 L 415.8 281.9 L 413.1 286.0 L 410.3 290.2 L 407.2 293.9 L 403.9 297.3 L 400.5 300.8 L 397.1 304.4 L 393.5 307.6 L 390.0 311.1 L 385.9 313.6 L 381.9 316.0 L 377.9 318.7 L 373.8 321.3 L 369.7 324.1 L 365.4 326.3 L 361.0 328.4 L 356.6 330.1 L 352.0 331.8 L 347.5 333.1 L 342.8 334.4 L 338.2 335.7 L 333.5 336.6 L 328.8 337.6 L 324.0 338.2 L 319.2 338.8 L 314.4 339.1 L 309.6 339.6 L 304.8 339.4 L 300.0 339.5 L 300.0 339.5 L 295.2 339.4 L 290.4 339.6 L 285.6 339.1 L 280.8 338.8 L 276.0 338.2 L 271.2 337.6 L 266.5 336.6 L 261.8 335.7 L 257.2 334.4 L 252.5 333.1 L 248.0 331.8 L 243.4 330.1 L 239.0 328.4 L 234.6 326.3 L 230.3 324.1 L 226.2 321.3 L 222.1 318.7 L 218.1 316.0 L 214.1 313.6 L 210.0 311.1 L 206.5 307.6 L 202.9 304.4 L 199.5 300.8 L 196.1 297.3 L 192.8 293.9 L 189.7 290.2 L 186.9 286.0 L 184.2 281.9 L 181.5 277.8 L 179.0 273.6 L 176.7 269.3 L 174.4 265.0 L 172.4 260.4 L 170.7 255.7 L 169.4 250.5 L 168.0 245.7 L 166.8 240.8 L 165.7 235.9 L 165.0 230.7 L 164.6 225.4 L 164.2 220.2 L 164.0 215.0 L 164.1 209.7 L 164.8 204.0 L 165.2 198.8 L 165.9 193.5 L 166.8 188.2 L 168.6 182.3 L 170.3 176.8 L 172.2 171.2 L 174.5 165.6 L 177.4 159.8 L 180.4 154.1 L 183.7 148.5 L 187.3 142.9 L 191.7 137.0 L 195.8 131.7 L 199.9 126.6 L 204.0 121.7 L 208.5 116.8 L 212.8 112.4 L 216.9 108.2 L 221.2 104.2 L 225.8 100.2 L 229.9 96.7 L 233.9 93.4 L 237.9 90.4 L 242.2 87.4 L 246.0 84.7 L 249.8 82.3 L 253.5 80.0 L 257.6 77.8 L 261.4 75.8 L 265.0 74.0 L 268.5 72.4 L 271.7 71.0 L 275.2 69.7 L 278.3 68.6 L 281.1 67.7 L 283.9 66.8 L 286.2 66.2 L 288.3 65.6 L 290.1 65.2 L 291.8 64.9 L 293.2 64.6 L 294.5 64.4 L 295.6 64.2 L 296.6 64.1 L 297.6 64.0 L 298.4 64.0 Z" fill="none" stroke="#3FA9F5" stroke-width="1.7" stroke-linejoin="round" stroke-linecap="round"/>
<text x="335" y="145.0" fill="#F32740" font-size="9.5" font-weight="700">93</text>
<text x="335" y="230.0" fill="#F32740" font-size="9.5" font-weight="700">186</text>
<text x="335" y="315.0" fill="#F32740" font-size="9.5" font-weight="700">279</text>
<text x="335" y="400.0" fill="#F32740" font-size="9.5" font-weight="700">375</text>
<rect x="274" y="58" width="52" height="11" rx="1.5" fill="#fafbfc" stroke="rgba(255,255,255,0.4)" stroke-width="0.5"/>
<line x1="272" y1="69.8" x2="328" y2="69.8" stroke="#F32740" stroke-width="0.7" stroke-dasharray="1.5 2"/>
<text x="300" y="66" text-anchor="middle" fill="#F32740" font-size="8" font-weight="700" letter-spacing="0.5">cd/klm SCALE</text>
<g transform="translate(22, 434)">
<text x="0" y="-8" fill="rgba(255,255,255,0.55)" font-size="8" letter-spacing="1.4">cd/klm</text>
<line x1="0" y1="6" x2="22" y2="6" stroke="#F32740" stroke-width="2.2"/>
<text x="28" y="9" fill="rgba(255,255,255,0.7)" font-size="9.5">C0 – C180</text>
<line x1="120" y1="6" x2="142" y2="6" stroke="#3FA9F5" stroke-width="1.7"/>
<text x="148" y="9" fill="rgba(255,255,255,0.7)" font-size="9.5">C90 – C270</text>
</g>
<text x="578" y="402" fill="rgba(255,255,255,0.45)" font-size="9" text-anchor="end">η = 151 lm/W</text>
<text x="578" y="418" fill="rgba(255,255,255,0.45)" font-size="9" text-anchor="end">9,817 lm · 64.9W</text>
<text x="578" y="434" fill="rgba(255,255,255,0.55)" font-size="8" letter-spacing="1.4" text-anchor="end">PEAK INTENSITY</text>
<text x="578" y="451" fill="#fff" font-weight="700" font-size="14" text-anchor="end">3,166 cd</text>
</svg>