<svg viewBox="0 0 600 460" xmlns="http://www.w3.org/2000/svg" font-family="JetBrains Mono, monospace" font-size="9.5">
<rect width="100%" height="100%" fill="#14171b"/>
<text x="22" y="26" fill="#F32740" font-weight="700" letter-spacing="2">LWPC38 · 38W · 4000K · FULL-CUTOFF FORWARD-THROW</text>
<text x="22" y="42" fill="rgba(255,255,255,0.55)" font-size="8" letter-spacing="1.4">LUMINOUS INTENSITY DISTRIBUTION (cd/klm)</text>
<path d="M 215.0 64.0 A 85.0 85.0 0 0 0 385.0 64.0" fill="none" stroke="rgba(120,200,200,0.18)" stroke-width="0.7"/>
<path d="M 130.0 64.0 A 170.0 170.0 0 0 0 470.0 64.0" fill="none" stroke="rgba(120,200,200,0.18)" stroke-width="0.7"/>
<path d="M 45.0 64.0 A 255.0 255.0 0 0 0 555.0 64.0" fill="none" stroke="rgba(120,200,200,0.18)" stroke-width="0.7"/>
<path d="M -40.0 64.0 A 340.0 340.0 0 0 0 640.0 64.0" fill="none" stroke="rgba(120,200,200,0.18)" stroke-width="0.7"/>
<line x1="300" y1="64" x2="212.0" y2="392.4" stroke="rgba(120,200,200,0.1)" stroke-width="0.5"/>
<line x1="300" y1="64" x2="388.0" y2="392.4" stroke="rgba(120,200,200,0.1)" stroke-width="0.5"/>
<line x1="300" y1="64" x2="130.0" y2="358.4" stroke="rgba(120,200,200,0.14)" stroke-width="0.5"/>
<line x1="300" y1="64" x2="470.0" y2="358.4" stroke="rgba(120,200,200,0.14)" stroke-width="0.5"/>
<line x1="300" y1="64" x2="59.6" y2="304.4" stroke="rgba(120,200,200,0.1)" stroke-width="0.5"/>
<line x1="300" y1="64" x2="540.4" y2="304.4" stroke="rgba(120,200,200,0.1)" stroke-width="0.5"/>
<line x1="300" y1="64" x2="5.6" y2="234.0" stroke="rgba(120,200,200,0.14)" stroke-width="0.5"/>
<line x1="300" y1="64" x2="594.4" y2="234.0" stroke="rgba(120,200,200,0.14)" stroke-width="0.5"/>
<line x1="300" y1="64" x2="-28.4" y2="152.0" stroke="rgba(120,200,200,0.1)" stroke-width="0.5"/>
<line x1="300" y1="64" x2="628.4" y2="152.0" stroke="rgba(120,200,200,0.1)" stroke-width="0.5"/>
<line x1="300" y1="64" x2="-40.0" y2="64.0" stroke="rgba(120,200,200,0.14)" stroke-width="0.5"/>
<line x1="300" y1="64" x2="640.0" y2="64.0" stroke="rgba(120,200,200,0.14)" stroke-width="0.5"/>
<line x1="300" y1="64" x2="300" y2="412" stroke="rgba(120,200,200,0.14)" stroke-width="0.5"/>
<line x1="-40" y1="64" x2="640" y2="64" stroke="rgba(120,200,200,0.14)" stroke-width="0.5"/>
<text x="209.4" y="406.1" text-anchor="middle" fill="rgba(255,255,255,0.4)" font-size="9">15°</text>
<text x="390.6" y="406.1" text-anchor="middle" fill="rgba(255,255,255,0.4)" font-size="9">15°</text>
<text x="125.0" y="371.1" text-anchor="middle" fill="rgba(255,255,255,0.6)" font-size="9">30°</text>
<text x="475.0" y="371.1" text-anchor="middle" fill="rgba(255,255,255,0.6)" font-size="9">30°</text>
<text x="52.5" y="315.5" text-anchor="middle" fill="rgba(255,255,255,0.4)" font-size="9">45°</text>
<text x="547.5" y="315.5" text-anchor="middle" fill="rgba(255,255,255,0.4)" font-size="9">45°</text>
<text x="-3.1" y="243.0" text-anchor="middle" fill="rgba(255,255,255,0.6)" font-size="9">60°</text>
<text x="603.1" y="243.0" text-anchor="middle" fill="rgba(255,255,255,0.6)" font-size="9">60°</text>
<text x="-38.1" y="158.6" text-anchor="middle" fill="rgba(255,255,255,0.4)" font-size="9">75°</text>
<text x="638.1" y="158.6" text-anchor="middle" fill="rgba(255,255,255,0.4)" font-size="9">75°</text>
<text x="-50.0" y="68.0" text-anchor="middle" fill="rgba(255,255,255,0.6)" font-size="9">90°</text>
<text x="650.0" y="68.0" text-anchor="middle" fill="rgba(255,255,255,0.6)" font-size="9">90°</text>
<text x="300" y="422" text-anchor="middle" fill="rgba(255,255,255,0.6)" font-size="9">0°</text>
<path d="M 300.0 64.0 L 300.2 64.0 L 300.4 64.0 L 300.8 64.0 L 301.2 64.1 L 301.8 64.2 L 302.6 64.3 L 303.5 64.4 L 304.5 64.6 L 305.9 64.9 L 307.6 65.3 L 309.5 65.8 L 311.0 66.3 L 312.1 66.8 L 312.9 67.2 L 313.1 67.5 L 313.2 67.8 L 313.5 68.1 L 314.0 68.6 L 316.5 69.7 L 325.7 73.4 L 342.4 80.3 L 366.7 90.9 L 397.1 105.2 L 422.9 118.7 L 444.7 131.5 L 461.1 142.6 L 477.6 154.5 L 488.6 164.3 L 497.0 173.2 L 503.9 181.7 L 511.8 191.2 L 515.7 198.8 L 519.7 206.7 L 521.7 213.5 L 522.4 219.8 L 523.5 226.4 L 523.5 232.4 L 522.4 237.8 L 521.8 243.6 L 520.5 249.0 L 519.1 254.4 L 516.8 259.2 L 514.7 264.2 L 512.1 268.9 L 509.9 273.9 L 507.1 278.5 L 502.8 281.4 L 499.5 285.6 L 495.7 289.1 L 491.8 292.6 L 487.8 295.9 L 484.0 299.5 L 479.1 301.7 L 474.8 304.5 L 470.7 307.8 L 465.8 309.8 L 461.4 312.5 L 457.3 315.7 L 452.2 317.2 L 447.7 319.8 L 443.2 322.4 L 438.4 324.3 L 433.5 326.1 L 428.6 327.7 L 423.8 329.5 L 419.0 331.4 L 414.2 333.2 L 409.1 333.9 L 404.2 335.5 L 399.4 337.1 L 394.8 339.4 L 390.1 341.2 L 385.1 342.3 L 379.9 342.5 L 375.2 344.6 L 370.0 344.7 L 365.0 345.5 L 359.9 346.0 L 354.9 346.6 L 349.8 346.4 L 344.7 346.3 L 339.8 347.5 L 334.5 345.3 L 329.5 344.5 L 324.5 343.9 L 319.5 343.3 L 314.6 343.2 L 309.7 342.8 L 304.8 341.7 L 300.0 340.3 L 300.0 340.3 L 295.2 339.2 L 290.4 337.7 L 285.7 336.0 L 281.1 334.6 L 276.5 333.0 L 271.9 331.6 L 267.2 331.0 L 262.6 329.8 L 258.1 328.3 L 253.6 327.4 L 249.2 325.5 L 244.9 323.2 L 240.7 320.8 L 236.2 319.9 L 232.0 317.8 L 227.7 316.2 L 223.3 314.9 L 219.1 313.0 L 215.3 310.0 L 211.3 307.6 L 207.5 305.0 L 204.0 301.7 L 201.1 297.1 L 197.7 293.8 L 194.3 290.6 L 190.8 287.9 L 187.2 285.3 L 183.0 284.0 L 179.5 281.3 L 176.4 278.1 L 172.7 275.8 L 169.8 272.3 L 166.5 269.6 L 163.7 266.1 L 160.5 263.2 L 157.0 260.8 L 154.5 257.1 L 150.7 255.0 L 147.3 252.6 L 145.0 248.8 L 142.6 245.1 L 139.7 242.1 L 137.2 238.6 L 136.0 233.9 L 134.4 229.6 L 133.0 225.3 L 131.6 221.0 L 130.0 217.1 L 128.7 212.9 L 127.7 208.6 L 126.6 204.4 L 126.4 199.6 L 126.5 194.8 L 126.1 190.4 L 126.5 185.5 L 129.0 179.3 L 131.4 173.5 L 134.5 167.4 L 139.9 160.2 L 149.0 151.2 L 160.6 141.3 L 175.2 130.4 L 192.7 118.7 L 211.9 107.0 L 232.5 95.5 L 250.8 85.9 L 266.7 78.1 L 279.0 72.5 L 285.1 69.7 L 287.4 68.6 L 288.5 68.0 L 289.2 67.5 L 290.0 67.1 L 290.5 66.7 L 291.2 66.4 L 291.7 66.1 L 292.3 65.8 L 293.0 65.5 L 293.6 65.2 L 294.3 65.0 L 294.9 64.8 L 295.4 64.6 L 296.1 64.5 L 296.9 64.3 L 297.5 64.2 L 298.1 64.1 L 298.8 64.1 L 299.3 64.0 L 299.6 64.0 L 299.8 64.0 Z" fill="none" stroke="#F32740" stroke-width="2.0" stroke-linejoin="round" stroke-linecap="round"/>
<path d="M 301.7 64.0 L 302.6 64.0 L 303.5 64.1 L 304.6 64.2 L 305.7 64.4 L 307.2 64.6 L 308.7 64.9 L 310.3 65.3 L 312.1 65.7 L 314.2 66.2 L 316.8 67.0 L 319.4 67.8 L 322.3 68.7 L 325.7 69.9 L 328.9 71.2 L 332.2 72.6 L 335.3 74.1 L 338.6 75.8 L 342.3 77.7 L 345.9 79.8 L 349.6 82.1 L 353.5 84.5 L 357.8 87.4 L 361.8 90.3 L 365.7 93.2 L 369.4 96.4 L 374.2 100.2 L 377.9 103.7 L 381.7 107.5 L 385.5 111.4 L 389.3 115.5 L 393.0 119.9 L 396.5 124.3 L 400.7 129.4 L 404.1 134.2 L 407.7 139.4 L 411.0 144.7 L 414.7 150.5 L 417.8 156.0 L 420.8 161.8 L 423.4 167.5 L 425.6 173.2 L 427.4 178.8 L 428.9 184.2 L 430.4 189.9 L 431.5 195.5 L 432.5 201.2 L 432.6 206.2 L 433.0 211.7 L 433.0 217.0 L 432.9 222.4 L 432.1 227.1 L 431.4 232.2 L 430.5 237.2 L 429.8 242.6 L 428.4 247.4 L 426.8 252.0 L 425.2 256.8 L 423.2 261.1 L 421.9 266.8 L 419.6 271.1 L 417.5 276.0 L 414.7 279.7 L 412.1 283.9 L 409.1 287.6 L 406.0 291.4 L 403.0 295.3 L 400.1 299.9 L 396.4 302.6 L 393.1 306.6 L 389.3 309.5 L 385.5 312.3 L 381.7 315.5 L 377.9 318.9 L 373.6 320.8 L 369.5 323.3 L 365.1 325.1 L 360.8 327.3 L 356.6 330.2 L 352.0 331.4 L 347.5 333.2 L 342.9 334.7 L 338.2 336.0 L 333.5 336.9 L 328.8 337.7 L 324.0 338.4 L 319.2 339.0 L 314.4 338.7 L 309.6 339.3 L 304.8 340.0 L 300.0 340.3 L 300.0 340.3 L 295.2 340.0 L 290.4 339.3 L 285.6 338.7 L 280.8 339.0 L 276.0 338.4 L 271.2 337.7 L 266.5 336.9 L 261.8 336.0 L 257.1 334.7 L 252.5 333.2 L 248.0 331.4 L 243.4 330.2 L 239.2 327.3 L 234.9 325.1 L 230.5 323.3 L 226.4 320.8 L 222.1 318.9 L 218.3 315.5 L 214.5 312.3 L 210.7 309.5 L 206.9 306.6 L 203.6 302.6 L 199.9 299.9 L 197.0 295.3 L 194.0 291.4 L 190.9 287.6 L 187.9 283.9 L 185.3 279.7 L 182.5 276.0 L 180.4 271.1 L 178.1 266.8 L 176.8 261.1 L 174.8 256.8 L 173.2 252.0 L 171.6 247.4 L 170.2 242.6 L 169.5 237.2 L 168.6 232.2 L 167.9 227.1 L 167.1 222.4 L 167.0 217.0 L 167.0 211.7 L 167.4 206.2 L 167.5 201.2 L 168.5 195.5 L 169.6 189.9 L 171.1 184.2 L 172.6 178.8 L 174.4 173.2 L 176.6 167.5 L 179.2 161.8 L 182.2 156.0 L 185.3 150.5 L 189.0 144.7 L 192.3 139.4 L 195.9 134.2 L 199.3 129.4 L 203.5 124.3 L 207.0 119.9 L 210.7 115.5 L 214.5 111.4 L 218.3 107.5 L 222.1 103.7 L 225.8 100.2 L 230.6 96.4 L 234.3 93.2 L 238.2 90.3 L 242.2 87.4 L 246.5 84.5 L 250.4 82.1 L 254.1 79.8 L 257.7 77.7 L 261.4 75.8 L 264.7 74.1 L 267.8 72.6 L 271.1 71.2 L 274.3 69.9 L 277.7 68.7 L 280.6 67.8 L 283.2 67.0 L 285.8 66.2 L 287.9 65.7 L 289.7 65.3 L 291.3 64.9 L 292.8 64.6 L 294.3 64.4 L 295.4 64.2 L 296.5 64.1 L 297.4 64.0 L 298.3 64.0 Z" fill="none" stroke="#3FA9F5" stroke-width="1.7" stroke-linejoin="round" stroke-linecap="round"/>
<text x="335" y="145.0" fill="#F32740" font-size="9.5" font-weight="700">93</text>
<text x="335" y="230.0" fill="#F32740" font-size="9.5" font-weight="700">186</text>
<text x="335" y="315.0" fill="#F32740" font-size="9.5" font-weight="700">279</text>
<text x="335" y="400.0" fill="#F32740" font-size="9.5" font-weight="700">375</text>
<rect x="274" y="58" width="52" height="11" rx="1.5" fill="#fafbfc" stroke="rgba(255,255,255,0.4)" stroke-width="0.5"/>
<line x1="272" y1="69.8" x2="328" y2="69.8" stroke="#F32740" stroke-width="0.7" stroke-dasharray="1.5 2"/>
<text x="300" y="66" text-anchor="middle" fill="#F32740" font-size="8" font-weight="700" letter-spacing="0.5">cd/klm SCALE</text>
<g transform="translate(22, 434)">
<text x="0" y="-8" fill="rgba(255,255,255,0.55)" font-size="8" letter-spacing="1.4">cd/klm</text>
<line x1="0" y1="6" x2="22" y2="6" stroke="#F32740" stroke-width="2.2"/>
<text x="28" y="9" fill="rgba(255,255,255,0.7)" font-size="9.5">C0 – C180</text>
<line x1="120" y1="6" x2="142" y2="6" stroke="#3FA9F5" stroke-width="1.7"/>
<text x="148" y="9" fill="rgba(255,255,255,0.7)" font-size="9.5">C90 – C270</text>
</g>
<text x="578" y="402" fill="rgba(255,255,255,0.45)" font-size="9" text-anchor="end">η = 164 lm/W</text>
<text x="578" y="418" fill="rgba(255,255,255,0.45)" font-size="9" text-anchor="end">6,030 lm · 36.7W</text>
<text x="578" y="434" fill="rgba(255,255,255,0.55)" font-size="8" letter-spacing="1.4" text-anchor="end">PEAK INTENSITY</text>
<text x="578" y="451" fill="#fff" font-weight="700" font-size="14" text-anchor="end">1,987 cd</text>
</svg>