<svg viewBox="0 0 600 460" xmlns="http://www.w3.org/2000/svg" font-family="JetBrains Mono, monospace" font-size="9.5">
<rect width="100%" height="100%" fill="#14171b"/>
<text x="22" y="26" fill="#F32740" font-weight="700" letter-spacing="2">LWPC38 · 38W · 5000K · FULL-CUTOFF FORWARD-THROW</text>
<text x="22" y="42" fill="rgba(255,255,255,0.55)" font-size="8" letter-spacing="1.4">LUMINOUS INTENSITY DISTRIBUTION (cd/klm)</text>
<path d="M 215.0 64.0 A 85.0 85.0 0 0 0 385.0 64.0" fill="none" stroke="rgba(120,200,200,0.18)" stroke-width="0.7"/>
<path d="M 130.0 64.0 A 170.0 170.0 0 0 0 470.0 64.0" fill="none" stroke="rgba(120,200,200,0.18)" stroke-width="0.7"/>
<path d="M 45.0 64.0 A 255.0 255.0 0 0 0 555.0 64.0" fill="none" stroke="rgba(120,200,200,0.18)" stroke-width="0.7"/>
<path d="M -40.0 64.0 A 340.0 340.0 0 0 0 640.0 64.0" fill="none" stroke="rgba(120,200,200,0.18)" stroke-width="0.7"/>
<line x1="300" y1="64" x2="212.0" y2="392.4" stroke="rgba(120,200,200,0.1)" stroke-width="0.5"/>
<line x1="300" y1="64" x2="388.0" y2="392.4" stroke="rgba(120,200,200,0.1)" stroke-width="0.5"/>
<line x1="300" y1="64" x2="130.0" y2="358.4" stroke="rgba(120,200,200,0.14)" stroke-width="0.5"/>
<line x1="300" y1="64" x2="470.0" y2="358.4" stroke="rgba(120,200,200,0.14)" stroke-width="0.5"/>
<line x1="300" y1="64" x2="59.6" y2="304.4" stroke="rgba(120,200,200,0.1)" stroke-width="0.5"/>
<line x1="300" y1="64" x2="540.4" y2="304.4" stroke="rgba(120,200,200,0.1)" stroke-width="0.5"/>
<line x1="300" y1="64" x2="5.6" y2="234.0" stroke="rgba(120,200,200,0.14)" stroke-width="0.5"/>
<line x1="300" y1="64" x2="594.4" y2="234.0" stroke="rgba(120,200,200,0.14)" stroke-width="0.5"/>
<line x1="300" y1="64" x2="-28.4" y2="152.0" stroke="rgba(120,200,200,0.1)" stroke-width="0.5"/>
<line x1="300" y1="64" x2="628.4" y2="152.0" stroke="rgba(120,200,200,0.1)" stroke-width="0.5"/>
<line x1="300" y1="64" x2="-40.0" y2="64.0" stroke="rgba(120,200,200,0.14)" stroke-width="0.5"/>
<line x1="300" y1="64" x2="640.0" y2="64.0" stroke="rgba(120,200,200,0.14)" stroke-width="0.5"/>
<line x1="300" y1="64" x2="300" y2="412" stroke="rgba(120,200,200,0.14)" stroke-width="0.5"/>
<line x1="-40" y1="64" x2="640" y2="64" stroke="rgba(120,200,200,0.14)" stroke-width="0.5"/>
<text x="209.4" y="406.1" text-anchor="middle" fill="rgba(255,255,255,0.4)" font-size="9">15°</text>
<text x="390.6" y="406.1" text-anchor="middle" fill="rgba(255,255,255,0.4)" font-size="9">15°</text>
<text x="125.0" y="371.1" text-anchor="middle" fill="rgba(255,255,255,0.6)" font-size="9">30°</text>
<text x="475.0" y="371.1" text-anchor="middle" fill="rgba(255,255,255,0.6)" font-size="9">30°</text>
<text x="52.5" y="315.5" text-anchor="middle" fill="rgba(255,255,255,0.4)" font-size="9">45°</text>
<text x="547.5" y="315.5" text-anchor="middle" fill="rgba(255,255,255,0.4)" font-size="9">45°</text>
<text x="-3.1" y="243.0" text-anchor="middle" fill="rgba(255,255,255,0.6)" font-size="9">60°</text>
<text x="603.1" y="243.0" text-anchor="middle" fill="rgba(255,255,255,0.6)" font-size="9">60°</text>
<text x="-38.1" y="158.6" text-anchor="middle" fill="rgba(255,255,255,0.4)" font-size="9">75°</text>
<text x="638.1" y="158.6" text-anchor="middle" fill="rgba(255,255,255,0.4)" font-size="9">75°</text>
<text x="-50.0" y="68.0" text-anchor="middle" fill="rgba(255,255,255,0.6)" font-size="9">90°</text>
<text x="650.0" y="68.0" text-anchor="middle" fill="rgba(255,255,255,0.6)" font-size="9">90°</text>
<text x="300" y="422" text-anchor="middle" fill="rgba(255,255,255,0.6)" font-size="9">0°</text>
<path d="M 300.0 64.0 L 300.2 64.0 L 300.4 64.0 L 300.8 64.0 L 301.3 64.1 L 302.0 64.2 L 302.8 64.3 L 303.6 64.4 L 304.6 64.6 L 306.0 64.9 L 307.9 65.4 L 309.4 65.8 L 311.0 66.3 L 312.0 66.8 L 312.9 67.2 L 313.1 67.5 L 313.3 67.8 L 313.6 68.2 L 314.5 68.7 L 318.4 70.3 L 329.4 74.7 L 348.2 82.5 L 372.6 93.3 L 402.2 107.4 L 426.9 120.5 L 448.3 133.2 L 466.3 145.1 L 481.1 156.3 L 492.1 166.2 L 500.8 175.3 L 508.3 184.2 L 513.6 192.3 L 517.3 199.8 L 519.2 206.3 L 521.8 213.6 L 521.9 219.4 L 522.4 225.6 L 522.7 231.8 L 522.4 237.7 L 520.2 242.3 L 519.3 248.0 L 517.1 252.7 L 515.3 257.8 L 513.4 263.0 L 510.8 267.5 L 507.7 271.7 L 504.7 275.9 L 501.4 279.9 L 497.9 283.8 L 494.2 287.4 L 489.5 289.8 L 485.2 292.8 L 481.2 295.9 L 476.9 298.8 L 472.8 301.8 L 468.7 305.0 L 464.4 307.8 L 459.9 310.2 L 455.5 312.9 L 451.0 315.3 L 446.4 317.6 L 442.0 320.2 L 437.0 321.7 L 432.2 323.4 L 427.4 325.2 L 422.4 326.5 L 417.7 328.3 L 412.8 329.7 L 408.0 331.2 L 403.3 333.1 L 398.5 334.5 L 393.7 336.0 L 389.1 338.2 L 384.2 339.4 L 379.1 339.9 L 374.2 340.9 L 369.2 341.7 L 364.3 342.4 L 359.2 342.7 L 354.1 342.2 L 349.0 342.1 L 344.1 342.1 L 339.1 342.5 L 334.1 341.6 L 329.0 340.1 L 324.1 339.1 L 319.2 338.7 L 314.5 339.8 L 309.6 339.9 L 304.8 339.4 L 300.0 337.8 L 300.0 337.8 L 295.2 337.4 L 290.5 337.1 L 285.8 335.7 L 281.1 333.9 L 276.6 332.0 L 271.9 330.9 L 267.4 329.6 L 262.8 328.7 L 258.3 327.1 L 253.9 325.4 L 249.4 324.4 L 245.1 322.1 L 240.7 320.9 L 236.4 319.0 L 232.2 317.1 L 227.8 315.9 L 223.6 314.0 L 219.3 312.3 L 215.2 310.3 L 211.4 307.4 L 207.5 305.1 L 204.7 299.8 L 200.9 297.5 L 197.6 294.0 L 194.1 291.1 L 190.5 288.5 L 187.1 285.5 L 183.4 283.2 L 179.8 280.9 L 176.3 278.3 L 172.3 276.6 L 168.9 273.9 L 166.0 270.3 L 162.7 267.6 L 160.2 263.6 L 156.8 261.1 L 153.4 258.6 L 150.2 255.8 L 146.6 253.4 L 143.9 250.0 L 140.9 247.1 L 138.4 243.5 L 136.7 239.1 L 134.9 234.9 L 133.3 230.7 L 132.0 226.3 L 131.0 221.6 L 129.1 217.8 L 127.8 213.7 L 126.6 209.5 L 125.6 205.3 L 125.6 200.3 L 125.1 195.8 L 124.4 191.6 L 125.2 186.4 L 127.6 180.3 L 130.1 174.3 L 133.6 168.0 L 139.0 160.7 L 147.6 152.0 L 160.2 141.5 L 176.5 129.7 L 193.7 118.2 L 212.4 106.7 L 231.6 95.9 L 250.9 85.9 L 269.1 77.1 L 279.4 72.3 L 284.9 69.8 L 287.3 68.6 L 288.5 68.0 L 289.2 67.5 L 289.9 67.1 L 290.6 66.7 L 291.3 66.3 L 291.8 66.0 L 292.5 65.7 L 293.2 65.4 L 293.8 65.2 L 294.5 65.0 L 295.0 64.8 L 295.7 64.6 L 296.3 64.4 L 297.0 64.3 L 297.6 64.2 L 298.2 64.1 L 298.9 64.1 L 299.4 64.0 L 299.6 64.0 L 300.0 64.0 Z" fill="none" stroke="#F32740" stroke-width="2.0" stroke-linejoin="round" stroke-linecap="round"/>
<path d="M 301.7 64.0 L 302.6 64.0 L 303.5 64.1 L 304.5 64.2 L 305.9 64.4 L 307.2 64.6 L 308.7 64.9 L 310.4 65.3 L 312.5 65.8 L 314.7 66.3 L 317.0 67.0 L 319.7 67.8 L 322.9 68.9 L 326.0 70.0 L 329.1 71.3 L 332.3 72.7 L 335.8 74.3 L 339.0 75.9 L 342.4 77.8 L 345.9 79.8 L 350.2 82.3 L 354.3 84.8 L 358.2 87.5 L 362.3 90.4 L 366.7 93.7 L 371.0 97.1 L 374.7 100.4 L 378.5 104.0 L 382.7 108.0 L 386.6 112.0 L 389.9 115.9 L 393.5 120.2 L 397.0 124.6 L 401.1 129.7 L 404.9 134.8 L 407.6 139.4 L 411.3 144.9 L 414.4 150.2 L 417.3 155.7 L 420.6 161.7 L 423.3 167.5 L 425.5 173.1 L 427.5 178.8 L 429.2 184.5 L 430.7 190.2 L 432.2 196.2 L 432.9 201.7 L 433.2 206.8 L 433.1 211.8 L 433.2 217.3 L 432.9 222.3 L 432.0 227.0 L 431.4 232.1 L 430.8 237.6 L 429.7 242.5 L 428.5 247.4 L 427.1 252.4 L 425.5 257.3 L 423.6 261.7 L 421.3 266.0 L 419.3 270.6 L 416.9 274.8 L 414.4 279.1 L 411.8 283.3 L 408.9 287.4 L 405.9 291.2 L 402.8 295.0 L 399.7 299.0 L 396.2 302.1 L 392.2 304.3 L 388.7 307.8 L 385.0 310.8 L 381.6 315.0 L 377.5 317.3 L 373.4 320.0 L 369.2 322.2 L 364.8 324.1 L 360.7 326.7 L 356.2 328.5 L 351.7 330.2 L 347.1 331.4 L 342.5 332.5 L 337.9 333.8 L 333.2 334.8 L 328.5 335.4 L 323.8 336.1 L 319.2 338.0 L 314.3 337.7 L 309.6 338.0 L 304.8 338.5 L 300.0 337.8 L 300.0 337.8 L 295.2 338.5 L 290.4 338.0 L 285.7 337.7 L 280.8 338.0 L 276.2 336.1 L 271.5 335.4 L 266.8 334.8 L 262.1 333.8 L 257.5 332.5 L 252.9 331.4 L 248.3 330.2 L 243.8 328.5 L 239.3 326.7 L 235.2 324.1 L 230.8 322.2 L 226.6 320.0 L 222.5 317.3 L 218.4 315.0 L 215.0 310.8 L 211.3 307.8 L 207.8 304.3 L 203.8 302.1 L 200.3 299.0 L 197.2 295.0 L 194.1 291.2 L 191.1 287.4 L 188.2 283.3 L 185.6 279.1 L 183.1 274.8 L 180.7 270.6 L 178.7 266.0 L 176.4 261.7 L 174.5 257.3 L 172.9 252.4 L 171.5 247.4 L 170.3 242.5 L 169.2 237.6 L 168.6 232.1 L 168.0 227.0 L 167.1 222.3 L 166.8 217.3 L 166.9 211.8 L 166.8 206.8 L 167.1 201.7 L 167.8 196.2 L 169.3 190.2 L 170.8 184.5 L 172.5 178.8 L 174.5 173.1 L 176.7 167.5 L 179.4 161.7 L 182.7 155.7 L 185.6 150.2 L 188.7 144.9 L 192.4 139.4 L 195.1 134.8 L 198.9 129.7 L 203.0 124.6 L 206.5 120.2 L 210.1 115.9 L 213.4 112.0 L 217.3 108.0 L 221.5 104.0 L 225.3 100.4 L 229.0 97.1 L 233.3 93.7 L 237.7 90.4 L 241.8 87.5 L 245.7 84.8 L 249.8 82.3 L 254.1 79.8 L 257.6 77.8 L 261.0 75.9 L 264.2 74.3 L 267.7 72.7 L 270.9 71.3 L 274.0 70.0 L 277.1 68.9 L 280.3 67.8 L 283.0 67.0 L 285.3 66.3 L 287.5 65.8 L 289.6 65.3 L 291.3 64.9 L 292.8 64.6 L 294.1 64.4 L 295.5 64.2 L 296.5 64.1 L 297.4 64.0 L 298.3 64.0 Z" fill="none" stroke="#3FA9F5" stroke-width="1.7" stroke-linejoin="round" stroke-linecap="round"/>
<text x="335" y="145.0" fill="#F32740" font-size="9.5" font-weight="700">93</text>
<text x="335" y="230.0" fill="#F32740" font-size="9.5" font-weight="700">186</text>
<text x="335" y="315.0" fill="#F32740" font-size="9.5" font-weight="700">279</text>
<text x="335" y="400.0" fill="#F32740" font-size="9.5" font-weight="700">375</text>
<rect x="274" y="58" width="52" height="11" rx="1.5" fill="#fafbfc" stroke="rgba(255,255,255,0.4)" stroke-width="0.5"/>
<line x1="272" y1="69.8" x2="328" y2="69.8" stroke="#F32740" stroke-width="0.7" stroke-dasharray="1.5 2"/>
<text x="300" y="66" text-anchor="middle" fill="#F32740" font-size="8" font-weight="700" letter-spacing="0.5">cd/klm SCALE</text>
<g transform="translate(22, 434)">
<text x="0" y="-8" fill="rgba(255,255,255,0.55)" font-size="8" letter-spacing="1.4">cd/klm</text>
<line x1="0" y1="6" x2="22" y2="6" stroke="#F32740" stroke-width="2.2"/>
<text x="28" y="9" fill="rgba(255,255,255,0.7)" font-size="9.5">C0 – C180</text>
<line x1="120" y1="6" x2="142" y2="6" stroke="#3FA9F5" stroke-width="1.7"/>
<text x="148" y="9" fill="rgba(255,255,255,0.7)" font-size="9.5">C90 – C270</text>
</g>
<text x="578" y="402" fill="rgba(255,255,255,0.45)" font-size="9" text-anchor="end">η = 153 lm/W</text>
<text x="578" y="418" fill="rgba(255,255,255,0.45)" font-size="9" text-anchor="end">5,833 lm · 38.1W</text>
<text x="578" y="434" fill="rgba(255,255,255,0.55)" font-size="8" letter-spacing="1.4" text-anchor="end">PEAK INTENSITY</text>
<text x="578" y="451" fill="#fff" font-weight="700" font-size="14" text-anchor="end">1,904 cd</text>
</svg>