<svg version="1.1" id="Layer_1" xmlns="http://www.w3.org/2000/svg" x="0" y="0" viewBox="0 0 42 42" style="enable-background:new 0 0 250 250" xml:space="preserve" width="42" height="42"><style>.st0{fill:#6f6f6f}</style><path id="Path_163" class="st0" d="M38.959 40.169h.437v1.209h.185v-1.209h.453v-.168h-1.092v.168z"/><path id="Path_164" class="st0" d="M40.992 40.959c-.033.101-.067.168-.067.219l-.067-.201-.319-.975h-.269v1.377h.168V40.22l.403 1.159h.168l.403-1.143v1.143h.168v-1.377h-.252l-.336.957z"/><path id="Rectangle_33" class="st0" d="M20.496 4.083h.84v.84h-.84z"/><path id="Path_165" class="st0" d="M9.257 16.565H6.233v6.653h3.04c3.477 0 3.477-2.251 3.477-3.327-.017-1.075-.017-3.327-3.495-3.327"/><path id="Rectangle_34" class="st0" d="M20.496 5.763h.84v.84h-.84z"/><path id="Rectangle_35" class="st0" d="M20.496 7.443h.84v.84h-.84z"/><path id="Rectangle_36" class="st0" d="M20.496 2.403h.84v.84h-.84z"/><path id="Rectangle_37" class="st0" d="M23.587 5.763h.84v.84h-.84z"/><path id="Rectangle_38" class="st0" d="M25.267 7.443h.84v.84h-.84z"/><path id="Path_166" class="st0" d="M41.563 11.172a3.438 3.438 0 0 0-2.856-3.377L28.09 6.031V5.46h-1.68V3.78h-3.091V.42h-4.805V2.1h-1.68v1.613h-3.091v2.369L3.427 7.795a3.413 3.413 0 0 0-2.856 3.377L.437 35.297a3.401 3.401 0 0 0 2.721 3.343l11.407 2.352c3.763.773 7.627.789 11.391.067l12.684-2.436a3.398 3.398 0 0 0 2.755-3.309l.168-24.141zM12.617 9.66h2.268V4.855h2.52V9.66h.571V3.243h1.68v-1.68h2.52v8.115h.571V4.923h2.52v1.68h1.68V9.66h2.268v1.143H12.617V9.66zM7.611 35.919H3.327v-6.267h1.899v4.62h2.385v1.647zM2.94 26.511V13.272h6.333c2.873 0 6.771 1.327 6.771 6.619s-3.897 6.619-6.771 6.619H2.94zm8.265 9.408H9.307v-6.267h1.899v6.267zm4.385.101a4.109 4.109 0 0 1-2.907-1.008l.991-1.411c.537.521 1.26.807 2.016.807.353 0 .689-.117.689-.369s-.269-.369-.891-.487c-1.041-.185-2.621-.437-2.621-1.999 0-1.059.891-2.033 2.604-2.033a4.11 4.11 0 0 1 2.655.873l-1.008 1.344a3.1 3.1 0 0 0-1.747-.621c-.471 0-.571.168-.571.319 0 .252.252.319.924.437 1.041.185 2.571.487 2.571 1.932 0 1.428-1.025 2.217-2.705 2.217m9.173-4.721H23.1v4.62h-1.899V31.3h-1.68v-1.647h5.259l-.017 1.647zm-7.644-4.788v-13.24h3.309v10.365h6.552v2.856l-9.861.017zm14.011 4.721h-2.856v.739h2.789v1.579h-2.789v.807h2.856v1.579h-4.754V29.67h4.755v1.563zm4.587 4.687h-2.823v-6.267h2.805c1.983 0 3.444 1.125 3.444 3.125a3.096 3.096 0 0 1-3.024 3.159c-.135 0-.269 0-.403-.017m-1.395-12.063a4.087 4.087 0 0 0 3.024-1.344l2.587 1.815a7.503 7.503 0 0 1-5.595 2.503c-3.931.117-7.224-2.991-7.341-6.921.117-3.931 3.393-7.023 7.341-6.921a7.48 7.48 0 0 1 5.595 2.503l-2.553 1.848a4.067 4.067 0 0 0-3.041-1.377 3.956 3.956 0 0 0-4.065 3.831 3.956 3.956 0 0 0 3.831 4.065h.219"/><path id="Rectangle_39" class="st0" d="M15.725 7.443h.84v.84h-.84z"/><path id="Rectangle_40" class="st0" d="M23.587 7.443h.84v.84h-.84z"/><path id="Path_167" class="st0" d="M35.717 31.299h-.907v2.957h.907a1.435 1.435 0 0 0 1.512-1.377v-.101a1.374 1.374 0 0 0-1.26-1.479h-.252"/><path id="Rectangle_41" class="st0" d="M18.816 5.763h.84v.84h-.84z"/><path id="Rectangle_42" class="st0" d="M18.816 4.083h.84v.84h-.84z"/><path id="Rectangle_43" class="st0" d="M15.725 5.763h.84v.84h-.84z"/><path id="Rectangle_44" class="st0" d="M18.816 7.443h.84v.84h-.84z"/></svg>