<?xml version="1.0" encoding="UTF-8"?><svg id="Layer_1" xmlns="http://www.w3.org/2000/svg" width="60" height="60" viewBox="0 0 60 60"><defs><style>.cls-1{fill:#6f6f6f;}</style></defs><g><path class="cls-1" d="m41.21,57.69c-.5-1.24-.99-2.48-1.52-3.75,6.86-2.96,11.76-7.8,14.45-14.73,2.06-5.29,2.34-10.73.8-16.19-3.23-11.32-13.43-19-25.01-18.92-11.61.1-21.76,7.82-24.84,18.87-3.18,11.47,1.89,24.96,14.5,30.65-.55,1.22-1.09,2.43-1.62,3.68C6.72,52.62-1.33,40.36.18,26.67,1.87,11.25,15-.02,29.97,0,44.74,0,57.1,10.63,59.53,24.74c2.71,15.6-6.79,28.51-18.32,32.96"/><path class="cls-1" d="m47.62,27.76h3.88c.72,10.23-5.2,19.32-14.45,22.38V9.56c1.37.67,2.64,1.27,3.88,1.96.17.1.2.55.2.82v31.19c4.95-4.25,6.79-9.54,6.49-15.77"/><path class="cls-1" d="m22.51,9.88c0,1.32.02,2.56-.02,3.8-.02.25-.37.55-.65.7-4.4,2.41-7.33,5.99-8.75,10.8-.22.79-.37,1.64-.6,2.56h10.09v4.12h-10.24c.47,1.64.8,3.18,1.37,4.62,1.59,4.05,4.4,7.05,8.25,9.06.4.2.55.45.55.87-.02,1.17,0,2.33,0,3.53-6.54-2.09-13.25-8.99-13.95-18.3-.8-10.73,6.04-18.95,13.95-21.75"/><path class="cls-1" d="m27.53,12.42c-1.27.35-2.44.65-3.68.97,0-1.27-.02-2.48.02-3.7,0-.15.22-.4.37-.45,3.61-.99,7.24-1.07,10.87-.15.17.05.42.27.42.42.02,1.22.02,2.43.02,3.65-1.32-.25-2.56-.5-3.9-.75v38.77c-1.42.47-2.74.57-4.15-.02V12.42h.02Z"/></g><g><path class="cls-1" d="m47.43,26.08h0c0-.57.42-.99.99-.99.4,0,.65.17.8.4l-.4.3c-.1-.12-.22-.22-.42-.22-.27,0-.45.22-.45.5h0c0,.27.2.5.45.5.2,0,.32-.1.42-.22l.4.27c-.17.25-.42.42-.85.42-.52.05-.94-.37-.94-.94Z"/><path class="cls-1" d="m49.46,25.13h.55l.45.75.45-.75h.55v1.91h-.52v-1.09l-.5.75h0l-.47-.75v1.09h-.5v-1.91Z"/></g><g><path class="cls-1" d="m20.67,54.39l.8.27-1.02,2.88,1.79.62-.25.72-2.59-.89,1.27-3.6Z"/><path class="cls-1" d="m23.8,55.41l.82.2-.9,3.73-.82-.2.9-3.73Z"/><path class="cls-1" d="m24.7,58.98l.57-.52c.3.32.65.55,1.07.62.35.05.57-.05.6-.27h0c.02-.2-.1-.35-.7-.6-.75-.3-1.19-.57-1.09-1.32h0c.1-.7.7-1.07,1.49-.97.55.07.99.32,1.34.67l-.52.57c-.3-.27-.62-.47-.94-.5-.32-.05-.5.07-.52.27h0c-.02.25.12.35.75.6.75.3,1.14.65,1.04,1.29h0c-.1.75-.72,1.09-1.54.99-.57-.1-1.14-.37-1.54-.84Z"/><path class="cls-1" d="m29.5,56.95h-1.17v-.77h3.18v.77h-1.17v3.05h-.85s0-3.05,0-3.05Z"/><path class="cls-1" d="m31.96,56.13l2.86-.4.1.75-2.04.27.1.77,1.79-.25.1.75-1.79.25.1.79,2.06-.3.1.75-2.88.4-.5-3.77Z"/><path class="cls-1" d="m35.37,55.63l1.44-.42c1.14-.35,2.19.2,2.49,1.24h0c.3,1.04-.25,2.06-1.39,2.41l-1.44.42-1.09-3.65Zm1.02.47l.67,2.21.62-.2c.67-.2.97-.77.77-1.42h0c-.2-.65-.77-.97-1.44-.77l-.62.17Z"/></g></svg>