<?xml version="1.0" encoding="utf-8"?>
<!-- Generator: Adobe Illustrator 26.3.1, SVG Export Plug-In . SVG Version: 6.00 Build 0)  -->
<svg version="1.1" id="Layer_1" xmlns="http://www.w3.org/2000/svg" xmlns:xlink="http://www.w3.org/1999/xlink" x="0px" y="0px"
	 viewBox="0 0 250 250" style="enable-background:new 0 0 250 250;" xml:space="preserve">
<style type="text/css">
	.st0{fill:#6F6F6F;}
</style>
<g>
	<path id="Path_145" class="st0" d="M209.2,26.8c0-7.8,0.9-16,1.4-24.3l0,0c-42.2,43.4-72.4,97-87.5,155.6c-2.5-3.6-4.6-6.8-6.7-9.9
		c-12-17.1-26.8-32-43.8-44.1c-1-0.7-1.8-1-2.9,0c-14.4,12.9-28.9,25.7-43.3,38.6c-0.2,0.2-0.6,0.3-1.3,0.8
		c38.6,15.8,73.6,39.3,102.9,69c0.5-0.8,0.9-1.4,1.3-2.1c13.4-24.7,29.3-48,47.5-69.4c13.5-16,28.2-30.9,44-44.6
		c1.4-0.9,1.7-2.7,0.9-4.1C213.2,71.4,209,49.2,209.2,26.8"/>
	<path id="Path_146" class="st0" d="M66.8,216.4c0,1.4,0.1,2.8,0,4.2c-0.1,1.6,0.6,2.3,2.1,2.2c2.4-0.1,4.7-0.3,7-0.8
		c2.3-0.5,3.9-2.5,4-4.9c0.5-4.1-1.5-6.3-6.2-6.9C66.9,209.4,66.8,209.5,66.8,216.4 M96.3,246.4c-4.3,0-7.8,0.1-11.4-0.1
		c-0.9-0.2-1.7-0.8-2.2-1.6c-3.2-4.3-6.3-8.6-9.4-13c-1.4-1.6-3.7-2.2-5.8-1.5c-0.5,0.5-0.8,1.3-0.8,2c-0.1,3.9,0,7.7,0,11.6
		c0,1.8-0.6,2.6-2.4,2.5c-2.1-0.1-4.3,0-6.4,0c-1.3,0-1.8-0.7-1.8-2c0.1-13.2,0.1-26.4,0.1-39.6c0-1.5,0.6-2,2-2c7,0.1,14,0,21,0.3
		c4.9,0,9.2,3,11.1,7.5c1.9,5.6-0.1,11.8-4.9,15.2c-3.1,2.2-3.1,1.9-0.8,4.9c2.9,3.9,5.9,7.7,8.8,11.6
		C94.3,243.4,95.1,244.6,96.3,246.4"/>
	<path id="Path_147" class="st0" d="M179.9,224.9c0,6.3-0.1,12.6,0,18.9c0,2.1-0.7,2.8-2.6,2.6c-1.9-0.1-3.8-0.1-5.7,0
		c-1.7,0.1-2.2-0.6-2.2-2.3c0.1-4.8,0-9.7,0-14.5c0-1.9-0.5-2.9-2.5-2.8c-4,0.1-7.9,0.1-11.9,0c-1.8,0-2.4,0.7-2.4,2.5
		c0.1,4.8-0.1,9.7,0.1,14.5c0.1,2.1-0.7,2.7-2.6,2.6c-1.9-0.1-3.8-0.1-5.7,0c-1.4,0-2-0.5-2-2c0-13.3,0-26.6,0-39.9
		c0-1.5,0.7-1.8,1.9-1.8c2.1,0.1,4.3,0.1,6.4,0c1.6-0.1,2,0.5,2,2.1c-0.1,3.9,0,7.7-0.1,11.6c0,1.9,0.7,2.6,2.5,2.6
		c4-0.1,8-0.1,11.9,0c1.7,0,2.4-0.7,2.4-2.5c-0.1-3.5-0.1-7.1-0.1-10.6c0-3.2,0-3.2,3.2-3.2c1.7,0,3.3,0.1,5,0
		c1.8-0.1,2.3,0.6,2.3,2.4c-0.1,6.6,0,13.1,0,19.7"/>
	<path id="Path_148" class="st0" d="M189.1,233.7c0.8,0.3,1.5,0.7,2.3,1.1c3.7,2.7,8.1,4.3,12.6,4.7c2.4,0.1,4.7-0.2,7-0.8
		c1.8-0.3,3.1-1.8,3-3.6c0.1-1.8-1.1-3.4-2.8-3.8c-3-1-6.1-1.6-9.2-2.4c-4.1-0.6-7.8-2.7-10.5-5.8c-4-5.7-2.6-13.5,3.1-17.4
		c0.7-0.5,1.6-1,2.4-1.3c7-2.9,14.8-3.1,21.9-0.8c4.2,1.1,4.2,1.3,4.2,5.8c0,1.7,0,3.4,0,5.5c-2.1-1.1-3.6-2-5.3-2.9
		c-4.2-2.2-9-2.8-13.6-1.8c-2.1,0.3-3.9,1.9-4.2,4.1c0,2.5,1.8,3.4,3.7,3.9c4.4,1.3,8.9,2.1,13.1,3.6c6.3,2.2,9.6,9,7.5,15.3
		c-0.6,1.8-1.6,3.4-2.9,4.7c-2.8,2.9-6.6,4.7-10.6,5.1c-6.2,0.9-12.4,0.3-18.4-1.6c-2.4-0.9-3.8-1.9-3.4-4.8
		C189.2,238.1,189.2,235.9,189.1,233.7"/>
	<path id="Path_149" class="st0" d="M123.7,230.9c-0.2-2.1-0.5-4.2-0.9-6.3c-0.5-3.1-3.3-5.3-6.4-5.1c-3,0-5.6,2-6.3,5
		c-1,3.6-1,7.5,0,11.1c0.6,2.8,3.1,4.8,5.9,4.9c2.6,0.4,5.1-1,6-3.4C122.7,235,123.3,233,123.7,230.9 M133.7,230
		c0.9,8.7-5.4,16.4-14,17.4c-1.1,0.1-2.2,0.1-3.4,0c-8.8,0.7-16.6-6-17.2-14.8c-0.1-0.9-0.1-1.7,0-2.6c-0.8-8.8,5.7-16.6,14.6-17.3
		c1.1-0.1,2.1-0.1,3.2,0c8.6-0.7,16.2,5.7,16.9,14.3C133.8,228,133.8,229,133.7,230"/>
</g>
</svg>
