<svg viewBox="0 0 600 460" xmlns="http://www.w3.org/2000/svg" font-family="JetBrains Mono, monospace" font-size="9.5">
<rect width="100%" height="100%" fill="#14171b"/>
<text x="22" y="26" fill="#F32740" font-weight="700" letter-spacing="2">LWPE20 · 15W · 3000K · ENTRYWAY · 103° PRISMATIC</text>
<text x="22" y="42" fill="rgba(255,255,255,0.55)" font-size="8" letter-spacing="1.4">LUMINOUS INTENSITY DISTRIBUTION (cd/klm)</text>
<path d="M 215.0 64.0 A 85.0 85.0 0 0 0 385.0 64.0" fill="none" stroke="rgba(120,200,200,0.18)" stroke-width="0.7"/>
<path d="M 130.0 64.0 A 170.0 170.0 0 0 0 470.0 64.0" fill="none" stroke="rgba(120,200,200,0.18)" stroke-width="0.7"/>
<path d="M 45.0 64.0 A 255.0 255.0 0 0 0 555.0 64.0" fill="none" stroke="rgba(120,200,200,0.18)" stroke-width="0.7"/>
<path d="M -40.0 64.0 A 340.0 340.0 0 0 0 640.0 64.0" fill="none" stroke="rgba(120,200,200,0.18)" stroke-width="0.7"/>
<line x1="300" y1="64" x2="212.0" y2="392.4" stroke="rgba(120,200,200,0.1)" stroke-width="0.5"/>
<line x1="300" y1="64" x2="388.0" y2="392.4" stroke="rgba(120,200,200,0.1)" stroke-width="0.5"/>
<line x1="300" y1="64" x2="130.0" y2="358.4" stroke="rgba(120,200,200,0.14)" stroke-width="0.5"/>
<line x1="300" y1="64" x2="470.0" y2="358.4" stroke="rgba(120,200,200,0.14)" stroke-width="0.5"/>
<line x1="300" y1="64" x2="59.6" y2="304.4" stroke="rgba(120,200,200,0.1)" stroke-width="0.5"/>
<line x1="300" y1="64" x2="540.4" y2="304.4" stroke="rgba(120,200,200,0.1)" stroke-width="0.5"/>
<line x1="300" y1="64" x2="5.6" y2="234.0" stroke="rgba(120,200,200,0.14)" stroke-width="0.5"/>
<line x1="300" y1="64" x2="594.4" y2="234.0" stroke="rgba(120,200,200,0.14)" stroke-width="0.5"/>
<line x1="300" y1="64" x2="-28.4" y2="152.0" stroke="rgba(120,200,200,0.1)" stroke-width="0.5"/>
<line x1="300" y1="64" x2="628.4" y2="152.0" stroke="rgba(120,200,200,0.1)" stroke-width="0.5"/>
<line x1="300" y1="64" x2="-40.0" y2="64.0" stroke="rgba(120,200,200,0.14)" stroke-width="0.5"/>
<line x1="300" y1="64" x2="640.0" y2="64.0" stroke="rgba(120,200,200,0.14)" stroke-width="0.5"/>
<line x1="300" y1="64" x2="300" y2="412" stroke="rgba(120,200,200,0.14)" stroke-width="0.5"/>
<line x1="-40" y1="64" x2="640" y2="64" stroke="rgba(120,200,200,0.14)" stroke-width="0.5"/>
<text x="209.4" y="406.1" text-anchor="middle" fill="rgba(255,255,255,0.4)" font-size="9">15°</text>
<text x="390.6" y="406.1" text-anchor="middle" fill="rgba(255,255,255,0.4)" font-size="9">15°</text>
<text x="125.0" y="371.1" text-anchor="middle" fill="rgba(255,255,255,0.6)" font-size="9">30°</text>
<text x="475.0" y="371.1" text-anchor="middle" fill="rgba(255,255,255,0.6)" font-size="9">30°</text>
<text x="52.5" y="315.5" text-anchor="middle" fill="rgba(255,255,255,0.4)" font-size="9">45°</text>
<text x="547.5" y="315.5" text-anchor="middle" fill="rgba(255,255,255,0.4)" font-size="9">45°</text>
<text x="-3.1" y="243.0" text-anchor="middle" fill="rgba(255,255,255,0.6)" font-size="9">60°</text>
<text x="603.1" y="243.0" text-anchor="middle" fill="rgba(255,255,255,0.6)" font-size="9">60°</text>
<text x="-38.1" y="158.6" text-anchor="middle" fill="rgba(255,255,255,0.4)" font-size="9">75°</text>
<text x="638.1" y="158.6" text-anchor="middle" fill="rgba(255,255,255,0.4)" font-size="9">75°</text>
<text x="-50.0" y="68.0" text-anchor="middle" fill="rgba(255,255,255,0.6)" font-size="9">90°</text>
<text x="650.0" y="68.0" text-anchor="middle" fill="rgba(255,255,255,0.6)" font-size="9">90°</text>
<text x="300" y="422" text-anchor="middle" fill="rgba(255,255,255,0.6)" font-size="9">0°</text>
<path d="M 320.2 64.0 L 323.5 64.4 L 326.5 64.9 L 329.4 65.5 L 334.4 66.4 L 339.0 67.4 L 341.9 68.4 L 350.1 70.1 L 365.4 73.2 L 378.8 76.5 L 379.7 78.1 L 379.0 79.3 L 381.0 81.2 L 385.9 83.8 L 391.3 86.8 L 403.9 91.8 L 414.9 97.0 L 422.9 101.6 L 443.7 110.7 L 458.6 118.6 L 454.0 120.0 L 441.5 118.3 L 443.7 122.0 L 448.1 126.9 L 458.8 134.7 L 474.0 145.2 L 487.0 155.2 L 493.2 162.4 L 500.6 170.6 L 499.5 174.6 L 486.1 171.5 L 488.1 177.0 L 498.9 188.3 L 510.2 200.5 L 517.9 211.0 L 521.9 219.4 L 524.8 227.4 L 520.4 230.1 L 516.9 233.5 L 519.9 242.1 L 526.4 254.0 L 529.6 263.6 L 529.9 271.0 L 525.3 274.1 L 525.4 281.7 L 525.8 289.8 L 522.5 294.4 L 521.8 301.9 L 518.2 306.3 L 513.5 309.7 L 511.9 316.5 L 507.7 320.4 L 505.3 326.8 L 501.3 331.1 L 495.4 333.0 L 491.1 336.9 L 485.1 338.4 L 478.9 339.4 L 472.8 340.5 L 468.8 345.0 L 464.2 348.5 L 457.5 348.1 L 450.9 347.9 L 445.5 349.5 L 441.2 353.6 L 437.2 358.3 L 432.3 361.0 L 426.9 362.9 L 420.8 362.9 L 414.5 362.2 L 408.8 363.0 L 402.5 361.6 L 395.3 357.4 L 388.7 354.0 L 384.2 357.6 L 378.0 355.2 L 370.4 346.4 L 363.7 339.9 L 356.9 331.8 L 350.9 326.1 L 346.0 324.9 L 342.4 331.4 L 337.4 330.1 L 331.8 322.7 L 326.3 314.7 L 321.0 303.9 L 316.2 295.5 L 311.9 291.4 L 307.8 287.8 L 303.7 274.8 L 300.0 260.2 L 300.0 260.2 L 296.8 249.6 L 293.8 241.1 L 291.2 232.8 L 288.7 225.6 L 286.7 216.6 L 285.0 206.2 L 283.7 196.5 L 282.5 188.4 L 281.4 181.5 L 280.4 175.0 L 279.6 169.0 L 279.6 159.9 L 280.1 150.4 L 280.9 140.6 L 281.7 132.2 L 282.3 125.8 L 282.6 120.9 L 282.7 117.1 L 282.8 114.0 L 282.7 111.5 L 282.6 109.4 L 282.5 107.3 L 282.4 105.5 L 282.3 103.7 L 282.4 101.8 L 282.4 100.1 L 282.7 98.0 L 283.0 96.0 L 283.4 94.0 L 284.0 91.8 L 284.5 89.7 L 285.1 87.8 L 285.6 86.1 L 286.2 84.4 L 286.8 82.8 L 287.5 81.2 L 288.1 79.7 L 288.6 78.6 L 289.2 77.4 L 289.7 76.2 L 290.4 75.1 L 290.8 74.2 L 291.3 73.3 L 291.7 72.6 L 292.2 71.8 L 292.6 71.1 L 293.1 70.5 L 293.3 70.0 L 293.5 69.6 L 293.9 69.1 L 294.2 68.7 L 294.6 68.2 L 294.8 67.9 L 295.0 67.6 L 295.4 67.2 L 295.5 67.0 L 295.8 66.7 L 296.2 66.4 L 296.3 66.2 L 296.7 65.9 L 296.8 65.8 L 297.0 65.6 L 297.1 65.5 L 297.5 65.2 L 297.5 65.2 L 297.8 65.0 L 297.9 64.9 L 298.3 64.7 L 298.6 64.5 L 298.8 64.4 L 298.7 64.4 L 299.0 64.3 L 299.2 64.2 L 299.4 64.2 L 299.6 64.1 L 299.6 64.1 L 299.7 64.1 L 299.5 64.1 L 299.6 64.1 L 299.7 64.1 L 299.5 64.1 L 299.7 64.0 L 299.5 64.1 L 299.6 64.0 L 299.6 64.0 L 300.0 64.0 L 299.5 64.0 L 299.5 64.0 L 299.6 64.0 L 299.7 64.0 Z" fill="none" stroke="#F32740" stroke-width="2.0" stroke-linejoin="round" stroke-linecap="round"/>
<path d="M 305.7 64.0 L 306.0 64.1 L 308.0 64.3 L 309.7 64.5 L 312.5 64.9 L 316.1 65.4 L 318.0 65.9 L 322.5 66.8 L 326.5 67.7 L 329.4 68.7 L 334.5 70.1 L 336.4 71.1 L 343.8 73.3 L 345.5 74.5 L 348.7 76.1 L 355.1 78.8 L 362.3 81.9 L 362.9 83.2 L 370.3 86.8 L 371.4 88.6 L 377.2 92.1 L 380.1 94.7 L 384.8 98.3 L 379.9 97.9 L 391.3 104.7 L 393.2 107.5 L 390.7 108.2 L 398.3 114.1 L 397.0 115.6 L 406.1 122.8 L 400.8 122.2 L 409.5 129.8 L 411.9 133.9 L 412.7 137.2 L 416.3 142.5 L 417.8 146.5 L 419.7 151.0 L 419.1 153.7 L 424.6 161.4 L 424.6 164.9 L 420.5 165.1 L 412.2 161.6 L 418.4 170.6 L 409.7 166.3 L 402.9 163.4 L 418.5 182.5 L 420.6 188.9 L 409.4 181.3 L 412.0 188.4 L 409.0 189.4 L 405.1 189.3 L 398.0 185.0 L 399.7 191.6 L 397.8 193.7 L 396.8 197.2 L 396.2 201.4 L 393.3 202.3 L 391.0 204.1 L 388.9 206.2 L 387.4 209.5 L 383.6 208.8 L 381.2 210.5 L 379.4 213.3 L 375.5 212.2 L 373.6 215.0 L 370.6 215.4 L 367.9 216.5 L 365.5 218.3 L 362.8 219.5 L 359.9 220.0 L 357.3 221.4 L 354.4 222.1 L 352.2 224.7 L 350.1 227.8 L 347.5 229.8 L 345.2 232.6 L 342.6 235.0 L 340.2 238.0 L 337.6 240.8 L 334.9 243.4 L 332.1 246.2 L 329.2 248.6 L 326.3 250.8 L 323.2 253.0 L 320.1 254.8 L 316.8 256.5 L 313.6 257.8 L 310.2 258.9 L 306.8 259.8 L 303.4 260.2 L 300.0 260.2 L 300.0 260.2 L 296.6 260.2 L 293.2 259.8 L 289.8 258.9 L 286.4 257.8 L 283.2 256.5 L 279.9 254.8 L 276.8 253.0 L 273.7 250.8 L 270.8 248.6 L 267.9 246.2 L 265.1 243.4 L 262.4 240.8 L 259.8 238.0 L 257.4 235.0 L 254.8 232.6 L 252.5 229.8 L 249.9 227.8 L 247.8 224.7 L 245.6 222.1 L 242.7 221.4 L 240.1 220.0 L 237.2 219.5 L 234.5 218.3 L 232.1 216.5 L 229.4 215.4 L 226.4 215.0 L 224.5 212.2 L 220.6 213.3 L 218.8 210.5 L 216.4 208.8 L 212.6 209.5 L 211.1 206.2 L 209.0 204.1 L 206.7 202.3 L 203.8 201.4 L 203.2 197.2 L 202.2 193.7 L 200.3 191.6 L 202.0 185.0 L 194.9 189.3 L 191.0 189.4 L 188.0 188.4 L 190.6 181.3 L 179.4 188.9 L 181.5 182.5 L 197.1 163.4 L 190.3 166.3 L 181.6 170.6 L 187.8 161.6 L 179.5 165.1 L 175.4 164.9 L 175.4 161.4 L 180.9 153.7 L 180.3 151.0 L 182.2 146.5 L 183.7 142.5 L 187.3 137.2 L 188.1 133.9 L 190.5 129.8 L 199.2 122.2 L 193.9 122.8 L 203.0 115.6 L 201.7 114.1 L 209.3 108.2 L 206.8 107.5 L 208.7 104.7 L 220.1 97.9 L 215.2 98.3 L 219.9 94.7 L 222.8 92.1 L 228.6 88.6 L 229.7 86.8 L 237.1 83.2 L 237.7 81.9 L 244.9 78.8 L 251.3 76.1 L 254.5 74.5 L 256.2 73.3 L 263.6 71.1 L 265.5 70.1 L 270.6 68.7 L 273.5 67.7 L 277.5 66.8 L 282.0 65.9 L 283.9 65.4 L 287.5 64.9 L 290.3 64.5 L 292.0 64.3 L 294.0 64.1 L 294.3 64.0 Z" fill="none" stroke="#3FA9F5" stroke-width="1.7" stroke-linejoin="round" stroke-linecap="round"/>
<text x="335" y="145.0" fill="#F32740" font-size="9.5" font-weight="700">125</text>
<text x="335" y="230.0" fill="#F32740" font-size="9.5" font-weight="700">250</text>
<text x="335" y="315.0" fill="#F32740" font-size="9.5" font-weight="700">375</text>
<text x="335" y="400.0" fill="#F32740" font-size="9.5" font-weight="700">500</text>
<rect x="274" y="58" width="52" height="11" rx="1.5" fill="#fafbfc" stroke="rgba(255,255,255,0.4)" stroke-width="0.5"/>
<line x1="272" y1="69.8" x2="328" y2="69.8" stroke="#F32740" stroke-width="0.7" stroke-dasharray="1.5 2"/>
<text x="300" y="66" text-anchor="middle" fill="#F32740" font-size="8" font-weight="700" letter-spacing="0.5">cd/klm SCALE</text>
<g transform="translate(22, 434)">
<text x="0" y="-8" fill="rgba(255,255,255,0.55)" font-size="8" letter-spacing="1.4">cd/klm</text>
<line x1="0" y1="6" x2="22" y2="6" stroke="#F32740" stroke-width="2.2"/>
<text x="28" y="9" fill="rgba(255,255,255,0.7)" font-size="9.5">C0 – C180</text>
<line x1="120" y1="6" x2="142" y2="6" stroke="#3FA9F5" stroke-width="1.7"/>
<text x="148" y="9" fill="rgba(255,255,255,0.7)" font-size="9.5">C90 – C270</text>
</g>
<text x="578" y="402" fill="rgba(255,255,255,0.45)" font-size="9" text-anchor="end">η = 123 lm/W</text>
<text x="578" y="418" fill="rgba(255,255,255,0.45)" font-size="9" text-anchor="end">1,882 lm · 15.3W</text>
<text x="578" y="434" fill="rgba(255,255,255,0.55)" font-size="8" letter-spacing="1.4" text-anchor="end">PEAK INTENSITY</text>
<text x="578" y="451" fill="#fff" font-weight="700" font-size="14" text-anchor="end">926 cd</text>
</svg>