<svg viewBox="0 0 600 460" xmlns="http://www.w3.org/2000/svg" font-family="JetBrains Mono, monospace" font-size="9.5">
<rect width="100%" height="100%" fill="#14171b"/>
<text x="22" y="26" fill="#F32740" font-weight="700" letter-spacing="2">LWPE20 · 20W · 3000K · ENTRYWAY · 103° PRISMATIC</text>
<text x="22" y="42" fill="rgba(255,255,255,0.55)" font-size="8" letter-spacing="1.4">LUMINOUS INTENSITY DISTRIBUTION (cd/klm)</text>
<path d="M 215.0 64.0 A 85.0 85.0 0 0 0 385.0 64.0" fill="none" stroke="rgba(120,200,200,0.18)" stroke-width="0.7"/>
<path d="M 130.0 64.0 A 170.0 170.0 0 0 0 470.0 64.0" fill="none" stroke="rgba(120,200,200,0.18)" stroke-width="0.7"/>
<path d="M 45.0 64.0 A 255.0 255.0 0 0 0 555.0 64.0" fill="none" stroke="rgba(120,200,200,0.18)" stroke-width="0.7"/>
<path d="M -40.0 64.0 A 340.0 340.0 0 0 0 640.0 64.0" fill="none" stroke="rgba(120,200,200,0.18)" stroke-width="0.7"/>
<line x1="300" y1="64" x2="212.0" y2="392.4" stroke="rgba(120,200,200,0.1)" stroke-width="0.5"/>
<line x1="300" y1="64" x2="388.0" y2="392.4" stroke="rgba(120,200,200,0.1)" stroke-width="0.5"/>
<line x1="300" y1="64" x2="130.0" y2="358.4" stroke="rgba(120,200,200,0.14)" stroke-width="0.5"/>
<line x1="300" y1="64" x2="470.0" y2="358.4" stroke="rgba(120,200,200,0.14)" stroke-width="0.5"/>
<line x1="300" y1="64" x2="59.6" y2="304.4" stroke="rgba(120,200,200,0.1)" stroke-width="0.5"/>
<line x1="300" y1="64" x2="540.4" y2="304.4" stroke="rgba(120,200,200,0.1)" stroke-width="0.5"/>
<line x1="300" y1="64" x2="5.6" y2="234.0" stroke="rgba(120,200,200,0.14)" stroke-width="0.5"/>
<line x1="300" y1="64" x2="594.4" y2="234.0" stroke="rgba(120,200,200,0.14)" stroke-width="0.5"/>
<line x1="300" y1="64" x2="-28.4" y2="152.0" stroke="rgba(120,200,200,0.1)" stroke-width="0.5"/>
<line x1="300" y1="64" x2="628.4" y2="152.0" stroke="rgba(120,200,200,0.1)" stroke-width="0.5"/>
<line x1="300" y1="64" x2="-40.0" y2="64.0" stroke="rgba(120,200,200,0.14)" stroke-width="0.5"/>
<line x1="300" y1="64" x2="640.0" y2="64.0" stroke="rgba(120,200,200,0.14)" stroke-width="0.5"/>
<line x1="300" y1="64" x2="300" y2="412" stroke="rgba(120,200,200,0.14)" stroke-width="0.5"/>
<line x1="-40" y1="64" x2="640" y2="64" stroke="rgba(120,200,200,0.14)" stroke-width="0.5"/>
<text x="209.4" y="406.1" text-anchor="middle" fill="rgba(255,255,255,0.4)" font-size="9">15°</text>
<text x="390.6" y="406.1" text-anchor="middle" fill="rgba(255,255,255,0.4)" font-size="9">15°</text>
<text x="125.0" y="371.1" text-anchor="middle" fill="rgba(255,255,255,0.6)" font-size="9">30°</text>
<text x="475.0" y="371.1" text-anchor="middle" fill="rgba(255,255,255,0.6)" font-size="9">30°</text>
<text x="52.5" y="315.5" text-anchor="middle" fill="rgba(255,255,255,0.4)" font-size="9">45°</text>
<text x="547.5" y="315.5" text-anchor="middle" fill="rgba(255,255,255,0.4)" font-size="9">45°</text>
<text x="-3.1" y="243.0" text-anchor="middle" fill="rgba(255,255,255,0.6)" font-size="9">60°</text>
<text x="603.1" y="243.0" text-anchor="middle" fill="rgba(255,255,255,0.6)" font-size="9">60°</text>
<text x="-38.1" y="158.6" text-anchor="middle" fill="rgba(255,255,255,0.4)" font-size="9">75°</text>
<text x="638.1" y="158.6" text-anchor="middle" fill="rgba(255,255,255,0.4)" font-size="9">75°</text>
<text x="-50.0" y="68.0" text-anchor="middle" fill="rgba(255,255,255,0.6)" font-size="9">90°</text>
<text x="650.0" y="68.0" text-anchor="middle" fill="rgba(255,255,255,0.6)" font-size="9">90°</text>
<text x="300" y="422" text-anchor="middle" fill="rgba(255,255,255,0.6)" font-size="9">0°</text>
<path d="M 323.7 64.0 L 326.8 64.5 L 329.8 65.0 L 334.8 65.8 L 339.4 66.8 L 342.6 67.7 L 348.7 69.1 L 366.0 72.1 L 380.2 75.3 L 385.4 77.5 L 385.1 79.0 L 388.1 81.1 L 391.7 83.5 L 394.2 85.7 L 402.4 89.5 L 411.6 93.9 L 418.2 97.9 L 440.8 107.1 L 463.6 117.2 L 465.4 121.0 L 453.2 119.8 L 452.4 122.5 L 453.9 126.2 L 458.6 131.3 L 467.4 138.6 L 484.1 149.9 L 496.0 159.6 L 511.8 171.9 L 513.6 177.6 L 501.5 175.7 L 498.8 178.8 L 504.9 187.1 L 510.3 195.4 L 518.2 205.7 L 529.9 219.1 L 537.8 230.5 L 535.6 235.2 L 527.1 235.2 L 530.2 243.8 L 533.2 252.9 L 535.7 261.8 L 539.0 271.8 L 536.6 277.0 L 534.6 282.8 L 532.7 288.7 L 529.3 293.3 L 529.2 301.4 L 525.0 305.3 L 519.9 308.2 L 515.4 311.8 L 512.9 317.7 L 512.1 325.9 L 508.7 331.2 L 502.5 332.8 L 496.2 334.0 L 490.1 335.4 L 485.2 338.6 L 481.9 344.1 L 476.8 346.9 L 469.7 346.4 L 462.4 345.3 L 456.6 346.5 L 452.4 350.5 L 449.6 357.7 L 445.3 361.9 L 439.6 363.5 L 433.9 364.7 L 428.9 367.6 L 423.5 369.8 L 417.0 368.8 L 408.2 361.2 L 399.3 352.3 L 394.3 354.1 L 390.4 359.6 L 383.1 353.8 L 375.6 346.2 L 369.0 340.6 L 362.1 333.2 L 356.1 328.1 L 352.0 331.8 L 347.4 332.8 L 341.4 325.4 L 335.9 319.2 L 330.3 311.0 L 324.8 299.6 L 319.9 290.9 L 315.7 288.2 L 311.5 284.2 L 307.2 269.8 L 303.3 255.1 L 300.0 245.4 L 300.0 245.4 L 297.0 237.6 L 294.3 227.6 L 291.8 220.2 L 289.8 210.1 L 288.2 198.9 L 286.8 189.8 L 285.6 181.4 L 284.4 174.8 L 283.5 168.2 L 282.6 162.5 L 282.4 154.7 L 282.7 145.4 L 283.2 137.0 L 284.0 128.2 L 284.3 122.5 L 284.6 117.7 L 284.7 114.2 L 284.5 111.6 L 284.4 109.4 L 284.2 107.4 L 284.0 105.7 L 283.8 104.2 L 283.6 102.6 L 283.6 100.9 L 283.5 99.3 L 283.7 97.5 L 283.9 95.5 L 284.3 93.4 L 284.7 91.5 L 285.3 89.5 L 285.9 87.5 L 286.4 85.7 L 287.0 84.1 L 287.6 82.4 L 288.1 81.0 L 288.8 79.4 L 289.4 78.1 L 289.9 76.9 L 290.5 75.7 L 291.0 74.7 L 291.6 73.7 L 292.0 72.9 L 292.4 72.1 L 292.8 71.5 L 293.2 70.8 L 293.5 70.2 L 294.0 69.6 L 294.2 69.3 L 294.5 68.8 L 294.8 68.3 L 295.1 68.0 L 295.3 67.7 L 295.6 67.3 L 295.7 67.1 L 296.0 66.8 L 296.4 66.5 L 296.4 66.3 L 296.7 66.1 L 297.0 65.8 L 297.1 65.7 L 297.2 65.6 L 297.5 65.3 L 297.8 65.1 L 298.0 65.0 L 298.1 64.9 L 298.2 64.8 L 298.3 64.7 L 298.7 64.5 L 298.8 64.5 L 299.0 64.4 L 299.2 64.3 L 299.5 64.2 L 299.5 64.2 L 299.7 64.1 L 300.0 64.0 L 300.0 64.0 L 299.8 64.1 L 299.7 64.1 L 299.7 64.1 L 299.7 64.1 L 299.8 64.0 L 299.6 64.1 L 299.8 64.0 L 299.6 64.0 L 299.8 64.0 L 299.7 64.0 L 299.7 64.0 L 299.7 64.0 L 299.7 64.0 L 299.7 64.0 Z" fill="none" stroke="#F32740" stroke-width="2.0" stroke-linejoin="round" stroke-linecap="round"/>
<path d="M 305.4 64.0 L 305.6 64.1 L 307.5 64.3 L 308.7 64.5 L 311.2 64.8 L 314.7 65.3 L 317.2 65.8 L 321.7 66.7 L 324.0 67.4 L 328.0 68.4 L 331.8 69.6 L 334.8 70.8 L 339.4 72.4 L 342.0 73.7 L 346.2 75.5 L 349.5 77.3 L 355.7 80.0 L 358.9 82.0 L 362.7 84.4 L 366.7 87.0 L 369.9 89.4 L 373.9 92.4 L 373.8 93.8 L 377.5 96.9 L 383.7 101.3 L 382.5 102.5 L 386.3 106.1 L 388.0 108.8 L 388.4 111.0 L 391.3 114.6 L 392.8 117.6 L 399.3 123.7 L 395.4 123.6 L 398.3 127.8 L 403.9 134.1 L 404.3 137.1 L 407.3 141.9 L 406.5 144.3 L 406.7 147.4 L 402.6 147.1 L 409.2 155.6 L 406.5 156.5 L 407.2 160.5 L 405.7 162.6 L 405.3 165.7 L 405.2 169.2 L 402.9 170.5 L 402.2 173.6 L 399.7 174.7 L 399.9 178.9 L 392.2 173.9 L 390.7 176.0 L 392.1 181.9 L 390.6 184.3 L 389.6 187.3 L 385.5 186.1 L 383.6 188.0 L 384.2 193.6 L 382.6 196.2 L 380.6 198.1 L 377.3 197.9 L 374.7 198.8 L 372.6 200.6 L 370.2 201.8 L 367.7 202.8 L 365.6 204.7 L 363.2 205.9 L 360.3 206.1 L 357.9 207.3 L 355.7 209.2 L 353.5 211.1 L 350.9 211.7 L 348.6 213.7 L 346.6 216.4 L 344.2 218.2 L 341.9 220.4 L 339.6 222.9 L 337.2 225.3 L 334.8 227.6 L 332.3 230.0 L 329.7 232.6 L 327.0 234.6 L 324.3 236.8 L 321.4 238.5 L 318.6 240.8 L 315.6 242.2 L 312.5 243.4 L 309.5 244.6 L 306.3 245.3 L 303.2 245.7 L 300.0 245.4 L 300.0 245.4 L 296.8 245.7 L 293.7 245.3 L 290.5 244.6 L 287.5 243.4 L 284.4 242.2 L 281.4 240.8 L 278.6 238.5 L 275.7 236.8 L 273.0 234.6 L 270.3 232.6 L 267.7 230.0 L 265.2 227.6 L 262.8 225.3 L 260.4 222.9 L 258.1 220.4 L 255.8 218.2 L 253.4 216.4 L 251.4 213.7 L 249.1 211.7 L 246.5 211.1 L 244.3 209.2 L 242.1 207.3 L 239.7 206.1 L 236.8 205.9 L 234.4 204.7 L 232.3 202.8 L 229.8 201.8 L 227.4 200.6 L 225.3 198.8 L 222.7 197.9 L 219.4 198.1 L 217.4 196.2 L 215.8 193.6 L 216.4 188.0 L 214.5 186.1 L 210.4 187.3 L 209.4 184.3 L 207.9 181.9 L 209.3 176.0 L 207.8 173.9 L 200.1 178.9 L 200.3 174.7 L 197.8 173.6 L 197.1 170.5 L 194.8 169.2 L 194.7 165.7 L 194.3 162.6 L 192.8 160.5 L 193.5 156.5 L 190.8 155.6 L 197.4 147.1 L 193.3 147.4 L 193.5 144.3 L 192.7 141.9 L 195.7 137.1 L 196.1 134.1 L 201.7 127.8 L 204.6 123.6 L 200.7 123.7 L 207.2 117.6 L 208.7 114.6 L 211.6 111.0 L 212.0 108.8 L 213.7 106.1 L 217.5 102.5 L 216.3 101.3 L 222.5 96.9 L 226.2 93.8 L 226.1 92.4 L 230.1 89.4 L 233.3 87.0 L 237.3 84.4 L 241.1 82.0 L 244.3 80.0 L 250.5 77.3 L 253.8 75.5 L 258.0 73.7 L 260.6 72.4 L 265.2 70.8 L 268.2 69.6 L 272.0 68.4 L 276.0 67.4 L 278.3 66.7 L 282.8 65.8 L 285.3 65.3 L 288.8 64.8 L 291.3 64.5 L 292.5 64.3 L 294.4 64.1 L 294.6 64.0 Z" fill="none" stroke="#3FA9F5" stroke-width="1.7" stroke-linejoin="round" stroke-linecap="round"/>
<text x="335" y="145.0" fill="#F32740" font-size="9.5" font-weight="700">125</text>
<text x="335" y="230.0" fill="#F32740" font-size="9.5" font-weight="700">250</text>
<text x="335" y="315.0" fill="#F32740" font-size="9.5" font-weight="700">375</text>
<text x="335" y="400.0" fill="#F32740" font-size="9.5" font-weight="700">500</text>
<rect x="274" y="58" width="52" height="11" rx="1.5" fill="#fafbfc" stroke="rgba(255,255,255,0.4)" stroke-width="0.5"/>
<line x1="272" y1="69.8" x2="328" y2="69.8" stroke="#F32740" stroke-width="0.7" stroke-dasharray="1.5 2"/>
<text x="300" y="66" text-anchor="middle" fill="#F32740" font-size="8" font-weight="700" letter-spacing="0.5">cd/klm SCALE</text>
<g transform="translate(22, 434)">
<text x="0" y="-8" fill="rgba(255,255,255,0.55)" font-size="8" letter-spacing="1.4">cd/klm</text>
<line x1="0" y1="6" x2="22" y2="6" stroke="#F32740" stroke-width="2.2"/>
<text x="28" y="9" fill="rgba(255,255,255,0.7)" font-size="9.5">C0 – C180</text>
<line x1="120" y1="6" x2="142" y2="6" stroke="#3FA9F5" stroke-width="1.7"/>
<text x="148" y="9" fill="rgba(255,255,255,0.7)" font-size="9.5">C90 – C270</text>
</g>
<text x="578" y="402" fill="rgba(255,255,255,0.45)" font-size="9" text-anchor="end">η = 124 lm/W</text>
<text x="578" y="418" fill="rgba(255,255,255,0.45)" font-size="9" text-anchor="end">2,430 lm · 19.6W</text>
<text x="578" y="434" fill="rgba(255,255,255,0.55)" font-size="8" letter-spacing="1.4" text-anchor="end">PEAK INTENSITY</text>
<text x="578" y="451" fill="#fff" font-weight="700" font-size="14" text-anchor="end">1,212 cd</text>
</svg>