<svg viewBox="0 0 600 460" xmlns="http://www.w3.org/2000/svg" font-family="JetBrains Mono, monospace" font-size="9.5">
<rect width="100%" height="100%" fill="#14171b"/>
<text x="22" y="26" fill="#F32740" font-weight="700" letter-spacing="2">LSPL800 · 20° OPTIC</text>
<text x="22" y="42" fill="rgba(255,255,255,0.55)" font-size="8" letter-spacing="1.4">LUMINOUS INTENSITY DISTRIBUTION (cd/klm)</text>
<path d="M 232.0 64.0 A 68.0 68.0 0 0 0 368.0 64.0" fill="none" stroke="rgba(120,200,200,0.18)" stroke-width="0.7"/>
<path d="M 164.0 64.0 A 136.0 136.0 0 0 0 436.0 64.0" fill="none" stroke="rgba(120,200,200,0.18)" stroke-width="0.7"/>
<path d="M 96.0 64.0 A 204.0 204.0 0 0 0 504.0 64.0" fill="none" stroke="rgba(120,200,200,0.18)" stroke-width="0.7"/>
<path d="M 28.0 64.0 A 272.0 272.0 0 0 0 572.0 64.0" fill="none" stroke="rgba(120,200,200,0.18)" stroke-width="0.7"/>
<path d="M -40.0 64.0 A 340.0 340.0 0 0 0 640.0 64.0" fill="none" stroke="rgba(120,200,200,0.18)" stroke-width="0.7"/>
<line x1="300.0" y1="64" x2="388.0" y2="392.4" stroke="rgba(120,200,200,0.10)" stroke-width="0.5"/>
<line x1="300.0" y1="64" x2="212.0" y2="392.4" stroke="rgba(120,200,200,0.10)" stroke-width="0.5"/>
<line x1="300.0" y1="64" x2="470.0" y2="358.4" stroke="rgba(120,200,200,0.10)" stroke-width="0.5"/>
<line x1="300.0" y1="64" x2="130.0" y2="358.4" stroke="rgba(120,200,200,0.10)" stroke-width="0.5"/>
<line x1="300.0" y1="64" x2="540.4" y2="304.4" stroke="rgba(120,200,200,0.10)" stroke-width="0.5"/>
<line x1="300.0" y1="64" x2="59.6" y2="304.4" stroke="rgba(120,200,200,0.10)" stroke-width="0.5"/>
<line x1="300.0" y1="64" x2="594.4" y2="234.0" stroke="rgba(120,200,200,0.10)" stroke-width="0.5"/>
<line x1="300.0" y1="64" x2="5.6" y2="234.0" stroke="rgba(120,200,200,0.10)" stroke-width="0.5"/>
<line x1="300.0" y1="64" x2="628.4" y2="152.0" stroke="rgba(120,200,200,0.10)" stroke-width="0.5"/>
<line x1="300.0" y1="64" x2="-28.4" y2="152.0" stroke="rgba(120,200,200,0.10)" stroke-width="0.5"/>
<line x1="300.0" y1="64" x2="640.0" y2="64.0" stroke="rgba(120,200,200,0.10)" stroke-width="0.5"/>
<line x1="300.0" y1="64" x2="-40.0" y2="64.0" stroke="rgba(120,200,200,0.10)" stroke-width="0.5"/>
<line x1="300.0" y1="64" x2="300.0" y2="404" stroke="rgba(120,200,200,0.14)" stroke-width="0.5"/>
<line x1="-40.0" y1="64" x2="640.0" y2="64" stroke="rgba(120,200,200,0.14)" stroke-width="0.5"/>
<text x="391.6" y="408.9" text-anchor="middle" fill="rgba(255,255,255,0.4)" font-size="9">15°</text>
<text x="208.4" y="408.9" text-anchor="middle" fill="rgba(255,255,255,0.4)" font-size="9">15°</text>
<text x="477.0" y="373.6" text-anchor="middle" fill="rgba(255,255,255,0.6)" font-size="9">30°</text>
<text x="123.0" y="373.6" text-anchor="middle" fill="rgba(255,255,255,0.6)" font-size="9">30°</text>
<text x="550.3" y="317.3" text-anchor="middle" fill="rgba(255,255,255,0.4)" font-size="9">45°</text>
<text x="49.7" y="317.3" text-anchor="middle" fill="rgba(255,255,255,0.4)" font-size="9">45°</text>
<text x="606.6" y="244.0" text-anchor="middle" fill="rgba(255,255,255,0.6)" font-size="9">60°</text>
<text x="-6.6" y="244.0" text-anchor="middle" fill="rgba(255,255,255,0.6)" font-size="9">60°</text>
<text x="641.9" y="158.6" text-anchor="middle" fill="rgba(255,255,255,0.4)" font-size="9">75°</text>
<text x="-41.9" y="158.6" text-anchor="middle" fill="rgba(255,255,255,0.4)" font-size="9">75°</text>
<text x="654.0" y="67.0" text-anchor="middle" fill="rgba(255,255,255,0.6)" font-size="9">90°</text>
<text x="-54.0" y="67.0" text-anchor="middle" fill="rgba(255,255,255,0.6)" font-size="9">90°</text>
<text x="300.0" y="422" text-anchor="middle" fill="rgba(255,255,255,0.6)" font-size="9">0°</text>
<path d="M 300.0 64.0 L 300.0 64.0 L 300.0 64.0 L 300.0 64.0 L 300.0 64.0 L 300.0 64.0 L 300.0 64.0 L 300.0 64.0 L 300.0 64.0 L 300.0 64.0 L 300.0 64.0 L 300.0 64.0 L 300.0 64.0 L 300.0 64.0 L 300.0 64.0 L 300.0 64.0 L 300.0 64.0 L 300.0 64.0 L 300.0 64.0 L 300.0 64.0 L 300.0 64.0 L 300.0 64.0 L 300.0 64.0 L 300.0 64.0 L 300.0 64.0 L 300.0 64.0 L 300.0 64.0 L 300.0 64.0 L 300.0 64.0 L 300.0 64.0 L 300.0 64.0 L 300.0 64.0 L 300.0 64.0 L 300.0 64.0 L 300.0 64.0 L 300.0 64.0 L 300.0 64.0 L 300.0 64.0 L 300.0 64.0 L 300.0 64.0 L 300.0 64.0 L 300.0 64.0 L 300.0 64.0 L 300.0 64.0 L 300.0 64.0 L 300.0 64.0 L 300.0 64.0 L 300.0 64.0 L 300.0 64.0 L 300.0 64.0 L 300.0 64.0 L 297.9 66.6 L 295.8 69.3 L 293.8 72.3 L 291.7 75.4 L 289.6 78.9 L 289.2 79.9 L 288.8 81.2 L 288.3 82.7 L 287.7 84.4 L 287.1 86.3 L 286.6 88.2 L 285.9 90.4 L 285.3 92.8 L 284.7 95.3 L 284.1 98.1 L 283.4 101.4 L 282.6 104.9 L 281.9 108.7 L 281.1 113.2 L 280.1 118.6 L 279.0 125.0 L 277.8 132.5 L 276.3 141.6 L 274.8 152.0 L 273.3 163.8 L 271.8 177.0 L 270.5 191.8 L 269.5 207.5 L 268.8 224.4 L 268.6 241.8 L 269.1 259.0 L 270.3 275.4 L 272.2 290.3 L 274.8 303.4 L 278.1 314.1 L 281.9 322.3 L 286.2 328.2 L 290.6 332.0 L 295.3 333.8 L 300.0 334.8 L 304.7 333.8 L 309.4 332.0 L 313.8 328.2 L 318.1 322.3 L 321.9 314.1 L 325.2 303.4 L 327.8 290.3 L 329.7 275.4 L 330.9 259.0 L 331.4 241.8 L 331.2 224.4 L 330.5 207.5 L 329.5 191.8 L 328.2 177.0 L 326.7 163.8 L 325.2 152.0 L 323.7 141.6 L 322.2 132.5 L 321.0 125.0 L 319.9 118.6 L 318.9 113.2 L 318.1 108.7 L 317.4 104.9 L 316.6 101.4 L 315.9 98.1 L 315.3 95.3 L 314.7 92.8 L 314.1 90.4 L 313.4 88.2 L 312.9 86.3 L 312.3 84.4 L 311.7 82.7 L 311.2 81.2 L 310.8 79.9 L 310.4 78.9 L 308.3 75.4 L 306.2 72.3 L 304.2 69.3 L 302.1 66.6 L 300.0 64.0 L 300.0 64.0 L 300.0 64.0 L 300.0 64.0 L 300.0 64.0 L 300.0 64.0 L 300.0 64.0 L 300.0 64.0 L 300.0 64.0 L 300.0 64.0 L 300.0 64.0 L 300.0 64.0 L 300.0 64.0 L 300.0 64.0 L 300.0 64.0 L 300.0 64.0 L 300.0 64.0 L 300.0 64.0 L 300.0 64.0 L 300.0 64.0 L 300.0 64.0 L 300.0 64.0 L 300.0 64.0 L 300.0 64.0 L 300.0 64.0 L 300.0 64.0 L 300.0 64.0 L 300.0 64.0 L 300.0 64.0 L 300.0 64.0 L 300.0 64.0 L 300.0 64.0 L 300.0 64.0 L 300.0 64.0 L 300.0 64.0 L 300.0 64.0 L 300.0 64.0 L 300.0 64.0 L 300.0 64.0 L 300.0 64.0 L 300.0 64.0 L 300.0 64.0 L 300.0 64.0 L 300.0 64.0 L 300.0 64.0 L 300.0 64.0 L 300.0 64.0 L 300.0 64.0 L 300.0 64.0 L 300.0 64.0 L 300.0 64.0" fill="none" stroke="#3FA9F5" stroke-width="1.7" stroke-linejoin="round" stroke-linecap="round"/>
<path d="M 297.7 64.0 L 297.7 64.0 L 297.7 64.1 L 297.6 64.1 L 297.6 64.2 L 297.5 64.2 L 297.5 64.3 L 297.4 64.3 L 297.4 64.4 L 297.3 64.4 L 297.3 64.5 L 297.3 64.5 L 297.4 64.5 L 297.5 64.6 L 297.5 64.6 L 297.4 64.7 L 297.2 64.8 L 297.0 64.9 L 296.9 65.0 L 296.9 65.1 L 296.9 65.1 L 296.8 65.2 L 296.7 65.4 L 296.4 65.5 L 296.1 65.7 L 295.8 66.0 L 295.6 66.1 L 295.5 66.3 L 295.5 66.4 L 295.9 66.3 L 295.9 66.4 L 295.8 66.5 L 295.8 66.6 L 295.5 66.9 L 295.3 67.2 L 295.3 67.3 L 295.1 67.5 L 294.9 67.8 L 294.7 68.2 L 294.5 68.5 L 294.0 69.0 L 293.7 69.5 L 293.4 69.9 L 293.2 70.4 L 292.7 71.1 L 292.4 71.6 L 292.2 72.1 L 292.0 72.5 L 291.8 73.1 L 291.6 73.7 L 291.2 74.4 L 291.0 75.1 L 290.8 75.8 L 290.5 76.6 L 290.3 77.4 L 290.0 78.2 L 289.8 79.1 L 289.5 80.2 L 289.1 81.4 L 288.7 82.8 L 288.2 84.4 L 287.7 86.3 L 287.1 88.3 L 286.5 90.4 L 285.9 92.9 L 285.5 95.2 L 285.0 97.7 L 284.5 100.5 L 284.0 103.6 L 283.5 107.0 L 282.7 111.4 L 282.0 116.3 L 281.2 121.7 L 280.3 128.3 L 279.2 136.7 L 278.0 146.2 L 276.8 157.0 L 275.5 170.2 L 274.3 185.1 L 273.5 200.4 L 273.0 217.1 L 273.0 234.6 L 273.6 251.7 L 274.9 268.1 L 276.9 284.0 L 279.5 298.1 L 282.8 310.2 L 286.6 320.2 L 290.8 327.5 L 295.3 331.2 L 300.0 333.7 L 304.7 331.2 L 309.2 327.5 L 313.4 320.2 L 317.2 310.2 L 320.5 298.1 L 323.1 284.0 L 325.1 268.1 L 326.4 251.7 L 327.0 234.6 L 327.0 217.1 L 326.5 200.4 L 325.7 185.1 L 324.5 170.2 L 323.2 157.0 L 322.0 146.2 L 320.8 136.7 L 319.7 128.3 L 318.8 121.7 L 318.0 116.3 L 317.3 111.4 L 316.5 107.0 L 316.0 103.6 L 315.5 100.5 L 315.0 97.7 L 314.5 95.2 L 314.1 92.9 L 313.5 90.4 L 312.9 88.3 L 312.3 86.3 L 311.8 84.4 L 311.3 82.8 L 310.9 81.4 L 310.5 80.2 L 310.2 79.1 L 310.0 78.2 L 309.7 77.4 L 309.5 76.6 L 309.2 75.8 L 309.0 75.1 L 308.8 74.4 L 308.4 73.7 L 308.2 73.1 L 308.0 72.5 L 307.8 72.1 L 307.6 71.6 L 307.3 71.1 L 306.8 70.4 L 306.6 69.9 L 306.3 69.5 L 306.0 69.0 L 305.5 68.5 L 305.3 68.2 L 305.1 67.8 L 304.9 67.5 L 304.7 67.3 L 304.7 67.2 L 304.5 66.9 L 304.2 66.6 L 304.2 66.5 L 304.1 66.4 L 304.1 66.3 L 304.5 66.4 L 304.5 66.3 L 304.4 66.1 L 304.2 66.0 L 303.9 65.7 L 303.6 65.5 L 303.3 65.4 L 303.2 65.2 L 303.1 65.1 L 303.1 65.1 L 303.1 65.0 L 303.0 64.9 L 302.8 64.8 L 302.6 64.7 L 302.5 64.6 L 302.5 64.6 L 302.6 64.5 L 302.7 64.5 L 302.7 64.5 L 302.7 64.4 L 302.6 64.4 L 302.6 64.3 L 302.5 64.3 L 302.5 64.2 L 302.4 64.2 L 302.4 64.1 L 302.3 64.1 L 302.3 64.0 L 302.3 64.0" fill="none" stroke="#F32740" stroke-width="2.0" stroke-linejoin="round" stroke-linecap="round"/>
<text x="326" y="130" fill="#F32740" font-size="9.5" font-weight="700">1163</text>
<text x="332" y="198" fill="#F32740" font-size="9.5" font-weight="700">2326</text>
<text x="331" y="267" fill="#F32740" font-size="9.5" font-weight="700">3489</text>
<rect x="274.0" y="58" width="52" height="11" rx="1.5" fill="#fafbfc" stroke="rgba(255,255,255,0.4)" stroke-width="0.5"/>
<line x1="272.0" y1="69.8" x2="328.0" y2="69.8" stroke="#F32740" stroke-width="0.7" stroke-dasharray="1.5 2"/>
<g transform="translate(22, 434)">
<text x="0" y="-8" fill="rgba(255,255,255,0.55)" font-size="8" letter-spacing="1.4">cd/klm</text>
<line x1="0" y1="6" x2="22" y2="6" stroke="#F32740" stroke-width="2.2"/>
<text x="28" y="9" fill="rgba(255,255,255,0.7)" font-size="9.5">C0 – C180</text>
<line x1="120" y1="6" x2="142" y2="6" stroke="#3FA9F5" stroke-width="1.7"/>
<text x="148" y="9" fill="rgba(255,255,255,0.7)" font-size="9.5">C90 – C270</text>
</g>
<text x="578" y="416" fill="rgba(255,255,255,0.45)" font-size="9" text-anchor="end">η = 100%</text>
<text x="578" y="434" fill="rgba(255,255,255,0.55)" font-size="8" letter-spacing="1.4" text-anchor="end">PEAK INTENSITY</text>
<text x="578" y="451" fill="#fff" font-weight="700" font-size="14" text-anchor="end">440,924 cd</text>
</svg>