<svg viewBox="0 0 600 460" xmlns="http://www.w3.org/2000/svg" font-family="JetBrains Mono, monospace" font-size="9.5">
<rect width="100%" height="100%" fill="#14171b"/>
<text x="22" y="26" fill="#F32740" font-weight="700" letter-spacing="2">LSPL800 · 55° OPTIC</text>
<text x="22" y="42" fill="rgba(255,255,255,0.55)" font-size="8" letter-spacing="1.4">LUMINOUS INTENSITY DISTRIBUTION (cd/klm)</text>
<path d="M 232.0 64.0 A 68.0 68.0 0 0 0 368.0 64.0" fill="none" stroke="rgba(120,200,200,0.18)" stroke-width="0.7"/>
<path d="M 164.0 64.0 A 136.0 136.0 0 0 0 436.0 64.0" fill="none" stroke="rgba(120,200,200,0.18)" stroke-width="0.7"/>
<path d="M 96.0 64.0 A 204.0 204.0 0 0 0 504.0 64.0" fill="none" stroke="rgba(120,200,200,0.18)" stroke-width="0.7"/>
<path d="M 28.0 64.0 A 272.0 272.0 0 0 0 572.0 64.0" fill="none" stroke="rgba(120,200,200,0.18)" stroke-width="0.7"/>
<path d="M -40.0 64.0 A 340.0 340.0 0 0 0 640.0 64.0" fill="none" stroke="rgba(120,200,200,0.18)" stroke-width="0.7"/>
<line x1="300.0" y1="64" x2="388.0" y2="392.4" stroke="rgba(120,200,200,0.10)" stroke-width="0.5"/>
<line x1="300.0" y1="64" x2="212.0" y2="392.4" stroke="rgba(120,200,200,0.10)" stroke-width="0.5"/>
<line x1="300.0" y1="64" x2="470.0" y2="358.4" stroke="rgba(120,200,200,0.10)" stroke-width="0.5"/>
<line x1="300.0" y1="64" x2="130.0" y2="358.4" stroke="rgba(120,200,200,0.10)" stroke-width="0.5"/>
<line x1="300.0" y1="64" x2="540.4" y2="304.4" stroke="rgba(120,200,200,0.10)" stroke-width="0.5"/>
<line x1="300.0" y1="64" x2="59.6" y2="304.4" stroke="rgba(120,200,200,0.10)" stroke-width="0.5"/>
<line x1="300.0" y1="64" x2="594.4" y2="234.0" stroke="rgba(120,200,200,0.10)" stroke-width="0.5"/>
<line x1="300.0" y1="64" x2="5.6" y2="234.0" stroke="rgba(120,200,200,0.10)" stroke-width="0.5"/>
<line x1="300.0" y1="64" x2="628.4" y2="152.0" stroke="rgba(120,200,200,0.10)" stroke-width="0.5"/>
<line x1="300.0" y1="64" x2="-28.4" y2="152.0" stroke="rgba(120,200,200,0.10)" stroke-width="0.5"/>
<line x1="300.0" y1="64" x2="640.0" y2="64.0" stroke="rgba(120,200,200,0.10)" stroke-width="0.5"/>
<line x1="300.0" y1="64" x2="-40.0" y2="64.0" stroke="rgba(120,200,200,0.10)" stroke-width="0.5"/>
<line x1="300.0" y1="64" x2="300.0" y2="404" stroke="rgba(120,200,200,0.14)" stroke-width="0.5"/>
<line x1="-40.0" y1="64" x2="640.0" y2="64" stroke="rgba(120,200,200,0.14)" stroke-width="0.5"/>
<text x="391.6" y="408.9" text-anchor="middle" fill="rgba(255,255,255,0.4)" font-size="9">15°</text>
<text x="208.4" y="408.9" text-anchor="middle" fill="rgba(255,255,255,0.4)" font-size="9">15°</text>
<text x="477.0" y="373.6" text-anchor="middle" fill="rgba(255,255,255,0.6)" font-size="9">30°</text>
<text x="123.0" y="373.6" text-anchor="middle" fill="rgba(255,255,255,0.6)" font-size="9">30°</text>
<text x="550.3" y="317.3" text-anchor="middle" fill="rgba(255,255,255,0.4)" font-size="9">45°</text>
<text x="49.7" y="317.3" text-anchor="middle" fill="rgba(255,255,255,0.4)" font-size="9">45°</text>
<text x="606.6" y="244.0" text-anchor="middle" fill="rgba(255,255,255,0.6)" font-size="9">60°</text>
<text x="-6.6" y="244.0" text-anchor="middle" fill="rgba(255,255,255,0.6)" font-size="9">60°</text>
<text x="641.9" y="158.6" text-anchor="middle" fill="rgba(255,255,255,0.4)" font-size="9">75°</text>
<text x="-41.9" y="158.6" text-anchor="middle" fill="rgba(255,255,255,0.4)" font-size="9">75°</text>
<text x="654.0" y="67.0" text-anchor="middle" fill="rgba(255,255,255,0.6)" font-size="9">90°</text>
<text x="-54.0" y="67.0" text-anchor="middle" fill="rgba(255,255,255,0.6)" font-size="9">90°</text>
<text x="300.0" y="422" text-anchor="middle" fill="rgba(255,255,255,0.6)" font-size="9">0°</text>
<path d="M 300.0 64.0 L 300.0 64.0 L 300.0 64.0 L 300.0 64.0 L 300.0 64.0 L 300.0 64.0 L 300.0 64.0 L 300.0 64.0 L 300.0 64.0 L 300.0 64.0 L 300.0 64.0 L 300.0 64.0 L 300.0 64.0 L 300.0 64.0 L 300.0 64.0 L 300.0 64.0 L 298.7 64.4 L 297.1 64.9 L 295.6 65.4 L 294.2 66.0 L 292.3 66.8 L 291.8 67.2 L 291.1 67.6 L 290.3 68.1 L 289.3 68.8 L 288.6 69.3 L 287.9 69.9 L 287.3 70.5 L 286.6 71.1 L 286.0 71.8 L 285.2 72.5 L 284.5 73.3 L 283.7 74.2 L 283.1 75.0 L 282.3 75.9 L 281.5 76.9 L 280.4 78.2 L 279.4 79.5 L 278.4 80.9 L 277.3 82.4 L 275.9 84.2 L 274.8 85.9 L 273.4 88.0 L 271.7 90.4 L 270.0 92.9 L 268.5 95.5 L 266.4 98.8 L 264.5 102.1 L 262.5 105.7 L 260.2 109.8 L 257.7 114.4 L 255.2 119.3 L 252.5 124.8 L 249.7 130.7 L 247.0 136.9 L 244.3 143.6 L 241.7 150.5 L 239.2 157.7 L 236.8 165.2 L 234.5 173.0 L 232.4 181.1 L 230.5 189.4 L 228.8 197.9 L 227.4 206.5 L 226.4 214.9 L 225.8 223.1 L 225.5 231.3 L 225.7 239.1 L 226.1 246.8 L 226.9 254.5 L 228.0 261.8 L 229.4 269.0 L 231.1 276.0 L 233.1 282.8 L 235.4 289.1 L 238.0 295.2 L 240.9 301.0 L 244.1 306.3 L 247.4 311.3 L 251.0 315.9 L 254.8 320.1 L 258.8 323.9 L 263.0 327.2 L 267.3 330.0 L 271.8 332.4 L 276.4 334.2 L 281.0 335.6 L 285.7 336.6 L 290.5 336.5 L 295.2 336.7 L 300.0 336.5 L 304.8 336.7 L 309.5 336.5 L 314.3 336.6 L 319.0 335.6 L 323.6 334.2 L 328.2 332.4 L 332.7 330.0 L 337.0 327.2 L 341.2 323.9 L 345.2 320.1 L 349.0 315.9 L 352.6 311.3 L 355.9 306.3 L 359.1 301.0 L 362.0 295.2 L 364.6 289.1 L 366.9 282.8 L 368.9 276.0 L 370.6 269.0 L 372.0 261.8 L 373.1 254.5 L 373.9 246.8 L 374.3 239.1 L 374.5 231.3 L 374.2 223.1 L 373.6 214.9 L 372.6 206.5 L 371.2 197.9 L 369.5 189.4 L 367.6 181.1 L 365.5 173.0 L 363.2 165.2 L 360.8 157.7 L 358.3 150.5 L 355.7 143.6 L 353.0 136.9 L 350.3 130.7 L 347.5 124.8 L 344.8 119.3 L 342.3 114.4 L 339.8 109.8 L 337.5 105.7 L 335.5 102.1 L 333.6 98.8 L 331.5 95.5 L 330.0 92.9 L 328.3 90.4 L 326.6 88.0 L 325.2 85.9 L 324.1 84.2 L 322.7 82.4 L 321.6 80.9 L 320.6 79.5 L 319.6 78.2 L 318.5 76.9 L 317.7 75.9 L 316.9 75.0 L 316.3 74.2 L 315.5 73.3 L 314.8 72.5 L 314.0 71.8 L 313.4 71.1 L 312.7 70.5 L 312.1 69.9 L 311.4 69.3 L 310.7 68.8 L 309.7 68.1 L 308.9 67.6 L 308.2 67.2 L 307.7 66.8 L 305.8 66.0 L 304.4 65.4 L 302.9 64.9 L 301.3 64.4 L 300.0 64.0 L 300.0 64.0 L 300.0 64.0 L 300.0 64.0 L 300.0 64.0 L 300.0 64.0 L 300.0 64.0 L 300.0 64.0 L 300.0 64.0 L 300.0 64.0 L 300.0 64.0 L 300.0 64.0 L 300.0 64.0 L 300.0 64.0 L 300.0 64.0 L 300.0 64.0" fill="none" stroke="#3FA9F5" stroke-width="1.7" stroke-linejoin="round" stroke-linecap="round"/>
<path d="M 298.3 64.0 L 298.3 64.0 L 298.3 64.1 L 298.2 64.1 L 298.2 64.1 L 298.1 64.2 L 298.1 64.2 L 298.1 64.2 L 298.0 64.3 L 298.0 64.3 L 297.9 64.4 L 297.9 64.4 L 297.9 64.5 L 297.9 64.5 L 297.9 64.5 L 298.0 64.5 L 298.1 64.6 L 298.2 64.6 L 298.2 64.6 L 298.0 64.7 L 297.7 64.8 L 297.2 65.1 L 296.3 65.5 L 295.1 66.1 L 293.9 66.7 L 292.8 67.3 L 291.7 68.0 L 290.8 68.7 L 290.0 69.3 L 289.3 69.9 L 288.3 70.7 L 287.4 71.5 L 286.8 72.3 L 286.1 73.0 L 285.4 73.8 L 284.9 74.6 L 284.3 75.4 L 283.7 76.3 L 282.9 77.4 L 281.9 78.6 L 281.0 79.9 L 280.0 81.4 L 279.1 82.8 L 278.2 84.3 L 277.4 85.9 L 276.4 87.6 L 275.3 89.6 L 273.9 92.0 L 272.7 94.3 L 271.2 97.1 L 269.6 100.2 L 267.8 103.7 L 266.0 107.5 L 264.0 111.7 L 262.0 116.3 L 260.1 121.0 L 258.1 126.2 L 256.1 131.6 L 254.1 137.5 L 252.0 143.8 L 250.0 150.6 L 247.9 158.0 L 245.9 165.7 L 244.0 173.8 L 242.4 182.1 L 240.8 190.9 L 239.6 199.7 L 238.5 209.0 L 237.7 218.2 L 237.3 227.5 L 237.1 236.7 L 237.4 245.8 L 238.1 254.6 L 239.2 263.0 L 240.6 271.2 L 242.4 279.0 L 244.6 286.3 L 247.1 293.2 L 249.9 299.8 L 253.0 306.0 L 256.4 311.5 L 260.0 316.6 L 263.9 321.2 L 267.9 325.1 L 272.2 328.3 L 276.6 331.0 L 281.2 333.2 L 285.8 334.8 L 290.5 336.0 L 295.2 336.6 L 300.0 337.0 L 304.8 336.6 L 309.5 336.0 L 314.2 334.8 L 318.8 333.2 L 323.4 331.0 L 327.8 328.3 L 332.1 325.1 L 336.1 321.2 L 340.0 316.6 L 343.6 311.5 L 347.0 306.0 L 350.1 299.8 L 352.9 293.2 L 355.4 286.3 L 357.6 279.0 L 359.4 271.2 L 360.8 263.0 L 361.9 254.6 L 362.6 245.8 L 362.9 236.7 L 362.7 227.5 L 362.3 218.2 L 361.5 209.0 L 360.4 199.7 L 359.2 190.9 L 357.6 182.1 L 356.0 173.8 L 354.1 165.7 L 352.1 158.0 L 350.0 150.6 L 348.0 143.8 L 345.9 137.5 L 343.9 131.6 L 341.9 126.2 L 339.9 121.0 L 338.0 116.3 L 336.0 111.7 L 334.0 107.5 L 332.2 103.7 L 330.4 100.2 L 328.8 97.1 L 327.3 94.3 L 326.1 92.0 L 324.7 89.6 L 323.6 87.6 L 322.6 85.9 L 321.8 84.3 L 320.9 82.8 L 320.0 81.4 L 319.0 79.9 L 318.1 78.6 L 317.1 77.4 L 316.3 76.3 L 315.7 75.4 L 315.1 74.6 L 314.6 73.8 L 313.9 73.0 L 313.2 72.3 L 312.6 71.5 L 311.7 70.7 L 310.7 69.9 L 310.0 69.3 L 309.2 68.7 L 308.3 68.0 L 307.2 67.3 L 306.1 66.7 L 304.9 66.1 L 303.7 65.5 L 302.8 65.1 L 302.3 64.8 L 302.0 64.7 L 301.8 64.6 L 301.8 64.6 L 301.9 64.6 L 302.0 64.5 L 302.1 64.5 L 302.1 64.5 L 302.1 64.5 L 302.1 64.4 L 302.1 64.4 L 302.0 64.3 L 302.0 64.3 L 301.9 64.2 L 301.9 64.2 L 301.9 64.2 L 301.8 64.1 L 301.8 64.1 L 301.7 64.1 L 301.7 64.0 L 301.7 64.0" fill="none" stroke="#F32740" stroke-width="2.0" stroke-linejoin="round" stroke-linecap="round"/>
<text x="345" y="120" fill="#F32740" font-size="9.5" font-weight="700">296</text>
<text x="364" y="188" fill="#F32740" font-size="9.5" font-weight="700">592</text>
<text x="367" y="260" fill="#F32740" font-size="9.5" font-weight="700">888</text>
<text x="316" y="337" fill="#F32740" font-size="9.5" font-weight="700">1184</text>
<rect x="274.0" y="58" width="52" height="11" rx="1.5" fill="#fafbfc" stroke="rgba(255,255,255,0.4)" stroke-width="0.5"/>
<line x1="272.0" y1="69.8" x2="328.0" y2="69.8" stroke="#F32740" stroke-width="0.7" stroke-dasharray="1.5 2"/>
<g transform="translate(22, 434)">
<text x="0" y="-8" fill="rgba(255,255,255,0.55)" font-size="8" letter-spacing="1.4">cd/klm</text>
<line x1="0" y1="6" x2="22" y2="6" stroke="#F32740" stroke-width="2.2"/>
<text x="28" y="9" fill="rgba(255,255,255,0.7)" font-size="9.5">C0 – C180</text>
<line x1="120" y1="6" x2="142" y2="6" stroke="#3FA9F5" stroke-width="1.7"/>
<text x="148" y="9" fill="rgba(255,255,255,0.7)" font-size="9.5">C90 – C270</text>
</g>
<text x="578" y="416" fill="rgba(255,255,255,0.45)" font-size="9" text-anchor="end">η = 100%</text>
<text x="578" y="434" fill="rgba(255,255,255,0.55)" font-size="8" letter-spacing="1.4" text-anchor="end">PEAK INTENSITY</text>
<text x="578" y="451" fill="#fff" font-weight="700" font-size="14" text-anchor="end">112,457 cd</text>
</svg>