<svg viewBox="0 0 600 460" xmlns="http://www.w3.org/2000/svg" font-family="JetBrains Mono, monospace" font-size="9.5">
<rect width="100%" height="100%" fill="#14171b"/>
<text x="22" y="26" fill="#F32740" font-weight="700" letter-spacing="2">LSPL800 · 35° OPTIC (DEFAULT)</text>
<text x="22" y="42" fill="rgba(255,255,255,0.55)" font-size="8" letter-spacing="1.4">LUMINOUS INTENSITY DISTRIBUTION (cd/klm)</text>
<path d="M 232.0 64.0 A 68.0 68.0 0 0 0 368.0 64.0" fill="none" stroke="rgba(120,200,200,0.18)" stroke-width="0.7"/>
<path d="M 164.0 64.0 A 136.0 136.0 0 0 0 436.0 64.0" fill="none" stroke="rgba(120,200,200,0.18)" stroke-width="0.7"/>
<path d="M 96.0 64.0 A 204.0 204.0 0 0 0 504.0 64.0" fill="none" stroke="rgba(120,200,200,0.18)" stroke-width="0.7"/>
<path d="M 28.0 64.0 A 272.0 272.0 0 0 0 572.0 64.0" fill="none" stroke="rgba(120,200,200,0.18)" stroke-width="0.7"/>
<path d="M -40.0 64.0 A 340.0 340.0 0 0 0 640.0 64.0" fill="none" stroke="rgba(120,200,200,0.18)" stroke-width="0.7"/>
<line x1="300.0" y1="64" x2="388.0" y2="392.4" stroke="rgba(120,200,200,0.10)" stroke-width="0.5"/>
<line x1="300.0" y1="64" x2="212.0" y2="392.4" stroke="rgba(120,200,200,0.10)" stroke-width="0.5"/>
<line x1="300.0" y1="64" x2="470.0" y2="358.4" stroke="rgba(120,200,200,0.10)" stroke-width="0.5"/>
<line x1="300.0" y1="64" x2="130.0" y2="358.4" stroke="rgba(120,200,200,0.10)" stroke-width="0.5"/>
<line x1="300.0" y1="64" x2="540.4" y2="304.4" stroke="rgba(120,200,200,0.10)" stroke-width="0.5"/>
<line x1="300.0" y1="64" x2="59.6" y2="304.4" stroke="rgba(120,200,200,0.10)" stroke-width="0.5"/>
<line x1="300.0" y1="64" x2="594.4" y2="234.0" stroke="rgba(120,200,200,0.10)" stroke-width="0.5"/>
<line x1="300.0" y1="64" x2="5.6" y2="234.0" stroke="rgba(120,200,200,0.10)" stroke-width="0.5"/>
<line x1="300.0" y1="64" x2="628.4" y2="152.0" stroke="rgba(120,200,200,0.10)" stroke-width="0.5"/>
<line x1="300.0" y1="64" x2="-28.4" y2="152.0" stroke="rgba(120,200,200,0.10)" stroke-width="0.5"/>
<line x1="300.0" y1="64" x2="640.0" y2="64.0" stroke="rgba(120,200,200,0.10)" stroke-width="0.5"/>
<line x1="300.0" y1="64" x2="-40.0" y2="64.0" stroke="rgba(120,200,200,0.10)" stroke-width="0.5"/>
<line x1="300.0" y1="64" x2="300.0" y2="404" stroke="rgba(120,200,200,0.14)" stroke-width="0.5"/>
<line x1="-40.0" y1="64" x2="640.0" y2="64" stroke="rgba(120,200,200,0.14)" stroke-width="0.5"/>
<text x="391.6" y="408.9" text-anchor="middle" fill="rgba(255,255,255,0.4)" font-size="9">15°</text>
<text x="208.4" y="408.9" text-anchor="middle" fill="rgba(255,255,255,0.4)" font-size="9">15°</text>
<text x="477.0" y="373.6" text-anchor="middle" fill="rgba(255,255,255,0.6)" font-size="9">30°</text>
<text x="123.0" y="373.6" text-anchor="middle" fill="rgba(255,255,255,0.6)" font-size="9">30°</text>
<text x="550.3" y="317.3" text-anchor="middle" fill="rgba(255,255,255,0.4)" font-size="9">45°</text>
<text x="49.7" y="317.3" text-anchor="middle" fill="rgba(255,255,255,0.4)" font-size="9">45°</text>
<text x="606.6" y="244.0" text-anchor="middle" fill="rgba(255,255,255,0.6)" font-size="9">60°</text>
<text x="-6.6" y="244.0" text-anchor="middle" fill="rgba(255,255,255,0.6)" font-size="9">60°</text>
<text x="641.9" y="158.6" text-anchor="middle" fill="rgba(255,255,255,0.4)" font-size="9">75°</text>
<text x="-41.9" y="158.6" text-anchor="middle" fill="rgba(255,255,255,0.4)" font-size="9">75°</text>
<text x="654.0" y="67.0" text-anchor="middle" fill="rgba(255,255,255,0.6)" font-size="9">90°</text>
<text x="-54.0" y="67.0" text-anchor="middle" fill="rgba(255,255,255,0.6)" font-size="9">90°</text>
<text x="300.0" y="422" text-anchor="middle" fill="rgba(255,255,255,0.6)" font-size="9">0°</text>
<path d="M 300.0 64.0 L 300.0 64.0 L 300.0 64.0 L 300.0 64.0 L 300.0 64.0 L 300.0 64.0 L 300.0 64.0 L 300.0 64.0 L 300.0 64.0 L 300.0 64.0 L 300.0 64.0 L 300.0 64.0 L 300.0 64.0 L 300.0 64.0 L 300.0 64.0 L 300.0 64.0 L 300.0 64.0 L 300.0 64.0 L 300.0 64.0 L 300.0 64.0 L 300.0 64.0 L 300.0 64.0 L 300.0 64.0 L 300.0 64.0 L 300.0 64.0 L 300.0 64.0 L 300.0 64.0 L 300.0 64.0 L 300.0 64.0 L 300.0 64.0 L 300.0 64.0 L 300.0 64.0 L 300.0 64.0 L 300.0 64.0 L 300.0 64.0 L 300.0 64.0 L 300.0 64.0 L 300.0 64.0 L 300.0 64.0 L 300.0 64.0 L 300.0 64.0 L 300.0 64.0 L 300.0 64.0 L 300.0 64.0 L 300.0 64.0 L 300.0 64.0 L 300.0 64.0 L 300.0 64.0 L 297.1 67.2 L 294.2 70.7 L 291.2 74.5 L 288.1 78.7 L 284.9 83.4 L 284.2 85.0 L 283.3 86.9 L 282.4 89.1 L 281.4 91.5 L 280.3 94.4 L 279.1 97.4 L 277.9 100.8 L 276.5 104.8 L 274.9 109.2 L 273.4 114.0 L 271.7 119.6 L 269.9 125.6 L 268.2 132.2 L 266.4 139.4 L 264.8 146.9 L 263.2 155.2 L 261.6 164.1 L 260.1 173.5 L 258.8 183.7 L 257.5 194.7 L 256.6 206.0 L 256.4 216.2 L 256.1 227.8 L 256.5 238.4 L 257.1 249.8 L 258.2 260.9 L 259.3 273.2 L 261.3 283.6 L 263.5 294.4 L 266.4 303.3 L 269.6 311.5 L 273.2 318.6 L 277.2 324.6 L 281.4 329.3 L 285.9 332.6 L 290.5 334.9 L 295.3 336.0 L 300.0 336.6 L 304.7 336.0 L 309.5 334.9 L 314.1 332.6 L 318.6 329.3 L 322.8 324.6 L 326.8 318.6 L 330.4 311.5 L 333.6 303.3 L 336.5 294.4 L 338.7 283.6 L 340.7 273.2 L 341.8 260.9 L 342.9 249.8 L 343.5 238.4 L 343.9 227.8 L 343.6 216.2 L 343.4 206.0 L 342.5 194.7 L 341.2 183.7 L 339.9 173.5 L 338.4 164.1 L 336.8 155.2 L 335.2 146.9 L 333.6 139.4 L 331.8 132.2 L 330.1 125.6 L 328.3 119.6 L 326.6 114.0 L 325.1 109.2 L 323.5 104.8 L 322.1 100.8 L 320.9 97.4 L 319.7 94.4 L 318.6 91.5 L 317.6 89.1 L 316.7 86.9 L 315.8 85.0 L 315.1 83.4 L 311.9 78.7 L 308.8 74.5 L 305.8 70.7 L 302.9 67.2 L 300.0 64.0 L 300.0 64.0 L 300.0 64.0 L 300.0 64.0 L 300.0 64.0 L 300.0 64.0 L 300.0 64.0 L 300.0 64.0 L 300.0 64.0 L 300.0 64.0 L 300.0 64.0 L 300.0 64.0 L 300.0 64.0 L 300.0 64.0 L 300.0 64.0 L 300.0 64.0 L 300.0 64.0 L 300.0 64.0 L 300.0 64.0 L 300.0 64.0 L 300.0 64.0 L 300.0 64.0 L 300.0 64.0 L 300.0 64.0 L 300.0 64.0 L 300.0 64.0 L 300.0 64.0 L 300.0 64.0 L 300.0 64.0 L 300.0 64.0 L 300.0 64.0 L 300.0 64.0 L 300.0 64.0 L 300.0 64.0 L 300.0 64.0 L 300.0 64.0 L 300.0 64.0 L 300.0 64.0 L 300.0 64.0 L 300.0 64.0 L 300.0 64.0 L 300.0 64.0 L 300.0 64.0 L 300.0 64.0 L 300.0 64.0 L 300.0 64.0 L 300.0 64.0 L 300.0 64.0" fill="none" stroke="#3FA9F5" stroke-width="1.7" stroke-linejoin="round" stroke-linecap="round"/>
<path d="M 298.3 64.0 L 298.3 64.0 L 298.3 64.1 L 298.2 64.1 L 298.2 64.1 L 298.1 64.2 L 298.1 64.2 L 298.1 64.2 L 298.0 64.3 L 298.0 64.3 L 297.9 64.4 L 297.9 64.4 L 297.9 64.5 L 297.7 64.5 L 297.3 64.7 L 297.0 64.8 L 296.8 64.9 L 296.6 65.0 L 296.3 65.2 L 296.2 65.3 L 295.8 65.5 L 295.7 65.6 L 295.1 66.0 L 294.8 66.2 L 294.4 66.5 L 294.2 66.7 L 293.7 67.1 L 293.7 67.2 L 293.6 67.4 L 293.5 67.6 L 293.4 67.8 L 293.1 68.2 L 292.8 68.5 L 292.6 68.8 L 292.4 69.1 L 292.0 69.6 L 291.9 69.9 L 291.5 70.4 L 291.2 70.9 L 290.8 71.4 L 290.6 71.9 L 290.1 72.6 L 289.7 73.2 L 289.4 73.9 L 289.1 74.5 L 288.6 75.4 L 288.3 76.2 L 287.9 77.0 L 287.4 78.0 L 287.1 78.8 L 286.8 79.7 L 286.4 80.7 L 286.0 81.9 L 285.5 83.2 L 284.8 84.9 L 284.1 86.7 L 283.3 88.8 L 282.5 91.0 L 281.6 93.5 L 280.5 96.4 L 279.4 99.7 L 278.1 103.5 L 276.6 108.0 L 275.0 113.1 L 273.3 118.7 L 271.6 124.9 L 269.8 131.9 L 267.7 140.0 L 265.7 148.9 L 263.7 158.6 L 261.8 169.0 L 260.1 180.0 L 258.7 191.1 L 257.6 202.8 L 256.8 214.7 L 256.4 226.8 L 256.5 238.7 L 256.9 250.5 L 257.9 261.9 L 259.4 272.9 L 261.4 283.1 L 263.8 292.7 L 266.6 301.6 L 269.9 309.3 L 273.5 316.3 L 277.4 322.3 L 281.6 327.2 L 286.0 331.1 L 290.6 333.9 L 295.3 335.3 L 300.0 336.4 L 304.7 335.3 L 309.4 333.9 L 314.0 331.1 L 318.4 327.2 L 322.6 322.3 L 326.5 316.3 L 330.1 309.3 L 333.4 301.6 L 336.2 292.7 L 338.6 283.1 L 340.6 272.9 L 342.1 261.9 L 343.1 250.5 L 343.5 238.7 L 343.6 226.8 L 343.2 214.7 L 342.4 202.8 L 341.3 191.1 L 339.9 180.0 L 338.2 169.0 L 336.3 158.6 L 334.3 148.9 L 332.3 140.0 L 330.2 131.9 L 328.4 124.9 L 326.7 118.7 L 325.0 113.1 L 323.4 108.0 L 321.9 103.5 L 320.6 99.7 L 319.5 96.4 L 318.4 93.5 L 317.5 91.0 L 316.7 88.8 L 315.9 86.7 L 315.2 84.9 L 314.5 83.2 L 314.0 81.9 L 313.6 80.7 L 313.2 79.7 L 312.9 78.8 L 312.6 78.0 L 312.1 77.0 L 311.7 76.2 L 311.4 75.4 L 310.9 74.5 L 310.6 73.9 L 310.3 73.2 L 309.9 72.6 L 309.4 71.9 L 309.2 71.4 L 308.8 70.9 L 308.5 70.4 L 308.1 69.9 L 308.0 69.6 L 307.6 69.1 L 307.4 68.8 L 307.2 68.5 L 306.9 68.2 L 306.6 67.8 L 306.5 67.6 L 306.4 67.4 L 306.3 67.2 L 306.3 67.1 L 305.8 66.7 L 305.6 66.5 L 305.2 66.2 L 304.9 66.0 L 304.3 65.6 L 304.2 65.5 L 303.8 65.3 L 303.7 65.2 L 303.4 65.0 L 303.2 64.9 L 303.0 64.8 L 302.7 64.7 L 302.3 64.5 L 302.1 64.5 L 302.1 64.4 L 302.1 64.4 L 302.0 64.3 L 302.0 64.3 L 301.9 64.2 L 301.9 64.2 L 301.9 64.2 L 301.8 64.1 L 301.8 64.1 L 301.7 64.1 L 301.7 64.0 L 301.7 64.0" fill="none" stroke="#F32740" stroke-width="2.0" stroke-linejoin="round" stroke-linecap="round"/>
<text x="335" y="127" fill="#F32740" font-size="9.5" font-weight="700">503</text>
<text x="348" y="194" fill="#F32740" font-size="9.5" font-weight="700">1006</text>
<text x="348" y="265" fill="#F32740" font-size="9.5" font-weight="700">1509</text>
<text x="308" y="337" fill="#F32740" font-size="9.5" font-weight="700">2012</text>
<rect x="274.0" y="58" width="52" height="11" rx="1.5" fill="#fafbfc" stroke="rgba(255,255,255,0.4)" stroke-width="0.5"/>
<line x1="272.0" y1="69.8" x2="328.0" y2="69.8" stroke="#F32740" stroke-width="0.7" stroke-dasharray="1.5 2"/>
<g transform="translate(22, 434)">
<text x="0" y="-8" fill="rgba(255,255,255,0.55)" font-size="8" letter-spacing="1.4">cd/klm</text>
<line x1="0" y1="6" x2="22" y2="6" stroke="#F32740" stroke-width="2.2"/>
<text x="28" y="9" fill="rgba(255,255,255,0.7)" font-size="9.5">C0 – C180</text>
<line x1="120" y1="6" x2="142" y2="6" stroke="#3FA9F5" stroke-width="1.7"/>
<text x="148" y="9" fill="rgba(255,255,255,0.7)" font-size="9.5">C90 – C270</text>
</g>
<text x="578" y="416" fill="rgba(255,255,255,0.45)" font-size="9" text-anchor="end">η = 100%</text>
<text x="578" y="434" fill="rgba(255,255,255,0.55)" font-size="8" letter-spacing="1.4" text-anchor="end">PEAK INTENSITY</text>
<text x="578" y="451" fill="#fff" font-weight="700" font-size="14" text-anchor="end">245,983 cd</text>
</svg>