<svg viewBox="0 0 600 460" xmlns="http://www.w3.org/2000/svg" font-family="JetBrains Mono, monospace" font-size="9.5">
<rect width="100%" height="100%" fill="#14171b"/>
<text x="22" y="26" fill="#F32740" font-weight="700" letter-spacing="2">LSPL600 · 20° OPTIC</text>
<text x="22" y="42" fill="rgba(255,255,255,0.55)" font-size="8" letter-spacing="1.4">LUMINOUS INTENSITY DISTRIBUTION (cd/klm)</text>
<path d="M 232.0 64.0 A 68.0 68.0 0 0 0 368.0 64.0" fill="none" stroke="rgba(120,200,200,0.18)" stroke-width="0.7"/>
<path d="M 164.0 64.0 A 136.0 136.0 0 0 0 436.0 64.0" fill="none" stroke="rgba(120,200,200,0.18)" stroke-width="0.7"/>
<path d="M 96.0 64.0 A 204.0 204.0 0 0 0 504.0 64.0" fill="none" stroke="rgba(120,200,200,0.18)" stroke-width="0.7"/>
<path d="M 28.0 64.0 A 272.0 272.0 0 0 0 572.0 64.0" fill="none" stroke="rgba(120,200,200,0.18)" stroke-width="0.7"/>
<path d="M -40.0 64.0 A 340.0 340.0 0 0 0 640.0 64.0" fill="none" stroke="rgba(120,200,200,0.18)" stroke-width="0.7"/>
<line x1="300.0" y1="64" x2="388.0" y2="392.4" stroke="rgba(120,200,200,0.10)" stroke-width="0.5"/>
<line x1="300.0" y1="64" x2="212.0" y2="392.4" stroke="rgba(120,200,200,0.10)" stroke-width="0.5"/>
<line x1="300.0" y1="64" x2="470.0" y2="358.4" stroke="rgba(120,200,200,0.10)" stroke-width="0.5"/>
<line x1="300.0" y1="64" x2="130.0" y2="358.4" stroke="rgba(120,200,200,0.10)" stroke-width="0.5"/>
<line x1="300.0" y1="64" x2="540.4" y2="304.4" stroke="rgba(120,200,200,0.10)" stroke-width="0.5"/>
<line x1="300.0" y1="64" x2="59.6" y2="304.4" stroke="rgba(120,200,200,0.10)" stroke-width="0.5"/>
<line x1="300.0" y1="64" x2="594.4" y2="234.0" stroke="rgba(120,200,200,0.10)" stroke-width="0.5"/>
<line x1="300.0" y1="64" x2="5.6" y2="234.0" stroke="rgba(120,200,200,0.10)" stroke-width="0.5"/>
<line x1="300.0" y1="64" x2="628.4" y2="152.0" stroke="rgba(120,200,200,0.10)" stroke-width="0.5"/>
<line x1="300.0" y1="64" x2="-28.4" y2="152.0" stroke="rgba(120,200,200,0.10)" stroke-width="0.5"/>
<line x1="300.0" y1="64" x2="640.0" y2="64.0" stroke="rgba(120,200,200,0.10)" stroke-width="0.5"/>
<line x1="300.0" y1="64" x2="-40.0" y2="64.0" stroke="rgba(120,200,200,0.10)" stroke-width="0.5"/>
<line x1="300.0" y1="64" x2="300.0" y2="404" stroke="rgba(120,200,200,0.14)" stroke-width="0.5"/>
<line x1="-40.0" y1="64" x2="640.0" y2="64" stroke="rgba(120,200,200,0.14)" stroke-width="0.5"/>
<text x="391.6" y="408.9" text-anchor="middle" fill="rgba(255,255,255,0.4)" font-size="9">15°</text>
<text x="208.4" y="408.9" text-anchor="middle" fill="rgba(255,255,255,0.4)" font-size="9">15°</text>
<text x="477.0" y="373.6" text-anchor="middle" fill="rgba(255,255,255,0.6)" font-size="9">30°</text>
<text x="123.0" y="373.6" text-anchor="middle" fill="rgba(255,255,255,0.6)" font-size="9">30°</text>
<text x="550.3" y="317.3" text-anchor="middle" fill="rgba(255,255,255,0.4)" font-size="9">45°</text>
<text x="49.7" y="317.3" text-anchor="middle" fill="rgba(255,255,255,0.4)" font-size="9">45°</text>
<text x="606.6" y="244.0" text-anchor="middle" fill="rgba(255,255,255,0.6)" font-size="9">60°</text>
<text x="-6.6" y="244.0" text-anchor="middle" fill="rgba(255,255,255,0.6)" font-size="9">60°</text>
<text x="641.9" y="158.6" text-anchor="middle" fill="rgba(255,255,255,0.4)" font-size="9">75°</text>
<text x="-41.9" y="158.6" text-anchor="middle" fill="rgba(255,255,255,0.4)" font-size="9">75°</text>
<text x="654.0" y="67.0" text-anchor="middle" fill="rgba(255,255,255,0.6)" font-size="9">90°</text>
<text x="-54.0" y="67.0" text-anchor="middle" fill="rgba(255,255,255,0.6)" font-size="9">90°</text>
<text x="300.0" y="422" text-anchor="middle" fill="rgba(255,255,255,0.6)" font-size="9">0°</text>
<path d="M 300.0 64.0 L 300.0 64.0 L 300.0 64.0 L 300.0 64.0 L 300.0 64.0 L 300.0 64.0 L 300.0 64.0 L 300.0 64.0 L 300.0 64.0 L 300.0 64.0 L 300.0 64.0 L 300.0 64.0 L 300.0 64.0 L 300.0 64.0 L 300.0 64.0 L 300.0 64.0 L 300.0 64.0 L 300.0 64.0 L 300.0 64.0 L 300.0 64.0 L 300.0 64.0 L 300.0 64.0 L 300.0 64.0 L 300.0 64.0 L 300.0 64.0 L 300.0 64.0 L 300.0 64.0 L 300.0 64.0 L 300.0 64.0 L 300.0 64.0 L 300.0 64.0 L 300.0 64.0 L 300.0 64.0 L 300.0 64.0 L 300.0 64.0 L 300.0 64.0 L 300.0 64.0 L 300.0 64.0 L 300.0 64.0 L 300.0 64.0 L 300.0 64.0 L 300.0 64.0 L 300.0 64.0 L 300.0 64.0 L 300.0 64.0 L 300.0 64.0 L 300.0 64.0 L 300.0 64.0 L 300.0 64.0 L 300.0 64.0 L 300.0 64.0 L 300.0 64.0 L 300.0 64.0 L 300.0 64.0 L 300.0 64.0 L 300.0 64.0 L 300.0 64.0 L 300.0 64.0 L 300.0 64.0 L 300.0 64.0 L 300.0 64.0 L 300.0 64.0 L 300.0 64.0 L 300.0 64.0 L 300.0 64.0 L 300.0 64.0 L 300.0 64.0 L 300.0 64.0 L 300.0 64.0 L 300.0 64.0 L 300.0 64.0 L 296.8 73.2 L 293.8 83.1 L 290.2 95.9 L 286.5 111.2 L 282.5 129.5 L 280.7 141.5 L 278.7 156.3 L 277.0 172.4 L 275.6 189.5 L 274.6 207.9 L 274.1 227.5 L 274.2 247.7 L 275.1 267.2 L 276.7 285.5 L 279.2 301.8 L 282.5 314.7 L 286.4 323.6 L 290.7 329.1 L 295.3 331.9 L 300.0 333.0 L 304.7 331.9 L 309.3 329.1 L 313.6 323.6 L 317.5 314.7 L 320.8 301.8 L 323.3 285.5 L 324.9 267.2 L 325.8 247.7 L 325.9 227.5 L 325.4 207.9 L 324.4 189.5 L 323.0 172.4 L 321.3 156.3 L 319.3 141.5 L 317.5 129.5 L 313.5 111.2 L 309.8 95.9 L 306.2 83.1 L 303.2 73.2 L 300.0 64.0 L 300.0 64.0 L 300.0 64.0 L 300.0 64.0 L 300.0 64.0 L 300.0 64.0 L 300.0 64.0 L 300.0 64.0 L 300.0 64.0 L 300.0 64.0 L 300.0 64.0 L 300.0 64.0 L 300.0 64.0 L 300.0 64.0 L 300.0 64.0 L 300.0 64.0 L 300.0 64.0 L 300.0 64.0 L 300.0 64.0 L 300.0 64.0 L 300.0 64.0 L 300.0 64.0 L 300.0 64.0 L 300.0 64.0 L 300.0 64.0 L 300.0 64.0 L 300.0 64.0 L 300.0 64.0 L 300.0 64.0 L 300.0 64.0 L 300.0 64.0 L 300.0 64.0 L 300.0 64.0 L 300.0 64.0 L 300.0 64.0 L 300.0 64.0 L 300.0 64.0 L 300.0 64.0 L 300.0 64.0 L 300.0 64.0 L 300.0 64.0 L 300.0 64.0 L 300.0 64.0 L 300.0 64.0 L 300.0 64.0 L 300.0 64.0 L 300.0 64.0 L 300.0 64.0 L 300.0 64.0 L 300.0 64.0 L 300.0 64.0 L 300.0 64.0 L 300.0 64.0 L 300.0 64.0 L 300.0 64.0 L 300.0 64.0 L 300.0 64.0 L 300.0 64.0 L 300.0 64.0 L 300.0 64.0 L 300.0 64.0 L 300.0 64.0 L 300.0 64.0 L 300.0 64.0 L 300.0 64.0 L 300.0 64.0 L 300.0 64.0 L 300.0 64.0 L 300.0 64.0 L 300.0 64.0 L 300.0 64.0" fill="none" stroke="#3FA9F5" stroke-width="1.7" stroke-linejoin="round" stroke-linecap="round"/>
<path d="M 297.2 64.0 L 297.1 64.0 L 297.1 64.1 L 297.0 64.2 L 297.0 64.2 L 296.9 64.3 L 296.9 64.3 L 296.8 64.4 L 296.8 64.5 L 296.8 64.5 L 296.9 64.5 L 297.1 64.6 L 297.3 64.6 L 297.4 64.6 L 297.1 64.7 L 297.0 64.8 L 296.8 64.9 L 296.6 65.0 L 296.3 65.2 L 296.2 65.3 L 296.4 65.3 L 296.2 65.4 L 295.9 65.7 L 295.9 65.8 L 295.8 65.8 L 295.5 66.1 L 295.4 66.3 L 295.4 66.4 L 295.5 66.4 L 295.3 66.6 L 295.3 66.7 L 295.2 66.9 L 295.2 67.0 L 294.9 67.3 L 294.8 67.5 L 294.8 67.6 L 294.7 67.9 L 294.5 68.2 L 294.2 68.5 L 294.5 68.5 L 294.0 69.0 L 293.7 69.5 L 293.4 69.9 L 293.2 70.4 L 292.6 71.1 L 292.4 71.6 L 292.2 72.1 L 292.0 72.5 L 291.8 73.1 L 291.6 73.7 L 291.2 74.5 L 291.0 75.1 L 290.6 76.0 L 290.4 76.7 L 290.1 77.6 L 289.8 78.6 L 289.5 79.6 L 289.2 80.6 L 288.7 82.0 L 288.4 83.4 L 288.0 84.8 L 287.5 86.5 L 287.0 88.5 L 286.5 90.5 L 285.9 92.9 L 285.3 95.5 L 284.7 98.4 L 284.1 101.6 L 283.4 105.0 L 282.6 109.4 L 281.7 114.2 L 280.7 119.9 L 279.6 126.6 L 278.3 135.0 L 277.0 144.3 L 275.6 155.1 L 274.3 167.1 L 273.0 181.1 L 271.9 196.0 L 271.3 211.8 L 270.9 229.0 L 271.0 247.2 L 271.7 265.1 L 273.2 282.6 L 275.3 299.1 L 278.2 312.9 L 281.9 323.3 L 286.0 330.4 L 290.6 334.5 L 295.2 336.2 L 300.0 336.7 L 304.8 336.2 L 309.4 334.5 L 314.0 330.4 L 318.1 323.3 L 321.8 312.9 L 324.7 299.1 L 326.8 282.6 L 328.3 265.1 L 329.0 247.2 L 329.1 229.0 L 328.7 211.8 L 328.1 196.0 L 327.0 181.1 L 325.7 167.1 L 324.4 155.1 L 323.0 144.3 L 321.7 135.0 L 320.4 126.6 L 319.3 119.9 L 318.3 114.2 L 317.4 109.4 L 316.6 105.0 L 315.9 101.6 L 315.3 98.4 L 314.7 95.5 L 314.1 92.9 L 313.5 90.5 L 313.0 88.5 L 312.5 86.5 L 312.0 84.8 L 311.6 83.4 L 311.3 82.0 L 310.8 80.6 L 310.5 79.6 L 310.2 78.6 L 309.9 77.6 L 309.6 76.7 L 309.4 76.0 L 309.0 75.1 L 308.8 74.5 L 308.4 73.7 L 308.2 73.1 L 308.0 72.5 L 307.8 72.1 L 307.6 71.6 L 307.4 71.1 L 306.8 70.4 L 306.6 69.9 L 306.3 69.5 L 306.0 69.0 L 305.5 68.5 L 305.8 68.5 L 305.5 68.2 L 305.3 67.9 L 305.2 67.6 L 305.2 67.5 L 305.1 67.3 L 304.8 67.0 L 304.8 66.9 L 304.7 66.7 L 304.7 66.6 L 304.5 66.4 L 304.6 66.4 L 304.6 66.3 L 304.5 66.1 L 304.2 65.8 L 304.1 65.8 L 304.1 65.7 L 303.8 65.4 L 303.6 65.3 L 303.8 65.3 L 303.7 65.2 L 303.4 65.0 L 303.2 64.9 L 303.0 64.8 L 302.9 64.7 L 302.6 64.6 L 302.7 64.6 L 302.9 64.6 L 303.1 64.5 L 303.2 64.5 L 303.2 64.5 L 303.2 64.4 L 303.1 64.3 L 303.1 64.3 L 303.0 64.2 L 303.0 64.2 L 302.9 64.1 L 302.9 64.0 L 302.8 64.0" fill="none" stroke="#F32740" stroke-width="2.0" stroke-linejoin="round" stroke-linecap="round"/>
<text x="327" y="130" fill="#F32740" font-size="9.5" font-weight="700">1019</text>
<text x="334" y="198" fill="#F32740" font-size="9.5" font-weight="700">2038</text>
<text x="334" y="267" fill="#F32740" font-size="9.5" font-weight="700">3057</text>
<text x="311" y="337" fill="#F32740" font-size="9.5" font-weight="700">4076</text>
<rect x="274.0" y="58" width="52" height="11" rx="1.5" fill="#fafbfc" stroke="rgba(255,255,255,0.4)" stroke-width="0.5"/>
<line x1="272.0" y1="69.8" x2="328.0" y2="69.8" stroke="#F32740" stroke-width="0.7" stroke-dasharray="1.5 2"/>
<g transform="translate(22, 434)">
<text x="0" y="-8" fill="rgba(255,255,255,0.55)" font-size="8" letter-spacing="1.4">cd/klm</text>
<line x1="0" y1="6" x2="22" y2="6" stroke="#F32740" stroke-width="2.2"/>
<text x="28" y="9" fill="rgba(255,255,255,0.7)" font-size="9.5">C0 – C180</text>
<line x1="120" y1="6" x2="142" y2="6" stroke="#3FA9F5" stroke-width="1.7"/>
<text x="148" y="9" fill="rgba(255,255,255,0.7)" font-size="9.5">C90 – C270</text>
</g>
<text x="578" y="416" fill="rgba(255,255,255,0.45)" font-size="9" text-anchor="end">η = 100%</text>
<text x="578" y="434" fill="rgba(255,255,255,0.55)" font-size="8" letter-spacing="1.4" text-anchor="end">PEAK INTENSITY</text>
<text x="578" y="451" fill="#fff" font-weight="700" font-size="14" text-anchor="end">388,500 cd</text>
</svg>