<svg viewBox="0 0 600 460" xmlns="http://www.w3.org/2000/svg" font-family="JetBrains Mono, monospace" font-size="9.5">
<rect width="100%" height="100%" fill="#14171b"/>
<text x="22" y="26" fill="#F32740" font-weight="700" letter-spacing="2">LSPL600 · 90° OPTIC</text>
<text x="22" y="42" fill="rgba(255,255,255,0.55)" font-size="8" letter-spacing="1.4">LUMINOUS INTENSITY DISTRIBUTION (cd/klm)</text>
<path d="M 232.0 64.0 A 68.0 68.0 0 0 0 368.0 64.0" fill="none" stroke="rgba(120,200,200,0.18)" stroke-width="0.7"/>
<path d="M 164.0 64.0 A 136.0 136.0 0 0 0 436.0 64.0" fill="none" stroke="rgba(120,200,200,0.18)" stroke-width="0.7"/>
<path d="M 96.0 64.0 A 204.0 204.0 0 0 0 504.0 64.0" fill="none" stroke="rgba(120,200,200,0.18)" stroke-width="0.7"/>
<path d="M 28.0 64.0 A 272.0 272.0 0 0 0 572.0 64.0" fill="none" stroke="rgba(120,200,200,0.18)" stroke-width="0.7"/>
<path d="M -40.0 64.0 A 340.0 340.0 0 0 0 640.0 64.0" fill="none" stroke="rgba(120,200,200,0.18)" stroke-width="0.7"/>
<line x1="300.0" y1="64" x2="388.0" y2="392.4" stroke="rgba(120,200,200,0.10)" stroke-width="0.5"/>
<line x1="300.0" y1="64" x2="212.0" y2="392.4" stroke="rgba(120,200,200,0.10)" stroke-width="0.5"/>
<line x1="300.0" y1="64" x2="470.0" y2="358.4" stroke="rgba(120,200,200,0.10)" stroke-width="0.5"/>
<line x1="300.0" y1="64" x2="130.0" y2="358.4" stroke="rgba(120,200,200,0.10)" stroke-width="0.5"/>
<line x1="300.0" y1="64" x2="540.4" y2="304.4" stroke="rgba(120,200,200,0.10)" stroke-width="0.5"/>
<line x1="300.0" y1="64" x2="59.6" y2="304.4" stroke="rgba(120,200,200,0.10)" stroke-width="0.5"/>
<line x1="300.0" y1="64" x2="594.4" y2="234.0" stroke="rgba(120,200,200,0.10)" stroke-width="0.5"/>
<line x1="300.0" y1="64" x2="5.6" y2="234.0" stroke="rgba(120,200,200,0.10)" stroke-width="0.5"/>
<line x1="300.0" y1="64" x2="628.4" y2="152.0" stroke="rgba(120,200,200,0.10)" stroke-width="0.5"/>
<line x1="300.0" y1="64" x2="-28.4" y2="152.0" stroke="rgba(120,200,200,0.10)" stroke-width="0.5"/>
<line x1="300.0" y1="64" x2="640.0" y2="64.0" stroke="rgba(120,200,200,0.10)" stroke-width="0.5"/>
<line x1="300.0" y1="64" x2="-40.0" y2="64.0" stroke="rgba(120,200,200,0.10)" stroke-width="0.5"/>
<line x1="300.0" y1="64" x2="300.0" y2="404" stroke="rgba(120,200,200,0.14)" stroke-width="0.5"/>
<line x1="-40.0" y1="64" x2="640.0" y2="64" stroke="rgba(120,200,200,0.14)" stroke-width="0.5"/>
<text x="391.6" y="408.9" text-anchor="middle" fill="rgba(255,255,255,0.4)" font-size="9">15°</text>
<text x="208.4" y="408.9" text-anchor="middle" fill="rgba(255,255,255,0.4)" font-size="9">15°</text>
<text x="477.0" y="373.6" text-anchor="middle" fill="rgba(255,255,255,0.6)" font-size="9">30°</text>
<text x="123.0" y="373.6" text-anchor="middle" fill="rgba(255,255,255,0.6)" font-size="9">30°</text>
<text x="550.3" y="317.3" text-anchor="middle" fill="rgba(255,255,255,0.4)" font-size="9">45°</text>
<text x="49.7" y="317.3" text-anchor="middle" fill="rgba(255,255,255,0.4)" font-size="9">45°</text>
<text x="606.6" y="244.0" text-anchor="middle" fill="rgba(255,255,255,0.6)" font-size="9">60°</text>
<text x="-6.6" y="244.0" text-anchor="middle" fill="rgba(255,255,255,0.6)" font-size="9">60°</text>
<text x="641.9" y="158.6" text-anchor="middle" fill="rgba(255,255,255,0.4)" font-size="9">75°</text>
<text x="-41.9" y="158.6" text-anchor="middle" fill="rgba(255,255,255,0.4)" font-size="9">75°</text>
<text x="654.0" y="67.0" text-anchor="middle" fill="rgba(255,255,255,0.6)" font-size="9">90°</text>
<text x="-54.0" y="67.0" text-anchor="middle" fill="rgba(255,255,255,0.6)" font-size="9">90°</text>
<text x="300.0" y="422" text-anchor="middle" fill="rgba(255,255,255,0.6)" font-size="9">0°</text>
<path d="M 300.0 64.0 L 300.0 64.0 L 300.0 64.0 L 300.0 64.0 L 300.0 64.0 L 300.0 64.0 L 300.0 64.0 L 300.0 64.0 L 300.0 64.0 L 300.0 64.0 L 300.0 64.0 L 300.0 64.0 L 300.0 64.0 L 300.0 64.0 L 300.0 64.0 L 300.0 64.0 L 300.0 64.0 L 300.0 64.0 L 300.0 64.0 L 300.0 64.0 L 300.0 64.0 L 300.0 64.0 L 300.0 64.0 L 300.0 64.0 L 300.0 64.0 L 300.0 64.0 L 300.0 64.0 L 300.0 64.0 L 300.0 64.0 L 300.0 64.0 L 300.0 64.0 L 300.0 64.0 L 300.0 64.0 L 300.0 64.0 L 300.0 64.0 L 300.0 64.0 L 300.0 64.0 L 300.0 64.0 L 300.0 64.0 L 300.0 64.0 L 300.0 64.0 L 300.0 64.0 L 300.0 64.0 L 300.0 64.0 L 300.0 64.0 L 279.1 84.9 L 257.9 107.6 L 236.6 132.0 L 215.3 158.0 L 194.1 185.8 L 192.1 192.5 L 190.6 199.1 L 189.5 205.5 L 188.8 211.6 L 188.4 217.6 L 188.4 223.4 L 188.7 229.0 L 189.4 234.3 L 190.2 239.7 L 191.3 244.9 L 192.6 250.0 L 194.1 255.1 L 195.7 260.2 L 197.5 265.2 L 199.5 270.0 L 201.7 274.8 L 204.1 279.4 L 206.7 283.9 L 209.4 288.1 L 212.3 292.3 L 215.4 296.3 L 218.7 300.0 L 222.2 303.5 L 225.7 306.9 L 229.4 310.2 L 233.2 313.3 L 237.1 316.4 L 241.0 319.4 L 245.1 322.2 L 249.3 324.8 L 253.6 327.1 L 258.0 329.2 L 262.5 330.8 L 267.1 332.0 L 271.7 332.9 L 276.4 333.5 L 281.1 333.8 L 285.9 333.9 L 290.6 334.5 L 295.3 334.7 L 300.0 334.9 L 304.7 334.7 L 309.4 334.5 L 314.1 333.9 L 318.9 333.8 L 323.6 333.5 L 328.3 332.9 L 332.9 332.0 L 337.5 330.8 L 342.0 329.2 L 346.4 327.1 L 350.7 324.8 L 354.9 322.2 L 359.0 319.4 L 362.9 316.4 L 366.8 313.3 L 370.6 310.2 L 374.3 306.9 L 377.8 303.5 L 381.3 300.0 L 384.6 296.3 L 387.7 292.3 L 390.6 288.1 L 393.3 283.9 L 395.9 279.4 L 398.3 274.8 L 400.5 270.0 L 402.5 265.2 L 404.3 260.2 L 405.9 255.1 L 407.4 250.0 L 408.7 244.9 L 409.8 239.7 L 410.6 234.3 L 411.3 229.0 L 411.6 223.4 L 411.6 217.6 L 411.2 211.6 L 410.5 205.5 L 409.4 199.1 L 407.9 192.5 L 405.9 185.8 L 384.7 158.0 L 363.4 132.0 L 342.1 107.6 L 320.9 84.9 L 300.0 64.0 L 300.0 64.0 L 300.0 64.0 L 300.0 64.0 L 300.0 64.0 L 300.0 64.0 L 300.0 64.0 L 300.0 64.0 L 300.0 64.0 L 300.0 64.0 L 300.0 64.0 L 300.0 64.0 L 300.0 64.0 L 300.0 64.0 L 300.0 64.0 L 300.0 64.0 L 300.0 64.0 L 300.0 64.0 L 300.0 64.0 L 300.0 64.0 L 300.0 64.0 L 300.0 64.0 L 300.0 64.0 L 300.0 64.0 L 300.0 64.0 L 300.0 64.0 L 300.0 64.0 L 300.0 64.0 L 300.0 64.0 L 300.0 64.0 L 300.0 64.0 L 300.0 64.0 L 300.0 64.0 L 300.0 64.0 L 300.0 64.0 L 300.0 64.0 L 300.0 64.0 L 300.0 64.0 L 300.0 64.0 L 300.0 64.0 L 300.0 64.0 L 300.0 64.0 L 300.0 64.0 L 300.0 64.0 L 300.0 64.0" fill="none" stroke="#3FA9F5" stroke-width="1.7" stroke-linejoin="round" stroke-linecap="round"/>
<path d="M 298.3 64.0 L 298.3 64.0 L 298.3 64.1 L 298.2 64.1 L 298.2 64.1 L 298.1 64.2 L 298.1 64.2 L 298.1 64.2 L 298.0 64.3 L 298.0 64.3 L 297.9 64.4 L 297.9 64.4 L 297.9 64.5 L 297.9 64.5 L 297.9 64.5 L 298.0 64.5 L 298.1 64.6 L 296.3 65.1 L 294.1 65.9 L 291.3 67.0 L 287.7 68.5 L 283.8 70.2 L 281.4 71.5 L 278.7 73.0 L 276.1 74.7 L 274.1 76.1 L 271.6 77.8 L 268.9 79.9 L 266.1 82.0 L 262.9 84.6 L 259.3 87.5 L 255.7 90.6 L 252.1 93.9 L 247.9 97.8 L 243.9 101.8 L 239.7 106.2 L 235.4 110.9 L 230.9 116.1 L 226.6 121.3 L 222.4 126.9 L 218.0 132.8 L 213.7 139.0 L 209.7 145.3 L 205.8 151.8 L 202.1 158.5 L 198.7 165.3 L 195.7 172.0 L 193.1 178.6 L 190.8 185.3 L 188.9 191.8 L 187.4 198.2 L 186.3 204.5 L 185.5 210.5 L 185.2 216.4 L 185.1 222.2 L 185.3 227.8 L 185.9 233.2 L 186.5 238.7 L 187.5 244.1 L 188.7 249.3 L 190.1 254.4 L 191.6 259.6 L 193.3 264.6 L 195.3 269.5 L 197.4 274.4 L 199.6 279.3 L 202.0 284.0 L 204.7 288.6 L 207.5 293.0 L 210.5 297.2 L 213.6 301.3 L 216.9 305.2 L 220.4 309.0 L 224.0 312.6 L 227.8 315.9 L 231.7 319.0 L 235.7 321.9 L 239.8 324.6 L 244.1 327.0 L 248.4 329.3 L 252.9 331.3 L 257.4 332.9 L 262.0 334.3 L 266.7 335.4 L 271.4 336.2 L 276.1 336.7 L 280.9 337.0 L 285.7 337.2 L 290.5 337.2 L 295.2 337.2 L 300.0 337.1 L 304.8 337.2 L 309.5 337.2 L 314.3 337.2 L 319.1 337.0 L 323.9 336.7 L 328.6 336.2 L 333.3 335.4 L 338.0 334.3 L 342.6 332.9 L 347.1 331.3 L 351.6 329.3 L 355.9 327.0 L 360.2 324.6 L 364.3 321.9 L 368.3 319.0 L 372.2 315.9 L 376.0 312.6 L 379.6 309.0 L 383.1 305.2 L 386.4 301.3 L 389.5 297.2 L 392.5 293.0 L 395.3 288.6 L 398.0 284.0 L 400.4 279.3 L 402.6 274.4 L 404.7 269.5 L 406.7 264.6 L 408.4 259.6 L 409.9 254.4 L 411.3 249.3 L 412.5 244.1 L 413.5 238.7 L 414.1 233.2 L 414.7 227.8 L 414.9 222.2 L 414.8 216.4 L 414.5 210.5 L 413.7 204.5 L 412.6 198.2 L 411.1 191.8 L 409.2 185.3 L 406.9 178.6 L 404.3 172.0 L 401.3 165.3 L 397.9 158.5 L 394.2 151.8 L 390.3 145.3 L 386.3 139.0 L 382.0 132.8 L 377.6 126.9 L 373.4 121.3 L 369.1 116.1 L 364.6 110.9 L 360.3 106.2 L 356.1 101.8 L 352.1 97.8 L 347.9 93.9 L 344.3 90.6 L 340.7 87.5 L 337.1 84.6 L 333.9 82.0 L 331.1 79.9 L 328.4 77.8 L 325.9 76.1 L 323.9 74.7 L 321.3 73.0 L 318.6 71.5 L 316.2 70.2 L 312.3 68.5 L 308.7 67.0 L 305.9 65.9 L 303.7 65.1 L 301.9 64.6 L 302.0 64.5 L 302.1 64.5 L 302.1 64.5 L 302.1 64.5 L 302.1 64.4 L 302.1 64.4 L 302.0 64.3 L 302.0 64.3 L 301.9 64.2 L 301.9 64.2 L 301.9 64.2 L 301.8 64.1 L 301.8 64.1 L 301.7 64.1 L 301.7 64.0 L 301.7 64.0" fill="none" stroke="#F32740" stroke-width="2.0" stroke-linejoin="round" stroke-linecap="round"/>
<text x="362" y="103" fill="#F32740" font-size="9.5" font-weight="700">124</text>
<text x="404" y="159" fill="#F32740" font-size="9.5" font-weight="700">248</text>
<text x="420" y="234" fill="#F32740" font-size="9.5" font-weight="700">372</text>
<text x="350" y="333" fill="#F32740" font-size="9.5" font-weight="700">496</text>
<rect x="274.0" y="58" width="52" height="11" rx="1.5" fill="#fafbfc" stroke="rgba(255,255,255,0.4)" stroke-width="0.5"/>
<line x1="272.0" y1="69.8" x2="328.0" y2="69.8" stroke="#F32740" stroke-width="0.7" stroke-dasharray="1.5 2"/>
<g transform="translate(22, 434)">
<text x="0" y="-8" fill="rgba(255,255,255,0.55)" font-size="8" letter-spacing="1.4">cd/klm</text>
<line x1="0" y1="6" x2="22" y2="6" stroke="#F32740" stroke-width="2.2"/>
<text x="28" y="9" fill="rgba(255,255,255,0.7)" font-size="9.5">C0 – C180</text>
<line x1="120" y1="6" x2="142" y2="6" stroke="#3FA9F5" stroke-width="1.7"/>
<text x="148" y="9" fill="rgba(255,255,255,0.7)" font-size="9.5">C90 – C270</text>
</g>
<text x="578" y="416" fill="rgba(255,255,255,0.45)" font-size="9" text-anchor="end">η = 100%</text>
<text x="578" y="434" fill="rgba(255,255,255,0.55)" font-size="8" letter-spacing="1.4" text-anchor="end">PEAK INTENSITY</text>
<text x="578" y="451" fill="#fff" font-weight="700" font-size="14" text-anchor="end">47,102 cd</text>
</svg>