<svg viewBox="0 0 600 460" xmlns="http://www.w3.org/2000/svg" font-family="JetBrains Mono, monospace" font-size="9.5">
<rect width="100%" height="100%" fill="#14171b"/>
<text x="22" y="26" fill="#F32740" font-weight="700" letter-spacing="2">LSPL600 · 55° OPTIC</text>
<text x="22" y="42" fill="rgba(255,255,255,0.55)" font-size="8" letter-spacing="1.4">LUMINOUS INTENSITY DISTRIBUTION (cd/klm)</text>
<path d="M 232.0 64.0 A 68.0 68.0 0 0 0 368.0 64.0" fill="none" stroke="rgba(120,200,200,0.18)" stroke-width="0.7"/>
<path d="M 164.0 64.0 A 136.0 136.0 0 0 0 436.0 64.0" fill="none" stroke="rgba(120,200,200,0.18)" stroke-width="0.7"/>
<path d="M 96.0 64.0 A 204.0 204.0 0 0 0 504.0 64.0" fill="none" stroke="rgba(120,200,200,0.18)" stroke-width="0.7"/>
<path d="M 28.0 64.0 A 272.0 272.0 0 0 0 572.0 64.0" fill="none" stroke="rgba(120,200,200,0.18)" stroke-width="0.7"/>
<path d="M -40.0 64.0 A 340.0 340.0 0 0 0 640.0 64.0" fill="none" stroke="rgba(120,200,200,0.18)" stroke-width="0.7"/>
<line x1="300.0" y1="64" x2="388.0" y2="392.4" stroke="rgba(120,200,200,0.10)" stroke-width="0.5"/>
<line x1="300.0" y1="64" x2="212.0" y2="392.4" stroke="rgba(120,200,200,0.10)" stroke-width="0.5"/>
<line x1="300.0" y1="64" x2="470.0" y2="358.4" stroke="rgba(120,200,200,0.10)" stroke-width="0.5"/>
<line x1="300.0" y1="64" x2="130.0" y2="358.4" stroke="rgba(120,200,200,0.10)" stroke-width="0.5"/>
<line x1="300.0" y1="64" x2="540.4" y2="304.4" stroke="rgba(120,200,200,0.10)" stroke-width="0.5"/>
<line x1="300.0" y1="64" x2="59.6" y2="304.4" stroke="rgba(120,200,200,0.10)" stroke-width="0.5"/>
<line x1="300.0" y1="64" x2="594.4" y2="234.0" stroke="rgba(120,200,200,0.10)" stroke-width="0.5"/>
<line x1="300.0" y1="64" x2="5.6" y2="234.0" stroke="rgba(120,200,200,0.10)" stroke-width="0.5"/>
<line x1="300.0" y1="64" x2="628.4" y2="152.0" stroke="rgba(120,200,200,0.10)" stroke-width="0.5"/>
<line x1="300.0" y1="64" x2="-28.4" y2="152.0" stroke="rgba(120,200,200,0.10)" stroke-width="0.5"/>
<line x1="300.0" y1="64" x2="640.0" y2="64.0" stroke="rgba(120,200,200,0.10)" stroke-width="0.5"/>
<line x1="300.0" y1="64" x2="-40.0" y2="64.0" stroke="rgba(120,200,200,0.10)" stroke-width="0.5"/>
<line x1="300.0" y1="64" x2="300.0" y2="404" stroke="rgba(120,200,200,0.14)" stroke-width="0.5"/>
<line x1="-40.0" y1="64" x2="640.0" y2="64" stroke="rgba(120,200,200,0.14)" stroke-width="0.5"/>
<text x="391.6" y="408.9" text-anchor="middle" fill="rgba(255,255,255,0.4)" font-size="9">15°</text>
<text x="208.4" y="408.9" text-anchor="middle" fill="rgba(255,255,255,0.4)" font-size="9">15°</text>
<text x="477.0" y="373.6" text-anchor="middle" fill="rgba(255,255,255,0.6)" font-size="9">30°</text>
<text x="123.0" y="373.6" text-anchor="middle" fill="rgba(255,255,255,0.6)" font-size="9">30°</text>
<text x="550.3" y="317.3" text-anchor="middle" fill="rgba(255,255,255,0.4)" font-size="9">45°</text>
<text x="49.7" y="317.3" text-anchor="middle" fill="rgba(255,255,255,0.4)" font-size="9">45°</text>
<text x="606.6" y="244.0" text-anchor="middle" fill="rgba(255,255,255,0.6)" font-size="9">60°</text>
<text x="-6.6" y="244.0" text-anchor="middle" fill="rgba(255,255,255,0.6)" font-size="9">60°</text>
<text x="641.9" y="158.6" text-anchor="middle" fill="rgba(255,255,255,0.4)" font-size="9">75°</text>
<text x="-41.9" y="158.6" text-anchor="middle" fill="rgba(255,255,255,0.4)" font-size="9">75°</text>
<text x="654.0" y="67.0" text-anchor="middle" fill="rgba(255,255,255,0.6)" font-size="9">90°</text>
<text x="-54.0" y="67.0" text-anchor="middle" fill="rgba(255,255,255,0.6)" font-size="9">90°</text>
<text x="300.0" y="422" text-anchor="middle" fill="rgba(255,255,255,0.6)" font-size="9">0°</text>
<path d="M 300.0 64.0 L 300.0 64.0 L 300.0 64.0 L 300.0 64.0 L 300.0 64.0 L 300.0 64.0 L 300.0 64.0 L 300.0 64.0 L 300.0 64.0 L 300.0 64.0 L 300.0 64.0 L 300.0 64.0 L 300.0 64.0 L 300.0 64.0 L 300.0 64.0 L 300.0 64.0 L 300.0 64.0 L 300.0 64.0 L 300.0 64.0 L 300.0 64.0 L 300.0 64.0 L 300.0 64.0 L 300.0 64.0 L 300.0 64.0 L 300.0 64.0 L 300.0 64.0 L 300.0 64.0 L 300.0 64.0 L 300.0 64.0 L 300.0 64.0 L 300.0 64.0 L 300.0 64.0 L 300.0 64.0 L 300.0 64.0 L 300.0 64.0 L 300.0 64.0 L 300.0 64.0 L 298.1 65.5 L 296.1 67.1 L 293.1 69.6 L 289.2 73.1 L 284.4 77.6 L 281.3 80.8 L 278.1 84.4 L 275.8 87.4 L 274.1 89.9 L 273.0 92.0 L 271.6 94.5 L 270.1 97.2 L 268.2 100.5 L 266.4 104.0 L 264.5 107.8 L 262.6 111.8 L 260.6 116.3 L 258.6 121.0 L 256.2 126.5 L 253.9 132.3 L 251.5 138.6 L 249.3 145.2 L 246.9 152.3 L 244.6 159.9 L 242.5 167.8 L 240.5 175.9 L 238.6 184.5 L 237.1 193.0 L 235.7 201.8 L 234.7 210.6 L 234.0 219.4 L 233.6 228.4 L 233.5 237.3 L 233.8 245.8 L 234.4 254.5 L 235.3 263.0 L 236.7 271.0 L 238.4 278.9 L 240.4 286.5 L 242.8 293.4 L 245.6 299.8 L 248.6 305.8 L 251.9 311.3 L 255.5 316.2 L 259.3 320.7 L 263.4 324.6 L 267.6 327.9 L 272.0 330.8 L 276.4 333.2 L 281.0 335.0 L 285.7 336.3 L 290.5 337.0 L 295.2 337.4 L 300.0 337.5 L 304.8 337.4 L 309.5 337.0 L 314.3 336.3 L 319.0 335.0 L 323.6 333.2 L 328.0 330.8 L 332.4 327.9 L 336.6 324.6 L 340.7 320.7 L 344.5 316.2 L 348.1 311.3 L 351.4 305.8 L 354.4 299.8 L 357.2 293.4 L 359.6 286.5 L 361.6 278.9 L 363.3 271.0 L 364.7 263.0 L 365.6 254.5 L 366.2 245.8 L 366.5 237.3 L 366.4 228.4 L 366.0 219.4 L 365.3 210.6 L 364.3 201.8 L 362.9 193.0 L 361.4 184.5 L 359.5 175.9 L 357.5 167.8 L 355.4 159.9 L 353.1 152.3 L 350.7 145.2 L 348.5 138.6 L 346.1 132.3 L 343.8 126.5 L 341.4 121.0 L 339.4 116.3 L 337.4 111.8 L 335.5 107.8 L 333.6 104.0 L 331.8 100.5 L 329.9 97.2 L 328.4 94.5 L 327.0 92.0 L 325.9 89.9 L 324.2 87.4 L 321.9 84.4 L 318.7 80.8 L 315.6 77.6 L 310.8 73.1 L 306.9 69.6 L 303.9 67.1 L 301.9 65.5 L 300.0 64.0 L 300.0 64.0 L 300.0 64.0 L 300.0 64.0 L 300.0 64.0 L 300.0 64.0 L 300.0 64.0 L 300.0 64.0 L 300.0 64.0 L 300.0 64.0 L 300.0 64.0 L 300.0 64.0 L 300.0 64.0 L 300.0 64.0 L 300.0 64.0 L 300.0 64.0 L 300.0 64.0 L 300.0 64.0 L 300.0 64.0 L 300.0 64.0 L 300.0 64.0 L 300.0 64.0 L 300.0 64.0 L 300.0 64.0 L 300.0 64.0 L 300.0 64.0 L 300.0 64.0 L 300.0 64.0 L 300.0 64.0 L 300.0 64.0 L 300.0 64.0 L 300.0 64.0 L 300.0 64.0 L 300.0 64.0 L 300.0 64.0 L 300.0 64.0 L 300.0 64.0" fill="none" stroke="#3FA9F5" stroke-width="1.7" stroke-linejoin="round" stroke-linecap="round"/>
<path d="M 297.7 64.0 L 297.7 64.0 L 297.7 64.1 L 297.6 64.1 L 297.6 64.2 L 297.5 64.2 L 297.5 64.3 L 297.4 64.3 L 297.4 64.4 L 297.3 64.4 L 296.9 64.6 L 296.4 64.7 L 296.0 64.8 L 295.4 65.1 L 294.8 65.3 L 294.4 65.5 L 293.7 65.8 L 292.7 66.2 L 292.1 66.6 L 291.2 67.0 L 290.7 67.4 L 290.3 67.7 L 290.0 68.1 L 289.5 68.4 L 289.1 68.9 L 288.4 69.4 L 287.8 69.9 L 287.3 70.5 L 286.6 71.1 L 286.1 71.7 L 285.6 72.3 L 285.1 73.0 L 284.6 73.6 L 284.2 74.3 L 283.7 75.0 L 283.1 75.9 L 282.4 76.8 L 281.7 77.8 L 281.1 78.8 L 280.3 79.9 L 279.7 81.1 L 278.9 82.4 L 278.0 83.8 L 277.1 85.4 L 276.0 87.1 L 274.9 89.1 L 273.8 91.2 L 272.4 93.6 L 271.1 96.1 L 269.5 99.1 L 267.7 102.5 L 265.9 106.1 L 264.1 110.0 L 262.1 114.2 L 260.1 118.9 L 258.1 123.9 L 256.0 129.2 L 253.8 135.1 L 251.6 141.4 L 249.5 148.0 L 247.6 154.8 L 245.7 161.9 L 244.1 169.1 L 242.6 176.7 L 241.3 184.4 L 240.1 192.5 L 239.2 200.6 L 238.6 208.7 L 238.2 216.9 L 238.2 224.9 L 238.5 232.8 L 239.1 240.9 L 239.9 248.9 L 241.0 256.9 L 242.5 264.6 L 244.1 272.4 L 246.2 280.0 L 248.4 287.4 L 251.0 294.5 L 253.9 301.4 L 257.0 307.7 L 260.5 313.6 L 264.2 318.8 L 268.2 323.1 L 272.3 327.1 L 276.7 330.5 L 281.2 333.0 L 285.8 334.8 L 290.5 336.2 L 295.2 336.8 L 300.0 337.0 L 304.8 336.8 L 309.5 336.2 L 314.2 334.8 L 318.8 333.0 L 323.3 330.5 L 327.7 327.1 L 331.8 323.1 L 335.8 318.8 L 339.5 313.6 L 343.0 307.7 L 346.1 301.4 L 349.0 294.5 L 351.6 287.4 L 353.8 280.0 L 355.9 272.4 L 357.5 264.6 L 359.0 256.9 L 360.1 248.9 L 360.9 240.9 L 361.5 232.8 L 361.8 224.9 L 361.8 216.9 L 361.4 208.7 L 360.8 200.6 L 359.9 192.5 L 358.7 184.4 L 357.4 176.7 L 355.9 169.1 L 354.3 161.9 L 352.4 154.8 L 350.5 148.0 L 348.4 141.4 L 346.2 135.1 L 344.0 129.2 L 341.9 123.9 L 339.9 118.9 L 337.9 114.2 L 335.9 110.0 L 334.1 106.1 L 332.3 102.5 L 330.5 99.1 L 328.9 96.1 L 327.6 93.6 L 326.2 91.2 L 325.1 89.1 L 324.0 87.1 L 322.9 85.4 L 322.0 83.8 L 321.1 82.4 L 320.3 81.1 L 319.7 79.9 L 318.9 78.8 L 318.3 77.8 L 317.6 76.8 L 316.9 75.9 L 316.3 75.0 L 315.8 74.3 L 315.4 73.6 L 314.9 73.0 L 314.4 72.3 L 313.9 71.7 L 313.4 71.1 L 312.7 70.5 L 312.2 69.9 L 311.6 69.4 L 310.9 68.9 L 310.5 68.4 L 310.0 68.1 L 309.7 67.7 L 309.3 67.4 L 308.8 67.0 L 307.9 66.6 L 307.3 66.2 L 306.3 65.8 L 305.6 65.5 L 305.2 65.3 L 304.6 65.1 L 304.0 64.8 L 303.6 64.7 L 303.1 64.6 L 302.7 64.4 L 302.6 64.4 L 302.6 64.3 L 302.5 64.3 L 302.5 64.2 L 302.4 64.2 L 302.4 64.1 L 302.3 64.1 L 302.3 64.0 L 302.3 64.0" fill="none" stroke="#F32740" stroke-width="2.0" stroke-linejoin="round" stroke-linecap="round"/>
<text x="346" y="120" fill="#F32740" font-size="9.5" font-weight="700">282</text>
<text x="365" y="188" fill="#F32740" font-size="9.5" font-weight="700">564</text>
<text x="365" y="260" fill="#F32740" font-size="9.5" font-weight="700">846</text>
<text x="317" y="337" fill="#F32740" font-size="9.5" font-weight="700">1128</text>
<rect x="274.0" y="58" width="52" height="11" rx="1.5" fill="#fafbfc" stroke="rgba(255,255,255,0.4)" stroke-width="0.5"/>
<line x1="272.0" y1="69.8" x2="328.0" y2="69.8" stroke="#F32740" stroke-width="0.7" stroke-dasharray="1.5 2"/>
<g transform="translate(22, 434)">
<text x="0" y="-8" fill="rgba(255,255,255,0.55)" font-size="8" letter-spacing="1.4">cd/klm</text>
<line x1="0" y1="6" x2="22" y2="6" stroke="#F32740" stroke-width="2.2"/>
<text x="28" y="9" fill="rgba(255,255,255,0.7)" font-size="9.5">C0 – C180</text>
<line x1="120" y1="6" x2="142" y2="6" stroke="#3FA9F5" stroke-width="1.7"/>
<text x="148" y="9" fill="rgba(255,255,255,0.7)" font-size="9.5">C90 – C270</text>
</g>
<text x="578" y="416" fill="rgba(255,255,255,0.45)" font-size="9" text-anchor="end">η = 100%</text>
<text x="578" y="434" fill="rgba(255,255,255,0.55)" font-size="8" letter-spacing="1.4" text-anchor="end">PEAK INTENSITY</text>
<text x="578" y="451" fill="#fff" font-weight="700" font-size="14" text-anchor="end">102,154 cd</text>
</svg>