<svg xmlns="http://www.w3.org/2000/svg" viewBox="0 0 400 400" fill="none">
  <!-- Placeholder cyber-grid — Rooster Creative to deliver final art -->
  <g opacity="0.07" stroke="#00d4ff" stroke-width="0.5">
    <!-- Horizontal grid lines -->
    <line x1="0" y1="40" x2="400" y2="40"/>
    <line x1="0" y1="80" x2="400" y2="80"/>
    <line x1="0" y1="120" x2="400" y2="120"/>
    <line x1="0" y1="160" x2="400" y2="160"/>
    <line x1="0" y1="200" x2="400" y2="200"/>
    <line x1="0" y1="240" x2="400" y2="240"/>
    <line x1="0" y1="280" x2="400" y2="280"/>
    <line x1="0" y1="320" x2="400" y2="320"/>
    <line x1="0" y1="360" x2="400" y2="360"/>
    <!-- Vertical grid lines -->
    <line x1="40" y1="0" x2="40" y2="400"/>
    <line x1="80" y1="0" x2="80" y2="400"/>
    <line x1="120" y1="0" x2="120" y2="400"/>
    <line x1="160" y1="0" x2="160" y2="400"/>
    <line x1="200" y1="0" x2="200" y2="400"/>
    <line x1="240" y1="0" x2="240" y2="400"/>
    <line x1="280" y1="0" x2="280" y2="400"/>
    <line x1="320" y1="0" x2="320" y2="400"/>
    <line x1="360" y1="0" x2="360" y2="400"/>
    <!-- Perspective vanishing lines -->
    <line x1="200" y1="200" x2="0" y2="400" stroke="#ff2dd0" opacity="0.5"/>
    <line x1="200" y1="200" x2="400" y2="400" stroke="#ff2dd0" opacity="0.5"/>
    <line x1="200" y1="200" x2="0" y2="0" stroke="#00d4ff" opacity="0.3"/>
    <line x1="200" y1="200" x2="400" y2="0" stroke="#00d4ff" opacity="0.3"/>
  </g>
</svg>
