<svg xmlns="http://www.w3.org/2000/svg" viewBox="0 0 480 360" font-family="JetBrains Mono, monospace">
  <rect width="480" height="360" fill="#22262b"/>
  <text x="240.0" y="22" font-size="11" font-weight="700" fill="rgba(255,255,255,0.85)" text-anchor="middle">LSBX300 · Type-4</text>
  <text x="240.0" y="36" font-size="9" fill="rgba(255,255,255,0.55)" text-anchor="middle">peak 12590 cd · 43007 lm · 147 lm/W</text>
  <line x1="100.0" y1="198.00000000000003" x2="380.0" y2="198.00000000000003" stroke="rgba(255,255,255,0.18)" stroke-width="0.8"/>
  <path d="M 207.5 198.00000000000003 A 32.5 32.5 0 0 0 272.5 198.00000000000003" fill="none" stroke="rgba(255,255,255,0.10)" stroke-width="0.8"/><text x="276.5" y="201.00000000000003" font-size="8" fill="rgba(255,255,255,0.45)" font-family="JetBrains Mono, monospace">3147</text><path d="M 175.0 198.00000000000003 A 65.0 65.0 0 0 0 305.0 198.00000000000003" fill="none" stroke="rgba(255,255,255,0.10)" stroke-width="0.8"/><text x="309.0" y="201.00000000000003" font-size="8" fill="rgba(255,255,255,0.45)" font-family="JetBrains Mono, monospace">6295</text><path d="M 142.5 198.00000000000003 A 97.5 97.5 0 0 0 337.5 198.00000000000003" fill="none" stroke="rgba(255,255,255,0.10)" stroke-width="0.8"/><text x="341.5" y="201.00000000000003" font-size="8" fill="rgba(255,255,255,0.45)" font-family="JetBrains Mono, monospace">9442</text><path d="M 110.0 198.00000000000003 A 130.0 130.0 0 0 0 370.0 198.00000000000003" fill="none" stroke="rgba(255,255,255,0.10)" stroke-width="0.8"/><text x="374.0" y="201.00000000000003" font-size="8" fill="rgba(255,255,255,0.45)" font-family="JetBrains Mono, monospace">12590</text>
  <line x1="240.0" y1="198.00000000000003" x2="240.0" y2="328.0" stroke="rgba(255,255,255,0.08)" stroke-width="0.6"/><text x="240" y="338" font-size="9" fill="rgba(255,255,255,0.55)" font-family="JetBrains Mono, monospace" text-anchor="middle">0°</text><line x1="240.0" y1="198.00000000000003" x2="305.0" y2="310.6" stroke="rgba(255,255,255,0.08)" stroke-width="0.6"/><text x="305" y="321" font-size="9" fill="rgba(255,255,255,0.55)" font-family="JetBrains Mono, monospace" text-anchor="middle">30°</text><line x1="240.0" y1="198.00000000000003" x2="175.0" y2="310.6" stroke="rgba(255,255,255,0.08)" stroke-width="0.6"/><text x="175" y="321" font-size="9" fill="rgba(255,255,255,0.55)" font-family="JetBrains Mono, monospace" text-anchor="middle">30°</text><line x1="240.0" y1="198.00000000000003" x2="352.6" y2="263.0" stroke="rgba(255,255,255,0.08)" stroke-width="0.6"/><text x="353" y="273" font-size="9" fill="rgba(255,255,255,0.55)" font-family="JetBrains Mono, monospace" text-anchor="middle">60°</text><line x1="240.0" y1="198.00000000000003" x2="127.4" y2="263.0" stroke="rgba(255,255,255,0.08)" stroke-width="0.6"/><text x="127" y="273" font-size="9" fill="rgba(255,255,255,0.55)" font-family="JetBrains Mono, monospace" text-anchor="middle">60°</text><line x1="240.0" y1="198.00000000000003" x2="370.0" y2="198.0" stroke="rgba(255,255,255,0.08)" stroke-width="0.6"/><text x="370" y="208" font-size="9" fill="rgba(255,255,255,0.55)" font-family="JetBrains Mono, monospace" text-anchor="middle">90°</text><line x1="240.0" y1="198.00000000000003" x2="110.0" y2="198.0" stroke="rgba(255,255,255,0.08)" stroke-width="0.6"/><text x="110" y="208" font-size="9" fill="rgba(255,255,255,0.55)" font-family="JetBrains Mono, monospace" text-anchor="middle">90°</text>
  <path d="M 240.0 279.8 L 240.7 279.9 L 241.4 280.1 L 242.2 280.2 L 242.9 280.3 L 243.6 280.5 L 244.3 280.6 L 245.1 280.7 L 245.8 280.9 L 246.5 281.0 L 247.3 281.1 L 248.0 281.3 L 248.8 281.4 L 249.5 281.5 L 250.3 281.6 L 251.0 281.8 L 251.8 281.9 L 252.6 282.0 L 253.3 282.1 L 254.1 282.3 L 254.9 282.4 L 255.7 282.5 L 256.4 282.6 L 257.2 282.7 L 258.0 282.8 L 258.8 282.8 L 259.6 283.0 L 260.4 283.1 L 261.2 283.2 L 262.1 283.3 L 262.9 283.4 L 263.7 283.5 L 264.5 283.6 L 265.4 283.7 L 266.2 283.8 L 267.1 283.8 L 267.9 283.9 L 268.8 284.0 L 269.6 284.0 L 270.5 284.1 L 271.3 284.1 L 272.2 284.2 L 273.1 284.2 L 274.0 284.2 L 274.9 284.3 L 275.7 284.3 L 276.7 284.4 L 277.6 284.4 L 278.5 284.4 L 279.4 284.5 L 280.4 284.5 L 281.3 284.6 L 282.2 284.6 L 283.2 284.7 L 284.2 284.8 L 285.2 284.8 L 286.2 284.9 L 287.2 285.0 L 288.3 285.2 L 289.4 285.3 L 290.5 285.4 L 291.6 285.6 L 292.7 285.8 L 293.9 286.0 L 295.2 286.3 L 296.4 286.5 L 297.6 286.8 L 298.9 287.0 L 300.2 287.3 L 301.6 287.6 L 302.9 287.9 L 304.3 288.1 L 305.7 288.4 L 307.0 288.5 L 308.4 288.7 L 309.7 288.9 L 311.0 288.8 L 312.2 288.7 L 313.4 288.7 L 314.5 288.4 L 315.6 288.1 L 316.6 287.7 L 317.6 287.3 L 318.4 286.7 L 319.3 286.0 L 320.0 285.3 L 320.7 284.5 L 321.3 283.7 L 322.0 282.9 L 322.5 281.9 L 322.9 280.9 L 323.3 279.9 L 323.7 278.8 L 323.9 277.7 L 324.2 276.5 L 324.3 275.3 L 324.4 274.0 L 324.6 272.8 L 324.6 271.5 L 324.5 270.2 L 324.4 268.8 L 324.3 267.5 L 324.2 266.2 L 323.9 264.8 L 323.6 263.4 L 323.4 262.0 L 323.2 260.7 L 322.9 259.3 L 322.4 257.8 L 322.0 256.5 L 321.6 255.1 L 321.2 253.8 L 320.6 252.4 L 320.1 251.0 L 319.5 249.7 L 318.9 248.3 L 318.3 246.9 L 317.7 245.6 L 316.9 244.2 L 316.2 242.9 L 315.3 241.5 L 314.4 240.1 L 313.5 238.7 L 312.5 237.3 L 311.4 236.0 L 310.3 234.6 L 309.1 233.2 L 307.7 231.8 L 306.2 230.3 L 304.7 228.8 L 303.0 227.4 L 301.2 225.9 L 299.3 224.4 L 297.4 223.0 L 295.4 221.5 L 293.4 220.1 L 291.3 218.7 L 289.1 217.4 L 287.1 216.1 L 285.1 214.9 L 283.1 213.7 L 281.3 212.6 L 279.4 211.6 L 277.6 210.6 L 276.0 209.7 L 274.4 208.8 L 272.8 208.0 L 271.3 207.3 L 269.9 206.6 L 268.6 205.9 L 267.3 205.3 L 266.1 204.8 L 265.0 204.2 L 263.9 203.7 L 262.7 203.2 L 262.0 202.9 L 260.8 202.4 L 259.7 202.0 L 258.6 201.6 L 257.4 201.2 L 256.4 200.9 L 255.3 200.6 L 254.3 200.3 L 253.3 200.0 L 252.3 199.7 L 251.3 199.5 L 250.3 199.3 L 249.3 199.1 L 248.3 198.9 L 247.3 198.7 L 246.3 198.6 L 245.3 198.4 L 244.4 198.3 L 243.5 198.2 L 242.6 198.1 L 242.0 198.1 L 241.4 198.0 L 240.8 198.0 L 240.2 198.0 L 240.1 198.0 L 240.1 198.0" fill="none" stroke="#F32740" stroke-width="2" stroke-linejoin="round"/>
  <path d="M 240.0 279.8 L 240.7 279.8 L 241.4 279.7 L 242.1 279.7 L 242.9 279.6 L 243.6 279.6 L 244.3 279.6 L 245.0 279.5 L 245.7 279.4 L 246.4 279.4 L 247.1 279.4 L 247.8 279.3 L 248.5 279.2 L 249.2 279.2 L 250.0 279.1 L 250.7 279.0 L 251.4 278.9 L 252.1 278.9 L 252.8 278.8 L 253.5 278.7 L 254.2 278.6 L 254.9 278.6 L 255.7 278.5 L 256.4 278.5 L 257.1 278.4 L 257.8 278.4 L 258.5 278.3 L 259.3 278.3 L 260.0 278.3 L 260.7 278.2 L 261.5 278.2 L 262.3 278.3 L 263.0 278.2 L 263.8 278.3 L 264.6 278.3 L 265.3 278.3 L 266.1 278.4 L 266.9 278.5 L 267.7 278.5 L 268.5 278.5 L 269.3 278.6 L 270.1 278.6 L 271.0 278.6 L 271.8 278.6 L 272.6 278.7 L 273.4 278.7 L 274.3 278.7 L 275.1 278.7 L 275.9 278.7 L 276.8 278.7 L 277.6 278.7 L 278.5 278.7 L 279.3 278.6 L 280.2 278.5 L 281.0 278.5 L 281.9 278.4 L 282.7 278.4 L 283.6 278.3 L 284.4 278.2 L 285.3 278.1 L 286.2 278.0 L 287.1 278.0 L 288.0 277.9 L 288.9 277.8 L 289.8 277.7 L 290.7 277.6 L 291.6 277.4 L 292.5 277.3 L 293.4 277.2 L 294.4 277.1 L 295.3 277.0 L 296.3 276.9 L 297.3 276.8 L 298.2 276.7 L 299.2 276.6 L 300.1 276.4 L 301.1 276.2 L 302.1 276.0 L 303.0 275.8 L 303.9 275.6 L 304.9 275.3 L 305.7 275.0 L 306.6 274.6 L 307.5 274.3 L 308.3 273.9 L 309.1 273.4 L 309.9 273.0 L 310.7 272.5 L 311.4 271.9 L 312.1 271.3 L 312.7 270.7 L 313.4 270.1 L 314.1 269.5 L 314.7 268.9 L 315.3 268.2 L 315.9 267.6 L 316.6 266.9 L 317.2 266.3 L 317.8 265.6 L 318.4 265.0 L 319.0 264.3 L 319.7 263.7 L 320.4 263.1 L 321.1 262.5 L 321.8 261.9 L 322.6 261.4 L 323.4 260.8 L 324.2 260.3 L 325.1 259.9 L 326.1 259.4 L 327.1 259.0 L 328.1 258.5 L 329.1 258.1 L 330.2 257.7 L 331.4 257.3 L 332.5 256.9 L 333.7 256.6 L 335.0 256.2 L 336.4 255.9 L 337.7 255.5 L 339.0 255.2 L 340.4 254.8 L 341.7 254.4 L 343.1 254.0 L 344.5 253.6 L 345.8 253.1 L 347.0 252.5 L 347.9 251.8 L 348.8 251.0 L 349.5 250.2 L 350.0 249.3 L 350.3 248.3 L 350.4 247.1 L 350.2 245.9 L 349.6 244.5 L 348.6 243.0 L 347.4 241.4 L 345.9 239.7 L 344.1 238.0 L 342.2 236.2 L 340.0 234.4 L 337.8 232.6 L 335.2 230.8 L 332.6 229.0 L 329.8 227.2 L 326.9 225.4 L 323.9 223.6 L 320.8 221.9 L 317.6 220.2 L 314.3 218.6 L 310.9 217.0 L 307.5 215.5 L 304.2 214.0 L 301.0 212.7 L 298.0 211.4 L 294.9 210.2 L 291.8 209.0 L 288.6 207.9 L 285.5 206.8 L 282.3 205.8 L 278.9 204.9 L 275.5 203.9 L 272.3 203.1 L 269.6 202.4 L 267.3 201.8 L 264.8 201.3 L 262.0 200.7 L 259.6 200.2 L 257.2 199.8 L 254.7 199.4 L 252.4 199.1 L 250.3 198.8 L 248.5 198.6 L 246.6 198.4 L 244.7 198.2 L 242.9 198.1 L 241.0 198.0 L 240.2 198.0 L 240.1 198.0 L 240.1 198.0 L 240.1 198.0" fill="none" stroke="rgba(243,39,64,0.45)" stroke-width="1.4" stroke-dasharray="4,3" stroke-linejoin="round"/>
  <text x="240.0" y="350" font-size="9" fill="rgba(255,255,255,0.45)" text-anchor="middle">— C0 plane    - - - C90 plane    LSBX-300W-277V-5K-T4.IES</text>
</svg>