<svg xmlns="http://www.w3.org/2000/svg" viewBox="0 0 480 360" font-family="JetBrains Mono, monospace">
  <rect width="480" height="360" fill="#22262b"/>
  <text x="240.0" y="22" font-size="11" font-weight="700" fill="rgba(255,255,255,0.85)" text-anchor="middle">LSBX150 · Type-2</text>
  <text x="240.0" y="36" font-size="9" fill="rgba(255,255,255,0.55)" text-anchor="middle">peak 8172 cd · 23426 lm · 156 lm/W</text>
  <line x1="100.0" y1="198.00000000000003" x2="380.0" y2="198.00000000000003" stroke="rgba(255,255,255,0.18)" stroke-width="0.8"/>
  <path d="M 207.5 198.00000000000003 A 32.5 32.5 0 0 0 272.5 198.00000000000003" fill="none" stroke="rgba(255,255,255,0.10)" stroke-width="0.8"/><text x="276.5" y="201.00000000000003" font-size="8" fill="rgba(255,255,255,0.45)" font-family="JetBrains Mono, monospace">2043</text><path d="M 175.0 198.00000000000003 A 65.0 65.0 0 0 0 305.0 198.00000000000003" fill="none" stroke="rgba(255,255,255,0.10)" stroke-width="0.8"/><text x="309.0" y="201.00000000000003" font-size="8" fill="rgba(255,255,255,0.45)" font-family="JetBrains Mono, monospace">4086</text><path d="M 142.5 198.00000000000003 A 97.5 97.5 0 0 0 337.5 198.00000000000003" fill="none" stroke="rgba(255,255,255,0.10)" stroke-width="0.8"/><text x="341.5" y="201.00000000000003" font-size="8" fill="rgba(255,255,255,0.45)" font-family="JetBrains Mono, monospace">6129</text><path d="M 110.0 198.00000000000003 A 130.0 130.0 0 0 0 370.0 198.00000000000003" fill="none" stroke="rgba(255,255,255,0.10)" stroke-width="0.8"/><text x="374.0" y="201.00000000000003" font-size="8" fill="rgba(255,255,255,0.45)" font-family="JetBrains Mono, monospace">8172</text>
  <line x1="240.0" y1="198.00000000000003" x2="240.0" y2="328.0" stroke="rgba(255,255,255,0.08)" stroke-width="0.6"/><text x="240" y="338" font-size="9" fill="rgba(255,255,255,0.55)" font-family="JetBrains Mono, monospace" text-anchor="middle">0°</text><line x1="240.0" y1="198.00000000000003" x2="305.0" y2="310.6" stroke="rgba(255,255,255,0.08)" stroke-width="0.6"/><text x="305" y="321" font-size="9" fill="rgba(255,255,255,0.55)" font-family="JetBrains Mono, monospace" text-anchor="middle">30°</text><line x1="240.0" y1="198.00000000000003" x2="175.0" y2="310.6" stroke="rgba(255,255,255,0.08)" stroke-width="0.6"/><text x="175" y="321" font-size="9" fill="rgba(255,255,255,0.55)" font-family="JetBrains Mono, monospace" text-anchor="middle">30°</text><line x1="240.0" y1="198.00000000000003" x2="352.6" y2="263.0" stroke="rgba(255,255,255,0.08)" stroke-width="0.6"/><text x="353" y="273" font-size="9" fill="rgba(255,255,255,0.55)" font-family="JetBrains Mono, monospace" text-anchor="middle">60°</text><line x1="240.0" y1="198.00000000000003" x2="127.4" y2="263.0" stroke="rgba(255,255,255,0.08)" stroke-width="0.6"/><text x="127" y="273" font-size="9" fill="rgba(255,255,255,0.55)" font-family="JetBrains Mono, monospace" text-anchor="middle">60°</text><line x1="240.0" y1="198.00000000000003" x2="370.0" y2="198.0" stroke="rgba(255,255,255,0.08)" stroke-width="0.6"/><text x="370" y="208" font-size="9" fill="rgba(255,255,255,0.55)" font-family="JetBrains Mono, monospace" text-anchor="middle">90°</text><line x1="240.0" y1="198.00000000000003" x2="110.0" y2="198.0" stroke="rgba(255,255,255,0.08)" stroke-width="0.6"/><text x="110" y="208" font-size="9" fill="rgba(255,255,255,0.55)" font-family="JetBrains Mono, monospace" text-anchor="middle">90°</text>
  <path d="M 240.0 287.2 L 241.6 287.8 L 243.2 288.3 L 244.8 288.7 L 246.4 289.1 L 248.0 289.4 L 249.6 289.6 L 251.3 289.8 L 252.9 289.9 L 254.5 289.8 L 256.2 289.8 L 257.8 289.6 L 259.4 289.3 L 261.0 288.9 L 262.6 288.5 L 264.1 287.9 L 265.6 287.4 L 267.1 286.7 L 268.6 286.0 L 270.0 285.2 L 271.4 284.3 L 272.8 283.4 L 274.1 282.4 L 275.3 281.3 L 276.6 280.1 L 277.7 278.9 L 278.9 277.7 L 279.9 276.3 L 281.0 275.0 L 281.9 273.6 L 282.8 272.2 L 283.7 270.6 L 284.5 269.2 L 285.2 267.6 L 285.9 266.0 L 286.4 264.3 L 287.0 262.7 L 287.4 261.0 L 287.8 259.2 L 288.2 257.5 L 288.4 255.7 L 288.6 253.9 L 288.8 252.2 L 289.0 250.5 L 289.0 248.7 L 289.0 247.0 L 288.9 245.2 L 288.8 243.5 L 288.6 241.8 L 288.4 240.1 L 288.1 238.3 L 287.7 236.6 L 287.2 234.9 L 286.6 233.1 L 285.9 231.4 L 285.1 229.6 L 284.2 227.8 L 283.2 226.0 L 282.0 224.3 L 280.9 222.5 L 279.6 220.9 L 278.3 219.2 L 276.9 217.6 L 275.4 216.1 L 273.9 214.5 L 272.3 213.1 L 270.8 211.7 L 269.2 210.4 L 267.6 209.1 L 266.0 208.0 L 264.4 206.9 L 262.7 205.8 L 261.1 204.8 L 259.5 203.9 L 257.9 203.1 L 256.2 202.3 L 254.6 201.6 L 253.0 201.0 L 251.5 200.5 L 250.2 200.0 L 248.8 199.6 L 247.6 199.2 L 246.3 198.9 L 245.1 198.6 L 244.0 198.4 L 242.9 198.3 L 242.1 198.1 L 241.3 198.1 L 240.4 198.0 L 240.1 198.0 L 240.1 198.0" fill="none" stroke="#F32740" stroke-width="2" stroke-linejoin="round"/>
  <path d="M 240.0 287.2 L 241.6 287.2 L 243.1 287.1 L 244.7 287.0 L 246.2 287.0 L 247.8 286.9 L 249.3 286.8 L 250.9 286.7 L 252.4 286.6 L 254.0 286.4 L 255.6 286.2 L 257.1 286.1 L 258.7 285.9 L 260.3 285.8 L 261.8 285.6 L 263.4 285.5 L 265.0 285.3 L 266.7 285.2 L 268.3 285.1 L 270.0 285.0 L 271.7 285.0 L 273.4 284.9 L 275.1 284.9 L 276.9 284.8 L 278.7 284.8 L 280.5 284.8 L 282.3 284.8 L 284.2 284.7 L 286.1 284.6 L 287.9 284.5 L 289.9 284.5 L 291.9 284.4 L 293.9 284.2 L 295.8 284.0 L 297.9 283.8 L 300.0 283.6 L 302.1 283.5 L 304.3 283.3 L 306.5 283.1 L 308.7 282.8 L 310.9 282.5 L 313.2 282.3 L 315.6 282.0 L 317.9 281.6 L 320.2 281.0 L 322.3 280.3 L 324.2 279.3 L 326.0 278.2 L 327.6 276.8 L 329.1 275.4 L 330.7 274.1 L 332.4 272.8 L 334.1 271.5 L 335.9 270.2 L 337.8 269.0 L 339.8 267.9 L 341.8 266.6 L 343.9 265.5 L 346.1 264.3 L 348.3 263.1 L 350.3 261.7 L 352.1 260.1 L 353.8 258.5 L 355.5 256.8 L 356.8 255.0 L 357.8 252.9 L 358.2 250.6 L 357.5 247.9 L 354.8 244.4 L 351.1 240.6 L 347.0 237.0 L 342.9 233.4 L 338.9 230.1 L 334.4 226.9 L 329.0 223.5 L 322.1 220.0 L 315.2 216.7 L 308.2 213.7 L 300.6 210.9 L 292.9 208.3 L 285.1 206.0 L 277.2 203.9 L 269.5 202.2 L 262.7 200.8 L 257.0 199.8 L 252.2 199.1 L 247.4 198.5 L 242.6 198.1 L 240.4 198.0 L 240.1 198.0 L 240.1 198.0" fill="none" stroke="rgba(243,39,64,0.45)" stroke-width="1.4" stroke-dasharray="4,3" stroke-linejoin="round"/>
  <text x="240.0" y="350" font-size="9" fill="rgba(255,255,255,0.45)" text-anchor="middle">— C0 plane    - - - C90 plane    LSBX-150W-277V-5K-T2.IES</text>
</svg>