<svg xmlns="http://www.w3.org/2000/svg" viewBox="0 0 480 360" font-family="JetBrains Mono, monospace">
  <rect width="480" height="360" fill="#22262b"/>
  <text x="240.0" y="22" font-size="11" font-weight="700" fill="rgba(255,255,255,0.85)" text-anchor="middle">LSBX450 · Type-4</text>
  <text x="240.0" y="36" font-size="9" fill="rgba(255,255,255,0.55)" text-anchor="middle">peak 19543 cd · 64143 lm · 143 lm/W</text>
  <line x1="100.0" y1="198.00000000000003" x2="380.0" y2="198.00000000000003" stroke="rgba(255,255,255,0.18)" stroke-width="0.8"/>
  <path d="M 207.5 198.00000000000003 A 32.5 32.5 0 0 0 272.5 198.00000000000003" fill="none" stroke="rgba(255,255,255,0.10)" stroke-width="0.8"/><text x="276.5" y="201.00000000000003" font-size="8" fill="rgba(255,255,255,0.45)" font-family="JetBrains Mono, monospace">4885</text><path d="M 175.0 198.00000000000003 A 65.0 65.0 0 0 0 305.0 198.00000000000003" fill="none" stroke="rgba(255,255,255,0.10)" stroke-width="0.8"/><text x="309.0" y="201.00000000000003" font-size="8" fill="rgba(255,255,255,0.45)" font-family="JetBrains Mono, monospace">9771</text><path d="M 142.5 198.00000000000003 A 97.5 97.5 0 0 0 337.5 198.00000000000003" fill="none" stroke="rgba(255,255,255,0.10)" stroke-width="0.8"/><text x="341.5" y="201.00000000000003" font-size="8" fill="rgba(255,255,255,0.45)" font-family="JetBrains Mono, monospace">14657</text><path d="M 110.0 198.00000000000003 A 130.0 130.0 0 0 0 370.0 198.00000000000003" fill="none" stroke="rgba(255,255,255,0.10)" stroke-width="0.8"/><text x="374.0" y="201.00000000000003" font-size="8" fill="rgba(255,255,255,0.45)" font-family="JetBrains Mono, monospace">19543</text>
  <line x1="240.0" y1="198.00000000000003" x2="240.0" y2="328.0" stroke="rgba(255,255,255,0.08)" stroke-width="0.6"/><text x="240" y="338" font-size="9" fill="rgba(255,255,255,0.55)" font-family="JetBrains Mono, monospace" text-anchor="middle">0°</text><line x1="240.0" y1="198.00000000000003" x2="305.0" y2="310.6" stroke="rgba(255,255,255,0.08)" stroke-width="0.6"/><text x="305" y="321" font-size="9" fill="rgba(255,255,255,0.55)" font-family="JetBrains Mono, monospace" text-anchor="middle">30°</text><line x1="240.0" y1="198.00000000000003" x2="175.0" y2="310.6" stroke="rgba(255,255,255,0.08)" stroke-width="0.6"/><text x="175" y="321" font-size="9" fill="rgba(255,255,255,0.55)" font-family="JetBrains Mono, monospace" text-anchor="middle">30°</text><line x1="240.0" y1="198.00000000000003" x2="352.6" y2="263.0" stroke="rgba(255,255,255,0.08)" stroke-width="0.6"/><text x="353" y="273" font-size="9" fill="rgba(255,255,255,0.55)" font-family="JetBrains Mono, monospace" text-anchor="middle">60°</text><line x1="240.0" y1="198.00000000000003" x2="127.4" y2="263.0" stroke="rgba(255,255,255,0.08)" stroke-width="0.6"/><text x="127" y="273" font-size="9" fill="rgba(255,255,255,0.55)" font-family="JetBrains Mono, monospace" text-anchor="middle">60°</text><line x1="240.0" y1="198.00000000000003" x2="370.0" y2="198.0" stroke="rgba(255,255,255,0.08)" stroke-width="0.6"/><text x="370" y="208" font-size="9" fill="rgba(255,255,255,0.55)" font-family="JetBrains Mono, monospace" text-anchor="middle">90°</text><line x1="240.0" y1="198.00000000000003" x2="110.0" y2="198.0" stroke="rgba(255,255,255,0.08)" stroke-width="0.6"/><text x="110" y="208" font-size="9" fill="rgba(255,255,255,0.55)" font-family="JetBrains Mono, monospace" text-anchor="middle">90°</text>
  <path d="M 240.0 286.7 L 241.6 287.1 L 243.1 287.6 L 244.7 288.0 L 246.3 288.4 L 247.9 288.8 L 249.6 289.2 L 251.2 289.5 L 252.9 289.8 L 254.6 290.0 L 256.3 290.3 L 258.0 290.5 L 259.7 290.6 L 261.4 290.7 L 263.1 290.8 L 264.9 290.8 L 266.6 290.8 L 268.4 290.8 L 270.1 290.6 L 271.9 290.5 L 273.6 290.3 L 275.4 290.1 L 277.1 289.8 L 278.8 289.5 L 280.6 289.1 L 282.3 288.7 L 284.0 288.2 L 285.7 287.7 L 287.4 287.1 L 289.0 286.4 L 290.6 285.7 L 292.3 285.0 L 293.8 284.1 L 295.4 283.2 L 296.9 282.3 L 298.3 281.3 L 299.7 280.2 L 301.0 279.0 L 302.3 277.7 L 303.5 276.4 L 304.6 274.9 L 305.6 273.5 L 306.6 271.9 L 307.4 270.3 L 308.2 268.6 L 309.0 267.0 L 309.6 265.2 L 310.1 263.4 L 310.6 261.6 L 311.0 259.7 L 311.3 257.9 L 311.6 256.0 L 311.7 254.0 L 311.8 252.1 L 311.7 250.1 L 311.6 248.1 L 311.3 246.1 L 310.9 244.0 L 310.4 242.0 L 309.7 239.9 L 309.0 237.8 L 308.2 235.8 L 307.2 233.7 L 305.8 231.5 L 304.1 229.3 L 302.1 227.0 L 299.9 224.7 L 297.2 222.3 L 294.3 220.0 L 291.2 217.6 L 288.0 215.5 L 284.7 213.4 L 281.3 211.4 L 277.9 209.6 L 274.6 207.9 L 271.5 206.4 L 268.5 205.1 L 265.7 203.9 L 262.9 202.9 L 260.3 201.9 L 257.7 201.1 L 255.3 200.4 L 253.1 199.8 L 250.9 199.3 L 248.6 198.9 L 246.5 198.6 L 244.5 198.3 L 242.6 198.1 L 241.8 198.1 L 241.1 198.0 L 240.3 198.0" fill="none" stroke="#F32740" stroke-width="2" stroke-linejoin="round"/>
  <path d="M 240.0 286.7 L 241.5 286.5 L 243.1 286.4 L 244.6 286.2 L 246.2 286.0 L 247.7 285.7 L 249.2 285.5 L 250.7 285.2 L 252.2 284.9 L 253.7 284.6 L 255.2 284.3 L 256.7 283.9 L 258.2 283.5 L 259.7 283.1 L 261.1 282.7 L 262.6 282.3 L 264.0 281.9 L 265.5 281.4 L 266.9 280.9 L 268.4 280.4 L 269.8 279.9 L 271.2 279.3 L 272.6 278.8 L 274.0 278.2 L 275.4 277.6 L 276.8 277.0 L 278.2 276.4 L 279.6 275.8 L 281.0 275.2 L 282.4 274.5 L 283.8 273.9 L 285.2 273.2 L 286.6 272.6 L 288.0 271.9 L 289.4 271.2 L 290.8 270.5 L 292.2 269.8 L 293.6 269.1 L 295.0 268.4 L 296.5 267.8 L 298.0 267.1 L 299.4 266.4 L 301.0 265.7 L 302.5 265.0 L 304.1 264.4 L 305.7 263.7 L 307.4 263.1 L 309.2 262.5 L 311.1 262.0 L 313.0 261.4 L 315.0 260.9 L 317.0 260.3 L 319.1 259.8 L 321.2 259.2 L 323.4 258.6 L 325.5 257.9 L 327.6 257.1 L 329.6 256.2 L 331.5 255.2 L 333.2 254.0 L 334.5 252.6 L 335.5 250.9 L 336.0 249.0 L 335.9 246.9 L 335.2 244.4 L 334.0 241.8 L 332.0 239.0 L 329.5 236.0 L 326.5 232.9 L 322.8 229.8 L 318.3 226.5 L 313.0 223.1 L 307.3 219.9 L 301.5 216.8 L 295.8 214.0 L 290.5 211.5 L 285.4 209.3 L 280.7 207.4 L 276.6 205.8 L 272.3 204.3 L 268.1 202.9 L 264.1 201.8 L 260.6 200.9 L 257.3 200.1 L 254.1 199.5 L 251.1 199.0 L 248.4 198.6 L 245.9 198.3 L 244.1 198.1 L 242.3 198.0 L 240.5 198.0" fill="none" stroke="rgba(243,39,64,0.45)" stroke-width="1.4" stroke-dasharray="4,3" stroke-linejoin="round"/>
  <text x="240.0" y="350" font-size="9" fill="rgba(255,255,255,0.45)" text-anchor="middle">— C0 plane    - - - C90 plane    LSBX-450W-120V-5K-T4.IES</text>
</svg>