<svg xmlns="http://www.w3.org/2000/svg" viewBox="0 0 480 360" font-family="JetBrains Mono, monospace">
  <rect width="480" height="360" fill="#22262b"/>
  <text x="240.0" y="22" font-size="11" font-weight="700" fill="rgba(255,255,255,0.85)" text-anchor="middle">LSBX200 · Type-2</text>
  <text x="240.0" y="36" font-size="9" fill="rgba(255,255,255,0.55)" text-anchor="middle">peak 10197 cd · 29170 lm · 149 lm/W</text>
  <line x1="100.0" y1="198.00000000000003" x2="380.0" y2="198.00000000000003" stroke="rgba(255,255,255,0.18)" stroke-width="0.8"/>
  <path d="M 207.5 198.00000000000003 A 32.5 32.5 0 0 0 272.5 198.00000000000003" fill="none" stroke="rgba(255,255,255,0.10)" stroke-width="0.8"/><text x="276.5" y="201.00000000000003" font-size="8" fill="rgba(255,255,255,0.45)" font-family="JetBrains Mono, monospace">2549</text><path d="M 175.0 198.00000000000003 A 65.0 65.0 0 0 0 305.0 198.00000000000003" fill="none" stroke="rgba(255,255,255,0.10)" stroke-width="0.8"/><text x="309.0" y="201.00000000000003" font-size="8" fill="rgba(255,255,255,0.45)" font-family="JetBrains Mono, monospace">5098</text><path d="M 142.5 198.00000000000003 A 97.5 97.5 0 0 0 337.5 198.00000000000003" fill="none" stroke="rgba(255,255,255,0.10)" stroke-width="0.8"/><text x="341.5" y="201.00000000000003" font-size="8" fill="rgba(255,255,255,0.45)" font-family="JetBrains Mono, monospace">7647</text><path d="M 110.0 198.00000000000003 A 130.0 130.0 0 0 0 370.0 198.00000000000003" fill="none" stroke="rgba(255,255,255,0.10)" stroke-width="0.8"/><text x="374.0" y="201.00000000000003" font-size="8" fill="rgba(255,255,255,0.45)" font-family="JetBrains Mono, monospace">10197</text>
  <line x1="240.0" y1="198.00000000000003" x2="240.0" y2="328.0" stroke="rgba(255,255,255,0.08)" stroke-width="0.6"/><text x="240" y="338" font-size="9" fill="rgba(255,255,255,0.55)" font-family="JetBrains Mono, monospace" text-anchor="middle">0°</text><line x1="240.0" y1="198.00000000000003" x2="305.0" y2="310.6" stroke="rgba(255,255,255,0.08)" stroke-width="0.6"/><text x="305" y="321" font-size="9" fill="rgba(255,255,255,0.55)" font-family="JetBrains Mono, monospace" text-anchor="middle">30°</text><line x1="240.0" y1="198.00000000000003" x2="175.0" y2="310.6" stroke="rgba(255,255,255,0.08)" stroke-width="0.6"/><text x="175" y="321" font-size="9" fill="rgba(255,255,255,0.55)" font-family="JetBrains Mono, monospace" text-anchor="middle">30°</text><line x1="240.0" y1="198.00000000000003" x2="352.6" y2="263.0" stroke="rgba(255,255,255,0.08)" stroke-width="0.6"/><text x="353" y="273" font-size="9" fill="rgba(255,255,255,0.55)" font-family="JetBrains Mono, monospace" text-anchor="middle">60°</text><line x1="240.0" y1="198.00000000000003" x2="127.4" y2="263.0" stroke="rgba(255,255,255,0.08)" stroke-width="0.6"/><text x="127" y="273" font-size="9" fill="rgba(255,255,255,0.55)" font-family="JetBrains Mono, monospace" text-anchor="middle">60°</text><line x1="240.0" y1="198.00000000000003" x2="370.0" y2="198.0" stroke="rgba(255,255,255,0.08)" stroke-width="0.6"/><text x="370" y="208" font-size="9" fill="rgba(255,255,255,0.55)" font-family="JetBrains Mono, monospace" text-anchor="middle">90°</text><line x1="240.0" y1="198.00000000000003" x2="110.0" y2="198.0" stroke="rgba(255,255,255,0.08)" stroke-width="0.6"/><text x="110" y="208" font-size="9" fill="rgba(255,255,255,0.55)" font-family="JetBrains Mono, monospace" text-anchor="middle">90°</text>
  <path d="M 240.0 287.0 L 241.6 287.6 L 243.1 288.1 L 244.7 288.5 L 246.4 288.9 L 248.0 289.2 L 249.6 289.5 L 251.2 289.6 L 252.9 289.7 L 254.5 289.7 L 256.1 289.6 L 257.8 289.4 L 259.4 289.1 L 260.9 288.7 L 262.5 288.3 L 264.1 287.8 L 265.6 287.3 L 267.1 286.6 L 268.5 285.8 L 270.0 285.0 L 271.4 284.1 L 272.7 283.2 L 274.0 282.2 L 275.3 281.1 L 276.5 280.0 L 277.7 278.8 L 278.8 277.5 L 279.8 276.2 L 280.9 274.9 L 281.8 273.5 L 282.7 272.0 L 283.6 270.6 L 284.4 269.0 L 285.1 267.5 L 285.8 265.9 L 286.4 264.2 L 286.9 262.6 L 287.4 260.9 L 287.8 259.1 L 288.1 257.4 L 288.4 255.7 L 288.6 253.9 L 288.7 252.1 L 288.8 250.4 L 288.9 248.6 L 288.9 246.9 L 288.8 245.1 L 288.8 243.5 L 288.6 241.7 L 288.3 240.0 L 288.0 238.3 L 287.6 236.5 L 287.1 234.8 L 286.5 233.0 L 285.9 231.3 L 285.1 229.6 L 284.2 227.8 L 283.0 225.9 L 282.0 224.2 L 280.9 222.6 L 279.5 220.8 L 278.2 219.2 L 276.9 217.6 L 275.3 216.0 L 273.8 214.5 L 272.3 213.0 L 270.7 211.7 L 269.2 210.4 L 267.6 209.1 L 266.1 208.0 L 264.4 206.9 L 262.7 205.8 L 261.1 204.8 L 259.4 203.9 L 257.8 203.1 L 256.2 202.3 L 254.6 201.6 L 253.0 201.0 L 251.5 200.4 L 250.2 200.0 L 248.8 199.6 L 247.6 199.2 L 246.3 198.9 L 245.1 198.6 L 244.0 198.4 L 242.9 198.3 L 242.0 198.1 L 241.0 198.1 L 240.4 198.0 L 240.1 198.0 L 240.1 198.0" fill="none" stroke="#F32740" stroke-width="2" stroke-linejoin="round"/>
  <path d="M 240.0 287.0 L 241.6 287.0 L 243.1 287.0 L 244.7 286.9 L 246.2 286.9 L 247.8 286.8 L 249.3 286.6 L 250.9 286.5 L 252.4 286.4 L 254.0 286.3 L 255.5 286.2 L 257.1 286.0 L 258.7 285.9 L 260.2 285.7 L 261.8 285.5 L 263.4 285.4 L 265.0 285.3 L 266.7 285.2 L 268.3 285.1 L 270.0 285.0 L 271.7 285.0 L 273.4 284.9 L 275.1 284.9 L 276.9 284.9 L 278.7 284.8 L 280.5 284.8 L 282.3 284.8 L 284.2 284.7 L 286.1 284.6 L 288.0 284.6 L 290.0 284.5 L 291.9 284.4 L 293.9 284.3 L 295.9 284.2 L 298.0 284.0 L 300.1 283.8 L 302.2 283.6 L 304.3 283.4 L 306.5 283.1 L 308.7 282.9 L 311.0 282.7 L 313.4 282.4 L 315.7 282.1 L 318.0 281.6 L 320.2 281.0 L 322.3 280.3 L 324.2 279.3 L 326.0 278.2 L 327.6 276.9 L 329.2 275.5 L 330.8 274.2 L 332.4 272.8 L 334.1 271.6 L 335.9 270.3 L 337.9 269.1 L 339.9 267.9 L 342.0 266.8 L 344.0 265.6 L 346.1 264.3 L 348.1 262.9 L 350.1 261.5 L 352.0 260.1 L 353.9 258.5 L 355.4 256.8 L 356.8 255.0 L 357.8 252.9 L 358.1 250.6 L 357.4 247.8 L 354.9 244.4 L 351.1 240.6 L 346.8 236.9 L 342.7 233.4 L 338.8 230.1 L 334.4 226.9 L 328.8 223.5 L 322.3 220.1 L 315.3 216.8 L 307.9 213.7 L 300.5 210.8 L 292.9 208.3 L 285.1 205.9 L 277.1 203.9 L 269.5 202.1 L 262.7 200.8 L 256.9 199.8 L 252.2 199.1 L 247.4 198.5 L 242.6 198.1 L 240.5 198.0 L 240.1 198.0 L 240.1 198.0" fill="none" stroke="rgba(243,39,64,0.45)" stroke-width="1.4" stroke-dasharray="4,3" stroke-linejoin="round"/>
  <text x="240.0" y="350" font-size="9" fill="rgba(255,255,255,0.45)" text-anchor="middle">— C0 plane    - - - C90 plane    LSBX-200W-277V-5K-T2.IES</text>
</svg>