<svg xmlns="http://www.w3.org/2000/svg" viewBox="0 0 480 360" font-family="JetBrains Mono, monospace">
  <rect width="480" height="360" fill="#22262b"/>
  <text x="240.0" y="22" font-size="11" font-weight="700" fill="rgba(255,255,255,0.85)" text-anchor="middle">LSBX150 · Type-3</text>
  <text x="240.0" y="36" font-size="9" fill="rgba(255,255,255,0.55)" text-anchor="middle">peak 6359 cd · 21160 lm · 142 lm/W</text>
  <line x1="100.0" y1="198.00000000000003" x2="380.0" y2="198.00000000000003" stroke="rgba(255,255,255,0.18)" stroke-width="0.8"/>
  <path d="M 207.5 198.00000000000003 A 32.5 32.5 0 0 0 272.5 198.00000000000003" fill="none" stroke="rgba(255,255,255,0.10)" stroke-width="0.8"/><text x="276.5" y="201.00000000000003" font-size="8" fill="rgba(255,255,255,0.45)" font-family="JetBrains Mono, monospace">1589</text><path d="M 175.0 198.00000000000003 A 65.0 65.0 0 0 0 305.0 198.00000000000003" fill="none" stroke="rgba(255,255,255,0.10)" stroke-width="0.8"/><text x="309.0" y="201.00000000000003" font-size="8" fill="rgba(255,255,255,0.45)" font-family="JetBrains Mono, monospace">3179</text><path d="M 142.5 198.00000000000003 A 97.5 97.5 0 0 0 337.5 198.00000000000003" fill="none" stroke="rgba(255,255,255,0.10)" stroke-width="0.8"/><text x="341.5" y="201.00000000000003" font-size="8" fill="rgba(255,255,255,0.45)" font-family="JetBrains Mono, monospace">4769</text><path d="M 110.0 198.00000000000003 A 130.0 130.0 0 0 0 370.0 198.00000000000003" fill="none" stroke="rgba(255,255,255,0.10)" stroke-width="0.8"/><text x="374.0" y="201.00000000000003" font-size="8" fill="rgba(255,255,255,0.45)" font-family="JetBrains Mono, monospace">6358</text>
  <line x1="240.0" y1="198.00000000000003" x2="240.0" y2="328.0" stroke="rgba(255,255,255,0.08)" stroke-width="0.6"/><text x="240" y="338" font-size="9" fill="rgba(255,255,255,0.55)" font-family="JetBrains Mono, monospace" text-anchor="middle">0°</text><line x1="240.0" y1="198.00000000000003" x2="305.0" y2="310.6" stroke="rgba(255,255,255,0.08)" stroke-width="0.6"/><text x="305" y="321" font-size="9" fill="rgba(255,255,255,0.55)" font-family="JetBrains Mono, monospace" text-anchor="middle">30°</text><line x1="240.0" y1="198.00000000000003" x2="175.0" y2="310.6" stroke="rgba(255,255,255,0.08)" stroke-width="0.6"/><text x="175" y="321" font-size="9" fill="rgba(255,255,255,0.55)" font-family="JetBrains Mono, monospace" text-anchor="middle">30°</text><line x1="240.0" y1="198.00000000000003" x2="352.6" y2="263.0" stroke="rgba(255,255,255,0.08)" stroke-width="0.6"/><text x="353" y="273" font-size="9" fill="rgba(255,255,255,0.55)" font-family="JetBrains Mono, monospace" text-anchor="middle">60°</text><line x1="240.0" y1="198.00000000000003" x2="127.4" y2="263.0" stroke="rgba(255,255,255,0.08)" stroke-width="0.6"/><text x="127" y="273" font-size="9" fill="rgba(255,255,255,0.55)" font-family="JetBrains Mono, monospace" text-anchor="middle">60°</text><line x1="240.0" y1="198.00000000000003" x2="370.0" y2="198.0" stroke="rgba(255,255,255,0.08)" stroke-width="0.6"/><text x="370" y="208" font-size="9" fill="rgba(255,255,255,0.55)" font-family="JetBrains Mono, monospace" text-anchor="middle">90°</text><line x1="240.0" y1="198.00000000000003" x2="110.0" y2="198.0" stroke="rgba(255,255,255,0.08)" stroke-width="0.6"/><text x="110" y="208" font-size="9" fill="rgba(255,255,255,0.55)" font-family="JetBrains Mono, monospace" text-anchor="middle">90°</text>
  <path d="M 240.0 299.0 L 241.8 299.9 L 243.6 300.9 L 245.4 301.7 L 247.3 302.5 L 249.2 303.2 L 251.1 303.8 L 253.1 304.3 L 255.0 304.6 L 257.0 305.0 L 258.9 305.3 L 260.9 305.4 L 262.8 305.4 L 264.8 305.5 L 266.8 305.3 L 268.7 305.1 L 270.7 305.0 L 272.6 304.6 L 274.5 304.3 L 276.4 303.7 L 278.3 303.1 L 280.1 302.5 L 281.9 301.8 L 283.7 301.0 L 285.5 300.2 L 287.2 299.2 L 288.9 298.3 L 290.5 297.2 L 292.2 296.1 L 293.8 295.0 L 295.4 294.0 L 296.9 292.7 L 298.3 291.3 L 299.8 290.1 L 301.2 288.8 L 302.6 287.5 L 304.0 286.0 L 305.3 284.6 L 306.6 283.2 L 307.7 281.5 L 308.8 280.0 L 309.8 278.3 L 310.6 276.5 L 311.3 274.5 L 311.9 272.5 L 312.3 270.3 L 312.6 268.1 L 312.7 265.8 L 312.6 263.4 L 312.2 260.8 L 311.7 258.2 L 311.2 255.6 L 310.3 252.9 L 309.3 250.2 L 308.1 247.5 L 306.8 244.8 L 305.2 242.0 L 303.5 239.2 L 301.7 236.5 L 299.7 233.9 L 297.4 231.1 L 294.8 228.4 L 292.1 225.7 L 289.3 223.1 L 286.3 220.6 L 283.1 218.1 L 279.7 215.7 L 276.4 213.4 L 272.9 211.3 L 269.6 209.3 L 266.5 207.7 L 264.0 206.3 L 261.6 205.0 L 259.4 203.9 L 257.2 202.9 L 255.1 202.1 L 253.4 201.3 L 251.7 200.7 L 250.1 200.2 L 248.8 199.7 L 247.4 199.3 L 246.1 199.0 L 244.9 198.7 L 243.8 198.5 L 242.7 198.3 L 241.8 198.2 L 241.0 198.1 L 240.6 198.0 L 240.2 198.0 L 240.2 198.0 L 240.2 198.0" fill="none" stroke="#F32740" stroke-width="2" stroke-linejoin="round"/>
  <path d="M 240.0 299.0 L 241.8 298.9 L 243.5 298.7 L 245.3 298.6 L 247.0 298.4 L 248.8 298.2 L 250.5 298.1 L 252.3 297.8 L 254.0 297.6 L 255.7 297.4 L 257.5 297.1 L 259.2 296.8 L 260.9 296.5 L 262.7 296.2 L 264.4 296.0 L 266.2 295.6 L 267.9 295.3 L 269.6 294.9 L 271.4 294.6 L 273.1 294.2 L 274.8 293.7 L 276.6 293.3 L 278.3 292.9 L 280.1 292.4 L 281.8 291.8 L 283.5 291.3 L 285.2 290.7 L 286.9 290.1 L 288.6 289.3 L 290.3 288.7 L 291.9 287.9 L 293.5 287.1 L 295.1 286.2 L 296.7 285.3 L 298.2 284.3 L 299.8 283.4 L 301.4 282.5 L 302.9 281.5 L 304.3 280.3 L 305.8 279.2 L 307.2 278.1 L 308.6 276.9 L 310.0 275.7 L 311.2 274.4 L 312.6 273.2 L 314.0 272.0 L 315.3 270.7 L 316.4 269.3 L 317.6 267.9 L 318.7 266.4 L 319.9 265.0 L 321.0 263.6 L 321.9 262.0 L 323.0 260.5 L 324.0 259.1 L 325.1 257.6 L 326.2 256.2 L 327.5 254.8 L 328.8 253.5 L 330.4 252.3 L 332.1 251.2 L 333.6 249.9 L 334.9 248.5 L 336.3 247.1 L 337.7 245.7 L 339.3 244.3 L 340.7 242.8 L 341.3 241.0 L 341.3 238.9 L 341.0 236.8 L 340.2 234.5 L 338.8 232.0 L 337.0 229.5 L 334.3 226.8 L 329.8 223.8 L 323.5 220.4 L 316.2 217.0 L 307.8 213.7 L 298.6 210.5 L 290.6 207.8 L 282.8 205.5 L 273.6 203.3 L 266.4 201.7 L 259.3 200.4 L 252.5 199.3 L 247.4 198.6 L 242.9 198.2 L 240.4 198.0 L 240.3 198.0 L 240.3 198.0 L 240.3 198.0" fill="none" stroke="rgba(243,39,64,0.45)" stroke-width="1.4" stroke-dasharray="4,3" stroke-linejoin="round"/>
  <text x="240.0" y="350" font-size="9" fill="rgba(255,255,255,0.45)" text-anchor="middle">— C0 plane    - - - C90 plane    LSBX-150W-120V-5K-T3.ies</text>
</svg>