<svg xmlns="http://www.w3.org/2000/svg" viewBox="0 0 480 360" font-family="JetBrains Mono, monospace">
  <rect width="480" height="360" fill="#22262b"/>
  <text x="240.0" y="22" font-size="11" font-weight="700" fill="rgba(255,255,255,0.85)" text-anchor="middle">LSBX300 · Type-2</text>
  <text x="240.0" y="36" font-size="9" fill="rgba(255,255,255,0.55)" text-anchor="middle">peak 17018 cd · 43751 lm · 149 lm/W</text>
  <line x1="100.0" y1="198.00000000000003" x2="380.0" y2="198.00000000000003" stroke="rgba(255,255,255,0.18)" stroke-width="0.8"/>
  <path d="M 207.5 198.00000000000003 A 32.5 32.5 0 0 0 272.5 198.00000000000003" fill="none" stroke="rgba(255,255,255,0.10)" stroke-width="0.8"/><text x="276.5" y="201.00000000000003" font-size="8" fill="rgba(255,255,255,0.45)" font-family="JetBrains Mono, monospace">4254</text><path d="M 175.0 198.00000000000003 A 65.0 65.0 0 0 0 305.0 198.00000000000003" fill="none" stroke="rgba(255,255,255,0.10)" stroke-width="0.8"/><text x="309.0" y="201.00000000000003" font-size="8" fill="rgba(255,255,255,0.45)" font-family="JetBrains Mono, monospace">8509</text><path d="M 142.5 198.00000000000003 A 97.5 97.5 0 0 0 337.5 198.00000000000003" fill="none" stroke="rgba(255,255,255,0.10)" stroke-width="0.8"/><text x="341.5" y="201.00000000000003" font-size="8" fill="rgba(255,255,255,0.45)" font-family="JetBrains Mono, monospace">12763</text><path d="M 110.0 198.00000000000003 A 130.0 130.0 0 0 0 370.0 198.00000000000003" fill="none" stroke="rgba(255,255,255,0.10)" stroke-width="0.8"/><text x="374.0" y="201.00000000000003" font-size="8" fill="rgba(255,255,255,0.45)" font-family="JetBrains Mono, monospace">17018</text>
  <line x1="240.0" y1="198.00000000000003" x2="240.0" y2="328.0" stroke="rgba(255,255,255,0.08)" stroke-width="0.6"/><text x="240" y="338" font-size="9" fill="rgba(255,255,255,0.55)" font-family="JetBrains Mono, monospace" text-anchor="middle">0°</text><line x1="240.0" y1="198.00000000000003" x2="305.0" y2="310.6" stroke="rgba(255,255,255,0.08)" stroke-width="0.6"/><text x="305" y="321" font-size="9" fill="rgba(255,255,255,0.55)" font-family="JetBrains Mono, monospace" text-anchor="middle">30°</text><line x1="240.0" y1="198.00000000000003" x2="175.0" y2="310.6" stroke="rgba(255,255,255,0.08)" stroke-width="0.6"/><text x="175" y="321" font-size="9" fill="rgba(255,255,255,0.55)" font-family="JetBrains Mono, monospace" text-anchor="middle">30°</text><line x1="240.0" y1="198.00000000000003" x2="352.6" y2="263.0" stroke="rgba(255,255,255,0.08)" stroke-width="0.6"/><text x="353" y="273" font-size="9" fill="rgba(255,255,255,0.55)" font-family="JetBrains Mono, monospace" text-anchor="middle">60°</text><line x1="240.0" y1="198.00000000000003" x2="127.4" y2="263.0" stroke="rgba(255,255,255,0.08)" stroke-width="0.6"/><text x="127" y="273" font-size="9" fill="rgba(255,255,255,0.55)" font-family="JetBrains Mono, monospace" text-anchor="middle">60°</text><line x1="240.0" y1="198.00000000000003" x2="370.0" y2="198.0" stroke="rgba(255,255,255,0.08)" stroke-width="0.6"/><text x="370" y="208" font-size="9" fill="rgba(255,255,255,0.55)" font-family="JetBrains Mono, monospace" text-anchor="middle">90°</text><line x1="240.0" y1="198.00000000000003" x2="110.0" y2="198.0" stroke="rgba(255,255,255,0.08)" stroke-width="0.6"/><text x="110" y="208" font-size="9" fill="rgba(255,255,255,0.55)" font-family="JetBrains Mono, monospace" text-anchor="middle">90°</text>
  <path d="M 240.0 275.3 L 241.4 276.0 L 242.7 276.5 L 244.1 277.0 L 245.5 277.3 L 247.0 277.7 L 248.4 277.9 L 249.8 278.0 L 251.3 278.1 L 252.7 278.1 L 254.1 278.1 L 255.5 277.9 L 256.9 277.7 L 258.3 277.4 L 259.7 277.0 L 261.0 276.5 L 262.4 276.0 L 263.6 275.3 L 264.9 274.6 L 266.1 273.7 L 267.3 272.9 L 268.4 271.9 L 269.5 270.9 L 270.5 269.9 L 271.5 268.7 L 272.4 267.5 L 273.3 266.3 L 274.1 264.9 L 274.9 263.6 L 275.6 262.2 L 276.2 260.7 L 276.8 259.3 L 277.4 257.8 L 277.9 256.3 L 278.3 254.9 L 278.7 253.3 L 279.1 251.8 L 279.4 250.3 L 279.7 248.8 L 279.9 247.2 L 280.1 245.8 L 280.3 244.4 L 280.5 242.9 L 280.6 241.5 L 280.7 240.2 L 280.8 238.8 L 280.9 237.5 L 280.8 236.1 L 280.8 234.7 L 280.6 233.3 L 280.4 231.9 L 280.1 230.5 L 279.8 229.1 L 279.3 227.6 L 278.7 226.1 L 278.0 224.6 L 277.3 223.1 L 276.5 221.7 L 275.6 220.2 L 274.7 218.8 L 273.7 217.4 L 272.7 216.1 L 271.6 214.8 L 270.5 213.5 L 269.3 212.3 L 268.2 211.1 L 266.9 210.0 L 265.7 208.9 L 264.5 207.9 L 263.2 206.9 L 261.9 206.0 L 260.6 205.1 L 259.3 204.3 L 258.0 203.5 L 256.6 202.8 L 255.3 202.1 L 253.9 201.5 L 252.5 200.9 L 251.2 200.4 L 250.0 199.9 L 248.8 199.6 L 247.6 199.2 L 246.5 198.9 L 245.4 198.7 L 244.2 198.4 L 243.2 198.3 L 242.2 198.2 L 241.5 198.1 L 240.9 198.0 L 240.2 198.0 L 240.1 198.0" fill="none" stroke="#F32740" stroke-width="2" stroke-linejoin="round"/>
  <path d="M 240.0 275.3 L 241.3 275.2 L 242.7 275.1 L 244.0 275.1 L 245.4 275.0 L 246.7 275.0 L 248.1 274.9 L 249.4 274.8 L 250.8 274.7 L 252.1 274.6 L 253.5 274.4 L 254.8 274.3 L 256.2 274.2 L 257.6 274.1 L 259.0 274.0 L 260.3 273.9 L 261.7 273.8 L 263.2 273.8 L 264.6 273.7 L 266.1 273.7 L 267.5 273.7 L 269.1 273.7 L 270.6 273.7 L 272.1 273.7 L 273.8 273.8 L 275.4 273.8 L 277.0 273.8 L 278.6 273.8 L 280.3 273.8 L 282.0 273.8 L 283.7 273.7 L 285.5 273.7 L 287.2 273.5 L 289.0 273.4 L 290.8 273.3 L 292.6 273.1 L 294.4 272.9 L 296.2 272.6 L 298.1 272.3 L 299.9 272.0 L 301.8 271.7 L 303.7 271.3 L 305.7 270.9 L 307.5 270.4 L 309.4 269.9 L 311.2 269.2 L 313.0 268.4 L 314.7 267.7 L 316.5 266.9 L 318.3 266.0 L 320.1 265.2 L 322.1 264.5 L 324.0 263.7 L 326.2 262.9 L 328.4 262.2 L 330.8 261.6 L 333.4 261.0 L 336.2 260.5 L 339.2 260.0 L 342.3 259.5 L 345.4 258.8 L 348.4 258.1 L 351.3 257.2 L 353.9 256.0 L 355.8 254.5 L 356.8 252.5 L 356.8 250.0 L 355.8 247.2 L 353.6 243.9 L 349.7 240.1 L 344.4 236.0 L 338.2 231.8 L 331.2 227.6 L 324.0 223.7 L 316.5 219.9 L 309.0 216.5 L 301.5 213.3 L 294.2 210.5 L 287.3 208.1 L 280.4 205.9 L 273.4 203.9 L 266.4 202.2 L 260.5 200.9 L 255.6 199.9 L 251.5 199.2 L 247.7 198.7 L 245.3 198.4 L 242.9 198.2 L 240.6 198.0 L 240.1 198.0 L 240.1 198.0" fill="none" stroke="rgba(243,39,64,0.45)" stroke-width="1.4" stroke-dasharray="4,3" stroke-linejoin="round"/>
  <text x="240.0" y="350" font-size="9" fill="rgba(255,255,255,0.45)" text-anchor="middle">— C0 plane    - - - C90 plane    LSBX-300W-277V-5K-T2.IES</text>
</svg>