<svg xmlns="http://www.w3.org/2000/svg" viewBox="0 0 480 360" font-family="JetBrains Mono, monospace">
  <rect width="480" height="360" fill="#22262b"/>
  <text x="240.0" y="22" font-size="11" font-weight="700" fill="rgba(255,255,255,0.85)" text-anchor="middle">LSBX150 · Type-4</text>
  <text x="240.0" y="36" font-size="9" fill="rgba(255,255,255,0.55)" text-anchor="middle">peak 6120 cd · 23264 lm · 155 lm/W</text>
  <line x1="100.0" y1="198.00000000000003" x2="380.0" y2="198.00000000000003" stroke="rgba(255,255,255,0.18)" stroke-width="0.8"/>
  <path d="M 207.5 198.00000000000003 A 32.5 32.5 0 0 0 272.5 198.00000000000003" fill="none" stroke="rgba(255,255,255,0.10)" stroke-width="0.8"/><text x="276.5" y="201.00000000000003" font-size="8" fill="rgba(255,255,255,0.45)" font-family="JetBrains Mono, monospace">1530</text><path d="M 175.0 198.00000000000003 A 65.0 65.0 0 0 0 305.0 198.00000000000003" fill="none" stroke="rgba(255,255,255,0.10)" stroke-width="0.8"/><text x="309.0" y="201.00000000000003" font-size="8" fill="rgba(255,255,255,0.45)" font-family="JetBrains Mono, monospace">3060</text><path d="M 142.5 198.00000000000003 A 97.5 97.5 0 0 0 337.5 198.00000000000003" fill="none" stroke="rgba(255,255,255,0.10)" stroke-width="0.8"/><text x="341.5" y="201.00000000000003" font-size="8" fill="rgba(255,255,255,0.45)" font-family="JetBrains Mono, monospace">4590</text><path d="M 110.0 198.00000000000003 A 130.0 130.0 0 0 0 370.0 198.00000000000003" fill="none" stroke="rgba(255,255,255,0.10)" stroke-width="0.8"/><text x="374.0" y="201.00000000000003" font-size="8" fill="rgba(255,255,255,0.45)" font-family="JetBrains Mono, monospace">6120</text>
  <line x1="240.0" y1="198.00000000000003" x2="240.0" y2="328.0" stroke="rgba(255,255,255,0.08)" stroke-width="0.6"/><text x="240" y="338" font-size="9" fill="rgba(255,255,255,0.55)" font-family="JetBrains Mono, monospace" text-anchor="middle">0°</text><line x1="240.0" y1="198.00000000000003" x2="305.0" y2="310.6" stroke="rgba(255,255,255,0.08)" stroke-width="0.6"/><text x="305" y="321" font-size="9" fill="rgba(255,255,255,0.55)" font-family="JetBrains Mono, monospace" text-anchor="middle">30°</text><line x1="240.0" y1="198.00000000000003" x2="175.0" y2="310.6" stroke="rgba(255,255,255,0.08)" stroke-width="0.6"/><text x="175" y="321" font-size="9" fill="rgba(255,255,255,0.55)" font-family="JetBrains Mono, monospace" text-anchor="middle">30°</text><line x1="240.0" y1="198.00000000000003" x2="352.6" y2="263.0" stroke="rgba(255,255,255,0.08)" stroke-width="0.6"/><text x="353" y="273" font-size="9" fill="rgba(255,255,255,0.55)" font-family="JetBrains Mono, monospace" text-anchor="middle">60°</text><line x1="240.0" y1="198.00000000000003" x2="127.4" y2="263.0" stroke="rgba(255,255,255,0.08)" stroke-width="0.6"/><text x="127" y="273" font-size="9" fill="rgba(255,255,255,0.55)" font-family="JetBrains Mono, monospace" text-anchor="middle">60°</text><line x1="240.0" y1="198.00000000000003" x2="370.0" y2="198.0" stroke="rgba(255,255,255,0.08)" stroke-width="0.6"/><text x="370" y="208" font-size="9" fill="rgba(255,255,255,0.55)" font-family="JetBrains Mono, monospace" text-anchor="middle">90°</text><line x1="240.0" y1="198.00000000000003" x2="110.0" y2="198.0" stroke="rgba(255,255,255,0.08)" stroke-width="0.6"/><text x="110" y="208" font-size="9" fill="rgba(255,255,255,0.55)" font-family="JetBrains Mono, monospace" text-anchor="middle">90°</text>
  <path d="M 240.0 302.2 L 241.8 302.8 L 243.7 303.2 L 245.5 303.8 L 247.4 304.3 L 249.4 304.9 L 251.3 305.5 L 253.3 306.0 L 255.3 306.5 L 257.3 307.0 L 259.3 307.5 L 261.4 307.9 L 263.5 308.3 L 265.6 308.7 L 267.7 309.0 L 269.8 309.2 L 271.9 309.3 L 274.1 309.5 L 276.3 309.6 L 278.4 309.6 L 280.7 309.7 L 282.8 309.6 L 285.0 309.5 L 287.3 309.4 L 289.5 309.1 L 291.7 308.9 L 294.0 308.6 L 296.2 308.3 L 298.4 307.8 L 300.7 307.5 L 303.0 307.0 L 305.2 306.5 L 307.4 305.9 L 309.6 305.1 L 311.8 304.4 L 313.9 303.6 L 316.0 302.6 L 317.9 301.4 L 320.0 300.3 L 321.7 298.9 L 323.4 297.4 L 325.1 295.9 L 326.5 294.1 L 328.0 292.3 L 329.2 290.4 L 330.3 288.3 L 331.3 286.1 L 332.1 283.9 L 332.8 281.5 L 333.3 279.1 L 333.8 276.7 L 334.1 274.2 L 334.3 271.7 L 334.4 269.1 L 334.5 266.6 L 334.3 264.0 L 334.0 261.4 L 333.5 258.7 L 332.8 256.0 L 332.0 253.3 L 330.8 250.4 L 329.2 247.5 L 327.0 244.3 L 324.3 241.0 L 321.1 237.6 L 317.4 234.1 L 312.9 230.5 L 307.9 226.8 L 302.7 223.3 L 297.2 219.9 L 291.8 216.8 L 286.7 214.1 L 282.4 211.8 L 278.2 209.7 L 273.8 207.7 L 270.4 206.1 L 267.3 204.8 L 264.5 203.7 L 262.0 202.7 L 259.6 201.8 L 257.3 201.0 L 254.9 200.4 L 252.8 199.8 L 250.6 199.3 L 248.3 198.9 L 246.2 198.5 L 244.4 198.3 L 242.6 198.1 L 240.8 198.0 L 240.2 198.0 L 240.1 198.0" fill="none" stroke="#F32740" stroke-width="2" stroke-linejoin="round"/>
  <path d="M 240.0 302.2 L 241.8 302.2 L 243.6 302.1 L 245.5 302.0 L 247.3 302.0 L 249.1 301.9 L 250.9 301.8 L 252.7 301.7 L 254.5 301.5 L 256.4 301.3 L 258.2 301.2 L 260.0 300.9 L 261.8 300.7 L 263.7 300.5 L 265.5 300.3 L 267.3 300.1 L 269.2 299.8 L 271.0 299.6 L 272.9 299.2 L 274.7 298.9 L 276.6 298.5 L 278.4 298.1 L 280.3 297.7 L 282.1 297.2 L 283.9 296.6 L 285.7 296.1 L 287.5 295.5 L 289.3 294.8 L 291.1 294.1 L 292.8 293.3 L 294.6 292.6 L 296.3 291.7 L 298.0 290.8 L 299.7 289.9 L 301.3 288.8 L 302.9 287.8 L 304.5 286.7 L 306.0 285.6 L 307.6 284.5 L 309.1 283.3 L 310.6 282.1 L 311.9 280.8 L 313.3 279.4 L 314.6 278.0 L 315.9 276.6 L 317.2 275.2 L 318.5 273.8 L 319.7 272.3 L 320.9 270.8 L 322.1 269.4 L 323.4 268.0 L 324.6 266.5 L 325.8 265.1 L 327.1 263.7 L 328.5 262.3 L 330.2 261.2 L 331.8 259.9 L 333.8 258.9 L 336.2 258.1 L 338.7 257.3 L 341.4 256.6 L 344.4 255.9 L 347.5 255.1 L 350.4 254.2 L 352.9 253.1 L 354.5 251.4 L 355.0 249.2 L 353.8 246.3 L 350.8 242.8 L 346.4 238.8 L 341.0 234.8 L 335.5 230.9 L 330.0 227.2 L 324.5 223.8 L 318.7 220.6 L 312.5 217.4 L 306.1 214.5 L 299.7 211.8 L 293.1 209.3 L 286.5 207.0 L 279.9 205.0 L 273.5 203.3 L 267.2 201.8 L 261.7 200.7 L 256.8 199.8 L 252.3 199.1 L 247.7 198.5 L 243.2 198.2 L 240.5 198.0 L 240.1 198.0 L 240.1 198.0" fill="none" stroke="rgba(243,39,64,0.45)" stroke-width="1.4" stroke-dasharray="4,3" stroke-linejoin="round"/>
  <text x="240.0" y="350" font-size="9" fill="rgba(255,255,255,0.45)" text-anchor="middle">— C0 plane    - - - C90 plane    LSBX-150W-277V-5K-T4.IES</text>
</svg>