<svg viewBox="0 0 600 460" xmlns="http://www.w3.org/2000/svg" font-family="JetBrains Mono, monospace" font-size="9.5">
<rect width="100%" height="100%" fill="#14171b"/>
<text x="22" y="26" fill="#F32740" font-weight="700" letter-spacing="2">LWPC3W120 · 120W · 5000K · FULL-CUTOFF FORWARD-THROW</text>
<text x="22" y="42" fill="rgba(255,255,255,0.55)" font-size="8" letter-spacing="1.4">LUMINOUS INTENSITY DISTRIBUTION (cd/klm)</text>
<path d="M 215.0 64.0 A 85.0 85.0 0 0 0 385.0 64.0" fill="none" stroke="rgba(120,200,200,0.18)" stroke-width="0.7"/>
<path d="M 130.0 64.0 A 170.0 170.0 0 0 0 470.0 64.0" fill="none" stroke="rgba(120,200,200,0.18)" stroke-width="0.7"/>
<path d="M 45.0 64.0 A 255.0 255.0 0 0 0 555.0 64.0" fill="none" stroke="rgba(120,200,200,0.18)" stroke-width="0.7"/>
<path d="M -40.0 64.0 A 340.0 340.0 0 0 0 640.0 64.0" fill="none" stroke="rgba(120,200,200,0.18)" stroke-width="0.7"/>
<line x1="300" y1="64" x2="212.0" y2="392.4" stroke="rgba(120,200,200,0.1)" stroke-width="0.5"/>
<line x1="300" y1="64" x2="388.0" y2="392.4" stroke="rgba(120,200,200,0.1)" stroke-width="0.5"/>
<line x1="300" y1="64" x2="130.0" y2="358.4" stroke="rgba(120,200,200,0.14)" stroke-width="0.5"/>
<line x1="300" y1="64" x2="470.0" y2="358.4" stroke="rgba(120,200,200,0.14)" stroke-width="0.5"/>
<line x1="300" y1="64" x2="59.6" y2="304.4" stroke="rgba(120,200,200,0.1)" stroke-width="0.5"/>
<line x1="300" y1="64" x2="540.4" y2="304.4" stroke="rgba(120,200,200,0.1)" stroke-width="0.5"/>
<line x1="300" y1="64" x2="5.6" y2="234.0" stroke="rgba(120,200,200,0.14)" stroke-width="0.5"/>
<line x1="300" y1="64" x2="594.4" y2="234.0" stroke="rgba(120,200,200,0.14)" stroke-width="0.5"/>
<line x1="300" y1="64" x2="-28.4" y2="152.0" stroke="rgba(120,200,200,0.1)" stroke-width="0.5"/>
<line x1="300" y1="64" x2="628.4" y2="152.0" stroke="rgba(120,200,200,0.1)" stroke-width="0.5"/>
<line x1="300" y1="64" x2="-40.0" y2="64.0" stroke="rgba(120,200,200,0.14)" stroke-width="0.5"/>
<line x1="300" y1="64" x2="640.0" y2="64.0" stroke="rgba(120,200,200,0.14)" stroke-width="0.5"/>
<line x1="300" y1="64" x2="300" y2="412" stroke="rgba(120,200,200,0.14)" stroke-width="0.5"/>
<line x1="-40" y1="64" x2="640" y2="64" stroke="rgba(120,200,200,0.14)" stroke-width="0.5"/>
<text x="209.4" y="406.1" text-anchor="middle" fill="rgba(255,255,255,0.4)" font-size="9">15°</text>
<text x="390.6" y="406.1" text-anchor="middle" fill="rgba(255,255,255,0.4)" font-size="9">15°</text>
<text x="125.0" y="371.1" text-anchor="middle" fill="rgba(255,255,255,0.6)" font-size="9">30°</text>
<text x="475.0" y="371.1" text-anchor="middle" fill="rgba(255,255,255,0.6)" font-size="9">30°</text>
<text x="52.5" y="315.5" text-anchor="middle" fill="rgba(255,255,255,0.4)" font-size="9">45°</text>
<text x="547.5" y="315.5" text-anchor="middle" fill="rgba(255,255,255,0.4)" font-size="9">45°</text>
<text x="-3.1" y="243.0" text-anchor="middle" fill="rgba(255,255,255,0.6)" font-size="9">60°</text>
<text x="603.1" y="243.0" text-anchor="middle" fill="rgba(255,255,255,0.6)" font-size="9">60°</text>
<text x="-38.1" y="158.6" text-anchor="middle" fill="rgba(255,255,255,0.4)" font-size="9">75°</text>
<text x="638.1" y="158.6" text-anchor="middle" fill="rgba(255,255,255,0.4)" font-size="9">75°</text>
<text x="-50.0" y="68.0" text-anchor="middle" fill="rgba(255,255,255,0.6)" font-size="9">90°</text>
<text x="650.0" y="68.0" text-anchor="middle" fill="rgba(255,255,255,0.6)" font-size="9">90°</text>
<text x="300" y="422" text-anchor="middle" fill="rgba(255,255,255,0.6)" font-size="9">0°</text>
<path d="M 301.8 64.0 L 301.8 64.0 L 301.8 64.1 L 301.8 64.1 L 301.9 64.1 L 301.9 64.2 L 302.1 64.2 L 302.4 64.3 L 302.7 64.4 L 302.9 64.5 L 303.6 64.6 L 304.2 64.8 L 304.9 65.0 L 305.9 65.4 L 307.2 65.8 L 308.6 66.3 L 310.1 66.9 L 311.5 67.5 L 313.1 68.3 L 314.7 69.1 L 316.3 69.9 L 318.7 71.2 L 320.6 72.3 L 322.8 73.7 L 326.9 76.0 L 332.1 79.0 L 337.3 82.2 L 355.9 92.5 L 392.3 113.1 L 445.9 144.9 L 495.3 176.7 L 524.5 198.9 L 543.1 215.9 L 557.9 231.5 L 567.8 244.6 L 570.3 253.3 L 566.9 257.9 L 559.6 259.6 L 550.1 259.4 L 539.4 257.9 L 528.7 255.9 L 518.3 253.8 L 508.2 251.5 L 499.1 249.6 L 490.4 247.9 L 482.8 246.8 L 475.4 245.7 L 468.8 245.0 L 463.3 245.3 L 458.0 245.7 L 453.1 246.4 L 448.4 247.2 L 444.0 248.3 L 439.9 249.6 L 436.1 251.3 L 432.7 253.5 L 429.5 256.0 L 427.1 259.7 L 425.0 264.0 L 423.2 269.0 L 421.5 274.4 L 419.8 280.1 L 418.0 285.9 L 416.1 291.9 L 414.0 297.7 L 411.5 303.1 L 408.6 308.0 L 405.4 312.3 L 401.9 316.1 L 397.9 319.0 L 393.8 321.6 L 389.2 323.2 L 384.7 324.7 L 380.0 325.7 L 375.2 326.3 L 370.4 326.6 L 365.4 326.3 L 360.4 325.6 L 355.4 324.5 L 350.4 323.3 L 345.3 321.1 L 340.4 318.9 L 335.5 316.5 L 330.7 314.0 L 326.0 311.4 L 321.4 308.5 L 316.9 305.2 L 312.4 301.3 L 308.1 297.3 L 304.0 291.6 L 300.0 283.6 L 300.0 283.6 L 296.3 275.7 L 292.9 268.5 L 289.6 263.2 L 286.5 257.6 L 283.7 250.6 L 281.2 242.9 L 279.1 234.2 L 277.3 225.6 L 275.8 216.8 L 274.6 208.1 L 273.7 199.5 L 273.0 190.8 L 272.6 182.5 L 272.5 174.2 L 272.7 165.9 L 273.0 158.3 L 273.5 150.7 L 274.2 143.3 L 274.8 137.3 L 275.3 131.9 L 275.8 127.1 L 276.0 123.4 L 276.2 120.0 L 276.4 117.1 L 276.5 114.4 L 276.5 112.1 L 276.4 110.3 L 276.3 108.5 L 276.1 107.1 L 275.9 105.8 L 275.6 104.7 L 275.1 103.8 L 274.5 103.3 L 273.7 102.9 L 272.9 102.7 L 271.9 102.7 L 270.9 102.6 L 269.6 102.9 L 268.1 103.3 L 266.5 104.0 L 264.9 104.4 L 263.3 104.8 L 260.9 106.0 L 258.6 106.9 L 255.8 108.2 L 253.8 108.6 L 250.3 110.3 L 248.2 110.7 L 245.4 111.4 L 244.3 110.7 L 243.3 109.9 L 242.5 108.9 L 243.2 106.8 L 243.8 104.9 L 245.6 102.1 L 247.4 99.4 L 249.7 96.7 L 251.6 94.2 L 253.5 91.9 L 255.9 89.5 L 258.3 87.1 L 260.7 84.9 L 262.9 82.9 L 265.4 80.9 L 267.5 79.1 L 268.8 77.9 L 270.2 76.6 L 271.2 75.6 L 272.6 74.5 L 273.8 73.5 L 275.7 72.4 L 276.8 71.5 L 278.0 70.7 L 279.1 70.0 L 280.3 69.3 L 281.7 68.6 L 283.5 67.8 L 284.6 67.3 L 285.9 66.7 L 287.2 66.3 L 288.5 65.8 L 289.7 65.5 L 291.5 65.0 L 293.2 64.7 L 294.3 64.5 L 295.1 64.3 L 295.9 64.2 L 296.5 64.1 L 297.2 64.0 L 297.8 64.0 Z" fill="none" stroke="#F32740" stroke-width="2.0" stroke-linejoin="round" stroke-linecap="round"/>
<path d="M 301.1 64.0 L 301.1 64.0 L 301.3 64.0 L 301.6 64.1 L 302.0 64.1 L 302.5 64.2 L 303.1 64.3 L 303.7 64.5 L 304.3 64.6 L 305.0 64.8 L 305.7 65.0 L 306.5 65.3 L 307.3 65.5 L 308.1 65.9 L 309.0 66.2 L 309.8 66.6 L 310.7 67.1 L 311.7 67.6 L 312.7 68.1 L 313.7 68.7 L 314.7 69.4 L 315.8 70.1 L 317.0 70.9 L 318.2 71.7 L 319.4 72.6 L 320.7 73.6 L 321.9 74.7 L 323.1 75.7 L 324.2 76.9 L 325.5 78.1 L 326.8 79.5 L 328.1 80.9 L 329.4 82.4 L 330.6 83.9 L 331.9 85.5 L 333.1 87.2 L 334.4 89.0 L 335.6 90.8 L 336.6 92.6 L 337.6 94.5 L 338.3 96.2 L 339.1 97.9 L 339.9 100.0 L 340.7 102.0 L 341.5 104.0 L 342.4 106.4 L 343.6 109.2 L 345.4 112.7 L 347.6 116.9 L 350.3 121.8 L 352.9 127.1 L 355.7 132.8 L 358.3 138.7 L 360.8 144.7 L 363.1 150.9 L 365.1 157.0 L 367.0 163.3 L 368.6 169.7 L 370.0 176.0 L 371.0 182.2 L 371.8 188.4 L 372.2 194.2 L 372.4 200.1 L 372.3 205.9 L 371.9 211.3 L 371.2 216.8 L 370.3 221.9 L 369.2 227.0 L 367.8 231.7 L 366.1 236.3 L 364.3 240.6 L 362.3 245.0 L 360.0 248.7 L 357.6 252.3 L 355.0 255.8 L 352.2 259.0 L 349.4 262.0 L 346.4 264.8 L 343.2 267.4 L 340.0 269.8 L 336.7 272.1 L 333.3 274.3 L 329.8 276.0 L 326.2 277.5 L 322.6 278.9 L 318.9 280.3 L 315.2 281.3 L 311.4 282.2 L 307.6 282.8 L 303.8 283.2 L 300.0 283.6 L 300.0 283.6 L 296.2 283.2 L 292.4 282.8 L 288.6 282.2 L 284.8 281.3 L 281.1 280.3 L 277.4 278.9 L 273.8 277.5 L 270.2 276.0 L 266.7 274.3 L 263.3 272.1 L 260.0 269.8 L 256.8 267.4 L 253.6 264.8 L 250.6 262.0 L 247.8 259.0 L 245.0 255.8 L 242.4 252.3 L 240.0 248.7 L 237.7 245.0 L 235.7 240.6 L 233.9 236.3 L 232.2 231.7 L 230.8 227.0 L 229.7 221.9 L 228.8 216.8 L 228.1 211.3 L 227.7 205.9 L 227.6 200.1 L 227.8 194.2 L 228.2 188.4 L 229.0 182.2 L 230.0 176.0 L 231.4 169.7 L 233.0 163.3 L 234.9 157.0 L 236.9 150.9 L 239.2 144.7 L 241.7 138.7 L 244.3 132.8 L 247.1 127.1 L 249.7 121.8 L 252.4 116.9 L 254.6 112.7 L 256.4 109.2 L 257.6 106.4 L 258.5 104.0 L 259.3 102.0 L 260.1 100.0 L 260.9 97.9 L 261.7 96.2 L 262.4 94.5 L 263.4 92.6 L 264.4 90.8 L 265.6 89.0 L 266.9 87.2 L 268.1 85.5 L 269.4 83.9 L 270.6 82.4 L 271.9 80.9 L 273.2 79.5 L 274.5 78.1 L 275.8 76.9 L 276.9 75.7 L 278.1 74.7 L 279.3 73.6 L 280.6 72.6 L 281.8 71.7 L 283.0 70.9 L 284.2 70.1 L 285.3 69.4 L 286.3 68.7 L 287.3 68.1 L 288.3 67.6 L 289.3 67.1 L 290.2 66.6 L 291.0 66.2 L 291.9 65.9 L 292.7 65.5 L 293.5 65.3 L 294.3 65.0 L 295.0 64.8 L 295.7 64.6 L 296.3 64.5 L 296.9 64.3 L 297.5 64.2 L 298.0 64.1 L 298.4 64.1 L 298.7 64.0 L 298.9 64.0 L 298.9 64.0 Z" fill="none" stroke="#3FA9F5" stroke-width="1.7" stroke-linejoin="round" stroke-linecap="round"/>
<text x="335" y="145.0" fill="#F32740" font-size="9.5" font-weight="700">156</text>
<text x="335" y="230.0" fill="#F32740" font-size="9.5" font-weight="700">312</text>
<text x="335" y="315.0" fill="#F32740" font-size="9.5" font-weight="700">468</text>
<text x="335" y="400.0" fill="#F32740" font-size="9.5" font-weight="700">625</text>
<rect x="274" y="58" width="52" height="11" rx="1.5" fill="#fafbfc" stroke="rgba(255,255,255,0.4)" stroke-width="0.5"/>
<line x1="272" y1="69.8" x2="328" y2="69.8" stroke="#F32740" stroke-width="0.7" stroke-dasharray="1.5 2"/>
<text x="300" y="66" text-anchor="middle" fill="#F32740" font-size="8" font-weight="700" letter-spacing="0.5">cd/klm SCALE</text>
<g transform="translate(22, 434)">
<text x="0" y="-8" fill="rgba(255,255,255,0.55)" font-size="8" letter-spacing="1.4">cd/klm</text>
<line x1="0" y1="6" x2="22" y2="6" stroke="#F32740" stroke-width="2.2"/>
<text x="28" y="9" fill="rgba(255,255,255,0.7)" font-size="9.5">C0 – C180</text>
<line x1="120" y1="6" x2="142" y2="6" stroke="#3FA9F5" stroke-width="1.7"/>
<text x="148" y="9" fill="rgba(255,255,255,0.7)" font-size="9.5">C90 – C270</text>
</g>
<text x="578" y="402" fill="rgba(255,255,255,0.45)" font-size="9" text-anchor="end">η = 140 lm/W</text>
<text x="578" y="418" fill="rgba(255,255,255,0.45)" font-size="9" text-anchor="end">16,723 lm · 119.6W</text>
<text x="578" y="434" fill="rgba(255,255,255,0.55)" font-size="8" letter-spacing="1.4" text-anchor="end">PEAK INTENSITY</text>
<text x="578" y="451" fill="#fff" font-weight="700" font-size="14" text-anchor="end">10,145 cd</text>
</svg>