<svg viewBox="0 0 600 460" xmlns="http://www.w3.org/2000/svg" font-family="JetBrains Mono, monospace" font-size="9.5">
<rect width="100%" height="100%" fill="#14171b"/>
<text x="22" y="26" fill="#F32740" font-weight="700" letter-spacing="2">LWPC3W80 · 80W · 4000K · FULL-CUTOFF FORWARD-THROW</text>
<text x="22" y="42" fill="rgba(255,255,255,0.55)" font-size="8" letter-spacing="1.4">LUMINOUS INTENSITY DISTRIBUTION (cd/klm)</text>
<path d="M 215.0 64.0 A 85.0 85.0 0 0 0 385.0 64.0" fill="none" stroke="rgba(120,200,200,0.18)" stroke-width="0.7"/>
<path d="M 130.0 64.0 A 170.0 170.0 0 0 0 470.0 64.0" fill="none" stroke="rgba(120,200,200,0.18)" stroke-width="0.7"/>
<path d="M 45.0 64.0 A 255.0 255.0 0 0 0 555.0 64.0" fill="none" stroke="rgba(120,200,200,0.18)" stroke-width="0.7"/>
<path d="M -40.0 64.0 A 340.0 340.0 0 0 0 640.0 64.0" fill="none" stroke="rgba(120,200,200,0.18)" stroke-width="0.7"/>
<line x1="300" y1="64" x2="212.0" y2="392.4" stroke="rgba(120,200,200,0.1)" stroke-width="0.5"/>
<line x1="300" y1="64" x2="388.0" y2="392.4" stroke="rgba(120,200,200,0.1)" stroke-width="0.5"/>
<line x1="300" y1="64" x2="130.0" y2="358.4" stroke="rgba(120,200,200,0.14)" stroke-width="0.5"/>
<line x1="300" y1="64" x2="470.0" y2="358.4" stroke="rgba(120,200,200,0.14)" stroke-width="0.5"/>
<line x1="300" y1="64" x2="59.6" y2="304.4" stroke="rgba(120,200,200,0.1)" stroke-width="0.5"/>
<line x1="300" y1="64" x2="540.4" y2="304.4" stroke="rgba(120,200,200,0.1)" stroke-width="0.5"/>
<line x1="300" y1="64" x2="5.6" y2="234.0" stroke="rgba(120,200,200,0.14)" stroke-width="0.5"/>
<line x1="300" y1="64" x2="594.4" y2="234.0" stroke="rgba(120,200,200,0.14)" stroke-width="0.5"/>
<line x1="300" y1="64" x2="-28.4" y2="152.0" stroke="rgba(120,200,200,0.1)" stroke-width="0.5"/>
<line x1="300" y1="64" x2="628.4" y2="152.0" stroke="rgba(120,200,200,0.1)" stroke-width="0.5"/>
<line x1="300" y1="64" x2="-40.0" y2="64.0" stroke="rgba(120,200,200,0.14)" stroke-width="0.5"/>
<line x1="300" y1="64" x2="640.0" y2="64.0" stroke="rgba(120,200,200,0.14)" stroke-width="0.5"/>
<line x1="300" y1="64" x2="300" y2="412" stroke="rgba(120,200,200,0.14)" stroke-width="0.5"/>
<line x1="-40" y1="64" x2="640" y2="64" stroke="rgba(120,200,200,0.14)" stroke-width="0.5"/>
<text x="209.4" y="406.1" text-anchor="middle" fill="rgba(255,255,255,0.4)" font-size="9">15°</text>
<text x="390.6" y="406.1" text-anchor="middle" fill="rgba(255,255,255,0.4)" font-size="9">15°</text>
<text x="125.0" y="371.1" text-anchor="middle" fill="rgba(255,255,255,0.6)" font-size="9">30°</text>
<text x="475.0" y="371.1" text-anchor="middle" fill="rgba(255,255,255,0.6)" font-size="9">30°</text>
<text x="52.5" y="315.5" text-anchor="middle" fill="rgba(255,255,255,0.4)" font-size="9">45°</text>
<text x="547.5" y="315.5" text-anchor="middle" fill="rgba(255,255,255,0.4)" font-size="9">45°</text>
<text x="-3.1" y="243.0" text-anchor="middle" fill="rgba(255,255,255,0.6)" font-size="9">60°</text>
<text x="603.1" y="243.0" text-anchor="middle" fill="rgba(255,255,255,0.6)" font-size="9">60°</text>
<text x="-38.1" y="158.6" text-anchor="middle" fill="rgba(255,255,255,0.4)" font-size="9">75°</text>
<text x="638.1" y="158.6" text-anchor="middle" fill="rgba(255,255,255,0.4)" font-size="9">75°</text>
<text x="-50.0" y="68.0" text-anchor="middle" fill="rgba(255,255,255,0.6)" font-size="9">90°</text>
<text x="650.0" y="68.0" text-anchor="middle" fill="rgba(255,255,255,0.6)" font-size="9">90°</text>
<text x="300" y="422" text-anchor="middle" fill="rgba(255,255,255,0.6)" font-size="9">0°</text>
<path d="M 301.7 64.0 L 301.8 64.0 L 302.0 64.1 L 302.3 64.1 L 302.6 64.2 L 302.9 64.3 L 303.5 64.4 L 304.2 64.5 L 305.1 64.7 L 306.0 64.9 L 307.4 65.3 L 308.9 65.7 L 310.4 66.2 L 312.0 66.8 L 313.8 67.4 L 315.3 68.1 L 317.1 68.9 L 319.6 70.0 L 321.5 71.0 L 324.4 72.4 L 328.7 74.4 L 342.7 80.4 L 356.5 86.8 L 370.5 93.9 L 415.5 115.4 L 468.0 142.4 L 508.8 165.9 L 536.5 184.5 L 558.0 201.2 L 575.1 216.5 L 585.5 228.8 L 587.7 236.9 L 583.5 241.2 L 575.0 242.6 L 564.4 242.4 L 553.2 241.3 L 542.0 239.8 L 531.2 238.2 L 521.2 236.8 L 512.1 235.7 L 503.7 234.9 L 496.0 234.4 L 488.8 234.0 L 482.7 234.4 L 477.3 235.2 L 472.2 236.2 L 467.4 237.3 L 462.9 238.7 L 458.6 240.2 L 454.8 242.0 L 451.2 244.2 L 448.0 246.8 L 445.4 250.1 L 443.3 254.1 L 441.6 258.9 L 440.2 264.2 L 439.0 270.0 L 437.8 276.2 L 436.5 282.4 L 435.0 288.7 L 433.2 294.7 L 431.0 300.4 L 428.4 305.5 L 425.3 309.9 L 421.8 313.7 L 417.9 316.9 L 413.7 319.4 L 409.3 321.4 L 404.6 322.9 L 399.8 324.0 L 394.9 324.7 L 389.8 324.9 L 384.8 324.8 L 379.6 324.4 L 374.4 323.6 L 369.2 322.4 L 364.1 321.0 L 358.9 319.3 L 353.8 317.2 L 348.8 314.9 L 343.8 312.6 L 338.9 309.9 L 334.1 306.7 L 329.4 303.1 L 324.6 298.5 L 320.0 292.2 L 315.4 284.4 L 311.2 277.0 L 307.2 270.0 L 303.5 264.3 L 300.0 258.1 L 300.0 258.1 L 296.7 250.7 L 293.8 242.4 L 291.1 233.4 L 288.8 224.3 L 286.8 215.3 L 285.1 206.1 L 283.6 197.4 L 282.5 188.6 L 281.6 179.9 L 281.1 171.3 L 280.8 163.0 L 280.6 155.0 L 280.7 147.7 L 280.8 140.9 L 281.0 134.8 L 281.2 129.4 L 281.4 124.9 L 281.5 121.0 L 281.4 117.9 L 281.3 115.3 L 281.1 113.2 L 280.9 111.4 L 280.6 109.8 L 280.2 108.4 L 279.8 107.4 L 279.3 106.5 L 278.7 105.8 L 278.0 105.3 L 277.3 104.9 L 276.5 104.7 L 275.6 104.7 L 274.5 104.8 L 273.3 105.1 L 271.9 105.6 L 270.4 106.2 L 268.9 106.9 L 267.1 107.7 L 265.1 108.7 L 262.8 109.9 L 260.2 111.4 L 257.3 113.1 L 254.2 114.9 L 250.9 116.7 L 247.6 118.2 L 244.7 119.3 L 242.5 119.5 L 241.3 118.7 L 240.8 117.3 L 240.9 115.3 L 241.7 112.9 L 243.3 109.9 L 245.7 106.5 L 248.1 103.1 L 250.4 100.0 L 252.8 97.1 L 255.1 94.3 L 257.7 91.5 L 260.3 88.8 L 262.8 86.4 L 265.1 84.1 L 267.2 82.2 L 268.8 80.6 L 270.1 79.2 L 271.3 78.0 L 272.6 76.8 L 274.0 75.6 L 275.3 74.5 L 276.3 73.6 L 277.6 72.6 L 278.8 71.7 L 280.0 70.9 L 281.4 70.1 L 283.3 69.1 L 284.4 68.5 L 285.6 67.8 L 286.9 67.3 L 288.2 66.7 L 289.5 66.2 L 291.4 65.7 L 293.2 65.2 L 294.3 64.9 L 295.1 64.7 L 295.9 64.5 L 296.6 64.4 L 297.2 64.2 L 297.8 64.2 L 298.1 64.1 L 298.1 64.1 L 298.0 64.0 L 298.0 64.0 Z" fill="none" stroke="#F32740" stroke-width="2.0" stroke-linejoin="round" stroke-linecap="round"/>
<path d="M 301.2 64.0 L 301.4 64.0 L 301.8 64.1 L 302.3 64.1 L 302.9 64.2 L 303.5 64.3 L 304.1 64.4 L 304.8 64.6 L 305.5 64.8 L 306.2 65.0 L 307.0 65.2 L 307.9 65.5 L 308.7 65.9 L 309.6 66.2 L 310.6 66.6 L 311.5 67.1 L 312.4 67.6 L 313.5 68.1 L 314.5 68.7 L 315.6 69.4 L 316.8 70.1 L 318.1 70.9 L 319.3 71.8 L 320.5 72.7 L 321.7 73.7 L 323.0 74.7 L 324.1 75.8 L 325.4 76.9 L 326.7 78.2 L 328.0 79.5 L 329.3 80.9 L 330.7 82.4 L 331.9 83.9 L 333.1 85.5 L 334.4 87.2 L 335.6 88.9 L 336.7 90.7 L 337.8 92.5 L 338.7 94.3 L 339.6 96.0 L 340.2 97.7 L 341.0 99.6 L 341.8 101.6 L 342.5 103.6 L 343.2 105.7 L 344.1 108.1 L 345.2 110.8 L 346.7 114.1 L 348.6 117.9 L 350.6 122.2 L 352.7 126.8 L 354.7 131.6 L 356.7 136.6 L 358.6 141.8 L 360.3 146.9 L 361.7 152.1 L 362.9 157.2 L 363.9 162.4 L 364.6 167.4 L 365.0 172.2 L 365.2 177.0 L 365.2 181.7 L 365.1 186.5 L 364.8 191.2 L 364.3 195.8 L 363.6 200.4 L 362.7 204.9 L 361.6 209.1 L 360.3 213.3 L 358.8 217.3 L 357.2 221.1 L 355.4 224.8 L 353.4 228.3 L 351.3 231.7 L 349.0 234.9 L 346.6 237.9 L 344.1 240.8 L 341.4 243.4 L 338.6 245.8 L 335.8 248.0 L 332.8 250.1 L 329.7 251.8 L 326.6 253.4 L 323.4 254.8 L 320.2 255.9 L 316.9 256.8 L 313.5 257.5 L 310.2 258.0 L 306.8 258.2 L 303.4 258.3 L 300.0 258.1 L 300.0 258.1 L 296.6 258.3 L 293.2 258.2 L 289.8 258.0 L 286.5 257.5 L 283.1 256.8 L 279.8 255.9 L 276.6 254.8 L 273.4 253.4 L 270.3 251.8 L 267.2 250.1 L 264.2 248.0 L 261.4 245.8 L 258.6 243.4 L 255.9 240.8 L 253.4 237.9 L 251.0 234.9 L 248.7 231.7 L 246.6 228.3 L 244.6 224.8 L 242.8 221.1 L 241.2 217.3 L 239.7 213.3 L 238.4 209.1 L 237.3 204.9 L 236.4 200.4 L 235.7 195.8 L 235.2 191.2 L 234.9 186.5 L 234.8 181.7 L 234.8 177.0 L 235.0 172.2 L 235.4 167.4 L 236.1 162.4 L 237.1 157.2 L 238.3 152.1 L 239.7 146.9 L 241.4 141.8 L 243.3 136.6 L 245.3 131.6 L 247.3 126.8 L 249.4 122.2 L 251.4 117.9 L 253.3 114.1 L 254.8 110.8 L 255.9 108.1 L 256.8 105.7 L 257.5 103.6 L 258.2 101.6 L 259.0 99.6 L 259.8 97.7 L 260.4 96.0 L 261.3 94.3 L 262.2 92.5 L 263.3 90.7 L 264.4 88.9 L 265.6 87.2 L 266.9 85.5 L 268.1 83.9 L 269.3 82.4 L 270.7 80.9 L 272.0 79.5 L 273.3 78.2 L 274.6 76.9 L 275.9 75.8 L 277.0 74.7 L 278.3 73.7 L 279.5 72.7 L 280.7 71.8 L 281.9 70.9 L 283.2 70.1 L 284.4 69.4 L 285.5 68.7 L 286.5 68.1 L 287.6 67.6 L 288.5 67.1 L 289.4 66.6 L 290.4 66.2 L 291.3 65.9 L 292.1 65.5 L 293.0 65.2 L 293.8 65.0 L 294.5 64.8 L 295.2 64.6 L 295.9 64.4 L 296.5 64.3 L 297.1 64.2 L 297.7 64.1 L 298.2 64.1 L 298.6 64.0 L 298.8 64.0 Z" fill="none" stroke="#3FA9F5" stroke-width="1.7" stroke-linejoin="round" stroke-linecap="round"/>
<text x="335" y="145.0" fill="#F32740" font-size="9.5" font-weight="700">156</text>
<text x="335" y="230.0" fill="#F32740" font-size="9.5" font-weight="700">312</text>
<text x="335" y="315.0" fill="#F32740" font-size="9.5" font-weight="700">468</text>
<text x="335" y="400.0" fill="#F32740" font-size="9.5" font-weight="700">625</text>
<rect x="274" y="58" width="52" height="11" rx="1.5" fill="#fafbfc" stroke="rgba(255,255,255,0.4)" stroke-width="0.5"/>
<line x1="272" y1="69.8" x2="328" y2="69.8" stroke="#F32740" stroke-width="0.7" stroke-dasharray="1.5 2"/>
<text x="300" y="66" text-anchor="middle" fill="#F32740" font-size="8" font-weight="700" letter-spacing="0.5">cd/klm SCALE</text>
<g transform="translate(22, 434)">
<text x="0" y="-8" fill="rgba(255,255,255,0.55)" font-size="8" letter-spacing="1.4">cd/klm</text>
<line x1="0" y1="6" x2="22" y2="6" stroke="#F32740" stroke-width="2.2"/>
<text x="28" y="9" fill="rgba(255,255,255,0.7)" font-size="9.5">C0 – C180</text>
<line x1="120" y1="6" x2="142" y2="6" stroke="#3FA9F5" stroke-width="1.7"/>
<text x="148" y="9" fill="rgba(255,255,255,0.7)" font-size="9.5">C90 – C270</text>
</g>
<text x="578" y="402" fill="rgba(255,255,255,0.45)" font-size="9" text-anchor="end">η = 157 lm/W</text>
<text x="578" y="418" fill="rgba(255,255,255,0.45)" font-size="9" text-anchor="end">12,050 lm · 76.9W</text>
<text x="578" y="434" fill="rgba(255,255,255,0.55)" font-size="8" letter-spacing="1.4" text-anchor="end">PEAK INTENSITY</text>
<text x="578" y="451" fill="#fff" font-weight="700" font-size="14" text-anchor="end">7,435 cd</text>
</svg>