<svg viewBox="0 0 600 460" xmlns="http://www.w3.org/2000/svg" font-family="JetBrains Mono, monospace" font-size="9.5">
<rect width="100%" height="100%" fill="#14171b"/>
<text x="22" y="26" fill="#F32740" font-weight="700" letter-spacing="2">LWPC3W120 · 120W · 3000K · FULL-CUTOFF FORWARD-THROW</text>
<text x="22" y="42" fill="rgba(255,255,255,0.55)" font-size="8" letter-spacing="1.4">LUMINOUS INTENSITY DISTRIBUTION (cd/klm)</text>
<path d="M 215.0 64.0 A 85.0 85.0 0 0 0 385.0 64.0" fill="none" stroke="rgba(120,200,200,0.18)" stroke-width="0.7"/>
<path d="M 130.0 64.0 A 170.0 170.0 0 0 0 470.0 64.0" fill="none" stroke="rgba(120,200,200,0.18)" stroke-width="0.7"/>
<path d="M 45.0 64.0 A 255.0 255.0 0 0 0 555.0 64.0" fill="none" stroke="rgba(120,200,200,0.18)" stroke-width="0.7"/>
<path d="M -40.0 64.0 A 340.0 340.0 0 0 0 640.0 64.0" fill="none" stroke="rgba(120,200,200,0.18)" stroke-width="0.7"/>
<line x1="300" y1="64" x2="212.0" y2="392.4" stroke="rgba(120,200,200,0.1)" stroke-width="0.5"/>
<line x1="300" y1="64" x2="388.0" y2="392.4" stroke="rgba(120,200,200,0.1)" stroke-width="0.5"/>
<line x1="300" y1="64" x2="130.0" y2="358.4" stroke="rgba(120,200,200,0.14)" stroke-width="0.5"/>
<line x1="300" y1="64" x2="470.0" y2="358.4" stroke="rgba(120,200,200,0.14)" stroke-width="0.5"/>
<line x1="300" y1="64" x2="59.6" y2="304.4" stroke="rgba(120,200,200,0.1)" stroke-width="0.5"/>
<line x1="300" y1="64" x2="540.4" y2="304.4" stroke="rgba(120,200,200,0.1)" stroke-width="0.5"/>
<line x1="300" y1="64" x2="5.6" y2="234.0" stroke="rgba(120,200,200,0.14)" stroke-width="0.5"/>
<line x1="300" y1="64" x2="594.4" y2="234.0" stroke="rgba(120,200,200,0.14)" stroke-width="0.5"/>
<line x1="300" y1="64" x2="-28.4" y2="152.0" stroke="rgba(120,200,200,0.1)" stroke-width="0.5"/>
<line x1="300" y1="64" x2="628.4" y2="152.0" stroke="rgba(120,200,200,0.1)" stroke-width="0.5"/>
<line x1="300" y1="64" x2="-40.0" y2="64.0" stroke="rgba(120,200,200,0.14)" stroke-width="0.5"/>
<line x1="300" y1="64" x2="640.0" y2="64.0" stroke="rgba(120,200,200,0.14)" stroke-width="0.5"/>
<line x1="300" y1="64" x2="300" y2="412" stroke="rgba(120,200,200,0.14)" stroke-width="0.5"/>
<line x1="-40" y1="64" x2="640" y2="64" stroke="rgba(120,200,200,0.14)" stroke-width="0.5"/>
<text x="209.4" y="406.1" text-anchor="middle" fill="rgba(255,255,255,0.4)" font-size="9">15°</text>
<text x="390.6" y="406.1" text-anchor="middle" fill="rgba(255,255,255,0.4)" font-size="9">15°</text>
<text x="125.0" y="371.1" text-anchor="middle" fill="rgba(255,255,255,0.6)" font-size="9">30°</text>
<text x="475.0" y="371.1" text-anchor="middle" fill="rgba(255,255,255,0.6)" font-size="9">30°</text>
<text x="52.5" y="315.5" text-anchor="middle" fill="rgba(255,255,255,0.4)" font-size="9">45°</text>
<text x="547.5" y="315.5" text-anchor="middle" fill="rgba(255,255,255,0.4)" font-size="9">45°</text>
<text x="-3.1" y="243.0" text-anchor="middle" fill="rgba(255,255,255,0.6)" font-size="9">60°</text>
<text x="603.1" y="243.0" text-anchor="middle" fill="rgba(255,255,255,0.6)" font-size="9">60°</text>
<text x="-38.1" y="158.6" text-anchor="middle" fill="rgba(255,255,255,0.4)" font-size="9">75°</text>
<text x="638.1" y="158.6" text-anchor="middle" fill="rgba(255,255,255,0.4)" font-size="9">75°</text>
<text x="-50.0" y="68.0" text-anchor="middle" fill="rgba(255,255,255,0.6)" font-size="9">90°</text>
<text x="650.0" y="68.0" text-anchor="middle" fill="rgba(255,255,255,0.6)" font-size="9">90°</text>
<text x="300" y="422" text-anchor="middle" fill="rgba(255,255,255,0.6)" font-size="9">0°</text>
<path d="M 301.3 64.0 L 301.3 64.0 L 301.3 64.0 L 301.3 64.1 L 301.4 64.1 L 301.4 64.1 L 301.6 64.2 L 301.8 64.2 L 302.0 64.3 L 302.3 64.4 L 302.7 64.5 L 303.3 64.6 L 303.8 64.8 L 304.7 65.1 L 305.7 65.4 L 307.0 65.9 L 308.2 66.4 L 309.4 66.9 L 310.8 67.5 L 312.1 68.2 L 313.4 68.9 L 315.2 69.8 L 316.6 70.7 L 318.1 71.7 L 321.1 73.4 L 327.1 76.6 L 332.9 80.0 L 338.9 83.8 L 365.8 99.0 L 406.0 122.7 L 445.7 148.1 L 475.2 169.3 L 498.4 188.0 L 516.9 204.9 L 528.2 217.9 L 532.5 226.8 L 530.0 231.1 L 523.1 232.1 L 514.4 231.5 L 504.4 229.5 L 494.8 227.5 L 485.3 225.1 L 477.1 223.5 L 468.7 221.3 L 461.4 219.8 L 455.0 219.0 L 448.9 218.2 L 443.3 217.7 L 438.5 217.8 L 434.2 218.4 L 429.9 218.8 L 426.0 219.6 L 422.2 220.5 L 418.6 221.4 L 415.4 222.8 L 412.2 224.3 L 409.6 226.5 L 407.1 228.9 L 405.1 232.3 L 403.3 235.9 L 401.6 240.0 L 400.3 244.9 L 398.9 250.1 L 397.5 255.3 L 395.8 260.3 L 393.8 265.2 L 391.6 269.8 L 389.1 273.9 L 386.2 277.4 L 382.9 280.1 L 379.4 282.3 L 375.8 284.1 L 371.8 285.1 L 367.8 285.8 L 363.7 286.2 L 359.5 285.9 L 355.2 285.6 L 351.0 284.9 L 346.7 283.6 L 342.5 282.4 L 338.2 280.6 L 334.0 278.8 L 329.9 276.5 L 325.9 274.6 L 321.9 272.0 L 318.0 269.6 L 314.1 266.1 L 310.4 262.9 L 306.8 259.4 L 303.3 254.7 L 300.0 247.6 L 300.0 247.6 L 296.9 240.1 L 294.1 232.9 L 291.4 228.2 L 288.9 223.2 L 286.6 217.1 L 284.6 210.2 L 283.0 202.6 L 281.6 194.8 L 280.5 187.2 L 279.6 179.5 L 278.9 172.4 L 278.5 165.2 L 278.2 158.3 L 278.1 151.7 L 278.2 145.5 L 278.4 139.4 L 278.8 133.3 L 279.1 128.3 L 279.4 123.7 L 279.7 119.7 L 280.0 116.1 L 280.2 113.0 L 280.3 110.4 L 280.3 108.2 L 280.4 106.1 L 280.3 104.3 L 280.3 102.7 L 280.3 101.1 L 280.2 99.8 L 280.0 98.7 L 279.7 97.7 L 279.3 97.1 L 278.9 96.5 L 278.3 96.2 L 277.6 96.0 L 276.7 96.0 L 275.8 96.1 L 274.6 96.5 L 273.2 97.1 L 271.6 97.8 L 269.9 98.6 L 268.1 99.4 L 266.1 100.4 L 263.5 101.8 L 260.8 103.2 L 257.8 104.8 L 255.5 105.5 L 252.9 106.4 L 250.6 107.0 L 249.1 106.7 L 248.8 105.4 L 249.9 103.1 L 250.7 101.1 L 252.4 98.6 L 255.0 95.5 L 256.5 93.3 L 258.4 91.0 L 260.5 88.7 L 262.6 86.5 L 264.6 84.4 L 266.8 82.4 L 268.3 80.9 L 269.8 79.4 L 271.5 77.9 L 273.1 76.5 L 274.2 75.5 L 275.4 74.4 L 276.2 73.6 L 276.9 72.9 L 278.0 72.0 L 279.1 71.2 L 280.2 70.4 L 281.2 69.7 L 282.2 69.1 L 282.9 68.6 L 283.7 68.1 L 285.1 67.4 L 286.5 66.9 L 287.5 66.4 L 288.6 66.0 L 289.9 65.6 L 291.4 65.2 L 292.9 64.9 L 294.5 64.6 L 295.4 64.4 L 296.0 64.3 L 296.6 64.2 L 297.1 64.1 L 297.7 64.0 L 298.1 64.0 Z" fill="none" stroke="#F32740" stroke-width="2.0" stroke-linejoin="round" stroke-linecap="round"/>
<path d="M 300.9 64.0 L 300.9 64.0 L 301.0 64.0 L 301.3 64.1 L 301.7 64.1 L 302.1 64.2 L 302.5 64.3 L 303.0 64.4 L 303.6 64.5 L 304.1 64.7 L 304.7 64.8 L 305.4 65.0 L 306.0 65.3 L 306.7 65.6 L 307.4 65.9 L 308.2 66.2 L 308.9 66.5 L 309.7 67.0 L 310.5 67.4 L 311.3 67.9 L 312.2 68.4 L 313.1 69.0 L 314.1 69.7 L 315.1 70.4 L 316.1 71.2 L 317.1 72.0 L 318.1 72.8 L 319.1 73.7 L 320.1 74.7 L 321.1 75.7 L 322.3 76.9 L 323.3 78.0 L 324.4 79.2 L 325.4 80.5 L 326.5 81.9 L 327.5 83.3 L 328.5 84.7 L 329.5 86.2 L 330.3 87.7 L 331.1 89.2 L 331.8 90.7 L 332.3 92.1 L 333.0 93.7 L 333.6 95.3 L 334.1 96.9 L 334.7 98.7 L 335.5 100.7 L 336.5 103.1 L 337.9 106.1 L 339.6 109.5 L 341.4 113.4 L 343.2 117.4 L 345.2 121.8 L 347.2 126.6 L 349.0 131.5 L 350.5 136.1 L 352.1 141.2 L 353.5 146.4 L 354.8 151.7 L 355.8 156.9 L 356.5 161.9 L 357.1 167.0 L 357.5 172.2 L 357.6 177.1 L 357.5 182.0 L 357.2 186.6 L 356.7 191.4 L 356.0 195.9 L 354.9 199.9 L 353.8 204.0 L 352.4 208.0 L 350.9 211.9 L 349.2 215.3 L 347.3 218.6 L 345.3 221.9 L 343.1 224.7 L 340.8 227.6 L 338.4 230.2 L 335.8 232.6 L 333.2 234.9 L 330.4 236.7 L 327.7 238.7 L 324.8 240.3 L 321.9 242.1 L 318.8 243.1 L 315.8 244.3 L 312.7 245.5 L 309.5 246.2 L 306.4 246.9 L 303.2 247.3 L 300.0 247.6 L 300.0 247.6 L 296.8 247.3 L 293.6 246.9 L 290.5 246.2 L 287.3 245.5 L 284.2 244.3 L 281.2 243.1 L 278.1 242.1 L 275.2 240.3 L 272.3 238.7 L 269.6 236.7 L 266.8 234.9 L 264.2 232.6 L 261.6 230.2 L 259.2 227.6 L 256.9 224.7 L 254.7 221.9 L 252.7 218.6 L 250.8 215.3 L 249.1 211.9 L 247.6 208.0 L 246.2 204.0 L 245.1 199.9 L 244.0 195.9 L 243.3 191.4 L 242.8 186.6 L 242.5 182.0 L 242.4 177.1 L 242.5 172.2 L 242.9 167.0 L 243.5 161.9 L 244.2 156.9 L 245.2 151.7 L 246.5 146.4 L 247.9 141.2 L 249.5 136.1 L 251.0 131.5 L 252.8 126.6 L 254.8 121.8 L 256.8 117.4 L 258.6 113.4 L 260.4 109.5 L 262.1 106.1 L 263.5 103.1 L 264.5 100.7 L 265.3 98.7 L 265.9 96.9 L 266.4 95.3 L 267.0 93.7 L 267.7 92.1 L 268.2 90.7 L 268.9 89.2 L 269.7 87.7 L 270.5 86.2 L 271.5 84.7 L 272.5 83.3 L 273.5 81.9 L 274.6 80.5 L 275.6 79.2 L 276.7 78.0 L 277.7 76.9 L 278.9 75.7 L 279.9 74.7 L 280.9 73.7 L 281.9 72.8 L 282.9 72.0 L 283.9 71.2 L 284.9 70.4 L 285.9 69.7 L 286.9 69.0 L 287.8 68.4 L 288.7 67.9 L 289.5 67.4 L 290.3 67.0 L 291.1 66.5 L 291.8 66.2 L 292.6 65.9 L 293.3 65.6 L 294.0 65.3 L 294.6 65.0 L 295.3 64.8 L 295.9 64.7 L 296.4 64.5 L 297.0 64.4 L 297.5 64.3 L 297.9 64.2 L 298.3 64.1 L 298.7 64.1 L 299.0 64.0 L 299.1 64.0 L 299.1 64.0 Z" fill="none" stroke="#3FA9F5" stroke-width="1.7" stroke-linejoin="round" stroke-linecap="round"/>
<text x="335" y="145.0" fill="#F32740" font-size="9.5" font-weight="700">187</text>
<text x="335" y="230.0" fill="#F32740" font-size="9.5" font-weight="700">374</text>
<text x="335" y="315.0" fill="#F32740" font-size="9.5" font-weight="700">561</text>
<text x="335" y="400.0" fill="#F32740" font-size="9.5" font-weight="700">750</text>
<rect x="274" y="58" width="52" height="11" rx="1.5" fill="#fafbfc" stroke="rgba(255,255,255,0.4)" stroke-width="0.5"/>
<line x1="272" y1="69.8" x2="328" y2="69.8" stroke="#F32740" stroke-width="0.7" stroke-dasharray="1.5 2"/>
<text x="300" y="66" text-anchor="middle" fill="#F32740" font-size="8" font-weight="700" letter-spacing="0.5">cd/klm SCALE</text>
<g transform="translate(22, 434)">
<text x="0" y="-8" fill="rgba(255,255,255,0.55)" font-size="8" letter-spacing="1.4">cd/klm</text>
<line x1="0" y1="6" x2="22" y2="6" stroke="#F32740" stroke-width="2.2"/>
<text x="28" y="9" fill="rgba(255,255,255,0.7)" font-size="9.5">C0 – C180</text>
<line x1="120" y1="6" x2="142" y2="6" stroke="#3FA9F5" stroke-width="1.7"/>
<text x="148" y="9" fill="rgba(255,255,255,0.7)" font-size="9.5">C90 – C270</text>
</g>
<text x="578" y="402" fill="rgba(255,255,255,0.45)" font-size="9" text-anchor="end">η = 133 lm/W</text>
<text x="578" y="418" fill="rgba(255,255,255,0.45)" font-size="9" text-anchor="end">15,731 lm · 118.5W</text>
<text x="578" y="434" fill="rgba(255,255,255,0.55)" font-size="8" letter-spacing="1.4" text-anchor="end">PEAK INTENSITY</text>
<text x="578" y="451" fill="#fff" font-weight="700" font-size="14" text-anchor="end">9,867 cd</text>
</svg>