<svg viewBox="0 0 600 460" xmlns="http://www.w3.org/2000/svg" font-family="JetBrains Mono, monospace" font-size="9.5">
<rect width="100%" height="100%" fill="#14171b"/>
<text x="22" y="26" fill="#F32740" font-weight="700" letter-spacing="2">LWPC3W80 · 80W · 5000K · FULL-CUTOFF FORWARD-THROW</text>
<text x="22" y="42" fill="rgba(255,255,255,0.55)" font-size="8" letter-spacing="1.4">LUMINOUS INTENSITY DISTRIBUTION (cd/klm)</text>
<path d="M 215.0 64.0 A 85.0 85.0 0 0 0 385.0 64.0" fill="none" stroke="rgba(120,200,200,0.18)" stroke-width="0.7"/>
<path d="M 130.0 64.0 A 170.0 170.0 0 0 0 470.0 64.0" fill="none" stroke="rgba(120,200,200,0.18)" stroke-width="0.7"/>
<path d="M 45.0 64.0 A 255.0 255.0 0 0 0 555.0 64.0" fill="none" stroke="rgba(120,200,200,0.18)" stroke-width="0.7"/>
<path d="M -40.0 64.0 A 340.0 340.0 0 0 0 640.0 64.0" fill="none" stroke="rgba(120,200,200,0.18)" stroke-width="0.7"/>
<line x1="300" y1="64" x2="212.0" y2="392.4" stroke="rgba(120,200,200,0.1)" stroke-width="0.5"/>
<line x1="300" y1="64" x2="388.0" y2="392.4" stroke="rgba(120,200,200,0.1)" stroke-width="0.5"/>
<line x1="300" y1="64" x2="130.0" y2="358.4" stroke="rgba(120,200,200,0.14)" stroke-width="0.5"/>
<line x1="300" y1="64" x2="470.0" y2="358.4" stroke="rgba(120,200,200,0.14)" stroke-width="0.5"/>
<line x1="300" y1="64" x2="59.6" y2="304.4" stroke="rgba(120,200,200,0.1)" stroke-width="0.5"/>
<line x1="300" y1="64" x2="540.4" y2="304.4" stroke="rgba(120,200,200,0.1)" stroke-width="0.5"/>
<line x1="300" y1="64" x2="5.6" y2="234.0" stroke="rgba(120,200,200,0.14)" stroke-width="0.5"/>
<line x1="300" y1="64" x2="594.4" y2="234.0" stroke="rgba(120,200,200,0.14)" stroke-width="0.5"/>
<line x1="300" y1="64" x2="-28.4" y2="152.0" stroke="rgba(120,200,200,0.1)" stroke-width="0.5"/>
<line x1="300" y1="64" x2="628.4" y2="152.0" stroke="rgba(120,200,200,0.1)" stroke-width="0.5"/>
<line x1="300" y1="64" x2="-40.0" y2="64.0" stroke="rgba(120,200,200,0.14)" stroke-width="0.5"/>
<line x1="300" y1="64" x2="640.0" y2="64.0" stroke="rgba(120,200,200,0.14)" stroke-width="0.5"/>
<line x1="300" y1="64" x2="300" y2="412" stroke="rgba(120,200,200,0.14)" stroke-width="0.5"/>
<line x1="-40" y1="64" x2="640" y2="64" stroke="rgba(120,200,200,0.14)" stroke-width="0.5"/>
<text x="209.4" y="406.1" text-anchor="middle" fill="rgba(255,255,255,0.4)" font-size="9">15°</text>
<text x="390.6" y="406.1" text-anchor="middle" fill="rgba(255,255,255,0.4)" font-size="9">15°</text>
<text x="125.0" y="371.1" text-anchor="middle" fill="rgba(255,255,255,0.6)" font-size="9">30°</text>
<text x="475.0" y="371.1" text-anchor="middle" fill="rgba(255,255,255,0.6)" font-size="9">30°</text>
<text x="52.5" y="315.5" text-anchor="middle" fill="rgba(255,255,255,0.4)" font-size="9">45°</text>
<text x="547.5" y="315.5" text-anchor="middle" fill="rgba(255,255,255,0.4)" font-size="9">45°</text>
<text x="-3.1" y="243.0" text-anchor="middle" fill="rgba(255,255,255,0.6)" font-size="9">60°</text>
<text x="603.1" y="243.0" text-anchor="middle" fill="rgba(255,255,255,0.6)" font-size="9">60°</text>
<text x="-38.1" y="158.6" text-anchor="middle" fill="rgba(255,255,255,0.4)" font-size="9">75°</text>
<text x="638.1" y="158.6" text-anchor="middle" fill="rgba(255,255,255,0.4)" font-size="9">75°</text>
<text x="-50.0" y="68.0" text-anchor="middle" fill="rgba(255,255,255,0.6)" font-size="9">90°</text>
<text x="650.0" y="68.0" text-anchor="middle" fill="rgba(255,255,255,0.6)" font-size="9">90°</text>
<text x="300" y="422" text-anchor="middle" fill="rgba(255,255,255,0.6)" font-size="9">0°</text>
<path d="M 301.6 64.0 L 301.7 64.0 L 302.0 64.1 L 302.3 64.1 L 302.5 64.2 L 302.9 64.3 L 303.6 64.4 L 304.2 64.5 L 305.2 64.7 L 306.2 65.0 L 307.7 65.4 L 309.2 65.8 L 310.7 66.3 L 312.3 66.8 L 314.2 67.5 L 315.7 68.2 L 317.9 69.1 L 320.5 70.3 L 322.8 71.4 L 326.6 73.1 L 331.6 75.5 L 343.1 80.6 L 354.7 86.1 L 388.1 101.4 L 439.7 126.2 L 489.2 152.2 L 525.4 173.9 L 547.0 189.8 L 563.3 204.0 L 576.1 217.1 L 582.4 227.0 L 583.5 234.4 L 577.8 237.6 L 570.2 239.5 L 559.9 239.3 L 548.9 238.3 L 538.7 237.4 L 528.1 235.9 L 518.1 234.4 L 508.8 233.1 L 501.4 233.0 L 493.3 232.0 L 486.3 231.8 L 480.5 232.3 L 475.4 233.4 L 470.1 234.1 L 465.5 235.4 L 461.6 237.3 L 457.1 238.5 L 453.3 240.3 L 450.3 243.1 L 447.2 245.8 L 444.8 249.3 L 442.5 253.1 L 441.7 259.0 L 440.7 264.9 L 439.1 270.2 L 437.8 276.2 L 436.4 282.3 L 435.0 288.7 L 433.3 294.8 L 431.2 300.6 L 428.2 305.2 L 424.7 308.7 L 421.2 312.5 L 417.3 315.6 L 412.8 317.4 L 408.5 319.7 L 403.6 320.4 L 399.3 322.6 L 394.2 322.8 L 389.3 323.4 L 384.1 322.9 L 379.1 322.9 L 373.7 321.0 L 368.9 321.3 L 363.7 319.6 L 358.5 317.2 L 353.4 315.4 L 348.5 313.8 L 343.5 310.5 L 338.7 308.5 L 333.9 305.3 L 329.2 301.9 L 324.5 296.8 L 319.8 290.5 L 315.3 282.6 L 311.1 276.1 L 307.2 269.6 L 303.5 263.7 L 300.0 257.6 L 300.0 257.6 L 296.7 250.3 L 293.8 241.7 L 291.1 233.5 L 288.8 224.0 L 286.8 215.1 L 285.1 206.1 L 283.6 197.3 L 282.5 188.5 L 281.7 179.7 L 281.1 171.4 L 280.8 162.9 L 280.7 154.6 L 280.8 147.4 L 280.9 140.6 L 281.2 134.3 L 281.4 128.8 L 281.5 124.4 L 281.6 120.6 L 281.6 117.6 L 281.5 115.0 L 281.3 112.8 L 281.0 111.1 L 280.6 109.7 L 280.2 108.4 L 279.8 107.4 L 279.2 106.7 L 278.6 105.9 L 278.0 105.5 L 277.2 105.1 L 276.3 105.0 L 275.2 105.3 L 274.1 105.5 L 272.8 105.8 L 271.4 106.5 L 269.8 107.1 L 268.2 107.8 L 266.3 108.7 L 264.5 109.5 L 262.1 110.8 L 259.6 112.1 L 256.7 113.8 L 253.8 115.3 L 250.5 117.1 L 247.5 118.3 L 245.1 118.9 L 243.0 119.0 L 242.0 118.1 L 241.3 116.8 L 241.4 115.0 L 241.9 112.8 L 243.5 109.8 L 246.0 106.2 L 248.5 102.8 L 250.6 99.9 L 253.0 96.9 L 255.3 94.2 L 258.1 91.2 L 260.9 88.4 L 263.5 85.9 L 265.8 83.7 L 267.8 81.9 L 269.3 80.3 L 270.7 78.9 L 272.1 77.6 L 273.5 76.4 L 274.7 75.3 L 276.0 74.2 L 277.0 73.3 L 278.1 72.4 L 279.2 71.6 L 280.3 70.8 L 281.7 69.9 L 283.5 69.0 L 284.6 68.4 L 285.9 67.8 L 287.0 67.2 L 288.4 66.7 L 289.8 66.2 L 291.7 65.6 L 293.3 65.2 L 294.3 64.9 L 295.2 64.7 L 296.1 64.5 L 296.7 64.3 L 297.4 64.2 L 297.9 64.1 L 298.1 64.1 L 298.1 64.1 L 298.1 64.0 L 298.1 64.0 Z" fill="none" stroke="#F32740" stroke-width="2.0" stroke-linejoin="round" stroke-linecap="round"/>
<path d="M 301.2 64.0 L 301.5 64.0 L 301.8 64.1 L 302.3 64.1 L 302.9 64.2 L 303.4 64.3 L 304.1 64.4 L 304.8 64.6 L 305.5 64.8 L 306.3 65.0 L 307.1 65.3 L 308.0 65.5 L 308.9 65.9 L 309.8 66.3 L 310.7 66.7 L 311.7 67.1 L 312.7 67.6 L 313.7 68.2 L 314.8 68.8 L 315.9 69.5 L 317.1 70.2 L 318.4 71.1 L 319.7 72.0 L 321.0 72.9 L 322.1 73.9 L 323.2 74.8 L 324.5 76.0 L 325.8 77.2 L 327.0 78.4 L 328.3 79.7 L 329.6 81.1 L 330.9 82.6 L 332.0 84.0 L 333.3 85.6 L 334.4 87.2 L 335.5 88.8 L 336.6 90.6 L 337.6 92.3 L 338.5 94.1 L 339.4 95.9 L 340.2 97.7 L 340.8 99.4 L 341.3 101.2 L 341.7 102.9 L 342.2 104.8 L 342.6 106.6 L 342.9 108.4 L 343.1 110.2 L 343.6 112.5 L 344.2 114.9 L 345.3 118.0 L 346.5 121.5 L 347.9 125.3 L 349.6 129.8 L 351.2 134.5 L 352.8 139.5 L 354.1 144.3 L 355.8 150.0 L 356.7 154.8 L 357.9 160.3 L 358.7 165.7 L 359.1 170.7 L 359.6 176.1 L 359.9 181.5 L 359.9 186.8 L 359.4 191.3 L 359.1 196.8 L 358.4 201.6 L 357.4 206.1 L 356.1 210.2 L 354.9 214.8 L 353.4 219.2 L 351.5 222.4 L 349.7 226.5 L 347.6 229.9 L 345.3 233.1 L 342.9 236.2 L 340.5 239.5 L 337.8 241.9 L 335.0 244.1 L 332.1 246.1 L 329.2 248.5 L 326.1 249.9 L 323.1 252.1 L 319.9 253.5 L 316.7 254.3 L 313.4 256.0 L 310.1 256.3 L 306.8 257.5 L 303.4 257.0 L 300.0 257.6 L 300.0 257.6 L 296.6 257.0 L 293.2 257.5 L 289.9 256.3 L 286.6 256.0 L 283.3 254.3 L 280.1 253.5 L 276.9 252.1 L 273.9 249.9 L 270.8 248.5 L 267.9 246.1 L 265.0 244.1 L 262.2 241.9 L 259.5 239.5 L 257.1 236.2 L 254.7 233.1 L 252.4 229.9 L 250.3 226.5 L 248.5 222.4 L 246.6 219.2 L 245.1 214.8 L 243.9 210.2 L 242.6 206.1 L 241.6 201.6 L 240.9 196.8 L 240.6 191.3 L 240.1 186.8 L 240.1 181.5 L 240.4 176.1 L 240.9 170.7 L 241.3 165.7 L 242.1 160.3 L 243.3 154.8 L 244.2 150.0 L 245.9 144.3 L 247.2 139.5 L 248.8 134.5 L 250.4 129.8 L 252.1 125.3 L 253.5 121.5 L 254.7 118.0 L 255.8 114.9 L 256.4 112.5 L 256.9 110.2 L 257.1 108.4 L 257.4 106.6 L 257.8 104.8 L 258.3 102.9 L 258.7 101.2 L 259.2 99.4 L 259.8 97.7 L 260.6 95.9 L 261.5 94.1 L 262.4 92.3 L 263.4 90.6 L 264.5 88.8 L 265.6 87.2 L 266.7 85.6 L 268.0 84.0 L 269.1 82.6 L 270.4 81.1 L 271.7 79.7 L 273.0 78.4 L 274.2 77.2 L 275.5 76.0 L 276.8 74.8 L 277.9 73.9 L 279.0 72.9 L 280.3 72.0 L 281.6 71.1 L 282.9 70.2 L 284.1 69.5 L 285.2 68.8 L 286.3 68.2 L 287.3 67.6 L 288.3 67.1 L 289.3 66.7 L 290.2 66.3 L 291.1 65.9 L 292.0 65.5 L 292.9 65.3 L 293.7 65.0 L 294.5 64.8 L 295.2 64.6 L 295.9 64.4 L 296.6 64.3 L 297.1 64.2 L 297.7 64.1 L 298.2 64.1 L 298.5 64.0 L 298.8 64.0 Z" fill="none" stroke="#3FA9F5" stroke-width="1.7" stroke-linejoin="round" stroke-linecap="round"/>
<text x="335" y="145.0" fill="#F32740" font-size="9.5" font-weight="700">156</text>
<text x="335" y="230.0" fill="#F32740" font-size="9.5" font-weight="700">312</text>
<text x="335" y="315.0" fill="#F32740" font-size="9.5" font-weight="700">468</text>
<text x="335" y="400.0" fill="#F32740" font-size="9.5" font-weight="700">625</text>
<rect x="274" y="58" width="52" height="11" rx="1.5" fill="#fafbfc" stroke="rgba(255,255,255,0.4)" stroke-width="0.5"/>
<line x1="272" y1="69.8" x2="328" y2="69.8" stroke="#F32740" stroke-width="0.7" stroke-dasharray="1.5 2"/>
<text x="300" y="66" text-anchor="middle" fill="#F32740" font-size="8" font-weight="700" letter-spacing="0.5">cd/klm SCALE</text>
<g transform="translate(22, 434)">
<text x="0" y="-8" fill="rgba(255,255,255,0.55)" font-size="8" letter-spacing="1.4">cd/klm</text>
<line x1="0" y1="6" x2="22" y2="6" stroke="#F32740" stroke-width="2.2"/>
<text x="28" y="9" fill="rgba(255,255,255,0.7)" font-size="9.5">C0 – C180</text>
<line x1="120" y1="6" x2="142" y2="6" stroke="#3FA9F5" stroke-width="1.7"/>
<text x="148" y="9" fill="rgba(255,255,255,0.7)" font-size="9.5">C90 – C270</text>
</g>
<text x="578" y="402" fill="rgba(255,255,255,0.45)" font-size="9" text-anchor="end">η = 149 lm/W</text>
<text x="578" y="418" fill="rgba(255,255,255,0.45)" font-size="9" text-anchor="end">11,949 lm · 80.3W</text>
<text x="578" y="434" fill="rgba(255,255,255,0.55)" font-size="8" letter-spacing="1.4" text-anchor="end">PEAK INTENSITY</text>
<text x="578" y="451" fill="#fff" font-weight="700" font-size="14" text-anchor="end">7,266 cd</text>
</svg>