<svg viewBox="0 0 600 460" xmlns="http://www.w3.org/2000/svg" font-family="JetBrains Mono, monospace" font-size="9.5">
<rect width="100%" height="100%" fill="#14171b"/>
<text x="22" y="26" fill="#F32740" font-weight="700" letter-spacing="2">LWPC3W80 · 80W · 3000K · FULL-CUTOFF FORWARD-THROW</text>
<text x="22" y="42" fill="rgba(255,255,255,0.55)" font-size="8" letter-spacing="1.4">LUMINOUS INTENSITY DISTRIBUTION (cd/klm)</text>
<path d="M 215.0 64.0 A 85.0 85.0 0 0 0 385.0 64.0" fill="none" stroke="rgba(120,200,200,0.18)" stroke-width="0.7"/>
<path d="M 130.0 64.0 A 170.0 170.0 0 0 0 470.0 64.0" fill="none" stroke="rgba(120,200,200,0.18)" stroke-width="0.7"/>
<path d="M 45.0 64.0 A 255.0 255.0 0 0 0 555.0 64.0" fill="none" stroke="rgba(120,200,200,0.18)" stroke-width="0.7"/>
<path d="M -40.0 64.0 A 340.0 340.0 0 0 0 640.0 64.0" fill="none" stroke="rgba(120,200,200,0.18)" stroke-width="0.7"/>
<line x1="300" y1="64" x2="212.0" y2="392.4" stroke="rgba(120,200,200,0.1)" stroke-width="0.5"/>
<line x1="300" y1="64" x2="388.0" y2="392.4" stroke="rgba(120,200,200,0.1)" stroke-width="0.5"/>
<line x1="300" y1="64" x2="130.0" y2="358.4" stroke="rgba(120,200,200,0.14)" stroke-width="0.5"/>
<line x1="300" y1="64" x2="470.0" y2="358.4" stroke="rgba(120,200,200,0.14)" stroke-width="0.5"/>
<line x1="300" y1="64" x2="59.6" y2="304.4" stroke="rgba(120,200,200,0.1)" stroke-width="0.5"/>
<line x1="300" y1="64" x2="540.4" y2="304.4" stroke="rgba(120,200,200,0.1)" stroke-width="0.5"/>
<line x1="300" y1="64" x2="5.6" y2="234.0" stroke="rgba(120,200,200,0.14)" stroke-width="0.5"/>
<line x1="300" y1="64" x2="594.4" y2="234.0" stroke="rgba(120,200,200,0.14)" stroke-width="0.5"/>
<line x1="300" y1="64" x2="-28.4" y2="152.0" stroke="rgba(120,200,200,0.1)" stroke-width="0.5"/>
<line x1="300" y1="64" x2="628.4" y2="152.0" stroke="rgba(120,200,200,0.1)" stroke-width="0.5"/>
<line x1="300" y1="64" x2="-40.0" y2="64.0" stroke="rgba(120,200,200,0.14)" stroke-width="0.5"/>
<line x1="300" y1="64" x2="640.0" y2="64.0" stroke="rgba(120,200,200,0.14)" stroke-width="0.5"/>
<line x1="300" y1="64" x2="300" y2="412" stroke="rgba(120,200,200,0.14)" stroke-width="0.5"/>
<line x1="-40" y1="64" x2="640" y2="64" stroke="rgba(120,200,200,0.14)" stroke-width="0.5"/>
<text x="209.4" y="406.1" text-anchor="middle" fill="rgba(255,255,255,0.4)" font-size="9">15°</text>
<text x="390.6" y="406.1" text-anchor="middle" fill="rgba(255,255,255,0.4)" font-size="9">15°</text>
<text x="125.0" y="371.1" text-anchor="middle" fill="rgba(255,255,255,0.6)" font-size="9">30°</text>
<text x="475.0" y="371.1" text-anchor="middle" fill="rgba(255,255,255,0.6)" font-size="9">30°</text>
<text x="52.5" y="315.5" text-anchor="middle" fill="rgba(255,255,255,0.4)" font-size="9">45°</text>
<text x="547.5" y="315.5" text-anchor="middle" fill="rgba(255,255,255,0.4)" font-size="9">45°</text>
<text x="-3.1" y="243.0" text-anchor="middle" fill="rgba(255,255,255,0.6)" font-size="9">60°</text>
<text x="603.1" y="243.0" text-anchor="middle" fill="rgba(255,255,255,0.6)" font-size="9">60°</text>
<text x="-38.1" y="158.6" text-anchor="middle" fill="rgba(255,255,255,0.4)" font-size="9">75°</text>
<text x="638.1" y="158.6" text-anchor="middle" fill="rgba(255,255,255,0.4)" font-size="9">75°</text>
<text x="-50.0" y="68.0" text-anchor="middle" fill="rgba(255,255,255,0.6)" font-size="9">90°</text>
<text x="650.0" y="68.0" text-anchor="middle" fill="rgba(255,255,255,0.6)" font-size="9">90°</text>
<text x="300" y="422" text-anchor="middle" fill="rgba(255,255,255,0.6)" font-size="9">0°</text>
<path d="M 301.3 64.0 L 301.4 64.0 L 301.6 64.1 L 301.8 64.1 L 302.1 64.1 L 302.3 64.2 L 302.8 64.3 L 303.4 64.4 L 304.0 64.6 L 305.1 64.8 L 306.1 65.1 L 307.4 65.4 L 308.7 65.8 L 310.0 66.3 L 311.5 66.9 L 312.7 67.4 L 314.3 68.1 L 316.3 69.0 L 317.8 69.8 L 320.1 70.9 L 323.4 72.5 L 334.9 77.4 L 346.2 82.7 L 357.7 88.5 L 395.3 106.4 L 437.2 128.0 L 470.5 147.2 L 495.5 163.6 L 516.6 179.2 L 533.1 193.2 L 542.3 203.9 L 543.3 210.2 L 538.6 213.1 L 530.7 213.8 L 520.9 213.0 L 511.0 211.7 L 501.2 210.2 L 492.0 208.7 L 483.9 207.7 L 476.3 206.8 L 469.4 206.2 L 463.1 205.8 L 457.2 205.5 L 452.1 205.9 L 447.8 206.7 L 443.6 207.6 L 439.7 208.6 L 436.0 209.8 L 432.5 211.1 L 429.3 212.7 L 426.4 214.6 L 423.7 216.8 L 421.4 219.4 L 419.7 222.9 L 418.2 226.7 L 417.1 231.3 L 416.1 236.1 L 415.1 241.2 L 414.1 246.6 L 412.8 251.8 L 411.4 256.9 L 409.6 261.7 L 407.4 266.0 L 404.9 269.9 L 402.0 273.1 L 398.8 275.8 L 395.2 277.8 L 391.5 279.6 L 387.5 280.6 L 383.5 281.5 L 379.3 282.0 L 375.1 282.1 L 370.9 282.1 L 366.5 281.6 L 362.2 281.0 L 357.9 280.0 L 353.6 278.9 L 349.2 277.3 L 345.0 275.6 L 340.8 273.7 L 336.6 271.7 L 332.5 269.1 L 328.5 266.6 L 324.5 263.4 L 320.5 259.4 L 316.6 254.1 L 312.8 247.4 L 309.3 241.0 L 306.0 234.9 L 302.9 229.9 L 300.0 224.7 L 300.0 224.7 L 297.3 218.3 L 294.9 211.3 L 292.7 203.6 L 290.8 196.1 L 289.1 188.3 L 287.7 180.8 L 286.6 173.3 L 285.7 166.0 L 285.0 158.8 L 284.5 151.7 L 284.3 144.9 L 284.2 138.4 L 284.2 132.4 L 284.3 127.0 L 284.4 122.1 L 284.6 117.8 L 284.7 114.1 L 284.7 111.0 L 284.7 108.4 L 284.6 106.4 L 284.4 104.7 L 284.2 103.1 L 284.0 101.8 L 283.7 100.7 L 283.3 99.8 L 282.9 99.0 L 282.5 98.4 L 281.9 98.0 L 281.4 97.6 L 280.7 97.4 L 279.9 97.4 L 279.1 97.5 L 278.1 97.8 L 276.9 98.2 L 275.7 98.7 L 274.3 99.4 L 272.8 100.1 L 271.1 101.0 L 269.1 102.2 L 266.9 103.5 L 264.3 105.1 L 261.5 106.7 L 258.6 108.4 L 255.8 109.8 L 253.3 110.7 L 251.5 110.8 L 250.6 110.1 L 250.3 108.8 L 250.4 107.1 L 251.2 105.0 L 252.8 102.2 L 254.9 99.2 L 257.2 96.3 L 259.1 93.7 L 260.8 91.5 L 262.6 89.2 L 264.9 86.8 L 267.2 84.5 L 269.2 82.5 L 271.0 80.7 L 272.6 79.2 L 274.0 77.8 L 275.2 76.6 L 276.2 75.6 L 277.3 74.6 L 278.5 73.6 L 279.5 72.7 L 280.6 71.8 L 281.5 71.1 L 282.5 70.4 L 283.4 69.7 L 284.6 69.0 L 286.3 68.2 L 287.2 67.7 L 288.2 67.2 L 289.3 66.7 L 290.3 66.2 L 291.4 65.8 L 293.0 65.4 L 294.5 65.0 L 295.4 64.7 L 296.1 64.6 L 296.7 64.4 L 297.3 64.3 L 297.8 64.2 L 298.3 64.1 L 298.5 64.1 L 298.5 64.1 L 298.5 64.0 L 298.4 64.0 Z" fill="none" stroke="#F32740" stroke-width="2.0" stroke-linejoin="round" stroke-linecap="round"/>
<path d="M 301.0 64.0 L 301.2 64.0 L 301.6 64.1 L 302.0 64.1 L 302.4 64.2 L 302.9 64.3 L 303.5 64.4 L 304.0 64.5 L 304.6 64.6 L 305.2 64.8 L 305.9 65.0 L 306.6 65.3 L 307.3 65.6 L 308.0 65.9 L 308.8 66.2 L 309.6 66.6 L 310.5 67.0 L 311.3 67.4 L 312.1 67.9 L 313.0 68.5 L 314.0 69.1 L 315.1 69.8 L 316.1 70.5 L 317.1 71.3 L 318.1 72.1 L 319.1 72.9 L 320.1 73.8 L 321.2 74.8 L 322.2 75.8 L 323.4 77.0 L 324.4 78.1 L 325.5 79.4 L 326.6 80.6 L 327.6 81.9 L 328.6 83.3 L 329.6 84.7 L 330.6 86.2 L 331.4 87.7 L 332.2 89.2 L 333.0 90.7 L 333.5 92.1 L 334.1 93.6 L 334.8 95.3 L 335.3 96.9 L 335.8 98.6 L 336.4 100.4 L 337.2 102.5 L 338.2 105.0 L 339.4 107.8 L 340.8 111.0 L 342.3 114.4 L 343.8 118.1 L 345.3 122.0 L 346.7 126.0 L 348.0 130.1 L 349.1 134.2 L 350.0 138.2 L 350.8 142.2 L 351.4 146.2 L 351.8 150.3 L 352.1 154.3 L 352.3 158.4 L 352.3 162.4 L 352.2 166.4 L 351.9 170.5 L 351.4 174.3 L 350.8 178.1 L 350.0 181.8 L 349.1 185.4 L 347.9 188.8 L 346.7 192.2 L 345.3 195.5 L 343.7 198.5 L 342.0 201.5 L 340.2 204.2 L 338.3 206.8 L 336.2 209.2 L 334.1 211.6 L 331.8 213.7 L 329.5 215.7 L 327.0 217.3 L 324.5 218.8 L 322.0 220.4 L 319.4 221.6 L 316.7 222.7 L 313.9 223.3 L 311.2 224.1 L 308.4 224.5 L 305.6 224.8 L 302.8 224.9 L 300.0 224.7 L 300.0 224.7 L 297.2 224.9 L 294.4 224.8 L 291.6 224.5 L 288.8 224.1 L 286.1 223.3 L 283.3 222.7 L 280.6 221.6 L 278.0 220.4 L 275.5 218.8 L 273.0 217.3 L 270.5 215.7 L 268.2 213.7 L 265.9 211.6 L 263.8 209.2 L 261.7 206.8 L 259.8 204.2 L 258.0 201.5 L 256.3 198.5 L 254.7 195.5 L 253.3 192.2 L 252.1 188.8 L 250.9 185.4 L 250.0 181.8 L 249.2 178.1 L 248.6 174.3 L 248.1 170.5 L 247.8 166.4 L 247.7 162.4 L 247.7 158.4 L 247.9 154.3 L 248.2 150.3 L 248.6 146.2 L 249.2 142.2 L 250.0 138.2 L 250.9 134.2 L 252.0 130.1 L 253.3 126.0 L 254.7 122.0 L 256.2 118.1 L 257.7 114.4 L 259.2 111.0 L 260.6 107.8 L 261.8 105.0 L 262.8 102.5 L 263.6 100.4 L 264.2 98.6 L 264.7 96.9 L 265.2 95.3 L 265.9 93.6 L 266.5 92.1 L 267.0 90.7 L 267.8 89.2 L 268.6 87.7 L 269.4 86.2 L 270.4 84.7 L 271.4 83.3 L 272.4 81.9 L 273.4 80.6 L 274.5 79.4 L 275.6 78.1 L 276.6 77.0 L 277.8 75.8 L 278.8 74.8 L 279.9 73.8 L 280.9 72.9 L 281.9 72.1 L 282.9 71.3 L 283.9 70.5 L 284.9 69.8 L 286.0 69.1 L 287.0 68.5 L 287.9 67.9 L 288.7 67.4 L 289.5 67.0 L 290.4 66.6 L 291.2 66.2 L 292.0 65.9 L 292.7 65.6 L 293.4 65.3 L 294.1 65.0 L 294.8 64.8 L 295.4 64.6 L 296.0 64.5 L 296.5 64.4 L 297.1 64.3 L 297.6 64.2 L 298.0 64.1 L 298.4 64.1 L 298.8 64.0 L 299.0 64.0 Z" fill="none" stroke="#3FA9F5" stroke-width="1.7" stroke-linejoin="round" stroke-linecap="round"/>
<text x="335" y="145.0" fill="#F32740" font-size="9.5" font-weight="700">187</text>
<text x="335" y="230.0" fill="#F32740" font-size="9.5" font-weight="700">374</text>
<text x="335" y="315.0" fill="#F32740" font-size="9.5" font-weight="700">561</text>
<text x="335" y="400.0" fill="#F32740" font-size="9.5" font-weight="700">750</text>
<rect x="274" y="58" width="52" height="11" rx="1.5" fill="#fafbfc" stroke="rgba(255,255,255,0.4)" stroke-width="0.5"/>
<line x1="272" y1="69.8" x2="328" y2="69.8" stroke="#F32740" stroke-width="0.7" stroke-dasharray="1.5 2"/>
<text x="300" y="66" text-anchor="middle" fill="#F32740" font-size="8" font-weight="700" letter-spacing="0.5">cd/klm SCALE</text>
<g transform="translate(22, 434)">
<text x="0" y="-8" fill="rgba(255,255,255,0.55)" font-size="8" letter-spacing="1.4">cd/klm</text>
<line x1="0" y1="6" x2="22" y2="6" stroke="#F32740" stroke-width="2.2"/>
<text x="28" y="9" fill="rgba(255,255,255,0.7)" font-size="9.5">C0 – C180</text>
<line x1="120" y1="6" x2="142" y2="6" stroke="#3FA9F5" stroke-width="1.7"/>
<text x="148" y="9" fill="rgba(255,255,255,0.7)" font-size="9.5">C90 – C270</text>
</g>
<text x="578" y="402" fill="rgba(255,255,255,0.45)" font-size="9" text-anchor="end">η = 139 lm/W</text>
<text x="578" y="418" fill="rgba(255,255,255,0.45)" font-size="9" text-anchor="end">11,112 lm · 79.7W</text>
<text x="578" y="434" fill="rgba(255,255,255,0.55)" font-size="8" letter-spacing="1.4" text-anchor="end">PEAK INTENSITY</text>
<text x="578" y="451" fill="#fff" font-weight="700" font-size="14" text-anchor="end">6,956 cd</text>
</svg>