<svg viewBox="0 0 600 460" xmlns="http://www.w3.org/2000/svg" font-family="JetBrains Mono, monospace" font-size="9.5">
<rect width="100%" height="100%" fill="#14171b"/>
<text x="22" y="26" fill="#F32740" font-weight="700" letter-spacing="2">LWPC3W120 · 120W · 4000K · FULL-CUTOFF FORWARD-THROW</text>
<text x="22" y="42" fill="rgba(255,255,255,0.55)" font-size="8" letter-spacing="1.4">LUMINOUS INTENSITY DISTRIBUTION (cd/klm)</text>
<path d="M 215.0 64.0 A 85.0 85.0 0 0 0 385.0 64.0" fill="none" stroke="rgba(120,200,200,0.18)" stroke-width="0.7"/>
<path d="M 130.0 64.0 A 170.0 170.0 0 0 0 470.0 64.0" fill="none" stroke="rgba(120,200,200,0.18)" stroke-width="0.7"/>
<path d="M 45.0 64.0 A 255.0 255.0 0 0 0 555.0 64.0" fill="none" stroke="rgba(120,200,200,0.18)" stroke-width="0.7"/>
<path d="M -40.0 64.0 A 340.0 340.0 0 0 0 640.0 64.0" fill="none" stroke="rgba(120,200,200,0.18)" stroke-width="0.7"/>
<line x1="300" y1="64" x2="212.0" y2="392.4" stroke="rgba(120,200,200,0.1)" stroke-width="0.5"/>
<line x1="300" y1="64" x2="388.0" y2="392.4" stroke="rgba(120,200,200,0.1)" stroke-width="0.5"/>
<line x1="300" y1="64" x2="130.0" y2="358.4" stroke="rgba(120,200,200,0.14)" stroke-width="0.5"/>
<line x1="300" y1="64" x2="470.0" y2="358.4" stroke="rgba(120,200,200,0.14)" stroke-width="0.5"/>
<line x1="300" y1="64" x2="59.6" y2="304.4" stroke="rgba(120,200,200,0.1)" stroke-width="0.5"/>
<line x1="300" y1="64" x2="540.4" y2="304.4" stroke="rgba(120,200,200,0.1)" stroke-width="0.5"/>
<line x1="300" y1="64" x2="5.6" y2="234.0" stroke="rgba(120,200,200,0.14)" stroke-width="0.5"/>
<line x1="300" y1="64" x2="594.4" y2="234.0" stroke="rgba(120,200,200,0.14)" stroke-width="0.5"/>
<line x1="300" y1="64" x2="-28.4" y2="152.0" stroke="rgba(120,200,200,0.1)" stroke-width="0.5"/>
<line x1="300" y1="64" x2="628.4" y2="152.0" stroke="rgba(120,200,200,0.1)" stroke-width="0.5"/>
<line x1="300" y1="64" x2="-40.0" y2="64.0" stroke="rgba(120,200,200,0.14)" stroke-width="0.5"/>
<line x1="300" y1="64" x2="640.0" y2="64.0" stroke="rgba(120,200,200,0.14)" stroke-width="0.5"/>
<line x1="300" y1="64" x2="300" y2="412" stroke="rgba(120,200,200,0.14)" stroke-width="0.5"/>
<line x1="-40" y1="64" x2="640" y2="64" stroke="rgba(120,200,200,0.14)" stroke-width="0.5"/>
<text x="209.4" y="406.1" text-anchor="middle" fill="rgba(255,255,255,0.4)" font-size="9">15°</text>
<text x="390.6" y="406.1" text-anchor="middle" fill="rgba(255,255,255,0.4)" font-size="9">15°</text>
<text x="125.0" y="371.1" text-anchor="middle" fill="rgba(255,255,255,0.6)" font-size="9">30°</text>
<text x="475.0" y="371.1" text-anchor="middle" fill="rgba(255,255,255,0.6)" font-size="9">30°</text>
<text x="52.5" y="315.5" text-anchor="middle" fill="rgba(255,255,255,0.4)" font-size="9">45°</text>
<text x="547.5" y="315.5" text-anchor="middle" fill="rgba(255,255,255,0.4)" font-size="9">45°</text>
<text x="-3.1" y="243.0" text-anchor="middle" fill="rgba(255,255,255,0.6)" font-size="9">60°</text>
<text x="603.1" y="243.0" text-anchor="middle" fill="rgba(255,255,255,0.6)" font-size="9">60°</text>
<text x="-38.1" y="158.6" text-anchor="middle" fill="rgba(255,255,255,0.4)" font-size="9">75°</text>
<text x="638.1" y="158.6" text-anchor="middle" fill="rgba(255,255,255,0.4)" font-size="9">75°</text>
<text x="-50.0" y="68.0" text-anchor="middle" fill="rgba(255,255,255,0.6)" font-size="9">90°</text>
<text x="650.0" y="68.0" text-anchor="middle" fill="rgba(255,255,255,0.6)" font-size="9">90°</text>
<text x="300" y="422" text-anchor="middle" fill="rgba(255,255,255,0.6)" font-size="9">0°</text>
<path d="M 301.9 64.0 L 301.9 64.0 L 301.9 64.1 L 301.9 64.1 L 301.9 64.1 L 302.0 64.2 L 302.2 64.2 L 302.5 64.3 L 302.7 64.4 L 303.0 64.5 L 303.6 64.6 L 304.2 64.8 L 304.9 65.0 L 305.9 65.4 L 307.2 65.8 L 308.6 66.3 L 310.1 66.9 L 311.5 67.5 L 313.1 68.3 L 314.7 69.1 L 316.2 69.9 L 318.5 71.1 L 320.2 72.2 L 322.1 73.4 L 325.8 75.5 L 329.9 78.0 L 334.1 80.6 L 349.6 89.3 L 383.2 108.2 L 433.2 137.8 L 482.0 169.1 L 515.9 193.7 L 540.1 214.0 L 558.1 231.6 L 570.3 246.3 L 574.5 256.2 L 571.5 261.3 L 564.2 263.1 L 553.9 262.3 L 543.0 260.8 L 531.9 258.6 L 520.7 255.8 L 510.8 253.8 L 501.3 251.7 L 492.4 249.8 L 484.8 248.8 L 477.3 247.6 L 470.7 247.1 L 464.9 247.1 L 459.6 247.6 L 454.9 248.7 L 449.8 248.9 L 445.3 250.0 L 441.3 251.5 L 437.3 253.0 L 433.7 254.9 L 430.5 257.5 L 427.8 260.7 L 425.6 264.9 L 423.4 269.4 L 421.6 274.7 L 420.0 280.5 L 418.2 286.2 L 416.2 292.1 L 414.1 298.0 L 411.9 303.9 L 409.0 308.9 L 405.9 313.5 L 402.4 317.4 L 398.6 320.9 L 394.5 323.6 L 389.9 325.2 L 385.4 326.7 L 380.5 327.2 L 375.7 328.1 L 370.8 328.1 L 365.8 327.7 L 360.7 326.8 L 355.6 325.8 L 350.5 323.9 L 345.5 321.9 L 340.5 319.8 L 335.6 317.4 L 330.8 314.5 L 326.1 311.9 L 321.4 308.6 L 316.9 305.2 L 312.5 301.6 L 308.1 297.4 L 304.0 291.5 L 300.0 283.8 L 300.0 283.8 L 296.3 275.2 L 292.9 267.1 L 289.6 261.7 L 286.6 255.6 L 283.8 249.0 L 281.4 240.6 L 279.4 231.8 L 277.7 223.0 L 276.2 214.0 L 275.1 205.2 L 274.2 196.5 L 273.6 188.0 L 273.3 179.8 L 273.2 171.4 L 273.5 162.8 L 273.7 155.7 L 274.0 149.0 L 274.5 142.4 L 275.0 136.7 L 275.4 131.6 L 275.8 127.1 L 276.0 123.4 L 276.2 120.1 L 276.4 117.1 L 276.4 114.7 L 276.3 112.6 L 276.2 110.7 L 276.2 108.8 L 276.1 107.1 L 275.9 105.7 L 275.6 104.5 L 275.3 103.6 L 274.6 103.1 L 274.0 102.6 L 273.2 102.3 L 272.3 102.1 L 271.3 102.1 L 270.0 102.4 L 268.5 103.0 L 267.0 103.4 L 265.1 104.1 L 263.1 105.0 L 260.7 106.2 L 258.0 107.5 L 255.3 108.7 L 252.4 110.0 L 249.6 111.0 L 246.8 111.9 L 244.6 112.1 L 242.5 112.2 L 241.6 111.3 L 241.5 109.7 L 242.1 107.6 L 243.5 105.0 L 245.6 102.1 L 248.6 98.7 L 251.0 95.8 L 253.3 93.2 L 255.1 91.0 L 257.0 88.9 L 259.0 86.7 L 261.5 84.5 L 263.6 82.5 L 265.3 80.9 L 266.7 79.5 L 268.3 78.1 L 269.7 76.8 L 271.0 75.7 L 272.3 74.6 L 273.6 73.6 L 274.6 72.7 L 275.9 71.8 L 277.4 70.9 L 278.5 70.2 L 279.5 69.5 L 280.6 68.8 L 282.3 68.1 L 283.6 67.5 L 284.9 66.9 L 286.3 66.4 L 287.6 66.0 L 289.2 65.5 L 290.9 65.1 L 292.6 64.8 L 294.3 64.5 L 295.1 64.3 L 295.9 64.2 L 296.5 64.1 L 297.2 64.0 L 297.8 64.0 Z" fill="none" stroke="#F32740" stroke-width="2.0" stroke-linejoin="round" stroke-linecap="round"/>
<path d="M 301.1 64.0 L 301.1 64.0 L 301.2 64.0 L 301.6 64.1 L 302.0 64.1 L 302.5 64.2 L 303.0 64.3 L 303.6 64.4 L 304.3 64.6 L 304.9 64.8 L 305.6 65.0 L 306.4 65.2 L 307.2 65.5 L 308.0 65.9 L 308.9 66.2 L 309.7 66.6 L 310.6 67.0 L 311.5 67.5 L 312.5 68.1 L 313.5 68.7 L 314.5 69.3 L 315.6 70.0 L 316.9 70.8 L 318.0 71.7 L 319.2 72.5 L 320.4 73.5 L 321.6 74.5 L 322.8 75.6 L 324.0 76.7 L 325.2 78.0 L 326.5 79.3 L 327.8 80.7 L 329.1 82.2 L 330.3 83.7 L 331.6 85.3 L 332.8 86.9 L 334.0 88.7 L 335.2 90.5 L 336.2 92.3 L 337.2 94.1 L 338.0 95.9 L 338.6 97.5 L 339.4 99.5 L 340.2 101.5 L 340.9 103.5 L 341.6 105.6 L 342.6 108.2 L 344.0 111.2 L 345.9 115.0 L 348.2 119.4 L 350.4 124.1 L 353.1 129.6 L 355.6 135.1 L 357.8 140.8 L 360.0 146.6 L 362.0 152.6 L 363.9 158.8 L 365.6 165.0 L 367.0 171.3 L 368.2 177.5 L 369.2 183.8 L 369.6 189.6 L 370.0 195.6 L 370.1 201.6 L 369.9 207.3 L 369.4 212.8 L 368.7 218.2 L 367.7 223.6 L 366.4 228.4 L 365.0 233.3 L 363.2 237.7 L 361.3 242.1 L 359.2 246.2 L 356.9 250.0 L 354.4 253.8 L 351.8 257.4 L 349.0 260.5 L 346.1 263.6 L 343.0 266.2 L 339.8 268.9 L 336.6 271.3 L 333.2 273.7 L 329.7 275.3 L 326.2 277.4 L 322.6 278.8 L 318.9 279.7 L 315.2 281.2 L 311.4 281.8 L 307.6 282.7 L 303.8 283.1 L 300.0 283.8 L 300.0 283.8 L 296.2 283.1 L 292.4 282.7 L 288.6 281.8 L 284.8 281.2 L 281.1 279.7 L 277.4 278.8 L 273.8 277.4 L 270.3 275.3 L 266.8 273.7 L 263.4 271.3 L 260.2 268.9 L 257.0 266.2 L 253.9 263.6 L 251.0 260.5 L 248.2 257.4 L 245.6 253.8 L 243.1 250.0 L 240.8 246.2 L 238.7 242.1 L 236.8 237.7 L 235.0 233.3 L 233.6 228.4 L 232.3 223.6 L 231.3 218.2 L 230.6 212.8 L 230.1 207.3 L 229.9 201.6 L 230.0 195.6 L 230.4 189.6 L 230.8 183.8 L 231.8 177.5 L 233.0 171.3 L 234.4 165.0 L 236.1 158.8 L 238.0 152.6 L 240.0 146.6 L 242.2 140.8 L 244.4 135.1 L 246.9 129.6 L 249.6 124.1 L 251.8 119.4 L 254.1 115.0 L 256.0 111.2 L 257.4 108.2 L 258.4 105.6 L 259.1 103.5 L 259.8 101.5 L 260.6 99.5 L 261.4 97.5 L 262.0 95.9 L 262.8 94.1 L 263.8 92.3 L 264.8 90.5 L 266.0 88.7 L 267.2 86.9 L 268.4 85.3 L 269.7 83.7 L 270.9 82.2 L 272.2 80.7 L 273.5 79.3 L 274.8 78.0 L 276.0 76.7 L 277.2 75.6 L 278.4 74.5 L 279.6 73.5 L 280.8 72.5 L 282.0 71.7 L 283.1 70.8 L 284.4 70.0 L 285.5 69.3 L 286.5 68.7 L 287.5 68.1 L 288.5 67.5 L 289.4 67.0 L 290.3 66.6 L 291.1 66.2 L 292.0 65.9 L 292.8 65.5 L 293.6 65.2 L 294.4 65.0 L 295.1 64.8 L 295.7 64.6 L 296.4 64.4 L 297.0 64.3 L 297.5 64.2 L 298.0 64.1 L 298.4 64.1 L 298.8 64.0 L 298.9 64.0 L 298.9 64.0 Z" fill="none" stroke="#3FA9F5" stroke-width="1.7" stroke-linejoin="round" stroke-linecap="round"/>
<text x="335" y="145.0" fill="#F32740" font-size="9.5" font-weight="700">156</text>
<text x="335" y="230.0" fill="#F32740" font-size="9.5" font-weight="700">312</text>
<text x="335" y="315.0" fill="#F32740" font-size="9.5" font-weight="700">468</text>
<text x="335" y="400.0" fill="#F32740" font-size="9.5" font-weight="700">625</text>
<rect x="274" y="58" width="52" height="11" rx="1.5" fill="#fafbfc" stroke="rgba(255,255,255,0.4)" stroke-width="0.5"/>
<line x1="272" y1="69.8" x2="328" y2="69.8" stroke="#F32740" stroke-width="0.7" stroke-dasharray="1.5 2"/>
<text x="300" y="66" text-anchor="middle" fill="#F32740" font-size="8" font-weight="700" letter-spacing="0.5">cd/klm SCALE</text>
<g transform="translate(22, 434)">
<text x="0" y="-8" fill="rgba(255,255,255,0.55)" font-size="8" letter-spacing="1.4">cd/klm</text>
<line x1="0" y1="6" x2="22" y2="6" stroke="#F32740" stroke-width="2.2"/>
<text x="28" y="9" fill="rgba(255,255,255,0.7)" font-size="9.5">C0 – C180</text>
<line x1="120" y1="6" x2="142" y2="6" stroke="#3FA9F5" stroke-width="1.7"/>
<text x="148" y="9" fill="rgba(255,255,255,0.7)" font-size="9.5">C90 – C270</text>
</g>
<text x="578" y="402" fill="rgba(255,255,255,0.45)" font-size="9" text-anchor="end">η = 152 lm/W</text>
<text x="578" y="418" fill="rgba(255,255,255,0.45)" font-size="9" text-anchor="end">17,160 lm · 113.0W</text>
<text x="578" y="434" fill="rgba(255,255,255,0.55)" font-size="8" letter-spacing="1.4" text-anchor="end">PEAK INTENSITY</text>
<text x="578" y="451" fill="#fff" font-weight="700" font-size="14" text-anchor="end">10,586 cd</text>
</svg>