<svg xmlns="http://www.w3.org/2000/svg" height="800" width="1200" version="1.1" id="Layer_1" viewBox="-188.109 -174.645 1630.278 1047.87"><defs id="defs13694"><style id="style13692">.cls-1{fill:#134b97}</style></defs><path id="path13698" d="M339.54 291.61v-32.78H280v201h61V348.44q15.68-34.91 52.91-34.92a104.61 104.61 0 0121.56 2.14v-57.72q-7.85-2.85-19.07-2.85-31.03 0-56.86 36.52z" class="cls-1"/><path id="path13700" d="M610.58 433.3q29.49-30 29.49-74.2 0-43.83-29.49-73.94t-73.23-30.11q-43.74 0-73.13 30.25-29.39 30.25-29.4 73.8 0 43.55 29.4 73.88t73.13 30.34q43.74.04 73.23-30.02zm-105.47-39.48q-12.56-14.14-12.56-34.68 0-20.19 12.56-34.41 12.56-14.22 32.25-14.23 19.68 0 32.34 14.23 12.66 14.23 12.65 34.41 0 20.37-12.65 34.59-12.65 14.22-32.34 14.22-19.69 0-32.25-14.13z" class="cls-1"/><path id="path13702" d="M995.65 255.09q-42.4 0-71.8 29.58t-29.4 74.47q0 46 28.15 75.09 28.15 29.09 73.76 29.13 30.64 0 52.38-11.44a144 144 0 0039.91-31.62l-44.18-24.71q-17.1 15.6-44.54 15.6-39.37 0-46.32-34.92h138.26a45.35 45.35 0 01.36-4.9q.35-3.11.53-5.7c.12-1.72.18-3.17.18-4.36q0-44.18-27.26-75.18-27.26-31-70.03-31.04zm-41.33 85q4.45-16.73 15.14-25.82a37.31 37.31 0 0124.94-9.09q13.54 0 24.5 10.55t13.1 24.37z" class="cls-1"/><path id="path13704" d="M1235 255.09q-31 0-56.83 36.53v-32.79h-59.51v201h60.93V348.44q15.68-34.91 52.91-34.92a104.59 104.59 0 0121.56 2.14v-57.72q-7.89-2.85-19.06-2.85z" class="cls-1"/><path id="path13706" d="M221.3 220.91a199.64 199.64 0 001.62-20.84h.08c0-78.63 64-142.6 142.6-142.6s142.6 64 142.6 142.6h57.47C565.67 89.75 475.92 0 365.6 0c-109.17 0-198.14 87.9-200 196.64h-.1a135.6 135.6 0 01-1.19 16.93c-2.63 20.42-10.25 49.86-31.61 74.13-16.71 19-39.57 31.86-68.21 38.56V192.73H0V459.8h64.5v-74.83a214 214 0 0054.79-17l58.16 91.82h77.15l-85.11-127.34c2.16-2.21 4.29-4.46 6.35-6.79 30.95-35.18 41.8-76.36 45.46-104.75z" class="cls-1"/><path id="path13708" d="M868.71 518.57V258.83h-58.08v17.11q-20.49-20.85-51.84-20.85-38.67 0-67 29.08t-28.33 72.13q0 42.83 29 71.4 29 28.57 66.28 28.56 30.28-.18 52.56-16.68v79a122.57 122.57 0 01-245.13 0h-57.46c0 99.27 80.76 180 180 180 97.48 0 177.06-77.89 179.9-174.7h.07v-2.74c0-.87.07-1.72.07-2.59zm-70.1-128.2q-12.38 13.66-32.52 13.66-19.78 0-32.34-13.66-12.56-13.66-12.56-34 0-20.32 12.56-34t32.34-13.67q19.95 0 32.43 13.67t12.47 34q.01 20.33-12.39 34z" class="cls-1"/><path id="path13710" d="M913.59 612.19a22.08 22.08 0 01-44.15 0c0-11.92 9.83-21.49 22.14-21.49s22.01 9.6 22.01 21.49zm-38.65 0c0 9.56 7.08 17.16 16.77 17.16 9.43 0 16.38-7.6 16.38-17s-6.94-17.29-16.51-17.29-16.63 7.7-16.63 17.13zm13.23 11.27h-5v-21.49a43.66 43.66 0 018.25-.65c4.06 0 5.9.65 7.47 1.57a6 6 0 012.1 4.72c0 2.36-1.83 4.19-4.45 5v.26c2.09.79 3.27 2.36 3.93 5.24.66 3.27 1 4.58 1.57 5.37h-5.37c-.66-.79-1-2.75-1.7-5.24-.39-2.36-1.7-3.41-4.46-3.41h-2.36zm.13-12.18h2.36c2.75 0 5-.92 5-3.14 0-2-1.44-3.28-4.58-3.28a11.83 11.83 0 00-2.75.26z" class="cls-1"/></svg>