<svg viewBox="0 0 600 460" xmlns="http://www.w3.org/2000/svg" font-family="JetBrains Mono, monospace" font-size="9.5">
<rect width="100%" height="100%" fill="#14171b"/>
<text x="22" y="26" fill="#F32740" font-weight="700" letter-spacing="2">LWPA40 · 40W · ADJUSTABLE WALL · BEAM (CCT-INVARIANT)</text>
<text x="22" y="42" fill="rgba(255,255,255,0.55)" font-size="8" letter-spacing="1.4">LUMINOUS INTENSITY DISTRIBUTION (cd/klm)</text>
<path d="M 232.0 64.0 A 68.0 68.0 0 0 0 368.0 64.0" fill="none" stroke="rgba(120,200,200,0.18)" stroke-width="0.7"/>
<path d="M 164.0 64.0 A 136.0 136.0 0 0 0 436.0 64.0" fill="none" stroke="rgba(120,200,200,0.18)" stroke-width="0.7"/>
<path d="M 96.0 64.0 A 204.0 204.0 0 0 0 504.0 64.0" fill="none" stroke="rgba(120,200,200,0.18)" stroke-width="0.7"/>
<path d="M 28.0 64.0 A 272.0 272.0 0 0 0 572.0 64.0" fill="none" stroke="rgba(120,200,200,0.18)" stroke-width="0.7"/>
<path d="M -40.0 64.0 A 340.0 340.0 0 0 0 640.0 64.0" fill="none" stroke="rgba(120,200,200,0.18)" stroke-width="0.7"/>
<line x1="300.0" y1="64" x2="388.0" y2="392.4" stroke="rgba(120,200,200,0.10)" stroke-width="0.5"/>
<line x1="300.0" y1="64" x2="212.0" y2="392.4" stroke="rgba(120,200,200,0.10)" stroke-width="0.5"/>
<line x1="300.0" y1="64" x2="470.0" y2="358.4" stroke="rgba(120,200,200,0.10)" stroke-width="0.5"/>
<line x1="300.0" y1="64" x2="130.0" y2="358.4" stroke="rgba(120,200,200,0.10)" stroke-width="0.5"/>
<line x1="300.0" y1="64" x2="540.4" y2="304.4" stroke="rgba(120,200,200,0.10)" stroke-width="0.5"/>
<line x1="300.0" y1="64" x2="59.6" y2="304.4" stroke="rgba(120,200,200,0.10)" stroke-width="0.5"/>
<line x1="300.0" y1="64" x2="594.4" y2="234.0" stroke="rgba(120,200,200,0.10)" stroke-width="0.5"/>
<line x1="300.0" y1="64" x2="5.6" y2="234.0" stroke="rgba(120,200,200,0.10)" stroke-width="0.5"/>
<line x1="300.0" y1="64" x2="628.4" y2="152.0" stroke="rgba(120,200,200,0.10)" stroke-width="0.5"/>
<line x1="300.0" y1="64" x2="-28.4" y2="152.0" stroke="rgba(120,200,200,0.10)" stroke-width="0.5"/>
<line x1="300.0" y1="64" x2="640.0" y2="64.0" stroke="rgba(120,200,200,0.10)" stroke-width="0.5"/>
<line x1="300.0" y1="64" x2="-40.0" y2="64.0" stroke="rgba(120,200,200,0.10)" stroke-width="0.5"/>
<line x1="300.0" y1="64" x2="300.0" y2="408" stroke="rgba(120,200,200,0.14)" stroke-width="0.5"/>
<line x1="-40.0" y1="64" x2="640.0" y2="64" stroke="rgba(120,200,200,0.14)" stroke-width="0.5"/>
<text x="391.6" y="408.9" text-anchor="middle" fill="rgba(255,255,255,0.4)" font-size="9">15°</text>
<text x="208.4" y="408.9" text-anchor="middle" fill="rgba(255,255,255,0.4)" font-size="9">15°</text>
<text x="477.0" y="373.6" text-anchor="middle" fill="rgba(255,255,255,0.6)" font-size="9">30°</text>
<text x="123.0" y="373.6" text-anchor="middle" fill="rgba(255,255,255,0.6)" font-size="9">30°</text>
<text x="550.3" y="317.3" text-anchor="middle" fill="rgba(255,255,255,0.4)" font-size="9">45°</text>
<text x="49.7" y="317.3" text-anchor="middle" fill="rgba(255,255,255,0.4)" font-size="9">45°</text>
<text x="606.6" y="244.0" text-anchor="middle" fill="rgba(255,255,255,0.6)" font-size="9">60°</text>
<text x="-6.6" y="244.0" text-anchor="middle" fill="rgba(255,255,255,0.6)" font-size="9">60°</text>
<text x="641.9" y="158.6" text-anchor="middle" fill="rgba(255,255,255,0.4)" font-size="9">75°</text>
<text x="-41.9" y="158.6" text-anchor="middle" fill="rgba(255,255,255,0.4)" font-size="9">75°</text>
<text x="654.0" y="67.0" text-anchor="middle" fill="rgba(255,255,255,0.6)" font-size="9">90°</text>
<text x="-54.0" y="67.0" text-anchor="middle" fill="rgba(255,255,255,0.6)" font-size="9">90°</text>
<text x="300" y="426" text-anchor="middle" fill="rgba(255,255,255,0.6)" font-size="9">0°</text>
<path d="M 300.0 272.5 L 303.6 273.0 L 307.3 273.7 L 311.0 274.2 L 314.7 274.7 L 318.4 274.7 L 322.2 274.8 L 325.9 274.9 L 329.6 274.8 L 333.3 274.5 L 337.1 274.3 L 340.8 273.7 L 344.4 273.0 L 348.1 272.4 L 351.8 271.7 L 355.4 270.7 L 359.0 269.7 L 362.5 268.6 L 366.1 267.3 L 369.6 266.1 L 373.2 265.2 L 376.7 263.8 L 380.1 262.3 L 383.5 260.8 L 387.0 259.3 L 390.3 257.6 L 393.6 256.0 L 396.9 254.2 L 400.2 252.4 L 403.4 250.5 L 406.6 248.6 L 409.7 246.6 L 412.8 244.5 L 415.9 242.5 L 419.1 240.6 L 422.0 238.3 L 425.2 236.3 L 428.4 234.3 L 431.7 232.5 L 435.0 230.7 L 438.3 228.8 L 441.7 227.0 L 445.2 225.2 L 448.8 223.5 L 452.6 222.0 L 455.9 219.9 L 459.5 218.1 L 463.1 216.1 L 466.7 214.1 L 470.3 212.0 L 473.8 209.8 L 477.0 207.3 L 479.8 204.5 L 482.0 201.2 L 483.7 197.5 L 483.8 192.7 L 483.1 187.5 L 481.0 181.6 L 477.5 174.9 L 472.4 167.6 L 466.0 159.8 L 457.9 151.5 L 448.1 142.8 L 436.1 133.3 L 421.0 123.0 L 403.1 112.1 L 381.9 100.5 L 359.0 89.0 L 346.4 82.7 L 333.6 76.9 L 320.7 71.5 L 316.3 69.6 L 314.0 68.6 L 312.2 67.7 L 310.0 66.9 L 308.6 66.3 L 307.7 65.9 L 306.7 65.6 L 305.9 65.3 L 305.1 65.0 L 304.3 64.8 L 303.7 64.6 L 303.1 64.4 L 302.5 64.3 L 301.9 64.2 L 301.5 64.1 L 301.0 64.1 L 300.6 64.0 L 300.4 64.0 L 300.1 64.0 L 300.0 64.0 L 300.0 64.0 L 299.9 64.0 L 299.6 64.0 L 299.3 64.0 L 299.1 64.1 L 298.6 64.1 L 298.1 64.2 L 297.5 64.3 L 296.6 64.5 L 295.6 64.7 L 294.6 64.9 L 293.6 65.2 L 292.6 65.6 L 291.6 65.9 L 290.7 66.3 L 289.8 66.7 L 289.0 67.1 L 288.4 67.6 L 287.8 68.0 L 286.8 68.6 L 285.7 69.2 L 284.7 69.9 L 283.0 70.9 L 281.5 71.8 L 280.2 72.8 L 279.2 73.7 L 278.3 74.6 L 277.7 75.4 L 277.2 76.1 L 276.9 76.8 L 276.6 77.5 L 276.4 78.2 L 276.3 78.8 L 276.2 79.4 L 276.2 80.1 L 276.2 80.7 L 276.2 81.3 L 276.2 81.9 L 276.2 82.6 L 276.0 83.5 L 275.5 84.5 L 274.2 86.4 L 272.5 88.8 L 270.6 91.4 L 268.4 94.5 L 266.0 98.0 L 263.5 101.8 L 261.0 105.9 L 258.2 110.5 L 255.3 115.5 L 252.4 120.7 L 249.6 126.2 L 247.0 131.8 L 244.7 137.3 L 242.8 142.7 L 241.1 148.1 L 239.6 153.5 L 238.4 158.9 L 237.4 164.2 L 236.6 169.5 L 236.2 174.6 L 235.9 179.7 L 235.7 184.8 L 235.6 190.3 L 235.8 195.7 L 236.3 200.6 L 236.9 205.7 L 237.8 210.5 L 239.0 215.1 L 240.3 219.5 L 241.9 223.7 L 243.6 227.8 L 245.5 231.8 L 247.5 235.9 L 249.6 239.6 L 252.1 242.8 L 254.7 245.9 L 257.4 248.6 L 260.2 251.2 L 263.1 253.7 L 266.1 256.1 L 269.2 258.3 L 272.4 260.4 L 275.6 262.6 L 278.9 264.8 L 282.3 266.6 L 285.7 268.1 L 289.2 269.5 L 292.8 270.7 L 296.4 271.5 L 300.0 272.5 Z" fill="none" stroke="#3FA9F5" stroke-width="1.7" stroke-linejoin="round" stroke-linecap="round"/>
<path d="M 300.0 272.5 L 303.6 272.6 L 307.3 272.8 L 310.9 272.7 L 314.6 272.5 L 318.2 272.4 L 321.8 271.8 L 325.5 271.5 L 329.2 271.6 L 332.8 270.9 L 336.4 270.2 L 340.0 269.7 L 343.5 268.8 L 347.1 267.9 L 350.6 267.1 L 354.2 266.2 L 357.6 264.7 L 360.9 263.3 L 364.2 261.7 L 367.5 260.1 L 370.7 258.2 L 373.8 256.2 L 376.7 253.8 L 379.5 251.3 L 382.2 248.7 L 384.8 245.9 L 387.2 242.7 L 389.5 239.7 L 391.6 236.4 L 393.6 232.9 L 395.3 229.1 L 397.0 225.5 L 398.5 221.6 L 399.8 217.6 L 400.9 213.5 L 401.7 209.2 L 402.2 204.7 L 402.5 200.1 L 402.8 195.5 L 402.6 190.8 L 402.1 185.7 L 401.3 180.5 L 400.4 175.5 L 399.1 170.3 L 397.7 165.1 L 395.7 159.7 L 393.5 154.3 L 391.1 149.0 L 388.6 143.8 L 385.6 138.4 L 382.5 133.2 L 379.3 128.2 L 376.0 123.4 L 372.5 118.6 L 369.1 114.2 L 365.7 110.0 L 362.0 105.8 L 358.2 101.8 L 354.1 97.8 L 349.9 94.0 L 345.6 90.3 L 341.4 86.9 L 337.2 83.8 L 333.0 80.8 L 329.0 78.1 L 325.2 75.7 L 321.9 73.7 L 319.1 72.1 L 316.7 70.8 L 315.1 69.8 L 313.4 68.9 L 311.7 68.0 L 310.6 67.4 L 309.6 66.9 L 308.7 66.5 L 307.9 66.1 L 307.1 65.8 L 306.4 65.5 L 305.7 65.2 L 305.0 65.0 L 304.3 64.8 L 303.7 64.6 L 303.1 64.4 L 302.4 64.3 L 301.9 64.2 L 301.4 64.1 L 300.9 64.1 L 300.4 64.0 L 300.2 64.0 L 300.0 64.0 L 300.0 64.0 L 300.0 64.0 L 299.7 64.0 L 299.5 64.0 L 299.2 64.0 L 298.8 64.1 L 298.2 64.2 L 297.6 64.3 L 297.0 64.4 L 296.4 64.5 L 295.8 64.7 L 295.1 64.9 L 294.4 65.1 L 293.7 65.3 L 293.0 65.6 L 292.3 65.9 L 291.5 66.3 L 290.7 66.7 L 289.8 67.1 L 288.8 67.6 L 287.7 68.2 L 286.2 69.0 L 284.4 70.0 L 281.9 71.3 L 278.9 72.9 L 275.3 75.0 L 271.1 77.5 L 266.8 80.2 L 262.5 83.1 L 258.0 86.3 L 253.9 89.6 L 249.8 93.0 L 245.8 96.5 L 242.2 100.1 L 238.8 103.8 L 235.4 107.6 L 232.1 111.5 L 229.1 115.5 L 226.0 119.7 L 222.9 124.2 L 219.9 128.8 L 217.1 133.6 L 214.3 138.5 L 211.8 143.4 L 209.4 148.5 L 207.2 153.6 L 205.3 158.7 L 203.8 163.6 L 202.6 168.4 L 201.6 173.3 L 200.8 178.1 L 200.1 183.0 L 199.7 187.9 L 199.8 192.3 L 199.8 197.0 L 200.2 201.4 L 200.6 205.9 L 201.5 210.0 L 202.7 213.9 L 203.9 217.8 L 205.4 221.5 L 207.0 225.1 L 208.6 228.8 L 210.4 232.4 L 212.6 235.6 L 214.8 238.7 L 217.1 241.7 L 219.7 244.4 L 222.3 247.0 L 225.0 249.7 L 227.9 251.8 L 230.9 253.9 L 234.0 255.8 L 237.1 257.6 L 240.2 259.5 L 243.5 261.1 L 246.8 262.7 L 250.2 263.7 L 253.7 264.7 L 257.1 265.7 L 260.6 266.7 L 264.1 267.7 L 267.6 268.6 L 271.2 269.3 L 274.7 269.9 L 278.3 270.7 L 281.9 271.4 L 285.5 271.6 L 289.1 272.0 L 292.7 272.2 L 296.4 272.4 L 300.0 272.5 Z" fill="none" stroke="#F32740" stroke-width="2.0" stroke-linejoin="round" stroke-linecap="round"/>
<text x="338" y="132" fill="#F32740" font-size="9.5" font-weight="700">125</text>
<text x="335" y="200" fill="#F32740" font-size="9.5" font-weight="700">250</text>
<text x="335" y="268" fill="#F32740" font-size="9.5" font-weight="700">375</text>
<text x="335" y="336" fill="#F32740" font-size="9.5" font-weight="700">500</text>
<rect x="274.0" y="58" width="52" height="11" rx="1.5" fill="#fafbfc" stroke="rgba(255,255,255,0.4)" stroke-width="0.5"/>
<line x1="272.0" y1="69.8" x2="328.0" y2="69.8" stroke="#F32740" stroke-width="0.7" stroke-dasharray="1.5 2"/>
<text x="300" y="66" text-anchor="middle" fill="#F32740" font-size="8" font-weight="700" letter-spacing="0.5">cd/klm SCALE</text>
<g transform="translate(22, 434)">
<text x="0" y="-8" fill="rgba(255,255,255,0.55)" font-size="8" letter-spacing="1.4">cd/klm</text>
<line x1="0" y1="6" x2="22" y2="6" stroke="#F32740" stroke-width="2.2"/>
<text x="28" y="9" fill="rgba(255,255,255,0.7)" font-size="9.5">C0 – C180</text>
<line x1="120" y1="6" x2="142" y2="6" stroke="#3FA9F5" stroke-width="1.7"/>
<text x="148" y="9" fill="rgba(255,255,255,0.7)" font-size="9.5">C90 – C270</text>
</g>
<text x="578" y="402" fill="rgba(255,255,255,0.45)" font-size="9" text-anchor="end">η = 122 lm/W</text>
<text x="578" y="418" fill="rgba(255,255,255,0.45)" font-size="9" text-anchor="end">5,031 lm · 41.1W</text>
<text x="578" y="434" fill="rgba(255,255,255,0.55)" font-size="8" letter-spacing="1.4" text-anchor="end">PEAK INTENSITY</text>
<text x="578" y="451" fill="#fff" font-weight="700" font-size="14" text-anchor="end">2,110 cd</text>
</svg>