<svg viewBox="0 0 600 460" xmlns="http://www.w3.org/2000/svg" font-family="JetBrains Mono, monospace" font-size="9.5">
<rect width="100%" height="100%" fill="#14171b"/>
<text x="22" y="26" fill="#F32740" font-weight="700" letter-spacing="2">LWPA67 · 67W · ADJUSTABLE WALL · BEAM (CCT-INVARIANT)</text>
<text x="22" y="42" fill="rgba(255,255,255,0.55)" font-size="8" letter-spacing="1.4">LUMINOUS INTENSITY DISTRIBUTION (cd/klm)</text>
<path d="M 232.0 64.0 A 68.0 68.0 0 0 0 368.0 64.0" fill="none" stroke="rgba(120,200,200,0.18)" stroke-width="0.7"/>
<path d="M 164.0 64.0 A 136.0 136.0 0 0 0 436.0 64.0" fill="none" stroke="rgba(120,200,200,0.18)" stroke-width="0.7"/>
<path d="M 96.0 64.0 A 204.0 204.0 0 0 0 504.0 64.0" fill="none" stroke="rgba(120,200,200,0.18)" stroke-width="0.7"/>
<path d="M 28.0 64.0 A 272.0 272.0 0 0 0 572.0 64.0" fill="none" stroke="rgba(120,200,200,0.18)" stroke-width="0.7"/>
<path d="M -40.0 64.0 A 340.0 340.0 0 0 0 640.0 64.0" fill="none" stroke="rgba(120,200,200,0.18)" stroke-width="0.7"/>
<line x1="300.0" y1="64" x2="388.0" y2="392.4" stroke="rgba(120,200,200,0.10)" stroke-width="0.5"/>
<line x1="300.0" y1="64" x2="212.0" y2="392.4" stroke="rgba(120,200,200,0.10)" stroke-width="0.5"/>
<line x1="300.0" y1="64" x2="470.0" y2="358.4" stroke="rgba(120,200,200,0.10)" stroke-width="0.5"/>
<line x1="300.0" y1="64" x2="130.0" y2="358.4" stroke="rgba(120,200,200,0.10)" stroke-width="0.5"/>
<line x1="300.0" y1="64" x2="540.4" y2="304.4" stroke="rgba(120,200,200,0.10)" stroke-width="0.5"/>
<line x1="300.0" y1="64" x2="59.6" y2="304.4" stroke="rgba(120,200,200,0.10)" stroke-width="0.5"/>
<line x1="300.0" y1="64" x2="594.4" y2="234.0" stroke="rgba(120,200,200,0.10)" stroke-width="0.5"/>
<line x1="300.0" y1="64" x2="5.6" y2="234.0" stroke="rgba(120,200,200,0.10)" stroke-width="0.5"/>
<line x1="300.0" y1="64" x2="628.4" y2="152.0" stroke="rgba(120,200,200,0.10)" stroke-width="0.5"/>
<line x1="300.0" y1="64" x2="-28.4" y2="152.0" stroke="rgba(120,200,200,0.10)" stroke-width="0.5"/>
<line x1="300.0" y1="64" x2="640.0" y2="64.0" stroke="rgba(120,200,200,0.10)" stroke-width="0.5"/>
<line x1="300.0" y1="64" x2="-40.0" y2="64.0" stroke="rgba(120,200,200,0.10)" stroke-width="0.5"/>
<line x1="300.0" y1="64" x2="300.0" y2="408" stroke="rgba(120,200,200,0.14)" stroke-width="0.5"/>
<line x1="-40.0" y1="64" x2="640.0" y2="64" stroke="rgba(120,200,200,0.14)" stroke-width="0.5"/>
<text x="391.6" y="408.9" text-anchor="middle" fill="rgba(255,255,255,0.4)" font-size="9">15°</text>
<text x="208.4" y="408.9" text-anchor="middle" fill="rgba(255,255,255,0.4)" font-size="9">15°</text>
<text x="477.0" y="373.6" text-anchor="middle" fill="rgba(255,255,255,0.6)" font-size="9">30°</text>
<text x="123.0" y="373.6" text-anchor="middle" fill="rgba(255,255,255,0.6)" font-size="9">30°</text>
<text x="550.3" y="317.3" text-anchor="middle" fill="rgba(255,255,255,0.4)" font-size="9">45°</text>
<text x="49.7" y="317.3" text-anchor="middle" fill="rgba(255,255,255,0.4)" font-size="9">45°</text>
<text x="606.6" y="244.0" text-anchor="middle" fill="rgba(255,255,255,0.6)" font-size="9">60°</text>
<text x="-6.6" y="244.0" text-anchor="middle" fill="rgba(255,255,255,0.6)" font-size="9">60°</text>
<text x="641.9" y="158.6" text-anchor="middle" fill="rgba(255,255,255,0.4)" font-size="9">75°</text>
<text x="-41.9" y="158.6" text-anchor="middle" fill="rgba(255,255,255,0.4)" font-size="9">75°</text>
<text x="654.0" y="67.0" text-anchor="middle" fill="rgba(255,255,255,0.6)" font-size="9">90°</text>
<text x="-54.0" y="67.0" text-anchor="middle" fill="rgba(255,255,255,0.6)" font-size="9">90°</text>
<text x="300" y="426" text-anchor="middle" fill="rgba(255,255,255,0.6)" font-size="9">0°</text>
<path d="M 300.0 191.1 L 302.3 193.1 L 304.6 195.0 L 307.0 197.0 L 309.4 198.9 L 312.0 200.6 L 314.5 202.3 L 317.2 203.9 L 319.9 205.4 L 322.6 206.9 L 325.4 208.3 L 328.3 209.5 L 331.2 210.6 L 334.2 212.0 L 337.2 213.1 L 340.2 214.1 L 343.3 215.2 L 346.5 216.0 L 349.7 216.9 L 353.0 217.8 L 356.3 218.8 L 359.7 219.6 L 363.2 220.3 L 366.8 221.3 L 370.4 222.0 L 374.1 222.8 L 377.8 223.5 L 381.6 224.1 L 385.4 224.6 L 389.3 225.1 L 393.3 225.5 L 397.3 226.0 L 401.5 226.4 L 405.8 226.9 L 410.2 227.4 L 414.6 227.7 L 419.3 228.2 L 423.9 228.5 L 428.8 228.9 L 433.5 228.8 L 438.5 229.0 L 443.4 228.9 L 448.2 228.6 L 453.2 228.3 L 457.9 227.5 L 462.2 226.2 L 466.3 224.6 L 470.1 222.6 L 473.3 220.1 L 475.6 216.7 L 477.2 212.7 L 477.6 207.8 L 476.6 202.0 L 474.2 195.3 L 470.0 187.5 L 463.6 178.5 L 455.1 168.6 L 444.6 157.9 L 432.0 146.5 L 418.7 135.3 L 404.6 124.4 L 391.2 114.5 L 376.3 104.6 L 360.9 95.0 L 344.4 85.7 L 330.1 78.1 L 321.6 73.6 L 312.9 69.5 L 310.6 68.3 L 310.1 67.9 L 309.2 67.3 L 308.2 66.8 L 307.4 66.4 L 306.8 66.1 L 306.2 65.8 L 305.6 65.5 L 305.0 65.3 L 304.5 65.0 L 303.9 64.8 L 303.4 64.7 L 302.8 64.5 L 302.3 64.4 L 301.8 64.3 L 301.3 64.2 L 301.0 64.1 L 300.6 64.1 L 300.4 64.0 L 300.2 64.0 L 300.1 64.0 L 300.1 64.0 L 300.0 64.0 L 299.8 64.0 L 299.6 64.0 L 299.3 64.0 L 299.1 64.0 L 298.8 64.1 L 298.3 64.1 L 297.8 64.2 L 297.2 64.3 L 296.6 64.5 L 296.0 64.6 L 295.3 64.8 L 294.6 65.1 L 293.9 65.3 L 293.1 65.6 L 292.4 65.9 L 291.6 66.2 L 290.9 66.6 L 290.2 67.0 L 289.6 67.4 L 289.1 67.8 L 288.6 68.1 L 288.2 68.5 L 287.9 68.9 L 287.6 69.2 L 287.4 69.6 L 287.3 69.9 L 287.1 70.3 L 286.9 70.7 L 286.3 71.3 L 285.1 72.2 L 282.8 73.9 L 279.7 76.2 L 275.7 79.2 L 271.7 82.4 L 267.6 85.8 L 264.0 89.2 L 260.9 92.4 L 258.8 95.0 L 257.6 97.1 L 257.1 98.7 L 257.0 100.1 L 257.1 101.3 L 257.4 102.4 L 257.7 103.4 L 258.2 104.4 L 258.7 105.3 L 259.2 106.3 L 259.7 107.3 L 260.1 108.3 L 260.6 109.4 L 260.9 110.6 L 261.2 111.9 L 261.5 113.3 L 261.8 114.7 L 262.1 116.2 L 262.4 117.7 L 262.8 119.2 L 263.3 120.5 L 263.8 121.9 L 264.4 123.3 L 265.0 124.7 L 265.6 126.1 L 266.2 127.6 L 266.8 129.2 L 267.4 130.8 L 268.2 132.3 L 268.9 133.8 L 269.8 135.3 L 270.5 137.0 L 271.3 138.9 L 272.1 140.7 L 272.9 142.7 L 273.8 144.7 L 274.6 147.0 L 275.5 149.3 L 276.5 151.8 L 277.5 154.3 L 278.6 156.9 L 279.6 159.7 L 280.8 162.5 L 282.1 165.4 L 283.5 168.2 L 284.9 171.2 L 286.5 174.1 L 288.1 176.8 L 289.9 179.4 L 291.8 181.9 L 293.7 184.4 L 295.7 186.7 L 297.8 188.9 L 300.0 191.1 Z" fill="none" stroke="#3FA9F5" stroke-width="1.7" stroke-linejoin="round" stroke-linecap="round"/>
<path d="M 300.0 191.1 L 302.2 191.0 L 304.4 190.9 L 306.6 190.8 L 308.9 190.7 L 311.1 190.6 L 313.3 190.4 L 315.5 190.3 L 317.7 190.2 L 320.0 190.2 L 322.2 190.0 L 324.5 189.9 L 326.8 189.9 L 329.1 189.9 L 331.3 189.7 L 333.7 189.8 L 336.0 189.6 L 338.4 189.6 L 340.8 189.7 L 343.3 189.7 L 345.8 189.8 L 348.3 189.8 L 350.9 189.9 L 353.5 190.1 L 356.2 190.3 L 359.0 190.6 L 361.7 190.5 L 364.5 190.6 L 367.4 190.7 L 370.4 191.0 L 373.4 191.1 L 376.4 191.2 L 379.6 191.5 L 382.8 191.5 L 386.2 191.8 L 389.7 192.1 L 393.2 192.2 L 396.7 192.4 L 400.3 192.3 L 404.0 192.5 L 407.8 192.4 L 411.6 192.3 L 415.5 192.3 L 419.5 192.1 L 423.4 191.8 L 427.5 191.5 L 431.4 190.9 L 435.3 190.2 L 439.0 189.1 L 442.3 187.7 L 445.4 186.0 L 448.1 184.0 L 450.4 181.5 L 452.2 178.7 L 453.3 175.4 L 454.0 171.8 L 453.9 167.8 L 453.4 163.6 L 452.2 159.1 L 450.3 154.3 L 447.4 149.1 L 443.5 143.6 L 438.1 137.4 L 431.5 131.0 L 423.1 124.0 L 413.6 117.0 L 402.3 109.5 L 390.1 102.2 L 378.0 95.5 L 365.8 89.2 L 353.3 83.4 L 342.0 78.5 L 332.3 74.5 L 324.5 71.5 L 318.5 69.3 L 314.2 67.8 L 311.3 66.8 L 309.9 66.3 L 308.4 65.8 L 307.0 65.4 L 306.1 65.1 L 305.2 64.8 L 304.5 64.6 L 303.9 64.5 L 303.3 64.3 L 302.7 64.2 L 302.1 64.1 L 301.6 64.1 L 301.1 64.0 L 300.6 64.0 L 300.1 64.0 L 300.0 64.0 L 299.7 64.0 L 299.5 64.0 L 299.3 64.0 L 298.8 64.1 L 298.2 64.2 L 297.6 64.2 L 297.0 64.4 L 296.4 64.5 L 295.8 64.7 L 295.2 64.8 L 294.5 65.1 L 293.8 65.3 L 293.0 65.6 L 292.1 66.0 L 291.1 66.4 L 289.9 66.9 L 288.1 67.6 L 285.1 68.8 L 278.9 71.3 L 272.8 73.9 L 266.7 76.8 L 257.0 81.4 L 245.8 87.0 L 233.9 93.4 L 221.4 100.7 L 209.4 108.2 L 198.0 116.0 L 187.9 123.6 L 179.0 131.0 L 171.8 138.0 L 165.8 144.6 L 161.0 150.9 L 157.7 156.4 L 155.1 161.7 L 153.4 166.7 L 152.4 171.2 L 152.1 175.4 L 152.4 179.3 L 153.1 182.9 L 154.4 186.2 L 156.3 188.9 L 158.4 191.5 L 161.1 193.6 L 164.2 195.2 L 167.5 196.5 L 171.1 197.4 L 175.0 198.1 L 178.8 198.6 L 182.6 199.0 L 186.6 199.2 L 190.4 199.3 L 194.3 199.3 L 198.1 199.2 L 201.9 199.0 L 205.7 198.7 L 209.4 198.4 L 212.9 198.1 L 216.5 197.6 L 219.9 197.3 L 223.2 197.0 L 226.5 196.6 L 229.6 196.4 L 232.7 196.1 L 235.7 195.8 L 238.6 195.6 L 241.5 195.3 L 244.4 195.0 L 247.2 194.6 L 249.9 194.5 L 252.7 194.0 L 255.3 193.8 L 257.9 193.6 L 260.4 193.4 L 263.0 193.1 L 265.4 193.0 L 267.9 192.8 L 270.3 192.7 L 272.7 192.7 L 275.0 192.6 L 277.3 192.5 L 279.7 192.3 L 282.0 192.1 L 284.3 192.0 L 286.6 191.9 L 288.8 191.9 L 291.1 191.6 L 293.3 191.3 L 295.6 191.2 L 297.8 191.2 L 300.0 191.1 Z" fill="none" stroke="#F32740" stroke-width="2.0" stroke-linejoin="round" stroke-linecap="round"/>
<text x="338" y="132" fill="#F32740" font-size="9.5" font-weight="700">125</text>
<text x="335" y="200" fill="#F32740" font-size="9.5" font-weight="700">250</text>
<text x="335" y="268" fill="#F32740" font-size="9.5" font-weight="700">375</text>
<text x="335" y="336" fill="#F32740" font-size="9.5" font-weight="700">500</text>
<rect x="274.0" y="58" width="52" height="11" rx="1.5" fill="#fafbfc" stroke="rgba(255,255,255,0.4)" stroke-width="0.5"/>
<line x1="272.0" y1="69.8" x2="328.0" y2="69.8" stroke="#F32740" stroke-width="0.7" stroke-dasharray="1.5 2"/>
<text x="300" y="66" text-anchor="middle" fill="#F32740" font-size="8" font-weight="700" letter-spacing="0.5">cd/klm SCALE</text>
<g transform="translate(22, 434)">
<text x="0" y="-8" fill="rgba(255,255,255,0.55)" font-size="8" letter-spacing="1.4">cd/klm</text>
<line x1="0" y1="6" x2="22" y2="6" stroke="#F32740" stroke-width="2.2"/>
<text x="28" y="9" fill="rgba(255,255,255,0.7)" font-size="9.5">C0 – C180</text>
<line x1="120" y1="6" x2="142" y2="6" stroke="#3FA9F5" stroke-width="1.7"/>
<text x="148" y="9" fill="rgba(255,255,255,0.7)" font-size="9.5">C90 – C270</text>
</g>
<text x="578" y="402" fill="rgba(255,255,255,0.45)" font-size="9" text-anchor="end">η = 128 lm/W</text>
<text x="578" y="418" fill="rgba(255,255,255,0.45)" font-size="9" text-anchor="end">8,646 lm · 67.3W</text>
<text x="578" y="434" fill="rgba(255,255,255,0.55)" font-size="8" letter-spacing="1.4" text-anchor="end">PEAK INTENSITY</text>
<text x="578" y="451" fill="#fff" font-weight="700" font-size="14" text-anchor="end">3,707 cd</text>
</svg>