<svg viewBox="0 0 600 460" xmlns="http://www.w3.org/2000/svg" font-family="JetBrains Mono, monospace" font-size="9.5">
<rect width="100%" height="100%" fill="#14171b"/>
<text x="22" y="26" fill="#F32740" font-weight="700" letter-spacing="2">LWPA27 · 27W · ADJUSTABLE WALL · BEAM (CCT-INVARIANT)</text>
<text x="22" y="42" fill="rgba(255,255,255,0.55)" font-size="8" letter-spacing="1.4">LUMINOUS INTENSITY DISTRIBUTION (cd/klm)</text>
<path d="M 232.0 64.0 A 68.0 68.0 0 0 0 368.0 64.0" fill="none" stroke="rgba(120,200,200,0.18)" stroke-width="0.7"/>
<path d="M 164.0 64.0 A 136.0 136.0 0 0 0 436.0 64.0" fill="none" stroke="rgba(120,200,200,0.18)" stroke-width="0.7"/>
<path d="M 96.0 64.0 A 204.0 204.0 0 0 0 504.0 64.0" fill="none" stroke="rgba(120,200,200,0.18)" stroke-width="0.7"/>
<path d="M 28.0 64.0 A 272.0 272.0 0 0 0 572.0 64.0" fill="none" stroke="rgba(120,200,200,0.18)" stroke-width="0.7"/>
<path d="M -40.0 64.0 A 340.0 340.0 0 0 0 640.0 64.0" fill="none" stroke="rgba(120,200,200,0.18)" stroke-width="0.7"/>
<line x1="300.0" y1="64" x2="388.0" y2="392.4" stroke="rgba(120,200,200,0.10)" stroke-width="0.5"/>
<line x1="300.0" y1="64" x2="212.0" y2="392.4" stroke="rgba(120,200,200,0.10)" stroke-width="0.5"/>
<line x1="300.0" y1="64" x2="470.0" y2="358.4" stroke="rgba(120,200,200,0.10)" stroke-width="0.5"/>
<line x1="300.0" y1="64" x2="130.0" y2="358.4" stroke="rgba(120,200,200,0.10)" stroke-width="0.5"/>
<line x1="300.0" y1="64" x2="540.4" y2="304.4" stroke="rgba(120,200,200,0.10)" stroke-width="0.5"/>
<line x1="300.0" y1="64" x2="59.6" y2="304.4" stroke="rgba(120,200,200,0.10)" stroke-width="0.5"/>
<line x1="300.0" y1="64" x2="594.4" y2="234.0" stroke="rgba(120,200,200,0.10)" stroke-width="0.5"/>
<line x1="300.0" y1="64" x2="5.6" y2="234.0" stroke="rgba(120,200,200,0.10)" stroke-width="0.5"/>
<line x1="300.0" y1="64" x2="628.4" y2="152.0" stroke="rgba(120,200,200,0.10)" stroke-width="0.5"/>
<line x1="300.0" y1="64" x2="-28.4" y2="152.0" stroke="rgba(120,200,200,0.10)" stroke-width="0.5"/>
<line x1="300.0" y1="64" x2="640.0" y2="64.0" stroke="rgba(120,200,200,0.10)" stroke-width="0.5"/>
<line x1="300.0" y1="64" x2="-40.0" y2="64.0" stroke="rgba(120,200,200,0.10)" stroke-width="0.5"/>
<line x1="300.0" y1="64" x2="300.0" y2="408" stroke="rgba(120,200,200,0.14)" stroke-width="0.5"/>
<line x1="-40.0" y1="64" x2="640.0" y2="64" stroke="rgba(120,200,200,0.14)" stroke-width="0.5"/>
<text x="391.6" y="408.9" text-anchor="middle" fill="rgba(255,255,255,0.4)" font-size="9">15°</text>
<text x="208.4" y="408.9" text-anchor="middle" fill="rgba(255,255,255,0.4)" font-size="9">15°</text>
<text x="477.0" y="373.6" text-anchor="middle" fill="rgba(255,255,255,0.6)" font-size="9">30°</text>
<text x="123.0" y="373.6" text-anchor="middle" fill="rgba(255,255,255,0.6)" font-size="9">30°</text>
<text x="550.3" y="317.3" text-anchor="middle" fill="rgba(255,255,255,0.4)" font-size="9">45°</text>
<text x="49.7" y="317.3" text-anchor="middle" fill="rgba(255,255,255,0.4)" font-size="9">45°</text>
<text x="606.6" y="244.0" text-anchor="middle" fill="rgba(255,255,255,0.6)" font-size="9">60°</text>
<text x="-6.6" y="244.0" text-anchor="middle" fill="rgba(255,255,255,0.6)" font-size="9">60°</text>
<text x="641.9" y="158.6" text-anchor="middle" fill="rgba(255,255,255,0.4)" font-size="9">75°</text>
<text x="-41.9" y="158.6" text-anchor="middle" fill="rgba(255,255,255,0.4)" font-size="9">75°</text>
<text x="654.0" y="67.0" text-anchor="middle" fill="rgba(255,255,255,0.6)" font-size="9">90°</text>
<text x="-54.0" y="67.0" text-anchor="middle" fill="rgba(255,255,255,0.6)" font-size="9">90°</text>
<text x="300" y="426" text-anchor="middle" fill="rgba(255,255,255,0.6)" font-size="9">0°</text>
<path d="M 300.0 287.7 L 303.9 288.7 L 307.9 289.1 L 311.8 289.3 L 315.8 289.7 L 319.7 289.5 L 323.7 289.1 L 327.6 288.6 L 331.5 288.0 L 335.4 287.2 L 339.2 286.1 L 343.0 285.1 L 346.7 283.7 L 350.4 282.2 L 354.2 281.4 L 357.8 279.8 L 361.4 278.0 L 364.9 276.4 L 368.3 274.4 L 371.8 272.6 L 375.1 270.3 L 378.4 268.2 L 381.5 265.6 L 384.5 263.1 L 387.8 261.1 L 390.7 258.6 L 393.6 256.0 L 396.5 253.4 L 399.3 250.8 L 402.1 248.1 L 404.6 245.2 L 407.3 242.6 L 409.9 239.8 L 412.4 237.0 L 414.9 234.3 L 417.3 231.5 L 419.5 228.5 L 421.7 225.5 L 424.0 222.7 L 426.7 220.4 L 429.2 218.0 L 432.0 215.9 L 434.8 213.7 L 437.5 211.5 L 440.6 209.6 L 443.8 207.8 L 446.9 205.8 L 450.2 204.0 L 453.5 202.2 L 457.0 200.5 L 460.1 198.4 L 463.3 196.3 L 465.8 193.6 L 467.9 190.5 L 469.5 187.2 L 470.7 183.5 L 470.4 178.9 L 469.1 173.8 L 466.0 167.7 L 461.8 161.2 L 456.0 154.0 L 449.1 146.6 L 439.8 138.3 L 427.9 129.2 L 412.5 118.9 L 393.1 107.4 L 371.5 95.8 L 349.5 85.0 L 327.2 75.0 L 319.6 71.5 L 315.1 69.5 L 313.5 68.7 L 311.6 67.8 L 309.2 66.8 L 308.2 66.3 L 307.1 65.9 L 306.0 65.5 L 305.3 65.2 L 304.3 64.9 L 303.5 64.7 L 302.9 64.5 L 302.3 64.4 L 301.7 64.2 L 301.2 64.2 L 301.0 64.1 L 300.7 64.1 L 300.5 64.0 L 300.2 64.0 L 300.1 64.0 L 300.0 64.0 L 300.0 64.0 L 299.9 64.0 L 299.6 64.0 L 299.2 64.0 L 299.0 64.1 L 298.7 64.1 L 297.7 64.2 L 296.8 64.3 L 295.8 64.5 L 294.5 64.8 L 293.1 65.1 L 291.7 65.5 L 290.4 65.9 L 289.0 66.3 L 287.7 66.8 L 286.3 67.4 L 285.2 68.0 L 284.2 68.5 L 283.4 69.1 L 282.6 69.7 L 280.6 70.7 L 278.6 71.8 L 276.7 73.0 L 274.2 74.4 L 272.0 75.9 L 270.2 77.3 L 268.8 78.6 L 267.5 79.8 L 266.5 81.1 L 265.7 82.3 L 265.0 83.4 L 264.5 84.5 L 264.1 85.6 L 263.9 86.5 L 263.8 87.5 L 263.8 88.4 L 264.0 89.2 L 264.0 90.1 L 264.1 91.0 L 264.3 91.9 L 264.4 92.9 L 264.4 93.9 L 264.2 95.1 L 263.7 96.7 L 262.6 98.8 L 261.3 101.4 L 259.7 104.3 L 257.7 107.8 L 255.7 111.5 L 253.7 115.4 L 251.6 119.6 L 249.5 124.1 L 247.4 128.9 L 245.7 133.5 L 243.9 138.4 L 242.3 143.4 L 241.0 148.2 L 239.8 153.3 L 238.6 158.6 L 237.6 163.8 L 236.9 169.1 L 236.4 174.1 L 236.0 179.4 L 235.9 184.6 L 235.7 190.1 L 235.7 195.8 L 236.1 201.1 L 236.5 206.6 L 237.1 212.1 L 238.1 217.3 L 239.2 222.5 L 240.6 227.2 L 242.1 232.0 L 244.1 236.1 L 246.1 240.1 L 248.3 244.2 L 250.6 248.3 L 253.0 252.4 L 255.6 256.1 L 258.5 259.5 L 261.4 262.7 L 264.4 265.7 L 267.6 268.8 L 270.8 271.7 L 274.2 274.3 L 277.6 277.2 L 281.1 279.5 L 284.8 281.7 L 288.5 283.9 L 292.3 285.5 L 296.1 286.9 L 300.0 287.7 Z" fill="none" stroke="#3FA9F5" stroke-width="1.7" stroke-linejoin="round" stroke-linecap="round"/>
<path d="M 300.0 287.7 L 303.9 287.6 L 307.8 287.5 L 311.7 287.1 L 315.6 286.9 L 319.4 286.3 L 323.3 286.0 L 327.1 285.1 L 331.0 284.3 L 334.7 283.3 L 338.5 282.5 L 342.2 281.3 L 345.9 280.0 L 349.6 278.9 L 353.3 277.6 L 356.8 275.9 L 360.4 274.6 L 363.7 272.4 L 367.1 270.4 L 370.4 268.3 L 373.6 266.3 L 376.7 263.9 L 379.7 261.3 L 382.6 258.6 L 385.4 255.8 L 387.9 252.6 L 390.6 249.7 L 392.7 245.9 L 394.8 242.4 L 396.8 238.6 L 398.6 234.8 L 400.2 230.7 L 401.6 226.6 L 402.9 222.5 L 404.0 218.2 L 404.7 213.6 L 405.5 209.2 L 405.7 204.2 L 405.7 199.2 L 405.5 194.2 L 405.0 189.1 L 404.2 183.9 L 403.1 178.6 L 401.9 173.3 L 400.3 167.9 L 398.4 162.4 L 396.4 157.1 L 393.9 151.5 L 391.0 145.9 L 388.0 140.5 L 384.8 135.2 L 381.7 130.1 L 378.4 125.2 L 375.3 120.7 L 372.2 116.5 L 369.3 112.5 L 366.2 108.6 L 363.0 104.9 L 359.3 101.0 L 355.5 97.3 L 351.7 93.9 L 347.7 90.5 L 343.4 87.1 L 339.2 84.0 L 335.1 81.1 L 331.0 78.4 L 327.2 76.1 L 323.5 74.0 L 320.5 72.3 L 318.0 70.9 L 316.0 69.8 L 314.3 68.9 L 313.0 68.2 L 311.9 67.6 L 311.0 67.1 L 310.0 66.7 L 309.1 66.3 L 308.3 65.9 L 307.4 65.6 L 306.6 65.3 L 305.9 65.0 L 305.2 64.8 L 304.5 64.6 L 303.8 64.5 L 303.1 64.3 L 302.5 64.2 L 301.8 64.1 L 301.2 64.1 L 300.8 64.0 L 300.5 64.0 L 300.1 64.0 L 300.0 64.0 L 300.0 64.0 L 300.0 64.0 L 299.8 64.0 L 299.6 64.0 L 299.1 64.1 L 298.5 64.2 L 297.9 64.3 L 297.3 64.4 L 296.6 64.5 L 295.8 64.7 L 295.1 64.9 L 294.4 65.2 L 293.6 65.5 L 292.8 65.8 L 291.9 66.2 L 291.1 66.5 L 290.3 67.0 L 289.4 67.4 L 288.5 68.0 L 287.6 68.5 L 286.6 69.2 L 285.4 69.9 L 283.9 70.8 L 281.7 72.1 L 279.5 73.5 L 277.4 75.0 L 274.5 77.0 L 271.2 79.3 L 267.7 81.9 L 263.9 84.8 L 260.1 88.0 L 256.1 91.4 L 252.1 95.1 L 248.2 99.0 L 244.6 102.8 L 241.0 106.9 L 237.7 111.0 L 234.2 115.4 L 231.0 119.8 L 227.9 124.5 L 225.0 129.2 L 222.0 134.2 L 218.7 139.8 L 215.5 145.6 L 212.6 151.4 L 209.8 157.4 L 207.7 163.0 L 205.5 168.9 L 203.7 174.8 L 202.2 180.6 L 201.1 186.1 L 200.3 191.5 L 199.7 197.1 L 199.3 202.6 L 199.5 207.6 L 199.7 212.7 L 200.7 216.9 L 201.8 221.1 L 203.1 225.3 L 204.3 229.7 L 205.9 233.8 L 207.6 237.8 L 209.4 241.7 L 211.4 245.6 L 213.7 249.1 L 215.9 252.8 L 218.6 255.7 L 221.3 258.8 L 224.1 261.8 L 227.0 264.6 L 230.1 267.1 L 233.2 269.5 L 236.5 271.6 L 239.8 273.8 L 243.4 275.3 L 246.8 277.4 L 250.5 278.6 L 254.1 279.9 L 257.8 281.2 L 261.5 282.5 L 265.3 283.3 L 269.1 284.2 L 272.9 285.1 L 276.7 285.9 L 280.6 286.3 L 284.4 286.9 L 288.3 287.2 L 292.2 287.4 L 296.1 287.4 L 300.0 287.7 Z" fill="none" stroke="#F32740" stroke-width="2.0" stroke-linejoin="round" stroke-linecap="round"/>
<text x="338" y="132" fill="#F32740" font-size="9.5" font-weight="700">125</text>
<text x="335" y="200" fill="#F32740" font-size="9.5" font-weight="700">250</text>
<text x="335" y="268" fill="#F32740" font-size="9.5" font-weight="700">375</text>
<text x="335" y="336" fill="#F32740" font-size="9.5" font-weight="700">500</text>
<rect x="274.0" y="58" width="52" height="11" rx="1.5" fill="#fafbfc" stroke="rgba(255,255,255,0.4)" stroke-width="0.5"/>
<line x1="272.0" y1="69.8" x2="328.0" y2="69.8" stroke="#F32740" stroke-width="0.7" stroke-dasharray="1.5 2"/>
<text x="300" y="66" text-anchor="middle" fill="#F32740" font-size="8" font-weight="700" letter-spacing="0.5">cd/klm SCALE</text>
<g transform="translate(22, 434)">
<text x="0" y="-8" fill="rgba(255,255,255,0.55)" font-size="8" letter-spacing="1.4">cd/klm</text>
<line x1="0" y1="6" x2="22" y2="6" stroke="#F32740" stroke-width="2.2"/>
<text x="28" y="9" fill="rgba(255,255,255,0.7)" font-size="9.5">C0 – C180</text>
<line x1="120" y1="6" x2="142" y2="6" stroke="#3FA9F5" stroke-width="1.7"/>
<text x="148" y="9" fill="rgba(255,255,255,0.7)" font-size="9.5">C90 – C270</text>
</g>
<text x="578" y="402" fill="rgba(255,255,255,0.45)" font-size="9" text-anchor="end">η = 126 lm/W</text>
<text x="578" y="418" fill="rgba(255,255,255,0.45)" font-size="9" text-anchor="end">3,517 lm · 28.0W</text>
<text x="578" y="434" fill="rgba(255,255,255,0.55)" font-size="8" letter-spacing="1.4" text-anchor="end">PEAK INTENSITY</text>
<text x="578" y="451" fill="#fff" font-weight="700" font-size="14" text-anchor="end">1,463 cd</text>
</svg>