<svg viewBox="0 0 600 460" xmlns="http://www.w3.org/2000/svg" font-family="JetBrains Mono, monospace" font-size="9.5">
<rect width="100%" height="100%" fill="#14171b"/>
<text x="22" y="26" fill="#F32740" font-weight="700" letter-spacing="2">LWPA80 · 80W · ADJUSTABLE WALL · BEAM (CCT-INVARIANT)</text>
<text x="22" y="42" fill="rgba(255,255,255,0.55)" font-size="8" letter-spacing="1.4">LUMINOUS INTENSITY DISTRIBUTION (cd/klm)</text>
<path d="M 232.0 64.0 A 68.0 68.0 0 0 0 368.0 64.0" fill="none" stroke="rgba(120,200,200,0.18)" stroke-width="0.7"/>
<path d="M 164.0 64.0 A 136.0 136.0 0 0 0 436.0 64.0" fill="none" stroke="rgba(120,200,200,0.18)" stroke-width="0.7"/>
<path d="M 96.0 64.0 A 204.0 204.0 0 0 0 504.0 64.0" fill="none" stroke="rgba(120,200,200,0.18)" stroke-width="0.7"/>
<path d="M 28.0 64.0 A 272.0 272.0 0 0 0 572.0 64.0" fill="none" stroke="rgba(120,200,200,0.18)" stroke-width="0.7"/>
<path d="M -40.0 64.0 A 340.0 340.0 0 0 0 640.0 64.0" fill="none" stroke="rgba(120,200,200,0.18)" stroke-width="0.7"/>
<line x1="300.0" y1="64" x2="388.0" y2="392.4" stroke="rgba(120,200,200,0.10)" stroke-width="0.5"/>
<line x1="300.0" y1="64" x2="212.0" y2="392.4" stroke="rgba(120,200,200,0.10)" stroke-width="0.5"/>
<line x1="300.0" y1="64" x2="470.0" y2="358.4" stroke="rgba(120,200,200,0.10)" stroke-width="0.5"/>
<line x1="300.0" y1="64" x2="130.0" y2="358.4" stroke="rgba(120,200,200,0.10)" stroke-width="0.5"/>
<line x1="300.0" y1="64" x2="540.4" y2="304.4" stroke="rgba(120,200,200,0.10)" stroke-width="0.5"/>
<line x1="300.0" y1="64" x2="59.6" y2="304.4" stroke="rgba(120,200,200,0.10)" stroke-width="0.5"/>
<line x1="300.0" y1="64" x2="594.4" y2="234.0" stroke="rgba(120,200,200,0.10)" stroke-width="0.5"/>
<line x1="300.0" y1="64" x2="5.6" y2="234.0" stroke="rgba(120,200,200,0.10)" stroke-width="0.5"/>
<line x1="300.0" y1="64" x2="628.4" y2="152.0" stroke="rgba(120,200,200,0.10)" stroke-width="0.5"/>
<line x1="300.0" y1="64" x2="-28.4" y2="152.0" stroke="rgba(120,200,200,0.10)" stroke-width="0.5"/>
<line x1="300.0" y1="64" x2="640.0" y2="64.0" stroke="rgba(120,200,200,0.10)" stroke-width="0.5"/>
<line x1="300.0" y1="64" x2="-40.0" y2="64.0" stroke="rgba(120,200,200,0.10)" stroke-width="0.5"/>
<line x1="300.0" y1="64" x2="300.0" y2="408" stroke="rgba(120,200,200,0.14)" stroke-width="0.5"/>
<line x1="-40.0" y1="64" x2="640.0" y2="64" stroke="rgba(120,200,200,0.14)" stroke-width="0.5"/>
<text x="391.6" y="408.9" text-anchor="middle" fill="rgba(255,255,255,0.4)" font-size="9">15°</text>
<text x="208.4" y="408.9" text-anchor="middle" fill="rgba(255,255,255,0.4)" font-size="9">15°</text>
<text x="477.0" y="373.6" text-anchor="middle" fill="rgba(255,255,255,0.6)" font-size="9">30°</text>
<text x="123.0" y="373.6" text-anchor="middle" fill="rgba(255,255,255,0.6)" font-size="9">30°</text>
<text x="550.3" y="317.3" text-anchor="middle" fill="rgba(255,255,255,0.4)" font-size="9">45°</text>
<text x="49.7" y="317.3" text-anchor="middle" fill="rgba(255,255,255,0.4)" font-size="9">45°</text>
<text x="606.6" y="244.0" text-anchor="middle" fill="rgba(255,255,255,0.6)" font-size="9">60°</text>
<text x="-6.6" y="244.0" text-anchor="middle" fill="rgba(255,255,255,0.6)" font-size="9">60°</text>
<text x="641.9" y="158.6" text-anchor="middle" fill="rgba(255,255,255,0.4)" font-size="9">75°</text>
<text x="-41.9" y="158.6" text-anchor="middle" fill="rgba(255,255,255,0.4)" font-size="9">75°</text>
<text x="654.0" y="67.0" text-anchor="middle" fill="rgba(255,255,255,0.6)" font-size="9">90°</text>
<text x="-54.0" y="67.0" text-anchor="middle" fill="rgba(255,255,255,0.6)" font-size="9">90°</text>
<text x="300" y="426" text-anchor="middle" fill="rgba(255,255,255,0.6)" font-size="9">0°</text>
<path d="M 300.0 202.3 L 302.5 204.6 L 305.0 206.9 L 307.6 209.0 L 310.3 211.2 L 313.1 213.3 L 315.9 215.6 L 318.8 217.4 L 321.8 219.2 L 324.9 221.1 L 328.0 222.6 L 331.2 224.3 L 334.4 225.8 L 337.7 227.4 L 341.1 228.7 L 344.5 230.1 L 348.1 231.6 L 351.8 233.4 L 355.6 235.0 L 359.4 236.5 L 363.2 237.6 L 367.2 238.9 L 371.2 240.2 L 375.4 241.6 L 379.7 243.0 L 384.1 244.4 L 388.8 246.0 L 393.4 247.3 L 398.3 248.8 L 403.1 250.1 L 408.1 251.3 L 413.3 252.5 L 418.4 253.5 L 423.7 254.5 L 429.0 255.2 L 434.4 255.9 L 440.0 256.8 L 445.1 256.6 L 450.5 256.6 L 455.3 255.8 L 459.9 254.6 L 464.1 252.8 L 467.6 250.1 L 470.4 246.7 L 472.3 242.4 L 473.4 237.4 L 473.7 231.7 L 472.5 224.9 L 469.9 216.9 L 465.5 207.8 L 458.9 197.4 L 451.3 186.6 L 442.0 174.9 L 431.7 163.3 L 420.0 151.2 L 408.0 139.6 L 396.2 128.9 L 384.6 118.9 L 373.5 109.9 L 362.0 101.2 L 350.0 92.9 L 337.2 84.6 L 326.0 77.8 L 321.0 74.7 L 316.3 71.9 L 311.4 69.3 L 311.4 69.1 L 310.9 68.6 L 310.0 68.0 L 309.1 67.5 L 308.5 67.1 L 308.0 66.8 L 307.4 66.4 L 306.7 66.1 L 306.1 65.7 L 305.5 65.5 L 304.8 65.2 L 304.2 65.0 L 303.6 64.8 L 303.1 64.6 L 302.6 64.5 L 302.1 64.3 L 301.6 64.2 L 301.2 64.1 L 300.8 64.1 L 300.5 64.0 L 300.4 64.0 L 300.3 64.0 L 300.1 64.0 L 300.1 64.0 L 300.1 64.0 L 299.1 64.0 L 298.8 64.0 L 298.4 64.1 L 297.8 64.1 L 297.3 64.2 L 296.7 64.3 L 296.1 64.4 L 295.5 64.6 L 294.9 64.7 L 294.3 64.9 L 293.7 65.1 L 293.0 65.4 L 292.4 65.6 L 291.8 65.9 L 291.2 66.2 L 290.6 66.5 L 290.1 66.8 L 289.5 67.2 L 289.0 67.6 L 288.6 67.9 L 288.2 68.3 L 287.8 68.7 L 287.4 69.1 L 287.1 69.5 L 286.8 69.9 L 286.5 70.3 L 286.0 70.9 L 285.0 71.6 L 283.2 72.9 L 280.5 74.8 L 277.0 77.3 L 273.3 80.0 L 269.5 83.0 L 266.3 85.9 L 263.7 88.5 L 261.9 90.7 L 260.9 92.4 L 260.7 93.6 L 260.8 94.6 L 261.2 95.4 L 261.6 96.2 L 262.2 96.9 L 262.7 97.6 L 263.1 98.4 L 263.5 99.3 L 263.7 100.3 L 263.8 101.5 L 263.7 102.9 L 263.6 104.5 L 263.4 106.1 L 263.3 107.7 L 263.3 109.3 L 263.3 111.0 L 263.3 112.7 L 263.5 114.3 L 263.7 115.8 L 264.0 117.3 L 264.4 118.8 L 264.7 120.4 L 265.2 122.0 L 265.6 123.7 L 266.0 125.4 L 266.4 127.2 L 266.9 128.9 L 267.4 130.8 L 268.0 132.7 L 268.5 134.8 L 269.1 136.9 L 269.7 139.1 L 270.3 141.3 L 271.0 143.7 L 271.7 146.3 L 272.4 149.1 L 273.1 152.0 L 273.9 155.1 L 274.7 158.2 L 275.7 161.5 L 276.7 164.8 L 277.9 168.2 L 279.1 171.5 L 280.5 174.7 L 282.0 177.7 L 283.6 180.7 L 285.3 183.7 L 287.1 186.5 L 289.0 189.4 L 291.0 192.2 L 293.1 194.7 L 295.3 197.4 L 297.6 199.8 L 300.0 202.3 Z" fill="none" stroke="#3FA9F5" stroke-width="1.7" stroke-linejoin="round" stroke-linecap="round"/>
<path d="M 300.0 202.3 L 302.4 202.3 L 304.8 202.6 L 307.3 202.8 L 309.7 203.1 L 312.2 203.3 L 314.7 203.5 L 317.2 203.7 L 319.6 203.8 L 322.2 204.1 L 324.8 204.4 L 327.3 204.5 L 329.9 204.7 L 332.5 204.8 L 335.2 205.2 L 337.9 205.5 L 340.6 205.6 L 343.4 206.0 L 346.2 206.1 L 349.1 206.6 L 352.0 206.8 L 354.9 207.1 L 358.0 207.6 L 361.1 208.0 L 364.4 208.5 L 367.6 209.0 L 370.9 209.5 L 374.3 209.9 L 377.8 210.4 L 381.4 210.9 L 385.1 211.5 L 388.9 211.9 L 392.9 212.7 L 396.9 213.2 L 401.2 214.0 L 405.5 214.6 L 409.7 215.0 L 414.1 215.5 L 418.6 215.9 L 423.2 216.2 L 427.9 216.4 L 432.3 216.1 L 436.9 216.0 L 441.2 215.4 L 445.7 214.8 L 450.0 214.0 L 453.9 212.6 L 457.4 210.8 L 460.3 208.4 L 462.6 205.4 L 464.4 201.9 L 464.9 197.5 L 464.8 192.8 L 463.8 187.4 L 461.8 181.5 L 458.9 175.3 L 454.9 168.5 L 449.8 161.2 L 443.2 153.5 L 435.5 145.4 L 426.0 136.8 L 415.5 128.0 L 404.0 119.3 L 391.3 110.5 L 378.2 102.2 L 364.9 94.2 L 352.2 87.2 L 341.2 81.5 L 332.1 76.9 L 326.7 74.2 L 321.2 71.7 L 315.7 69.4 L 313.1 68.3 L 311.3 67.5 L 310.0 66.9 L 309.1 66.4 L 308.2 66.1 L 307.5 65.7 L 306.7 65.4 L 306.0 65.2 L 305.3 64.9 L 304.7 64.7 L 304.0 64.6 L 303.4 64.4 L 302.8 64.3 L 302.3 64.2 L 301.7 64.1 L 301.1 64.1 L 300.6 64.0 L 300.4 64.0 L 300.2 64.0 L 300.0 64.0 L 299.8 64.0 L 299.3 64.0 L 298.7 64.1 L 298.2 64.1 L 297.7 64.2 L 297.1 64.3 L 296.5 64.4 L 295.9 64.6 L 295.3 64.8 L 294.6 65.0 L 293.8 65.2 L 292.9 65.5 L 292.0 65.8 L 291.0 66.2 L 289.9 66.7 L 288.4 67.3 L 286.1 68.2 L 282.8 69.6 L 278.0 71.6 L 271.6 74.3 L 263.4 78.0 L 253.7 82.7 L 242.0 88.6 L 230.5 95.0 L 219.2 101.7 L 206.8 109.5 L 194.8 117.6 L 183.8 125.8 L 173.8 134.0 L 165.3 141.8 L 158.3 149.1 L 152.2 156.4 L 147.7 162.9 L 144.0 169.2 L 141.2 175.2 L 139.8 180.4 L 139.1 185.3 L 139.2 189.6 L 140.1 193.5 L 141.8 196.8 L 144.4 199.2 L 147.3 201.5 L 151.0 203.0 L 154.8 204.2 L 158.8 205.2 L 163.3 205.6 L 167.6 206.0 L 172.0 206.2 L 176.3 206.2 L 180.7 206.1 L 185.1 205.9 L 189.3 205.7 L 193.4 205.5 L 197.4 205.2 L 201.3 204.9 L 205.3 204.3 L 209.0 204.1 L 212.7 203.8 L 216.3 203.4 L 219.8 203.0 L 223.3 202.4 L 226.5 202.2 L 229.8 201.8 L 232.8 201.7 L 235.9 201.5 L 238.9 201.2 L 241.9 200.9 L 244.7 200.9 L 247.5 200.7 L 250.3 200.5 L 253.1 200.3 L 255.7 200.3 L 258.3 200.2 L 260.9 200.3 L 263.4 200.6 L 266.0 200.4 L 268.5 200.5 L 271.0 200.6 L 273.4 200.7 L 275.9 200.7 L 278.3 200.8 L 280.7 201.0 L 283.2 201.1 L 285.6 201.3 L 288.0 201.4 L 290.4 201.4 L 292.8 201.7 L 295.2 201.9 L 297.6 202.1 L 300.0 202.3 Z" fill="none" stroke="#F32740" stroke-width="2.0" stroke-linejoin="round" stroke-linecap="round"/>
<text x="338" y="132" fill="#F32740" font-size="9.5" font-weight="700">125</text>
<text x="335" y="200" fill="#F32740" font-size="9.5" font-weight="700">250</text>
<text x="335" y="268" fill="#F32740" font-size="9.5" font-weight="700">375</text>
<text x="335" y="336" fill="#F32740" font-size="9.5" font-weight="700">500</text>
<rect x="274.0" y="58" width="52" height="11" rx="1.5" fill="#fafbfc" stroke="rgba(255,255,255,0.4)" stroke-width="0.5"/>
<line x1="272.0" y1="69.8" x2="328.0" y2="69.8" stroke="#F32740" stroke-width="0.7" stroke-dasharray="1.5 2"/>
<text x="300" y="66" text-anchor="middle" fill="#F32740" font-size="8" font-weight="700" letter-spacing="0.5">cd/klm SCALE</text>
<g transform="translate(22, 434)">
<text x="0" y="-8" fill="rgba(255,255,255,0.55)" font-size="8" letter-spacing="1.4">cd/klm</text>
<line x1="0" y1="6" x2="22" y2="6" stroke="#F32740" stroke-width="2.2"/>
<text x="28" y="9" fill="rgba(255,255,255,0.7)" font-size="9.5">C0 – C180</text>
<line x1="120" y1="6" x2="142" y2="6" stroke="#3FA9F5" stroke-width="1.7"/>
<text x="148" y="9" fill="rgba(255,255,255,0.7)" font-size="9.5">C90 – C270</text>
</g>
<text x="578" y="402" fill="rgba(255,255,255,0.45)" font-size="9" text-anchor="end">η = 121 lm/W</text>
<text x="578" y="418" fill="rgba(255,255,255,0.45)" font-size="9" text-anchor="end">10,034 lm · 82.9W</text>
<text x="578" y="434" fill="rgba(255,255,255,0.55)" font-size="8" letter-spacing="1.4" text-anchor="end">PEAK INTENSITY</text>
<text x="578" y="451" fill="#fff" font-weight="700" font-size="14" text-anchor="end">4,619 cd</text>
</svg>