<svg viewBox="0 0 600 460" xmlns="http://www.w3.org/2000/svg" font-family="JetBrains Mono, monospace" font-size="9.5">
<rect width="100%" height="100%" fill="#14171b"/>
<text x="22" y="26" fill="#F32740" font-weight="700" letter-spacing="2">LWPF3W120 · 120W · 5000K · CLASSIC FORWARD-THROW</text>
<text x="22" y="42" fill="rgba(255,255,255,0.55)" font-size="8" letter-spacing="1.4">LUMINOUS INTENSITY DISTRIBUTION (cd/klm)</text>
<path d="M 232.0 64.0 A 68.0 68.0 0 0 0 368.0 64.0" fill="none" stroke="rgba(120,200,200,0.18)" stroke-width="0.7"/>
<path d="M 164.0 64.0 A 136.0 136.0 0 0 0 436.0 64.0" fill="none" stroke="rgba(120,200,200,0.18)" stroke-width="0.7"/>
<path d="M 96.0 64.0 A 204.0 204.0 0 0 0 504.0 64.0" fill="none" stroke="rgba(120,200,200,0.18)" stroke-width="0.7"/>
<path d="M 28.0 64.0 A 272.0 272.0 0 0 0 572.0 64.0" fill="none" stroke="rgba(120,200,200,0.18)" stroke-width="0.7"/>
<path d="M -40.0 64.0 A 340.0 340.0 0 0 0 640.0 64.0" fill="none" stroke="rgba(120,200,200,0.18)" stroke-width="0.7"/>
<line x1="300.0" y1="64" x2="388.0" y2="392.4" stroke="rgba(120,200,200,0.10)" stroke-width="0.5"/>
<line x1="300.0" y1="64" x2="212.0" y2="392.4" stroke="rgba(120,200,200,0.10)" stroke-width="0.5"/>
<line x1="300.0" y1="64" x2="470.0" y2="358.4" stroke="rgba(120,200,200,0.10)" stroke-width="0.5"/>
<line x1="300.0" y1="64" x2="130.0" y2="358.4" stroke="rgba(120,200,200,0.10)" stroke-width="0.5"/>
<line x1="300.0" y1="64" x2="540.4" y2="304.4" stroke="rgba(120,200,200,0.10)" stroke-width="0.5"/>
<line x1="300.0" y1="64" x2="59.6" y2="304.4" stroke="rgba(120,200,200,0.10)" stroke-width="0.5"/>
<line x1="300.0" y1="64" x2="594.4" y2="234.0" stroke="rgba(120,200,200,0.10)" stroke-width="0.5"/>
<line x1="300.0" y1="64" x2="5.6" y2="234.0" stroke="rgba(120,200,200,0.10)" stroke-width="0.5"/>
<line x1="300.0" y1="64" x2="628.4" y2="152.0" stroke="rgba(120,200,200,0.10)" stroke-width="0.5"/>
<line x1="300.0" y1="64" x2="-28.4" y2="152.0" stroke="rgba(120,200,200,0.10)" stroke-width="0.5"/>
<line x1="300.0" y1="64" x2="640.0" y2="64.0" stroke="rgba(120,200,200,0.10)" stroke-width="0.5"/>
<line x1="300.0" y1="64" x2="-40.0" y2="64.0" stroke="rgba(120,200,200,0.10)" stroke-width="0.5"/>
<line x1="300.0" y1="64" x2="300.0" y2="408" stroke="rgba(120,200,200,0.14)" stroke-width="0.5"/>
<line x1="-40.0" y1="64" x2="640.0" y2="64" stroke="rgba(120,200,200,0.14)" stroke-width="0.5"/>
<text x="391.6" y="408.9" text-anchor="middle" fill="rgba(255,255,255,0.4)" font-size="9">15°</text>
<text x="208.4" y="408.9" text-anchor="middle" fill="rgba(255,255,255,0.4)" font-size="9">15°</text>
<text x="477.0" y="373.6" text-anchor="middle" fill="rgba(255,255,255,0.6)" font-size="9">30°</text>
<text x="123.0" y="373.6" text-anchor="middle" fill="rgba(255,255,255,0.6)" font-size="9">30°</text>
<text x="550.3" y="317.3" text-anchor="middle" fill="rgba(255,255,255,0.4)" font-size="9">45°</text>
<text x="49.7" y="317.3" text-anchor="middle" fill="rgba(255,255,255,0.4)" font-size="9">45°</text>
<text x="606.6" y="244.0" text-anchor="middle" fill="rgba(255,255,255,0.6)" font-size="9">60°</text>
<text x="-6.6" y="244.0" text-anchor="middle" fill="rgba(255,255,255,0.6)" font-size="9">60°</text>
<text x="641.9" y="158.6" text-anchor="middle" fill="rgba(255,255,255,0.4)" font-size="9">75°</text>
<text x="-41.9" y="158.6" text-anchor="middle" fill="rgba(255,255,255,0.4)" font-size="9">75°</text>
<text x="654.0" y="67.0" text-anchor="middle" fill="rgba(255,255,255,0.6)" font-size="9">90°</text>
<text x="-54.0" y="67.0" text-anchor="middle" fill="rgba(255,255,255,0.6)" font-size="9">90°</text>
<text x="300" y="426" text-anchor="middle" fill="rgba(255,255,255,0.6)" font-size="9">0°</text>
<path d="M 300.0 165.4 L 301.8 165.5 L 303.6 166.0 L 305.3 165.6 L 307.1 164.9 L 308.8 164.6 L 310.5 164.2 L 312.3 164.0 L 314.0 163.3 L 315.6 162.6 L 317.2 161.4 L 318.8 160.5 L 320.5 160.3 L 322.0 159.1 L 323.5 158.2 L 325.0 157.3 L 326.5 156.4 L 327.9 155.3 L 329.3 154.2 L 330.4 152.3 L 331.6 150.7 L 332.4 148.5 L 333.2 146.2 L 333.9 143.9 L 334.4 141.3 L 335.2 139.4 L 335.8 137.5 L 336.3 135.3 L 337.0 133.5 L 337.3 131.2 L 337.4 128.8 L 337.3 126.1 L 337.6 124.2 L 338.2 122.9 L 338.6 121.3 L 339.3 120.1 L 340.0 119.1 L 340.5 117.7 L 340.8 116.2 L 341.2 114.8 L 341.0 112.9 L 340.6 110.7 L 340.4 108.9 L 340.4 107.3 L 340.5 105.9 L 340.3 104.3 L 339.7 102.4 L 339.3 100.7 L 338.7 98.8 L 338.3 97.3 L 338.1 96.0 L 337.6 94.4 L 337.3 93.2 L 336.7 91.6 L 336.2 90.3 L 335.6 88.9 L 334.8 87.5 L 334.2 86.2 L 333.7 85.0 L 332.9 83.8 L 332.2 82.6 L 331.6 81.5 L 330.9 80.4 L 330.2 79.4 L 329.5 78.4 L 328.7 77.4 L 328.0 76.5 L 327.1 75.5 L 326.3 74.6 L 325.6 73.8 L 324.6 72.9 L 323.5 72.1 L 322.2 71.2 L 321.1 70.5 L 319.5 69.6 L 318.4 68.9 L 316.9 68.2 L 315.4 67.6 L 314.0 67.0 L 312.6 66.4 L 311.5 66.0 L 310.5 65.7 L 309.6 65.4 L 308.9 65.1 L 308.1 64.9 L 307.4 64.6 L 306.9 64.5 L 306.4 64.3 L 306.0 64.2 L 305.9 64.1 L 305.9 64.0 L 293.6 64.0 L 293.1 64.1 L 292.7 64.3 L 292.2 64.4 L 291.6 64.6 L 290.9 64.8 L 290.0 65.0 L 289.0 65.3 L 287.9 65.7 L 286.7 66.1 L 285.2 66.6 L 283.7 67.2 L 282.5 67.7 L 281.0 68.4 L 280.0 69.0 L 278.9 69.7 L 277.1 70.6 L 276.1 71.3 L 275.1 72.1 L 274.1 72.9 L 273.3 73.7 L 272.6 74.5 L 271.9 75.4 L 271.1 76.3 L 270.4 77.2 L 269.7 78.1 L 269.0 79.1 L 268.2 80.2 L 267.4 81.3 L 266.7 82.4 L 266.1 83.6 L 265.5 84.7 L 265.0 85.9 L 264.0 87.4 L 263.1 88.9 L 262.4 90.3 L 261.9 91.7 L 260.6 93.7 L 260.2 95.1 L 259.2 97.0 L 258.3 98.9 L 258.2 100.3 L 258.2 101.6 L 257.5 103.7 L 257.0 105.5 L 257.3 106.7 L 257.8 107.7 L 258.3 108.7 L 259.0 109.5 L 259.4 110.8 L 258.5 113.5 L 257.6 116.3 L 257.2 118.7 L 257.6 120.3 L 257.9 122.0 L 258.3 123.5 L 258.6 125.4 L 259.1 126.9 L 259.5 128.8 L 259.6 131.2 L 260.0 133.3 L 260.2 135.7 L 260.6 138.1 L 260.7 141.2 L 261.1 143.7 L 261.9 145.7 L 262.6 148.0 L 263.7 149.4 L 264.7 151.5 L 266.0 152.6 L 267.4 153.5 L 269.0 154.1 L 270.3 155.4 L 271.9 155.9 L 273.3 157.1 L 274.9 157.6 L 276.5 158.3 L 278.2 158.6 L 279.7 159.4 L 281.2 160.9 L 282.8 161.5 L 284.5 162.1 L 286.1 162.6 L 287.8 163.5 L 289.5 163.8 L 291.2 164.4 L 293.0 164.8 L 294.7 164.9 L 296.5 165.4 L 298.2 165.6 L 300.0 165.4 Z" fill="none" stroke="#3FA9F5" stroke-width="1.7" stroke-linejoin="round" stroke-linecap="round"/>
<path d="M 300.0 165.4 L 301.8 169.4 L 304.1 180.6 L 306.7 192.1 L 308.6 186.9 L 311.0 189.6 L 313.8 195.2 L 316.2 196.2 L 318.5 195.6 L 320.9 196.1 L 324.0 199.9 L 327.7 206.5 L 332.5 217.0 L 336.1 220.2 L 341.8 231.7 L 342.9 224.2 L 345.6 223.2 L 346.4 215.9 L 352.0 224.1 L 359.1 235.7 L 362.5 235.8 L 353.4 203.2 L 353.3 196.0 L 372.2 234.1 L 384.6 254.0 L 378.5 232.3 L 376.9 221.6 L 382.1 225.2 L 384.2 222.4 L 385.6 218.4 L 386.3 213.6 L 389.8 213.4 L 398.7 221.9 L 406.9 228.6 L 416.5 236.7 L 418.0 232.5 L 418.4 226.9 L 426.6 232.1 L 436.5 238.7 L 424.1 217.2 L 415.0 201.0 L 415.6 196.9 L 420.4 197.7 L 431.8 205.4 L 433.8 202.5 L 433.5 197.5 L 432.0 191.5 L 423.2 178.9 L 415.2 167.7 L 412.8 162.0 L 417.3 162.4 L 435.7 173.9 L 444.0 176.5 L 450.9 177.7 L 443.6 168.4 L 439.7 161.8 L 435.0 155.1 L 425.3 145.4 L 427.4 143.6 L 455.3 157.3 L 475.7 165.4 L 464.9 155.4 L 443.0 140.0 L 443.0 136.8 L 452.1 138.2 L 441.1 129.8 L 440.5 126.5 L 483.7 142.0 L 490.5 141.0 L 449.3 121.3 L 416.7 106.5 L 453.1 116.7 L 471.4 119.7 L 460.0 112.9 L 448.6 106.6 L 467.8 109.0 L 451.1 101.7 L 430.9 94.2 L 455.3 97.0 L 457.7 94.6 L 445.1 89.6 L 440.7 86.3 L 443.7 84.2 L 461.6 83.8 L 449.6 79.7 L 446.0 76.8 L 441.2 73.9 L 450.9 71.9 L 442.0 69.0 L 432.0 66.3 L 423.9 64.0 L 298.1 64.0 L 298.1 64.0 L 298.1 64.1 L 298.1 64.1 L 298.1 64.1 L 298.2 64.2 L 298.2 64.2 L 298.2 64.2 L 298.2 64.3 L 298.2 64.3 L 298.3 64.3 L 298.2 64.4 L 298.0 64.4 L 297.9 64.5 L 297.7 64.6 L 297.5 64.7 L 297.2 64.8 L 296.6 65.0 L 295.9 65.3 L 295.1 65.7 L 294.2 66.1 L 293.2 66.6 L 292.1 67.2 L 291.2 67.7 L 290.0 68.4 L 289.0 69.1 L 287.9 69.9 L 285.9 71.2 L 285.0 72.0 L 284.5 72.6 L 283.5 73.5 L 282.4 74.6 L 281.6 75.5 L 280.2 76.8 L 279.4 77.9 L 278.9 78.8 L 278.4 79.7 L 277.9 80.7 L 277.7 81.4 L 277.1 82.6 L 276.8 83.5 L 276.4 84.5 L 274.8 86.7 L 273.2 89.0 L 273.5 89.6 L 274.4 89.6 L 274.2 90.7 L 273.7 92.2 L 273.2 93.8 L 272.7 95.4 L 272.0 97.3 L 271.8 98.8 L 271.4 100.6 L 270.4 103.2 L 269.3 106.2 L 269.1 108.1 L 270.3 108.0 L 271.5 107.9 L 271.8 109.2 L 271.9 110.8 L 272.2 112.1 L 272.5 113.5 L 273.5 113.8 L 274.7 113.7 L 276.2 112.8 L 277.8 111.6 L 278.7 111.8 L 279.9 111.4 L 280.6 112.0 L 281.2 112.8 L 282.0 113.3 L 282.8 113.9 L 282.8 117.0 L 282.3 121.8 L 282.6 124.6 L 284.3 122.5 L 286.9 116.6 L 288.0 116.1 L 287.9 121.1 L 286.8 131.8 L 286.3 141.5 L 288.2 138.7 L 290.7 129.9 L 292.4 126.1 L 292.2 138.2 L 292.0 155.3 L 293.1 162.5 L 295.0 158.7 L 296.8 156.1 L 298.3 160.9 L 300.0 165.4 Z" fill="none" stroke="#F32740" stroke-width="2.0" stroke-linejoin="round" stroke-linecap="round"/>
<text x="338" y="132" fill="#F32740" font-size="9.5" font-weight="700">125</text>
<text x="335" y="200" fill="#F32740" font-size="9.5" font-weight="700">250</text>
<text x="335" y="268" fill="#F32740" font-size="9.5" font-weight="700">375</text>
<text x="335" y="336" fill="#F32740" font-size="9.5" font-weight="700">500</text>
<rect x="274.0" y="58" width="52" height="11" rx="1.5" fill="#fafbfc" stroke="rgba(255,255,255,0.4)" stroke-width="0.5"/>
<line x1="272.0" y1="69.8" x2="328.0" y2="69.8" stroke="#F32740" stroke-width="0.7" stroke-dasharray="1.5 2"/>
<text x="300" y="66" text-anchor="middle" fill="#F32740" font-size="8" font-weight="700" letter-spacing="0.5">cd/klm SCALE</text>
<g transform="translate(22, 434)">
<text x="0" y="-8" fill="rgba(255,255,255,0.55)" font-size="8" letter-spacing="1.4">cd/klm</text>
<line x1="0" y1="6" x2="22" y2="6" stroke="#F32740" stroke-width="2.2"/>
<text x="28" y="9" fill="rgba(255,255,255,0.7)" font-size="9.5">C0 – C180</text>
<line x1="120" y1="6" x2="142" y2="6" stroke="#3FA9F5" stroke-width="1.7"/>
<text x="148" y="9" fill="rgba(255,255,255,0.7)" font-size="9.5">C90 – C270</text>
</g>
<text x="578" y="402" fill="rgba(255,255,255,0.45)" font-size="9" text-anchor="end">η = 146 lm/W</text>
<text x="578" y="418" fill="rgba(255,255,255,0.45)" font-size="9" text-anchor="end">17,259 lm · 118.2W</text>
<text x="578" y="434" fill="rgba(255,255,255,0.55)" font-size="8" letter-spacing="1.4" text-anchor="end">PEAK INTENSITY</text>
<text x="578" y="451" fill="#fff" font-weight="700" font-size="14" text-anchor="end">7,035 cd</text>
</svg>