<svg viewBox="0 0 600 460" xmlns="http://www.w3.org/2000/svg" font-family="JetBrains Mono, monospace" font-size="9.5">
<rect width="100%" height="100%" fill="#14171b"/>
<text x="22" y="26" fill="#F32740" font-weight="700" letter-spacing="2">LWPA40 · 40W · 4000K · ADJUSTABLE TILT</text>
<text x="22" y="42" fill="rgba(255,255,255,0.55)" font-size="8" letter-spacing="1.4">LUMINOUS INTENSITY DISTRIBUTION (cd/klm)</text>
<path d="M 232.0 64.0 A 68.0 68.0 0 0 0 368.0 64.0" fill="none" stroke="rgba(120,200,200,0.18)" stroke-width="0.7"/>
<path d="M 164.0 64.0 A 136.0 136.0 0 0 0 436.0 64.0" fill="none" stroke="rgba(120,200,200,0.18)" stroke-width="0.7"/>
<path d="M 96.0 64.0 A 204.0 204.0 0 0 0 504.0 64.0" fill="none" stroke="rgba(120,200,200,0.18)" stroke-width="0.7"/>
<path d="M 28.0 64.0 A 272.0 272.0 0 0 0 572.0 64.0" fill="none" stroke="rgba(120,200,200,0.18)" stroke-width="0.7"/>
<path d="M -40.0 64.0 A 340.0 340.0 0 0 0 640.0 64.0" fill="none" stroke="rgba(120,200,200,0.18)" stroke-width="0.7"/>
<line x1="300.0" y1="64" x2="388.0" y2="392.4" stroke="rgba(120,200,200,0.10)" stroke-width="0.5"/>
<line x1="300.0" y1="64" x2="212.0" y2="392.4" stroke="rgba(120,200,200,0.10)" stroke-width="0.5"/>
<line x1="300.0" y1="64" x2="470.0" y2="358.4" stroke="rgba(120,200,200,0.10)" stroke-width="0.5"/>
<line x1="300.0" y1="64" x2="130.0" y2="358.4" stroke="rgba(120,200,200,0.10)" stroke-width="0.5"/>
<line x1="300.0" y1="64" x2="540.4" y2="304.4" stroke="rgba(120,200,200,0.10)" stroke-width="0.5"/>
<line x1="300.0" y1="64" x2="59.6" y2="304.4" stroke="rgba(120,200,200,0.10)" stroke-width="0.5"/>
<line x1="300.0" y1="64" x2="594.4" y2="234.0" stroke="rgba(120,200,200,0.10)" stroke-width="0.5"/>
<line x1="300.0" y1="64" x2="5.6" y2="234.0" stroke="rgba(120,200,200,0.10)" stroke-width="0.5"/>
<line x1="300.0" y1="64" x2="628.4" y2="152.0" stroke="rgba(120,200,200,0.10)" stroke-width="0.5"/>
<line x1="300.0" y1="64" x2="-28.4" y2="152.0" stroke="rgba(120,200,200,0.10)" stroke-width="0.5"/>
<line x1="300.0" y1="64" x2="640.0" y2="64.0" stroke="rgba(120,200,200,0.10)" stroke-width="0.5"/>
<line x1="300.0" y1="64" x2="-40.0" y2="64.0" stroke="rgba(120,200,200,0.10)" stroke-width="0.5"/>
<line x1="300.0" y1="64" x2="300.0" y2="408" stroke="rgba(120,200,200,0.14)" stroke-width="0.5"/>
<line x1="-40.0" y1="64" x2="640.0" y2="64" stroke="rgba(120,200,200,0.14)" stroke-width="0.5"/>
<text x="391.6" y="408.9" text-anchor="middle" fill="rgba(255,255,255,0.4)" font-size="9">15°</text>
<text x="208.4" y="408.9" text-anchor="middle" fill="rgba(255,255,255,0.4)" font-size="9">15°</text>
<text x="477.0" y="373.6" text-anchor="middle" fill="rgba(255,255,255,0.6)" font-size="9">30°</text>
<text x="123.0" y="373.6" text-anchor="middle" fill="rgba(255,255,255,0.6)" font-size="9">30°</text>
<text x="550.3" y="317.3" text-anchor="middle" fill="rgba(255,255,255,0.4)" font-size="9">45°</text>
<text x="49.7" y="317.3" text-anchor="middle" fill="rgba(255,255,255,0.4)" font-size="9">45°</text>
<text x="606.6" y="244.0" text-anchor="middle" fill="rgba(255,255,255,0.6)" font-size="9">60°</text>
<text x="-6.6" y="244.0" text-anchor="middle" fill="rgba(255,255,255,0.6)" font-size="9">60°</text>
<text x="641.9" y="158.6" text-anchor="middle" fill="rgba(255,255,255,0.4)" font-size="9">75°</text>
<text x="-41.9" y="158.6" text-anchor="middle" fill="rgba(255,255,255,0.4)" font-size="9">75°</text>
<text x="654.0" y="67.0" text-anchor="middle" fill="rgba(255,255,255,0.6)" font-size="9">90°</text>
<text x="-54.0" y="67.0" text-anchor="middle" fill="rgba(255,255,255,0.6)" font-size="9">90°</text>
<text x="300" y="426" text-anchor="middle" fill="rgba(255,255,255,0.6)" font-size="9">0°</text>
<path d="M 300.0 242.8 L 303.1 242.7 L 306.2 242.5 L 309.3 242.2 L 312.4 241.9 L 315.5 241.4 L 318.6 240.9 L 321.6 240.2 L 324.6 239.4 L 327.6 238.5 L 330.6 237.6 L 333.5 236.4 L 336.4 235.3 L 339.2 234.0 L 342.0 232.7 L 344.8 231.1 L 347.4 229.4 L 350.0 227.7 L 352.6 226.0 L 355.1 224.1 L 357.6 222.2 L 359.9 220.2 L 362.3 218.1 L 364.5 216.0 L 366.7 213.7 L 368.7 211.4 L 370.7 208.9 L 372.6 206.4 L 374.3 203.8 L 376.0 201.1 L 377.6 198.3 L 379.0 195.5 L 380.3 192.6 L 381.6 189.6 L 382.6 186.5 L 383.6 183.4 L 384.4 180.2 L 385.1 176.9 L 385.6 173.6 L 386.1 170.3 L 386.4 166.9 L 386.6 163.6 L 386.6 160.2 L 386.5 156.8 L 386.3 153.4 L 386.0 150.0 L 385.6 146.6 L 385.0 143.2 L 384.2 139.8 L 383.4 136.5 L 382.4 133.1 L 381.1 129.7 L 379.7 126.2 L 377.9 122.7 L 375.9 119.2 L 373.8 115.7 L 371.6 112.3 L 369.3 109.0 L 366.9 105.8 L 364.5 102.7 L 361.8 99.7 L 359.1 96.8 L 356.4 94.0 L 353.7 91.4 L 350.8 88.8 L 347.5 86.2 L 344.0 83.6 L 340.6 81.3 L 337.4 79.1 L 334.2 77.1 L 331.2 75.4 L 328.0 73.7 L 324.7 72.0 L 321.9 70.7 L 319.0 69.4 L 316.1 68.3 L 313.4 67.4 L 311.2 66.6 L 308.8 65.9 L 306.4 65.3 L 304.7 64.8 L 303.6 64.6 L 303.0 64.4 L 302.6 64.3 L 302.2 64.2 L 301.9 64.2 L 301.6 64.1 L 301.4 64.1 L 301.2 64.0 L 301.0 64.0 L 301.0 64.0 L 299.1 64.0 L 299.1 64.0 L 299.0 64.0 L 298.8 64.1 L 298.6 64.1 L 298.3 64.2 L 297.9 64.2 L 297.4 64.3 L 296.5 64.5 L 295.3 64.7 L 293.7 65.1 L 291.8 65.6 L 289.8 66.2 L 287.6 66.9 L 285.1 67.7 L 282.5 68.7 L 279.5 69.9 L 276.7 71.1 L 273.6 72.6 L 270.3 74.2 L 267.2 76.0 L 264.1 77.8 L 260.9 79.8 L 257.5 82.0 L 254.1 84.4 L 250.7 87.0 L 247.7 89.5 L 244.9 92.1 L 242.2 94.7 L 239.5 97.5 L 236.8 100.5 L 234.1 103.6 L 231.6 106.7 L 229.1 110.0 L 226.8 113.4 L 224.5 116.9 L 222.5 120.3 L 220.8 123.7 L 219.3 127.1 L 217.9 130.5 L 216.7 133.9 L 215.5 137.4 L 214.3 141.2 L 213.3 144.8 L 212.6 148.4 L 212.1 151.9 L 211.7 155.4 L 211.5 158.9 L 211.5 162.3 L 211.6 165.7 L 211.8 169.1 L 212.2 172.5 L 212.7 175.7 L 213.3 179.1 L 214.1 182.3 L 214.9 185.5 L 215.9 188.7 L 217.0 191.9 L 218.2 194.9 L 219.6 197.9 L 221.1 200.7 L 222.7 203.5 L 224.4 206.1 L 226.3 208.7 L 228.2 211.2 L 230.3 213.5 L 232.4 215.8 L 234.7 218.0 L 237.0 220.1 L 239.3 222.0 L 241.8 224.0 L 244.3 225.8 L 246.9 227.5 L 249.5 229.2 L 252.2 230.7 L 254.9 232.2 L 257.7 233.5 L 260.6 234.8 L 263.4 236.0 L 266.4 237.1 L 269.3 238.1 L 272.3 239.0 L 275.3 239.8 L 278.3 240.5 L 281.4 241.1 L 284.5 241.6 L 287.5 242.1 L 290.6 242.4 L 293.8 242.6 L 296.9 242.8 L 300.0 242.8 Z" fill="none" stroke="#3FA9F5" stroke-width="1.7" stroke-linejoin="round" stroke-linecap="round"/>
<path d="M 300.0 242.8 L 303.1 244.2 L 306.3 245.8 L 309.7 248.3 L 313.1 251.8 L 316.8 256.5 L 320.8 262.4 L 325.2 269.1 L 329.8 275.8 L 334.6 282.4 L 339.4 287.2 L 344.1 291.1 L 348.8 293.7 L 353.3 295.0 L 357.6 295.0 L 361.6 294.0 L 365.4 292.0 L 368.8 288.9 L 371.8 285.0 L 374.4 280.1 L 376.4 273.8 L 377.8 266.6 L 378.8 259.0 L 379.5 251.2 L 380.0 243.7 L 380.6 236.8 L 381.4 230.9 L 382.7 226.3 L 384.6 223.0 L 386.7 220.5 L 389.3 218.7 L 392.2 217.5 L 395.5 216.8 L 398.9 216.2 L 402.0 215.3 L 404.7 213.5 L 406.8 211.0 L 408.1 207.5 L 408.5 202.9 L 407.7 196.9 L 405.5 189.8 L 402.2 181.5 L 397.8 172.6 L 393.0 163.7 L 388.4 155.5 L 384.2 148.2 L 380.7 141.9 L 377.6 136.3 L 374.8 131.4 L 372.8 127.3 L 370.8 123.4 L 368.8 119.7 L 367.0 116.4 L 365.1 113.1 L 363.0 109.7 L 360.6 106.4 L 357.9 103.1 L 354.8 99.6 L 351.4 96.1 L 348.0 92.8 L 344.6 89.7 L 341.4 86.9 L 338.7 84.6 L 336.1 82.4 L 333.4 80.3 L 330.6 78.3 L 327.8 76.4 L 325.0 74.6 L 322.5 73.1 L 320.0 71.7 L 317.9 70.5 L 315.9 69.5 L 314.1 68.6 L 312.4 67.8 L 310.9 67.1 L 309.5 66.6 L 308.2 66.0 L 307.2 65.7 L 306.1 65.3 L 305.1 65.0 L 304.2 64.7 L 303.3 64.5 L 302.5 64.4 L 301.7 64.2 L 301.2 64.1 L 300.9 64.1 L 300.8 64.1 L 300.8 64.0 L 300.8 64.0 L 300.8 64.0 L 300.8 64.0 L 298.7 64.0 L 298.5 64.0 L 298.1 64.1 L 297.5 64.1 L 296.9 64.2 L 296.3 64.3 L 295.7 64.5 L 295.1 64.6 L 294.4 64.8 L 293.8 65.0 L 293.1 65.2 L 292.4 65.5 L 291.8 65.7 L 291.2 66.0 L 290.5 66.4 L 289.7 66.8 L 288.7 67.2 L 287.8 67.7 L 287.5 68.1 L 287.5 68.3 L 287.3 68.6 L 286.8 69.1 L 286.3 69.5 L 285.7 70.1 L 285.1 70.6 L 284.6 71.2 L 284.1 71.8 L 283.6 72.3 L 283.3 72.9 L 284.0 72.9 L 283.9 73.3 L 282.9 74.3 L 281.9 75.3 L 281.2 76.2 L 280.5 77.2 L 279.8 78.1 L 279.2 79.1 L 278.5 80.2 L 277.6 81.5 L 276.5 83.0 L 274.7 85.2 L 272.1 88.2 L 269.2 91.7 L 265.4 96.2 L 260.0 102.6 L 253.9 110.1 L 250.4 115.4 L 246.6 121.2 L 241.8 128.6 L 238.5 134.7 L 237.5 138.5 L 237.7 140.9 L 238.2 143.1 L 238.7 145.3 L 239.3 147.6 L 239.8 149.9 L 240.4 152.4 L 240.9 154.9 L 241.5 157.7 L 242.0 160.5 L 242.6 163.5 L 243.0 166.7 L 243.6 170.1 L 244.2 173.5 L 245.0 176.9 L 245.8 180.1 L 246.9 183.3 L 248.0 186.5 L 249.2 189.8 L 250.4 193.3 L 251.4 197.6 L 252.4 202.1 L 253.8 206.2 L 255.6 209.2 L 257.6 211.8 L 259.6 214.7 L 261.6 218.2 L 263.6 221.6 L 265.9 224.2 L 268.5 225.8 L 271.1 227.6 L 273.8 229.7 L 276.4 231.7 L 279.2 233.7 L 281.9 235.8 L 284.8 237.7 L 287.8 239.1 L 290.8 240.2 L 293.8 241.1 L 296.9 241.9 L 300.0 242.8 Z" fill="none" stroke="#F32740" stroke-width="2.0" stroke-linejoin="round" stroke-linecap="round"/>
<text x="338" y="132" fill="#F32740" font-size="9.5" font-weight="700">150</text>
<text x="335" y="200" fill="#F32740" font-size="9.5" font-weight="700">300</text>
<text x="335" y="268" fill="#F32740" font-size="9.5" font-weight="700">450</text>
<text x="335" y="336" fill="#F32740" font-size="9.5" font-weight="700">600</text>
<rect x="274.0" y="58" width="52" height="11" rx="1.5" fill="#fafbfc" stroke="rgba(255,255,255,0.4)" stroke-width="0.5"/>
<line x1="272.0" y1="69.8" x2="328.0" y2="69.8" stroke="#F32740" stroke-width="0.7" stroke-dasharray="1.5 2"/>
<text x="300" y="66" text-anchor="middle" fill="#F32740" font-size="8" font-weight="700" letter-spacing="0.5">cd/klm SCALE</text>
<g transform="translate(22, 434)">
<text x="0" y="-8" fill="rgba(255,255,255,0.55)" font-size="8" letter-spacing="1.4">cd/klm</text>
<line x1="0" y1="6" x2="22" y2="6" stroke="#F32740" stroke-width="2.2"/>
<text x="28" y="9" fill="rgba(255,255,255,0.7)" font-size="9.5">C0 – C180</text>
<line x1="120" y1="6" x2="142" y2="6" stroke="#3FA9F5" stroke-width="1.7"/>
<text x="148" y="9" fill="rgba(255,255,255,0.7)" font-size="9.5">C90 – C270</text>
</g>
<text x="578" y="402" fill="rgba(255,255,255,0.45)" font-size="9" text-anchor="end">η = 142 lm/W</text>
<text x="578" y="418" fill="rgba(255,255,255,0.45)" font-size="9" text-anchor="end">6,200 lm · 43.5W</text>
<text x="578" y="434" fill="rgba(255,255,255,0.55)" font-size="8" letter-spacing="1.4" text-anchor="end">PEAK INTENSITY</text>
<text x="578" y="451" fill="#fff" font-weight="700" font-size="14" text-anchor="end">3,257 cd</text>
</svg>