<svg viewBox="0 0 600 460" xmlns="http://www.w3.org/2000/svg" font-family="JetBrains Mono, monospace" font-size="9.5">
<rect width="100%" height="100%" fill="#14171b"/>
<text x="22" y="26" fill="#F32740" font-weight="700" letter-spacing="2">LWPA60 · 60W · 3000K · ADJUSTABLE TILT</text>
<text x="22" y="42" fill="rgba(255,255,255,0.55)" font-size="8" letter-spacing="1.4">LUMINOUS INTENSITY DISTRIBUTION (cd/klm)</text>
<path d="M 232.0 64.0 A 68.0 68.0 0 0 0 368.0 64.0" fill="none" stroke="rgba(120,200,200,0.18)" stroke-width="0.7"/>
<path d="M 164.0 64.0 A 136.0 136.0 0 0 0 436.0 64.0" fill="none" stroke="rgba(120,200,200,0.18)" stroke-width="0.7"/>
<path d="M 96.0 64.0 A 204.0 204.0 0 0 0 504.0 64.0" fill="none" stroke="rgba(120,200,200,0.18)" stroke-width="0.7"/>
<path d="M 28.0 64.0 A 272.0 272.0 0 0 0 572.0 64.0" fill="none" stroke="rgba(120,200,200,0.18)" stroke-width="0.7"/>
<path d="M -40.0 64.0 A 340.0 340.0 0 0 0 640.0 64.0" fill="none" stroke="rgba(120,200,200,0.18)" stroke-width="0.7"/>
<line x1="300.0" y1="64" x2="388.0" y2="392.4" stroke="rgba(120,200,200,0.10)" stroke-width="0.5"/>
<line x1="300.0" y1="64" x2="212.0" y2="392.4" stroke="rgba(120,200,200,0.10)" stroke-width="0.5"/>
<line x1="300.0" y1="64" x2="470.0" y2="358.4" stroke="rgba(120,200,200,0.10)" stroke-width="0.5"/>
<line x1="300.0" y1="64" x2="130.0" y2="358.4" stroke="rgba(120,200,200,0.10)" stroke-width="0.5"/>
<line x1="300.0" y1="64" x2="540.4" y2="304.4" stroke="rgba(120,200,200,0.10)" stroke-width="0.5"/>
<line x1="300.0" y1="64" x2="59.6" y2="304.4" stroke="rgba(120,200,200,0.10)" stroke-width="0.5"/>
<line x1="300.0" y1="64" x2="594.4" y2="234.0" stroke="rgba(120,200,200,0.10)" stroke-width="0.5"/>
<line x1="300.0" y1="64" x2="5.6" y2="234.0" stroke="rgba(120,200,200,0.10)" stroke-width="0.5"/>
<line x1="300.0" y1="64" x2="628.4" y2="152.0" stroke="rgba(120,200,200,0.10)" stroke-width="0.5"/>
<line x1="300.0" y1="64" x2="-28.4" y2="152.0" stroke="rgba(120,200,200,0.10)" stroke-width="0.5"/>
<line x1="300.0" y1="64" x2="640.0" y2="64.0" stroke="rgba(120,200,200,0.10)" stroke-width="0.5"/>
<line x1="300.0" y1="64" x2="-40.0" y2="64.0" stroke="rgba(120,200,200,0.10)" stroke-width="0.5"/>
<line x1="300.0" y1="64" x2="300.0" y2="408" stroke="rgba(120,200,200,0.14)" stroke-width="0.5"/>
<line x1="-40.0" y1="64" x2="640.0" y2="64" stroke="rgba(120,200,200,0.14)" stroke-width="0.5"/>
<text x="391.6" y="408.9" text-anchor="middle" fill="rgba(255,255,255,0.4)" font-size="9">15°</text>
<text x="208.4" y="408.9" text-anchor="middle" fill="rgba(255,255,255,0.4)" font-size="9">15°</text>
<text x="477.0" y="373.6" text-anchor="middle" fill="rgba(255,255,255,0.6)" font-size="9">30°</text>
<text x="123.0" y="373.6" text-anchor="middle" fill="rgba(255,255,255,0.6)" font-size="9">30°</text>
<text x="550.3" y="317.3" text-anchor="middle" fill="rgba(255,255,255,0.4)" font-size="9">45°</text>
<text x="49.7" y="317.3" text-anchor="middle" fill="rgba(255,255,255,0.4)" font-size="9">45°</text>
<text x="606.6" y="244.0" text-anchor="middle" fill="rgba(255,255,255,0.6)" font-size="9">60°</text>
<text x="-6.6" y="244.0" text-anchor="middle" fill="rgba(255,255,255,0.6)" font-size="9">60°</text>
<text x="641.9" y="158.6" text-anchor="middle" fill="rgba(255,255,255,0.4)" font-size="9">75°</text>
<text x="-41.9" y="158.6" text-anchor="middle" fill="rgba(255,255,255,0.4)" font-size="9">75°</text>
<text x="654.0" y="67.0" text-anchor="middle" fill="rgba(255,255,255,0.6)" font-size="9">90°</text>
<text x="-54.0" y="67.0" text-anchor="middle" fill="rgba(255,255,255,0.6)" font-size="9">90°</text>
<text x="300" y="426" text-anchor="middle" fill="rgba(255,255,255,0.6)" font-size="9">0°</text>
<path d="M 300.0 200.9 L 302.4 200.9 L 304.8 200.8 L 307.2 200.8 L 309.5 200.5 L 311.9 200.3 L 314.3 199.9 L 316.6 199.5 L 319.0 199.0 L 321.3 198.5 L 323.6 197.9 L 325.9 197.2 L 328.2 196.5 L 330.4 195.6 L 332.6 194.7 L 334.8 193.8 L 336.9 192.9 L 339.0 191.7 L 341.1 190.6 L 343.2 189.4 L 345.1 188.0 L 347.1 186.6 L 349.0 185.2 L 350.8 183.7 L 352.6 182.0 L 354.3 180.4 L 355.9 178.6 L 357.4 176.7 L 358.9 174.8 L 360.3 172.8 L 361.5 170.6 L 362.7 168.3 L 363.7 166.0 L 364.7 163.6 L 365.4 161.0 L 366.1 158.4 L 366.7 155.9 L 367.2 153.1 L 367.5 150.4 L 367.8 147.7 L 367.9 144.9 L 367.9 142.1 L 367.8 139.3 L 367.6 136.5 L 367.1 133.5 L 366.7 130.7 L 366.0 127.7 L 365.2 124.8 L 364.2 121.8 L 363.2 119.0 L 362.2 116.2 L 361.1 113.5 L 359.9 110.8 L 358.7 108.3 L 357.3 105.6 L 355.6 102.9 L 353.8 100.3 L 351.8 97.6 L 349.8 95.1 L 348.1 92.9 L 345.9 90.5 L 343.6 88.2 L 341.5 86.1 L 339.3 84.0 L 337.1 82.1 L 334.7 80.2 L 332.0 78.2 L 329.3 76.4 L 326.8 74.8 L 324.3 73.3 L 322.0 72.0 L 319.5 70.7 L 316.9 69.5 L 314.7 68.5 L 312.6 67.6 L 310.4 66.8 L 308.6 66.1 L 306.8 65.6 L 305.7 65.2 L 304.5 64.9 L 303.3 64.6 L 302.7 64.4 L 302.3 64.3 L 301.9 64.2 L 301.6 64.2 L 301.3 64.1 L 301.1 64.1 L 300.9 64.0 L 300.8 64.0 L 300.7 64.0 L 300.7 64.0 L 299.3 64.0 L 299.2 64.0 L 299.1 64.0 L 299.0 64.1 L 298.8 64.1 L 298.6 64.1 L 298.4 64.2 L 298.1 64.2 L 297.8 64.3 L 297.4 64.4 L 296.9 64.6 L 296.6 64.7 L 296.2 64.8 L 295.5 65.0 L 294.6 65.3 L 293.3 65.8 L 291.7 66.4 L 289.5 67.2 L 287.4 68.1 L 285.3 69.1 L 282.9 70.2 L 280.4 71.5 L 277.9 72.9 L 275.4 74.5 L 272.7 76.2 L 269.9 78.1 L 267.0 80.1 L 264.6 82.0 L 262.4 84.0 L 260.2 86.1 L 258.0 88.3 L 255.8 90.6 L 253.7 92.9 L 251.6 95.4 L 249.7 97.9 L 247.8 100.5 L 245.9 103.3 L 244.2 106.0 L 242.6 108.8 L 241.3 111.6 L 240.1 114.3 L 239.1 116.9 L 238.2 119.6 L 237.4 122.4 L 236.5 125.3 L 235.9 128.1 L 235.4 130.9 L 235.0 133.7 L 234.7 136.5 L 234.6 139.3 L 234.5 142.0 L 234.6 144.7 L 234.8 147.4 L 235.1 150.1 L 235.6 152.7 L 236.2 155.2 L 236.8 157.7 L 237.6 160.1 L 238.5 162.4 L 239.5 164.7 L 240.6 166.9 L 241.8 169.0 L 243.1 171.1 L 244.4 173.1 L 245.9 175.0 L 247.4 176.8 L 249.0 178.6 L 250.6 180.3 L 252.4 181.9 L 254.1 183.5 L 255.9 185.1 L 257.8 186.5 L 259.7 187.9 L 261.7 189.2 L 263.7 190.6 L 265.8 191.8 L 267.8 193.0 L 270.0 194.0 L 272.1 195.1 L 274.3 196.0 L 276.6 196.8 L 278.8 197.6 L 281.1 198.3 L 283.4 198.8 L 285.8 199.4 L 288.1 199.8 L 290.5 200.2 L 292.8 200.5 L 295.2 200.7 L 297.6 200.8 L 300.0 200.9 Z" fill="none" stroke="#3FA9F5" stroke-width="1.7" stroke-linejoin="round" stroke-linecap="round"/>
<path d="M 300.0 200.9 L 302.4 203.3 L 305.0 206.5 L 307.7 210.8 L 310.7 216.9 L 314.1 224.9 L 317.9 234.6 L 322.3 245.8 L 327.2 257.5 L 332.4 268.7 L 337.8 278.6 L 343.3 286.7 L 348.7 293.0 L 353.9 297.3 L 358.7 299.6 L 363.4 300.5 L 367.6 299.6 L 371.2 296.9 L 374.3 292.5 L 376.6 286.6 L 378.1 278.6 L 378.7 269.1 L 378.5 258.2 L 377.6 246.9 L 376.4 235.6 L 374.9 224.6 L 373.2 214.2 L 371.8 204.9 L 370.5 196.6 L 369.3 189.0 L 368.2 182.1 L 367.3 175.9 L 366.7 170.7 L 366.2 165.9 L 365.6 161.2 L 365.0 156.8 L 364.4 152.6 L 363.9 148.8 L 363.6 145.4 L 363.3 142.1 L 362.9 139.0 L 362.6 136.1 L 362.3 133.2 L 361.8 130.3 L 361.2 127.4 L 360.6 124.6 L 359.8 121.7 L 358.9 118.9 L 357.7 116.0 L 356.4 113.1 L 355.0 110.1 L 353.3 107.2 L 351.4 104.2 L 349.3 101.2 L 347.0 98.1 L 344.5 95.1 L 341.9 92.2 L 339.2 89.4 L 336.4 86.7 L 333.6 84.2 L 331.0 81.9 L 328.8 79.9 L 326.9 78.3 L 325.1 76.8 L 323.2 75.3 L 321.2 73.9 L 319.2 72.5 L 317.2 71.3 L 315.5 70.2 L 313.8 69.3 L 312.2 68.5 L 310.8 67.7 L 309.4 67.0 L 308.0 66.4 L 306.7 65.9 L 305.8 65.6 L 304.9 65.2 L 304.0 64.9 L 303.4 64.7 L 302.8 64.6 L 302.4 64.4 L 302.0 64.3 L 301.6 64.2 L 301.2 64.2 L 300.9 64.1 L 300.7 64.1 L 300.6 64.0 L 300.6 64.0 L 300.6 64.0 L 300.6 64.0 L 300.6 64.0 L 299.1 64.0 L 298.7 64.0 L 298.3 64.1 L 297.7 64.1 L 297.0 64.2 L 296.2 64.3 L 295.5 64.5 L 294.8 64.6 L 294.0 64.8 L 293.3 65.1 L 292.6 65.3 L 291.9 65.6 L 291.2 65.9 L 290.6 66.2 L 289.9 66.5 L 289.0 66.9 L 288.1 67.4 L 287.2 67.9 L 286.8 68.3 L 287.0 68.5 L 286.9 68.8 L 286.5 69.2 L 286.1 69.6 L 285.5 70.1 L 285.1 70.7 L 284.6 71.2 L 284.2 71.7 L 283.8 72.2 L 283.6 72.7 L 284.7 72.5 L 285.0 72.7 L 284.2 73.5 L 283.0 74.6 L 281.7 75.9 L 280.7 77.0 L 279.9 78.1 L 279.3 79.0 L 278.7 80.0 L 278.1 81.1 L 277.7 82.1 L 277.2 83.1 L 276.8 84.2 L 276.9 84.8 L 276.7 85.7 L 276.3 86.9 L 275.8 88.2 L 274.9 90.0 L 272.5 93.4 L 269.4 98.0 L 267.8 101.0 L 268.8 101.2 L 270.9 99.9 L 272.7 98.9 L 273.8 98.8 L 274.4 99.2 L 274.8 100.0 L 274.9 101.1 L 274.9 102.6 L 274.8 104.4 L 274.6 106.3 L 274.2 108.7 L 273.8 111.3 L 273.3 114.2 L 272.9 117.2 L 272.7 120.0 L 272.7 122.5 L 273.0 124.7 L 273.4 126.8 L 273.8 128.9 L 274.3 131.1 L 274.4 134.2 L 274.4 138.2 L 274.5 142.6 L 274.6 147.0 L 275.0 151.3 L 275.5 155.6 L 276.1 160.0 L 276.8 164.3 L 277.8 168.6 L 278.9 172.7 L 280.1 176.8 L 281.6 180.4 L 283.2 183.6 L 285.0 186.3 L 286.9 189.1 L 288.8 191.8 L 290.9 193.8 L 293.1 195.6 L 295.3 197.3 L 297.6 199.0 L 300.0 200.9 Z" fill="none" stroke="#F32740" stroke-width="2.0" stroke-linejoin="round" stroke-linecap="round"/>
<text x="338" y="132" fill="#F32740" font-size="9.5" font-weight="700">200</text>
<text x="335" y="200" fill="#F32740" font-size="9.5" font-weight="700">400</text>
<text x="335" y="268" fill="#F32740" font-size="9.5" font-weight="700">600</text>
<text x="335" y="336" fill="#F32740" font-size="9.5" font-weight="700">800</text>
<rect x="274.0" y="58" width="52" height="11" rx="1.5" fill="#fafbfc" stroke="rgba(255,255,255,0.4)" stroke-width="0.5"/>
<line x1="272.0" y1="69.8" x2="328.0" y2="69.8" stroke="#F32740" stroke-width="0.7" stroke-dasharray="1.5 2"/>
<text x="300" y="66" text-anchor="middle" fill="#F32740" font-size="8" font-weight="700" letter-spacing="0.5">cd/klm SCALE</text>
<g transform="translate(22, 434)">
<text x="0" y="-8" fill="rgba(255,255,255,0.55)" font-size="8" letter-spacing="1.4">cd/klm</text>
<line x1="0" y1="6" x2="22" y2="6" stroke="#F32740" stroke-width="2.2"/>
<text x="28" y="9" fill="rgba(255,255,255,0.7)" font-size="9.5">C0 – C180</text>
<line x1="120" y1="6" x2="142" y2="6" stroke="#3FA9F5" stroke-width="1.7"/>
<text x="148" y="9" fill="rgba(255,255,255,0.7)" font-size="9.5">C90 – C270</text>
</g>
<text x="578" y="402" fill="rgba(255,255,255,0.45)" font-size="9" text-anchor="end">η = 126 lm/W</text>
<text x="578" y="418" fill="rgba(255,255,255,0.45)" font-size="9" text-anchor="end">7,910 lm · 62.7W</text>
<text x="578" y="434" fill="rgba(255,255,255,0.55)" font-size="8" letter-spacing="1.4" text-anchor="end">PEAK INTENSITY</text>
<text x="578" y="451" fill="#fff" font-weight="700" font-size="14" text-anchor="end">5,703 cd</text>
</svg>