<svg viewBox="0 0 600 460" xmlns="http://www.w3.org/2000/svg" font-family="JetBrains Mono, monospace" font-size="9.5">
<rect width="100%" height="100%" fill="#14171b"/>
<text x="22" y="26" fill="#F32740" font-weight="700" letter-spacing="2">LWPA60 · 60W · 4000K · ADJUSTABLE TILT</text>
<text x="22" y="42" fill="rgba(255,255,255,0.55)" font-size="8" letter-spacing="1.4">LUMINOUS INTENSITY DISTRIBUTION (cd/klm)</text>
<path d="M 232.0 64.0 A 68.0 68.0 0 0 0 368.0 64.0" fill="none" stroke="rgba(120,200,200,0.18)" stroke-width="0.7"/>
<path d="M 164.0 64.0 A 136.0 136.0 0 0 0 436.0 64.0" fill="none" stroke="rgba(120,200,200,0.18)" stroke-width="0.7"/>
<path d="M 96.0 64.0 A 204.0 204.0 0 0 0 504.0 64.0" fill="none" stroke="rgba(120,200,200,0.18)" stroke-width="0.7"/>
<path d="M 28.0 64.0 A 272.0 272.0 0 0 0 572.0 64.0" fill="none" stroke="rgba(120,200,200,0.18)" stroke-width="0.7"/>
<path d="M -40.0 64.0 A 340.0 340.0 0 0 0 640.0 64.0" fill="none" stroke="rgba(120,200,200,0.18)" stroke-width="0.7"/>
<line x1="300.0" y1="64" x2="388.0" y2="392.4" stroke="rgba(120,200,200,0.10)" stroke-width="0.5"/>
<line x1="300.0" y1="64" x2="212.0" y2="392.4" stroke="rgba(120,200,200,0.10)" stroke-width="0.5"/>
<line x1="300.0" y1="64" x2="470.0" y2="358.4" stroke="rgba(120,200,200,0.10)" stroke-width="0.5"/>
<line x1="300.0" y1="64" x2="130.0" y2="358.4" stroke="rgba(120,200,200,0.10)" stroke-width="0.5"/>
<line x1="300.0" y1="64" x2="540.4" y2="304.4" stroke="rgba(120,200,200,0.10)" stroke-width="0.5"/>
<line x1="300.0" y1="64" x2="59.6" y2="304.4" stroke="rgba(120,200,200,0.10)" stroke-width="0.5"/>
<line x1="300.0" y1="64" x2="594.4" y2="234.0" stroke="rgba(120,200,200,0.10)" stroke-width="0.5"/>
<line x1="300.0" y1="64" x2="5.6" y2="234.0" stroke="rgba(120,200,200,0.10)" stroke-width="0.5"/>
<line x1="300.0" y1="64" x2="628.4" y2="152.0" stroke="rgba(120,200,200,0.10)" stroke-width="0.5"/>
<line x1="300.0" y1="64" x2="-28.4" y2="152.0" stroke="rgba(120,200,200,0.10)" stroke-width="0.5"/>
<line x1="300.0" y1="64" x2="640.0" y2="64.0" stroke="rgba(120,200,200,0.10)" stroke-width="0.5"/>
<line x1="300.0" y1="64" x2="-40.0" y2="64.0" stroke="rgba(120,200,200,0.10)" stroke-width="0.5"/>
<line x1="300.0" y1="64" x2="300.0" y2="408" stroke="rgba(120,200,200,0.14)" stroke-width="0.5"/>
<line x1="-40.0" y1="64" x2="640.0" y2="64" stroke="rgba(120,200,200,0.14)" stroke-width="0.5"/>
<text x="391.6" y="408.9" text-anchor="middle" fill="rgba(255,255,255,0.4)" font-size="9">15°</text>
<text x="208.4" y="408.9" text-anchor="middle" fill="rgba(255,255,255,0.4)" font-size="9">15°</text>
<text x="477.0" y="373.6" text-anchor="middle" fill="rgba(255,255,255,0.6)" font-size="9">30°</text>
<text x="123.0" y="373.6" text-anchor="middle" fill="rgba(255,255,255,0.6)" font-size="9">30°</text>
<text x="550.3" y="317.3" text-anchor="middle" fill="rgba(255,255,255,0.4)" font-size="9">45°</text>
<text x="49.7" y="317.3" text-anchor="middle" fill="rgba(255,255,255,0.4)" font-size="9">45°</text>
<text x="606.6" y="244.0" text-anchor="middle" fill="rgba(255,255,255,0.6)" font-size="9">60°</text>
<text x="-6.6" y="244.0" text-anchor="middle" fill="rgba(255,255,255,0.6)" font-size="9">60°</text>
<text x="641.9" y="158.6" text-anchor="middle" fill="rgba(255,255,255,0.4)" font-size="9">75°</text>
<text x="-41.9" y="158.6" text-anchor="middle" fill="rgba(255,255,255,0.4)" font-size="9">75°</text>
<text x="654.0" y="67.0" text-anchor="middle" fill="rgba(255,255,255,0.6)" font-size="9">90°</text>
<text x="-54.0" y="67.0" text-anchor="middle" fill="rgba(255,255,255,0.6)" font-size="9">90°</text>
<text x="300" y="426" text-anchor="middle" fill="rgba(255,255,255,0.6)" font-size="9">0°</text>
<path d="M 300.0 243.0 L 303.1 242.9 L 306.2 242.8 L 309.4 242.5 L 312.5 242.1 L 315.5 241.7 L 318.6 241.1 L 321.7 240.4 L 324.7 239.6 L 327.7 238.7 L 330.6 237.7 L 333.6 236.7 L 336.5 235.5 L 339.3 234.2 L 342.1 232.8 L 344.8 231.3 L 347.5 229.7 L 350.1 227.9 L 352.7 226.2 L 355.2 224.4 L 357.7 222.4 L 360.0 220.4 L 362.3 218.3 L 364.6 216.2 L 366.7 213.9 L 368.8 211.6 L 370.8 209.1 L 372.7 206.6 L 374.5 204.1 L 376.1 201.4 L 377.7 198.6 L 379.2 195.8 L 380.5 192.9 L 381.8 189.9 L 382.8 186.8 L 383.8 183.7 L 384.6 180.5 L 385.3 177.2 L 385.9 173.9 L 386.3 170.5 L 386.6 167.2 L 386.8 163.8 L 386.8 160.4 L 386.7 157.0 L 386.6 153.6 L 386.3 150.3 L 385.8 146.9 L 385.2 143.5 L 384.4 140.0 L 383.6 136.6 L 382.6 133.3 L 381.4 129.9 L 379.9 126.4 L 378.1 122.9 L 376.1 119.3 L 374.0 115.8 L 371.7 112.4 L 369.5 109.1 L 367.1 105.9 L 364.6 102.8 L 361.9 99.8 L 359.2 96.8 L 356.5 94.1 L 353.9 91.5 L 350.9 88.8 L 347.6 86.2 L 344.1 83.6 L 340.7 81.3 L 337.5 79.1 L 334.3 77.1 L 331.3 75.4 L 328.1 73.7 L 324.7 72.0 L 321.7 70.6 L 318.9 69.4 L 316.4 68.4 L 313.8 67.5 L 311.3 66.6 L 308.8 65.9 L 306.5 65.3 L 304.7 64.8 L 303.6 64.6 L 303.0 64.4 L 302.6 64.3 L 302.2 64.2 L 301.9 64.2 L 301.6 64.1 L 301.4 64.1 L 301.2 64.0 L 301.0 64.0 L 301.0 64.0 L 299.1 64.0 L 299.1 64.0 L 299.0 64.0 L 298.8 64.1 L 298.5 64.1 L 298.2 64.2 L 297.9 64.2 L 297.4 64.3 L 296.6 64.5 L 295.3 64.7 L 293.6 65.1 L 292.0 65.6 L 289.8 66.2 L 287.6 66.9 L 285.1 67.7 L 282.5 68.7 L 279.5 69.9 L 276.6 71.1 L 273.6 72.6 L 270.3 74.2 L 267.1 76.0 L 264.0 77.8 L 260.8 79.8 L 257.5 82.0 L 254.1 84.4 L 250.7 87.0 L 247.6 89.6 L 244.9 92.1 L 242.1 94.8 L 239.4 97.6 L 236.8 100.5 L 234.1 103.6 L 231.6 106.7 L 229.1 110.0 L 226.8 113.4 L 224.5 116.9 L 222.5 120.3 L 220.8 123.7 L 219.3 127.1 L 217.9 130.5 L 216.7 133.9 L 215.5 137.5 L 214.3 141.1 L 213.3 144.8 L 212.6 148.4 L 212.0 152.0 L 211.7 155.5 L 211.4 159.0 L 211.4 162.3 L 211.6 165.7 L 211.8 169.1 L 212.2 172.4 L 212.7 175.8 L 213.3 179.1 L 214.0 182.4 L 214.8 185.6 L 215.8 188.9 L 216.9 192.0 L 218.1 195.0 L 219.5 198.0 L 221.0 200.9 L 222.6 203.6 L 224.4 206.2 L 226.2 208.8 L 228.2 211.2 L 230.2 213.6 L 232.4 215.9 L 234.6 218.2 L 236.9 220.2 L 239.3 222.2 L 241.7 224.2 L 244.2 225.9 L 246.8 227.6 L 249.5 229.3 L 252.1 230.9 L 254.9 232.3 L 257.7 233.7 L 260.5 235.0 L 263.4 236.1 L 266.3 237.3 L 269.3 238.3 L 272.2 239.2 L 275.3 240.0 L 278.3 240.6 L 281.4 241.2 L 284.4 241.8 L 287.5 242.3 L 290.6 242.6 L 293.8 242.9 L 296.9 243.0 L 300.0 243.0 Z" fill="none" stroke="#3FA9F5" stroke-width="1.7" stroke-linejoin="round" stroke-linecap="round"/>
<path d="M 300.0 243.0 L 303.1 244.4 L 306.4 246.1 L 309.7 248.6 L 313.2 252.1 L 316.9 256.8 L 320.9 262.7 L 325.2 269.4 L 329.8 276.4 L 334.6 282.7 L 339.4 287.6 L 344.2 291.4 L 348.9 294.0 L 353.4 295.2 L 357.7 295.3 L 361.7 294.2 L 365.4 292.1 L 368.8 289.0 L 371.8 284.8 L 374.3 279.8 L 376.2 273.3 L 377.6 266.0 L 378.4 258.1 L 379.1 250.4 L 379.6 242.9 L 380.3 236.2 L 381.2 230.5 L 382.6 226.1 L 384.5 223.0 L 386.8 220.7 L 389.5 219.1 L 392.6 218.1 L 396.0 217.6 L 399.3 216.9 L 402.5 215.9 L 405.1 214.1 L 407.0 211.3 L 408.3 207.7 L 408.5 202.9 L 407.5 196.7 L 405.1 189.3 L 401.7 181.0 L 397.3 172.0 L 392.6 163.3 L 388.0 155.1 L 384.0 148.0 L 380.5 141.8 L 377.5 136.3 L 374.8 131.4 L 372.6 127.1 L 370.6 123.3 L 368.8 119.7 L 367.0 116.4 L 365.2 113.1 L 363.0 109.8 L 360.6 106.4 L 357.6 102.9 L 354.5 99.4 L 351.3 96.1 L 347.8 92.7 L 344.4 89.7 L 341.3 86.9 L 338.6 84.5 L 336.1 82.4 L 333.4 80.3 L 330.5 78.2 L 327.7 76.3 L 324.9 74.6 L 322.3 73.0 L 319.9 71.6 L 317.8 70.5 L 315.8 69.5 L 314.0 68.6 L 312.4 67.8 L 310.8 67.1 L 309.4 66.5 L 308.2 66.0 L 307.2 65.7 L 306.2 65.3 L 305.1 65.0 L 304.2 64.7 L 303.3 64.5 L 302.5 64.4 L 301.7 64.2 L 301.2 64.1 L 300.9 64.1 L 300.8 64.1 L 300.8 64.0 L 300.8 64.0 L 300.8 64.0 L 300.8 64.0 L 298.8 64.0 L 298.5 64.0 L 298.1 64.1 L 297.6 64.1 L 297.0 64.2 L 296.3 64.3 L 295.6 64.5 L 295.0 64.6 L 294.3 64.8 L 293.7 65.0 L 293.0 65.2 L 292.3 65.5 L 291.7 65.8 L 291.0 66.1 L 290.4 66.4 L 289.5 66.8 L 288.5 67.3 L 287.6 67.8 L 287.3 68.1 L 287.3 68.4 L 287.1 68.7 L 286.5 69.2 L 286.0 69.7 L 285.5 70.2 L 284.9 70.7 L 284.3 71.3 L 283.8 71.9 L 283.3 72.5 L 283.0 73.0 L 283.8 73.0 L 283.7 73.4 L 282.6 74.4 L 281.8 75.4 L 281.0 76.3 L 280.3 77.3 L 279.7 78.2 L 279.1 79.2 L 278.4 80.3 L 277.5 81.6 L 276.4 83.1 L 274.7 85.2 L 272.2 88.2 L 269.4 91.6 L 265.6 96.1 L 260.3 102.4 L 254.1 109.9 L 250.5 115.3 L 246.8 121.0 L 242.0 128.4 L 238.5 134.8 L 237.3 138.7 L 237.5 141.2 L 238.0 143.4 L 238.4 145.7 L 239.0 148.0 L 239.6 150.3 L 240.1 152.7 L 240.7 155.3 L 241.3 157.9 L 241.9 160.7 L 242.5 163.7 L 243.0 166.9 L 243.6 170.2 L 244.2 173.6 L 245.0 176.8 L 245.9 180.1 L 246.9 183.2 L 248.0 186.5 L 249.2 189.8 L 250.4 193.3 L 251.3 197.7 L 252.3 202.4 L 253.7 206.4 L 255.5 209.4 L 257.5 212.1 L 259.4 215.4 L 261.4 218.6 L 263.5 221.9 L 265.9 224.4 L 268.5 226.0 L 271.1 227.7 L 273.8 229.7 L 276.4 231.8 L 279.1 233.8 L 281.9 235.9 L 284.8 237.8 L 287.7 239.2 L 290.8 240.4 L 293.8 241.3 L 296.9 242.1 L 300.0 243.0 Z" fill="none" stroke="#F32740" stroke-width="2.0" stroke-linejoin="round" stroke-linecap="round"/>
<text x="338" y="132" fill="#F32740" font-size="9.5" font-weight="700">150</text>
<text x="335" y="200" fill="#F32740" font-size="9.5" font-weight="700">300</text>
<text x="335" y="268" fill="#F32740" font-size="9.5" font-weight="700">450</text>
<text x="335" y="336" fill="#F32740" font-size="9.5" font-weight="700">600</text>
<rect x="274.0" y="58" width="52" height="11" rx="1.5" fill="#fafbfc" stroke="rgba(255,255,255,0.4)" stroke-width="0.5"/>
<line x1="272.0" y1="69.8" x2="328.0" y2="69.8" stroke="#F32740" stroke-width="0.7" stroke-dasharray="1.5 2"/>
<text x="300" y="66" text-anchor="middle" fill="#F32740" font-size="8" font-weight="700" letter-spacing="0.5">cd/klm SCALE</text>
<g transform="translate(22, 434)">
<text x="0" y="-8" fill="rgba(255,255,255,0.55)" font-size="8" letter-spacing="1.4">cd/klm</text>
<line x1="0" y1="6" x2="22" y2="6" stroke="#F32740" stroke-width="2.2"/>
<text x="28" y="9" fill="rgba(255,255,255,0.7)" font-size="9.5">C0 – C180</text>
<line x1="120" y1="6" x2="142" y2="6" stroke="#3FA9F5" stroke-width="1.7"/>
<text x="148" y="9" fill="rgba(255,255,255,0.7)" font-size="9.5">C90 – C270</text>
</g>
<text x="578" y="402" fill="rgba(255,255,255,0.45)" font-size="9" text-anchor="end">η = 140 lm/W</text>
<text x="578" y="418" fill="rgba(255,255,255,0.45)" font-size="9" text-anchor="end">8,482 lm · 60.7W</text>
<text x="578" y="434" fill="rgba(255,255,255,0.55)" font-size="8" letter-spacing="1.4" text-anchor="end">PEAK INTENSITY</text>
<text x="578" y="451" fill="#fff" font-weight="700" font-size="14" text-anchor="end">4,460 cd</text>
</svg>