<svg viewBox="0 0 600 460" xmlns="http://www.w3.org/2000/svg" font-family="JetBrains Mono, monospace" font-size="9.5">
<rect width="100%" height="100%" fill="#14171b"/>
<text x="22" y="26" fill="#F32740" font-weight="700" letter-spacing="2">LWPA60 · 60W · 5000K · ADJUSTABLE TILT</text>
<text x="22" y="42" fill="rgba(255,255,255,0.55)" font-size="8" letter-spacing="1.4">LUMINOUS INTENSITY DISTRIBUTION (cd/klm)</text>
<path d="M 232.0 64.0 A 68.0 68.0 0 0 0 368.0 64.0" fill="none" stroke="rgba(120,200,200,0.18)" stroke-width="0.7"/>
<path d="M 164.0 64.0 A 136.0 136.0 0 0 0 436.0 64.0" fill="none" stroke="rgba(120,200,200,0.18)" stroke-width="0.7"/>
<path d="M 96.0 64.0 A 204.0 204.0 0 0 0 504.0 64.0" fill="none" stroke="rgba(120,200,200,0.18)" stroke-width="0.7"/>
<path d="M 28.0 64.0 A 272.0 272.0 0 0 0 572.0 64.0" fill="none" stroke="rgba(120,200,200,0.18)" stroke-width="0.7"/>
<path d="M -40.0 64.0 A 340.0 340.0 0 0 0 640.0 64.0" fill="none" stroke="rgba(120,200,200,0.18)" stroke-width="0.7"/>
<line x1="300.0" y1="64" x2="388.0" y2="392.4" stroke="rgba(120,200,200,0.10)" stroke-width="0.5"/>
<line x1="300.0" y1="64" x2="212.0" y2="392.4" stroke="rgba(120,200,200,0.10)" stroke-width="0.5"/>
<line x1="300.0" y1="64" x2="470.0" y2="358.4" stroke="rgba(120,200,200,0.10)" stroke-width="0.5"/>
<line x1="300.0" y1="64" x2="130.0" y2="358.4" stroke="rgba(120,200,200,0.10)" stroke-width="0.5"/>
<line x1="300.0" y1="64" x2="540.4" y2="304.4" stroke="rgba(120,200,200,0.10)" stroke-width="0.5"/>
<line x1="300.0" y1="64" x2="59.6" y2="304.4" stroke="rgba(120,200,200,0.10)" stroke-width="0.5"/>
<line x1="300.0" y1="64" x2="594.4" y2="234.0" stroke="rgba(120,200,200,0.10)" stroke-width="0.5"/>
<line x1="300.0" y1="64" x2="5.6" y2="234.0" stroke="rgba(120,200,200,0.10)" stroke-width="0.5"/>
<line x1="300.0" y1="64" x2="628.4" y2="152.0" stroke="rgba(120,200,200,0.10)" stroke-width="0.5"/>
<line x1="300.0" y1="64" x2="-28.4" y2="152.0" stroke="rgba(120,200,200,0.10)" stroke-width="0.5"/>
<line x1="300.0" y1="64" x2="640.0" y2="64.0" stroke="rgba(120,200,200,0.10)" stroke-width="0.5"/>
<line x1="300.0" y1="64" x2="-40.0" y2="64.0" stroke="rgba(120,200,200,0.10)" stroke-width="0.5"/>
<line x1="300.0" y1="64" x2="300.0" y2="408" stroke="rgba(120,200,200,0.14)" stroke-width="0.5"/>
<line x1="-40.0" y1="64" x2="640.0" y2="64" stroke="rgba(120,200,200,0.14)" stroke-width="0.5"/>
<text x="391.6" y="408.9" text-anchor="middle" fill="rgba(255,255,255,0.4)" font-size="9">15°</text>
<text x="208.4" y="408.9" text-anchor="middle" fill="rgba(255,255,255,0.4)" font-size="9">15°</text>
<text x="477.0" y="373.6" text-anchor="middle" fill="rgba(255,255,255,0.6)" font-size="9">30°</text>
<text x="123.0" y="373.6" text-anchor="middle" fill="rgba(255,255,255,0.6)" font-size="9">30°</text>
<text x="550.3" y="317.3" text-anchor="middle" fill="rgba(255,255,255,0.4)" font-size="9">45°</text>
<text x="49.7" y="317.3" text-anchor="middle" fill="rgba(255,255,255,0.4)" font-size="9">45°</text>
<text x="606.6" y="244.0" text-anchor="middle" fill="rgba(255,255,255,0.6)" font-size="9">60°</text>
<text x="-6.6" y="244.0" text-anchor="middle" fill="rgba(255,255,255,0.6)" font-size="9">60°</text>
<text x="641.9" y="158.6" text-anchor="middle" fill="rgba(255,255,255,0.4)" font-size="9">75°</text>
<text x="-41.9" y="158.6" text-anchor="middle" fill="rgba(255,255,255,0.4)" font-size="9">75°</text>
<text x="654.0" y="67.0" text-anchor="middle" fill="rgba(255,255,255,0.6)" font-size="9">90°</text>
<text x="-54.0" y="67.0" text-anchor="middle" fill="rgba(255,255,255,0.6)" font-size="9">90°</text>
<text x="300" y="426" text-anchor="middle" fill="rgba(255,255,255,0.6)" font-size="9">0°</text>
<path d="M 300.0 274.9 L 303.7 274.9 L 307.4 274.7 L 311.0 274.4 L 314.7 273.9 L 318.3 273.4 L 321.9 272.8 L 325.6 272.1 L 329.1 271.2 L 332.6 270.0 L 336.1 268.9 L 339.6 267.7 L 343.0 266.4 L 346.4 264.9 L 349.7 263.2 L 352.9 261.4 L 356.1 259.6 L 359.2 257.5 L 362.2 255.5 L 365.2 253.4 L 368.1 251.2 L 370.9 248.8 L 373.6 246.2 L 376.3 243.7 L 378.8 241.1 L 381.3 238.4 L 383.6 235.5 L 385.8 232.4 L 387.9 229.3 L 389.9 226.2 L 391.7 222.9 L 393.5 219.6 L 395.1 216.2 L 396.6 212.8 L 398.0 209.3 L 399.2 205.6 L 400.2 202.0 L 401.2 198.3 L 402.0 194.5 L 402.7 190.8 L 403.3 187.1 L 403.7 183.3 L 404.1 179.6 L 404.3 175.8 L 404.5 172.2 L 404.6 168.6 L 404.5 164.9 L 404.2 161.2 L 403.8 157.5 L 403.2 153.7 L 402.3 149.9 L 401.2 145.9 L 399.7 141.9 L 398.0 137.9 L 396.0 133.8 L 393.9 129.7 L 391.5 125.7 L 389.2 121.9 L 386.7 118.2 L 384.1 114.5 L 381.2 110.9 L 378.2 107.4 L 375.3 104.0 L 372.4 100.9 L 369.2 97.7 L 365.7 94.6 L 361.8 91.5 L 357.9 88.6 L 354.1 85.9 L 350.4 83.4 L 347.2 81.2 L 343.5 79.0 L 339.3 76.8 L 335.3 74.8 L 331.7 73.1 L 327.7 71.4 L 323.6 69.9 L 319.1 68.4 L 314.6 67.1 L 310.0 66.0 L 306.3 65.1 L 304.5 64.7 L 303.8 64.5 L 303.2 64.4 L 302.8 64.3 L 302.3 64.2 L 302.0 64.1 L 301.7 64.1 L 301.4 64.0 L 301.3 64.0 L 301.2 64.0 L 298.9 64.0 L 298.9 64.0 L 298.7 64.0 L 298.5 64.1 L 298.2 64.1 L 297.9 64.2 L 297.4 64.3 L 296.8 64.4 L 295.4 64.7 L 292.9 65.1 L 290.4 65.7 L 287.7 66.4 L 284.5 67.3 L 281.4 68.3 L 278.1 69.5 L 274.8 70.8 L 271.1 72.3 L 267.6 73.9 L 263.8 75.7 L 260.0 77.8 L 256.4 79.9 L 252.9 82.1 L 249.0 84.6 L 245.0 87.3 L 241.0 90.3 L 237.3 93.3 L 233.8 96.3 L 230.7 99.3 L 227.5 102.5 L 224.5 105.9 L 221.5 109.3 L 218.4 113.0 L 215.6 116.8 L 212.9 120.6 L 210.3 124.5 L 207.9 128.5 L 205.7 132.5 L 203.8 136.5 L 202.3 140.4 L 200.8 144.3 L 199.5 148.3 L 198.3 152.4 L 197.2 156.6 L 196.3 160.7 L 195.7 164.7 L 195.4 168.6 L 195.3 172.4 L 195.4 176.1 L 195.8 179.8 L 196.2 183.4 L 196.8 187.0 L 197.5 190.6 L 198.2 194.3 L 199.2 197.8 L 200.1 201.4 L 201.2 205.0 L 202.5 208.6 L 203.8 212.1 L 205.3 215.6 L 206.9 219.0 L 208.6 222.2 L 210.5 225.5 L 212.5 228.5 L 214.6 231.6 L 216.8 234.6 L 219.1 237.5 L 221.5 240.2 L 224.1 242.9 L 226.7 245.5 L 229.4 247.9 L 232.2 250.3 L 235.1 252.5 L 238.0 254.8 L 241.0 256.8 L 244.1 258.9 L 247.3 260.8 L 250.5 262.5 L 253.8 264.2 L 257.1 265.8 L 260.5 267.2 L 263.9 268.5 L 267.4 269.7 L 270.9 270.8 L 274.5 271.7 L 278.1 272.5 L 281.7 273.2 L 285.3 273.8 L 289.0 274.2 L 292.6 274.6 L 296.3 274.8 L 300.0 274.9 Z" fill="none" stroke="#3FA9F5" stroke-width="1.7" stroke-linejoin="round" stroke-linecap="round"/>
<path d="M 300.0 274.9 L 303.7 274.4 L 307.3 273.7 L 310.9 272.8 L 314.5 271.7 L 318.1 270.7 L 321.6 269.8 L 325.1 268.5 L 328.5 266.8 L 331.7 264.2 L 334.7 261.1 L 337.6 257.6 L 340.4 254.0 L 343.0 250.5 L 345.6 246.7 L 348.0 243.1 L 350.3 239.4 L 352.6 236.0 L 354.9 232.9 L 357.2 230.0 L 359.3 226.8 L 361.5 224.2 L 364.0 222.3 L 366.7 221.2 L 369.9 221.0 L 373.8 222.2 L 378.5 224.9 L 384.0 228.8 L 390.6 234.3 L 397.9 240.7 L 406.0 247.6 L 414.6 254.7 L 423.5 261.7 L 432.3 267.7 L 440.5 272.3 L 447.6 274.7 L 453.0 274.6 L 456.3 271.4 L 457.3 265.3 L 455.2 255.7 L 450.1 242.9 L 442.2 227.6 L 432.7 211.4 L 422.3 195.1 L 412.5 180.5 L 404.2 168.2 L 397.5 158.1 L 391.9 149.7 L 387.5 142.8 L 384.1 137.1 L 381.8 132.6 L 380.2 128.9 L 378.9 125.7 L 377.6 122.5 L 376.0 119.2 L 374.0 115.8 L 371.1 111.9 L 368.0 108.2 L 364.8 104.5 L 360.7 100.5 L 356.8 96.8 L 352.9 93.3 L 349.5 90.3 L 346.2 87.5 L 342.9 84.9 L 339.2 82.3 L 335.6 79.8 L 332.0 77.6 L 328.6 75.6 L 325.5 73.8 L 322.9 72.3 L 320.6 71.1 L 318.6 70.0 L 316.8 69.1 L 315.1 68.3 L 313.5 67.6 L 312.1 67.0 L 310.7 66.5 L 309.2 66.0 L 307.7 65.5 L 306.2 65.1 L 304.8 64.8 L 303.5 64.5 L 302.2 64.3 L 301.5 64.2 L 301.1 64.1 L 300.9 64.1 L 300.9 64.0 L 300.9 64.0 L 300.9 64.0 L 300.9 64.0 L 298.5 64.0 L 298.4 64.0 L 298.1 64.1 L 297.8 64.1 L 297.4 64.2 L 297.0 64.3 L 296.6 64.4 L 296.2 64.5 L 295.7 64.6 L 295.3 64.7 L 294.8 64.9 L 294.3 65.1 L 293.8 65.3 L 293.3 65.6 L 292.6 65.8 L 291.5 66.3 L 290.5 66.7 L 290.2 67.0 L 290.2 67.2 L 290.0 67.4 L 289.6 67.8 L 289.1 68.2 L 288.5 68.6 L 288.0 69.1 L 287.3 69.6 L 286.7 70.2 L 286.1 70.8 L 285.5 71.4 L 285.0 72.0 L 285.1 72.3 L 284.4 73.0 L 283.7 73.8 L 283.1 74.6 L 283.4 74.8 L 283.3 75.3 L 282.9 76.0 L 282.4 76.8 L 281.7 77.8 L 280.6 79.1 L 278.8 81.2 L 275.5 84.6 L 270.4 89.8 L 263.8 96.6 L 255.3 105.6 L 243.4 118.6 L 229.7 134.3 L 222.6 144.2 L 217.6 152.4 L 211.0 162.8 L 205.0 173.2 L 200.6 182.4 L 197.7 190.3 L 196.1 197.0 L 195.6 202.5 L 195.9 207.2 L 196.8 211.4 L 197.9 215.4 L 199.3 219.1 L 200.8 222.7 L 202.6 226.1 L 204.4 229.5 L 206.4 232.9 L 208.5 236.2 L 210.6 239.4 L 212.8 242.8 L 214.9 246.5 L 216.9 250.6 L 218.9 255.1 L 221.0 259.7 L 223.0 264.6 L 225.0 270.1 L 227.4 274.9 L 230.6 277.7 L 234.6 278.0 L 238.7 277.7 L 242.6 278.1 L 246.3 279.5 L 249.9 281.0 L 253.9 280.7 L 258.4 278.0 L 262.7 275.8 L 266.6 275.0 L 270.3 275.0 L 274.1 275.3 L 277.7 275.9 L 281.4 276.6 L 285.1 276.9 L 288.8 276.8 L 292.6 276.2 L 296.3 275.5 L 300.0 274.9 Z" fill="none" stroke="#F32740" stroke-width="2.0" stroke-linejoin="round" stroke-linecap="round"/>
<text x="338" y="132" fill="#F32740" font-size="9.5" font-weight="700">125</text>
<text x="335" y="200" fill="#F32740" font-size="9.5" font-weight="700">250</text>
<text x="335" y="268" fill="#F32740" font-size="9.5" font-weight="700">375</text>
<text x="335" y="336" fill="#F32740" font-size="9.5" font-weight="700">500</text>
<rect x="274.0" y="58" width="52" height="11" rx="1.5" fill="#fafbfc" stroke="rgba(255,255,255,0.4)" stroke-width="0.5"/>
<line x1="272.0" y1="69.8" x2="328.0" y2="69.8" stroke="#F32740" stroke-width="0.7" stroke-dasharray="1.5 2"/>
<text x="300" y="66" text-anchor="middle" fill="#F32740" font-size="8" font-weight="700" letter-spacing="0.5">cd/klm SCALE</text>
<g transform="translate(22, 434)">
<text x="0" y="-8" fill="rgba(255,255,255,0.55)" font-size="8" letter-spacing="1.4">cd/klm</text>
<line x1="0" y1="6" x2="22" y2="6" stroke="#F32740" stroke-width="2.2"/>
<text x="28" y="9" fill="rgba(255,255,255,0.7)" font-size="9.5">C0 – C180</text>
<line x1="120" y1="6" x2="142" y2="6" stroke="#3FA9F5" stroke-width="1.7"/>
<text x="148" y="9" fill="rgba(255,255,255,0.7)" font-size="9.5">C90 – C270</text>
</g>
<text x="578" y="402" fill="rgba(255,255,255,0.45)" font-size="9" text-anchor="end">η = 132 lm/W</text>
<text x="578" y="418" fill="rgba(255,255,255,0.45)" font-size="9" text-anchor="end">8,243 lm · 62.4W</text>
<text x="578" y="434" fill="rgba(255,255,255,0.55)" font-size="8" letter-spacing="1.4" text-anchor="end">PEAK INTENSITY</text>
<text x="578" y="451" fill="#fff" font-weight="700" font-size="14" text-anchor="end">3,944 cd</text>
</svg>