<svg viewBox="0 0 600 460" xmlns="http://www.w3.org/2000/svg" font-family="JetBrains Mono, monospace" font-size="9.5">
<rect width="100%" height="100%" fill="#14171b"/>
<text x="22" y="26" fill="#F32740" font-weight="700" letter-spacing="2">LWPA80 · 80W · 4000K · ADJUSTABLE TILT</text>
<text x="22" y="42" fill="rgba(255,255,255,0.55)" font-size="8" letter-spacing="1.4">LUMINOUS INTENSITY DISTRIBUTION (cd/klm)</text>
<path d="M 232.0 64.0 A 68.0 68.0 0 0 0 368.0 64.0" fill="none" stroke="rgba(120,200,200,0.18)" stroke-width="0.7"/>
<path d="M 164.0 64.0 A 136.0 136.0 0 0 0 436.0 64.0" fill="none" stroke="rgba(120,200,200,0.18)" stroke-width="0.7"/>
<path d="M 96.0 64.0 A 204.0 204.0 0 0 0 504.0 64.0" fill="none" stroke="rgba(120,200,200,0.18)" stroke-width="0.7"/>
<path d="M 28.0 64.0 A 272.0 272.0 0 0 0 572.0 64.0" fill="none" stroke="rgba(120,200,200,0.18)" stroke-width="0.7"/>
<path d="M -40.0 64.0 A 340.0 340.0 0 0 0 640.0 64.0" fill="none" stroke="rgba(120,200,200,0.18)" stroke-width="0.7"/>
<line x1="300.0" y1="64" x2="388.0" y2="392.4" stroke="rgba(120,200,200,0.10)" stroke-width="0.5"/>
<line x1="300.0" y1="64" x2="212.0" y2="392.4" stroke="rgba(120,200,200,0.10)" stroke-width="0.5"/>
<line x1="300.0" y1="64" x2="470.0" y2="358.4" stroke="rgba(120,200,200,0.10)" stroke-width="0.5"/>
<line x1="300.0" y1="64" x2="130.0" y2="358.4" stroke="rgba(120,200,200,0.10)" stroke-width="0.5"/>
<line x1="300.0" y1="64" x2="540.4" y2="304.4" stroke="rgba(120,200,200,0.10)" stroke-width="0.5"/>
<line x1="300.0" y1="64" x2="59.6" y2="304.4" stroke="rgba(120,200,200,0.10)" stroke-width="0.5"/>
<line x1="300.0" y1="64" x2="594.4" y2="234.0" stroke="rgba(120,200,200,0.10)" stroke-width="0.5"/>
<line x1="300.0" y1="64" x2="5.6" y2="234.0" stroke="rgba(120,200,200,0.10)" stroke-width="0.5"/>
<line x1="300.0" y1="64" x2="628.4" y2="152.0" stroke="rgba(120,200,200,0.10)" stroke-width="0.5"/>
<line x1="300.0" y1="64" x2="-28.4" y2="152.0" stroke="rgba(120,200,200,0.10)" stroke-width="0.5"/>
<line x1="300.0" y1="64" x2="640.0" y2="64.0" stroke="rgba(120,200,200,0.10)" stroke-width="0.5"/>
<line x1="300.0" y1="64" x2="-40.0" y2="64.0" stroke="rgba(120,200,200,0.10)" stroke-width="0.5"/>
<line x1="300.0" y1="64" x2="300.0" y2="408" stroke="rgba(120,200,200,0.14)" stroke-width="0.5"/>
<line x1="-40.0" y1="64" x2="640.0" y2="64" stroke="rgba(120,200,200,0.14)" stroke-width="0.5"/>
<text x="391.6" y="408.9" text-anchor="middle" fill="rgba(255,255,255,0.4)" font-size="9">15°</text>
<text x="208.4" y="408.9" text-anchor="middle" fill="rgba(255,255,255,0.4)" font-size="9">15°</text>
<text x="477.0" y="373.6" text-anchor="middle" fill="rgba(255,255,255,0.6)" font-size="9">30°</text>
<text x="123.0" y="373.6" text-anchor="middle" fill="rgba(255,255,255,0.6)" font-size="9">30°</text>
<text x="550.3" y="317.3" text-anchor="middle" fill="rgba(255,255,255,0.4)" font-size="9">45°</text>
<text x="49.7" y="317.3" text-anchor="middle" fill="rgba(255,255,255,0.4)" font-size="9">45°</text>
<text x="606.6" y="244.0" text-anchor="middle" fill="rgba(255,255,255,0.6)" font-size="9">60°</text>
<text x="-6.6" y="244.0" text-anchor="middle" fill="rgba(255,255,255,0.6)" font-size="9">60°</text>
<text x="641.9" y="158.6" text-anchor="middle" fill="rgba(255,255,255,0.4)" font-size="9">75°</text>
<text x="-41.9" y="158.6" text-anchor="middle" fill="rgba(255,255,255,0.4)" font-size="9">75°</text>
<text x="654.0" y="67.0" text-anchor="middle" fill="rgba(255,255,255,0.6)" font-size="9">90°</text>
<text x="-54.0" y="67.0" text-anchor="middle" fill="rgba(255,255,255,0.6)" font-size="9">90°</text>
<text x="300" y="426" text-anchor="middle" fill="rgba(255,255,255,0.6)" font-size="9">0°</text>
<path d="M 300.0 243.2 L 303.1 243.4 L 306.3 243.0 L 309.4 243.0 L 312.5 242.6 L 315.6 242.2 L 318.7 241.5 L 321.7 240.6 L 324.7 239.9 L 327.7 239.0 L 330.7 238.0 L 333.6 236.9 L 336.5 235.7 L 339.4 234.8 L 342.2 233.3 L 344.9 231.7 L 347.6 230.1 L 350.3 228.4 L 352.8 226.4 L 355.4 224.8 L 357.8 222.7 L 360.2 220.8 L 362.4 218.5 L 364.7 216.5 L 366.9 214.2 L 369.0 211.9 L 370.9 209.4 L 372.8 206.8 L 374.6 204.4 L 376.2 201.5 L 377.9 198.9 L 379.3 195.9 L 380.6 192.9 L 381.8 190.0 L 382.9 186.9 L 383.8 183.7 L 384.8 180.7 L 385.5 177.4 L 386.0 174.0 L 386.5 170.8 L 386.8 167.4 L 386.9 164.0 L 387.0 160.6 L 386.9 157.2 L 386.7 153.8 L 386.4 150.4 L 386.0 147.0 L 385.4 143.7 L 384.6 140.2 L 383.8 136.8 L 382.8 133.5 L 381.6 130.0 L 380.1 126.6 L 378.3 123.0 L 376.3 119.5 L 374.2 115.9 L 371.9 112.5 L 369.7 109.3 L 367.4 106.1 L 364.9 103.0 L 362.1 99.9 L 359.5 97.0 L 356.7 94.2 L 354.1 91.5 L 351.1 88.9 L 347.8 86.3 L 344.3 83.7 L 340.9 81.4 L 337.6 79.2 L 334.4 77.2 L 331.4 75.4 L 328.2 73.7 L 324.9 72.1 L 321.8 70.7 L 319.1 69.5 L 316.3 68.4 L 313.6 67.4 L 311.3 66.6 L 308.9 65.9 L 306.6 65.3 L 304.8 64.8 L 303.6 64.6 L 303.0 64.4 L 302.6 64.3 L 302.3 64.2 L 301.9 64.2 L 301.6 64.1 L 301.4 64.1 L 301.2 64.0 L 301.0 64.0 L 301.0 64.0 L 299.0 64.0 L 299.1 64.0 L 299.0 64.0 L 298.8 64.1 L 298.5 64.1 L 298.2 64.2 L 297.9 64.2 L 297.4 64.3 L 296.6 64.5 L 295.2 64.8 L 293.9 65.1 L 292.1 65.5 L 289.9 66.1 L 287.7 66.8 L 285.2 67.7 L 282.6 68.7 L 279.6 69.8 L 276.8 71.1 L 273.7 72.5 L 270.4 74.2 L 267.3 75.9 L 264.1 77.8 L 260.9 79.8 L 257.6 82.0 L 254.2 84.4 L 251.0 86.9 L 247.7 89.5 L 245.0 92.0 L 242.2 94.7 L 239.6 97.5 L 236.8 100.5 L 234.2 103.5 L 231.6 106.7 L 229.2 110.0 L 226.7 113.4 L 224.5 116.8 L 222.5 120.3 L 220.7 123.7 L 219.3 127.1 L 217.9 130.5 L 216.7 133.9 L 215.5 137.5 L 214.3 141.2 L 213.4 144.8 L 212.5 148.5 L 212.0 152.0 L 211.6 155.6 L 211.4 159.0 L 211.4 162.4 L 211.5 165.8 L 211.7 169.2 L 212.1 172.6 L 212.5 176.0 L 213.3 179.1 L 213.9 182.5 L 214.7 185.8 L 215.7 188.9 L 216.8 192.1 L 218.0 195.2 L 219.4 198.1 L 220.9 201.0 L 222.6 203.6 L 224.2 206.5 L 226.2 208.8 L 228.1 211.4 L 230.2 213.6 L 232.3 216.1 L 234.5 218.3 L 236.8 220.5 L 239.2 222.4 L 241.6 224.5 L 244.2 226.1 L 246.7 227.9 L 249.4 229.4 L 252.1 231.1 L 254.8 232.8 L 257.7 233.9 L 260.5 235.3 L 263.3 236.6 L 266.3 237.6 L 269.2 238.7 L 272.2 239.3 L 275.2 240.2 L 278.3 240.9 L 281.3 241.6 L 284.4 242.3 L 287.5 242.7 L 290.6 242.8 L 293.7 243.1 L 296.9 243.3 L 300.0 243.2 Z" fill="none" stroke="#3FA9F5" stroke-width="1.7" stroke-linejoin="round" stroke-linecap="round"/>
<path d="M 300.0 243.2 L 303.2 244.5 L 306.4 246.4 L 309.7 248.9 L 313.2 252.4 L 316.9 257.3 L 320.9 263.3 L 325.3 269.8 L 329.9 276.8 L 334.7 283.1 L 339.5 288.2 L 344.3 291.8 L 349.0 294.4 L 353.4 295.4 L 357.8 295.7 L 361.8 294.5 L 365.4 292.1 L 368.7 288.7 L 371.6 284.4 L 374.1 279.1 L 375.9 272.6 L 377.2 265.1 L 378.0 257.0 L 378.6 249.2 L 379.1 241.7 L 379.8 235.2 L 380.8 229.7 L 382.4 225.7 L 384.4 222.6 L 386.9 220.8 L 389.7 219.4 L 392.9 218.7 L 396.3 218.2 L 399.7 217.6 L 402.8 216.4 L 405.5 214.6 L 407.2 211.6 L 408.2 207.6 L 408.3 202.6 L 407.1 196.3 L 404.4 188.5 L 401.0 180.2 L 396.5 171.2 L 391.9 162.6 L 387.6 154.7 L 383.8 147.8 L 380.3 141.5 L 377.6 136.3 L 375.0 131.5 L 372.6 127.1 L 370.8 123.4 L 369.0 119.9 L 367.3 116.6 L 365.2 113.1 L 363.0 109.8 L 360.6 106.4 L 357.7 102.9 L 354.5 99.4 L 351.0 95.9 L 347.6 92.6 L 344.4 89.7 L 341.2 86.8 L 338.6 84.5 L 336.0 82.3 L 333.3 80.2 L 330.4 78.2 L 327.5 76.3 L 324.7 74.5 L 322.1 72.9 L 319.8 71.6 L 317.6 70.4 L 315.8 69.4 L 313.9 68.5 L 312.3 67.7 L 310.7 67.1 L 309.3 66.5 L 308.2 66.0 L 307.2 65.7 L 306.1 65.3 L 305.2 65.0 L 304.2 64.7 L 303.3 64.5 L 302.5 64.4 L 301.7 64.2 L 301.2 64.1 L 300.9 64.1 L 300.8 64.1 L 300.8 64.0 L 300.8 64.0 L 300.8 64.0 L 300.8 64.0 L 298.8 64.0 L 298.6 64.0 L 298.2 64.1 L 297.7 64.1 L 297.0 64.2 L 296.4 64.3 L 295.7 64.5 L 294.9 64.6 L 294.2 64.8 L 293.6 65.0 L 292.9 65.3 L 292.2 65.5 L 291.5 65.8 L 290.9 66.1 L 290.2 66.5 L 289.2 66.9 L 288.3 67.4 L 287.3 67.9 L 287.1 68.2 L 287.1 68.4 L 286.9 68.8 L 286.4 69.2 L 285.9 69.7 L 285.3 70.2 L 284.7 70.8 L 284.1 71.4 L 283.5 72.0 L 283.1 72.6 L 282.7 73.2 L 283.5 73.1 L 283.5 73.5 L 282.4 74.6 L 281.6 75.5 L 280.9 76.4 L 280.2 77.4 L 279.5 78.4 L 278.9 79.3 L 278.2 80.4 L 277.4 81.7 L 276.4 83.1 L 274.7 85.2 L 272.3 88.1 L 269.6 91.3 L 266.0 95.7 L 260.7 102.0 L 254.5 109.5 L 250.7 115.1 L 247.2 120.7 L 242.3 128.1 L 238.6 134.7 L 237.2 138.9 L 237.2 141.6 L 237.7 143.7 L 238.2 146.0 L 238.7 148.3 L 239.3 150.7 L 240.0 153.0 L 240.5 155.6 L 241.2 158.2 L 241.8 160.8 L 242.4 163.7 L 243.0 166.8 L 243.6 170.0 L 244.3 173.2 L 245.2 176.4 L 246.1 179.6 L 247.1 182.8 L 248.2 186.0 L 249.3 189.4 L 250.5 192.9 L 251.4 197.5 L 252.4 202.2 L 253.8 206.2 L 255.6 209.2 L 257.6 212.0 L 259.6 215.0 L 261.5 218.3 L 263.5 221.9 L 265.9 224.5 L 268.5 226.1 L 271.1 227.7 L 273.8 229.7 L 276.4 231.8 L 279.1 233.9 L 281.9 236.1 L 284.8 237.7 L 287.7 239.5 L 290.7 240.7 L 293.8 241.4 L 296.9 242.4 L 300.0 243.2 Z" fill="none" stroke="#F32740" stroke-width="2.0" stroke-linejoin="round" stroke-linecap="round"/>
<text x="338" y="132" fill="#F32740" font-size="9.5" font-weight="700">150</text>
<text x="335" y="200" fill="#F32740" font-size="9.5" font-weight="700">300</text>
<text x="335" y="268" fill="#F32740" font-size="9.5" font-weight="700">450</text>
<text x="335" y="336" fill="#F32740" font-size="9.5" font-weight="700">600</text>
<rect x="274.0" y="58" width="52" height="11" rx="1.5" fill="#fafbfc" stroke="rgba(255,255,255,0.4)" stroke-width="0.5"/>
<line x1="272.0" y1="69.8" x2="328.0" y2="69.8" stroke="#F32740" stroke-width="0.7" stroke-dasharray="1.5 2"/>
<text x="300" y="66" text-anchor="middle" fill="#F32740" font-size="8" font-weight="700" letter-spacing="0.5">cd/klm SCALE</text>
<g transform="translate(22, 434)">
<text x="0" y="-8" fill="rgba(255,255,255,0.55)" font-size="8" letter-spacing="1.4">cd/klm</text>
<line x1="0" y1="6" x2="22" y2="6" stroke="#F32740" stroke-width="2.2"/>
<text x="28" y="9" fill="rgba(255,255,255,0.7)" font-size="9.5">C0 – C180</text>
<line x1="120" y1="6" x2="142" y2="6" stroke="#3FA9F5" stroke-width="1.7"/>
<text x="148" y="9" fill="rgba(255,255,255,0.7)" font-size="9.5">C90 – C270</text>
</g>
<text x="578" y="402" fill="rgba(255,255,255,0.45)" font-size="9" text-anchor="end">η = 136 lm/W</text>
<text x="578" y="418" fill="rgba(255,255,255,0.45)" font-size="9" text-anchor="end">10,779 lm · 79.3W</text>
<text x="578" y="434" fill="rgba(255,255,255,0.55)" font-size="8" letter-spacing="1.4" text-anchor="end">PEAK INTENSITY</text>
<text x="578" y="451" fill="#fff" font-weight="700" font-size="14" text-anchor="end">5,678 cd</text>
</svg>