<svg viewBox="0 0 600 460" xmlns="http://www.w3.org/2000/svg" font-family="JetBrains Mono, monospace" font-size="9.5">
<rect width="100%" height="100%" fill="#14171b"/>
<text x="22" y="26" fill="#F32740" font-weight="700" letter-spacing="2">LWPA40 · 40W · 3000K · ADJUSTABLE TILT</text>
<text x="22" y="42" fill="rgba(255,255,255,0.55)" font-size="8" letter-spacing="1.4">LUMINOUS INTENSITY DISTRIBUTION (cd/klm)</text>
<path d="M 232.0 64.0 A 68.0 68.0 0 0 0 368.0 64.0" fill="none" stroke="rgba(120,200,200,0.18)" stroke-width="0.7"/>
<path d="M 164.0 64.0 A 136.0 136.0 0 0 0 436.0 64.0" fill="none" stroke="rgba(120,200,200,0.18)" stroke-width="0.7"/>
<path d="M 96.0 64.0 A 204.0 204.0 0 0 0 504.0 64.0" fill="none" stroke="rgba(120,200,200,0.18)" stroke-width="0.7"/>
<path d="M 28.0 64.0 A 272.0 272.0 0 0 0 572.0 64.0" fill="none" stroke="rgba(120,200,200,0.18)" stroke-width="0.7"/>
<path d="M -40.0 64.0 A 340.0 340.0 0 0 0 640.0 64.0" fill="none" stroke="rgba(120,200,200,0.18)" stroke-width="0.7"/>
<line x1="300.0" y1="64" x2="388.0" y2="392.4" stroke="rgba(120,200,200,0.10)" stroke-width="0.5"/>
<line x1="300.0" y1="64" x2="212.0" y2="392.4" stroke="rgba(120,200,200,0.10)" stroke-width="0.5"/>
<line x1="300.0" y1="64" x2="470.0" y2="358.4" stroke="rgba(120,200,200,0.10)" stroke-width="0.5"/>
<line x1="300.0" y1="64" x2="130.0" y2="358.4" stroke="rgba(120,200,200,0.10)" stroke-width="0.5"/>
<line x1="300.0" y1="64" x2="540.4" y2="304.4" stroke="rgba(120,200,200,0.10)" stroke-width="0.5"/>
<line x1="300.0" y1="64" x2="59.6" y2="304.4" stroke="rgba(120,200,200,0.10)" stroke-width="0.5"/>
<line x1="300.0" y1="64" x2="594.4" y2="234.0" stroke="rgba(120,200,200,0.10)" stroke-width="0.5"/>
<line x1="300.0" y1="64" x2="5.6" y2="234.0" stroke="rgba(120,200,200,0.10)" stroke-width="0.5"/>
<line x1="300.0" y1="64" x2="628.4" y2="152.0" stroke="rgba(120,200,200,0.10)" stroke-width="0.5"/>
<line x1="300.0" y1="64" x2="-28.4" y2="152.0" stroke="rgba(120,200,200,0.10)" stroke-width="0.5"/>
<line x1="300.0" y1="64" x2="640.0" y2="64.0" stroke="rgba(120,200,200,0.10)" stroke-width="0.5"/>
<line x1="300.0" y1="64" x2="-40.0" y2="64.0" stroke="rgba(120,200,200,0.10)" stroke-width="0.5"/>
<line x1="300.0" y1="64" x2="300.0" y2="408" stroke="rgba(120,200,200,0.14)" stroke-width="0.5"/>
<line x1="-40.0" y1="64" x2="640.0" y2="64" stroke="rgba(120,200,200,0.14)" stroke-width="0.5"/>
<text x="391.6" y="408.9" text-anchor="middle" fill="rgba(255,255,255,0.4)" font-size="9">15°</text>
<text x="208.4" y="408.9" text-anchor="middle" fill="rgba(255,255,255,0.4)" font-size="9">15°</text>
<text x="477.0" y="373.6" text-anchor="middle" fill="rgba(255,255,255,0.6)" font-size="9">30°</text>
<text x="123.0" y="373.6" text-anchor="middle" fill="rgba(255,255,255,0.6)" font-size="9">30°</text>
<text x="550.3" y="317.3" text-anchor="middle" fill="rgba(255,255,255,0.4)" font-size="9">45°</text>
<text x="49.7" y="317.3" text-anchor="middle" fill="rgba(255,255,255,0.4)" font-size="9">45°</text>
<text x="606.6" y="244.0" text-anchor="middle" fill="rgba(255,255,255,0.6)" font-size="9">60°</text>
<text x="-6.6" y="244.0" text-anchor="middle" fill="rgba(255,255,255,0.6)" font-size="9">60°</text>
<text x="641.9" y="158.6" text-anchor="middle" fill="rgba(255,255,255,0.4)" font-size="9">75°</text>
<text x="-41.9" y="158.6" text-anchor="middle" fill="rgba(255,255,255,0.4)" font-size="9">75°</text>
<text x="654.0" y="67.0" text-anchor="middle" fill="rgba(255,255,255,0.6)" font-size="9">90°</text>
<text x="-54.0" y="67.0" text-anchor="middle" fill="rgba(255,255,255,0.6)" font-size="9">90°</text>
<text x="300" y="426" text-anchor="middle" fill="rgba(255,255,255,0.6)" font-size="9">0°</text>
<path d="M 300.0 200.8 L 302.4 200.8 L 304.8 200.7 L 307.2 200.6 L 309.5 200.4 L 311.9 200.1 L 314.3 199.7 L 316.6 199.3 L 319.0 198.9 L 321.3 198.3 L 323.6 197.8 L 325.9 197.1 L 328.1 196.3 L 330.4 195.5 L 332.6 194.7 L 334.8 193.7 L 336.9 192.7 L 339.0 191.6 L 341.1 190.5 L 343.1 189.2 L 345.1 187.9 L 347.1 186.6 L 348.9 185.1 L 350.8 183.6 L 352.5 182.0 L 354.2 180.3 L 355.9 178.5 L 357.4 176.6 L 358.9 174.7 L 360.2 172.7 L 361.5 170.5 L 362.6 168.3 L 363.7 165.9 L 364.6 163.5 L 365.4 161.0 L 366.1 158.4 L 366.7 155.8 L 367.2 153.1 L 367.5 150.4 L 367.8 147.7 L 367.9 144.9 L 367.9 142.1 L 367.8 139.3 L 367.5 136.4 L 367.1 133.5 L 366.6 130.6 L 366.0 127.7 L 365.2 124.8 L 364.2 121.8 L 363.3 119.0 L 362.2 116.2 L 361.1 113.5 L 360.0 110.9 L 358.8 108.3 L 357.3 105.6 L 355.6 103.0 L 353.8 100.3 L 351.8 97.7 L 349.8 95.1 L 347.8 92.7 L 345.7 90.4 L 343.6 88.2 L 341.5 86.0 L 339.3 84.0 L 337.1 82.1 L 334.7 80.2 L 332.0 78.2 L 329.4 76.5 L 326.8 74.8 L 324.4 73.4 L 322.0 72.0 L 319.5 70.7 L 316.9 69.5 L 314.7 68.5 L 312.6 67.6 L 310.4 66.8 L 308.6 66.1 L 307.1 65.6 L 305.5 65.2 L 304.2 64.8 L 303.3 64.6 L 302.7 64.4 L 302.2 64.3 L 301.9 64.2 L 301.6 64.2 L 301.3 64.1 L 301.1 64.1 L 300.9 64.0 L 300.8 64.0 L 300.7 64.0 L 300.7 64.0 L 299.3 64.0 L 299.2 64.0 L 299.1 64.0 L 299.0 64.1 L 298.8 64.1 L 298.6 64.1 L 298.4 64.2 L 298.1 64.2 L 297.8 64.3 L 297.4 64.4 L 296.9 64.6 L 296.6 64.7 L 296.2 64.8 L 295.5 65.0 L 294.7 65.3 L 293.4 65.8 L 291.7 66.4 L 289.9 67.1 L 287.8 68.0 L 285.3 69.1 L 282.9 70.2 L 280.5 71.5 L 278.0 72.9 L 275.4 74.4 L 272.8 76.1 L 269.9 78.0 L 267.1 80.0 L 264.7 82.0 L 262.5 83.9 L 260.3 86.0 L 258.0 88.2 L 255.9 90.5 L 253.8 92.9 L 251.8 95.3 L 249.8 97.8 L 247.9 100.5 L 246.1 103.2 L 244.3 105.9 L 242.8 108.7 L 241.4 111.5 L 240.2 114.2 L 239.3 116.8 L 238.3 119.5 L 237.5 122.3 L 236.7 125.1 L 236.1 127.9 L 235.6 130.7 L 235.2 133.5 L 234.9 136.3 L 234.7 139.1 L 234.7 141.8 L 234.8 144.5 L 235.0 147.2 L 235.3 149.8 L 235.8 152.4 L 236.3 154.9 L 237.0 157.4 L 237.8 159.8 L 238.7 162.2 L 239.6 164.5 L 240.8 166.6 L 241.9 168.8 L 243.2 170.8 L 244.6 172.8 L 246.0 174.7 L 247.5 176.5 L 249.1 178.3 L 250.7 180.1 L 252.4 181.7 L 254.2 183.3 L 256.0 184.8 L 257.9 186.3 L 259.8 187.7 L 261.8 189.1 L 263.8 190.3 L 265.8 191.6 L 267.9 192.8 L 270.0 193.8 L 272.2 194.9 L 274.4 195.8 L 276.6 196.6 L 278.9 197.4 L 281.2 198.1 L 283.5 198.6 L 285.8 199.2 L 288.1 199.6 L 290.5 200.0 L 292.9 200.3 L 295.2 200.6 L 297.6 200.7 L 300.0 200.8 Z" fill="none" stroke="#3FA9F5" stroke-width="1.7" stroke-linejoin="round" stroke-linecap="round"/>
<path d="M 300.0 200.8 L 302.4 203.1 L 305.0 206.2 L 307.7 210.5 L 310.7 216.5 L 314.0 224.4 L 318.0 235.0 L 322.3 245.5 L 327.2 257.3 L 332.4 268.5 L 337.8 278.1 L 343.2 286.2 L 348.6 292.6 L 353.8 296.9 L 358.7 299.3 L 363.3 300.3 L 367.5 299.5 L 371.2 297.0 L 374.3 292.8 L 376.8 287.0 L 378.4 279.3 L 379.1 270.0 L 378.9 259.3 L 378.1 248.0 L 376.9 236.8 L 375.4 225.7 L 373.7 215.1 L 372.2 205.6 L 370.8 197.2 L 369.5 189.4 L 368.3 182.3 L 367.4 176.1 L 366.7 170.7 L 366.1 165.8 L 365.5 161.2 L 364.9 156.7 L 364.3 152.5 L 363.9 148.8 L 363.5 145.3 L 363.2 142.1 L 362.9 138.9 L 362.6 136.0 L 362.3 133.2 L 361.8 130.3 L 361.3 127.4 L 360.6 124.6 L 359.8 121.8 L 358.9 118.9 L 357.8 116.0 L 356.5 113.1 L 355.0 110.2 L 353.5 107.3 L 351.6 104.4 L 349.6 101.4 L 347.3 98.4 L 344.9 95.5 L 342.3 92.5 L 339.5 89.7 L 336.7 86.9 L 334.0 84.4 L 331.3 82.1 L 329.0 80.1 L 327.1 78.4 L 325.2 76.9 L 323.3 75.4 L 321.3 73.9 L 319.3 72.6 L 317.4 71.4 L 315.6 70.3 L 313.9 69.4 L 312.4 68.5 L 310.9 67.7 L 309.5 67.1 L 308.1 66.5 L 306.9 66.0 L 305.6 65.5 L 304.7 65.2 L 304.0 64.9 L 303.4 64.7 L 302.9 64.6 L 302.4 64.4 L 302.0 64.3 L 301.6 64.2 L 301.2 64.2 L 300.9 64.1 L 300.7 64.1 L 300.6 64.0 L 300.6 64.0 L 300.6 64.0 L 300.6 64.0 L 300.6 64.0 L 299.0 64.0 L 298.7 64.0 L 298.3 64.1 L 297.7 64.1 L 296.9 64.2 L 296.3 64.3 L 295.6 64.5 L 294.9 64.6 L 294.2 64.8 L 293.4 65.0 L 292.7 65.3 L 292.0 65.5 L 291.4 65.8 L 290.8 66.1 L 290.2 66.4 L 289.6 66.8 L 288.7 67.2 L 287.5 67.8 L 287.1 68.2 L 287.2 68.4 L 287.2 68.7 L 286.8 69.1 L 286.3 69.5 L 285.9 70.0 L 285.4 70.5 L 284.9 71.0 L 284.5 71.6 L 284.2 72.0 L 284.0 72.5 L 285.0 72.3 L 285.2 72.5 L 284.4 73.4 L 283.2 74.5 L 281.9 75.7 L 280.9 76.9 L 280.1 77.9 L 279.6 78.8 L 278.9 79.9 L 278.3 80.9 L 277.9 81.9 L 277.5 82.9 L 277.0 84.0 L 277.1 84.6 L 276.9 85.5 L 276.5 86.7 L 276.0 88.0 L 275.1 89.8 L 272.7 93.3 L 269.6 97.8 L 268.3 100.5 L 269.4 100.4 L 271.6 99.1 L 273.3 98.2 L 274.3 98.1 L 274.9 98.6 L 275.2 99.5 L 275.3 100.7 L 275.2 102.2 L 275.0 104.0 L 274.7 106.1 L 274.3 108.5 L 273.8 111.4 L 273.2 114.3 L 272.8 117.4 L 272.6 120.3 L 272.5 122.9 L 272.8 125.1 L 273.2 127.2 L 273.6 129.3 L 274.1 131.5 L 274.3 134.6 L 274.3 138.5 L 274.4 142.8 L 274.6 147.2 L 274.9 151.4 L 275.4 155.8 L 276.0 160.1 L 276.8 164.4 L 277.8 168.6 L 278.9 172.7 L 280.1 176.7 L 281.6 180.4 L 283.2 183.5 L 285.0 186.5 L 286.8 189.3 L 288.8 191.7 L 290.9 193.8 L 293.1 195.5 L 295.3 197.2 L 297.6 198.9 L 300.0 200.8 Z" fill="none" stroke="#F32740" stroke-width="2.0" stroke-linejoin="round" stroke-linecap="round"/>
<text x="338" y="132" fill="#F32740" font-size="9.5" font-weight="700">200</text>
<text x="335" y="200" fill="#F32740" font-size="9.5" font-weight="700">400</text>
<text x="335" y="268" fill="#F32740" font-size="9.5" font-weight="700">600</text>
<text x="335" y="336" fill="#F32740" font-size="9.5" font-weight="700">800</text>
<rect x="274.0" y="58" width="52" height="11" rx="1.5" fill="#fafbfc" stroke="rgba(255,255,255,0.4)" stroke-width="0.5"/>
<line x1="272.0" y1="69.8" x2="328.0" y2="69.8" stroke="#F32740" stroke-width="0.7" stroke-dasharray="1.5 2"/>
<text x="300" y="66" text-anchor="middle" fill="#F32740" font-size="8" font-weight="700" letter-spacing="0.5">cd/klm SCALE</text>
<g transform="translate(22, 434)">
<text x="0" y="-8" fill="rgba(255,255,255,0.55)" font-size="8" letter-spacing="1.4">cd/klm</text>
<line x1="0" y1="6" x2="22" y2="6" stroke="#F32740" stroke-width="2.2"/>
<text x="28" y="9" fill="rgba(255,255,255,0.7)" font-size="9.5">C0 – C180</text>
<line x1="120" y1="6" x2="142" y2="6" stroke="#3FA9F5" stroke-width="1.7"/>
<text x="148" y="9" fill="rgba(255,255,255,0.7)" font-size="9.5">C90 – C270</text>
</g>
<text x="578" y="402" fill="rgba(255,255,255,0.45)" font-size="9" text-anchor="end">η = 131 lm/W</text>
<text x="578" y="418" fill="rgba(255,255,255,0.45)" font-size="9" text-anchor="end">5,873 lm · 44.7W</text>
<text x="578" y="434" fill="rgba(255,255,255,0.55)" font-size="8" letter-spacing="1.4" text-anchor="end">PEAK INTENSITY</text>
<text x="578" y="451" fill="#fff" font-weight="700" font-size="14" text-anchor="end">4,232 cd</text>
</svg>