<svg viewBox="0 0 600 460" xmlns="http://www.w3.org/2000/svg" font-family="JetBrains Mono, monospace" font-size="9.5">
<rect width="100%" height="100%" fill="#14171b"/>
<text x="22" y="26" fill="#F32740" font-weight="700" letter-spacing="2">LWPA80 · 80W · 3000K · ADJUSTABLE TILT</text>
<text x="22" y="42" fill="rgba(255,255,255,0.55)" font-size="8" letter-spacing="1.4">LUMINOUS INTENSITY DISTRIBUTION (cd/klm)</text>
<path d="M 232.0 64.0 A 68.0 68.0 0 0 0 368.0 64.0" fill="none" stroke="rgba(120,200,200,0.18)" stroke-width="0.7"/>
<path d="M 164.0 64.0 A 136.0 136.0 0 0 0 436.0 64.0" fill="none" stroke="rgba(120,200,200,0.18)" stroke-width="0.7"/>
<path d="M 96.0 64.0 A 204.0 204.0 0 0 0 504.0 64.0" fill="none" stroke="rgba(120,200,200,0.18)" stroke-width="0.7"/>
<path d="M 28.0 64.0 A 272.0 272.0 0 0 0 572.0 64.0" fill="none" stroke="rgba(120,200,200,0.18)" stroke-width="0.7"/>
<path d="M -40.0 64.0 A 340.0 340.0 0 0 0 640.0 64.0" fill="none" stroke="rgba(120,200,200,0.18)" stroke-width="0.7"/>
<line x1="300.0" y1="64" x2="388.0" y2="392.4" stroke="rgba(120,200,200,0.10)" stroke-width="0.5"/>
<line x1="300.0" y1="64" x2="212.0" y2="392.4" stroke="rgba(120,200,200,0.10)" stroke-width="0.5"/>
<line x1="300.0" y1="64" x2="470.0" y2="358.4" stroke="rgba(120,200,200,0.10)" stroke-width="0.5"/>
<line x1="300.0" y1="64" x2="130.0" y2="358.4" stroke="rgba(120,200,200,0.10)" stroke-width="0.5"/>
<line x1="300.0" y1="64" x2="540.4" y2="304.4" stroke="rgba(120,200,200,0.10)" stroke-width="0.5"/>
<line x1="300.0" y1="64" x2="59.6" y2="304.4" stroke="rgba(120,200,200,0.10)" stroke-width="0.5"/>
<line x1="300.0" y1="64" x2="594.4" y2="234.0" stroke="rgba(120,200,200,0.10)" stroke-width="0.5"/>
<line x1="300.0" y1="64" x2="5.6" y2="234.0" stroke="rgba(120,200,200,0.10)" stroke-width="0.5"/>
<line x1="300.0" y1="64" x2="628.4" y2="152.0" stroke="rgba(120,200,200,0.10)" stroke-width="0.5"/>
<line x1="300.0" y1="64" x2="-28.4" y2="152.0" stroke="rgba(120,200,200,0.10)" stroke-width="0.5"/>
<line x1="300.0" y1="64" x2="640.0" y2="64.0" stroke="rgba(120,200,200,0.10)" stroke-width="0.5"/>
<line x1="300.0" y1="64" x2="-40.0" y2="64.0" stroke="rgba(120,200,200,0.10)" stroke-width="0.5"/>
<line x1="300.0" y1="64" x2="300.0" y2="408" stroke="rgba(120,200,200,0.14)" stroke-width="0.5"/>
<line x1="-40.0" y1="64" x2="640.0" y2="64" stroke="rgba(120,200,200,0.14)" stroke-width="0.5"/>
<text x="391.6" y="408.9" text-anchor="middle" fill="rgba(255,255,255,0.4)" font-size="9">15°</text>
<text x="208.4" y="408.9" text-anchor="middle" fill="rgba(255,255,255,0.4)" font-size="9">15°</text>
<text x="477.0" y="373.6" text-anchor="middle" fill="rgba(255,255,255,0.6)" font-size="9">30°</text>
<text x="123.0" y="373.6" text-anchor="middle" fill="rgba(255,255,255,0.6)" font-size="9">30°</text>
<text x="550.3" y="317.3" text-anchor="middle" fill="rgba(255,255,255,0.4)" font-size="9">45°</text>
<text x="49.7" y="317.3" text-anchor="middle" fill="rgba(255,255,255,0.4)" font-size="9">45°</text>
<text x="606.6" y="244.0" text-anchor="middle" fill="rgba(255,255,255,0.6)" font-size="9">60°</text>
<text x="-6.6" y="244.0" text-anchor="middle" fill="rgba(255,255,255,0.6)" font-size="9">60°</text>
<text x="641.9" y="158.6" text-anchor="middle" fill="rgba(255,255,255,0.4)" font-size="9">75°</text>
<text x="-41.9" y="158.6" text-anchor="middle" fill="rgba(255,255,255,0.4)" font-size="9">75°</text>
<text x="654.0" y="67.0" text-anchor="middle" fill="rgba(255,255,255,0.6)" font-size="9">90°</text>
<text x="-54.0" y="67.0" text-anchor="middle" fill="rgba(255,255,255,0.6)" font-size="9">90°</text>
<text x="300" y="426" text-anchor="middle" fill="rgba(255,255,255,0.6)" font-size="9">0°</text>
<path d="M 300.0 201.1 L 302.4 201.2 L 304.8 201.0 L 307.2 201.0 L 309.6 200.6 L 311.9 200.4 L 314.3 200.2 L 316.7 199.9 L 319.0 199.1 L 321.3 198.7 L 323.6 198.1 L 325.9 197.5 L 328.2 196.7 L 330.4 195.7 L 332.6 195.0 L 334.8 194.0 L 336.9 192.8 L 339.1 191.8 L 341.2 190.7 L 343.2 189.5 L 345.2 188.1 L 347.1 186.6 L 349.0 185.4 L 350.9 183.9 L 352.6 182.2 L 354.3 180.5 L 355.9 178.6 L 357.5 176.8 L 358.9 174.8 L 360.3 172.8 L 361.6 170.6 L 362.7 168.4 L 363.8 166.0 L 364.7 163.6 L 365.5 161.1 L 366.1 158.5 L 366.8 156.0 L 367.2 153.2 L 367.6 150.5 L 367.9 147.8 L 368.0 145.0 L 367.9 142.1 L 367.8 139.3 L 367.6 136.5 L 367.2 133.6 L 366.6 130.6 L 366.0 127.7 L 365.2 124.8 L 364.2 121.8 L 363.2 118.9 L 362.2 116.2 L 361.1 113.5 L 360.0 110.9 L 358.7 108.3 L 357.2 105.6 L 355.6 102.9 L 353.6 100.2 L 351.7 97.6 L 349.7 95.0 L 347.6 92.6 L 345.6 90.3 L 343.4 88.1 L 341.4 86.0 L 339.2 83.9 L 336.9 82.0 L 334.6 80.1 L 331.8 78.2 L 329.2 76.4 L 326.6 74.8 L 324.3 73.3 L 321.9 72.0 L 319.3 70.7 L 316.7 69.4 L 314.6 68.5 L 312.4 67.6 L 310.3 66.7 L 308.5 66.1 L 306.8 65.6 L 305.4 65.1 L 304.3 64.8 L 303.3 64.6 L 302.7 64.4 L 302.2 64.3 L 301.9 64.2 L 301.6 64.2 L 301.3 64.1 L 301.1 64.1 L 300.9 64.0 L 300.8 64.0 L 300.7 64.0 L 300.7 64.0 L 299.3 64.0 L 299.2 64.0 L 299.1 64.0 L 299.0 64.1 L 298.8 64.1 L 298.6 64.1 L 298.4 64.2 L 298.1 64.2 L 297.8 64.3 L 297.4 64.4 L 296.8 64.6 L 296.6 64.7 L 296.2 64.8 L 295.5 65.0 L 294.6 65.3 L 293.3 65.8 L 291.4 66.5 L 289.5 67.2 L 287.7 68.0 L 285.3 69.1 L 282.7 70.3 L 280.3 71.5 L 277.8 73.0 L 275.3 74.5 L 272.6 76.2 L 269.8 78.1 L 266.9 80.1 L 264.5 82.1 L 262.3 84.0 L 260.1 86.1 L 257.9 88.3 L 255.6 90.7 L 253.6 93.0 L 251.5 95.5 L 249.6 98.0 L 247.7 100.6 L 245.9 103.3 L 244.1 106.1 L 242.5 108.9 L 241.2 111.6 L 240.0 114.3 L 239.0 117.0 L 238.1 119.7 L 237.2 122.6 L 236.5 125.3 L 235.8 128.2 L 235.3 131.0 L 234.8 133.9 L 234.6 136.6 L 234.5 139.3 L 234.5 142.1 L 234.5 144.8 L 234.8 147.5 L 235.1 150.1 L 235.5 152.8 L 236.1 155.3 L 236.8 157.7 L 237.5 160.2 L 238.4 162.5 L 239.5 164.8 L 240.5 167.0 L 241.8 169.0 L 243.1 171.0 L 244.4 173.1 L 245.9 175.0 L 247.4 176.8 L 249.0 178.6 L 250.6 180.5 L 252.3 182.1 L 254.0 183.8 L 255.9 185.2 L 257.8 186.7 L 259.7 188.1 L 261.6 189.5 L 263.6 190.8 L 265.7 192.0 L 267.8 193.2 L 269.9 194.3 L 272.1 195.3 L 274.3 196.1 L 276.5 197.1 L 278.8 197.7 L 281.1 198.4 L 283.4 199.1 L 285.7 199.6 L 288.1 200.1 L 290.5 200.3 L 292.8 200.7 L 295.2 200.9 L 297.6 201.1 L 300.0 201.1 Z" fill="none" stroke="#3FA9F5" stroke-width="1.7" stroke-linejoin="round" stroke-linecap="round"/>
<path d="M 300.0 201.1 L 302.4 203.4 L 305.0 206.7 L 307.7 211.2 L 310.7 217.2 L 314.1 225.2 L 318.0 235.0 L 322.3 246.0 L 327.2 257.8 L 332.5 269.0 L 337.8 278.6 L 343.3 286.9 L 348.7 293.1 L 353.9 297.3 L 358.8 299.7 L 363.3 300.4 L 367.6 299.7 L 371.2 296.9 L 374.1 292.0 L 376.3 285.5 L 377.7 277.6 L 378.3 267.9 L 377.9 256.8 L 377.0 245.4 L 375.8 234.2 L 374.3 223.3 L 372.7 213.0 L 371.3 204.0 L 370.2 196.0 L 369.1 188.6 L 368.0 181.8 L 367.3 176.0 L 366.6 170.6 L 366.2 166.0 L 365.6 161.3 L 365.0 156.8 L 364.5 152.8 L 364.0 149.0 L 363.6 145.4 L 363.3 142.2 L 363.0 139.1 L 362.7 136.2 L 362.4 133.3 L 361.8 130.3 L 361.2 127.4 L 360.6 124.6 L 359.8 121.7 L 358.8 118.8 L 357.7 115.9 L 356.3 112.9 L 354.8 110.0 L 353.2 107.0 L 351.2 104.0 L 349.0 100.9 L 346.7 97.9 L 344.2 95.0 L 341.5 92.0 L 338.7 89.1 L 336.0 86.5 L 333.3 84.0 L 330.7 81.7 L 328.5 79.8 L 326.8 78.2 L 325.0 76.7 L 323.1 75.2 L 321.0 73.8 L 319.0 72.5 L 317.1 71.3 L 315.3 70.2 L 313.7 69.2 L 312.1 68.4 L 310.7 67.7 L 309.2 67.0 L 307.8 66.4 L 306.5 65.9 L 305.5 65.5 L 304.6 65.2 L 304.0 64.9 L 303.4 64.7 L 302.8 64.6 L 302.4 64.4 L 301.9 64.3 L 301.6 64.2 L 301.2 64.2 L 300.9 64.1 L 300.7 64.1 L 300.6 64.0 L 300.6 64.0 L 300.6 64.0 L 300.6 64.0 L 300.6 64.0 L 299.1 64.0 L 298.8 64.0 L 298.4 64.1 L 297.8 64.1 L 297.1 64.2 L 296.3 64.3 L 295.5 64.5 L 294.7 64.7 L 293.9 64.9 L 293.2 65.1 L 292.4 65.3 L 291.7 65.6 L 291.0 65.9 L 290.3 66.2 L 289.7 66.6 L 289.0 66.9 L 288.1 67.4 L 286.9 68.0 L 286.5 68.4 L 286.7 68.6 L 286.6 68.9 L 286.2 69.3 L 285.7 69.8 L 285.2 70.3 L 284.7 70.8 L 284.2 71.4 L 283.8 71.9 L 283.4 72.4 L 283.2 73.0 L 284.4 72.7 L 284.7 72.9 L 283.9 73.7 L 282.8 74.8 L 281.5 76.0 L 280.4 77.2 L 279.6 78.3 L 279.0 79.2 L 278.4 80.2 L 277.9 81.3 L 277.4 82.3 L 277.0 83.3 L 276.5 84.4 L 276.7 85.0 L 276.5 85.9 L 276.1 87.1 L 275.6 88.4 L 274.7 90.2 L 272.6 93.4 L 269.3 98.1 L 267.5 101.4 L 268.1 102.0 L 270.1 100.9 L 272.0 99.8 L 273.2 99.6 L 273.9 99.9 L 274.3 100.7 L 274.5 101.7 L 274.6 103.1 L 274.5 104.8 L 274.5 106.5 L 274.2 108.7 L 273.8 111.2 L 273.4 114.0 L 273.1 116.8 L 273.0 119.4 L 273.0 121.8 L 273.3 123.9 L 273.7 125.9 L 274.1 128.1 L 274.5 130.4 L 274.7 133.6 L 274.7 137.6 L 274.6 142.1 L 274.7 146.6 L 275.1 150.9 L 275.6 155.1 L 276.2 159.4 L 276.9 163.9 L 277.8 168.3 L 278.9 172.4 L 280.2 176.4 L 281.6 180.1 L 283.2 183.3 L 285.0 186.4 L 286.9 189.1 L 288.8 191.7 L 290.9 193.8 L 293.1 195.7 L 295.3 197.3 L 297.6 199.1 L 300.0 201.1 Z" fill="none" stroke="#F32740" stroke-width="2.0" stroke-linejoin="round" stroke-linecap="round"/>
<text x="338" y="132" fill="#F32740" font-size="9.5" font-weight="700">200</text>
<text x="335" y="200" fill="#F32740" font-size="9.5" font-weight="700">400</text>
<text x="335" y="268" fill="#F32740" font-size="9.5" font-weight="700">600</text>
<text x="335" y="336" fill="#F32740" font-size="9.5" font-weight="700">800</text>
<rect x="274.0" y="58" width="52" height="11" rx="1.5" fill="#fafbfc" stroke="rgba(255,255,255,0.4)" stroke-width="0.5"/>
<line x1="272.0" y1="69.8" x2="328.0" y2="69.8" stroke="#F32740" stroke-width="0.7" stroke-dasharray="1.5 2"/>
<text x="300" y="66" text-anchor="middle" fill="#F32740" font-size="8" font-weight="700" letter-spacing="0.5">cd/klm SCALE</text>
<g transform="translate(22, 434)">
<text x="0" y="-8" fill="rgba(255,255,255,0.55)" font-size="8" letter-spacing="1.4">cd/klm</text>
<line x1="0" y1="6" x2="22" y2="6" stroke="#F32740" stroke-width="2.2"/>
<text x="28" y="9" fill="rgba(255,255,255,0.7)" font-size="9.5">C0 – C180</text>
<line x1="120" y1="6" x2="142" y2="6" stroke="#3FA9F5" stroke-width="1.7"/>
<text x="148" y="9" fill="rgba(255,255,255,0.7)" font-size="9.5">C90 – C270</text>
</g>
<text x="578" y="402" fill="rgba(255,255,255,0.45)" font-size="9" text-anchor="end">η = 119 lm/W</text>
<text x="578" y="418" fill="rgba(255,255,255,0.45)" font-size="9" text-anchor="end">9,822 lm · 82.3W</text>
<text x="578" y="434" fill="rgba(255,255,255,0.55)" font-size="8" letter-spacing="1.4" text-anchor="end">PEAK INTENSITY</text>
<text x="578" y="451" fill="#fff" font-weight="700" font-size="14" text-anchor="end">7,083 cd</text>
</svg>