<svg viewBox="0 0 600 460" xmlns="http://www.w3.org/2000/svg" font-family="JetBrains Mono, monospace" font-size="9.5">
<rect width="100%" height="100%" fill="#14171b"/>
<text x="22" y="26" fill="#F32740" font-weight="700" letter-spacing="2">LWPA40 · 40W · 5000K · ADJUSTABLE TILT</text>
<text x="22" y="42" fill="rgba(255,255,255,0.55)" font-size="8" letter-spacing="1.4">LUMINOUS INTENSITY DISTRIBUTION (cd/klm)</text>
<path d="M 232.0 64.0 A 68.0 68.0 0 0 0 368.0 64.0" fill="none" stroke="rgba(120,200,200,0.18)" stroke-width="0.7"/>
<path d="M 164.0 64.0 A 136.0 136.0 0 0 0 436.0 64.0" fill="none" stroke="rgba(120,200,200,0.18)" stroke-width="0.7"/>
<path d="M 96.0 64.0 A 204.0 204.0 0 0 0 504.0 64.0" fill="none" stroke="rgba(120,200,200,0.18)" stroke-width="0.7"/>
<path d="M 28.0 64.0 A 272.0 272.0 0 0 0 572.0 64.0" fill="none" stroke="rgba(120,200,200,0.18)" stroke-width="0.7"/>
<path d="M -40.0 64.0 A 340.0 340.0 0 0 0 640.0 64.0" fill="none" stroke="rgba(120,200,200,0.18)" stroke-width="0.7"/>
<line x1="300.0" y1="64" x2="388.0" y2="392.4" stroke="rgba(120,200,200,0.10)" stroke-width="0.5"/>
<line x1="300.0" y1="64" x2="212.0" y2="392.4" stroke="rgba(120,200,200,0.10)" stroke-width="0.5"/>
<line x1="300.0" y1="64" x2="470.0" y2="358.4" stroke="rgba(120,200,200,0.10)" stroke-width="0.5"/>
<line x1="300.0" y1="64" x2="130.0" y2="358.4" stroke="rgba(120,200,200,0.10)" stroke-width="0.5"/>
<line x1="300.0" y1="64" x2="540.4" y2="304.4" stroke="rgba(120,200,200,0.10)" stroke-width="0.5"/>
<line x1="300.0" y1="64" x2="59.6" y2="304.4" stroke="rgba(120,200,200,0.10)" stroke-width="0.5"/>
<line x1="300.0" y1="64" x2="594.4" y2="234.0" stroke="rgba(120,200,200,0.10)" stroke-width="0.5"/>
<line x1="300.0" y1="64" x2="5.6" y2="234.0" stroke="rgba(120,200,200,0.10)" stroke-width="0.5"/>
<line x1="300.0" y1="64" x2="628.4" y2="152.0" stroke="rgba(120,200,200,0.10)" stroke-width="0.5"/>
<line x1="300.0" y1="64" x2="-28.4" y2="152.0" stroke="rgba(120,200,200,0.10)" stroke-width="0.5"/>
<line x1="300.0" y1="64" x2="640.0" y2="64.0" stroke="rgba(120,200,200,0.10)" stroke-width="0.5"/>
<line x1="300.0" y1="64" x2="-40.0" y2="64.0" stroke="rgba(120,200,200,0.10)" stroke-width="0.5"/>
<line x1="300.0" y1="64" x2="300.0" y2="408" stroke="rgba(120,200,200,0.14)" stroke-width="0.5"/>
<line x1="-40.0" y1="64" x2="640.0" y2="64" stroke="rgba(120,200,200,0.14)" stroke-width="0.5"/>
<text x="391.6" y="408.9" text-anchor="middle" fill="rgba(255,255,255,0.4)" font-size="9">15°</text>
<text x="208.4" y="408.9" text-anchor="middle" fill="rgba(255,255,255,0.4)" font-size="9">15°</text>
<text x="477.0" y="373.6" text-anchor="middle" fill="rgba(255,255,255,0.6)" font-size="9">30°</text>
<text x="123.0" y="373.6" text-anchor="middle" fill="rgba(255,255,255,0.6)" font-size="9">30°</text>
<text x="550.3" y="317.3" text-anchor="middle" fill="rgba(255,255,255,0.4)" font-size="9">45°</text>
<text x="49.7" y="317.3" text-anchor="middle" fill="rgba(255,255,255,0.4)" font-size="9">45°</text>
<text x="606.6" y="244.0" text-anchor="middle" fill="rgba(255,255,255,0.6)" font-size="9">60°</text>
<text x="-6.6" y="244.0" text-anchor="middle" fill="rgba(255,255,255,0.6)" font-size="9">60°</text>
<text x="641.9" y="158.6" text-anchor="middle" fill="rgba(255,255,255,0.4)" font-size="9">75°</text>
<text x="-41.9" y="158.6" text-anchor="middle" fill="rgba(255,255,255,0.4)" font-size="9">75°</text>
<text x="654.0" y="67.0" text-anchor="middle" fill="rgba(255,255,255,0.6)" font-size="9">90°</text>
<text x="-54.0" y="67.0" text-anchor="middle" fill="rgba(255,255,255,0.6)" font-size="9">90°</text>
<text x="300" y="426" text-anchor="middle" fill="rgba(255,255,255,0.6)" font-size="9">0°</text>
<path d="M 300.0 274.6 L 303.7 274.6 L 307.3 274.4 L 311.0 274.1 L 314.7 273.7 L 318.3 273.2 L 321.9 272.5 L 325.5 271.8 L 329.1 270.9 L 332.6 269.8 L 336.1 268.7 L 339.5 267.4 L 342.9 266.1 L 346.3 264.6 L 349.6 263.0 L 352.8 261.1 L 356.0 259.2 L 359.1 257.3 L 362.1 255.2 L 365.1 253.1 L 368.0 250.7 L 370.8 248.4 L 373.5 245.8 L 376.1 243.3 L 378.6 240.6 L 381.1 237.9 L 383.4 235.0 L 385.6 232.0 L 387.7 228.9 L 389.6 225.7 L 391.5 222.4 L 393.2 219.1 L 394.9 215.8 L 396.3 212.3 L 397.7 208.8 L 398.9 205.2 L 399.9 201.6 L 400.9 197.9 L 401.7 194.2 L 402.4 190.4 L 403.0 186.7 L 403.4 183.0 L 403.8 179.2 L 404.0 175.5 L 404.2 171.9 L 404.2 168.2 L 404.1 164.6 L 403.9 160.9 L 403.5 157.2 L 402.9 153.4 L 402.0 149.6 L 400.9 145.7 L 399.5 141.7 L 397.8 137.7 L 395.8 133.6 L 393.6 129.5 L 391.3 125.6 L 388.9 121.7 L 386.4 118.0 L 383.8 114.4 L 380.9 110.7 L 377.9 107.2 L 375.0 103.9 L 372.1 100.7 L 368.9 97.6 L 365.5 94.5 L 361.6 91.4 L 357.7 88.5 L 353.9 85.8 L 350.3 83.3 L 347.0 81.1 L 343.3 78.9 L 339.1 76.7 L 335.2 74.8 L 331.5 73.0 L 327.5 71.4 L 323.5 69.9 L 319.4 68.5 L 314.7 67.1 L 309.9 65.9 L 306.2 65.1 L 304.5 64.7 L 303.7 64.5 L 303.2 64.4 L 302.8 64.3 L 302.3 64.2 L 302.0 64.1 L 301.7 64.1 L 301.4 64.0 L 301.2 64.0 L 301.2 64.0 L 298.9 64.0 L 298.9 64.0 L 298.8 64.0 L 298.5 64.1 L 298.2 64.1 L 297.9 64.2 L 297.4 64.3 L 296.8 64.4 L 295.3 64.7 L 293.0 65.1 L 290.3 65.7 L 287.6 66.4 L 284.5 67.3 L 281.4 68.3 L 278.1 69.5 L 274.8 70.8 L 271.1 72.3 L 267.6 73.9 L 263.9 75.7 L 260.1 77.8 L 256.5 79.8 L 252.9 82.1 L 249.1 84.6 L 245.1 87.3 L 241.1 90.2 L 237.4 93.2 L 233.9 96.2 L 230.8 99.3 L 227.7 102.5 L 224.6 105.8 L 221.5 109.3 L 218.5 113.0 L 215.6 116.7 L 212.9 120.6 L 210.3 124.5 L 207.9 128.5 L 205.7 132.5 L 203.9 136.4 L 202.3 140.4 L 200.9 144.3 L 199.6 148.3 L 198.3 152.4 L 197.2 156.6 L 196.3 160.7 L 195.7 164.7 L 195.4 168.6 L 195.3 172.4 L 195.5 176.1 L 195.8 179.7 L 196.3 183.3 L 196.8 186.9 L 197.5 190.5 L 198.3 194.1 L 199.2 197.8 L 200.2 201.3 L 201.3 205.0 L 202.5 208.5 L 203.9 212.0 L 205.3 215.5 L 206.9 218.9 L 208.7 222.1 L 210.6 225.3 L 212.6 228.4 L 214.7 231.4 L 216.9 234.3 L 219.2 237.2 L 221.6 240.0 L 224.2 242.7 L 226.8 245.3 L 229.5 247.7 L 232.3 250.1 L 235.1 252.4 L 238.1 254.6 L 241.1 256.7 L 244.2 258.7 L 247.3 260.6 L 250.6 262.3 L 253.8 263.9 L 257.2 265.5 L 260.6 266.9 L 264.0 268.3 L 267.5 269.5 L 271.0 270.5 L 274.5 271.5 L 278.1 272.3 L 281.7 273.0 L 285.3 273.5 L 289.0 274.0 L 292.7 274.3 L 296.3 274.5 L 300.0 274.6 Z" fill="none" stroke="#3FA9F5" stroke-width="1.7" stroke-linejoin="round" stroke-linecap="round"/>
<path d="M 300.0 274.6 L 303.7 274.1 L 307.3 273.4 L 310.9 272.6 L 314.5 271.5 L 318.1 270.5 L 321.6 269.5 L 325.1 268.3 L 328.5 266.6 L 331.7 264.0 L 334.7 261.0 L 337.6 257.5 L 340.4 254.0 L 343.0 250.4 L 345.6 246.8 L 348.0 243.2 L 350.4 239.6 L 352.7 236.3 L 355.0 233.3 L 357.3 230.5 L 359.5 227.5 L 361.8 224.9 L 364.2 223.0 L 367.0 221.9 L 370.1 221.5 L 373.9 222.5 L 378.4 224.8 L 383.8 228.5 L 390.2 233.6 L 397.4 239.6 L 405.3 246.3 L 413.6 253.0 L 422.3 259.8 L 431.1 265.8 L 439.4 270.7 L 446.7 273.6 L 452.4 273.8 L 456.2 271.3 L 457.6 265.7 L 456.1 256.8 L 451.5 244.5 L 443.8 229.5 L 434.3 213.2 L 423.8 196.7 L 413.6 181.7 L 405.0 169.0 L 397.9 158.5 L 392.0 149.8 L 387.3 142.6 L 383.7 136.8 L 381.3 132.2 L 379.6 128.5 L 378.3 125.2 L 377.0 122.0 L 375.4 118.8 L 373.6 115.6 L 371.3 112.1 L 368.2 108.3 L 364.6 104.4 L 360.6 100.4 L 356.7 96.7 L 352.7 93.2 L 349.3 90.2 L 346.1 87.5 L 342.8 84.9 L 339.3 82.3 L 335.7 79.9 L 332.1 77.6 L 328.8 75.6 L 325.7 73.8 L 323.0 72.4 L 320.6 71.1 L 318.6 70.0 L 316.8 69.1 L 315.1 68.3 L 313.5 67.6 L 312.1 67.0 L 310.6 66.5 L 309.2 66.0 L 307.7 65.5 L 306.2 65.1 L 304.7 64.7 L 303.5 64.5 L 302.2 64.3 L 301.5 64.2 L 301.1 64.1 L 300.9 64.1 L 300.9 64.0 L 300.9 64.0 L 300.9 64.0 L 300.9 64.0 L 298.5 64.0 L 298.3 64.0 L 298.1 64.1 L 297.8 64.1 L 297.4 64.2 L 297.0 64.3 L 296.6 64.4 L 296.2 64.5 L 295.8 64.6 L 295.3 64.7 L 294.9 64.9 L 294.4 65.1 L 293.9 65.3 L 293.4 65.5 L 292.7 65.8 L 291.7 66.2 L 290.7 66.7 L 290.4 67.0 L 290.3 67.1 L 290.1 67.4 L 289.7 67.8 L 289.1 68.2 L 288.6 68.6 L 288.0 69.1 L 287.4 69.6 L 286.7 70.2 L 286.1 70.8 L 285.5 71.4 L 285.1 71.9 L 285.2 72.2 L 284.8 72.8 L 283.5 73.9 L 283.2 74.5 L 283.5 74.7 L 283.4 75.2 L 283.0 75.9 L 282.4 76.8 L 281.7 77.8 L 280.1 79.5 L 278.6 81.3 L 275.1 84.9 L 269.8 90.3 L 263.0 97.3 L 254.4 106.5 L 242.4 119.6 L 228.9 135.1 L 222.1 144.7 L 217.0 153.0 L 210.5 163.4 L 204.5 173.9 L 200.3 182.8 L 197.5 190.6 L 196.1 197.0 L 195.7 202.4 L 196.1 207.0 L 197.0 211.2 L 198.1 215.1 L 199.5 218.8 L 201.1 222.3 L 202.8 225.7 L 204.7 229.1 L 206.6 232.4 L 208.7 235.7 L 210.9 239.0 L 213.0 242.4 L 215.1 246.1 L 217.2 250.1 L 219.1 254.5 L 221.2 259.1 L 223.3 263.9 L 225.3 269.3 L 227.7 274.0 L 230.8 276.8 L 234.8 277.2 L 238.9 277.0 L 242.8 277.3 L 246.5 278.6 L 250.1 280.2 L 254.1 279.9 L 258.5 277.4 L 262.7 275.4 L 266.6 274.6 L 270.4 274.6 L 274.1 274.9 L 277.8 275.6 L 281.4 276.2 L 285.1 276.5 L 288.9 276.4 L 292.6 275.9 L 296.3 275.3 L 300.0 274.6 Z" fill="none" stroke="#F32740" stroke-width="2.0" stroke-linejoin="round" stroke-linecap="round"/>
<text x="338" y="132" fill="#F32740" font-size="9.5" font-weight="700">125</text>
<text x="335" y="200" fill="#F32740" font-size="9.5" font-weight="700">250</text>
<text x="335" y="268" fill="#F32740" font-size="9.5" font-weight="700">375</text>
<text x="335" y="336" fill="#F32740" font-size="9.5" font-weight="700">500</text>
<rect x="274.0" y="58" width="52" height="11" rx="1.5" fill="#fafbfc" stroke="rgba(255,255,255,0.4)" stroke-width="0.5"/>
<line x1="272.0" y1="69.8" x2="328.0" y2="69.8" stroke="#F32740" stroke-width="0.7" stroke-dasharray="1.5 2"/>
<text x="300" y="66" text-anchor="middle" fill="#F32740" font-size="8" font-weight="700" letter-spacing="0.5">cd/klm SCALE</text>
<g transform="translate(22, 434)">
<text x="0" y="-8" fill="rgba(255,255,255,0.55)" font-size="8" letter-spacing="1.4">cd/klm</text>
<line x1="0" y1="6" x2="22" y2="6" stroke="#F32740" stroke-width="2.2"/>
<text x="28" y="9" fill="rgba(255,255,255,0.7)" font-size="9.5">C0 – C180</text>
<line x1="120" y1="6" x2="142" y2="6" stroke="#3FA9F5" stroke-width="1.7"/>
<text x="148" y="9" fill="rgba(255,255,255,0.7)" font-size="9.5">C90 – C270</text>
</g>
<text x="578" y="402" fill="rgba(255,255,255,0.45)" font-size="9" text-anchor="end">η = 137 lm/W</text>
<text x="578" y="418" fill="rgba(255,255,255,0.45)" font-size="9" text-anchor="end">6,119 lm · 44.6W</text>
<text x="578" y="434" fill="rgba(255,255,255,0.55)" font-size="8" letter-spacing="1.4" text-anchor="end">PEAK INTENSITY</text>
<text x="578" y="451" fill="#fff" font-weight="700" font-size="14" text-anchor="end">2,919 cd</text>
</svg>