<svg viewBox="0 0 600 460" xmlns="http://www.w3.org/2000/svg" font-family="JetBrains Mono, monospace" font-size="9.5">
<rect width="100%" height="100%" fill="#14171b"/>
<text x="22" y="26" fill="#F32740" font-weight="700" letter-spacing="2">LWPA80 · 80W · 5000K · ADJUSTABLE TILT</text>
<text x="22" y="42" fill="rgba(255,255,255,0.55)" font-size="8" letter-spacing="1.4">LUMINOUS INTENSITY DISTRIBUTION (cd/klm)</text>
<path d="M 232.0 64.0 A 68.0 68.0 0 0 0 368.0 64.0" fill="none" stroke="rgba(120,200,200,0.18)" stroke-width="0.7"/>
<path d="M 164.0 64.0 A 136.0 136.0 0 0 0 436.0 64.0" fill="none" stroke="rgba(120,200,200,0.18)" stroke-width="0.7"/>
<path d="M 96.0 64.0 A 204.0 204.0 0 0 0 504.0 64.0" fill="none" stroke="rgba(120,200,200,0.18)" stroke-width="0.7"/>
<path d="M 28.0 64.0 A 272.0 272.0 0 0 0 572.0 64.0" fill="none" stroke="rgba(120,200,200,0.18)" stroke-width="0.7"/>
<path d="M -40.0 64.0 A 340.0 340.0 0 0 0 640.0 64.0" fill="none" stroke="rgba(120,200,200,0.18)" stroke-width="0.7"/>
<line x1="300.0" y1="64" x2="388.0" y2="392.4" stroke="rgba(120,200,200,0.10)" stroke-width="0.5"/>
<line x1="300.0" y1="64" x2="212.0" y2="392.4" stroke="rgba(120,200,200,0.10)" stroke-width="0.5"/>
<line x1="300.0" y1="64" x2="470.0" y2="358.4" stroke="rgba(120,200,200,0.10)" stroke-width="0.5"/>
<line x1="300.0" y1="64" x2="130.0" y2="358.4" stroke="rgba(120,200,200,0.10)" stroke-width="0.5"/>
<line x1="300.0" y1="64" x2="540.4" y2="304.4" stroke="rgba(120,200,200,0.10)" stroke-width="0.5"/>
<line x1="300.0" y1="64" x2="59.6" y2="304.4" stroke="rgba(120,200,200,0.10)" stroke-width="0.5"/>
<line x1="300.0" y1="64" x2="594.4" y2="234.0" stroke="rgba(120,200,200,0.10)" stroke-width="0.5"/>
<line x1="300.0" y1="64" x2="5.6" y2="234.0" stroke="rgba(120,200,200,0.10)" stroke-width="0.5"/>
<line x1="300.0" y1="64" x2="628.4" y2="152.0" stroke="rgba(120,200,200,0.10)" stroke-width="0.5"/>
<line x1="300.0" y1="64" x2="-28.4" y2="152.0" stroke="rgba(120,200,200,0.10)" stroke-width="0.5"/>
<line x1="300.0" y1="64" x2="640.0" y2="64.0" stroke="rgba(120,200,200,0.10)" stroke-width="0.5"/>
<line x1="300.0" y1="64" x2="-40.0" y2="64.0" stroke="rgba(120,200,200,0.10)" stroke-width="0.5"/>
<line x1="300.0" y1="64" x2="300.0" y2="408" stroke="rgba(120,200,200,0.14)" stroke-width="0.5"/>
<line x1="-40.0" y1="64" x2="640.0" y2="64" stroke="rgba(120,200,200,0.14)" stroke-width="0.5"/>
<text x="391.6" y="408.9" text-anchor="middle" fill="rgba(255,255,255,0.4)" font-size="9">15°</text>
<text x="208.4" y="408.9" text-anchor="middle" fill="rgba(255,255,255,0.4)" font-size="9">15°</text>
<text x="477.0" y="373.6" text-anchor="middle" fill="rgba(255,255,255,0.6)" font-size="9">30°</text>
<text x="123.0" y="373.6" text-anchor="middle" fill="rgba(255,255,255,0.6)" font-size="9">30°</text>
<text x="550.3" y="317.3" text-anchor="middle" fill="rgba(255,255,255,0.4)" font-size="9">45°</text>
<text x="49.7" y="317.3" text-anchor="middle" fill="rgba(255,255,255,0.4)" font-size="9">45°</text>
<text x="606.6" y="244.0" text-anchor="middle" fill="rgba(255,255,255,0.6)" font-size="9">60°</text>
<text x="-6.6" y="244.0" text-anchor="middle" fill="rgba(255,255,255,0.6)" font-size="9">60°</text>
<text x="641.9" y="158.6" text-anchor="middle" fill="rgba(255,255,255,0.4)" font-size="9">75°</text>
<text x="-41.9" y="158.6" text-anchor="middle" fill="rgba(255,255,255,0.4)" font-size="9">75°</text>
<text x="654.0" y="67.0" text-anchor="middle" fill="rgba(255,255,255,0.6)" font-size="9">90°</text>
<text x="-54.0" y="67.0" text-anchor="middle" fill="rgba(255,255,255,0.6)" font-size="9">90°</text>
<text x="300" y="426" text-anchor="middle" fill="rgba(255,255,255,0.6)" font-size="9">0°</text>
<path d="M 300.0 275.2 L 303.7 275.2 L 307.4 275.2 L 311.0 274.7 L 314.7 274.2 L 318.4 273.8 L 322.0 273.3 L 325.6 272.3 L 329.2 271.5 L 332.7 270.4 L 336.2 269.4 L 339.7 268.3 L 343.1 266.6 L 346.4 265.2 L 349.7 263.5 L 353.0 261.8 L 356.2 259.9 L 359.3 257.9 L 362.4 256.1 L 365.3 253.6 L 368.2 251.4 L 370.9 248.7 L 373.7 246.5 L 376.5 244.1 L 379.0 241.4 L 381.3 238.5 L 383.7 235.6 L 385.9 232.5 L 388.1 229.6 L 389.9 226.1 L 391.8 223.0 L 393.5 219.6 L 395.2 216.4 L 396.8 213.1 L 398.2 209.5 L 399.2 205.7 L 400.3 202.1 L 401.3 198.5 L 402.1 194.7 L 402.8 190.9 L 403.5 187.4 L 403.9 183.5 L 404.2 179.8 L 404.5 176.1 L 404.7 172.4 L 404.7 168.7 L 404.7 165.1 L 404.5 161.4 L 404.0 157.6 L 403.3 153.8 L 402.6 150.1 L 401.4 146.1 L 399.9 142.1 L 398.2 138.0 L 396.2 133.9 L 394.2 130.0 L 391.8 125.9 L 389.5 122.1 L 386.9 118.3 L 384.3 114.7 L 381.3 111.0 L 378.5 107.5 L 375.5 104.1 L 372.6 101.0 L 369.3 97.8 L 365.9 94.7 L 362.0 91.6 L 358.2 88.7 L 354.4 86.0 L 350.7 83.5 L 347.4 81.2 L 343.7 79.0 L 339.5 76.8 L 335.5 74.8 L 331.8 73.1 L 327.9 71.5 L 323.7 69.9 L 320.0 68.6 L 315.2 67.2 L 310.4 66.0 L 306.5 65.1 L 304.6 64.7 L 303.8 64.5 L 303.3 64.4 L 302.8 64.3 L 302.4 64.2 L 302.0 64.1 L 301.7 64.1 L 301.4 64.0 L 301.3 64.0 L 301.2 64.0 L 298.9 64.0 L 298.9 64.0 L 298.8 64.0 L 298.5 64.1 L 298.2 64.1 L 297.9 64.2 L 297.5 64.3 L 296.9 64.4 L 294.8 64.7 L 292.7 65.2 L 290.6 65.7 L 287.9 66.4 L 284.6 67.3 L 281.6 68.3 L 278.1 69.5 L 274.9 70.7 L 271.2 72.3 L 267.7 73.9 L 263.9 75.7 L 260.0 77.8 L 256.4 79.9 L 252.9 82.1 L 249.1 84.6 L 245.1 87.3 L 241.2 90.2 L 237.4 93.2 L 233.9 96.2 L 230.7 99.3 L 227.7 102.5 L 224.6 105.8 L 221.4 109.4 L 218.5 112.9 L 215.7 116.7 L 212.9 120.6 L 210.3 124.5 L 207.9 128.5 L 205.7 132.5 L 203.8 136.5 L 202.2 140.4 L 200.8 144.3 L 199.5 148.3 L 198.4 152.3 L 197.1 156.6 L 196.2 160.8 L 195.7 164.8 L 195.3 168.7 L 195.2 172.5 L 195.4 176.2 L 195.7 179.9 L 196.3 183.3 L 196.8 187.0 L 197.4 190.7 L 198.1 194.5 L 199.0 198.1 L 199.9 201.7 L 201.0 205.3 L 202.3 208.8 L 203.6 212.5 L 205.2 215.7 L 206.8 219.2 L 208.5 222.5 L 210.2 226.0 L 212.3 229.0 L 214.4 232.0 L 216.7 234.8 L 219.1 237.6 L 221.4 240.6 L 223.9 243.2 L 226.6 245.7 L 229.3 248.3 L 232.1 250.6 L 234.9 253.0 L 237.9 255.1 L 240.9 257.2 L 244.0 259.3 L 247.1 261.3 L 250.4 262.7 L 253.7 264.6 L 257.1 266.0 L 260.4 267.6 L 263.9 268.8 L 267.4 270.0 L 270.9 271.2 L 274.4 272.1 L 278.0 272.9 L 281.7 273.4 L 285.3 274.2 L 289.0 274.7 L 292.6 274.9 L 296.3 275.1 L 300.0 275.2 Z" fill="none" stroke="#3FA9F5" stroke-width="1.7" stroke-linejoin="round" stroke-linecap="round"/>
<path d="M 300.0 275.2 L 303.7 274.4 L 307.3 273.8 L 310.9 272.9 L 314.5 272.0 L 318.1 270.9 L 321.6 269.9 L 325.1 268.8 L 328.5 266.9 L 331.8 264.5 L 334.8 261.6 L 337.7 258.0 L 340.5 254.5 L 343.1 250.7 L 345.6 246.9 L 348.0 243.0 L 350.3 239.5 L 352.5 235.9 L 354.9 232.9 L 357.0 229.7 L 359.1 226.4 L 361.3 223.7 L 363.7 221.7 L 366.4 220.5 L 369.6 220.3 L 373.4 221.5 L 378.0 224.0 L 383.6 228.2 L 390.4 234.0 L 397.9 240.6 L 405.9 247.5 L 414.7 254.9 L 423.8 262.1 L 432.6 268.2 L 440.8 272.8 L 447.7 275.0 L 453.1 274.8 L 456.4 271.5 L 457.0 265.0 L 454.7 255.0 L 449.7 242.4 L 442.1 227.5 L 432.6 211.3 L 422.4 195.3 L 413.0 181.0 L 405.0 169.0 L 398.3 159.0 L 392.8 150.5 L 388.5 143.7 L 385.0 137.9 L 382.9 133.5 L 381.3 129.9 L 380.0 126.5 L 378.7 123.3 L 376.9 119.9 L 375.0 116.5 L 372.4 112.8 L 369.1 108.9 L 365.3 104.8 L 361.2 100.8 L 357.4 97.2 L 353.5 93.7 L 350.1 90.6 L 346.7 87.8 L 343.3 85.1 L 339.5 82.4 L 335.8 80.0 L 332.2 77.7 L 328.8 75.6 L 325.7 73.9 L 323.1 72.4 L 320.8 71.2 L 318.8 70.1 L 317.0 69.2 L 315.3 68.4 L 313.7 67.7 L 312.3 67.1 L 310.9 66.5 L 309.4 66.0 L 307.9 65.5 L 306.4 65.1 L 305.0 64.8 L 303.7 64.5 L 302.3 64.3 L 301.6 64.2 L 301.1 64.1 L 300.9 64.1 L 300.9 64.0 L 300.9 64.0 L 300.9 64.0 L 300.9 64.0 L 298.5 64.0 L 298.4 64.0 L 298.2 64.1 L 297.9 64.1 L 297.6 64.2 L 297.2 64.2 L 296.7 64.3 L 296.3 64.5 L 295.8 64.6 L 295.3 64.7 L 294.8 64.9 L 294.4 65.1 L 293.8 65.3 L 293.3 65.5 L 292.7 65.8 L 291.6 66.2 L 290.6 66.7 L 290.2 67.0 L 290.2 67.2 L 290.0 67.4 L 289.6 67.8 L 289.1 68.2 L 288.6 68.6 L 288.0 69.1 L 287.4 69.6 L 286.7 70.2 L 286.1 70.8 L 285.5 71.4 L 285.0 72.0 L 285.0 72.3 L 284.6 72.9 L 283.4 74.0 L 283.0 74.6 L 283.4 74.8 L 283.3 75.3 L 283.0 75.9 L 282.5 76.7 L 281.9 77.7 L 280.9 78.9 L 279.3 80.8 L 276.3 83.9 L 271.6 88.7 L 265.4 95.1 L 257.4 103.7 L 246.3 115.9 L 232.4 131.6 L 223.9 142.8 L 219.1 150.8 L 212.8 160.8 L 206.5 171.5 L 203.0 179.6 L 199.7 187.8 L 196.7 196.2 L 196.0 202.0 L 196.5 206.5 L 197.1 210.9 L 198.0 215.2 L 199.4 218.9 L 201.1 222.2 L 202.6 226.0 L 204.6 229.2 L 206.6 232.5 L 208.6 236.0 L 210.7 239.3 L 212.8 242.8 L 214.9 246.5 L 216.9 250.6 L 218.9 255.1 L 220.9 259.8 L 222.9 265.0 L 225.0 270.1 L 227.4 274.9 L 230.4 278.2 L 234.4 278.6 L 238.4 278.7 L 242.4 279.0 L 246.1 280.1 L 249.8 281.6 L 253.8 281.6 L 258.2 279.0 L 262.5 276.5 L 266.5 275.4 L 270.3 275.4 L 274.0 275.4 L 277.7 276.2 L 281.4 276.9 L 285.1 277.3 L 288.8 277.2 L 292.6 276.6 L 296.3 275.9 L 300.0 275.2 Z" fill="none" stroke="#F32740" stroke-width="2.0" stroke-linejoin="round" stroke-linecap="round"/>
<text x="338" y="132" fill="#F32740" font-size="9.5" font-weight="700">125</text>
<text x="335" y="200" fill="#F32740" font-size="9.5" font-weight="700">250</text>
<text x="335" y="268" fill="#F32740" font-size="9.5" font-weight="700">375</text>
<text x="335" y="336" fill="#F32740" font-size="9.5" font-weight="700">500</text>
<rect x="274.0" y="58" width="52" height="11" rx="1.5" fill="#fafbfc" stroke="rgba(255,255,255,0.4)" stroke-width="0.5"/>
<line x1="272.0" y1="69.8" x2="328.0" y2="69.8" stroke="#F32740" stroke-width="0.7" stroke-dasharray="1.5 2"/>
<text x="300" y="66" text-anchor="middle" fill="#F32740" font-size="8" font-weight="700" letter-spacing="0.5">cd/klm SCALE</text>
<g transform="translate(22, 434)">
<text x="0" y="-8" fill="rgba(255,255,255,0.55)" font-size="8" letter-spacing="1.4">cd/klm</text>
<line x1="0" y1="6" x2="22" y2="6" stroke="#F32740" stroke-width="2.2"/>
<text x="28" y="9" fill="rgba(255,255,255,0.7)" font-size="9.5">C0 – C180</text>
<line x1="120" y1="6" x2="142" y2="6" stroke="#3FA9F5" stroke-width="1.7"/>
<text x="148" y="9" fill="rgba(255,255,255,0.7)" font-size="9.5">C90 – C270</text>
</g>
<text x="578" y="402" fill="rgba(255,255,255,0.45)" font-size="9" text-anchor="end">η = 127 lm/W</text>
<text x="578" y="418" fill="rgba(255,255,255,0.45)" font-size="9" text-anchor="end">10,400 lm · 82.2W</text>
<text x="578" y="434" fill="rgba(255,255,255,0.55)" font-size="8" letter-spacing="1.4" text-anchor="end">PEAK INTENSITY</text>
<text x="578" y="451" fill="#fff" font-weight="700" font-size="14" text-anchor="end">4,980 cd</text>
</svg>